%TF.GenerationSoftware,KiCad,Pcbnew,(5.1.8-0-10_14)*%
%TF.CreationDate,2020-11-27T14:09:33+02:00*%
%TF.ProjectId,SH-ESP32,53482d45-5350-4333-922e-6b696361645f,0.2.0*%
%TF.SameCoordinates,Original*%
%TF.FileFunction,Soldermask,Bot*%
%TF.FilePolarity,Negative*%
%FSLAX46Y46*%
G04 Gerber Fmt 4.6, Leading zero omitted, Abs format (unit mm)*
G04 Created by KiCad (PCBNEW (5.1.8-0-10_14)) date 2020-11-27 14:09:33*
%MOMM*%
%LPD*%
G01*
G04 APERTURE LIST*
%TA.AperFunction,Profile*%
%ADD10C,0.050000*%
%TD*%
%ADD11O,1.950000X0.950000*%
%ADD12C,0.940000*%
%ADD13O,1.800000X1.800000*%
%ADD14C,0.100000*%
%ADD15C,1.900000*%
%ADD16O,1.900000X1.800000*%
%ADD17O,1.900000X3.700000*%
%ADD18C,6.400000*%
G04 APERTURE END LIST*
D10*
X169500000Y-115000000D02*
G75*
G02*
X178000000Y-106500000I8500000J0D01*
G01*
X89000000Y-106500000D02*
G75*
G02*
X97500000Y-115000000I0J-8500000D01*
G01*
X178000000Y-65500000D02*
G75*
G02*
X169500000Y-57000000I0J8500000D01*
G01*
X97500000Y-57000000D02*
G75*
G02*
X89000000Y-65500000I-8500000J0D01*
G01*
X178000000Y-106500000D02*
X178000000Y-65500000D01*
X169500000Y-115000000D02*
X97500000Y-115000000D01*
X169500000Y-57000000D02*
X97500000Y-57000000D01*
X89000000Y-65500000D02*
X89000000Y-106500000D01*
D11*
%TO.C,J401*%
X174720000Y-93875000D03*
X174720000Y-101025000D03*
D12*
X174500000Y-96150000D03*
X175500000Y-96800000D03*
X174500000Y-97450000D03*
X175500000Y-98100000D03*
G36*
G01*
X174920000Y-99220000D02*
X174080000Y-99220000D01*
G75*
G02*
X174030000Y-99170000I0J50000D01*
G01*
X174030000Y-98330000D01*
G75*
G02*
X174080000Y-98280000I50000J0D01*
G01*
X174920000Y-98280000D01*
G75*
G02*
X174970000Y-98330000I0J-50000D01*
G01*
X174970000Y-99170000D01*
G75*
G02*
X174920000Y-99220000I-50000J0D01*
G01*
G37*
%TD*%
%TO.C,J203*%
G36*
G01*
X130650000Y-91390000D02*
X130650000Y-89690000D01*
G75*
G02*
X130700000Y-89640000I50000J0D01*
G01*
X132400000Y-89640000D01*
G75*
G02*
X132450000Y-89690000I0J-50000D01*
G01*
X132450000Y-91390000D01*
G75*
G02*
X132400000Y-91440000I-50000J0D01*
G01*
X130700000Y-91440000D01*
G75*
G02*
X130650000Y-91390000I0J50000D01*
G01*
G37*
%TD*%
D13*
%TO.C,J202*%
X99740000Y-61340000D03*
X99740000Y-58800000D03*
X102280000Y-61340000D03*
X102280000Y-58800000D03*
X104820000Y-61340000D03*
G36*
G01*
X103970000Y-57900000D02*
X105670000Y-57900000D01*
G75*
G02*
X105720000Y-57950000I0J-50000D01*
G01*
X105720000Y-59650000D01*
G75*
G02*
X105670000Y-59700000I-50000J0D01*
G01*
X103970000Y-59700000D01*
G75*
G02*
X103920000Y-59650000I0J50000D01*
G01*
X103920000Y-57950000D01*
G75*
G02*
X103970000Y-57900000I50000J0D01*
G01*
G37*
%TD*%
D14*
%TO.C,JP206*%
G36*
X156225245Y-75069039D02*
G01*
X156215866Y-75066194D01*
X156207221Y-75061573D01*
X156199645Y-75055355D01*
X156193427Y-75047779D01*
X156188806Y-75039134D01*
X156185961Y-75029755D01*
X156185000Y-75020000D01*
X156185000Y-74020000D01*
X156185961Y-74010245D01*
X156188806Y-74000866D01*
X156193427Y-73992221D01*
X156199645Y-73984645D01*
X156207221Y-73978427D01*
X156215866Y-73973806D01*
X156225245Y-73970961D01*
X156235000Y-73970000D01*
X157385000Y-73970000D01*
X157394755Y-73970961D01*
X157404134Y-73973806D01*
X157412779Y-73978427D01*
X157420355Y-73984645D01*
X157426573Y-73992221D01*
X157431194Y-74000866D01*
X157434039Y-74010245D01*
X157435000Y-74020000D01*
X157434039Y-74029755D01*
X157431194Y-74039134D01*
X157426573Y-74047779D01*
X157420355Y-74055355D01*
X156955710Y-74520000D01*
X157420355Y-74984645D01*
X157426573Y-74992221D01*
X157431194Y-75000866D01*
X157434039Y-75010245D01*
X157435000Y-75020000D01*
X157434039Y-75029755D01*
X157431194Y-75039134D01*
X157426573Y-75047779D01*
X157420355Y-75055355D01*
X157412779Y-75061573D01*
X157404134Y-75066194D01*
X157394755Y-75069039D01*
X157385000Y-75070000D01*
X156235000Y-75070000D01*
X156225245Y-75069039D01*
G37*
G36*
X157650245Y-75069039D02*
G01*
X157640866Y-75066194D01*
X157632221Y-75061573D01*
X157624645Y-75055355D01*
X157124645Y-74555355D01*
X157118427Y-74547779D01*
X157113806Y-74539134D01*
X157110961Y-74529755D01*
X157110000Y-74520000D01*
X157110961Y-74510245D01*
X157113806Y-74500866D01*
X157118427Y-74492221D01*
X157124645Y-74484645D01*
X157624645Y-73984645D01*
X157632221Y-73978427D01*
X157640866Y-73973806D01*
X157650245Y-73970961D01*
X157660000Y-73970000D01*
X158660000Y-73970000D01*
X158669755Y-73970961D01*
X158679134Y-73973806D01*
X158687779Y-73978427D01*
X158695355Y-73984645D01*
X158701573Y-73992221D01*
X158706194Y-74000866D01*
X158709039Y-74010245D01*
X158710000Y-74020000D01*
X158710000Y-75020000D01*
X158709039Y-75029755D01*
X158706194Y-75039134D01*
X158701573Y-75047779D01*
X158695355Y-75055355D01*
X158687779Y-75061573D01*
X158679134Y-75066194D01*
X158669755Y-75069039D01*
X158660000Y-75070000D01*
X157660000Y-75070000D01*
X157650245Y-75069039D01*
G37*
%TD*%
D13*
%TO.C,J201*%
X117520000Y-61340000D03*
X117520000Y-58800000D03*
X120060000Y-61340000D03*
X120060000Y-58800000D03*
X122600000Y-61340000D03*
X122600000Y-58800000D03*
X125140000Y-61340000D03*
X125140000Y-58800000D03*
X127680000Y-61340000D03*
X127680000Y-58800000D03*
X130220000Y-61340000D03*
X130220000Y-58800000D03*
X132760000Y-61340000D03*
X132760000Y-58800000D03*
X135300000Y-61340000D03*
X135300000Y-58800000D03*
X137840000Y-61340000D03*
X137840000Y-58800000D03*
X140380000Y-61340000D03*
X140380000Y-58800000D03*
X142920000Y-61340000D03*
X142920000Y-58800000D03*
X145460000Y-61340000D03*
X145460000Y-58800000D03*
X148000000Y-61340000D03*
X148000000Y-58800000D03*
X150540000Y-61340000D03*
X150540000Y-58800000D03*
X153080000Y-61340000D03*
X153080000Y-58800000D03*
X155620000Y-61340000D03*
X155620000Y-58800000D03*
X158160000Y-61340000D03*
X158160000Y-58800000D03*
X160700000Y-61340000D03*
X160700000Y-58800000D03*
X163240000Y-61340000D03*
X163240000Y-58800000D03*
X165780000Y-61340000D03*
G36*
G01*
X164930000Y-57900000D02*
X166630000Y-57900000D01*
G75*
G02*
X166680000Y-57950000I0J-50000D01*
G01*
X166680000Y-59650000D01*
G75*
G02*
X166630000Y-59700000I-50000J0D01*
G01*
X164930000Y-59700000D01*
G75*
G02*
X164880000Y-59650000I0J50000D01*
G01*
X164880000Y-57950000D01*
G75*
G02*
X164930000Y-57900000I50000J0D01*
G01*
G37*
%TD*%
D14*
%TO.C,JP601*%
G36*
X112012245Y-103673039D02*
G01*
X112002866Y-103670194D01*
X111994221Y-103665573D01*
X111986645Y-103659355D01*
X111980427Y-103651779D01*
X111975806Y-103643134D01*
X111972961Y-103633755D01*
X111972000Y-103624000D01*
X111972000Y-102624000D01*
X111972961Y-102614245D01*
X111975806Y-102604866D01*
X111980427Y-102596221D01*
X111986645Y-102588645D01*
X111994221Y-102582427D01*
X112002866Y-102577806D01*
X112012245Y-102574961D01*
X112022000Y-102574000D01*
X113172000Y-102574000D01*
X113181755Y-102574961D01*
X113191134Y-102577806D01*
X113199779Y-102582427D01*
X113207355Y-102588645D01*
X113213573Y-102596221D01*
X113218194Y-102604866D01*
X113221039Y-102614245D01*
X113222000Y-102624000D01*
X113221039Y-102633755D01*
X113218194Y-102643134D01*
X113213573Y-102651779D01*
X113207355Y-102659355D01*
X112742710Y-103124000D01*
X113207355Y-103588645D01*
X113213573Y-103596221D01*
X113218194Y-103604866D01*
X113221039Y-103614245D01*
X113222000Y-103624000D01*
X113221039Y-103633755D01*
X113218194Y-103643134D01*
X113213573Y-103651779D01*
X113207355Y-103659355D01*
X113199779Y-103665573D01*
X113191134Y-103670194D01*
X113181755Y-103673039D01*
X113172000Y-103674000D01*
X112022000Y-103674000D01*
X112012245Y-103673039D01*
G37*
G36*
X113437245Y-103673039D02*
G01*
X113427866Y-103670194D01*
X113419221Y-103665573D01*
X113411645Y-103659355D01*
X112911645Y-103159355D01*
X112905427Y-103151779D01*
X112900806Y-103143134D01*
X112897961Y-103133755D01*
X112897000Y-103124000D01*
X112897961Y-103114245D01*
X112900806Y-103104866D01*
X112905427Y-103096221D01*
X112911645Y-103088645D01*
X113411645Y-102588645D01*
X113419221Y-102582427D01*
X113427866Y-102577806D01*
X113437245Y-102574961D01*
X113447000Y-102574000D01*
X114447000Y-102574000D01*
X114456755Y-102574961D01*
X114466134Y-102577806D01*
X114474779Y-102582427D01*
X114482355Y-102588645D01*
X114488573Y-102596221D01*
X114493194Y-102604866D01*
X114496039Y-102614245D01*
X114497000Y-102624000D01*
X114497000Y-103624000D01*
X114496039Y-103633755D01*
X114493194Y-103643134D01*
X114488573Y-103651779D01*
X114482355Y-103659355D01*
X114474779Y-103665573D01*
X114466134Y-103670194D01*
X114456755Y-103673039D01*
X114447000Y-103674000D01*
X113447000Y-103674000D01*
X113437245Y-103673039D01*
G37*
%TD*%
D13*
%TO.C,J702*%
X144560000Y-98610000D03*
X147100000Y-98610000D03*
X149640000Y-98610000D03*
G36*
G01*
X151330000Y-97710000D02*
X153030000Y-97710000D01*
G75*
G02*
X153080000Y-97760000I0J-50000D01*
G01*
X153080000Y-99460000D01*
G75*
G02*
X153030000Y-99510000I-50000J0D01*
G01*
X151330000Y-99510000D01*
G75*
G02*
X151280000Y-99460000I0J50000D01*
G01*
X151280000Y-97760000D01*
G75*
G02*
X151330000Y-97710000I50000J0D01*
G01*
G37*
%TD*%
D15*
%TO.C,J303*%
X103124000Y-100457000D03*
D16*
X103124000Y-102997000D03*
%TD*%
D15*
%TO.C,J602*%
X108204000Y-100457000D03*
D16*
X108204000Y-102997000D03*
%TD*%
D13*
%TO.C,J207*%
X96520000Y-68580000D03*
X96520000Y-71120000D03*
X96520000Y-73660000D03*
X96520000Y-76200000D03*
X96520000Y-78740000D03*
X96520000Y-81280000D03*
X96520000Y-83820000D03*
%TD*%
%TO.C,J601*%
G36*
G01*
X123759000Y-108649888D02*
X123759000Y-111822112D01*
G75*
G02*
X123495112Y-112086000I-263888J0D01*
G01*
X122122888Y-112086000D01*
G75*
G02*
X121859000Y-111822112I0J263888D01*
G01*
X121859000Y-108649888D01*
G75*
G02*
X122122888Y-108386000I263888J0D01*
G01*
X123495112Y-108386000D01*
G75*
G02*
X123759000Y-108649888I0J-263888D01*
G01*
G37*
D17*
X118999000Y-110236000D03*
X115189000Y-110236000D03*
X111379000Y-110236000D03*
%TD*%
%TO.C,REF\u002A\u002A*%
G36*
G01*
X100500000Y-82330000D02*
X100500000Y-80230000D01*
G75*
G02*
X100550000Y-80180000I50000J0D01*
G01*
X102650000Y-80180000D01*
G75*
G02*
X102700000Y-80230000I0J-50000D01*
G01*
X102700000Y-82330000D01*
G75*
G02*
X102650000Y-82380000I-50000J0D01*
G01*
X100550000Y-82380000D01*
G75*
G02*
X100500000Y-82330000I0J50000D01*
G01*
G37*
%TD*%
%TO.C,REF\u002A\u002A*%
G36*
G01*
X103040000Y-82330000D02*
X103040000Y-80230000D01*
G75*
G02*
X103090000Y-80180000I50000J0D01*
G01*
X105190000Y-80180000D01*
G75*
G02*
X105240000Y-80230000I0J-50000D01*
G01*
X105240000Y-82330000D01*
G75*
G02*
X105190000Y-82380000I-50000J0D01*
G01*
X103090000Y-82380000D01*
G75*
G02*
X103040000Y-82330000I0J50000D01*
G01*
G37*
%TD*%
%TO.C,REF\u002A\u002A*%
G36*
G01*
X103040000Y-79790000D02*
X103040000Y-77690000D01*
G75*
G02*
X103090000Y-77640000I50000J0D01*
G01*
X105190000Y-77640000D01*
G75*
G02*
X105240000Y-77690000I0J-50000D01*
G01*
X105240000Y-79790000D01*
G75*
G02*
X105190000Y-79840000I-50000J0D01*
G01*
X103090000Y-79840000D01*
G75*
G02*
X103040000Y-79790000I0J50000D01*
G01*
G37*
%TD*%
%TO.C,REF\u002A\u002A*%
G36*
G01*
X103040000Y-74710000D02*
X103040000Y-72610000D01*
G75*
G02*
X103090000Y-72560000I50000J0D01*
G01*
X105190000Y-72560000D01*
G75*
G02*
X105240000Y-72610000I0J-50000D01*
G01*
X105240000Y-74710000D01*
G75*
G02*
X105190000Y-74760000I-50000J0D01*
G01*
X103090000Y-74760000D01*
G75*
G02*
X103040000Y-74710000I0J50000D01*
G01*
G37*
%TD*%
%TO.C,REF\u002A\u002A*%
G36*
G01*
X97960000Y-74710000D02*
X97960000Y-72610000D01*
G75*
G02*
X98010000Y-72560000I50000J0D01*
G01*
X100110000Y-72560000D01*
G75*
G02*
X100160000Y-72610000I0J-50000D01*
G01*
X100160000Y-74710000D01*
G75*
G02*
X100110000Y-74760000I-50000J0D01*
G01*
X98010000Y-74760000D01*
G75*
G02*
X97960000Y-74710000I0J50000D01*
G01*
G37*
%TD*%
%TO.C,REF\u002A\u002A*%
G36*
G01*
X100500000Y-74710000D02*
X100500000Y-72610000D01*
G75*
G02*
X100550000Y-72560000I50000J0D01*
G01*
X102650000Y-72560000D01*
G75*
G02*
X102700000Y-72610000I0J-50000D01*
G01*
X102700000Y-74710000D01*
G75*
G02*
X102650000Y-74760000I-50000J0D01*
G01*
X100550000Y-74760000D01*
G75*
G02*
X100500000Y-74710000I0J50000D01*
G01*
G37*
%TD*%
%TO.C,REF\u002A\u002A*%
G36*
G01*
X100500000Y-72170000D02*
X100500000Y-70070000D01*
G75*
G02*
X100550000Y-70020000I50000J0D01*
G01*
X102650000Y-70020000D01*
G75*
G02*
X102700000Y-70070000I0J-50000D01*
G01*
X102700000Y-72170000D01*
G75*
G02*
X102650000Y-72220000I-50000J0D01*
G01*
X100550000Y-72220000D01*
G75*
G02*
X100500000Y-72170000I0J50000D01*
G01*
G37*
%TD*%
%TO.C,REF\u002A\u002A*%
G36*
G01*
X100500000Y-79790000D02*
X100500000Y-77690000D01*
G75*
G02*
X100550000Y-77640000I50000J0D01*
G01*
X102650000Y-77640000D01*
G75*
G02*
X102700000Y-77690000I0J-50000D01*
G01*
X102700000Y-79790000D01*
G75*
G02*
X102650000Y-79840000I-50000J0D01*
G01*
X100550000Y-79840000D01*
G75*
G02*
X100500000Y-79790000I0J50000D01*
G01*
G37*
%TD*%
%TO.C,REF\u002A\u002A*%
G36*
G01*
X100500000Y-77250000D02*
X100500000Y-75150000D01*
G75*
G02*
X100550000Y-75100000I50000J0D01*
G01*
X102650000Y-75100000D01*
G75*
G02*
X102700000Y-75150000I0J-50000D01*
G01*
X102700000Y-77250000D01*
G75*
G02*
X102650000Y-77300000I-50000J0D01*
G01*
X100550000Y-77300000D01*
G75*
G02*
X100500000Y-77250000I0J50000D01*
G01*
G37*
%TD*%
%TO.C,REF\u002A\u002A*%
G36*
G01*
X97960000Y-79790000D02*
X97960000Y-77690000D01*
G75*
G02*
X98010000Y-77640000I50000J0D01*
G01*
X100110000Y-77640000D01*
G75*
G02*
X100160000Y-77690000I0J-50000D01*
G01*
X100160000Y-79790000D01*
G75*
G02*
X100110000Y-79840000I-50000J0D01*
G01*
X98010000Y-79840000D01*
G75*
G02*
X97960000Y-79790000I0J50000D01*
G01*
G37*
%TD*%
%TO.C,REF\u002A\u002A*%
G36*
G01*
X97960000Y-77250000D02*
X97960000Y-75150000D01*
G75*
G02*
X98010000Y-75100000I50000J0D01*
G01*
X100110000Y-75100000D01*
G75*
G02*
X100160000Y-75150000I0J-50000D01*
G01*
X100160000Y-77250000D01*
G75*
G02*
X100110000Y-77300000I-50000J0D01*
G01*
X98010000Y-77300000D01*
G75*
G02*
X97960000Y-77250000I0J50000D01*
G01*
G37*
%TD*%
%TO.C,REF\u002A\u002A*%
G36*
G01*
X97960000Y-82330000D02*
X97960000Y-80230000D01*
G75*
G02*
X98010000Y-80180000I50000J0D01*
G01*
X100110000Y-80180000D01*
G75*
G02*
X100160000Y-80230000I0J-50000D01*
G01*
X100160000Y-82330000D01*
G75*
G02*
X100110000Y-82380000I-50000J0D01*
G01*
X98010000Y-82380000D01*
G75*
G02*
X97960000Y-82330000I0J50000D01*
G01*
G37*
%TD*%
%TO.C,REF\u002A\u002A*%
G36*
G01*
X97960000Y-72170000D02*
X97960000Y-70070000D01*
G75*
G02*
X98010000Y-70020000I50000J0D01*
G01*
X100110000Y-70020000D01*
G75*
G02*
X100160000Y-70070000I0J-50000D01*
G01*
X100160000Y-72170000D01*
G75*
G02*
X100110000Y-72220000I-50000J0D01*
G01*
X98010000Y-72220000D01*
G75*
G02*
X97960000Y-72170000I0J50000D01*
G01*
G37*
%TD*%
%TO.C,REF\u002A\u002A*%
G36*
G01*
X103040000Y-77250000D02*
X103040000Y-75150000D01*
G75*
G02*
X103090000Y-75100000I50000J0D01*
G01*
X105190000Y-75100000D01*
G75*
G02*
X105240000Y-75150000I0J-50000D01*
G01*
X105240000Y-77250000D01*
G75*
G02*
X105190000Y-77300000I-50000J0D01*
G01*
X103090000Y-77300000D01*
G75*
G02*
X103040000Y-77250000I0J50000D01*
G01*
G37*
%TD*%
%TO.C,REF\u002A\u002A*%
G36*
G01*
X103040000Y-72170000D02*
X103040000Y-70070000D01*
G75*
G02*
X103090000Y-70020000I50000J0D01*
G01*
X105190000Y-70020000D01*
G75*
G02*
X105240000Y-70070000I0J-50000D01*
G01*
X105240000Y-72170000D01*
G75*
G02*
X105190000Y-72220000I-50000J0D01*
G01*
X103090000Y-72220000D01*
G75*
G02*
X103040000Y-72170000I0J50000D01*
G01*
G37*
%TD*%
%TO.C,REF\u002A\u002A*%
G36*
G01*
X97960000Y-84870000D02*
X97960000Y-82770000D01*
G75*
G02*
X98010000Y-82720000I50000J0D01*
G01*
X100110000Y-82720000D01*
G75*
G02*
X100160000Y-82770000I0J-50000D01*
G01*
X100160000Y-84870000D01*
G75*
G02*
X100110000Y-84920000I-50000J0D01*
G01*
X98010000Y-84920000D01*
G75*
G02*
X97960000Y-84870000I0J50000D01*
G01*
G37*
%TD*%
%TO.C,REF\u002A\u002A*%
G36*
G01*
X103040000Y-84870000D02*
X103040000Y-82770000D01*
G75*
G02*
X103090000Y-82720000I50000J0D01*
G01*
X105190000Y-82720000D01*
G75*
G02*
X105240000Y-82770000I0J-50000D01*
G01*
X105240000Y-84870000D01*
G75*
G02*
X105190000Y-84920000I-50000J0D01*
G01*
X103090000Y-84920000D01*
G75*
G02*
X103040000Y-84870000I0J50000D01*
G01*
G37*
%TD*%
%TO.C,REF\u002A\u002A*%
G36*
G01*
X100500000Y-84870000D02*
X100500000Y-82770000D01*
G75*
G02*
X100550000Y-82720000I50000J0D01*
G01*
X102650000Y-82720000D01*
G75*
G02*
X102700000Y-82770000I0J-50000D01*
G01*
X102700000Y-84870000D01*
G75*
G02*
X102650000Y-84920000I-50000J0D01*
G01*
X100550000Y-84920000D01*
G75*
G02*
X100500000Y-84870000I0J50000D01*
G01*
G37*
%TD*%
%TO.C,REF\u002A\u002A*%
G36*
G01*
X103040000Y-69630000D02*
X103040000Y-67530000D01*
G75*
G02*
X103090000Y-67480000I50000J0D01*
G01*
X105190000Y-67480000D01*
G75*
G02*
X105240000Y-67530000I0J-50000D01*
G01*
X105240000Y-69630000D01*
G75*
G02*
X105190000Y-69680000I-50000J0D01*
G01*
X103090000Y-69680000D01*
G75*
G02*
X103040000Y-69630000I0J50000D01*
G01*
G37*
%TD*%
%TO.C,REF\u002A\u002A*%
G36*
G01*
X97960000Y-69630000D02*
X97960000Y-67530000D01*
G75*
G02*
X98010000Y-67480000I50000J0D01*
G01*
X100110000Y-67480000D01*
G75*
G02*
X100160000Y-67530000I0J-50000D01*
G01*
X100160000Y-69630000D01*
G75*
G02*
X100110000Y-69680000I-50000J0D01*
G01*
X98010000Y-69680000D01*
G75*
G02*
X97960000Y-69630000I0J50000D01*
G01*
G37*
%TD*%
%TO.C,REF\u002A\u002A*%
G36*
G01*
X100500000Y-69630000D02*
X100500000Y-67530000D01*
G75*
G02*
X100550000Y-67480000I50000J0D01*
G01*
X102650000Y-67480000D01*
G75*
G02*
X102700000Y-67530000I0J-50000D01*
G01*
X102700000Y-69630000D01*
G75*
G02*
X102650000Y-69680000I-50000J0D01*
G01*
X100550000Y-69680000D01*
G75*
G02*
X100500000Y-69630000I0J50000D01*
G01*
G37*
%TD*%
D13*
%TO.C,J206*%
X90875000Y-68580000D03*
X90875000Y-71120000D03*
X90875000Y-73660000D03*
X90875000Y-76200000D03*
X90875000Y-78740000D03*
X90875000Y-81280000D03*
X90875000Y-83820000D03*
G36*
G01*
X91775000Y-85510000D02*
X91775000Y-87210000D01*
G75*
G02*
X91725000Y-87260000I-50000J0D01*
G01*
X90025000Y-87260000D01*
G75*
G02*
X89975000Y-87210000I0J50000D01*
G01*
X89975000Y-85510000D01*
G75*
G02*
X90025000Y-85460000I50000J0D01*
G01*
X91725000Y-85460000D01*
G75*
G02*
X91775000Y-85510000I0J-50000D01*
G01*
G37*
%TD*%
%TO.C,J302*%
X90825000Y-94315000D03*
G36*
G01*
X89925000Y-92625000D02*
X89925000Y-90925000D01*
G75*
G02*
X89975000Y-90875000I50000J0D01*
G01*
X91675000Y-90875000D01*
G75*
G02*
X91725000Y-90925000I0J-50000D01*
G01*
X91725000Y-92625000D01*
G75*
G02*
X91675000Y-92675000I-50000J0D01*
G01*
X89975000Y-92675000D01*
G75*
G02*
X89925000Y-92625000I0J50000D01*
G01*
G37*
%TD*%
D14*
%TO.C,JP208*%
G36*
X156225245Y-76969039D02*
G01*
X156215866Y-76966194D01*
X156207221Y-76961573D01*
X156199645Y-76955355D01*
X156193427Y-76947779D01*
X156188806Y-76939134D01*
X156185961Y-76929755D01*
X156185000Y-76920000D01*
X156185000Y-75920000D01*
X156185961Y-75910245D01*
X156188806Y-75900866D01*
X156193427Y-75892221D01*
X156199645Y-75884645D01*
X156207221Y-75878427D01*
X156215866Y-75873806D01*
X156225245Y-75870961D01*
X156235000Y-75870000D01*
X157385000Y-75870000D01*
X157394755Y-75870961D01*
X157404134Y-75873806D01*
X157412779Y-75878427D01*
X157420355Y-75884645D01*
X157426573Y-75892221D01*
X157431194Y-75900866D01*
X157434039Y-75910245D01*
X157435000Y-75920000D01*
X157434039Y-75929755D01*
X157431194Y-75939134D01*
X157426573Y-75947779D01*
X157420355Y-75955355D01*
X156955710Y-76420000D01*
X157420355Y-76884645D01*
X157426573Y-76892221D01*
X157431194Y-76900866D01*
X157434039Y-76910245D01*
X157435000Y-76920000D01*
X157434039Y-76929755D01*
X157431194Y-76939134D01*
X157426573Y-76947779D01*
X157420355Y-76955355D01*
X157412779Y-76961573D01*
X157404134Y-76966194D01*
X157394755Y-76969039D01*
X157385000Y-76970000D01*
X156235000Y-76970000D01*
X156225245Y-76969039D01*
G37*
G36*
X157650245Y-76969039D02*
G01*
X157640866Y-76966194D01*
X157632221Y-76961573D01*
X157624645Y-76955355D01*
X157124645Y-76455355D01*
X157118427Y-76447779D01*
X157113806Y-76439134D01*
X157110961Y-76429755D01*
X157110000Y-76420000D01*
X157110961Y-76410245D01*
X157113806Y-76400866D01*
X157118427Y-76392221D01*
X157124645Y-76384645D01*
X157624645Y-75884645D01*
X157632221Y-75878427D01*
X157640866Y-75873806D01*
X157650245Y-75870961D01*
X157660000Y-75870000D01*
X158660000Y-75870000D01*
X158669755Y-75870961D01*
X158679134Y-75873806D01*
X158687779Y-75878427D01*
X158695355Y-75884645D01*
X158701573Y-75892221D01*
X158706194Y-75900866D01*
X158709039Y-75910245D01*
X158710000Y-75920000D01*
X158710000Y-76920000D01*
X158709039Y-76929755D01*
X158706194Y-76939134D01*
X158701573Y-76947779D01*
X158695355Y-76955355D01*
X158687779Y-76961573D01*
X158679134Y-76966194D01*
X158669755Y-76969039D01*
X158660000Y-76970000D01*
X157660000Y-76970000D01*
X157650245Y-76969039D01*
G37*
%TD*%
D18*
%TO.C,H1002*%
X156250000Y-109000000D03*
%TD*%
%TO.C,H1001*%
X111750000Y-63000000D03*
%TD*%
D14*
%TO.C,JP209*%
G36*
X156225245Y-73169039D02*
G01*
X156215866Y-73166194D01*
X156207221Y-73161573D01*
X156199645Y-73155355D01*
X156193427Y-73147779D01*
X156188806Y-73139134D01*
X156185961Y-73129755D01*
X156185000Y-73120000D01*
X156185000Y-72120000D01*
X156185961Y-72110245D01*
X156188806Y-72100866D01*
X156193427Y-72092221D01*
X156199645Y-72084645D01*
X156207221Y-72078427D01*
X156215866Y-72073806D01*
X156225245Y-72070961D01*
X156235000Y-72070000D01*
X157385000Y-72070000D01*
X157394755Y-72070961D01*
X157404134Y-72073806D01*
X157412779Y-72078427D01*
X157420355Y-72084645D01*
X157426573Y-72092221D01*
X157431194Y-72100866D01*
X157434039Y-72110245D01*
X157435000Y-72120000D01*
X157434039Y-72129755D01*
X157431194Y-72139134D01*
X157426573Y-72147779D01*
X157420355Y-72155355D01*
X156955710Y-72620000D01*
X157420355Y-73084645D01*
X157426573Y-73092221D01*
X157431194Y-73100866D01*
X157434039Y-73110245D01*
X157435000Y-73120000D01*
X157434039Y-73129755D01*
X157431194Y-73139134D01*
X157426573Y-73147779D01*
X157420355Y-73155355D01*
X157412779Y-73161573D01*
X157404134Y-73166194D01*
X157394755Y-73169039D01*
X157385000Y-73170000D01*
X156235000Y-73170000D01*
X156225245Y-73169039D01*
G37*
G36*
X157650245Y-73169039D02*
G01*
X157640866Y-73166194D01*
X157632221Y-73161573D01*
X157624645Y-73155355D01*
X157124645Y-72655355D01*
X157118427Y-72647779D01*
X157113806Y-72639134D01*
X157110961Y-72629755D01*
X157110000Y-72620000D01*
X157110961Y-72610245D01*
X157113806Y-72600866D01*
X157118427Y-72592221D01*
X157124645Y-72584645D01*
X157624645Y-72084645D01*
X157632221Y-72078427D01*
X157640866Y-72073806D01*
X157650245Y-72070961D01*
X157660000Y-72070000D01*
X158660000Y-72070000D01*
X158669755Y-72070961D01*
X158679134Y-72073806D01*
X158687779Y-72078427D01*
X158695355Y-72084645D01*
X158701573Y-72092221D01*
X158706194Y-72100866D01*
X158709039Y-72110245D01*
X158710000Y-72120000D01*
X158710000Y-73120000D01*
X158709039Y-73129755D01*
X158706194Y-73139134D01*
X158701573Y-73147779D01*
X158695355Y-73155355D01*
X158687779Y-73161573D01*
X158679134Y-73166194D01*
X158669755Y-73169039D01*
X158660000Y-73170000D01*
X157660000Y-73170000D01*
X157650245Y-73169039D01*
G37*
%TD*%
%TO.C,JP207*%
G36*
X152280961Y-79950245D02*
G01*
X152283806Y-79940866D01*
X152288427Y-79932221D01*
X152294645Y-79924645D01*
X152302221Y-79918427D01*
X152310866Y-79913806D01*
X152320245Y-79910961D01*
X152330000Y-79910000D01*
X153330000Y-79910000D01*
X153339755Y-79910961D01*
X153349134Y-79913806D01*
X153357779Y-79918427D01*
X153365355Y-79924645D01*
X153371573Y-79932221D01*
X153376194Y-79940866D01*
X153379039Y-79950245D01*
X153380000Y-79960000D01*
X153380000Y-81110000D01*
X153379039Y-81119755D01*
X153376194Y-81129134D01*
X153371573Y-81137779D01*
X153365355Y-81145355D01*
X153357779Y-81151573D01*
X153349134Y-81156194D01*
X153339755Y-81159039D01*
X153330000Y-81160000D01*
X153320245Y-81159039D01*
X153310866Y-81156194D01*
X153302221Y-81151573D01*
X153294645Y-81145355D01*
X152830000Y-80680710D01*
X152365355Y-81145355D01*
X152357779Y-81151573D01*
X152349134Y-81156194D01*
X152339755Y-81159039D01*
X152330000Y-81160000D01*
X152320245Y-81159039D01*
X152310866Y-81156194D01*
X152302221Y-81151573D01*
X152294645Y-81145355D01*
X152288427Y-81137779D01*
X152283806Y-81129134D01*
X152280961Y-81119755D01*
X152280000Y-81110000D01*
X152280000Y-79960000D01*
X152280961Y-79950245D01*
G37*
G36*
X152280961Y-81375245D02*
G01*
X152283806Y-81365866D01*
X152288427Y-81357221D01*
X152294645Y-81349645D01*
X152794645Y-80849645D01*
X152802221Y-80843427D01*
X152810866Y-80838806D01*
X152820245Y-80835961D01*
X152830000Y-80835000D01*
X152839755Y-80835961D01*
X152849134Y-80838806D01*
X152857779Y-80843427D01*
X152865355Y-80849645D01*
X153365355Y-81349645D01*
X153371573Y-81357221D01*
X153376194Y-81365866D01*
X153379039Y-81375245D01*
X153380000Y-81385000D01*
X153380000Y-82385000D01*
X153379039Y-82394755D01*
X153376194Y-82404134D01*
X153371573Y-82412779D01*
X153365355Y-82420355D01*
X153357779Y-82426573D01*
X153349134Y-82431194D01*
X153339755Y-82434039D01*
X153330000Y-82435000D01*
X152330000Y-82435000D01*
X152320245Y-82434039D01*
X152310866Y-82431194D01*
X152302221Y-82426573D01*
X152294645Y-82420355D01*
X152288427Y-82412779D01*
X152283806Y-82404134D01*
X152280961Y-82394755D01*
X152280000Y-82385000D01*
X152280000Y-81385000D01*
X152280961Y-81375245D01*
G37*
%TD*%
%TO.C,JP205*%
G36*
X156225245Y-78869039D02*
G01*
X156215866Y-78866194D01*
X156207221Y-78861573D01*
X156199645Y-78855355D01*
X156193427Y-78847779D01*
X156188806Y-78839134D01*
X156185961Y-78829755D01*
X156185000Y-78820000D01*
X156185000Y-77820000D01*
X156185961Y-77810245D01*
X156188806Y-77800866D01*
X156193427Y-77792221D01*
X156199645Y-77784645D01*
X156207221Y-77778427D01*
X156215866Y-77773806D01*
X156225245Y-77770961D01*
X156235000Y-77770000D01*
X157385000Y-77770000D01*
X157394755Y-77770961D01*
X157404134Y-77773806D01*
X157412779Y-77778427D01*
X157420355Y-77784645D01*
X157426573Y-77792221D01*
X157431194Y-77800866D01*
X157434039Y-77810245D01*
X157435000Y-77820000D01*
X157434039Y-77829755D01*
X157431194Y-77839134D01*
X157426573Y-77847779D01*
X157420355Y-77855355D01*
X156955710Y-78320000D01*
X157420355Y-78784645D01*
X157426573Y-78792221D01*
X157431194Y-78800866D01*
X157434039Y-78810245D01*
X157435000Y-78820000D01*
X157434039Y-78829755D01*
X157431194Y-78839134D01*
X157426573Y-78847779D01*
X157420355Y-78855355D01*
X157412779Y-78861573D01*
X157404134Y-78866194D01*
X157394755Y-78869039D01*
X157385000Y-78870000D01*
X156235000Y-78870000D01*
X156225245Y-78869039D01*
G37*
G36*
X157650245Y-78869039D02*
G01*
X157640866Y-78866194D01*
X157632221Y-78861573D01*
X157624645Y-78855355D01*
X157124645Y-78355355D01*
X157118427Y-78347779D01*
X157113806Y-78339134D01*
X157110961Y-78329755D01*
X157110000Y-78320000D01*
X157110961Y-78310245D01*
X157113806Y-78300866D01*
X157118427Y-78292221D01*
X157124645Y-78284645D01*
X157624645Y-77784645D01*
X157632221Y-77778427D01*
X157640866Y-77773806D01*
X157650245Y-77770961D01*
X157660000Y-77770000D01*
X158660000Y-77770000D01*
X158669755Y-77770961D01*
X158679134Y-77773806D01*
X158687779Y-77778427D01*
X158695355Y-77784645D01*
X158701573Y-77792221D01*
X158706194Y-77800866D01*
X158709039Y-77810245D01*
X158710000Y-77820000D01*
X158710000Y-78820000D01*
X158709039Y-78829755D01*
X158706194Y-78839134D01*
X158701573Y-78847779D01*
X158695355Y-78855355D01*
X158687779Y-78861573D01*
X158679134Y-78866194D01*
X158669755Y-78869039D01*
X158660000Y-78870000D01*
X157660000Y-78870000D01*
X157650245Y-78869039D01*
G37*
%TD*%
%TO.C,JP204*%
G36*
X154250961Y-79940245D02*
G01*
X154253806Y-79930866D01*
X154258427Y-79922221D01*
X154264645Y-79914645D01*
X154272221Y-79908427D01*
X154280866Y-79903806D01*
X154290245Y-79900961D01*
X154300000Y-79900000D01*
X155300000Y-79900000D01*
X155309755Y-79900961D01*
X155319134Y-79903806D01*
X155327779Y-79908427D01*
X155335355Y-79914645D01*
X155341573Y-79922221D01*
X155346194Y-79930866D01*
X155349039Y-79940245D01*
X155350000Y-79950000D01*
X155350000Y-81100000D01*
X155349039Y-81109755D01*
X155346194Y-81119134D01*
X155341573Y-81127779D01*
X155335355Y-81135355D01*
X155327779Y-81141573D01*
X155319134Y-81146194D01*
X155309755Y-81149039D01*
X155300000Y-81150000D01*
X155290245Y-81149039D01*
X155280866Y-81146194D01*
X155272221Y-81141573D01*
X155264645Y-81135355D01*
X154800000Y-80670710D01*
X154335355Y-81135355D01*
X154327779Y-81141573D01*
X154319134Y-81146194D01*
X154309755Y-81149039D01*
X154300000Y-81150000D01*
X154290245Y-81149039D01*
X154280866Y-81146194D01*
X154272221Y-81141573D01*
X154264645Y-81135355D01*
X154258427Y-81127779D01*
X154253806Y-81119134D01*
X154250961Y-81109755D01*
X154250000Y-81100000D01*
X154250000Y-79950000D01*
X154250961Y-79940245D01*
G37*
G36*
X154250961Y-81365245D02*
G01*
X154253806Y-81355866D01*
X154258427Y-81347221D01*
X154264645Y-81339645D01*
X154764645Y-80839645D01*
X154772221Y-80833427D01*
X154780866Y-80828806D01*
X154790245Y-80825961D01*
X154800000Y-80825000D01*
X154809755Y-80825961D01*
X154819134Y-80828806D01*
X154827779Y-80833427D01*
X154835355Y-80839645D01*
X155335355Y-81339645D01*
X155341573Y-81347221D01*
X155346194Y-81355866D01*
X155349039Y-81365245D01*
X155350000Y-81375000D01*
X155350000Y-82375000D01*
X155349039Y-82384755D01*
X155346194Y-82394134D01*
X155341573Y-82402779D01*
X155335355Y-82410355D01*
X155327779Y-82416573D01*
X155319134Y-82421194D01*
X155309755Y-82424039D01*
X155300000Y-82425000D01*
X154300000Y-82425000D01*
X154290245Y-82424039D01*
X154280866Y-82421194D01*
X154272221Y-82416573D01*
X154264645Y-82410355D01*
X154258427Y-82402779D01*
X154253806Y-82394134D01*
X154250961Y-82384755D01*
X154250000Y-82375000D01*
X154250000Y-81375000D01*
X154250961Y-81365245D01*
G37*
%TD*%
%TO.C,JP203*%
G36*
X164310961Y-80110245D02*
G01*
X164313806Y-80100866D01*
X164318427Y-80092221D01*
X164324645Y-80084645D01*
X164332221Y-80078427D01*
X164340866Y-80073806D01*
X164350245Y-80070961D01*
X164360000Y-80070000D01*
X165360000Y-80070000D01*
X165369755Y-80070961D01*
X165379134Y-80073806D01*
X165387779Y-80078427D01*
X165395355Y-80084645D01*
X165401573Y-80092221D01*
X165406194Y-80100866D01*
X165409039Y-80110245D01*
X165410000Y-80120000D01*
X165410000Y-81270000D01*
X165409039Y-81279755D01*
X165406194Y-81289134D01*
X165401573Y-81297779D01*
X165395355Y-81305355D01*
X165387779Y-81311573D01*
X165379134Y-81316194D01*
X165369755Y-81319039D01*
X165360000Y-81320000D01*
X165350245Y-81319039D01*
X165340866Y-81316194D01*
X165332221Y-81311573D01*
X165324645Y-81305355D01*
X164860000Y-80840710D01*
X164395355Y-81305355D01*
X164387779Y-81311573D01*
X164379134Y-81316194D01*
X164369755Y-81319039D01*
X164360000Y-81320000D01*
X164350245Y-81319039D01*
X164340866Y-81316194D01*
X164332221Y-81311573D01*
X164324645Y-81305355D01*
X164318427Y-81297779D01*
X164313806Y-81289134D01*
X164310961Y-81279755D01*
X164310000Y-81270000D01*
X164310000Y-80120000D01*
X164310961Y-80110245D01*
G37*
G36*
X164310961Y-81535245D02*
G01*
X164313806Y-81525866D01*
X164318427Y-81517221D01*
X164324645Y-81509645D01*
X164824645Y-81009645D01*
X164832221Y-81003427D01*
X164840866Y-80998806D01*
X164850245Y-80995961D01*
X164860000Y-80995000D01*
X164869755Y-80995961D01*
X164879134Y-80998806D01*
X164887779Y-81003427D01*
X164895355Y-81009645D01*
X165395355Y-81509645D01*
X165401573Y-81517221D01*
X165406194Y-81525866D01*
X165409039Y-81535245D01*
X165410000Y-81545000D01*
X165410000Y-82545000D01*
X165409039Y-82554755D01*
X165406194Y-82564134D01*
X165401573Y-82572779D01*
X165395355Y-82580355D01*
X165387779Y-82586573D01*
X165379134Y-82591194D01*
X165369755Y-82594039D01*
X165360000Y-82595000D01*
X164360000Y-82595000D01*
X164350245Y-82594039D01*
X164340866Y-82591194D01*
X164332221Y-82586573D01*
X164324645Y-82580355D01*
X164318427Y-82572779D01*
X164313806Y-82564134D01*
X164310961Y-82554755D01*
X164310000Y-82545000D01*
X164310000Y-81545000D01*
X164310961Y-81535245D01*
G37*
%TD*%
%TO.C,JP202*%
G36*
X166270961Y-80110245D02*
G01*
X166273806Y-80100866D01*
X166278427Y-80092221D01*
X166284645Y-80084645D01*
X166292221Y-80078427D01*
X166300866Y-80073806D01*
X166310245Y-80070961D01*
X166320000Y-80070000D01*
X167320000Y-80070000D01*
X167329755Y-80070961D01*
X167339134Y-80073806D01*
X167347779Y-80078427D01*
X167355355Y-80084645D01*
X167361573Y-80092221D01*
X167366194Y-80100866D01*
X167369039Y-80110245D01*
X167370000Y-80120000D01*
X167370000Y-81270000D01*
X167369039Y-81279755D01*
X167366194Y-81289134D01*
X167361573Y-81297779D01*
X167355355Y-81305355D01*
X167347779Y-81311573D01*
X167339134Y-81316194D01*
X167329755Y-81319039D01*
X167320000Y-81320000D01*
X167310245Y-81319039D01*
X167300866Y-81316194D01*
X167292221Y-81311573D01*
X167284645Y-81305355D01*
X166820000Y-80840710D01*
X166355355Y-81305355D01*
X166347779Y-81311573D01*
X166339134Y-81316194D01*
X166329755Y-81319039D01*
X166320000Y-81320000D01*
X166310245Y-81319039D01*
X166300866Y-81316194D01*
X166292221Y-81311573D01*
X166284645Y-81305355D01*
X166278427Y-81297779D01*
X166273806Y-81289134D01*
X166270961Y-81279755D01*
X166270000Y-81270000D01*
X166270000Y-80120000D01*
X166270961Y-80110245D01*
G37*
G36*
X166270961Y-81535245D02*
G01*
X166273806Y-81525866D01*
X166278427Y-81517221D01*
X166284645Y-81509645D01*
X166784645Y-81009645D01*
X166792221Y-81003427D01*
X166800866Y-80998806D01*
X166810245Y-80995961D01*
X166820000Y-80995000D01*
X166829755Y-80995961D01*
X166839134Y-80998806D01*
X166847779Y-81003427D01*
X166855355Y-81009645D01*
X167355355Y-81509645D01*
X167361573Y-81517221D01*
X167366194Y-81525866D01*
X167369039Y-81535245D01*
X167370000Y-81545000D01*
X167370000Y-82545000D01*
X167369039Y-82554755D01*
X167366194Y-82564134D01*
X167361573Y-82572779D01*
X167355355Y-82580355D01*
X167347779Y-82586573D01*
X167339134Y-82591194D01*
X167329755Y-82594039D01*
X167320000Y-82595000D01*
X166320000Y-82595000D01*
X166310245Y-82594039D01*
X166300866Y-82591194D01*
X166292221Y-82586573D01*
X166284645Y-82580355D01*
X166278427Y-82572779D01*
X166273806Y-82564134D01*
X166270961Y-82554755D01*
X166270000Y-82545000D01*
X166270000Y-81545000D01*
X166270961Y-81535245D01*
G37*
%TD*%
%TO.C,JP201*%
G36*
X156230961Y-79945245D02*
G01*
X156233806Y-79935866D01*
X156238427Y-79927221D01*
X156244645Y-79919645D01*
X156252221Y-79913427D01*
X156260866Y-79908806D01*
X156270245Y-79905961D01*
X156280000Y-79905000D01*
X157280000Y-79905000D01*
X157289755Y-79905961D01*
X157299134Y-79908806D01*
X157307779Y-79913427D01*
X157315355Y-79919645D01*
X157321573Y-79927221D01*
X157326194Y-79935866D01*
X157329039Y-79945245D01*
X157330000Y-79955000D01*
X157330000Y-81105000D01*
X157329039Y-81114755D01*
X157326194Y-81124134D01*
X157321573Y-81132779D01*
X157315355Y-81140355D01*
X157307779Y-81146573D01*
X157299134Y-81151194D01*
X157289755Y-81154039D01*
X157280000Y-81155000D01*
X157270245Y-81154039D01*
X157260866Y-81151194D01*
X157252221Y-81146573D01*
X157244645Y-81140355D01*
X156780000Y-80675710D01*
X156315355Y-81140355D01*
X156307779Y-81146573D01*
X156299134Y-81151194D01*
X156289755Y-81154039D01*
X156280000Y-81155000D01*
X156270245Y-81154039D01*
X156260866Y-81151194D01*
X156252221Y-81146573D01*
X156244645Y-81140355D01*
X156238427Y-81132779D01*
X156233806Y-81124134D01*
X156230961Y-81114755D01*
X156230000Y-81105000D01*
X156230000Y-79955000D01*
X156230961Y-79945245D01*
G37*
G36*
X156230961Y-81370245D02*
G01*
X156233806Y-81360866D01*
X156238427Y-81352221D01*
X156244645Y-81344645D01*
X156744645Y-80844645D01*
X156752221Y-80838427D01*
X156760866Y-80833806D01*
X156770245Y-80830961D01*
X156780000Y-80830000D01*
X156789755Y-80830961D01*
X156799134Y-80833806D01*
X156807779Y-80838427D01*
X156815355Y-80844645D01*
X157315355Y-81344645D01*
X157321573Y-81352221D01*
X157326194Y-81360866D01*
X157329039Y-81370245D01*
X157330000Y-81380000D01*
X157330000Y-82380000D01*
X157329039Y-82389755D01*
X157326194Y-82399134D01*
X157321573Y-82407779D01*
X157315355Y-82415355D01*
X157307779Y-82421573D01*
X157299134Y-82426194D01*
X157289755Y-82429039D01*
X157280000Y-82430000D01*
X156280000Y-82430000D01*
X156270245Y-82429039D01*
X156260866Y-82426194D01*
X156252221Y-82421573D01*
X156244645Y-82415355D01*
X156238427Y-82407779D01*
X156233806Y-82399134D01*
X156230961Y-82389755D01*
X156230000Y-82380000D01*
X156230000Y-81380000D01*
X156230961Y-81370245D01*
G37*
%TD*%
%TO.C,REF\u002A\u002A*%
G36*
G01*
X108120000Y-69630000D02*
X108120000Y-67530000D01*
G75*
G02*
X108170000Y-67480000I50000J0D01*
G01*
X110270000Y-67480000D01*
G75*
G02*
X110320000Y-67530000I0J-50000D01*
G01*
X110320000Y-69630000D01*
G75*
G02*
X110270000Y-69680000I-50000J0D01*
G01*
X108170000Y-69680000D01*
G75*
G02*
X108120000Y-69630000I0J50000D01*
G01*
G37*
%TD*%
%TO.C,REF\u002A\u002A*%
G36*
G01*
X105580000Y-69630000D02*
X105580000Y-67530000D01*
G75*
G02*
X105630000Y-67480000I50000J0D01*
G01*
X107730000Y-67480000D01*
G75*
G02*
X107780000Y-67530000I0J-50000D01*
G01*
X107780000Y-69630000D01*
G75*
G02*
X107730000Y-69680000I-50000J0D01*
G01*
X105630000Y-69680000D01*
G75*
G02*
X105580000Y-69630000I0J50000D01*
G01*
G37*
%TD*%
%TO.C,REF\u002A\u002A*%
G36*
G01*
X146220000Y-69630000D02*
X146220000Y-67530000D01*
G75*
G02*
X146270000Y-67480000I50000J0D01*
G01*
X148370000Y-67480000D01*
G75*
G02*
X148420000Y-67530000I0J-50000D01*
G01*
X148420000Y-69630000D01*
G75*
G02*
X148370000Y-69680000I-50000J0D01*
G01*
X146270000Y-69680000D01*
G75*
G02*
X146220000Y-69630000I0J50000D01*
G01*
G37*
%TD*%
%TO.C,REF\u002A\u002A*%
G36*
G01*
X146220000Y-72170000D02*
X146220000Y-70070000D01*
G75*
G02*
X146270000Y-70020000I50000J0D01*
G01*
X148370000Y-70020000D01*
G75*
G02*
X148420000Y-70070000I0J-50000D01*
G01*
X148420000Y-72170000D01*
G75*
G02*
X148370000Y-72220000I-50000J0D01*
G01*
X146270000Y-72220000D01*
G75*
G02*
X146220000Y-72170000I0J50000D01*
G01*
G37*
%TD*%
%TO.C,REF\u002A\u002A*%
G36*
G01*
X143680000Y-69630000D02*
X143680000Y-67530000D01*
G75*
G02*
X143730000Y-67480000I50000J0D01*
G01*
X145830000Y-67480000D01*
G75*
G02*
X145880000Y-67530000I0J-50000D01*
G01*
X145880000Y-69630000D01*
G75*
G02*
X145830000Y-69680000I-50000J0D01*
G01*
X143730000Y-69680000D01*
G75*
G02*
X143680000Y-69630000I0J50000D01*
G01*
G37*
%TD*%
%TO.C,REF\u002A\u002A*%
G36*
G01*
X146220000Y-77250000D02*
X146220000Y-75150000D01*
G75*
G02*
X146270000Y-75100000I50000J0D01*
G01*
X148370000Y-75100000D01*
G75*
G02*
X148420000Y-75150000I0J-50000D01*
G01*
X148420000Y-77250000D01*
G75*
G02*
X148370000Y-77300000I-50000J0D01*
G01*
X146270000Y-77300000D01*
G75*
G02*
X146220000Y-77250000I0J50000D01*
G01*
G37*
%TD*%
%TO.C,REF\u002A\u002A*%
G36*
G01*
X146220000Y-79790000D02*
X146220000Y-77690000D01*
G75*
G02*
X146270000Y-77640000I50000J0D01*
G01*
X148370000Y-77640000D01*
G75*
G02*
X148420000Y-77690000I0J-50000D01*
G01*
X148420000Y-79790000D01*
G75*
G02*
X148370000Y-79840000I-50000J0D01*
G01*
X146270000Y-79840000D01*
G75*
G02*
X146220000Y-79790000I0J50000D01*
G01*
G37*
%TD*%
%TO.C,REF\u002A\u002A*%
G36*
G01*
X146220000Y-82330000D02*
X146220000Y-80230000D01*
G75*
G02*
X146270000Y-80180000I50000J0D01*
G01*
X148370000Y-80180000D01*
G75*
G02*
X148420000Y-80230000I0J-50000D01*
G01*
X148420000Y-82330000D01*
G75*
G02*
X148370000Y-82380000I-50000J0D01*
G01*
X146270000Y-82380000D01*
G75*
G02*
X146220000Y-82330000I0J50000D01*
G01*
G37*
%TD*%
%TO.C,REF\u002A\u002A*%
G36*
G01*
X146220000Y-74710000D02*
X146220000Y-72610000D01*
G75*
G02*
X146270000Y-72560000I50000J0D01*
G01*
X148370000Y-72560000D01*
G75*
G02*
X148420000Y-72610000I0J-50000D01*
G01*
X148420000Y-74710000D01*
G75*
G02*
X148370000Y-74760000I-50000J0D01*
G01*
X146270000Y-74760000D01*
G75*
G02*
X146220000Y-74710000I0J50000D01*
G01*
G37*
%TD*%
%TO.C,REF\u002A\u002A*%
G36*
G01*
X146220000Y-84870000D02*
X146220000Y-82770000D01*
G75*
G02*
X146270000Y-82720000I50000J0D01*
G01*
X148370000Y-82720000D01*
G75*
G02*
X148420000Y-82770000I0J-50000D01*
G01*
X148420000Y-84870000D01*
G75*
G02*
X148370000Y-84920000I-50000J0D01*
G01*
X146270000Y-84920000D01*
G75*
G02*
X146220000Y-84870000I0J50000D01*
G01*
G37*
%TD*%
%TO.C,REF\u002A\u002A*%
G36*
G01*
X123360000Y-69630000D02*
X123360000Y-67530000D01*
G75*
G02*
X123410000Y-67480000I50000J0D01*
G01*
X125510000Y-67480000D01*
G75*
G02*
X125560000Y-67530000I0J-50000D01*
G01*
X125560000Y-69630000D01*
G75*
G02*
X125510000Y-69680000I-50000J0D01*
G01*
X123410000Y-69680000D01*
G75*
G02*
X123360000Y-69630000I0J50000D01*
G01*
G37*
%TD*%
%TO.C,REF\u002A\u002A*%
G36*
G01*
X113200000Y-69630000D02*
X113200000Y-67530000D01*
G75*
G02*
X113250000Y-67480000I50000J0D01*
G01*
X115350000Y-67480000D01*
G75*
G02*
X115400000Y-67530000I0J-50000D01*
G01*
X115400000Y-69630000D01*
G75*
G02*
X115350000Y-69680000I-50000J0D01*
G01*
X113250000Y-69680000D01*
G75*
G02*
X113200000Y-69630000I0J50000D01*
G01*
G37*
%TD*%
%TO.C,REF\u002A\u002A*%
G36*
G01*
X130980000Y-69630000D02*
X130980000Y-67530000D01*
G75*
G02*
X131030000Y-67480000I50000J0D01*
G01*
X133130000Y-67480000D01*
G75*
G02*
X133180000Y-67530000I0J-50000D01*
G01*
X133180000Y-69630000D01*
G75*
G02*
X133130000Y-69680000I-50000J0D01*
G01*
X131030000Y-69680000D01*
G75*
G02*
X130980000Y-69630000I0J50000D01*
G01*
G37*
%TD*%
%TO.C,REF\u002A\u002A*%
G36*
G01*
X125900000Y-69630000D02*
X125900000Y-67530000D01*
G75*
G02*
X125950000Y-67480000I50000J0D01*
G01*
X128050000Y-67480000D01*
G75*
G02*
X128100000Y-67530000I0J-50000D01*
G01*
X128100000Y-69630000D01*
G75*
G02*
X128050000Y-69680000I-50000J0D01*
G01*
X125950000Y-69680000D01*
G75*
G02*
X125900000Y-69630000I0J50000D01*
G01*
G37*
%TD*%
%TO.C,REF\u002A\u002A*%
G36*
G01*
X128440000Y-69630000D02*
X128440000Y-67530000D01*
G75*
G02*
X128490000Y-67480000I50000J0D01*
G01*
X130590000Y-67480000D01*
G75*
G02*
X130640000Y-67530000I0J-50000D01*
G01*
X130640000Y-69630000D01*
G75*
G02*
X130590000Y-69680000I-50000J0D01*
G01*
X128490000Y-69680000D01*
G75*
G02*
X128440000Y-69630000I0J50000D01*
G01*
G37*
%TD*%
%TO.C,REF\u002A\u002A*%
G36*
G01*
X118280000Y-69630000D02*
X118280000Y-67530000D01*
G75*
G02*
X118330000Y-67480000I50000J0D01*
G01*
X120430000Y-67480000D01*
G75*
G02*
X120480000Y-67530000I0J-50000D01*
G01*
X120480000Y-69630000D01*
G75*
G02*
X120430000Y-69680000I-50000J0D01*
G01*
X118330000Y-69680000D01*
G75*
G02*
X118280000Y-69630000I0J50000D01*
G01*
G37*
%TD*%
%TO.C,REF\u002A\u002A*%
G36*
G01*
X138600000Y-69630000D02*
X138600000Y-67530000D01*
G75*
G02*
X138650000Y-67480000I50000J0D01*
G01*
X140750000Y-67480000D01*
G75*
G02*
X140800000Y-67530000I0J-50000D01*
G01*
X140800000Y-69630000D01*
G75*
G02*
X140750000Y-69680000I-50000J0D01*
G01*
X138650000Y-69680000D01*
G75*
G02*
X138600000Y-69630000I0J50000D01*
G01*
G37*
%TD*%
%TO.C,REF\u002A\u002A*%
G36*
G01*
X136060000Y-69630000D02*
X136060000Y-67530000D01*
G75*
G02*
X136110000Y-67480000I50000J0D01*
G01*
X138210000Y-67480000D01*
G75*
G02*
X138260000Y-67530000I0J-50000D01*
G01*
X138260000Y-69630000D01*
G75*
G02*
X138210000Y-69680000I-50000J0D01*
G01*
X136110000Y-69680000D01*
G75*
G02*
X136060000Y-69630000I0J50000D01*
G01*
G37*
%TD*%
%TO.C,REF\u002A\u002A*%
G36*
G01*
X115740000Y-69630000D02*
X115740000Y-67530000D01*
G75*
G02*
X115790000Y-67480000I50000J0D01*
G01*
X117890000Y-67480000D01*
G75*
G02*
X117940000Y-67530000I0J-50000D01*
G01*
X117940000Y-69630000D01*
G75*
G02*
X117890000Y-69680000I-50000J0D01*
G01*
X115790000Y-69680000D01*
G75*
G02*
X115740000Y-69630000I0J50000D01*
G01*
G37*
%TD*%
%TO.C,REF\u002A\u002A*%
G36*
G01*
X110660000Y-69630000D02*
X110660000Y-67530000D01*
G75*
G02*
X110710000Y-67480000I50000J0D01*
G01*
X112810000Y-67480000D01*
G75*
G02*
X112860000Y-67530000I0J-50000D01*
G01*
X112860000Y-69630000D01*
G75*
G02*
X112810000Y-69680000I-50000J0D01*
G01*
X110710000Y-69680000D01*
G75*
G02*
X110660000Y-69630000I0J50000D01*
G01*
G37*
%TD*%
%TO.C,REF\u002A\u002A*%
G36*
G01*
X133520000Y-69630000D02*
X133520000Y-67530000D01*
G75*
G02*
X133570000Y-67480000I50000J0D01*
G01*
X135670000Y-67480000D01*
G75*
G02*
X135720000Y-67530000I0J-50000D01*
G01*
X135720000Y-69630000D01*
G75*
G02*
X135670000Y-69680000I-50000J0D01*
G01*
X133570000Y-69680000D01*
G75*
G02*
X133520000Y-69630000I0J50000D01*
G01*
G37*
%TD*%
%TO.C,REF\u002A\u002A*%
G36*
G01*
X120820000Y-69630000D02*
X120820000Y-67530000D01*
G75*
G02*
X120870000Y-67480000I50000J0D01*
G01*
X122970000Y-67480000D01*
G75*
G02*
X123020000Y-67530000I0J-50000D01*
G01*
X123020000Y-69630000D01*
G75*
G02*
X122970000Y-69680000I-50000J0D01*
G01*
X120870000Y-69680000D01*
G75*
G02*
X120820000Y-69630000I0J50000D01*
G01*
G37*
%TD*%
%TO.C,REF\u002A\u002A*%
G36*
G01*
X141140000Y-69630000D02*
X141140000Y-67530000D01*
G75*
G02*
X141190000Y-67480000I50000J0D01*
G01*
X143290000Y-67480000D01*
G75*
G02*
X143340000Y-67530000I0J-50000D01*
G01*
X143340000Y-69630000D01*
G75*
G02*
X143290000Y-69680000I-50000J0D01*
G01*
X141190000Y-69680000D01*
G75*
G02*
X141140000Y-69630000I0J50000D01*
G01*
G37*
%TD*%
%TO.C,REF\u002A\u002A*%
G36*
G01*
X120820000Y-84870000D02*
X120820000Y-82770000D01*
G75*
G02*
X120870000Y-82720000I50000J0D01*
G01*
X122970000Y-82720000D01*
G75*
G02*
X123020000Y-82770000I0J-50000D01*
G01*
X123020000Y-84870000D01*
G75*
G02*
X122970000Y-84920000I-50000J0D01*
G01*
X120870000Y-84920000D01*
G75*
G02*
X120820000Y-84870000I0J50000D01*
G01*
G37*
%TD*%
%TO.C,REF\u002A\u002A*%
G36*
G01*
X108120000Y-84870000D02*
X108120000Y-82770000D01*
G75*
G02*
X108170000Y-82720000I50000J0D01*
G01*
X110270000Y-82720000D01*
G75*
G02*
X110320000Y-82770000I0J-50000D01*
G01*
X110320000Y-84870000D01*
G75*
G02*
X110270000Y-84920000I-50000J0D01*
G01*
X108170000Y-84920000D01*
G75*
G02*
X108120000Y-84870000I0J50000D01*
G01*
G37*
%TD*%
%TO.C,REF\u002A\u002A*%
G36*
G01*
X110660000Y-84870000D02*
X110660000Y-82770000D01*
G75*
G02*
X110710000Y-82720000I50000J0D01*
G01*
X112810000Y-82720000D01*
G75*
G02*
X112860000Y-82770000I0J-50000D01*
G01*
X112860000Y-84870000D01*
G75*
G02*
X112810000Y-84920000I-50000J0D01*
G01*
X110710000Y-84920000D01*
G75*
G02*
X110660000Y-84870000I0J50000D01*
G01*
G37*
%TD*%
%TO.C,REF\u002A\u002A*%
G36*
G01*
X125900000Y-84870000D02*
X125900000Y-82770000D01*
G75*
G02*
X125950000Y-82720000I50000J0D01*
G01*
X128050000Y-82720000D01*
G75*
G02*
X128100000Y-82770000I0J-50000D01*
G01*
X128100000Y-84870000D01*
G75*
G02*
X128050000Y-84920000I-50000J0D01*
G01*
X125950000Y-84920000D01*
G75*
G02*
X125900000Y-84870000I0J50000D01*
G01*
G37*
%TD*%
%TO.C,REF\u002A\u002A*%
G36*
G01*
X133520000Y-84870000D02*
X133520000Y-82770000D01*
G75*
G02*
X133570000Y-82720000I50000J0D01*
G01*
X135670000Y-82720000D01*
G75*
G02*
X135720000Y-82770000I0J-50000D01*
G01*
X135720000Y-84870000D01*
G75*
G02*
X135670000Y-84920000I-50000J0D01*
G01*
X133570000Y-84920000D01*
G75*
G02*
X133520000Y-84870000I0J50000D01*
G01*
G37*
%TD*%
%TO.C,REF\u002A\u002A*%
G36*
G01*
X118280000Y-84870000D02*
X118280000Y-82770000D01*
G75*
G02*
X118330000Y-82720000I50000J0D01*
G01*
X120430000Y-82720000D01*
G75*
G02*
X120480000Y-82770000I0J-50000D01*
G01*
X120480000Y-84870000D01*
G75*
G02*
X120430000Y-84920000I-50000J0D01*
G01*
X118330000Y-84920000D01*
G75*
G02*
X118280000Y-84870000I0J50000D01*
G01*
G37*
%TD*%
%TO.C,REF\u002A\u002A*%
G36*
G01*
X136060000Y-84870000D02*
X136060000Y-82770000D01*
G75*
G02*
X136110000Y-82720000I50000J0D01*
G01*
X138210000Y-82720000D01*
G75*
G02*
X138260000Y-82770000I0J-50000D01*
G01*
X138260000Y-84870000D01*
G75*
G02*
X138210000Y-84920000I-50000J0D01*
G01*
X136110000Y-84920000D01*
G75*
G02*
X136060000Y-84870000I0J50000D01*
G01*
G37*
%TD*%
%TO.C,REF\u002A\u002A*%
G36*
G01*
X138600000Y-84870000D02*
X138600000Y-82770000D01*
G75*
G02*
X138650000Y-82720000I50000J0D01*
G01*
X140750000Y-82720000D01*
G75*
G02*
X140800000Y-82770000I0J-50000D01*
G01*
X140800000Y-84870000D01*
G75*
G02*
X140750000Y-84920000I-50000J0D01*
G01*
X138650000Y-84920000D01*
G75*
G02*
X138600000Y-84870000I0J50000D01*
G01*
G37*
%TD*%
%TO.C,REF\u002A\u002A*%
G36*
G01*
X141140000Y-84870000D02*
X141140000Y-82770000D01*
G75*
G02*
X141190000Y-82720000I50000J0D01*
G01*
X143290000Y-82720000D01*
G75*
G02*
X143340000Y-82770000I0J-50000D01*
G01*
X143340000Y-84870000D01*
G75*
G02*
X143290000Y-84920000I-50000J0D01*
G01*
X141190000Y-84920000D01*
G75*
G02*
X141140000Y-84870000I0J50000D01*
G01*
G37*
%TD*%
%TO.C,REF\u002A\u002A*%
G36*
G01*
X143680000Y-84870000D02*
X143680000Y-82770000D01*
G75*
G02*
X143730000Y-82720000I50000J0D01*
G01*
X145830000Y-82720000D01*
G75*
G02*
X145880000Y-82770000I0J-50000D01*
G01*
X145880000Y-84870000D01*
G75*
G02*
X145830000Y-84920000I-50000J0D01*
G01*
X143730000Y-84920000D01*
G75*
G02*
X143680000Y-84870000I0J50000D01*
G01*
G37*
%TD*%
%TO.C,REF\u002A\u002A*%
G36*
G01*
X123360000Y-84870000D02*
X123360000Y-82770000D01*
G75*
G02*
X123410000Y-82720000I50000J0D01*
G01*
X125510000Y-82720000D01*
G75*
G02*
X125560000Y-82770000I0J-50000D01*
G01*
X125560000Y-84870000D01*
G75*
G02*
X125510000Y-84920000I-50000J0D01*
G01*
X123410000Y-84920000D01*
G75*
G02*
X123360000Y-84870000I0J50000D01*
G01*
G37*
%TD*%
%TO.C,REF\u002A\u002A*%
G36*
G01*
X105580000Y-84870000D02*
X105580000Y-82770000D01*
G75*
G02*
X105630000Y-82720000I50000J0D01*
G01*
X107730000Y-82720000D01*
G75*
G02*
X107780000Y-82770000I0J-50000D01*
G01*
X107780000Y-84870000D01*
G75*
G02*
X107730000Y-84920000I-50000J0D01*
G01*
X105630000Y-84920000D01*
G75*
G02*
X105580000Y-84870000I0J50000D01*
G01*
G37*
%TD*%
%TO.C,REF\u002A\u002A*%
G36*
G01*
X113200000Y-84870000D02*
X113200000Y-82770000D01*
G75*
G02*
X113250000Y-82720000I50000J0D01*
G01*
X115350000Y-82720000D01*
G75*
G02*
X115400000Y-82770000I0J-50000D01*
G01*
X115400000Y-84870000D01*
G75*
G02*
X115350000Y-84920000I-50000J0D01*
G01*
X113250000Y-84920000D01*
G75*
G02*
X113200000Y-84870000I0J50000D01*
G01*
G37*
%TD*%
%TO.C,REF\u002A\u002A*%
G36*
G01*
X115740000Y-84870000D02*
X115740000Y-82770000D01*
G75*
G02*
X115790000Y-82720000I50000J0D01*
G01*
X117890000Y-82720000D01*
G75*
G02*
X117940000Y-82770000I0J-50000D01*
G01*
X117940000Y-84870000D01*
G75*
G02*
X117890000Y-84920000I-50000J0D01*
G01*
X115790000Y-84920000D01*
G75*
G02*
X115740000Y-84870000I0J50000D01*
G01*
G37*
%TD*%
%TO.C,REF\u002A\u002A*%
G36*
G01*
X130980000Y-84870000D02*
X130980000Y-82770000D01*
G75*
G02*
X131030000Y-82720000I50000J0D01*
G01*
X133130000Y-82720000D01*
G75*
G02*
X133180000Y-82770000I0J-50000D01*
G01*
X133180000Y-84870000D01*
G75*
G02*
X133130000Y-84920000I-50000J0D01*
G01*
X131030000Y-84920000D01*
G75*
G02*
X130980000Y-84870000I0J50000D01*
G01*
G37*
%TD*%
%TO.C,REF\u002A\u002A*%
G36*
G01*
X128440000Y-84870000D02*
X128440000Y-82770000D01*
G75*
G02*
X128490000Y-82720000I50000J0D01*
G01*
X130590000Y-82720000D01*
G75*
G02*
X130640000Y-82770000I0J-50000D01*
G01*
X130640000Y-84870000D01*
G75*
G02*
X130590000Y-84920000I-50000J0D01*
G01*
X128490000Y-84920000D01*
G75*
G02*
X128440000Y-84870000I0J50000D01*
G01*
G37*
%TD*%
%TO.C,REF\u002A\u002A*%
G36*
G01*
X113200000Y-74710000D02*
X113200000Y-72610000D01*
G75*
G02*
X113250000Y-72560000I50000J0D01*
G01*
X115350000Y-72560000D01*
G75*
G02*
X115400000Y-72610000I0J-50000D01*
G01*
X115400000Y-74710000D01*
G75*
G02*
X115350000Y-74760000I-50000J0D01*
G01*
X113250000Y-74760000D01*
G75*
G02*
X113200000Y-74710000I0J50000D01*
G01*
G37*
%TD*%
%TO.C,REF\u002A\u002A*%
G36*
G01*
X110660000Y-72170000D02*
X110660000Y-70070000D01*
G75*
G02*
X110710000Y-70020000I50000J0D01*
G01*
X112810000Y-70020000D01*
G75*
G02*
X112860000Y-70070000I0J-50000D01*
G01*
X112860000Y-72170000D01*
G75*
G02*
X112810000Y-72220000I-50000J0D01*
G01*
X110710000Y-72220000D01*
G75*
G02*
X110660000Y-72170000I0J50000D01*
G01*
G37*
%TD*%
%TO.C,REF\u002A\u002A*%
G36*
G01*
X110660000Y-77250000D02*
X110660000Y-75150000D01*
G75*
G02*
X110710000Y-75100000I50000J0D01*
G01*
X112810000Y-75100000D01*
G75*
G02*
X112860000Y-75150000I0J-50000D01*
G01*
X112860000Y-77250000D01*
G75*
G02*
X112810000Y-77300000I-50000J0D01*
G01*
X110710000Y-77300000D01*
G75*
G02*
X110660000Y-77250000I0J50000D01*
G01*
G37*
%TD*%
%TO.C,REF\u002A\u002A*%
G36*
G01*
X123360000Y-77250000D02*
X123360000Y-75150000D01*
G75*
G02*
X123410000Y-75100000I50000J0D01*
G01*
X125510000Y-75100000D01*
G75*
G02*
X125560000Y-75150000I0J-50000D01*
G01*
X125560000Y-77250000D01*
G75*
G02*
X125510000Y-77300000I-50000J0D01*
G01*
X123410000Y-77300000D01*
G75*
G02*
X123360000Y-77250000I0J50000D01*
G01*
G37*
%TD*%
%TO.C,REF\u002A\u002A*%
G36*
G01*
X105580000Y-72170000D02*
X105580000Y-70070000D01*
G75*
G02*
X105630000Y-70020000I50000J0D01*
G01*
X107730000Y-70020000D01*
G75*
G02*
X107780000Y-70070000I0J-50000D01*
G01*
X107780000Y-72170000D01*
G75*
G02*
X107730000Y-72220000I-50000J0D01*
G01*
X105630000Y-72220000D01*
G75*
G02*
X105580000Y-72170000I0J50000D01*
G01*
G37*
%TD*%
%TO.C,REF\u002A\u002A*%
G36*
G01*
X105580000Y-82330000D02*
X105580000Y-80230000D01*
G75*
G02*
X105630000Y-80180000I50000J0D01*
G01*
X107730000Y-80180000D01*
G75*
G02*
X107780000Y-80230000I0J-50000D01*
G01*
X107780000Y-82330000D01*
G75*
G02*
X107730000Y-82380000I-50000J0D01*
G01*
X105630000Y-82380000D01*
G75*
G02*
X105580000Y-82330000I0J50000D01*
G01*
G37*
%TD*%
%TO.C,REF\u002A\u002A*%
G36*
G01*
X105580000Y-77250000D02*
X105580000Y-75150000D01*
G75*
G02*
X105630000Y-75100000I50000J0D01*
G01*
X107730000Y-75100000D01*
G75*
G02*
X107780000Y-75150000I0J-50000D01*
G01*
X107780000Y-77250000D01*
G75*
G02*
X107730000Y-77300000I-50000J0D01*
G01*
X105630000Y-77300000D01*
G75*
G02*
X105580000Y-77250000I0J50000D01*
G01*
G37*
%TD*%
%TO.C,REF\u002A\u002A*%
G36*
G01*
X105580000Y-79790000D02*
X105580000Y-77690000D01*
G75*
G02*
X105630000Y-77640000I50000J0D01*
G01*
X107730000Y-77640000D01*
G75*
G02*
X107780000Y-77690000I0J-50000D01*
G01*
X107780000Y-79790000D01*
G75*
G02*
X107730000Y-79840000I-50000J0D01*
G01*
X105630000Y-79840000D01*
G75*
G02*
X105580000Y-79790000I0J50000D01*
G01*
G37*
%TD*%
%TO.C,REF\u002A\u002A*%
G36*
G01*
X108120000Y-77250000D02*
X108120000Y-75150000D01*
G75*
G02*
X108170000Y-75100000I50000J0D01*
G01*
X110270000Y-75100000D01*
G75*
G02*
X110320000Y-75150000I0J-50000D01*
G01*
X110320000Y-77250000D01*
G75*
G02*
X110270000Y-77300000I-50000J0D01*
G01*
X108170000Y-77300000D01*
G75*
G02*
X108120000Y-77250000I0J50000D01*
G01*
G37*
%TD*%
%TO.C,REF\u002A\u002A*%
G36*
G01*
X108120000Y-79790000D02*
X108120000Y-77690000D01*
G75*
G02*
X108170000Y-77640000I50000J0D01*
G01*
X110270000Y-77640000D01*
G75*
G02*
X110320000Y-77690000I0J-50000D01*
G01*
X110320000Y-79790000D01*
G75*
G02*
X110270000Y-79840000I-50000J0D01*
G01*
X108170000Y-79840000D01*
G75*
G02*
X108120000Y-79790000I0J50000D01*
G01*
G37*
%TD*%
%TO.C,REF\u002A\u002A*%
G36*
G01*
X108120000Y-72170000D02*
X108120000Y-70070000D01*
G75*
G02*
X108170000Y-70020000I50000J0D01*
G01*
X110270000Y-70020000D01*
G75*
G02*
X110320000Y-70070000I0J-50000D01*
G01*
X110320000Y-72170000D01*
G75*
G02*
X110270000Y-72220000I-50000J0D01*
G01*
X108170000Y-72220000D01*
G75*
G02*
X108120000Y-72170000I0J50000D01*
G01*
G37*
%TD*%
%TO.C,REF\u002A\u002A*%
G36*
G01*
X108120000Y-74710000D02*
X108120000Y-72610000D01*
G75*
G02*
X108170000Y-72560000I50000J0D01*
G01*
X110270000Y-72560000D01*
G75*
G02*
X110320000Y-72610000I0J-50000D01*
G01*
X110320000Y-74710000D01*
G75*
G02*
X110270000Y-74760000I-50000J0D01*
G01*
X108170000Y-74760000D01*
G75*
G02*
X108120000Y-74710000I0J50000D01*
G01*
G37*
%TD*%
%TO.C,REF\u002A\u002A*%
G36*
G01*
X105580000Y-74710000D02*
X105580000Y-72610000D01*
G75*
G02*
X105630000Y-72560000I50000J0D01*
G01*
X107730000Y-72560000D01*
G75*
G02*
X107780000Y-72610000I0J-50000D01*
G01*
X107780000Y-74710000D01*
G75*
G02*
X107730000Y-74760000I-50000J0D01*
G01*
X105630000Y-74760000D01*
G75*
G02*
X105580000Y-74710000I0J50000D01*
G01*
G37*
%TD*%
%TO.C,REF\u002A\u002A*%
G36*
G01*
X113200000Y-77250000D02*
X113200000Y-75150000D01*
G75*
G02*
X113250000Y-75100000I50000J0D01*
G01*
X115350000Y-75100000D01*
G75*
G02*
X115400000Y-75150000I0J-50000D01*
G01*
X115400000Y-77250000D01*
G75*
G02*
X115350000Y-77300000I-50000J0D01*
G01*
X113250000Y-77300000D01*
G75*
G02*
X113200000Y-77250000I0J50000D01*
G01*
G37*
%TD*%
%TO.C,REF\u002A\u002A*%
G36*
G01*
X113200000Y-79790000D02*
X113200000Y-77690000D01*
G75*
G02*
X113250000Y-77640000I50000J0D01*
G01*
X115350000Y-77640000D01*
G75*
G02*
X115400000Y-77690000I0J-50000D01*
G01*
X115400000Y-79790000D01*
G75*
G02*
X115350000Y-79840000I-50000J0D01*
G01*
X113250000Y-79840000D01*
G75*
G02*
X113200000Y-79790000I0J50000D01*
G01*
G37*
%TD*%
%TO.C,REF\u002A\u002A*%
G36*
G01*
X110660000Y-74710000D02*
X110660000Y-72610000D01*
G75*
G02*
X110710000Y-72560000I50000J0D01*
G01*
X112810000Y-72560000D01*
G75*
G02*
X112860000Y-72610000I0J-50000D01*
G01*
X112860000Y-74710000D01*
G75*
G02*
X112810000Y-74760000I-50000J0D01*
G01*
X110710000Y-74760000D01*
G75*
G02*
X110660000Y-74710000I0J50000D01*
G01*
G37*
%TD*%
%TO.C,REF\u002A\u002A*%
G36*
G01*
X113200000Y-82330000D02*
X113200000Y-80230000D01*
G75*
G02*
X113250000Y-80180000I50000J0D01*
G01*
X115350000Y-80180000D01*
G75*
G02*
X115400000Y-80230000I0J-50000D01*
G01*
X115400000Y-82330000D01*
G75*
G02*
X115350000Y-82380000I-50000J0D01*
G01*
X113250000Y-82380000D01*
G75*
G02*
X113200000Y-82330000I0J50000D01*
G01*
G37*
%TD*%
%TO.C,REF\u002A\u002A*%
G36*
G01*
X110660000Y-79790000D02*
X110660000Y-77690000D01*
G75*
G02*
X110710000Y-77640000I50000J0D01*
G01*
X112810000Y-77640000D01*
G75*
G02*
X112860000Y-77690000I0J-50000D01*
G01*
X112860000Y-79790000D01*
G75*
G02*
X112810000Y-79840000I-50000J0D01*
G01*
X110710000Y-79840000D01*
G75*
G02*
X110660000Y-79790000I0J50000D01*
G01*
G37*
%TD*%
%TO.C,REF\u002A\u002A*%
G36*
G01*
X123360000Y-79790000D02*
X123360000Y-77690000D01*
G75*
G02*
X123410000Y-77640000I50000J0D01*
G01*
X125510000Y-77640000D01*
G75*
G02*
X125560000Y-77690000I0J-50000D01*
G01*
X125560000Y-79790000D01*
G75*
G02*
X125510000Y-79840000I-50000J0D01*
G01*
X123410000Y-79840000D01*
G75*
G02*
X123360000Y-79790000I0J50000D01*
G01*
G37*
%TD*%
%TO.C,REF\u002A\u002A*%
G36*
G01*
X115740000Y-82330000D02*
X115740000Y-80230000D01*
G75*
G02*
X115790000Y-80180000I50000J0D01*
G01*
X117890000Y-80180000D01*
G75*
G02*
X117940000Y-80230000I0J-50000D01*
G01*
X117940000Y-82330000D01*
G75*
G02*
X117890000Y-82380000I-50000J0D01*
G01*
X115790000Y-82380000D01*
G75*
G02*
X115740000Y-82330000I0J50000D01*
G01*
G37*
%TD*%
%TO.C,REF\u002A\u002A*%
G36*
G01*
X115740000Y-77250000D02*
X115740000Y-75150000D01*
G75*
G02*
X115790000Y-75100000I50000J0D01*
G01*
X117890000Y-75100000D01*
G75*
G02*
X117940000Y-75150000I0J-50000D01*
G01*
X117940000Y-77250000D01*
G75*
G02*
X117890000Y-77300000I-50000J0D01*
G01*
X115790000Y-77300000D01*
G75*
G02*
X115740000Y-77250000I0J50000D01*
G01*
G37*
%TD*%
%TO.C,REF\u002A\u002A*%
G36*
G01*
X115740000Y-79790000D02*
X115740000Y-77690000D01*
G75*
G02*
X115790000Y-77640000I50000J0D01*
G01*
X117890000Y-77640000D01*
G75*
G02*
X117940000Y-77690000I0J-50000D01*
G01*
X117940000Y-79790000D01*
G75*
G02*
X117890000Y-79840000I-50000J0D01*
G01*
X115790000Y-79840000D01*
G75*
G02*
X115740000Y-79790000I0J50000D01*
G01*
G37*
%TD*%
%TO.C,REF\u002A\u002A*%
G36*
G01*
X118280000Y-77250000D02*
X118280000Y-75150000D01*
G75*
G02*
X118330000Y-75100000I50000J0D01*
G01*
X120430000Y-75100000D01*
G75*
G02*
X120480000Y-75150000I0J-50000D01*
G01*
X120480000Y-77250000D01*
G75*
G02*
X120430000Y-77300000I-50000J0D01*
G01*
X118330000Y-77300000D01*
G75*
G02*
X118280000Y-77250000I0J50000D01*
G01*
G37*
%TD*%
%TO.C,REF\u002A\u002A*%
G36*
G01*
X118280000Y-79790000D02*
X118280000Y-77690000D01*
G75*
G02*
X118330000Y-77640000I50000J0D01*
G01*
X120430000Y-77640000D01*
G75*
G02*
X120480000Y-77690000I0J-50000D01*
G01*
X120480000Y-79790000D01*
G75*
G02*
X120430000Y-79840000I-50000J0D01*
G01*
X118330000Y-79840000D01*
G75*
G02*
X118280000Y-79790000I0J50000D01*
G01*
G37*
%TD*%
%TO.C,REF\u002A\u002A*%
G36*
G01*
X118280000Y-72170000D02*
X118280000Y-70070000D01*
G75*
G02*
X118330000Y-70020000I50000J0D01*
G01*
X120430000Y-70020000D01*
G75*
G02*
X120480000Y-70070000I0J-50000D01*
G01*
X120480000Y-72170000D01*
G75*
G02*
X120430000Y-72220000I-50000J0D01*
G01*
X118330000Y-72220000D01*
G75*
G02*
X118280000Y-72170000I0J50000D01*
G01*
G37*
%TD*%
%TO.C,REF\u002A\u002A*%
G36*
G01*
X118280000Y-74710000D02*
X118280000Y-72610000D01*
G75*
G02*
X118330000Y-72560000I50000J0D01*
G01*
X120430000Y-72560000D01*
G75*
G02*
X120480000Y-72610000I0J-50000D01*
G01*
X120480000Y-74710000D01*
G75*
G02*
X120430000Y-74760000I-50000J0D01*
G01*
X118330000Y-74760000D01*
G75*
G02*
X118280000Y-74710000I0J50000D01*
G01*
G37*
%TD*%
%TO.C,REF\u002A\u002A*%
G36*
G01*
X115740000Y-74710000D02*
X115740000Y-72610000D01*
G75*
G02*
X115790000Y-72560000I50000J0D01*
G01*
X117890000Y-72560000D01*
G75*
G02*
X117940000Y-72610000I0J-50000D01*
G01*
X117940000Y-74710000D01*
G75*
G02*
X117890000Y-74760000I-50000J0D01*
G01*
X115790000Y-74760000D01*
G75*
G02*
X115740000Y-74710000I0J50000D01*
G01*
G37*
%TD*%
%TO.C,REF\u002A\u002A*%
G36*
G01*
X115740000Y-72170000D02*
X115740000Y-70070000D01*
G75*
G02*
X115790000Y-70020000I50000J0D01*
G01*
X117890000Y-70020000D01*
G75*
G02*
X117940000Y-70070000I0J-50000D01*
G01*
X117940000Y-72170000D01*
G75*
G02*
X117890000Y-72220000I-50000J0D01*
G01*
X115790000Y-72220000D01*
G75*
G02*
X115740000Y-72170000I0J50000D01*
G01*
G37*
%TD*%
%TO.C,REF\u002A\u002A*%
G36*
G01*
X118280000Y-82330000D02*
X118280000Y-80230000D01*
G75*
G02*
X118330000Y-80180000I50000J0D01*
G01*
X120430000Y-80180000D01*
G75*
G02*
X120480000Y-80230000I0J-50000D01*
G01*
X120480000Y-82330000D01*
G75*
G02*
X120430000Y-82380000I-50000J0D01*
G01*
X118330000Y-82380000D01*
G75*
G02*
X118280000Y-82330000I0J50000D01*
G01*
G37*
%TD*%
%TO.C,REF\u002A\u002A*%
G36*
G01*
X120820000Y-77250000D02*
X120820000Y-75150000D01*
G75*
G02*
X120870000Y-75100000I50000J0D01*
G01*
X122970000Y-75100000D01*
G75*
G02*
X123020000Y-75150000I0J-50000D01*
G01*
X123020000Y-77250000D01*
G75*
G02*
X122970000Y-77300000I-50000J0D01*
G01*
X120870000Y-77300000D01*
G75*
G02*
X120820000Y-77250000I0J50000D01*
G01*
G37*
%TD*%
%TO.C,REF\u002A\u002A*%
G36*
G01*
X120820000Y-79790000D02*
X120820000Y-77690000D01*
G75*
G02*
X120870000Y-77640000I50000J0D01*
G01*
X122970000Y-77640000D01*
G75*
G02*
X123020000Y-77690000I0J-50000D01*
G01*
X123020000Y-79790000D01*
G75*
G02*
X122970000Y-79840000I-50000J0D01*
G01*
X120870000Y-79840000D01*
G75*
G02*
X120820000Y-79790000I0J50000D01*
G01*
G37*
%TD*%
%TO.C,REF\u002A\u002A*%
G36*
G01*
X120820000Y-82330000D02*
X120820000Y-80230000D01*
G75*
G02*
X120870000Y-80180000I50000J0D01*
G01*
X122970000Y-80180000D01*
G75*
G02*
X123020000Y-80230000I0J-50000D01*
G01*
X123020000Y-82330000D01*
G75*
G02*
X122970000Y-82380000I-50000J0D01*
G01*
X120870000Y-82380000D01*
G75*
G02*
X120820000Y-82330000I0J50000D01*
G01*
G37*
%TD*%
%TO.C,REF\u002A\u002A*%
G36*
G01*
X120820000Y-74710000D02*
X120820000Y-72610000D01*
G75*
G02*
X120870000Y-72560000I50000J0D01*
G01*
X122970000Y-72560000D01*
G75*
G02*
X123020000Y-72610000I0J-50000D01*
G01*
X123020000Y-74710000D01*
G75*
G02*
X122970000Y-74760000I-50000J0D01*
G01*
X120870000Y-74760000D01*
G75*
G02*
X120820000Y-74710000I0J50000D01*
G01*
G37*
%TD*%
%TO.C,REF\u002A\u002A*%
G36*
G01*
X120820000Y-72170000D02*
X120820000Y-70070000D01*
G75*
G02*
X120870000Y-70020000I50000J0D01*
G01*
X122970000Y-70020000D01*
G75*
G02*
X123020000Y-70070000I0J-50000D01*
G01*
X123020000Y-72170000D01*
G75*
G02*
X122970000Y-72220000I-50000J0D01*
G01*
X120870000Y-72220000D01*
G75*
G02*
X120820000Y-72170000I0J50000D01*
G01*
G37*
%TD*%
%TO.C,REF\u002A\u002A*%
G36*
G01*
X123360000Y-82330000D02*
X123360000Y-80230000D01*
G75*
G02*
X123410000Y-80180000I50000J0D01*
G01*
X125510000Y-80180000D01*
G75*
G02*
X125560000Y-80230000I0J-50000D01*
G01*
X125560000Y-82330000D01*
G75*
G02*
X125510000Y-82380000I-50000J0D01*
G01*
X123410000Y-82380000D01*
G75*
G02*
X123360000Y-82330000I0J50000D01*
G01*
G37*
%TD*%
%TO.C,REF\u002A\u002A*%
G36*
G01*
X123360000Y-74710000D02*
X123360000Y-72610000D01*
G75*
G02*
X123410000Y-72560000I50000J0D01*
G01*
X125510000Y-72560000D01*
G75*
G02*
X125560000Y-72610000I0J-50000D01*
G01*
X125560000Y-74710000D01*
G75*
G02*
X125510000Y-74760000I-50000J0D01*
G01*
X123410000Y-74760000D01*
G75*
G02*
X123360000Y-74710000I0J50000D01*
G01*
G37*
%TD*%
%TO.C,REF\u002A\u002A*%
G36*
G01*
X113200000Y-72170000D02*
X113200000Y-70070000D01*
G75*
G02*
X113250000Y-70020000I50000J0D01*
G01*
X115350000Y-70020000D01*
G75*
G02*
X115400000Y-70070000I0J-50000D01*
G01*
X115400000Y-72170000D01*
G75*
G02*
X115350000Y-72220000I-50000J0D01*
G01*
X113250000Y-72220000D01*
G75*
G02*
X113200000Y-72170000I0J50000D01*
G01*
G37*
%TD*%
%TO.C,REF\u002A\u002A*%
G36*
G01*
X110660000Y-82330000D02*
X110660000Y-80230000D01*
G75*
G02*
X110710000Y-80180000I50000J0D01*
G01*
X112810000Y-80180000D01*
G75*
G02*
X112860000Y-80230000I0J-50000D01*
G01*
X112860000Y-82330000D01*
G75*
G02*
X112810000Y-82380000I-50000J0D01*
G01*
X110710000Y-82380000D01*
G75*
G02*
X110660000Y-82330000I0J50000D01*
G01*
G37*
%TD*%
%TO.C,REF\u002A\u002A*%
G36*
G01*
X108120000Y-82330000D02*
X108120000Y-80230000D01*
G75*
G02*
X108170000Y-80180000I50000J0D01*
G01*
X110270000Y-80180000D01*
G75*
G02*
X110320000Y-80230000I0J-50000D01*
G01*
X110320000Y-82330000D01*
G75*
G02*
X110270000Y-82380000I-50000J0D01*
G01*
X108170000Y-82380000D01*
G75*
G02*
X108120000Y-82330000I0J50000D01*
G01*
G37*
%TD*%
%TO.C,REF\u002A\u002A*%
G36*
G01*
X123360000Y-72170000D02*
X123360000Y-70070000D01*
G75*
G02*
X123410000Y-70020000I50000J0D01*
G01*
X125510000Y-70020000D01*
G75*
G02*
X125560000Y-70070000I0J-50000D01*
G01*
X125560000Y-72170000D01*
G75*
G02*
X125510000Y-72220000I-50000J0D01*
G01*
X123410000Y-72220000D01*
G75*
G02*
X123360000Y-72170000I0J50000D01*
G01*
G37*
%TD*%
%TO.C,REF\u002A\u002A*%
G36*
G01*
X133520000Y-77250000D02*
X133520000Y-75150000D01*
G75*
G02*
X133570000Y-75100000I50000J0D01*
G01*
X135670000Y-75100000D01*
G75*
G02*
X135720000Y-75150000I0J-50000D01*
G01*
X135720000Y-77250000D01*
G75*
G02*
X135670000Y-77300000I-50000J0D01*
G01*
X133570000Y-77300000D01*
G75*
G02*
X133520000Y-77250000I0J50000D01*
G01*
G37*
%TD*%
%TO.C,REF\u002A\u002A*%
G36*
G01*
X133520000Y-79790000D02*
X133520000Y-77690000D01*
G75*
G02*
X133570000Y-77640000I50000J0D01*
G01*
X135670000Y-77640000D01*
G75*
G02*
X135720000Y-77690000I0J-50000D01*
G01*
X135720000Y-79790000D01*
G75*
G02*
X135670000Y-79840000I-50000J0D01*
G01*
X133570000Y-79840000D01*
G75*
G02*
X133520000Y-79790000I0J50000D01*
G01*
G37*
%TD*%
%TO.C,REF\u002A\u002A*%
G36*
G01*
X125900000Y-82330000D02*
X125900000Y-80230000D01*
G75*
G02*
X125950000Y-80180000I50000J0D01*
G01*
X128050000Y-80180000D01*
G75*
G02*
X128100000Y-80230000I0J-50000D01*
G01*
X128100000Y-82330000D01*
G75*
G02*
X128050000Y-82380000I-50000J0D01*
G01*
X125950000Y-82380000D01*
G75*
G02*
X125900000Y-82330000I0J50000D01*
G01*
G37*
%TD*%
%TO.C,REF\u002A\u002A*%
G36*
G01*
X125900000Y-77250000D02*
X125900000Y-75150000D01*
G75*
G02*
X125950000Y-75100000I50000J0D01*
G01*
X128050000Y-75100000D01*
G75*
G02*
X128100000Y-75150000I0J-50000D01*
G01*
X128100000Y-77250000D01*
G75*
G02*
X128050000Y-77300000I-50000J0D01*
G01*
X125950000Y-77300000D01*
G75*
G02*
X125900000Y-77250000I0J50000D01*
G01*
G37*
%TD*%
%TO.C,REF\u002A\u002A*%
G36*
G01*
X125900000Y-79790000D02*
X125900000Y-77690000D01*
G75*
G02*
X125950000Y-77640000I50000J0D01*
G01*
X128050000Y-77640000D01*
G75*
G02*
X128100000Y-77690000I0J-50000D01*
G01*
X128100000Y-79790000D01*
G75*
G02*
X128050000Y-79840000I-50000J0D01*
G01*
X125950000Y-79840000D01*
G75*
G02*
X125900000Y-79790000I0J50000D01*
G01*
G37*
%TD*%
%TO.C,REF\u002A\u002A*%
G36*
G01*
X128440000Y-77250000D02*
X128440000Y-75150000D01*
G75*
G02*
X128490000Y-75100000I50000J0D01*
G01*
X130590000Y-75100000D01*
G75*
G02*
X130640000Y-75150000I0J-50000D01*
G01*
X130640000Y-77250000D01*
G75*
G02*
X130590000Y-77300000I-50000J0D01*
G01*
X128490000Y-77300000D01*
G75*
G02*
X128440000Y-77250000I0J50000D01*
G01*
G37*
%TD*%
%TO.C,REF\u002A\u002A*%
G36*
G01*
X128440000Y-79790000D02*
X128440000Y-77690000D01*
G75*
G02*
X128490000Y-77640000I50000J0D01*
G01*
X130590000Y-77640000D01*
G75*
G02*
X130640000Y-77690000I0J-50000D01*
G01*
X130640000Y-79790000D01*
G75*
G02*
X130590000Y-79840000I-50000J0D01*
G01*
X128490000Y-79840000D01*
G75*
G02*
X128440000Y-79790000I0J50000D01*
G01*
G37*
%TD*%
%TO.C,REF\u002A\u002A*%
G36*
G01*
X128440000Y-72170000D02*
X128440000Y-70070000D01*
G75*
G02*
X128490000Y-70020000I50000J0D01*
G01*
X130590000Y-70020000D01*
G75*
G02*
X130640000Y-70070000I0J-50000D01*
G01*
X130640000Y-72170000D01*
G75*
G02*
X130590000Y-72220000I-50000J0D01*
G01*
X128490000Y-72220000D01*
G75*
G02*
X128440000Y-72170000I0J50000D01*
G01*
G37*
%TD*%
%TO.C,REF\u002A\u002A*%
G36*
G01*
X128440000Y-74710000D02*
X128440000Y-72610000D01*
G75*
G02*
X128490000Y-72560000I50000J0D01*
G01*
X130590000Y-72560000D01*
G75*
G02*
X130640000Y-72610000I0J-50000D01*
G01*
X130640000Y-74710000D01*
G75*
G02*
X130590000Y-74760000I-50000J0D01*
G01*
X128490000Y-74760000D01*
G75*
G02*
X128440000Y-74710000I0J50000D01*
G01*
G37*
%TD*%
%TO.C,REF\u002A\u002A*%
G36*
G01*
X125900000Y-74710000D02*
X125900000Y-72610000D01*
G75*
G02*
X125950000Y-72560000I50000J0D01*
G01*
X128050000Y-72560000D01*
G75*
G02*
X128100000Y-72610000I0J-50000D01*
G01*
X128100000Y-74710000D01*
G75*
G02*
X128050000Y-74760000I-50000J0D01*
G01*
X125950000Y-74760000D01*
G75*
G02*
X125900000Y-74710000I0J50000D01*
G01*
G37*
%TD*%
%TO.C,REF\u002A\u002A*%
G36*
G01*
X125900000Y-72170000D02*
X125900000Y-70070000D01*
G75*
G02*
X125950000Y-70020000I50000J0D01*
G01*
X128050000Y-70020000D01*
G75*
G02*
X128100000Y-70070000I0J-50000D01*
G01*
X128100000Y-72170000D01*
G75*
G02*
X128050000Y-72220000I-50000J0D01*
G01*
X125950000Y-72220000D01*
G75*
G02*
X125900000Y-72170000I0J50000D01*
G01*
G37*
%TD*%
%TO.C,REF\u002A\u002A*%
G36*
G01*
X128440000Y-82330000D02*
X128440000Y-80230000D01*
G75*
G02*
X128490000Y-80180000I50000J0D01*
G01*
X130590000Y-80180000D01*
G75*
G02*
X130640000Y-80230000I0J-50000D01*
G01*
X130640000Y-82330000D01*
G75*
G02*
X130590000Y-82380000I-50000J0D01*
G01*
X128490000Y-82380000D01*
G75*
G02*
X128440000Y-82330000I0J50000D01*
G01*
G37*
%TD*%
%TO.C,REF\u002A\u002A*%
G36*
G01*
X130980000Y-77250000D02*
X130980000Y-75150000D01*
G75*
G02*
X131030000Y-75100000I50000J0D01*
G01*
X133130000Y-75100000D01*
G75*
G02*
X133180000Y-75150000I0J-50000D01*
G01*
X133180000Y-77250000D01*
G75*
G02*
X133130000Y-77300000I-50000J0D01*
G01*
X131030000Y-77300000D01*
G75*
G02*
X130980000Y-77250000I0J50000D01*
G01*
G37*
%TD*%
%TO.C,REF\u002A\u002A*%
G36*
G01*
X130980000Y-79790000D02*
X130980000Y-77690000D01*
G75*
G02*
X131030000Y-77640000I50000J0D01*
G01*
X133130000Y-77640000D01*
G75*
G02*
X133180000Y-77690000I0J-50000D01*
G01*
X133180000Y-79790000D01*
G75*
G02*
X133130000Y-79840000I-50000J0D01*
G01*
X131030000Y-79840000D01*
G75*
G02*
X130980000Y-79790000I0J50000D01*
G01*
G37*
%TD*%
%TO.C,REF\u002A\u002A*%
G36*
G01*
X130980000Y-82330000D02*
X130980000Y-80230000D01*
G75*
G02*
X131030000Y-80180000I50000J0D01*
G01*
X133130000Y-80180000D01*
G75*
G02*
X133180000Y-80230000I0J-50000D01*
G01*
X133180000Y-82330000D01*
G75*
G02*
X133130000Y-82380000I-50000J0D01*
G01*
X131030000Y-82380000D01*
G75*
G02*
X130980000Y-82330000I0J50000D01*
G01*
G37*
%TD*%
%TO.C,REF\u002A\u002A*%
G36*
G01*
X130980000Y-74710000D02*
X130980000Y-72610000D01*
G75*
G02*
X131030000Y-72560000I50000J0D01*
G01*
X133130000Y-72560000D01*
G75*
G02*
X133180000Y-72610000I0J-50000D01*
G01*
X133180000Y-74710000D01*
G75*
G02*
X133130000Y-74760000I-50000J0D01*
G01*
X131030000Y-74760000D01*
G75*
G02*
X130980000Y-74710000I0J50000D01*
G01*
G37*
%TD*%
%TO.C,REF\u002A\u002A*%
G36*
G01*
X130980000Y-72170000D02*
X130980000Y-70070000D01*
G75*
G02*
X131030000Y-70020000I50000J0D01*
G01*
X133130000Y-70020000D01*
G75*
G02*
X133180000Y-70070000I0J-50000D01*
G01*
X133180000Y-72170000D01*
G75*
G02*
X133130000Y-72220000I-50000J0D01*
G01*
X131030000Y-72220000D01*
G75*
G02*
X130980000Y-72170000I0J50000D01*
G01*
G37*
%TD*%
%TO.C,REF\u002A\u002A*%
G36*
G01*
X133520000Y-82330000D02*
X133520000Y-80230000D01*
G75*
G02*
X133570000Y-80180000I50000J0D01*
G01*
X135670000Y-80180000D01*
G75*
G02*
X135720000Y-80230000I0J-50000D01*
G01*
X135720000Y-82330000D01*
G75*
G02*
X135670000Y-82380000I-50000J0D01*
G01*
X133570000Y-82380000D01*
G75*
G02*
X133520000Y-82330000I0J50000D01*
G01*
G37*
%TD*%
%TO.C,REF\u002A\u002A*%
G36*
G01*
X133520000Y-74710000D02*
X133520000Y-72610000D01*
G75*
G02*
X133570000Y-72560000I50000J0D01*
G01*
X135670000Y-72560000D01*
G75*
G02*
X135720000Y-72610000I0J-50000D01*
G01*
X135720000Y-74710000D01*
G75*
G02*
X135670000Y-74760000I-50000J0D01*
G01*
X133570000Y-74760000D01*
G75*
G02*
X133520000Y-74710000I0J50000D01*
G01*
G37*
%TD*%
%TO.C,REF\u002A\u002A*%
G36*
G01*
X133520000Y-72170000D02*
X133520000Y-70070000D01*
G75*
G02*
X133570000Y-70020000I50000J0D01*
G01*
X135670000Y-70020000D01*
G75*
G02*
X135720000Y-70070000I0J-50000D01*
G01*
X135720000Y-72170000D01*
G75*
G02*
X135670000Y-72220000I-50000J0D01*
G01*
X133570000Y-72220000D01*
G75*
G02*
X133520000Y-72170000I0J50000D01*
G01*
G37*
%TD*%
%TO.C,REF\u002A\u002A*%
G36*
G01*
X138600000Y-77250000D02*
X138600000Y-75150000D01*
G75*
G02*
X138650000Y-75100000I50000J0D01*
G01*
X140750000Y-75100000D01*
G75*
G02*
X140800000Y-75150000I0J-50000D01*
G01*
X140800000Y-77250000D01*
G75*
G02*
X140750000Y-77300000I-50000J0D01*
G01*
X138650000Y-77300000D01*
G75*
G02*
X138600000Y-77250000I0J50000D01*
G01*
G37*
%TD*%
%TO.C,REF\u002A\u002A*%
G36*
G01*
X138600000Y-79790000D02*
X138600000Y-77690000D01*
G75*
G02*
X138650000Y-77640000I50000J0D01*
G01*
X140750000Y-77640000D01*
G75*
G02*
X140800000Y-77690000I0J-50000D01*
G01*
X140800000Y-79790000D01*
G75*
G02*
X140750000Y-79840000I-50000J0D01*
G01*
X138650000Y-79840000D01*
G75*
G02*
X138600000Y-79790000I0J50000D01*
G01*
G37*
%TD*%
%TO.C,REF\u002A\u002A*%
G36*
G01*
X136060000Y-77250000D02*
X136060000Y-75150000D01*
G75*
G02*
X136110000Y-75100000I50000J0D01*
G01*
X138210000Y-75100000D01*
G75*
G02*
X138260000Y-75150000I0J-50000D01*
G01*
X138260000Y-77250000D01*
G75*
G02*
X138210000Y-77300000I-50000J0D01*
G01*
X136110000Y-77300000D01*
G75*
G02*
X136060000Y-77250000I0J50000D01*
G01*
G37*
%TD*%
%TO.C,REF\u002A\u002A*%
G36*
G01*
X136060000Y-79790000D02*
X136060000Y-77690000D01*
G75*
G02*
X136110000Y-77640000I50000J0D01*
G01*
X138210000Y-77640000D01*
G75*
G02*
X138260000Y-77690000I0J-50000D01*
G01*
X138260000Y-79790000D01*
G75*
G02*
X138210000Y-79840000I-50000J0D01*
G01*
X136110000Y-79840000D01*
G75*
G02*
X136060000Y-79790000I0J50000D01*
G01*
G37*
%TD*%
%TO.C,REF\u002A\u002A*%
G36*
G01*
X136060000Y-82330000D02*
X136060000Y-80230000D01*
G75*
G02*
X136110000Y-80180000I50000J0D01*
G01*
X138210000Y-80180000D01*
G75*
G02*
X138260000Y-80230000I0J-50000D01*
G01*
X138260000Y-82330000D01*
G75*
G02*
X138210000Y-82380000I-50000J0D01*
G01*
X136110000Y-82380000D01*
G75*
G02*
X136060000Y-82330000I0J50000D01*
G01*
G37*
%TD*%
%TO.C,REF\u002A\u002A*%
G36*
G01*
X136060000Y-74710000D02*
X136060000Y-72610000D01*
G75*
G02*
X136110000Y-72560000I50000J0D01*
G01*
X138210000Y-72560000D01*
G75*
G02*
X138260000Y-72610000I0J-50000D01*
G01*
X138260000Y-74710000D01*
G75*
G02*
X138210000Y-74760000I-50000J0D01*
G01*
X136110000Y-74760000D01*
G75*
G02*
X136060000Y-74710000I0J50000D01*
G01*
G37*
%TD*%
%TO.C,REF\u002A\u002A*%
G36*
G01*
X136060000Y-72170000D02*
X136060000Y-70070000D01*
G75*
G02*
X136110000Y-70020000I50000J0D01*
G01*
X138210000Y-70020000D01*
G75*
G02*
X138260000Y-70070000I0J-50000D01*
G01*
X138260000Y-72170000D01*
G75*
G02*
X138210000Y-72220000I-50000J0D01*
G01*
X136110000Y-72220000D01*
G75*
G02*
X136060000Y-72170000I0J50000D01*
G01*
G37*
%TD*%
%TO.C,REF\u002A\u002A*%
G36*
G01*
X138600000Y-82330000D02*
X138600000Y-80230000D01*
G75*
G02*
X138650000Y-80180000I50000J0D01*
G01*
X140750000Y-80180000D01*
G75*
G02*
X140800000Y-80230000I0J-50000D01*
G01*
X140800000Y-82330000D01*
G75*
G02*
X140750000Y-82380000I-50000J0D01*
G01*
X138650000Y-82380000D01*
G75*
G02*
X138600000Y-82330000I0J50000D01*
G01*
G37*
%TD*%
%TO.C,REF\u002A\u002A*%
G36*
G01*
X138600000Y-74710000D02*
X138600000Y-72610000D01*
G75*
G02*
X138650000Y-72560000I50000J0D01*
G01*
X140750000Y-72560000D01*
G75*
G02*
X140800000Y-72610000I0J-50000D01*
G01*
X140800000Y-74710000D01*
G75*
G02*
X140750000Y-74760000I-50000J0D01*
G01*
X138650000Y-74760000D01*
G75*
G02*
X138600000Y-74710000I0J50000D01*
G01*
G37*
%TD*%
%TO.C,REF\u002A\u002A*%
G36*
G01*
X138600000Y-72170000D02*
X138600000Y-70070000D01*
G75*
G02*
X138650000Y-70020000I50000J0D01*
G01*
X140750000Y-70020000D01*
G75*
G02*
X140800000Y-70070000I0J-50000D01*
G01*
X140800000Y-72170000D01*
G75*
G02*
X140750000Y-72220000I-50000J0D01*
G01*
X138650000Y-72220000D01*
G75*
G02*
X138600000Y-72170000I0J50000D01*
G01*
G37*
%TD*%
%TO.C,REF\u002A\u002A*%
G36*
G01*
X141140000Y-77250000D02*
X141140000Y-75150000D01*
G75*
G02*
X141190000Y-75100000I50000J0D01*
G01*
X143290000Y-75100000D01*
G75*
G02*
X143340000Y-75150000I0J-50000D01*
G01*
X143340000Y-77250000D01*
G75*
G02*
X143290000Y-77300000I-50000J0D01*
G01*
X141190000Y-77300000D01*
G75*
G02*
X141140000Y-77250000I0J50000D01*
G01*
G37*
%TD*%
%TO.C,REF\u002A\u002A*%
G36*
G01*
X141140000Y-79790000D02*
X141140000Y-77690000D01*
G75*
G02*
X141190000Y-77640000I50000J0D01*
G01*
X143290000Y-77640000D01*
G75*
G02*
X143340000Y-77690000I0J-50000D01*
G01*
X143340000Y-79790000D01*
G75*
G02*
X143290000Y-79840000I-50000J0D01*
G01*
X141190000Y-79840000D01*
G75*
G02*
X141140000Y-79790000I0J50000D01*
G01*
G37*
%TD*%
%TO.C,REF\u002A\u002A*%
G36*
G01*
X141140000Y-82330000D02*
X141140000Y-80230000D01*
G75*
G02*
X141190000Y-80180000I50000J0D01*
G01*
X143290000Y-80180000D01*
G75*
G02*
X143340000Y-80230000I0J-50000D01*
G01*
X143340000Y-82330000D01*
G75*
G02*
X143290000Y-82380000I-50000J0D01*
G01*
X141190000Y-82380000D01*
G75*
G02*
X141140000Y-82330000I0J50000D01*
G01*
G37*
%TD*%
%TO.C,REF\u002A\u002A*%
G36*
G01*
X141140000Y-74710000D02*
X141140000Y-72610000D01*
G75*
G02*
X141190000Y-72560000I50000J0D01*
G01*
X143290000Y-72560000D01*
G75*
G02*
X143340000Y-72610000I0J-50000D01*
G01*
X143340000Y-74710000D01*
G75*
G02*
X143290000Y-74760000I-50000J0D01*
G01*
X141190000Y-74760000D01*
G75*
G02*
X141140000Y-74710000I0J50000D01*
G01*
G37*
%TD*%
%TO.C,REF\u002A\u002A*%
G36*
G01*
X141140000Y-72170000D02*
X141140000Y-70070000D01*
G75*
G02*
X141190000Y-70020000I50000J0D01*
G01*
X143290000Y-70020000D01*
G75*
G02*
X143340000Y-70070000I0J-50000D01*
G01*
X143340000Y-72170000D01*
G75*
G02*
X143290000Y-72220000I-50000J0D01*
G01*
X141190000Y-72220000D01*
G75*
G02*
X141140000Y-72170000I0J50000D01*
G01*
G37*
%TD*%
%TO.C,REF\u002A\u002A*%
G36*
G01*
X143680000Y-74710000D02*
X143680000Y-72610000D01*
G75*
G02*
X143730000Y-72560000I50000J0D01*
G01*
X145830000Y-72560000D01*
G75*
G02*
X145880000Y-72610000I0J-50000D01*
G01*
X145880000Y-74710000D01*
G75*
G02*
X145830000Y-74760000I-50000J0D01*
G01*
X143730000Y-74760000D01*
G75*
G02*
X143680000Y-74710000I0J50000D01*
G01*
G37*
%TD*%
%TO.C,REF\u002A\u002A*%
G36*
G01*
X143680000Y-72170000D02*
X143680000Y-70070000D01*
G75*
G02*
X143730000Y-70020000I50000J0D01*
G01*
X145830000Y-70020000D01*
G75*
G02*
X145880000Y-70070000I0J-50000D01*
G01*
X145880000Y-72170000D01*
G75*
G02*
X145830000Y-72220000I-50000J0D01*
G01*
X143730000Y-72220000D01*
G75*
G02*
X143680000Y-72170000I0J50000D01*
G01*
G37*
%TD*%
%TO.C,REF\u002A\u002A*%
G36*
G01*
X143680000Y-79790000D02*
X143680000Y-77690000D01*
G75*
G02*
X143730000Y-77640000I50000J0D01*
G01*
X145830000Y-77640000D01*
G75*
G02*
X145880000Y-77690000I0J-50000D01*
G01*
X145880000Y-79790000D01*
G75*
G02*
X145830000Y-79840000I-50000J0D01*
G01*
X143730000Y-79840000D01*
G75*
G02*
X143680000Y-79790000I0J50000D01*
G01*
G37*
%TD*%
%TO.C,REF\u002A\u002A*%
G36*
G01*
X143680000Y-77250000D02*
X143680000Y-75150000D01*
G75*
G02*
X143730000Y-75100000I50000J0D01*
G01*
X145830000Y-75100000D01*
G75*
G02*
X145880000Y-75150000I0J-50000D01*
G01*
X145880000Y-77250000D01*
G75*
G02*
X145830000Y-77300000I-50000J0D01*
G01*
X143730000Y-77300000D01*
G75*
G02*
X143680000Y-77250000I0J50000D01*
G01*
G37*
%TD*%
%TO.C,REF\u002A\u002A*%
G36*
G01*
X143680000Y-82330000D02*
X143680000Y-80230000D01*
G75*
G02*
X143730000Y-80180000I50000J0D01*
G01*
X145830000Y-80180000D01*
G75*
G02*
X145880000Y-80230000I0J-50000D01*
G01*
X145880000Y-82330000D01*
G75*
G02*
X145830000Y-82380000I-50000J0D01*
G01*
X143730000Y-82380000D01*
G75*
G02*
X143680000Y-82330000I0J50000D01*
G01*
G37*
%TD*%
%TO.C,J301*%
G36*
G01*
X105350000Y-108663888D02*
X105350000Y-111836112D01*
G75*
G02*
X105086112Y-112100000I-263888J0D01*
G01*
X103713888Y-112100000D01*
G75*
G02*
X103450000Y-111836112I0J263888D01*
G01*
X103450000Y-108663888D01*
G75*
G02*
X103713888Y-108400000I263888J0D01*
G01*
X105086112Y-108400000D01*
G75*
G02*
X105350000Y-108663888I0J-263888D01*
G01*
G37*
D17*
X100590000Y-110250000D03*
%TD*%
%TO.C,J801*%
G36*
G01*
X147026001Y-114057000D02*
X145326001Y-114057000D01*
G75*
G02*
X145276001Y-114007000I0J50000D01*
G01*
X145276001Y-112307000D01*
G75*
G02*
X145326001Y-112257000I50000J0D01*
G01*
X147026001Y-112257000D01*
G75*
G02*
X147076001Y-112307000I0J-50000D01*
G01*
X147076001Y-114007000D01*
G75*
G02*
X147026001Y-114057000I-50000J0D01*
G01*
G37*
D13*
X148716001Y-113157000D03*
X151256001Y-113157000D03*
%TD*%
%TO.C,J901*%
X137175000Y-113235000D03*
X134635000Y-113235000D03*
X132095000Y-113235000D03*
G36*
G01*
X130405000Y-114135000D02*
X128705000Y-114135000D01*
G75*
G02*
X128655000Y-114085000I0J50000D01*
G01*
X128655000Y-112385000D01*
G75*
G02*
X128705000Y-112335000I50000J0D01*
G01*
X130405000Y-112335000D01*
G75*
G02*
X130455000Y-112385000I0J-50000D01*
G01*
X130455000Y-114085000D01*
G75*
G02*
X130405000Y-114135000I-50000J0D01*
G01*
G37*
%TD*%
M02*
