%TF.GenerationSoftware,KiCad,Pcbnew,(5.1.9-0-10_14)*%
%TF.CreationDate,2021-01-30T20:50:45+02:00*%
%TF.ProjectId,SH-ESP32,53482d45-5350-4333-922e-6b696361645f,0.3.0*%
%TF.SameCoordinates,Original*%
%TF.FileFunction,Legend,Top*%
%TF.FilePolarity,Positive*%
%FSLAX46Y46*%
G04 Gerber Fmt 4.6, Leading zero omitted, Abs format (unit mm)*
G04 Created by KiCad (PCBNEW (5.1.9-0-10_14)) date 2021-01-30 20:50:45*
%MOMM*%
%LPD*%
G01*
G04 APERTURE LIST*
%ADD10C,0.175000*%
%ADD11C,0.120000*%
%ADD12C,0.160000*%
%ADD13C,0.125000*%
%TA.AperFunction,Profile*%
%ADD14C,0.050000*%
%TD*%
%ADD15C,0.250000*%
%ADD16C,0.400000*%
%ADD17C,0.200000*%
%ADD18C,0.300000*%
%ADD19C,0.150000*%
G04 APERTURE END LIST*
D10*
X97025389Y-86229636D02*
X96954678Y-86253206D01*
X96883967Y-86323917D01*
X96836827Y-86418198D01*
X96836827Y-86512478D01*
X96860397Y-86583189D01*
X96931108Y-86701040D01*
X97001818Y-86771751D01*
X97119669Y-86842462D01*
X97190380Y-86866032D01*
X97284661Y-86866032D01*
X97378942Y-86818891D01*
X97426082Y-86771751D01*
X97473223Y-86677470D01*
X97473223Y-86630330D01*
X97308231Y-86465338D01*
X97213950Y-86559619D01*
X97732495Y-86465338D02*
X97237521Y-85970363D01*
X98015338Y-86182495D01*
X97520363Y-85687521D01*
X98251040Y-85946793D02*
X97756066Y-85451818D01*
X97873917Y-85333967D01*
X97968198Y-85286827D01*
X98062478Y-85286827D01*
X98133189Y-85310397D01*
X98251040Y-85381108D01*
X98321751Y-85451818D01*
X98392462Y-85569669D01*
X98416032Y-85640380D01*
X98416032Y-85734661D01*
X98368891Y-85828942D01*
X98251040Y-85946793D01*
X148825000Y-84458333D02*
X148791666Y-84525000D01*
X148791666Y-84625000D01*
X148825000Y-84725000D01*
X148891666Y-84791666D01*
X148958333Y-84825000D01*
X149091666Y-84858333D01*
X149191666Y-84858333D01*
X149325000Y-84825000D01*
X149391666Y-84791666D01*
X149458333Y-84725000D01*
X149491666Y-84625000D01*
X149491666Y-84558333D01*
X149458333Y-84458333D01*
X149425000Y-84425000D01*
X149191666Y-84425000D01*
X149191666Y-84558333D01*
X149491666Y-84125000D02*
X148791666Y-84125000D01*
X149491666Y-83725000D01*
X148791666Y-83725000D01*
X149491666Y-83391666D02*
X148791666Y-83391666D01*
X148791666Y-83225000D01*
X148825000Y-83125000D01*
X148891666Y-83058333D01*
X148958333Y-83025000D01*
X149091666Y-82991666D01*
X149191666Y-82991666D01*
X149325000Y-83025000D01*
X149391666Y-83058333D01*
X149458333Y-83125000D01*
X149491666Y-83225000D01*
X149491666Y-83391666D01*
X148741666Y-69458333D02*
X148741666Y-69025000D01*
X149008333Y-69258333D01*
X149008333Y-69158333D01*
X149041666Y-69091666D01*
X149075000Y-69058333D01*
X149141666Y-69025000D01*
X149308333Y-69025000D01*
X149375000Y-69058333D01*
X149408333Y-69091666D01*
X149441666Y-69158333D01*
X149441666Y-69358333D01*
X149408333Y-69425000D01*
X149375000Y-69458333D01*
X149375000Y-68725000D02*
X149408333Y-68691666D01*
X149441666Y-68725000D01*
X149408333Y-68758333D01*
X149375000Y-68725000D01*
X149441666Y-68725000D01*
X148741666Y-68458333D02*
X148741666Y-68025000D01*
X149008333Y-68258333D01*
X149008333Y-68158333D01*
X149041666Y-68091666D01*
X149075000Y-68058333D01*
X149141666Y-68025000D01*
X149308333Y-68025000D01*
X149375000Y-68058333D01*
X149408333Y-68091666D01*
X149441666Y-68158333D01*
X149441666Y-68358333D01*
X149408333Y-68425000D01*
X149375000Y-68458333D01*
X148741666Y-67825000D02*
X149441666Y-67591666D01*
X148741666Y-67358333D01*
X98216666Y-66341666D02*
X98650000Y-66341666D01*
X98416666Y-66608333D01*
X98516666Y-66608333D01*
X98583333Y-66641666D01*
X98616666Y-66675000D01*
X98650000Y-66741666D01*
X98650000Y-66908333D01*
X98616666Y-66975000D01*
X98583333Y-67008333D01*
X98516666Y-67041666D01*
X98316666Y-67041666D01*
X98250000Y-67008333D01*
X98216666Y-66975000D01*
X98950000Y-66975000D02*
X98983333Y-67008333D01*
X98950000Y-67041666D01*
X98916666Y-67008333D01*
X98950000Y-66975000D01*
X98950000Y-67041666D01*
X99216666Y-66341666D02*
X99650000Y-66341666D01*
X99416666Y-66608333D01*
X99516666Y-66608333D01*
X99583333Y-66641666D01*
X99616666Y-66675000D01*
X99650000Y-66741666D01*
X99650000Y-66908333D01*
X99616666Y-66975000D01*
X99583333Y-67008333D01*
X99516666Y-67041666D01*
X99316666Y-67041666D01*
X99250000Y-67008333D01*
X99216666Y-66975000D01*
X99850000Y-66341666D02*
X100083333Y-67041666D01*
X100316666Y-66341666D01*
D11*
X100316445Y-68583222D02*
G75*
G03*
X100316445Y-68583222I-1258223J0D01*
G01*
X100316445Y-83825000D02*
G75*
G03*
X100316445Y-83825000I-1258223J0D01*
G01*
X148575001Y-83825000D02*
G75*
G03*
X148575001Y-83825000I-1258223J0D01*
G01*
X148583223Y-68575000D02*
G75*
G03*
X148583223Y-68575000I-1258223J0D01*
G01*
D12*
X177711904Y-103766666D02*
X176911904Y-103766666D01*
X176911904Y-103461904D01*
X176950000Y-103385714D01*
X176988095Y-103347619D01*
X177064285Y-103309523D01*
X177178571Y-103309523D01*
X177254761Y-103347619D01*
X177292857Y-103385714D01*
X177330952Y-103461904D01*
X177330952Y-103766666D01*
X176911904Y-103042857D02*
X177711904Y-102852380D01*
X177140476Y-102700000D01*
X177711904Y-102547619D01*
X176911904Y-102357142D01*
X177711904Y-101595238D02*
X177330952Y-101861904D01*
X177711904Y-102052380D02*
X176911904Y-102052380D01*
X176911904Y-101747619D01*
X176950000Y-101671428D01*
X176988095Y-101633333D01*
X177064285Y-101595238D01*
X177178571Y-101595238D01*
X177254761Y-101633333D01*
X177292857Y-101671428D01*
X177330952Y-101747619D01*
X177330952Y-102052380D01*
X149740476Y-101900000D02*
X149664285Y-101861904D01*
X149550000Y-101861904D01*
X149435714Y-101900000D01*
X149359523Y-101976190D01*
X149321428Y-102052380D01*
X149283333Y-102204761D01*
X149283333Y-102319047D01*
X149321428Y-102471428D01*
X149359523Y-102547619D01*
X149435714Y-102623809D01*
X149550000Y-102661904D01*
X149626190Y-102661904D01*
X149740476Y-102623809D01*
X149778571Y-102585714D01*
X149778571Y-102319047D01*
X149626190Y-102319047D01*
X150121428Y-102661904D02*
X150121428Y-101861904D01*
X150578571Y-102661904D01*
X150578571Y-101861904D01*
X150959523Y-102661904D02*
X150959523Y-101861904D01*
X151150000Y-101861904D01*
X151264285Y-101900000D01*
X151340476Y-101976190D01*
X151378571Y-102052380D01*
X151416666Y-102204761D01*
X151416666Y-102319047D01*
X151378571Y-102471428D01*
X151340476Y-102547619D01*
X151264285Y-102623809D01*
X151150000Y-102661904D01*
X150959523Y-102661904D01*
X146709523Y-101861904D02*
X147204761Y-101861904D01*
X146938095Y-102166666D01*
X147052380Y-102166666D01*
X147128571Y-102204761D01*
X147166666Y-102242857D01*
X147204761Y-102319047D01*
X147204761Y-102509523D01*
X147166666Y-102585714D01*
X147128571Y-102623809D01*
X147052380Y-102661904D01*
X146823809Y-102661904D01*
X146747619Y-102623809D01*
X146709523Y-102585714D01*
X147433333Y-101861904D02*
X147700000Y-102661904D01*
X147966666Y-101861904D01*
X148157142Y-101861904D02*
X148652380Y-101861904D01*
X148385714Y-102166666D01*
X148500000Y-102166666D01*
X148576190Y-102204761D01*
X148614285Y-102242857D01*
X148652380Y-102319047D01*
X148652380Y-102509523D01*
X148614285Y-102585714D01*
X148576190Y-102623809D01*
X148500000Y-102661904D01*
X148271428Y-102661904D01*
X148195238Y-102623809D01*
X148157142Y-102585714D01*
X144371428Y-102661904D02*
X144371428Y-101861904D01*
X144561904Y-101861904D01*
X144676190Y-101900000D01*
X144752380Y-101976190D01*
X144790476Y-102052380D01*
X144828571Y-102204761D01*
X144828571Y-102319047D01*
X144790476Y-102471428D01*
X144752380Y-102547619D01*
X144676190Y-102623809D01*
X144561904Y-102661904D01*
X144371428Y-102661904D01*
X145704761Y-102738095D02*
X145628571Y-102700000D01*
X145552380Y-102623809D01*
X145438095Y-102509523D01*
X145361904Y-102471428D01*
X145285714Y-102471428D01*
X145323809Y-102661904D02*
X145247619Y-102623809D01*
X145171428Y-102547619D01*
X145133333Y-102395238D01*
X145133333Y-102128571D01*
X145171428Y-101976190D01*
X145247619Y-101900000D01*
X145323809Y-101861904D01*
X145476190Y-101861904D01*
X145552380Y-101900000D01*
X145628571Y-101976190D01*
X145666666Y-102128571D01*
X145666666Y-102395238D01*
X145628571Y-102547619D01*
X145552380Y-102623809D01*
X145476190Y-102661904D01*
X145323809Y-102661904D01*
D13*
X99150000Y-106630952D02*
X99126190Y-106678571D01*
X99126190Y-106750000D01*
X99150000Y-106821428D01*
X99197619Y-106869047D01*
X99245238Y-106892857D01*
X99340476Y-106916666D01*
X99411904Y-106916666D01*
X99507142Y-106892857D01*
X99554761Y-106869047D01*
X99602380Y-106821428D01*
X99626190Y-106750000D01*
X99626190Y-106702380D01*
X99602380Y-106630952D01*
X99578571Y-106607142D01*
X99411904Y-106607142D01*
X99411904Y-106702380D01*
X99626190Y-106392857D02*
X99126190Y-106392857D01*
X99626190Y-106107142D01*
X99126190Y-106107142D01*
X99626190Y-105869047D02*
X99126190Y-105869047D01*
X99126190Y-105750000D01*
X99150000Y-105678571D01*
X99197619Y-105630952D01*
X99245238Y-105607142D01*
X99340476Y-105583333D01*
X99411904Y-105583333D01*
X99507142Y-105607142D01*
X99554761Y-105630952D01*
X99602380Y-105678571D01*
X99626190Y-105750000D01*
X99626190Y-105869047D01*
D12*
X122516666Y-66816666D02*
X122516666Y-66116666D01*
X122816666Y-66183333D02*
X122850000Y-66150000D01*
X122916666Y-66116666D01*
X123083333Y-66116666D01*
X123150000Y-66150000D01*
X123183333Y-66183333D01*
X123216666Y-66250000D01*
X123216666Y-66316666D01*
X123183333Y-66416666D01*
X122783333Y-66816666D01*
X123216666Y-66816666D01*
X123916666Y-66750000D02*
X123883333Y-66783333D01*
X123783333Y-66816666D01*
X123716666Y-66816666D01*
X123616666Y-66783333D01*
X123550000Y-66716666D01*
X123516666Y-66650000D01*
X123483333Y-66516666D01*
X123483333Y-66416666D01*
X123516666Y-66283333D01*
X123550000Y-66216666D01*
X123616666Y-66150000D01*
X123716666Y-66116666D01*
X123783333Y-66116666D01*
X123883333Y-66150000D01*
X123916666Y-66183333D01*
D14*
X178000000Y-90300000D02*
X178000000Y-106500000D01*
X172000000Y-90300000D02*
X172000000Y-63020000D01*
X178000000Y-90300000D02*
X172000000Y-90300000D01*
D12*
X112454095Y-108375714D02*
X112416000Y-108413809D01*
X112301714Y-108451904D01*
X112225523Y-108451904D01*
X112111238Y-108413809D01*
X112035047Y-108337619D01*
X111996952Y-108261428D01*
X111958857Y-108109047D01*
X111958857Y-107994761D01*
X111996952Y-107842380D01*
X112035047Y-107766190D01*
X112111238Y-107690000D01*
X112225523Y-107651904D01*
X112301714Y-107651904D01*
X112416000Y-107690000D01*
X112454095Y-107728095D01*
X112758857Y-108223333D02*
X113139809Y-108223333D01*
X112682666Y-108451904D02*
X112949333Y-107651904D01*
X113216000Y-108451904D01*
X113482666Y-108451904D02*
X113482666Y-107651904D01*
X113939809Y-108451904D01*
X113939809Y-107651904D01*
X114701714Y-108451904D02*
X114320761Y-108451904D01*
X114320761Y-107651904D01*
X116035047Y-108375714D02*
X115996952Y-108413809D01*
X115882666Y-108451904D01*
X115806476Y-108451904D01*
X115692190Y-108413809D01*
X115616000Y-108337619D01*
X115577904Y-108261428D01*
X115539809Y-108109047D01*
X115539809Y-107994761D01*
X115577904Y-107842380D01*
X115616000Y-107766190D01*
X115692190Y-107690000D01*
X115806476Y-107651904D01*
X115882666Y-107651904D01*
X115996952Y-107690000D01*
X116035047Y-107728095D01*
X116339809Y-108223333D02*
X116720761Y-108223333D01*
X116263619Y-108451904D02*
X116530285Y-107651904D01*
X116796952Y-108451904D01*
X117063619Y-108451904D02*
X117063619Y-107651904D01*
X117520761Y-108451904D01*
X117520761Y-107651904D01*
X117901714Y-108451904D02*
X117901714Y-107651904D01*
X117901714Y-108032857D02*
X118358857Y-108032857D01*
X118358857Y-108451904D02*
X118358857Y-107651904D01*
X119768380Y-107690000D02*
X119692190Y-107651904D01*
X119577904Y-107651904D01*
X119463619Y-107690000D01*
X119387428Y-107766190D01*
X119349333Y-107842380D01*
X119311238Y-107994761D01*
X119311238Y-108109047D01*
X119349333Y-108261428D01*
X119387428Y-108337619D01*
X119463619Y-108413809D01*
X119577904Y-108451904D01*
X119654095Y-108451904D01*
X119768380Y-108413809D01*
X119806476Y-108375714D01*
X119806476Y-108109047D01*
X119654095Y-108109047D01*
X120149333Y-108451904D02*
X120149333Y-107651904D01*
X120606476Y-108451904D01*
X120606476Y-107651904D01*
X120987428Y-108451904D02*
X120987428Y-107651904D01*
X121177904Y-107651904D01*
X121292190Y-107690000D01*
X121368380Y-107766190D01*
X121406476Y-107842380D01*
X121444571Y-107994761D01*
X121444571Y-108109047D01*
X121406476Y-108261428D01*
X121368380Y-108337619D01*
X121292190Y-108413809D01*
X121177904Y-108451904D01*
X120987428Y-108451904D01*
X122816000Y-108451904D02*
X122358857Y-108451904D01*
X122587428Y-108451904D02*
X122587428Y-107651904D01*
X122511238Y-107766190D01*
X122435047Y-107842380D01*
X122358857Y-107880476D01*
X123120761Y-107728095D02*
X123158857Y-107690000D01*
X123235047Y-107651904D01*
X123425523Y-107651904D01*
X123501714Y-107690000D01*
X123539809Y-107728095D01*
X123577904Y-107804285D01*
X123577904Y-107880476D01*
X123539809Y-107994761D01*
X123082666Y-108451904D01*
X123577904Y-108451904D01*
X123806476Y-107651904D02*
X124073142Y-108451904D01*
X124339809Y-107651904D01*
X106729047Y-109161428D02*
X107490952Y-109161428D01*
X107110000Y-109542380D02*
X107110000Y-108780476D01*
D11*
X108114988Y-109190000D02*
G75*
G03*
X108114988Y-109190000I-1004988J0D01*
G01*
X97484988Y-109030000D02*
G75*
G03*
X97484988Y-109030000I-1004988J0D01*
G01*
D12*
X96079047Y-108991428D02*
X96840952Y-108991428D01*
D11*
X130750000Y-64750000D02*
X120750000Y-64750000D01*
X130750000Y-67000000D02*
X130750000Y-64750000D01*
X120750000Y-67000000D02*
X130750000Y-67000000D01*
X120750000Y-64750000D02*
X120750000Y-67000000D01*
X131000000Y-64500000D02*
X131000000Y-63000000D01*
X146250000Y-64500000D02*
X131000000Y-64500000D01*
X146250000Y-63000000D02*
X146250000Y-64500000D01*
X131000000Y-63000000D02*
X146250000Y-63000000D01*
X169000000Y-62750000D02*
X151250000Y-62750000D01*
X151250000Y-62750000D02*
X151250000Y-66750000D01*
X169000000Y-57500000D02*
X151250000Y-57500000D01*
X169000000Y-62500000D02*
X169000000Y-57500000D01*
X151250000Y-62500000D02*
X169000000Y-62500000D01*
X151250000Y-57500000D02*
X151250000Y-62500000D01*
X146250000Y-60000000D02*
X131000000Y-60000000D01*
X146250000Y-57500000D02*
X146250000Y-60000000D01*
X131000000Y-57500000D02*
X146250000Y-57500000D01*
X131000000Y-60000000D02*
X131000000Y-57500000D01*
X120750000Y-62500000D02*
X120750000Y-60000000D01*
X130750000Y-62500000D02*
X120750000Y-62500000D01*
X130750000Y-60000000D02*
X130750000Y-62500000D01*
X120750000Y-60000000D02*
X130750000Y-60000000D01*
D12*
X167361904Y-90701619D02*
X167361904Y-90206380D01*
X167666666Y-90473047D01*
X167666666Y-90358761D01*
X167704761Y-90282571D01*
X167742857Y-90244476D01*
X167819047Y-90206380D01*
X168009523Y-90206380D01*
X168085714Y-90244476D01*
X168123809Y-90282571D01*
X168161904Y-90358761D01*
X168161904Y-90587333D01*
X168123809Y-90663523D01*
X168085714Y-90701619D01*
X165661904Y-90156380D02*
X165661904Y-90613523D01*
X165661904Y-90384952D02*
X164861904Y-90384952D01*
X164976190Y-90461142D01*
X165052380Y-90537333D01*
X165090476Y-90613523D01*
X161361904Y-91413523D02*
X161361904Y-90918285D01*
X161666666Y-91184952D01*
X161666666Y-91070666D01*
X161704761Y-90994476D01*
X161742857Y-90956380D01*
X161819047Y-90918285D01*
X162009523Y-90918285D01*
X162085714Y-90956380D01*
X162123809Y-90994476D01*
X162161904Y-91070666D01*
X162161904Y-91299238D01*
X162123809Y-91375428D01*
X162085714Y-91413523D01*
X161628571Y-90232571D02*
X162161904Y-90232571D01*
X161323809Y-90423047D02*
X161895238Y-90613523D01*
X161895238Y-90118285D01*
X159461904Y-91413523D02*
X159461904Y-90918285D01*
X159766666Y-91184952D01*
X159766666Y-91070666D01*
X159804761Y-90994476D01*
X159842857Y-90956380D01*
X159919047Y-90918285D01*
X160109523Y-90918285D01*
X160185714Y-90956380D01*
X160223809Y-90994476D01*
X160261904Y-91070666D01*
X160261904Y-91299238D01*
X160223809Y-91375428D01*
X160185714Y-91413523D01*
X159538095Y-90613523D02*
X159500000Y-90575428D01*
X159461904Y-90499238D01*
X159461904Y-90308761D01*
X159500000Y-90232571D01*
X159538095Y-90194476D01*
X159614285Y-90156380D01*
X159690476Y-90156380D01*
X159804761Y-90194476D01*
X160261904Y-90651619D01*
X160261904Y-90156380D01*
X158261904Y-90918285D02*
X158261904Y-91375428D01*
X158261904Y-91146857D02*
X157461904Y-91146857D01*
X157576190Y-91223047D01*
X157652380Y-91299238D01*
X157690476Y-91375428D01*
X157461904Y-90651619D02*
X157461904Y-90118285D01*
X158261904Y-90461142D01*
X156661904Y-90918285D02*
X156661904Y-91375428D01*
X156661904Y-91146857D02*
X155861904Y-91146857D01*
X155976190Y-91223047D01*
X156052380Y-91299238D01*
X156090476Y-91375428D01*
X155861904Y-90232571D02*
X155861904Y-90384952D01*
X155900000Y-90461142D01*
X155938095Y-90499238D01*
X156052380Y-90575428D01*
X156204761Y-90613523D01*
X156509523Y-90613523D01*
X156585714Y-90575428D01*
X156623809Y-90537333D01*
X156661904Y-90461142D01*
X156661904Y-90308761D01*
X156623809Y-90232571D01*
X156585714Y-90194476D01*
X156509523Y-90156380D01*
X156319047Y-90156380D01*
X156242857Y-90194476D01*
X156204761Y-90232571D01*
X156166666Y-90308761D01*
X156166666Y-90461142D01*
X156204761Y-90537333D01*
X156242857Y-90575428D01*
X156319047Y-90613523D01*
X132261904Y-63250000D02*
X132166666Y-63202380D01*
X132023809Y-63202380D01*
X131880952Y-63250000D01*
X131785714Y-63345238D01*
X131738095Y-63440476D01*
X131690476Y-63630952D01*
X131690476Y-63773809D01*
X131738095Y-63964285D01*
X131785714Y-64059523D01*
X131880952Y-64154761D01*
X132023809Y-64202380D01*
X132119047Y-64202380D01*
X132261904Y-64154761D01*
X132309523Y-64107142D01*
X132309523Y-63773809D01*
X132119047Y-63773809D01*
X155011904Y-63000000D02*
X154916666Y-62952380D01*
X154773809Y-62952380D01*
X154630952Y-63000000D01*
X154535714Y-63095238D01*
X154488095Y-63190476D01*
X154440476Y-63380952D01*
X154440476Y-63523809D01*
X154488095Y-63714285D01*
X154535714Y-63809523D01*
X154630952Y-63904761D01*
X154773809Y-63952380D01*
X154869047Y-63952380D01*
X155011904Y-63904761D01*
X155059523Y-63857142D01*
X155059523Y-63523809D01*
X154869047Y-63523809D01*
X152119047Y-63321428D02*
X152880952Y-63321428D01*
X152500000Y-63702380D02*
X152500000Y-62940476D01*
X144369047Y-63821428D02*
X145130952Y-63821428D01*
X144750000Y-64202380D02*
X144750000Y-63440476D01*
X124119047Y-63821428D02*
X124880952Y-63821428D01*
X124500000Y-64202380D02*
X124500000Y-63440476D01*
X124119047Y-65821428D02*
X124880952Y-65821428D01*
X124500000Y-66202380D02*
X124500000Y-65440476D01*
X119511904Y-65250000D02*
X119416666Y-65202380D01*
X119273809Y-65202380D01*
X119130952Y-65250000D01*
X119035714Y-65345238D01*
X118988095Y-65440476D01*
X118940476Y-65630952D01*
X118940476Y-65773809D01*
X118988095Y-65964285D01*
X119035714Y-66059523D01*
X119130952Y-66154761D01*
X119273809Y-66202380D01*
X119369047Y-66202380D01*
X119511904Y-66154761D01*
X119559523Y-66107142D01*
X119559523Y-65773809D01*
X119369047Y-65773809D01*
X119511904Y-63250000D02*
X119416666Y-63202380D01*
X119273809Y-63202380D01*
X119130952Y-63250000D01*
X119035714Y-63345238D01*
X118988095Y-63440476D01*
X118940476Y-63630952D01*
X118940476Y-63773809D01*
X118988095Y-63964285D01*
X119035714Y-64059523D01*
X119130952Y-64154761D01*
X119273809Y-64202380D01*
X119369047Y-64202380D01*
X119511904Y-64154761D01*
X119559523Y-64107142D01*
X119559523Y-63773809D01*
X119369047Y-63773809D01*
X122011904Y-65250000D02*
X121916666Y-65202380D01*
X121773809Y-65202380D01*
X121630952Y-65250000D01*
X121535714Y-65345238D01*
X121488095Y-65440476D01*
X121440476Y-65630952D01*
X121440476Y-65773809D01*
X121488095Y-65964285D01*
X121535714Y-66059523D01*
X121630952Y-66154761D01*
X121773809Y-66202380D01*
X121869047Y-66202380D01*
X122011904Y-66154761D01*
X122059523Y-66107142D01*
X122059523Y-65773809D01*
X121869047Y-65773809D01*
X122011904Y-63250000D02*
X121916666Y-63202380D01*
X121773809Y-63202380D01*
X121630952Y-63250000D01*
X121535714Y-63345238D01*
X121488095Y-63440476D01*
X121440476Y-63630952D01*
X121440476Y-63773809D01*
X121488095Y-63964285D01*
X121535714Y-64059523D01*
X121630952Y-64154761D01*
X121773809Y-64202380D01*
X121869047Y-64202380D01*
X122011904Y-64154761D01*
X122059523Y-64107142D01*
X122059523Y-63773809D01*
X121869047Y-63773809D01*
X157811904Y-64250000D02*
X157716666Y-64202380D01*
X157573809Y-64202380D01*
X157430952Y-64250000D01*
X157335714Y-64345238D01*
X157288095Y-64440476D01*
X157240476Y-64630952D01*
X157240476Y-64773809D01*
X157288095Y-64964285D01*
X157335714Y-65059523D01*
X157430952Y-65154761D01*
X157573809Y-65202380D01*
X157669047Y-65202380D01*
X157811904Y-65154761D01*
X157859523Y-65107142D01*
X157859523Y-64773809D01*
X157669047Y-64773809D01*
X152761904Y-64100000D02*
X152666666Y-64052380D01*
X152523809Y-64052380D01*
X152380952Y-64100000D01*
X152285714Y-64195238D01*
X152238095Y-64290476D01*
X152190476Y-64480952D01*
X152190476Y-64623809D01*
X152238095Y-64814285D01*
X152285714Y-64909523D01*
X152380952Y-65004761D01*
X152523809Y-65052380D01*
X152619047Y-65052380D01*
X152761904Y-65004761D01*
X152809523Y-64957142D01*
X152809523Y-64623809D01*
X152619047Y-64623809D01*
X145011904Y-65250000D02*
X144916666Y-65202380D01*
X144773809Y-65202380D01*
X144630952Y-65250000D01*
X144535714Y-65345238D01*
X144488095Y-65440476D01*
X144440476Y-65630952D01*
X144440476Y-65773809D01*
X144488095Y-65964285D01*
X144535714Y-66059523D01*
X144630952Y-66154761D01*
X144773809Y-66202380D01*
X144869047Y-66202380D01*
X145011904Y-66154761D01*
X145059523Y-66107142D01*
X145059523Y-65773809D01*
X144869047Y-65773809D01*
X147166666Y-65202380D02*
X147785714Y-65202380D01*
X147452380Y-65583333D01*
X147595238Y-65583333D01*
X147690476Y-65630952D01*
X147738095Y-65678571D01*
X147785714Y-65773809D01*
X147785714Y-66011904D01*
X147738095Y-66107142D01*
X147690476Y-66154761D01*
X147595238Y-66202380D01*
X147309523Y-66202380D01*
X147214285Y-66154761D01*
X147166666Y-66107142D01*
X150035714Y-66202380D02*
X149464285Y-66202380D01*
X149750000Y-66202380D02*
X149750000Y-65202380D01*
X149654761Y-65345238D01*
X149559523Y-65440476D01*
X149464285Y-65488095D01*
X154802380Y-64202380D02*
X154897619Y-64202380D01*
X154992857Y-64250000D01*
X155040476Y-64297619D01*
X155088095Y-64392857D01*
X155135714Y-64583333D01*
X155135714Y-64821428D01*
X155088095Y-65011904D01*
X155040476Y-65107142D01*
X154992857Y-65154761D01*
X154897619Y-65202380D01*
X154802380Y-65202380D01*
X154707142Y-65154761D01*
X154659523Y-65107142D01*
X154611904Y-65011904D01*
X154564285Y-64821428D01*
X154564285Y-64583333D01*
X154611904Y-64392857D01*
X154659523Y-64297619D01*
X154707142Y-64250000D01*
X154802380Y-64202380D01*
D14*
X169500000Y-115000000D02*
G75*
G02*
X178000000Y-106500000I8500000J0D01*
G01*
X89000000Y-106500000D02*
G75*
G02*
X97500000Y-115000000I0J-8500000D01*
G01*
X172000092Y-63020889D02*
G75*
G02*
X169500000Y-57000000I5999908J6020889D01*
G01*
X97500000Y-57000000D02*
G75*
G02*
X89000000Y-65500000I-8500000J0D01*
G01*
D15*
X105529761Y-98223809D02*
X105577380Y-98080952D01*
X105577380Y-97842857D01*
X105529761Y-97747619D01*
X105482142Y-97700000D01*
X105386904Y-97652380D01*
X105291666Y-97652380D01*
X105196428Y-97700000D01*
X105148809Y-97747619D01*
X105101190Y-97842857D01*
X105053571Y-98033333D01*
X105005952Y-98128571D01*
X104958333Y-98176190D01*
X104863095Y-98223809D01*
X104767857Y-98223809D01*
X104672619Y-98176190D01*
X104625000Y-98128571D01*
X104577380Y-98033333D01*
X104577380Y-97795238D01*
X104625000Y-97652380D01*
X105577380Y-96795238D02*
X105053571Y-96795238D01*
X104958333Y-96842857D01*
X104910714Y-96938095D01*
X104910714Y-97128571D01*
X104958333Y-97223809D01*
X105529761Y-96795238D02*
X105577380Y-96890476D01*
X105577380Y-97128571D01*
X105529761Y-97223809D01*
X105434523Y-97271428D01*
X105339285Y-97271428D01*
X105244047Y-97223809D01*
X105196428Y-97128571D01*
X105196428Y-96890476D01*
X105148809Y-96795238D01*
X105577380Y-96319047D02*
X104910714Y-96319047D01*
X104577380Y-96319047D02*
X104625000Y-96366666D01*
X104672619Y-96319047D01*
X104625000Y-96271428D01*
X104577380Y-96319047D01*
X104672619Y-96319047D01*
X105577380Y-95700000D02*
X105529761Y-95795238D01*
X105434523Y-95842857D01*
X104577380Y-95842857D01*
X105577380Y-95176190D02*
X105529761Y-95271428D01*
X105482142Y-95319047D01*
X105386904Y-95366666D01*
X105101190Y-95366666D01*
X105005952Y-95319047D01*
X104958333Y-95271428D01*
X104910714Y-95176190D01*
X104910714Y-95033333D01*
X104958333Y-94938095D01*
X105005952Y-94890476D01*
X105101190Y-94842857D01*
X105386904Y-94842857D01*
X105482142Y-94890476D01*
X105529761Y-94938095D01*
X105577380Y-95033333D01*
X105577380Y-95176190D01*
X105577380Y-94414285D02*
X104910714Y-94414285D01*
X105101190Y-94414285D02*
X105005952Y-94366666D01*
X104958333Y-94319047D01*
X104910714Y-94223809D01*
X104910714Y-94128571D01*
X105577380Y-93033333D02*
X104577380Y-93033333D01*
X105053571Y-93033333D02*
X105053571Y-92461904D01*
X105577380Y-92461904D02*
X104577380Y-92461904D01*
X105577380Y-91557142D02*
X105053571Y-91557142D01*
X104958333Y-91604761D01*
X104910714Y-91700000D01*
X104910714Y-91890476D01*
X104958333Y-91985714D01*
X105529761Y-91557142D02*
X105577380Y-91652380D01*
X105577380Y-91890476D01*
X105529761Y-91985714D01*
X105434523Y-92033333D01*
X105339285Y-92033333D01*
X105244047Y-91985714D01*
X105196428Y-91890476D01*
X105196428Y-91652380D01*
X105148809Y-91557142D01*
X104910714Y-91223809D02*
X104910714Y-90842857D01*
X104577380Y-91080952D02*
X105434523Y-91080952D01*
X105529761Y-91033333D01*
X105577380Y-90938095D01*
X105577380Y-90842857D01*
X104910714Y-89842857D02*
X105577380Y-89652380D01*
X105101190Y-89461904D01*
X105577380Y-89271428D01*
X104910714Y-89080952D01*
X105577380Y-88700000D02*
X104910714Y-88700000D01*
X104577380Y-88700000D02*
X104625000Y-88747619D01*
X104672619Y-88700000D01*
X104625000Y-88652380D01*
X104577380Y-88700000D01*
X104672619Y-88700000D01*
X104910714Y-88366666D02*
X104910714Y-87985714D01*
X104577380Y-88223809D02*
X105434523Y-88223809D01*
X105529761Y-88176190D01*
X105577380Y-88080952D01*
X105577380Y-87985714D01*
X105577380Y-87652380D02*
X104577380Y-87652380D01*
X105577380Y-87223809D02*
X105053571Y-87223809D01*
X104958333Y-87271428D01*
X104910714Y-87366666D01*
X104910714Y-87509523D01*
X104958333Y-87604761D01*
X105005952Y-87652380D01*
X106803571Y-97628571D02*
X106803571Y-97295238D01*
X107327380Y-97152380D02*
X107327380Y-97628571D01*
X106327380Y-97628571D01*
X106327380Y-97152380D01*
X107279761Y-96771428D02*
X107327380Y-96628571D01*
X107327380Y-96390476D01*
X107279761Y-96295238D01*
X107232142Y-96247619D01*
X107136904Y-96200000D01*
X107041666Y-96200000D01*
X106946428Y-96247619D01*
X106898809Y-96295238D01*
X106851190Y-96390476D01*
X106803571Y-96580952D01*
X106755952Y-96676190D01*
X106708333Y-96723809D01*
X106613095Y-96771428D01*
X106517857Y-96771428D01*
X106422619Y-96723809D01*
X106375000Y-96676190D01*
X106327380Y-96580952D01*
X106327380Y-96342857D01*
X106375000Y-96200000D01*
X107327380Y-95771428D02*
X106327380Y-95771428D01*
X106327380Y-95390476D01*
X106375000Y-95295238D01*
X106422619Y-95247619D01*
X106517857Y-95200000D01*
X106660714Y-95200000D01*
X106755952Y-95247619D01*
X106803571Y-95295238D01*
X106851190Y-95390476D01*
X106851190Y-95771428D01*
X106327380Y-94866666D02*
X106327380Y-94247619D01*
X106708333Y-94580952D01*
X106708333Y-94438095D01*
X106755952Y-94342857D01*
X106803571Y-94295238D01*
X106898809Y-94247619D01*
X107136904Y-94247619D01*
X107232142Y-94295238D01*
X107279761Y-94342857D01*
X107327380Y-94438095D01*
X107327380Y-94723809D01*
X107279761Y-94819047D01*
X107232142Y-94866666D01*
X106422619Y-93866666D02*
X106375000Y-93819047D01*
X106327380Y-93723809D01*
X106327380Y-93485714D01*
X106375000Y-93390476D01*
X106422619Y-93342857D01*
X106517857Y-93295238D01*
X106613095Y-93295238D01*
X106755952Y-93342857D01*
X107327380Y-93914285D01*
X107327380Y-93295238D01*
X107327380Y-91533333D02*
X106851190Y-91866666D01*
X107327380Y-92104761D02*
X106327380Y-92104761D01*
X106327380Y-91723809D01*
X106375000Y-91628571D01*
X106422619Y-91580952D01*
X106517857Y-91533333D01*
X106660714Y-91533333D01*
X106755952Y-91580952D01*
X106803571Y-91628571D01*
X106851190Y-91723809D01*
X106851190Y-92104761D01*
X106327380Y-90914285D02*
X106327380Y-90819047D01*
X106375000Y-90723809D01*
X106422619Y-90676190D01*
X106517857Y-90628571D01*
X106708333Y-90580952D01*
X106946428Y-90580952D01*
X107136904Y-90628571D01*
X107232142Y-90676190D01*
X107279761Y-90723809D01*
X107327380Y-90819047D01*
X107327380Y-90914285D01*
X107279761Y-91009523D01*
X107232142Y-91057142D01*
X107136904Y-91104761D01*
X106946428Y-91152380D01*
X106708333Y-91152380D01*
X106517857Y-91104761D01*
X106422619Y-91057142D01*
X106375000Y-91009523D01*
X106327380Y-90914285D01*
X107232142Y-90152380D02*
X107279761Y-90104761D01*
X107327380Y-90152380D01*
X107279761Y-90200000D01*
X107232142Y-90152380D01*
X107327380Y-90152380D01*
X106327380Y-89771428D02*
X106327380Y-89152380D01*
X106708333Y-89485714D01*
X106708333Y-89342857D01*
X106755952Y-89247619D01*
X106803571Y-89200000D01*
X106898809Y-89152380D01*
X107136904Y-89152380D01*
X107232142Y-89200000D01*
X107279761Y-89247619D01*
X107327380Y-89342857D01*
X107327380Y-89628571D01*
X107279761Y-89723809D01*
X107232142Y-89771428D01*
X107232142Y-88723809D02*
X107279761Y-88676190D01*
X107327380Y-88723809D01*
X107279761Y-88771428D01*
X107232142Y-88723809D01*
X107327380Y-88723809D01*
X106327380Y-88057142D02*
X106327380Y-87961904D01*
X106375000Y-87866666D01*
X106422619Y-87819047D01*
X106517857Y-87771428D01*
X106708333Y-87723809D01*
X106946428Y-87723809D01*
X107136904Y-87771428D01*
X107232142Y-87819047D01*
X107279761Y-87866666D01*
X107327380Y-87961904D01*
X107327380Y-88057142D01*
X107279761Y-88152380D01*
X107232142Y-88200000D01*
X107136904Y-88247619D01*
X106946428Y-88295238D01*
X106708333Y-88295238D01*
X106517857Y-88247619D01*
X106422619Y-88200000D01*
X106375000Y-88152380D01*
X106327380Y-88057142D01*
D13*
X105619047Y-103400000D02*
X105571428Y-103376190D01*
X105500000Y-103376190D01*
X105428571Y-103400000D01*
X105380952Y-103447619D01*
X105357142Y-103495238D01*
X105333333Y-103590476D01*
X105333333Y-103661904D01*
X105357142Y-103757142D01*
X105380952Y-103804761D01*
X105428571Y-103852380D01*
X105500000Y-103876190D01*
X105547619Y-103876190D01*
X105619047Y-103852380D01*
X105642857Y-103828571D01*
X105642857Y-103661904D01*
X105547619Y-103661904D01*
X105857142Y-103876190D02*
X105857142Y-103376190D01*
X106142857Y-103876190D01*
X106142857Y-103376190D01*
X106380952Y-103876190D02*
X106380952Y-103376190D01*
X106500000Y-103376190D01*
X106571428Y-103400000D01*
X106619047Y-103447619D01*
X106642857Y-103495238D01*
X106666666Y-103590476D01*
X106666666Y-103661904D01*
X106642857Y-103757142D01*
X106619047Y-103804761D01*
X106571428Y-103852380D01*
X106500000Y-103876190D01*
X106380952Y-103876190D01*
X105133333Y-100826190D02*
X105300000Y-101326190D01*
X105466666Y-100826190D01*
X105871428Y-101326190D02*
X105633333Y-101326190D01*
X105633333Y-100826190D01*
X106038095Y-101326190D02*
X106038095Y-100992857D01*
X106038095Y-100826190D02*
X106014285Y-100850000D01*
X106038095Y-100873809D01*
X106061904Y-100850000D01*
X106038095Y-100826190D01*
X106038095Y-100873809D01*
X106276190Y-100992857D02*
X106276190Y-101326190D01*
X106276190Y-101040476D02*
X106300000Y-101016666D01*
X106347619Y-100992857D01*
X106419047Y-100992857D01*
X106466666Y-101016666D01*
X106490476Y-101064285D01*
X106490476Y-101326190D01*
X106728571Y-101326190D02*
X106728571Y-100826190D01*
X106776190Y-101135714D02*
X106919047Y-101326190D01*
X106919047Y-100992857D02*
X106728571Y-101183333D01*
D12*
X106833333Y-99700000D02*
X107366666Y-99700000D01*
X107100000Y-99966666D02*
X107100000Y-99433333D01*
X104604333Y-99668000D02*
X105137666Y-99668000D01*
X104871000Y-99934666D02*
X104871000Y-99401333D01*
D16*
X104678500Y-103000000D02*
X107300000Y-103000000D01*
X104678500Y-100483500D02*
X107300000Y-100483500D01*
D12*
X90190476Y-87950000D02*
X90114285Y-87911904D01*
X90000000Y-87911904D01*
X89885714Y-87950000D01*
X89809523Y-88026190D01*
X89771428Y-88102380D01*
X89733333Y-88254761D01*
X89733333Y-88369047D01*
X89771428Y-88521428D01*
X89809523Y-88597619D01*
X89885714Y-88673809D01*
X90000000Y-88711904D01*
X90076190Y-88711904D01*
X90190476Y-88673809D01*
X90228571Y-88635714D01*
X90228571Y-88369047D01*
X90076190Y-88369047D01*
X90571428Y-88711904D02*
X90571428Y-87911904D01*
X91028571Y-88711904D01*
X91028571Y-87911904D01*
X91409523Y-88711904D02*
X91409523Y-87911904D01*
X91600000Y-87911904D01*
X91714285Y-87950000D01*
X91790476Y-88026190D01*
X91828571Y-88102380D01*
X91866666Y-88254761D01*
X91866666Y-88369047D01*
X91828571Y-88521428D01*
X91790476Y-88597619D01*
X91714285Y-88673809D01*
X91600000Y-88711904D01*
X91409523Y-88711904D01*
D11*
X95190000Y-85150000D02*
X92205000Y-85150000D01*
X95199200Y-67310000D02*
X92202000Y-67310000D01*
D10*
X105230416Y-105304166D02*
X105463750Y-106004166D01*
X105697083Y-105304166D01*
X105930416Y-106004166D02*
X105930416Y-105537500D01*
X105930416Y-105304166D02*
X105897083Y-105337500D01*
X105930416Y-105370833D01*
X105963750Y-105337500D01*
X105930416Y-105304166D01*
X105930416Y-105370833D01*
X106263750Y-105537500D02*
X106263750Y-106004166D01*
X106263750Y-105604166D02*
X106297083Y-105570833D01*
X106363750Y-105537500D01*
X106463750Y-105537500D01*
X106530416Y-105570833D01*
X106563750Y-105637500D01*
X106563750Y-106004166D01*
X105330416Y-107229166D02*
X105330416Y-106529166D01*
X105597083Y-106529166D01*
X105663750Y-106562500D01*
X105697083Y-106595833D01*
X105730416Y-106662500D01*
X105730416Y-106762500D01*
X105697083Y-106829166D01*
X105663750Y-106862500D01*
X105597083Y-106895833D01*
X105330416Y-106895833D01*
X106030416Y-107229166D02*
X106030416Y-106762500D01*
X106030416Y-106895833D02*
X106063750Y-106829166D01*
X106097083Y-106795833D01*
X106163750Y-106762500D01*
X106230416Y-106762500D01*
X106563750Y-107229166D02*
X106497083Y-107195833D01*
X106463750Y-107162500D01*
X106430416Y-107095833D01*
X106430416Y-106895833D01*
X106463750Y-106829166D01*
X106497083Y-106795833D01*
X106563750Y-106762500D01*
X106663750Y-106762500D01*
X106730416Y-106795833D01*
X106763750Y-106829166D01*
X106797083Y-106895833D01*
X106797083Y-107095833D01*
X106763750Y-107162500D01*
X106730416Y-107195833D01*
X106663750Y-107229166D01*
X106563750Y-107229166D01*
X106997083Y-106762500D02*
X107263750Y-106762500D01*
X107097083Y-106529166D02*
X107097083Y-107129166D01*
X107130416Y-107195833D01*
X107197083Y-107229166D01*
X107263750Y-107229166D01*
D15*
X91002380Y-66452380D02*
X91002380Y-65452380D01*
X92192857Y-65404761D02*
X91335714Y-66690476D01*
X92716666Y-65452380D02*
X92907142Y-65452380D01*
X93002380Y-65500000D01*
X93097619Y-65595238D01*
X93145238Y-65785714D01*
X93145238Y-66119047D01*
X93097619Y-66309523D01*
X93002380Y-66404761D01*
X92907142Y-66452380D01*
X92716666Y-66452380D01*
X92621428Y-66404761D01*
X92526190Y-66309523D01*
X92478571Y-66119047D01*
X92478571Y-65785714D01*
X92526190Y-65595238D01*
X92621428Y-65500000D01*
X92716666Y-65452380D01*
D12*
X142549523Y-86177380D02*
X142216190Y-85701190D01*
X141978095Y-86177380D02*
X141978095Y-85177380D01*
X142359047Y-85177380D01*
X142454285Y-85225000D01*
X142501904Y-85272619D01*
X142549523Y-85367857D01*
X142549523Y-85510714D01*
X142501904Y-85605952D01*
X142454285Y-85653571D01*
X142359047Y-85701190D01*
X141978095Y-85701190D01*
X144494285Y-86129761D02*
X144637142Y-86177380D01*
X144875238Y-86177380D01*
X144970476Y-86129761D01*
X145018095Y-86082142D01*
X145065714Y-85986904D01*
X145065714Y-85891666D01*
X145018095Y-85796428D01*
X144970476Y-85748809D01*
X144875238Y-85701190D01*
X144684761Y-85653571D01*
X144589523Y-85605952D01*
X144541904Y-85558333D01*
X144494285Y-85463095D01*
X144494285Y-85367857D01*
X144541904Y-85272619D01*
X144589523Y-85225000D01*
X144684761Y-85177380D01*
X144922857Y-85177380D01*
X145065714Y-85225000D01*
X147034285Y-85177380D02*
X147605714Y-85177380D01*
X147320000Y-86177380D02*
X147320000Y-85177380D01*
D11*
X128000000Y-65700000D02*
G75*
G03*
X128000000Y-65700000I-1000000J0D01*
G01*
X150700000Y-65700000D02*
G75*
G03*
X150700000Y-65700000I-1000000J0D01*
G01*
X148500000Y-65700000D02*
G75*
G03*
X148500000Y-65700000I-1000000J0D01*
G01*
X130500000Y-65700000D02*
G75*
G03*
X130500000Y-65700000I-1000000J0D01*
G01*
X138200000Y-65700000D02*
G75*
G03*
X138200000Y-65700000I-1000000J0D01*
G01*
X130400000Y-63700000D02*
G75*
G03*
X130400000Y-63700000I-1000000J0D01*
G01*
X132900000Y-65700000D02*
G75*
G03*
X132900000Y-65700000I-1000000J0D01*
G01*
X135400000Y-65700000D02*
G75*
G03*
X135400000Y-65700000I-1000000J0D01*
G01*
X128000000Y-63700000D02*
G75*
G03*
X128000000Y-63700000I-1000000J0D01*
G01*
D17*
X127244857Y-96683380D02*
X127416285Y-96683380D01*
X127502000Y-96731000D01*
X127587714Y-96826238D01*
X127630571Y-97016714D01*
X127630571Y-97350047D01*
X127587714Y-97540523D01*
X127502000Y-97635761D01*
X127416285Y-97683380D01*
X127244857Y-97683380D01*
X127159142Y-97635761D01*
X127073428Y-97540523D01*
X127030571Y-97350047D01*
X127030571Y-97016714D01*
X127073428Y-96826238D01*
X127159142Y-96731000D01*
X127244857Y-96683380D01*
X128016285Y-97016714D02*
X128016285Y-98016714D01*
X128016285Y-97064333D02*
X128102000Y-97016714D01*
X128273428Y-97016714D01*
X128359142Y-97064333D01*
X128402000Y-97111952D01*
X128444857Y-97207190D01*
X128444857Y-97492904D01*
X128402000Y-97588142D01*
X128359142Y-97635761D01*
X128273428Y-97683380D01*
X128102000Y-97683380D01*
X128016285Y-97635761D01*
X128702000Y-97016714D02*
X129044857Y-97016714D01*
X128830571Y-96683380D02*
X128830571Y-97540523D01*
X128873428Y-97635761D01*
X128959142Y-97683380D01*
X129044857Y-97683380D01*
X129473428Y-97683380D02*
X129387714Y-97635761D01*
X129344857Y-97588142D01*
X129302000Y-97492904D01*
X129302000Y-97207190D01*
X129344857Y-97111952D01*
X129387714Y-97064333D01*
X129473428Y-97016714D01*
X129602000Y-97016714D01*
X129687714Y-97064333D01*
X129730571Y-97111952D01*
X129773428Y-97207190D01*
X129773428Y-97492904D01*
X129730571Y-97588142D01*
X129687714Y-97635761D01*
X129602000Y-97683380D01*
X129473428Y-97683380D01*
X130844857Y-97683380D02*
X130844857Y-96683380D01*
X131916285Y-96635761D02*
X131144857Y-97921476D01*
X132387714Y-96683380D02*
X132559142Y-96683380D01*
X132644857Y-96731000D01*
X132730571Y-96826238D01*
X132773428Y-97016714D01*
X132773428Y-97350047D01*
X132730571Y-97540523D01*
X132644857Y-97635761D01*
X132559142Y-97683380D01*
X132387714Y-97683380D01*
X132302000Y-97635761D01*
X132216285Y-97540523D01*
X132173428Y-97350047D01*
X132173428Y-97016714D01*
X132216285Y-96826238D01*
X132302000Y-96731000D01*
X132387714Y-96683380D01*
D15*
X115050000Y-61200000D02*
X114978571Y-61342857D01*
X114978571Y-61557142D01*
X115050000Y-61771428D01*
X115192857Y-61914285D01*
X115335714Y-61985714D01*
X115621428Y-62057142D01*
X115835714Y-62057142D01*
X116121428Y-61985714D01*
X116264285Y-61914285D01*
X116407142Y-61771428D01*
X116478571Y-61557142D01*
X116478571Y-61414285D01*
X116407142Y-61200000D01*
X116335714Y-61128571D01*
X115835714Y-61128571D01*
X115835714Y-61414285D01*
X116478571Y-60485714D02*
X114978571Y-60485714D01*
X114978571Y-59914285D01*
X115050000Y-59771428D01*
X115121428Y-59700000D01*
X115264285Y-59628571D01*
X115478571Y-59628571D01*
X115621428Y-59700000D01*
X115692857Y-59771428D01*
X115764285Y-59914285D01*
X115764285Y-60485714D01*
X116478571Y-58985714D02*
X114978571Y-58985714D01*
X114978571Y-57985714D02*
X114978571Y-57700000D01*
X115050000Y-57557142D01*
X115192857Y-57414285D01*
X115478571Y-57342857D01*
X115978571Y-57342857D01*
X116264285Y-57414285D01*
X116407142Y-57557142D01*
X116478571Y-57700000D01*
X116478571Y-57985714D01*
X116407142Y-58128571D01*
X116264285Y-58271428D01*
X115978571Y-58342857D01*
X115478571Y-58342857D01*
X115192857Y-58271428D01*
X115050000Y-58128571D01*
X114978571Y-57985714D01*
D12*
X173408095Y-91712380D02*
X173408095Y-92521904D01*
X173455714Y-92617142D01*
X173503333Y-92664761D01*
X173598571Y-92712380D01*
X173789047Y-92712380D01*
X173884285Y-92664761D01*
X173931904Y-92617142D01*
X173979523Y-92521904D01*
X173979523Y-91712380D01*
X174408095Y-92664761D02*
X174550952Y-92712380D01*
X174789047Y-92712380D01*
X174884285Y-92664761D01*
X174931904Y-92617142D01*
X174979523Y-92521904D01*
X174979523Y-92426666D01*
X174931904Y-92331428D01*
X174884285Y-92283809D01*
X174789047Y-92236190D01*
X174598571Y-92188571D01*
X174503333Y-92140952D01*
X174455714Y-92093333D01*
X174408095Y-91998095D01*
X174408095Y-91902857D01*
X174455714Y-91807619D01*
X174503333Y-91760000D01*
X174598571Y-91712380D01*
X174836666Y-91712380D01*
X174979523Y-91760000D01*
X175741428Y-92188571D02*
X175884285Y-92236190D01*
X175931904Y-92283809D01*
X175979523Y-92379047D01*
X175979523Y-92521904D01*
X175931904Y-92617142D01*
X175884285Y-92664761D01*
X175789047Y-92712380D01*
X175408095Y-92712380D01*
X175408095Y-91712380D01*
X175741428Y-91712380D01*
X175836666Y-91760000D01*
X175884285Y-91807619D01*
X175931904Y-91902857D01*
X175931904Y-91998095D01*
X175884285Y-92093333D01*
X175836666Y-92140952D01*
X175741428Y-92188571D01*
X175408095Y-92188571D01*
X159714285Y-105792857D02*
X159828571Y-105830952D01*
X159866666Y-105869047D01*
X159904761Y-105945238D01*
X159904761Y-106059523D01*
X159866666Y-106135714D01*
X159828571Y-106173809D01*
X159752380Y-106211904D01*
X159447619Y-106211904D01*
X159447619Y-105411904D01*
X159714285Y-105411904D01*
X159790476Y-105450000D01*
X159828571Y-105488095D01*
X159866666Y-105564285D01*
X159866666Y-105640476D01*
X159828571Y-105716666D01*
X159790476Y-105754761D01*
X159714285Y-105792857D01*
X159447619Y-105792857D01*
X160400000Y-105411904D02*
X160552380Y-105411904D01*
X160628571Y-105450000D01*
X160704761Y-105526190D01*
X160742857Y-105678571D01*
X160742857Y-105945238D01*
X160704761Y-106097619D01*
X160628571Y-106173809D01*
X160552380Y-106211904D01*
X160400000Y-106211904D01*
X160323809Y-106173809D01*
X160247619Y-106097619D01*
X160209523Y-105945238D01*
X160209523Y-105678571D01*
X160247619Y-105526190D01*
X160323809Y-105450000D01*
X160400000Y-105411904D01*
X161238095Y-105411904D02*
X161390476Y-105411904D01*
X161466666Y-105450000D01*
X161542857Y-105526190D01*
X161580952Y-105678571D01*
X161580952Y-105945238D01*
X161542857Y-106097619D01*
X161466666Y-106173809D01*
X161390476Y-106211904D01*
X161238095Y-106211904D01*
X161161904Y-106173809D01*
X161085714Y-106097619D01*
X161047619Y-105945238D01*
X161047619Y-105678571D01*
X161085714Y-105526190D01*
X161161904Y-105450000D01*
X161238095Y-105411904D01*
X161809523Y-105411904D02*
X162266666Y-105411904D01*
X162038095Y-106211904D02*
X162038095Y-105411904D01*
X159438095Y-112861904D02*
X159171428Y-112480952D01*
X158980952Y-112861904D02*
X158980952Y-112061904D01*
X159285714Y-112061904D01*
X159361904Y-112100000D01*
X159400000Y-112138095D01*
X159438095Y-112214285D01*
X159438095Y-112328571D01*
X159400000Y-112404761D01*
X159361904Y-112442857D01*
X159285714Y-112480952D01*
X158980952Y-112480952D01*
X159780952Y-112442857D02*
X160047619Y-112442857D01*
X160161904Y-112861904D02*
X159780952Y-112861904D01*
X159780952Y-112061904D01*
X160161904Y-112061904D01*
X160466666Y-112823809D02*
X160580952Y-112861904D01*
X160771428Y-112861904D01*
X160847619Y-112823809D01*
X160885714Y-112785714D01*
X160923809Y-112709523D01*
X160923809Y-112633333D01*
X160885714Y-112557142D01*
X160847619Y-112519047D01*
X160771428Y-112480952D01*
X160619047Y-112442857D01*
X160542857Y-112404761D01*
X160504761Y-112366666D01*
X160466666Y-112290476D01*
X160466666Y-112214285D01*
X160504761Y-112138095D01*
X160542857Y-112100000D01*
X160619047Y-112061904D01*
X160809523Y-112061904D01*
X160923809Y-112100000D01*
X161266666Y-112442857D02*
X161533333Y-112442857D01*
X161647619Y-112861904D02*
X161266666Y-112861904D01*
X161266666Y-112061904D01*
X161647619Y-112061904D01*
X161876190Y-112061904D02*
X162333333Y-112061904D01*
X162104761Y-112861904D02*
X162104761Y-112061904D01*
X154128571Y-90282571D02*
X154661904Y-90282571D01*
X153823809Y-90473047D02*
X154395238Y-90663523D01*
X154395238Y-90168285D01*
X135211904Y-89581714D02*
X135211904Y-89086476D01*
X135516666Y-89353142D01*
X135516666Y-89238857D01*
X135554761Y-89162666D01*
X135592857Y-89124571D01*
X135669047Y-89086476D01*
X135859523Y-89086476D01*
X135935714Y-89124571D01*
X135973809Y-89162666D01*
X136011904Y-89238857D01*
X136011904Y-89467428D01*
X135973809Y-89543619D01*
X135935714Y-89581714D01*
X135211904Y-88819809D02*
X135211904Y-88324571D01*
X135516666Y-88591238D01*
X135516666Y-88476952D01*
X135554761Y-88400761D01*
X135592857Y-88362666D01*
X135669047Y-88324571D01*
X135859523Y-88324571D01*
X135935714Y-88362666D01*
X135973809Y-88400761D01*
X136011904Y-88476952D01*
X136011904Y-88705523D01*
X135973809Y-88781714D01*
X135935714Y-88819809D01*
X133661904Y-89631714D02*
X133661904Y-89136476D01*
X133966666Y-89403142D01*
X133966666Y-89288857D01*
X134004761Y-89212666D01*
X134042857Y-89174571D01*
X134119047Y-89136476D01*
X134309523Y-89136476D01*
X134385714Y-89174571D01*
X134423809Y-89212666D01*
X134461904Y-89288857D01*
X134461904Y-89517428D01*
X134423809Y-89593619D01*
X134385714Y-89631714D01*
X133661904Y-88412666D02*
X133661904Y-88793619D01*
X134042857Y-88831714D01*
X134004761Y-88793619D01*
X133966666Y-88717428D01*
X133966666Y-88526952D01*
X134004761Y-88450761D01*
X134042857Y-88412666D01*
X134119047Y-88374571D01*
X134309523Y-88374571D01*
X134385714Y-88412666D01*
X134423809Y-88450761D01*
X134461904Y-88526952D01*
X134461904Y-88717428D01*
X134423809Y-88793619D01*
X134385714Y-88831714D01*
X127716000Y-100052571D02*
X127677904Y-100128761D01*
X127677904Y-100243047D01*
X127716000Y-100357333D01*
X127792190Y-100433523D01*
X127868380Y-100471619D01*
X128020761Y-100509714D01*
X128135047Y-100509714D01*
X128287428Y-100471619D01*
X128363619Y-100433523D01*
X128439809Y-100357333D01*
X128477904Y-100243047D01*
X128477904Y-100166857D01*
X128439809Y-100052571D01*
X128401714Y-100014476D01*
X128135047Y-100014476D01*
X128135047Y-100166857D01*
X128477904Y-99671619D02*
X127677904Y-99671619D01*
X128477904Y-99214476D01*
X127677904Y-99214476D01*
X128477904Y-98833523D02*
X127677904Y-98833523D01*
X127677904Y-98643047D01*
X127716000Y-98528761D01*
X127792190Y-98452571D01*
X127868380Y-98414476D01*
X128020761Y-98376380D01*
X128135047Y-98376380D01*
X128287428Y-98414476D01*
X128363619Y-98452571D01*
X128439809Y-98528761D01*
X128477904Y-98643047D01*
X128477904Y-98833523D01*
X129037904Y-100624000D02*
X129837904Y-100357333D01*
X129037904Y-100090666D01*
X129799809Y-99519238D02*
X129837904Y-99595428D01*
X129837904Y-99747809D01*
X129799809Y-99824000D01*
X129723619Y-99862095D01*
X129418857Y-99862095D01*
X129342666Y-99824000D01*
X129304571Y-99747809D01*
X129304571Y-99595428D01*
X129342666Y-99519238D01*
X129418857Y-99481142D01*
X129495047Y-99481142D01*
X129571238Y-99862095D01*
X129837904Y-99214476D02*
X129304571Y-98795428D01*
X129304571Y-99214476D02*
X129837904Y-98795428D01*
X129304571Y-98604952D02*
X129304571Y-98300190D01*
X129037904Y-98490666D02*
X129723619Y-98490666D01*
X129799809Y-98452571D01*
X129837904Y-98376380D01*
X129837904Y-98300190D01*
X131197904Y-99252571D02*
X130397904Y-99252571D01*
X131197904Y-98871619D02*
X130397904Y-98871619D01*
X131197904Y-98414476D01*
X130397904Y-98414476D01*
X131757904Y-100166857D02*
X131757904Y-100014476D01*
X131796000Y-99938285D01*
X131872190Y-99862095D01*
X132024571Y-99824000D01*
X132291238Y-99824000D01*
X132443619Y-99862095D01*
X132519809Y-99938285D01*
X132557904Y-100014476D01*
X132557904Y-100166857D01*
X132519809Y-100243047D01*
X132443619Y-100319238D01*
X132291238Y-100357333D01*
X132024571Y-100357333D01*
X131872190Y-100319238D01*
X131796000Y-100243047D01*
X131757904Y-100166857D01*
X131757904Y-99481142D02*
X132405523Y-99481142D01*
X132481714Y-99443047D01*
X132519809Y-99404952D01*
X132557904Y-99328761D01*
X132557904Y-99176380D01*
X132519809Y-99100190D01*
X132481714Y-99062095D01*
X132405523Y-99024000D01*
X131757904Y-99024000D01*
X131757904Y-98757333D02*
X131757904Y-98300190D01*
X132557904Y-98528761D02*
X131757904Y-98528761D01*
X106554761Y-114276190D02*
X106516666Y-114352380D01*
X106478571Y-114390476D01*
X106402380Y-114428571D01*
X106364285Y-114428571D01*
X106288095Y-114390476D01*
X106250000Y-114352380D01*
X106211904Y-114276190D01*
X106211904Y-114123809D01*
X106250000Y-114047619D01*
X106288095Y-114009523D01*
X106364285Y-113971428D01*
X106402380Y-113971428D01*
X106478571Y-114009523D01*
X106516666Y-114047619D01*
X106554761Y-114123809D01*
X106554761Y-114276190D01*
X106592857Y-114352380D01*
X106630952Y-114390476D01*
X106707142Y-114428571D01*
X106859523Y-114428571D01*
X106935714Y-114390476D01*
X106973809Y-114352380D01*
X107011904Y-114276190D01*
X107011904Y-114123809D01*
X106973809Y-114047619D01*
X106935714Y-114009523D01*
X106859523Y-113971428D01*
X106707142Y-113971428D01*
X106630952Y-114009523D01*
X106592857Y-114047619D01*
X106554761Y-114123809D01*
X106707142Y-113628571D02*
X106707142Y-113019047D01*
X106211904Y-112714285D02*
X106211904Y-112219047D01*
X106516666Y-112485714D01*
X106516666Y-112371428D01*
X106554761Y-112295238D01*
X106592857Y-112257142D01*
X106669047Y-112219047D01*
X106859523Y-112219047D01*
X106935714Y-112257142D01*
X106973809Y-112295238D01*
X107011904Y-112371428D01*
X107011904Y-112600000D01*
X106973809Y-112676190D01*
X106935714Y-112714285D01*
X106288095Y-111914285D02*
X106250000Y-111876190D01*
X106211904Y-111800000D01*
X106211904Y-111609523D01*
X106250000Y-111533333D01*
X106288095Y-111495238D01*
X106364285Y-111457142D01*
X106440476Y-111457142D01*
X106554761Y-111495238D01*
X107011904Y-111952380D01*
X107011904Y-111457142D01*
X106211904Y-111228571D02*
X107011904Y-110961904D01*
X106211904Y-110695238D01*
X144297619Y-110173809D02*
X144411904Y-110211904D01*
X144602380Y-110211904D01*
X144678571Y-110173809D01*
X144716666Y-110135714D01*
X144754761Y-110059523D01*
X144754761Y-109983333D01*
X144716666Y-109907142D01*
X144678571Y-109869047D01*
X144602380Y-109830952D01*
X144450000Y-109792857D01*
X144373809Y-109754761D01*
X144335714Y-109716666D01*
X144297619Y-109640476D01*
X144297619Y-109564285D01*
X144335714Y-109488095D01*
X144373809Y-109450000D01*
X144450000Y-109411904D01*
X144640476Y-109411904D01*
X144754761Y-109450000D01*
X145554761Y-110135714D02*
X145516666Y-110173809D01*
X145402380Y-110211904D01*
X145326190Y-110211904D01*
X145211904Y-110173809D01*
X145135714Y-110097619D01*
X145097619Y-110021428D01*
X145059523Y-109869047D01*
X145059523Y-109754761D01*
X145097619Y-109602380D01*
X145135714Y-109526190D01*
X145211904Y-109450000D01*
X145326190Y-109411904D01*
X145402380Y-109411904D01*
X145516666Y-109450000D01*
X145554761Y-109488095D01*
X146278571Y-110211904D02*
X145897619Y-110211904D01*
X145897619Y-109411904D01*
X141628571Y-110173809D02*
X141742857Y-110211904D01*
X141933333Y-110211904D01*
X142009523Y-110173809D01*
X142047619Y-110135714D01*
X142085714Y-110059523D01*
X142085714Y-109983333D01*
X142047619Y-109907142D01*
X142009523Y-109869047D01*
X141933333Y-109830952D01*
X141780952Y-109792857D01*
X141704761Y-109754761D01*
X141666666Y-109716666D01*
X141628571Y-109640476D01*
X141628571Y-109564285D01*
X141666666Y-109488095D01*
X141704761Y-109450000D01*
X141780952Y-109411904D01*
X141971428Y-109411904D01*
X142085714Y-109450000D01*
X142428571Y-110211904D02*
X142428571Y-109411904D01*
X142619047Y-109411904D01*
X142733333Y-109450000D01*
X142809523Y-109526190D01*
X142847619Y-109602380D01*
X142885714Y-109754761D01*
X142885714Y-109869047D01*
X142847619Y-110021428D01*
X142809523Y-110097619D01*
X142733333Y-110173809D01*
X142619047Y-110211904D01*
X142428571Y-110211904D01*
X143190476Y-109983333D02*
X143571428Y-109983333D01*
X143114285Y-110211904D02*
X143380952Y-109411904D01*
X143647619Y-110211904D01*
X146709523Y-109411904D02*
X147204761Y-109411904D01*
X146938095Y-109716666D01*
X147052380Y-109716666D01*
X147128571Y-109754761D01*
X147166666Y-109792857D01*
X147204761Y-109869047D01*
X147204761Y-110059523D01*
X147166666Y-110135714D01*
X147128571Y-110173809D01*
X147052380Y-110211904D01*
X146823809Y-110211904D01*
X146747619Y-110173809D01*
X146709523Y-110135714D01*
X147433333Y-109411904D02*
X147700000Y-110211904D01*
X147966666Y-109411904D01*
X148157142Y-109411904D02*
X148652380Y-109411904D01*
X148385714Y-109716666D01*
X148500000Y-109716666D01*
X148576190Y-109754761D01*
X148614285Y-109792857D01*
X148652380Y-109869047D01*
X148652380Y-110059523D01*
X148614285Y-110135714D01*
X148576190Y-110173809D01*
X148500000Y-110211904D01*
X148271428Y-110211904D01*
X148195238Y-110173809D01*
X148157142Y-110135714D01*
X149590476Y-109400000D02*
X149514285Y-109361904D01*
X149400000Y-109361904D01*
X149285714Y-109400000D01*
X149209523Y-109476190D01*
X149171428Y-109552380D01*
X149133333Y-109704761D01*
X149133333Y-109819047D01*
X149171428Y-109971428D01*
X149209523Y-110047619D01*
X149285714Y-110123809D01*
X149400000Y-110161904D01*
X149476190Y-110161904D01*
X149590476Y-110123809D01*
X149628571Y-110085714D01*
X149628571Y-109819047D01*
X149476190Y-109819047D01*
X149971428Y-110161904D02*
X149971428Y-109361904D01*
X150428571Y-110161904D01*
X150428571Y-109361904D01*
X150809523Y-110161904D02*
X150809523Y-109361904D01*
X151000000Y-109361904D01*
X151114285Y-109400000D01*
X151190476Y-109476190D01*
X151228571Y-109552380D01*
X151266666Y-109704761D01*
X151266666Y-109819047D01*
X151228571Y-109971428D01*
X151190476Y-110047619D01*
X151114285Y-110123809D01*
X151000000Y-110161904D01*
X150809523Y-110161904D01*
X111202380Y-114821428D02*
X110202380Y-114821428D01*
X111202380Y-114307142D01*
X110202380Y-114307142D01*
X111202380Y-113878571D02*
X110202380Y-113878571D01*
X110916666Y-113578571D01*
X110202380Y-113278571D01*
X111202380Y-113278571D01*
X110678571Y-112850000D02*
X110678571Y-112550000D01*
X111202380Y-112421428D02*
X111202380Y-112850000D01*
X110202380Y-112850000D01*
X110202380Y-112421428D01*
X110916666Y-112078571D02*
X110916666Y-111650000D01*
X111202380Y-112164285D02*
X110202380Y-111864285D01*
X111202380Y-111564285D01*
X110297619Y-110621428D02*
X110250000Y-110578571D01*
X110202380Y-110492857D01*
X110202380Y-110278571D01*
X110250000Y-110192857D01*
X110297619Y-110150000D01*
X110392857Y-110107142D01*
X110488095Y-110107142D01*
X110630952Y-110150000D01*
X111202380Y-110664285D01*
X111202380Y-110107142D01*
X110202380Y-109550000D02*
X110202380Y-109464285D01*
X110250000Y-109378571D01*
X110297619Y-109335714D01*
X110392857Y-109292857D01*
X110583333Y-109250000D01*
X110821428Y-109250000D01*
X111011904Y-109292857D01*
X111107142Y-109335714D01*
X111154761Y-109378571D01*
X111202380Y-109464285D01*
X111202380Y-109550000D01*
X111154761Y-109635714D01*
X111107142Y-109678571D01*
X111011904Y-109721428D01*
X110821428Y-109764285D01*
X110583333Y-109764285D01*
X110392857Y-109721428D01*
X110297619Y-109678571D01*
X110250000Y-109635714D01*
X110202380Y-109550000D01*
X110202380Y-108692857D02*
X110202380Y-108607142D01*
X110250000Y-108521428D01*
X110297619Y-108478571D01*
X110392857Y-108435714D01*
X110583333Y-108392857D01*
X110821428Y-108392857D01*
X111011904Y-108435714D01*
X111107142Y-108478571D01*
X111154761Y-108521428D01*
X111202380Y-108607142D01*
X111202380Y-108692857D01*
X111154761Y-108778571D01*
X111107142Y-108821428D01*
X111011904Y-108864285D01*
X110821428Y-108907142D01*
X110583333Y-108907142D01*
X110392857Y-108864285D01*
X110297619Y-108821428D01*
X110250000Y-108778571D01*
X110202380Y-108692857D01*
X110202380Y-107835714D02*
X110202380Y-107750000D01*
X110250000Y-107664285D01*
X110297619Y-107621428D01*
X110392857Y-107578571D01*
X110583333Y-107535714D01*
X110821428Y-107535714D01*
X111011904Y-107578571D01*
X111107142Y-107621428D01*
X111154761Y-107664285D01*
X111202380Y-107750000D01*
X111202380Y-107835714D01*
X111154761Y-107921428D01*
X111107142Y-107964285D01*
X111011904Y-108007142D01*
X110821428Y-108050000D01*
X110583333Y-108050000D01*
X110392857Y-108007142D01*
X110297619Y-107964285D01*
X110250000Y-107921428D01*
X110202380Y-107835714D01*
X143611904Y-105109523D02*
X143611904Y-105566666D01*
X143611904Y-105338095D02*
X142811904Y-105338095D01*
X142926190Y-105414285D01*
X143002380Y-105490476D01*
X143040476Y-105566666D01*
X142811904Y-104842857D02*
X143611904Y-104652380D01*
X143040476Y-104500000D01*
X143611904Y-104347619D01*
X142811904Y-104157142D01*
X143611904Y-103852380D02*
X143078571Y-103852380D01*
X142811904Y-103852380D02*
X142850000Y-103890476D01*
X142888095Y-103852380D01*
X142850000Y-103814285D01*
X142811904Y-103852380D01*
X142888095Y-103852380D01*
X143611904Y-103471428D02*
X143078571Y-103471428D01*
X143230952Y-103471428D02*
X143154761Y-103433333D01*
X143116666Y-103395238D01*
X143078571Y-103319047D01*
X143078571Y-103242857D01*
X143573809Y-102671428D02*
X143611904Y-102747619D01*
X143611904Y-102900000D01*
X143573809Y-102976190D01*
X143497619Y-103014285D01*
X143192857Y-103014285D01*
X143116666Y-102976190D01*
X143078571Y-102900000D01*
X143078571Y-102747619D01*
X143116666Y-102671428D01*
X143192857Y-102633333D01*
X143269047Y-102633333D01*
X143345238Y-103014285D01*
X144838095Y-113738095D02*
X144800000Y-113814285D01*
X144723809Y-113890476D01*
X144609523Y-114004761D01*
X144571428Y-114080952D01*
X144571428Y-114157142D01*
X144761904Y-114119047D02*
X144723809Y-114195238D01*
X144647619Y-114271428D01*
X144495238Y-114309523D01*
X144228571Y-114309523D01*
X144076190Y-114271428D01*
X144000000Y-114195238D01*
X143961904Y-114119047D01*
X143961904Y-113966666D01*
X144000000Y-113890476D01*
X144076190Y-113814285D01*
X144228571Y-113776190D01*
X144495238Y-113776190D01*
X144647619Y-113814285D01*
X144723809Y-113890476D01*
X144761904Y-113966666D01*
X144761904Y-114119047D01*
X144228571Y-113509523D02*
X144761904Y-113357142D01*
X144380952Y-113204761D01*
X144761904Y-113052380D01*
X144228571Y-112900000D01*
X144761904Y-112595238D02*
X144228571Y-112595238D01*
X143961904Y-112595238D02*
X144000000Y-112633333D01*
X144038095Y-112595238D01*
X144000000Y-112557142D01*
X143961904Y-112595238D01*
X144038095Y-112595238D01*
X144761904Y-112214285D02*
X144228571Y-112214285D01*
X143961904Y-112214285D02*
X144000000Y-112252380D01*
X144038095Y-112214285D01*
X144000000Y-112176190D01*
X143961904Y-112214285D01*
X144038095Y-112214285D01*
X144723809Y-111490476D02*
X144761904Y-111566666D01*
X144761904Y-111719047D01*
X144723809Y-111795238D01*
X144685714Y-111833333D01*
X144609523Y-111871428D01*
X144380952Y-111871428D01*
X144304761Y-111833333D01*
X144266666Y-111795238D01*
X144228571Y-111719047D01*
X144228571Y-111566666D01*
X144266666Y-111490476D01*
X141152380Y-109126190D02*
X140152380Y-109126190D01*
X140247619Y-108697619D02*
X140200000Y-108650000D01*
X140152380Y-108554761D01*
X140152380Y-108316666D01*
X140200000Y-108221428D01*
X140247619Y-108173809D01*
X140342857Y-108126190D01*
X140438095Y-108126190D01*
X140580952Y-108173809D01*
X141152380Y-108745238D01*
X141152380Y-108126190D01*
X141057142Y-107126190D02*
X141104761Y-107173809D01*
X141152380Y-107316666D01*
X141152380Y-107411904D01*
X141104761Y-107554761D01*
X141009523Y-107650000D01*
X140914285Y-107697619D01*
X140723809Y-107745238D01*
X140580952Y-107745238D01*
X140390476Y-107697619D01*
X140295238Y-107650000D01*
X140200000Y-107554761D01*
X140152380Y-107411904D01*
X140152380Y-107316666D01*
X140200000Y-107173809D01*
X140247619Y-107126190D01*
X130411904Y-88935523D02*
X131059523Y-88935523D01*
X131135714Y-88897428D01*
X131173809Y-88859333D01*
X131211904Y-88783142D01*
X131211904Y-88630761D01*
X131173809Y-88554571D01*
X131135714Y-88516476D01*
X131059523Y-88478380D01*
X130411904Y-88478380D01*
X131173809Y-88135523D02*
X131211904Y-88021238D01*
X131211904Y-87830761D01*
X131173809Y-87754571D01*
X131135714Y-87716476D01*
X131059523Y-87678380D01*
X130983333Y-87678380D01*
X130907142Y-87716476D01*
X130869047Y-87754571D01*
X130830952Y-87830761D01*
X130792857Y-87983142D01*
X130754761Y-88059333D01*
X130716666Y-88097428D01*
X130640476Y-88135523D01*
X130564285Y-88135523D01*
X130488095Y-88097428D01*
X130450000Y-88059333D01*
X130411904Y-87983142D01*
X130411904Y-87792666D01*
X130450000Y-87678380D01*
X130792857Y-87068857D02*
X130830952Y-86954571D01*
X130869047Y-86916476D01*
X130945238Y-86878380D01*
X131059523Y-86878380D01*
X131135714Y-86916476D01*
X131173809Y-86954571D01*
X131211904Y-87030761D01*
X131211904Y-87335523D01*
X130411904Y-87335523D01*
X130411904Y-87068857D01*
X130450000Y-86992666D01*
X130488095Y-86954571D01*
X130564285Y-86916476D01*
X130640476Y-86916476D01*
X130716666Y-86954571D01*
X130754761Y-86992666D01*
X130792857Y-87068857D01*
X130792857Y-87335523D01*
X131771904Y-88554571D02*
X131771904Y-88935523D01*
X132152857Y-88973619D01*
X132114761Y-88935523D01*
X132076666Y-88859333D01*
X132076666Y-88668857D01*
X132114761Y-88592666D01*
X132152857Y-88554571D01*
X132229047Y-88516476D01*
X132419523Y-88516476D01*
X132495714Y-88554571D01*
X132533809Y-88592666D01*
X132571904Y-88668857D01*
X132571904Y-88859333D01*
X132533809Y-88935523D01*
X132495714Y-88973619D01*
X131771904Y-88287904D02*
X132571904Y-88021238D01*
X131771904Y-87754571D01*
X140080952Y-86272619D02*
X139985714Y-86225000D01*
X139890476Y-86129761D01*
X139747619Y-85986904D01*
X139652380Y-85939285D01*
X139557142Y-85939285D01*
X139604761Y-86177380D02*
X139509523Y-86129761D01*
X139414285Y-86034523D01*
X139366666Y-85844047D01*
X139366666Y-85510714D01*
X139414285Y-85320238D01*
X139509523Y-85225000D01*
X139604761Y-85177380D01*
X139795238Y-85177380D01*
X139890476Y-85225000D01*
X139985714Y-85320238D01*
X140033333Y-85510714D01*
X140033333Y-85844047D01*
X139985714Y-86034523D01*
X139890476Y-86129761D01*
X139795238Y-86177380D01*
X139604761Y-86177380D01*
X136898095Y-86177380D02*
X136898095Y-85177380D01*
X137279047Y-85177380D01*
X137374285Y-85225000D01*
X137421904Y-85272619D01*
X137469523Y-85367857D01*
X137469523Y-85510714D01*
X137421904Y-85605952D01*
X137374285Y-85653571D01*
X137279047Y-85701190D01*
X136898095Y-85701190D01*
X134524761Y-85177380D02*
X134715238Y-85177380D01*
X134810476Y-85225000D01*
X134905714Y-85320238D01*
X134953333Y-85510714D01*
X134953333Y-85844047D01*
X134905714Y-86034523D01*
X134810476Y-86129761D01*
X134715238Y-86177380D01*
X134524761Y-86177380D01*
X134429523Y-86129761D01*
X134334285Y-86034523D01*
X134286666Y-85844047D01*
X134286666Y-85510714D01*
X134334285Y-85320238D01*
X134429523Y-85225000D01*
X134524761Y-85177380D01*
X131794285Y-86177380D02*
X131794285Y-85177380D01*
X132365714Y-86177380D01*
X132365714Y-85177380D01*
X129206666Y-86177380D02*
X129206666Y-85177380D01*
X129540000Y-85891666D01*
X129873333Y-85177380D01*
X129873333Y-86177380D01*
X127309523Y-86177380D02*
X126833333Y-86177380D01*
X126833333Y-85177380D01*
X124198095Y-86177380D02*
X124198095Y-85177380D01*
X124769523Y-86177380D02*
X124340952Y-85605952D01*
X124769523Y-85177380D02*
X124198095Y-85748809D01*
X122062857Y-85177380D02*
X122062857Y-85891666D01*
X122015238Y-86034523D01*
X121920000Y-86129761D01*
X121777142Y-86177380D01*
X121681904Y-86177380D01*
X119380000Y-86177380D02*
X119380000Y-85177380D01*
X116554285Y-86177380D02*
X116554285Y-85177380D01*
X116554285Y-85653571D02*
X117125714Y-85653571D01*
X117125714Y-86177380D02*
X117125714Y-85177380D01*
X114561904Y-85225000D02*
X114466666Y-85177380D01*
X114323809Y-85177380D01*
X114180952Y-85225000D01*
X114085714Y-85320238D01*
X114038095Y-85415476D01*
X113990476Y-85605952D01*
X113990476Y-85748809D01*
X114038095Y-85939285D01*
X114085714Y-86034523D01*
X114180952Y-86129761D01*
X114323809Y-86177380D01*
X114419047Y-86177380D01*
X114561904Y-86129761D01*
X114609523Y-86082142D01*
X114609523Y-85748809D01*
X114419047Y-85748809D01*
X111902857Y-85653571D02*
X111569523Y-85653571D01*
X111569523Y-86177380D02*
X111569523Y-85177380D01*
X112045714Y-85177380D01*
X109005714Y-85653571D02*
X109339047Y-85653571D01*
X109481904Y-86177380D02*
X109005714Y-86177380D01*
X109005714Y-85177380D01*
X109481904Y-85177380D01*
X106418095Y-86177380D02*
X106418095Y-85177380D01*
X106656190Y-85177380D01*
X106799047Y-85225000D01*
X106894285Y-85320238D01*
X106941904Y-85415476D01*
X106989523Y-85605952D01*
X106989523Y-85748809D01*
X106941904Y-85939285D01*
X106894285Y-86034523D01*
X106799047Y-86129761D01*
X106656190Y-86177380D01*
X106418095Y-86177380D01*
X104449523Y-86082142D02*
X104401904Y-86129761D01*
X104259047Y-86177380D01*
X104163809Y-86177380D01*
X104020952Y-86129761D01*
X103925714Y-86034523D01*
X103878095Y-85939285D01*
X103830476Y-85748809D01*
X103830476Y-85605952D01*
X103878095Y-85415476D01*
X103925714Y-85320238D01*
X104020952Y-85225000D01*
X104163809Y-85177380D01*
X104259047Y-85177380D01*
X104401904Y-85225000D01*
X104449523Y-85272619D01*
X101671428Y-85628571D02*
X101814285Y-85676190D01*
X101861904Y-85723809D01*
X101909523Y-85819047D01*
X101909523Y-85961904D01*
X101861904Y-86057142D01*
X101814285Y-86104761D01*
X101719047Y-86152380D01*
X101338095Y-86152380D01*
X101338095Y-85152380D01*
X101671428Y-85152380D01*
X101766666Y-85200000D01*
X101814285Y-85247619D01*
X101861904Y-85342857D01*
X101861904Y-85438095D01*
X101814285Y-85533333D01*
X101766666Y-85580952D01*
X101671428Y-85628571D01*
X101338095Y-85628571D01*
X93981666Y-83272380D02*
X94648333Y-83272380D01*
X94219761Y-84272380D01*
X94505476Y-80732380D02*
X94315000Y-80732380D01*
X94219761Y-80780000D01*
X94172142Y-80827619D01*
X94076904Y-80970476D01*
X94029285Y-81160952D01*
X94029285Y-81541904D01*
X94076904Y-81637142D01*
X94124523Y-81684761D01*
X94219761Y-81732380D01*
X94410238Y-81732380D01*
X94505476Y-81684761D01*
X94553095Y-81637142D01*
X94600714Y-81541904D01*
X94600714Y-81303809D01*
X94553095Y-81208571D01*
X94505476Y-81160952D01*
X94410238Y-81113333D01*
X94219761Y-81113333D01*
X94124523Y-81160952D01*
X94076904Y-81208571D01*
X94029285Y-81303809D01*
X94553095Y-78192380D02*
X94076904Y-78192380D01*
X94029285Y-78668571D01*
X94076904Y-78620952D01*
X94172142Y-78573333D01*
X94410238Y-78573333D01*
X94505476Y-78620952D01*
X94553095Y-78668571D01*
X94600714Y-78763809D01*
X94600714Y-79001904D01*
X94553095Y-79097142D01*
X94505476Y-79144761D01*
X94410238Y-79192380D01*
X94172142Y-79192380D01*
X94076904Y-79144761D01*
X94029285Y-79097142D01*
X94505476Y-75985714D02*
X94505476Y-76652380D01*
X94267380Y-75604761D02*
X94029285Y-76319047D01*
X94648333Y-76319047D01*
X93981666Y-73112380D02*
X94600714Y-73112380D01*
X94267380Y-73493333D01*
X94410238Y-73493333D01*
X94505476Y-73540952D01*
X94553095Y-73588571D01*
X94600714Y-73683809D01*
X94600714Y-73921904D01*
X94553095Y-74017142D01*
X94505476Y-74064761D01*
X94410238Y-74112380D01*
X94124523Y-74112380D01*
X94029285Y-74064761D01*
X93981666Y-74017142D01*
X94029285Y-70667619D02*
X94076904Y-70620000D01*
X94172142Y-70572380D01*
X94410238Y-70572380D01*
X94505476Y-70620000D01*
X94553095Y-70667619D01*
X94600714Y-70762857D01*
X94600714Y-70858095D01*
X94553095Y-71000952D01*
X93981666Y-71572380D01*
X94600714Y-71572380D01*
X94600714Y-69032380D02*
X94029285Y-69032380D01*
X94315000Y-69032380D02*
X94315000Y-68032380D01*
X94219761Y-68175238D01*
X94124523Y-68270476D01*
X94029285Y-68318095D01*
X167940476Y-62988095D02*
X167978571Y-62950000D01*
X168054761Y-62911904D01*
X168245238Y-62911904D01*
X168321428Y-62950000D01*
X168359523Y-62988095D01*
X168397619Y-63064285D01*
X168397619Y-63140476D01*
X168359523Y-63254761D01*
X167902380Y-63711904D01*
X168397619Y-63711904D01*
X168664285Y-62911904D02*
X169159523Y-62911904D01*
X168892857Y-63216666D01*
X169007142Y-63216666D01*
X169083333Y-63254761D01*
X169121428Y-63292857D01*
X169159523Y-63369047D01*
X169159523Y-63559523D01*
X169121428Y-63635714D01*
X169083333Y-63673809D01*
X169007142Y-63711904D01*
X168778571Y-63711904D01*
X168702380Y-63673809D01*
X168664285Y-63635714D01*
X167940476Y-64288095D02*
X167978571Y-64250000D01*
X168054761Y-64211904D01*
X168245238Y-64211904D01*
X168321428Y-64250000D01*
X168359523Y-64288095D01*
X168397619Y-64364285D01*
X168397619Y-64440476D01*
X168359523Y-64554761D01*
X167902380Y-65011904D01*
X168397619Y-65011904D01*
X168702380Y-64288095D02*
X168740476Y-64250000D01*
X168816666Y-64211904D01*
X169007142Y-64211904D01*
X169083333Y-64250000D01*
X169121428Y-64288095D01*
X169159523Y-64364285D01*
X169159523Y-64440476D01*
X169121428Y-64554761D01*
X168664285Y-65011904D01*
X169159523Y-65011904D01*
X164438095Y-62997619D02*
X164485714Y-62950000D01*
X164580952Y-62902380D01*
X164819047Y-62902380D01*
X164914285Y-62950000D01*
X164961904Y-62997619D01*
X165009523Y-63092857D01*
X165009523Y-63188095D01*
X164961904Y-63330952D01*
X164390476Y-63902380D01*
X165009523Y-63902380D01*
X165961904Y-63902380D02*
X165390476Y-63902380D01*
X165676190Y-63902380D02*
X165676190Y-62902380D01*
X165580952Y-63045238D01*
X165485714Y-63140476D01*
X165390476Y-63188095D01*
X165009523Y-65102380D02*
X164438095Y-65102380D01*
X164723809Y-65102380D02*
X164723809Y-64102380D01*
X164628571Y-64245238D01*
X164533333Y-64340476D01*
X164438095Y-64388095D01*
X165485714Y-65102380D02*
X165676190Y-65102380D01*
X165771428Y-65054761D01*
X165819047Y-65007142D01*
X165914285Y-64864285D01*
X165961904Y-64673809D01*
X165961904Y-64292857D01*
X165914285Y-64197619D01*
X165866666Y-64150000D01*
X165771428Y-64102380D01*
X165580952Y-64102380D01*
X165485714Y-64150000D01*
X165438095Y-64197619D01*
X165390476Y-64292857D01*
X165390476Y-64530952D01*
X165438095Y-64626190D01*
X165485714Y-64673809D01*
X165580952Y-64721428D01*
X165771428Y-64721428D01*
X165866666Y-64673809D01*
X165914285Y-64626190D01*
X165961904Y-64530952D01*
X162259523Y-63852380D02*
X161688095Y-63852380D01*
X161973809Y-63852380D02*
X161973809Y-62852380D01*
X161878571Y-62995238D01*
X161783333Y-63090476D01*
X161688095Y-63138095D01*
X162830952Y-63280952D02*
X162735714Y-63233333D01*
X162688095Y-63185714D01*
X162640476Y-63090476D01*
X162640476Y-63042857D01*
X162688095Y-62947619D01*
X162735714Y-62900000D01*
X162830952Y-62852380D01*
X163021428Y-62852380D01*
X163116666Y-62900000D01*
X163164285Y-62947619D01*
X163211904Y-63042857D01*
X163211904Y-63090476D01*
X163164285Y-63185714D01*
X163116666Y-63233333D01*
X163021428Y-63280952D01*
X162830952Y-63280952D01*
X162735714Y-63328571D01*
X162688095Y-63376190D01*
X162640476Y-63471428D01*
X162640476Y-63661904D01*
X162688095Y-63757142D01*
X162735714Y-63804761D01*
X162830952Y-63852380D01*
X163021428Y-63852380D01*
X163116666Y-63804761D01*
X163164285Y-63757142D01*
X163211904Y-63661904D01*
X163211904Y-63471428D01*
X163164285Y-63376190D01*
X163116666Y-63328571D01*
X163021428Y-63280952D01*
X163738095Y-64102380D02*
X163261904Y-64102380D01*
X163214285Y-64578571D01*
X163261904Y-64530952D01*
X163357142Y-64483333D01*
X163595238Y-64483333D01*
X163690476Y-64530952D01*
X163738095Y-64578571D01*
X163785714Y-64673809D01*
X163785714Y-64911904D01*
X163738095Y-65007142D01*
X163690476Y-65054761D01*
X163595238Y-65102380D01*
X163357142Y-65102380D01*
X163261904Y-65054761D01*
X163214285Y-65007142D01*
X126809523Y-66202380D02*
X126238095Y-66202380D01*
X126523809Y-66202380D02*
X126523809Y-65202380D01*
X126428571Y-65345238D01*
X126333333Y-65440476D01*
X126238095Y-65488095D01*
X127142857Y-65202380D02*
X127809523Y-65202380D01*
X127380952Y-66202380D01*
X129309523Y-66202380D02*
X128738095Y-66202380D01*
X129023809Y-66202380D02*
X129023809Y-65202380D01*
X128928571Y-65345238D01*
X128833333Y-65440476D01*
X128738095Y-65488095D01*
X130166666Y-65202380D02*
X129976190Y-65202380D01*
X129880952Y-65250000D01*
X129833333Y-65297619D01*
X129738095Y-65440476D01*
X129690476Y-65630952D01*
X129690476Y-66011904D01*
X129738095Y-66107142D01*
X129785714Y-66154761D01*
X129880952Y-66202380D01*
X130071428Y-66202380D01*
X130166666Y-66154761D01*
X130214285Y-66107142D01*
X130261904Y-66011904D01*
X130261904Y-65773809D01*
X130214285Y-65678571D01*
X130166666Y-65630952D01*
X130071428Y-65583333D01*
X129880952Y-65583333D01*
X129785714Y-65630952D01*
X129738095Y-65678571D01*
X129690476Y-65773809D01*
X126940476Y-63535714D02*
X126940476Y-64202380D01*
X126702380Y-63154761D02*
X126464285Y-63869047D01*
X127083333Y-63869047D01*
X141714285Y-65297619D02*
X141761904Y-65250000D01*
X141857142Y-65202380D01*
X142095238Y-65202380D01*
X142190476Y-65250000D01*
X142238095Y-65297619D01*
X142285714Y-65392857D01*
X142285714Y-65488095D01*
X142238095Y-65630952D01*
X141666666Y-66202380D01*
X142285714Y-66202380D01*
X134309523Y-64202380D02*
X133738095Y-64202380D01*
X134023809Y-64202380D02*
X134023809Y-63202380D01*
X133928571Y-63345238D01*
X133833333Y-63440476D01*
X133738095Y-63488095D01*
X135214285Y-63202380D02*
X134738095Y-63202380D01*
X134690476Y-63678571D01*
X134738095Y-63630952D01*
X134833333Y-63583333D01*
X135071428Y-63583333D01*
X135166666Y-63630952D01*
X135214285Y-63678571D01*
X135261904Y-63773809D01*
X135261904Y-64011904D01*
X135214285Y-64107142D01*
X135166666Y-64154761D01*
X135071428Y-64202380D01*
X134833333Y-64202380D01*
X134738095Y-64154761D01*
X134690476Y-64107142D01*
X139261904Y-65678571D02*
X139595238Y-65678571D01*
X139738095Y-66202380D02*
X139261904Y-66202380D01*
X139261904Y-65202380D01*
X139738095Y-65202380D01*
X140166666Y-66202380D02*
X140166666Y-65202380D01*
X140738095Y-66202380D01*
X140738095Y-65202380D01*
X149166666Y-63202380D02*
X149500000Y-64202380D01*
X149833333Y-63202380D01*
X150166666Y-64202380D02*
X150166666Y-63202380D01*
X150547619Y-63202380D01*
X150642857Y-63250000D01*
X150690476Y-63297619D01*
X150738095Y-63392857D01*
X150738095Y-63535714D01*
X150690476Y-63630952D01*
X150642857Y-63678571D01*
X150547619Y-63726190D01*
X150166666Y-63726190D01*
X146642857Y-63202380D02*
X146976190Y-64202380D01*
X147309523Y-63202380D01*
X147642857Y-64202380D02*
X147642857Y-63202380D01*
X148214285Y-64202380D01*
X148214285Y-63202380D01*
X128690476Y-63202380D02*
X129309523Y-63202380D01*
X128976190Y-63583333D01*
X129119047Y-63583333D01*
X129214285Y-63630952D01*
X129261904Y-63678571D01*
X129309523Y-63773809D01*
X129309523Y-64011904D01*
X129261904Y-64107142D01*
X129214285Y-64154761D01*
X129119047Y-64202380D01*
X128833333Y-64202380D01*
X128738095Y-64154761D01*
X128690476Y-64107142D01*
X130166666Y-63535714D02*
X130166666Y-64202380D01*
X129928571Y-63154761D02*
X129690476Y-63869047D01*
X130309523Y-63869047D01*
X131190476Y-65202380D02*
X131809523Y-65202380D01*
X131476190Y-65583333D01*
X131619047Y-65583333D01*
X131714285Y-65630952D01*
X131761904Y-65678571D01*
X131809523Y-65773809D01*
X131809523Y-66011904D01*
X131761904Y-66107142D01*
X131714285Y-66154761D01*
X131619047Y-66202380D01*
X131333333Y-66202380D01*
X131238095Y-66154761D01*
X131190476Y-66107142D01*
X132714285Y-65202380D02*
X132238095Y-65202380D01*
X132190476Y-65678571D01*
X132238095Y-65630952D01*
X132333333Y-65583333D01*
X132571428Y-65583333D01*
X132666666Y-65630952D01*
X132714285Y-65678571D01*
X132761904Y-65773809D01*
X132761904Y-66011904D01*
X132714285Y-66107142D01*
X132666666Y-66154761D01*
X132571428Y-66202380D01*
X132333333Y-66202380D01*
X132238095Y-66154761D01*
X132190476Y-66107142D01*
X133690476Y-65202380D02*
X134309523Y-65202380D01*
X133976190Y-65583333D01*
X134119047Y-65583333D01*
X134214285Y-65630952D01*
X134261904Y-65678571D01*
X134309523Y-65773809D01*
X134309523Y-66011904D01*
X134261904Y-66107142D01*
X134214285Y-66154761D01*
X134119047Y-66202380D01*
X133833333Y-66202380D01*
X133738095Y-66154761D01*
X133690476Y-66107142D01*
X134690476Y-65297619D02*
X134738095Y-65250000D01*
X134833333Y-65202380D01*
X135071428Y-65202380D01*
X135166666Y-65250000D01*
X135214285Y-65297619D01*
X135261904Y-65392857D01*
X135261904Y-65488095D01*
X135214285Y-65630952D01*
X134642857Y-66202380D01*
X135261904Y-66202380D01*
X136440476Y-65202380D02*
X137059523Y-65202380D01*
X136726190Y-65583333D01*
X136869047Y-65583333D01*
X136964285Y-65630952D01*
X137011904Y-65678571D01*
X137059523Y-65773809D01*
X137059523Y-66011904D01*
X137011904Y-66107142D01*
X136964285Y-66154761D01*
X136869047Y-66202380D01*
X136583333Y-66202380D01*
X136488095Y-66154761D01*
X136440476Y-66107142D01*
X137392857Y-65202380D02*
X138011904Y-65202380D01*
X137678571Y-65583333D01*
X137821428Y-65583333D01*
X137916666Y-65630952D01*
X137964285Y-65678571D01*
X138011904Y-65773809D01*
X138011904Y-66011904D01*
X137964285Y-66107142D01*
X137916666Y-66154761D01*
X137821428Y-66202380D01*
X137535714Y-66202380D01*
X137440476Y-66154761D01*
X137392857Y-66107142D01*
X159338095Y-64247619D02*
X159385714Y-64200000D01*
X159480952Y-64152380D01*
X159719047Y-64152380D01*
X159814285Y-64200000D01*
X159861904Y-64247619D01*
X159909523Y-64342857D01*
X159909523Y-64438095D01*
X159861904Y-64580952D01*
X159290476Y-65152380D01*
X159909523Y-65152380D01*
X160814285Y-64152380D02*
X160338095Y-64152380D01*
X160290476Y-64628571D01*
X160338095Y-64580952D01*
X160433333Y-64533333D01*
X160671428Y-64533333D01*
X160766666Y-64580952D01*
X160814285Y-64628571D01*
X160861904Y-64723809D01*
X160861904Y-64961904D01*
X160814285Y-65057142D01*
X160766666Y-65104761D01*
X160671428Y-65152380D01*
X160433333Y-65152380D01*
X160338095Y-65104761D01*
X160290476Y-65057142D01*
X159338095Y-62947619D02*
X159385714Y-62900000D01*
X159480952Y-62852380D01*
X159719047Y-62852380D01*
X159814285Y-62900000D01*
X159861904Y-62947619D01*
X159909523Y-63042857D01*
X159909523Y-63138095D01*
X159861904Y-63280952D01*
X159290476Y-63852380D01*
X159909523Y-63852380D01*
X160766666Y-62852380D02*
X160576190Y-62852380D01*
X160480952Y-62900000D01*
X160433333Y-62947619D01*
X160338095Y-63090476D01*
X160290476Y-63280952D01*
X160290476Y-63661904D01*
X160338095Y-63757142D01*
X160385714Y-63804761D01*
X160480952Y-63852380D01*
X160671428Y-63852380D01*
X160766666Y-63804761D01*
X160814285Y-63757142D01*
X160861904Y-63661904D01*
X160861904Y-63423809D01*
X160814285Y-63328571D01*
X160766666Y-63280952D01*
X160671428Y-63233333D01*
X160480952Y-63233333D01*
X160385714Y-63280952D01*
X160338095Y-63328571D01*
X160290476Y-63423809D01*
X156738095Y-63047619D02*
X156785714Y-63000000D01*
X156880952Y-62952380D01*
X157119047Y-62952380D01*
X157214285Y-63000000D01*
X157261904Y-63047619D01*
X157309523Y-63142857D01*
X157309523Y-63238095D01*
X157261904Y-63380952D01*
X156690476Y-63952380D01*
X157309523Y-63952380D01*
X157642857Y-62952380D02*
X158309523Y-62952380D01*
X157880952Y-63952380D01*
X139809523Y-64202380D02*
X139238095Y-64202380D01*
X139523809Y-64202380D02*
X139523809Y-63202380D01*
X139428571Y-63345238D01*
X139333333Y-63440476D01*
X139238095Y-63488095D01*
X140666666Y-63535714D02*
X140666666Y-64202380D01*
X140428571Y-63154761D02*
X140190476Y-63869047D01*
X140809523Y-63869047D01*
X142309523Y-64202380D02*
X141738095Y-64202380D01*
X142023809Y-64202380D02*
X142023809Y-63202380D01*
X141928571Y-63345238D01*
X141833333Y-63440476D01*
X141738095Y-63488095D01*
X142690476Y-63297619D02*
X142738095Y-63250000D01*
X142833333Y-63202380D01*
X143071428Y-63202380D01*
X143166666Y-63250000D01*
X143214285Y-63297619D01*
X143261904Y-63392857D01*
X143261904Y-63488095D01*
X143214285Y-63630952D01*
X142642857Y-64202380D01*
X143261904Y-64202380D01*
X137059523Y-64202380D02*
X136488095Y-64202380D01*
X136773809Y-64202380D02*
X136773809Y-63202380D01*
X136678571Y-63345238D01*
X136583333Y-63440476D01*
X136488095Y-63488095D01*
X137392857Y-63202380D02*
X138011904Y-63202380D01*
X137678571Y-63583333D01*
X137821428Y-63583333D01*
X137916666Y-63630952D01*
X137964285Y-63678571D01*
X138011904Y-63773809D01*
X138011904Y-64011904D01*
X137964285Y-64107142D01*
X137916666Y-64154761D01*
X137821428Y-64202380D01*
X137535714Y-64202380D01*
X137440476Y-64154761D01*
X137392857Y-64107142D01*
D15*
X106452380Y-63976190D02*
X106452380Y-63357142D01*
X106833333Y-63690476D01*
X106833333Y-63547619D01*
X106880952Y-63452380D01*
X106928571Y-63404761D01*
X107023809Y-63357142D01*
X107261904Y-63357142D01*
X107357142Y-63404761D01*
X107404761Y-63452380D01*
X107452380Y-63547619D01*
X107452380Y-63833333D01*
X107404761Y-63928571D01*
X107357142Y-63976190D01*
X107357142Y-62928571D02*
X107404761Y-62880952D01*
X107452380Y-62928571D01*
X107404761Y-62976190D01*
X107357142Y-62928571D01*
X107452380Y-62928571D01*
X106452380Y-62547619D02*
X106452380Y-61928571D01*
X106833333Y-62261904D01*
X106833333Y-62119047D01*
X106880952Y-62023809D01*
X106928571Y-61976190D01*
X107023809Y-61928571D01*
X107261904Y-61928571D01*
X107357142Y-61976190D01*
X107404761Y-62023809D01*
X107452380Y-62119047D01*
X107452380Y-62404761D01*
X107404761Y-62500000D01*
X107357142Y-62547619D01*
X106452380Y-61642857D02*
X107452380Y-61309523D01*
X106452380Y-60976190D01*
X106500000Y-59511904D02*
X106452380Y-59607142D01*
X106452380Y-59750000D01*
X106500000Y-59892857D01*
X106595238Y-59988095D01*
X106690476Y-60035714D01*
X106880952Y-60083333D01*
X107023809Y-60083333D01*
X107214285Y-60035714D01*
X107309523Y-59988095D01*
X107404761Y-59892857D01*
X107452380Y-59750000D01*
X107452380Y-59654761D01*
X107404761Y-59511904D01*
X107357142Y-59464285D01*
X107023809Y-59464285D01*
X107023809Y-59654761D01*
X107452380Y-59035714D02*
X106452380Y-59035714D01*
X107452380Y-58464285D01*
X106452380Y-58464285D01*
X107452380Y-57988095D02*
X106452380Y-57988095D01*
X106452380Y-57750000D01*
X106500000Y-57607142D01*
X106595238Y-57511904D01*
X106690476Y-57464285D01*
X106880952Y-57416666D01*
X107023809Y-57416666D01*
X107214285Y-57464285D01*
X107309523Y-57511904D01*
X107404761Y-57607142D01*
X107452380Y-57750000D01*
X107452380Y-57988095D01*
D18*
X155171428Y-80478571D02*
X155171428Y-81550000D01*
X155100000Y-81764285D01*
X154957142Y-81907142D01*
X154742857Y-81978571D01*
X154600000Y-81978571D01*
X156600000Y-81978571D02*
X155885714Y-81978571D01*
X155885714Y-80478571D01*
X157957142Y-81835714D02*
X157885714Y-81907142D01*
X157671428Y-81978571D01*
X157528571Y-81978571D01*
X157314285Y-81907142D01*
X157171428Y-81764285D01*
X157100000Y-81621428D01*
X157028571Y-81335714D01*
X157028571Y-81121428D01*
X157100000Y-80835714D01*
X157171428Y-80692857D01*
X157314285Y-80550000D01*
X157528571Y-80478571D01*
X157671428Y-80478571D01*
X157885714Y-80550000D01*
X157957142Y-80621428D01*
X159028571Y-80478571D02*
X159028571Y-81550000D01*
X158957142Y-81764285D01*
X158814285Y-81907142D01*
X158600000Y-81978571D01*
X158457142Y-81978571D01*
X160457142Y-81978571D02*
X159742857Y-81978571D01*
X159742857Y-80478571D01*
X161814285Y-81835714D02*
X161742857Y-81907142D01*
X161528571Y-81978571D01*
X161385714Y-81978571D01*
X161171428Y-81907142D01*
X161028571Y-81764285D01*
X160957142Y-81621428D01*
X160885714Y-81335714D01*
X160885714Y-81121428D01*
X160957142Y-80835714D01*
X161028571Y-80692857D01*
X161171428Y-80550000D01*
X161385714Y-80478571D01*
X161528571Y-80478571D01*
X161742857Y-80550000D01*
X161814285Y-80621428D01*
X162885714Y-80478571D02*
X162885714Y-81550000D01*
X162814285Y-81764285D01*
X162671428Y-81907142D01*
X162457142Y-81978571D01*
X162314285Y-81978571D01*
X164314285Y-81978571D02*
X163600000Y-81978571D01*
X163600000Y-80478571D01*
X165671428Y-81835714D02*
X165600000Y-81907142D01*
X165385714Y-81978571D01*
X165242857Y-81978571D01*
X165028571Y-81907142D01*
X164885714Y-81764285D01*
X164814285Y-81621428D01*
X164742857Y-81335714D01*
X164742857Y-81121428D01*
X164814285Y-80835714D01*
X164885714Y-80692857D01*
X165028571Y-80550000D01*
X165242857Y-80478571D01*
X165385714Y-80478571D01*
X165600000Y-80550000D01*
X165671428Y-80621428D01*
X166742857Y-80478571D02*
X166742857Y-81550000D01*
X166671428Y-81764285D01*
X166528571Y-81907142D01*
X166314285Y-81978571D01*
X166171428Y-81978571D01*
X168171428Y-81978571D02*
X167457142Y-81978571D01*
X167457142Y-80478571D01*
X169528571Y-81835714D02*
X169457142Y-81907142D01*
X169242857Y-81978571D01*
X169100000Y-81978571D01*
X168885714Y-81907142D01*
X168742857Y-81764285D01*
X168671428Y-81621428D01*
X168600000Y-81335714D01*
X168600000Y-81121428D01*
X168671428Y-80835714D01*
X168742857Y-80692857D01*
X168885714Y-80550000D01*
X169100000Y-80478571D01*
X169242857Y-80478571D01*
X169457142Y-80550000D01*
X169528571Y-80621428D01*
D14*
X169500000Y-115000000D02*
X97500000Y-115000000D01*
X169500000Y-57000000D02*
X97500000Y-57000000D01*
X89000000Y-65500000D02*
X89000000Y-106500000D01*
D11*
%TO.C,R304*%
X91487258Y-94777500D02*
X91012742Y-94777500D01*
X91487258Y-95822500D02*
X91012742Y-95822500D01*
%TO.C,L302*%
X99502064Y-95340000D02*
X98297936Y-95340000D01*
X99502064Y-98060000D02*
X98297936Y-98060000D01*
%TO.C,L301*%
X102480000Y-91609564D02*
X102480000Y-90405436D01*
X99760000Y-91609564D02*
X99760000Y-90405436D01*
%TO.C,C308*%
X92761252Y-96440000D02*
X91338748Y-96440000D01*
X92761252Y-98260000D02*
X91338748Y-98260000D01*
%TO.C,C307*%
X96235000Y-97111252D02*
X96235000Y-96588748D01*
X94765000Y-97111252D02*
X94765000Y-96588748D01*
%TO.C,C306*%
X101615000Y-96288748D02*
X101615000Y-96811252D01*
X103085000Y-96288748D02*
X103085000Y-96811252D01*
%TO.C,F301*%
X98830000Y-103663748D02*
X98830000Y-106436252D01*
X95410000Y-103663748D02*
X95410000Y-106436252D01*
%TO.C,F601*%
X116613748Y-103820000D02*
X119386252Y-103820000D01*
X116613748Y-107240000D02*
X119386252Y-107240000D01*
%TO.C,D201*%
X125010000Y-88900000D02*
X125010000Y-90900000D01*
X125010000Y-90900000D02*
X128910000Y-90900000D01*
X125010000Y-88900000D02*
X128910000Y-88900000D01*
%TO.C,J601*%
X124800000Y-114900000D02*
X124800000Y-113650000D01*
X123550000Y-114900000D02*
X124800000Y-114900000D01*
X112650000Y-109400000D02*
X118200000Y-109400000D01*
X112650000Y-112350000D02*
X112650000Y-109400000D01*
X111900000Y-112350000D02*
X112650000Y-112350000D01*
X123750000Y-109400000D02*
X118200000Y-109400000D01*
X123750000Y-112350000D02*
X123750000Y-109400000D01*
X124500000Y-112350000D02*
X123750000Y-112350000D01*
X111900000Y-114600000D02*
X113700000Y-114600000D01*
X111900000Y-113850000D02*
X111900000Y-114600000D01*
X113700000Y-113850000D02*
X111900000Y-113850000D01*
X113700000Y-114600000D02*
X113700000Y-113850000D01*
X122700000Y-114600000D02*
X124500000Y-114600000D01*
X122700000Y-113850000D02*
X122700000Y-114600000D01*
X124500000Y-113850000D02*
X122700000Y-113850000D01*
X124500000Y-114600000D02*
X124500000Y-113850000D01*
X115200000Y-114600000D02*
X121200000Y-114600000D01*
X115200000Y-113850000D02*
X115200000Y-114600000D01*
X121200000Y-113850000D02*
X115200000Y-113850000D01*
X121200000Y-114600000D02*
X121200000Y-113850000D01*
X111890000Y-114610000D02*
X124510000Y-114610000D01*
X111890000Y-108640000D02*
X111890000Y-114610000D01*
X124510000Y-108640000D02*
X111890000Y-108640000D01*
X124510000Y-114610000D02*
X124510000Y-108640000D01*
%TO.C,R202*%
X168210000Y-88337221D02*
X168210000Y-88662779D01*
X167190000Y-88337221D02*
X167190000Y-88662779D01*
%TO.C,U201*%
X171762999Y-66960000D02*
X171762999Y-66580000D01*
X178182999Y-66960000D02*
X171762999Y-66960000D01*
X178182999Y-85200000D02*
X171762999Y-85200000D01*
X178182999Y-66960000D02*
X178182999Y-85200000D01*
X152437999Y-85200000D02*
X152437999Y-84200000D01*
X153217999Y-85200000D02*
X152437999Y-85200000D01*
X152437999Y-66960000D02*
X152437999Y-67960000D01*
X153217999Y-66960000D02*
X152437999Y-66960000D01*
%TO.C,D502*%
X176685000Y-102065000D02*
X174400000Y-102065000D01*
X176685000Y-103535000D02*
X176685000Y-102065000D01*
X174400000Y-103535000D02*
X176685000Y-103535000D01*
%TO.C,J702*%
X141350000Y-106580000D02*
X141350000Y-109240000D01*
X149030000Y-106580000D02*
X141350000Y-106580000D01*
X149030000Y-109240000D02*
X141350000Y-109240000D01*
X149030000Y-106580000D02*
X149030000Y-109240000D01*
X150300000Y-106580000D02*
X151630000Y-106580000D01*
X151630000Y-106580000D02*
X151630000Y-107910000D01*
%TO.C,FB902*%
X131410000Y-107548578D02*
X131410000Y-107031422D01*
X129990000Y-107548578D02*
X129990000Y-107031422D01*
%TO.C,D902*%
X127420000Y-104900000D02*
X127420000Y-101050000D01*
X129420000Y-104900000D02*
X129420000Y-101050000D01*
X127420000Y-104900000D02*
X129420000Y-104900000D01*
%TO.C,R602*%
X112127064Y-100765000D02*
X111672936Y-100765000D01*
X112127064Y-102235000D02*
X111672936Y-102235000D01*
%TO.C,R601*%
X112127064Y-102765000D02*
X111672936Y-102765000D01*
X112127064Y-104235000D02*
X111672936Y-104235000D01*
%TO.C,J301*%
X105890000Y-114800000D02*
X105890000Y-113550000D01*
X104640000Y-114800000D02*
X105890000Y-114800000D01*
X98740000Y-109300000D02*
X101790000Y-109300000D01*
X98740000Y-112250000D02*
X98740000Y-109300000D01*
X97990000Y-112250000D02*
X98740000Y-112250000D01*
X104840000Y-109300000D02*
X101790000Y-109300000D01*
X104840000Y-112250000D02*
X104840000Y-109300000D01*
X105590000Y-112250000D02*
X104840000Y-112250000D01*
X97990000Y-114500000D02*
X99790000Y-114500000D01*
X97990000Y-113750000D02*
X97990000Y-114500000D01*
X99790000Y-113750000D02*
X97990000Y-113750000D01*
X99790000Y-114500000D02*
X99790000Y-113750000D01*
X103790000Y-114500000D02*
X105590000Y-114500000D01*
X103790000Y-113750000D02*
X103790000Y-114500000D01*
X105590000Y-113750000D02*
X103790000Y-113750000D01*
X105590000Y-114500000D02*
X105590000Y-113750000D01*
X101290000Y-114500000D02*
X102290000Y-114500000D01*
X101290000Y-113750000D02*
X101290000Y-114500000D01*
X102290000Y-113750000D02*
X101290000Y-113750000D01*
X102290000Y-114500000D02*
X102290000Y-113750000D01*
X97980000Y-114510000D02*
X105600000Y-114510000D01*
X97980000Y-108540000D02*
X97980000Y-114510000D01*
X105600000Y-108540000D02*
X97980000Y-108540000D01*
X105600000Y-114510000D02*
X105600000Y-108540000D01*
%TO.C,D602*%
X118745000Y-98880500D02*
X118745000Y-102780500D01*
X116745000Y-98880500D02*
X116745000Y-102780500D01*
X118745000Y-98880500D02*
X116745000Y-98880500D01*
D19*
%TO.C,J401*%
X173595000Y-101600000D02*
X173120000Y-101600000D01*
X173120000Y-101600000D02*
X173120000Y-93300000D01*
X173120000Y-93300000D02*
X173595000Y-93300000D01*
X175845000Y-101600000D02*
X176320000Y-101600000D01*
X176320000Y-101600000D02*
X176320000Y-93300000D01*
X176320000Y-93300000D02*
X175845000Y-93300000D01*
X172820000Y-99750000D02*
X172820000Y-97750000D01*
D11*
%TO.C,J203*%
X130220000Y-91870000D02*
X132880000Y-91870000D01*
X130220000Y-91810000D02*
X130220000Y-91870000D01*
X132880000Y-91810000D02*
X132880000Y-91870000D01*
X130220000Y-91810000D02*
X132880000Y-91810000D01*
X130220000Y-90540000D02*
X130220000Y-89210000D01*
X130220000Y-89210000D02*
X131550000Y-89210000D01*
%TO.C,R906*%
X134022936Y-104525000D02*
X134477064Y-104525000D01*
X134022936Y-105995000D02*
X134477064Y-105995000D01*
%TO.C,J202*%
X106150000Y-57470000D02*
X106150000Y-58800000D01*
X104820000Y-57470000D02*
X106150000Y-57470000D01*
X106150000Y-60070000D02*
X106150000Y-62670000D01*
X103550000Y-60070000D02*
X106150000Y-60070000D01*
X103550000Y-57470000D02*
X103550000Y-60070000D01*
X106150000Y-62670000D02*
X98410000Y-62670000D01*
X103550000Y-57470000D02*
X98410000Y-57470000D01*
X98410000Y-57470000D02*
X98410000Y-62670000D01*
%TO.C,R1103*%
X149746359Y-80120000D02*
X150053641Y-80120000D01*
X149746359Y-79360000D02*
X150053641Y-79360000D01*
%TO.C,D1102*%
X153000000Y-100200000D02*
X153000000Y-98550000D01*
X154800000Y-98550000D02*
X154800000Y-99850000D01*
%TO.C,D1101*%
X148800000Y-80440000D02*
X150450000Y-80440000D01*
X150450000Y-82240000D02*
X149150000Y-82240000D01*
%TO.C,J201*%
X118060000Y-57470000D02*
X118060000Y-62670000D01*
X166380000Y-57470000D02*
X118060000Y-57470000D01*
X168980000Y-62670000D02*
X118060000Y-62670000D01*
X166380000Y-57470000D02*
X166380000Y-60070000D01*
X166380000Y-60070000D02*
X168980000Y-60070000D01*
X168980000Y-60070000D02*
X168980000Y-62670000D01*
X167650000Y-57470000D02*
X168980000Y-57470000D01*
X168980000Y-57470000D02*
X168980000Y-58800000D01*
%TO.C,R905*%
X129195000Y-107517064D02*
X129195000Y-107062936D01*
X127725000Y-107517064D02*
X127725000Y-107062936D01*
%TO.C,U401*%
X167741500Y-96314000D02*
X167741500Y-92864000D01*
X167741500Y-96314000D02*
X167741500Y-98264000D01*
X157621500Y-96314000D02*
X157621500Y-94364000D01*
X157621500Y-96314000D02*
X157621500Y-98264000D01*
%TO.C,C503*%
X169840000Y-104341422D02*
X169840000Y-104858578D01*
X171260000Y-104341422D02*
X171260000Y-104858578D01*
%TO.C,F401*%
X170603500Y-101186064D02*
X170603500Y-99981936D01*
X172423500Y-101186064D02*
X172423500Y-99981936D01*
%TO.C,D303*%
X101200000Y-100600000D02*
X97300000Y-100600000D01*
X101200000Y-98600000D02*
X97300000Y-98600000D01*
X101200000Y-100600000D02*
X101200000Y-98600000D01*
%TO.C,FB401*%
X170064500Y-99626922D02*
X170064500Y-100144078D01*
X168644500Y-99626922D02*
X168644500Y-100144078D01*
%TO.C,U402*%
X171378500Y-97806500D02*
X170378500Y-97806500D01*
X171378500Y-95106500D02*
X170878500Y-95106500D01*
%TO.C,U701*%
X144420000Y-97000000D02*
X144420000Y-96500000D01*
X141720000Y-97000000D02*
X141720000Y-96000000D01*
%TO.C,J207*%
X95190000Y-67250000D02*
X97850000Y-67250000D01*
X97850000Y-67250000D02*
X97850000Y-85150000D01*
X95190000Y-67250000D02*
X95190000Y-85150000D01*
X95190000Y-85150000D02*
X97850000Y-85150000D01*
%TO.C,J206*%
X92205000Y-87690000D02*
X90875000Y-87690000D01*
X92205000Y-86360000D02*
X92205000Y-87690000D01*
X92205000Y-85090000D02*
X89545000Y-85090000D01*
X89545000Y-85090000D02*
X89545000Y-67250000D01*
X92205000Y-85090000D02*
X92205000Y-67250000D01*
X92205000Y-67250000D02*
X89545000Y-67250000D01*
%TO.C,J302*%
X99770000Y-107630000D02*
X99770000Y-106300000D01*
X101100000Y-107630000D02*
X99770000Y-107630000D01*
X102370000Y-107630000D02*
X102370000Y-104970000D01*
X102370000Y-104970000D02*
X104970000Y-104970000D01*
X102370000Y-107630000D02*
X104970000Y-107630000D01*
X104970000Y-107630000D02*
X104970000Y-104970000D01*
%TO.C,U902*%
X133806000Y-100481000D02*
X133806000Y-102171000D01*
X133591000Y-100481000D02*
X133806000Y-100481000D01*
X133591000Y-98171000D02*
X133591000Y-100481000D01*
X133591000Y-95861000D02*
X133806000Y-95861000D01*
X133591000Y-98171000D02*
X133591000Y-95861000D01*
X136411000Y-100481000D02*
X136196000Y-100481000D01*
X136411000Y-98171000D02*
X136411000Y-100481000D01*
X136411000Y-95861000D02*
X136196000Y-95861000D01*
X136411000Y-98171000D02*
X136411000Y-95861000D01*
%TO.C,U901*%
X139498000Y-95861000D02*
X139498000Y-94171000D01*
X139713000Y-95861000D02*
X139498000Y-95861000D01*
X139713000Y-98171000D02*
X139713000Y-95861000D01*
X139713000Y-100481000D02*
X139498000Y-100481000D01*
X139713000Y-98171000D02*
X139713000Y-100481000D01*
X136893000Y-95861000D02*
X137108000Y-95861000D01*
X136893000Y-98171000D02*
X136893000Y-95861000D01*
X136893000Y-100481000D02*
X137108000Y-100481000D01*
X136893000Y-98171000D02*
X136893000Y-100481000D01*
%TO.C,R904*%
X133887221Y-107520000D02*
X134212779Y-107520000D01*
X133887221Y-106500000D02*
X134212779Y-106500000D01*
%TO.C,R903*%
X133887221Y-104020000D02*
X134212779Y-104020000D01*
X133887221Y-103000000D02*
X134212779Y-103000000D01*
%TO.C,D901*%
X135610000Y-107130000D02*
X139460000Y-107130000D01*
X135610000Y-109130000D02*
X139460000Y-109130000D01*
X135610000Y-107130000D02*
X135610000Y-109130000D01*
%TO.C,R902*%
X131226779Y-93089000D02*
X130901221Y-93089000D01*
X131226779Y-94109000D02*
X130901221Y-94109000D01*
%TO.C,C202*%
X170612779Y-65060000D02*
X170287221Y-65060000D01*
X170612779Y-64040000D02*
X170287221Y-64040000D01*
%TO.C,C301*%
X95110000Y-93352064D02*
X95110000Y-92147936D01*
X93290000Y-93352064D02*
X93290000Y-92147936D01*
%TO.C,C304*%
X101110000Y-87108578D02*
X101110000Y-86591422D01*
X99690000Y-87108578D02*
X99690000Y-86591422D01*
%TO.C,C402*%
X155990000Y-96337221D02*
X155990000Y-96662779D01*
X157010000Y-96337221D02*
X157010000Y-96662779D01*
%TO.C,C501*%
X166912779Y-101640000D02*
X166587221Y-101640000D01*
X166912779Y-102660000D02*
X166587221Y-102660000D01*
%TO.C,C502*%
X169840000Y-108562779D02*
X169840000Y-108237221D01*
X170860000Y-108562779D02*
X170860000Y-108237221D01*
%TO.C,C603*%
X120661500Y-99753922D02*
X120661500Y-100271078D01*
X119241500Y-99753922D02*
X119241500Y-100271078D01*
%TO.C,C605*%
X119364721Y-93334000D02*
X119690279Y-93334000D01*
X119364721Y-94354000D02*
X119690279Y-94354000D01*
%TO.C,C704*%
X152018000Y-93110064D02*
X152018000Y-91905936D01*
X150198000Y-93110064D02*
X150198000Y-91905936D01*
%TO.C,C705*%
X141895000Y-93354279D02*
X141895000Y-93028721D01*
X140875000Y-93354279D02*
X140875000Y-93028721D01*
%TO.C,C706*%
X144515000Y-93404279D02*
X144515000Y-93078721D01*
X145535000Y-93404279D02*
X145535000Y-93078721D01*
%TO.C,C802*%
X151090221Y-97233000D02*
X151415779Y-97233000D01*
X151090221Y-96213000D02*
X151415779Y-96213000D01*
%TO.C,C803*%
X147537064Y-101189000D02*
X146332936Y-101189000D01*
X147537064Y-99369000D02*
X146332936Y-99369000D01*
%TO.C,C904*%
X129507064Y-111097000D02*
X128302936Y-111097000D01*
X129507064Y-109277000D02*
X128302936Y-109277000D01*
%TO.C,C905*%
X133019779Y-110058000D02*
X132694221Y-110058000D01*
X133019779Y-111078000D02*
X132694221Y-111078000D01*
%TO.C,C906*%
X138140000Y-113382779D02*
X138140000Y-113057221D01*
X139160000Y-113382779D02*
X139160000Y-113057221D01*
%TO.C,D301*%
X94904000Y-99223000D02*
X94904000Y-104923000D01*
X90604000Y-99223000D02*
X90604000Y-104923000D01*
X94904000Y-99223000D02*
X90604000Y-99223000D01*
%TO.C,D302*%
X99050000Y-90209000D02*
X99050000Y-88209000D01*
X99050000Y-88209000D02*
X95150000Y-88209000D01*
X99050000Y-90209000D02*
X95150000Y-90209000D01*
%TO.C,D501*%
X174400000Y-105635000D02*
X176685000Y-105635000D01*
X176685000Y-105635000D02*
X176685000Y-104165000D01*
X176685000Y-104165000D02*
X174400000Y-104165000D01*
%TO.C,D601*%
X125467000Y-99329000D02*
X121167000Y-99329000D01*
X121167000Y-99329000D02*
X121167000Y-105029000D01*
X125467000Y-99329000D02*
X125467000Y-105029000D01*
%TO.C,FB301*%
X101010000Y-102341422D02*
X101010000Y-102858578D01*
X99590000Y-102341422D02*
X99590000Y-102858578D01*
%TO.C,FB601*%
X114800000Y-102056078D02*
X114800000Y-101538922D01*
X116220000Y-102056078D02*
X116220000Y-101538922D01*
%TO.C,FB701*%
X148239000Y-93350078D02*
X148239000Y-92832922D01*
X149659000Y-93350078D02*
X149659000Y-92832922D01*
%TO.C,FB702*%
X142580000Y-93300078D02*
X142580000Y-92782922D01*
X144000000Y-93300078D02*
X144000000Y-92782922D01*
%TO.C,FB703*%
X146220000Y-93350078D02*
X146220000Y-92832922D01*
X147640000Y-93350078D02*
X147640000Y-92832922D01*
%TO.C,FB801*%
X147653078Y-97410000D02*
X147135922Y-97410000D01*
X147653078Y-98830000D02*
X147135922Y-98830000D01*
%TO.C,FB903*%
X135821922Y-111024000D02*
X136339078Y-111024000D01*
X135821922Y-109604000D02*
X136339078Y-109604000D01*
%TO.C,FB904*%
X139700000Y-113286078D02*
X139700000Y-112768922D01*
X141120000Y-113286078D02*
X141120000Y-112768922D01*
%TO.C,J701*%
X150140000Y-114410000D02*
X146260000Y-114410000D01*
X145090000Y-111290000D02*
X146140000Y-111290000D01*
X145090000Y-112440000D02*
X145090000Y-111290000D01*
X150260000Y-111290000D02*
X150260000Y-110300000D01*
X151310000Y-111290000D02*
X150260000Y-111290000D01*
X151310000Y-112440000D02*
X151310000Y-111290000D01*
%TO.C,Q401*%
X153540000Y-103220000D02*
X154470000Y-103220000D01*
X156700000Y-103220000D02*
X155770000Y-103220000D01*
X156700000Y-103220000D02*
X156700000Y-101060000D01*
X153540000Y-103220000D02*
X153540000Y-101760000D01*
%TO.C,Q402*%
X157140000Y-103220000D02*
X157140000Y-101760000D01*
X160300000Y-103220000D02*
X160300000Y-101060000D01*
X160300000Y-103220000D02*
X159370000Y-103220000D01*
X157140000Y-103220000D02*
X158070000Y-103220000D01*
%TO.C,Q901*%
X136640000Y-105890000D02*
X137570000Y-105890000D01*
X139800000Y-105890000D02*
X138870000Y-105890000D01*
X139800000Y-105890000D02*
X139800000Y-103730000D01*
X136640000Y-105890000D02*
X136640000Y-104430000D01*
%TO.C,R203*%
X164740000Y-88333221D02*
X164740000Y-88658779D01*
X165760000Y-88333221D02*
X165760000Y-88658779D01*
%TO.C,R204*%
X162448000Y-88658779D02*
X162448000Y-88333221D01*
X161428000Y-88658779D02*
X161428000Y-88333221D01*
%TO.C,R205*%
X159396000Y-88658779D02*
X159396000Y-88333221D01*
X160416000Y-88658779D02*
X160416000Y-88333221D01*
%TO.C,R206*%
X156730000Y-88662779D02*
X156730000Y-88337221D01*
X155710000Y-88662779D02*
X155710000Y-88337221D01*
%TO.C,R207*%
X157410000Y-88662779D02*
X157410000Y-88337221D01*
X158430000Y-88662779D02*
X158430000Y-88337221D01*
%TO.C,R208*%
X153780000Y-88652779D02*
X153780000Y-88327221D01*
X154800000Y-88652779D02*
X154800000Y-88327221D01*
%TO.C,R209*%
X134610000Y-91602779D02*
X134610000Y-91277221D01*
X133590000Y-91602779D02*
X133590000Y-91277221D01*
%TO.C,R210*%
X135253000Y-91602779D02*
X135253000Y-91277221D01*
X136273000Y-91602779D02*
X136273000Y-91277221D01*
%TO.C,R802*%
X151336078Y-99211000D02*
X150818922Y-99211000D01*
X151336078Y-97791000D02*
X150818922Y-97791000D01*
%TO.C,R901*%
X138465779Y-93347000D02*
X138140221Y-93347000D01*
X138465779Y-92327000D02*
X138140221Y-92327000D01*
%TO.C,U301*%
X95715000Y-91475000D02*
X95715000Y-93275000D01*
X98935000Y-93275000D02*
X98935000Y-90825000D01*
%TO.C,U602*%
X108091000Y-92710000D02*
X108091000Y-96130000D01*
X108091000Y-96130000D02*
X108381000Y-96130000D01*
X108091000Y-92710000D02*
X108091000Y-89290000D01*
X108091000Y-89290000D02*
X108381000Y-89290000D01*
X117461000Y-92710000D02*
X117461000Y-96130000D01*
X117461000Y-96130000D02*
X117171000Y-96130000D01*
X117461000Y-92710000D02*
X117461000Y-89290000D01*
X117461000Y-89290000D02*
X117171000Y-89290000D01*
X117171000Y-89290000D02*
X117171000Y-87010000D01*
%TO.C,U603*%
X117922000Y-97144000D02*
X117922000Y-95684000D01*
X121082000Y-97144000D02*
X121082000Y-94984000D01*
X121082000Y-97144000D02*
X120152000Y-97144000D01*
X117922000Y-97144000D02*
X118852000Y-97144000D01*
%TO.C,U801*%
X149903000Y-100033000D02*
X149903000Y-100533000D01*
X152603000Y-100033000D02*
X152603000Y-101033000D01*
%TO.C,SW501*%
X166500000Y-108700000D02*
X164000000Y-108700000D01*
X168000000Y-106950000D02*
X168000000Y-104950000D01*
X166500000Y-103200000D02*
X164000000Y-103200000D01*
X162500000Y-106950000D02*
X162500000Y-104950000D01*
X166950000Y-108250000D02*
X166500000Y-108700000D01*
X163550000Y-108250000D02*
X164000000Y-108700000D01*
X163550000Y-103650000D02*
X164000000Y-103200000D01*
X166950000Y-103650000D02*
X166500000Y-103200000D01*
%TO.C,SW502*%
X166950000Y-109700000D02*
X166500000Y-109250000D01*
X163550000Y-109700000D02*
X164000000Y-109250000D01*
X163550000Y-114300000D02*
X164000000Y-114750000D01*
X166950000Y-114300000D02*
X166500000Y-114750000D01*
X162500000Y-113000000D02*
X162500000Y-111000000D01*
X166500000Y-109250000D02*
X164000000Y-109250000D01*
X168000000Y-113000000D02*
X168000000Y-111000000D01*
X166500000Y-114750000D02*
X164000000Y-114750000D01*
%TO.C,J801*%
X143890000Y-102870000D02*
X143890000Y-105530000D01*
X149030000Y-102870000D02*
X143890000Y-102870000D01*
X149030000Y-105530000D02*
X143890000Y-105530000D01*
X149030000Y-102870000D02*
X149030000Y-105530000D01*
X150300000Y-102870000D02*
X151630000Y-102870000D01*
X151630000Y-102870000D02*
X151630000Y-104200000D01*
%TO.C,J901*%
X127090000Y-114530000D02*
X127090000Y-113200000D01*
X128420000Y-114530000D02*
X127090000Y-114530000D01*
X129690000Y-114530000D02*
X129690000Y-111870000D01*
X129690000Y-111870000D02*
X137370000Y-111870000D01*
X129690000Y-114530000D02*
X137370000Y-114530000D01*
X137370000Y-114530000D02*
X137370000Y-111870000D01*
%TD*%
M02*
