%TF.GenerationSoftware,KiCad,Pcbnew,(5.1.9-0-10_14)*%
%TF.CreationDate,2021-01-30T20:50:45+02:00*%
%TF.ProjectId,SH-ESP32,53482d45-5350-4333-922e-6b696361645f,0.3.0*%
%TF.SameCoordinates,Original*%
%TF.FileFunction,Soldermask,Top*%
%TF.FilePolarity,Negative*%
%FSLAX46Y46*%
G04 Gerber Fmt 4.6, Leading zero omitted, Abs format (unit mm)*
G04 Created by KiCad (PCBNEW (5.1.9-0-10_14)) date 2021-01-30 20:50:45*
%MOMM*%
%LPD*%
G01*
G04 APERTURE LIST*
%ADD10C,2.500000*%
%TA.AperFunction,Profile*%
%ADD11C,0.050000*%
%TD*%
%ADD12C,1.400000*%
%ADD13O,1.800000X2.050000*%
%ADD14C,2.200000*%
%ADD15O,1.800000X1.800000*%
%ADD16O,1.800000X2.100000*%
%ADD17C,0.940000*%
%ADD18O,1.950000X0.950000*%
%ADD19C,1.900000*%
%ADD20O,1.900000X1.800000*%
G04 APERTURE END LIST*
D10*
X114350347Y-63250000D02*
G75*
G03*
X114350347Y-63250000I-2600347J0D01*
G01*
X158850347Y-108750000D02*
G75*
G03*
X158850347Y-108750000I-2600347J0D01*
G01*
D11*
X178000000Y-90300000D02*
X178000000Y-106500000D01*
X172000000Y-90300000D02*
X172000000Y-63020000D01*
X178000000Y-90300000D02*
X172000000Y-90300000D01*
X169500000Y-115000000D02*
G75*
G02*
X178000000Y-106500000I8500000J0D01*
G01*
X89000000Y-106500000D02*
G75*
G02*
X97500000Y-115000000I0J-8500000D01*
G01*
X172000092Y-63020889D02*
G75*
G02*
X169500000Y-57000000I5999908J6020889D01*
G01*
X97500000Y-57000000D02*
G75*
G02*
X89000000Y-65500000I-8500000J0D01*
G01*
X169500000Y-115000000D02*
X97500000Y-115000000D01*
X169500000Y-57000000D02*
X97500000Y-57000000D01*
X89000000Y-65500000D02*
X89000000Y-106500000D01*
D12*
%TO.C,H903*%
X153700000Y-112250000D03*
%TD*%
%TO.C,H902*%
X109000000Y-112250000D03*
%TD*%
%TO.C,H901*%
X109050000Y-59100000D03*
%TD*%
%TO.C,R304*%
G36*
G01*
X90875000Y-95000000D02*
X90875000Y-95600000D01*
G75*
G02*
X90650000Y-95825000I-225000J0D01*
G01*
X90200000Y-95825000D01*
G75*
G02*
X89975000Y-95600000I0J225000D01*
G01*
X89975000Y-95000000D01*
G75*
G02*
X90200000Y-94775000I225000J0D01*
G01*
X90650000Y-94775000D01*
G75*
G02*
X90875000Y-95000000I0J-225000D01*
G01*
G37*
G36*
G01*
X92525000Y-95000000D02*
X92525000Y-95600000D01*
G75*
G02*
X92300000Y-95825000I-225000J0D01*
G01*
X91850000Y-95825000D01*
G75*
G02*
X91625000Y-95600000I0J225000D01*
G01*
X91625000Y-95000000D01*
G75*
G02*
X91850000Y-94775000I225000J0D01*
G01*
X92300000Y-94775000D01*
G75*
G02*
X92525000Y-95000000I0J-225000D01*
G01*
G37*
%TD*%
%TO.C,L302*%
G36*
G01*
X98175000Y-95595000D02*
X98175000Y-97805000D01*
G75*
G02*
X97905000Y-98075000I-270000J0D01*
G01*
X97095000Y-98075000D01*
G75*
G02*
X96825000Y-97805000I0J270000D01*
G01*
X96825000Y-95595000D01*
G75*
G02*
X97095000Y-95325000I270000J0D01*
G01*
X97905000Y-95325000D01*
G75*
G02*
X98175000Y-95595000I0J-270000D01*
G01*
G37*
G36*
G01*
X100975000Y-95595000D02*
X100975000Y-97805000D01*
G75*
G02*
X100705000Y-98075000I-270000J0D01*
G01*
X99895000Y-98075000D01*
G75*
G02*
X99625000Y-97805000I0J270000D01*
G01*
X99625000Y-95595000D01*
G75*
G02*
X99895000Y-95325000I270000J0D01*
G01*
X100705000Y-95325000D01*
G75*
G02*
X100975000Y-95595000I0J-270000D01*
G01*
G37*
%TD*%
%TO.C,L301*%
G36*
G01*
X102225000Y-90282500D02*
X100015000Y-90282500D01*
G75*
G02*
X99745000Y-90012500I0J270000D01*
G01*
X99745000Y-89202500D01*
G75*
G02*
X100015000Y-88932500I270000J0D01*
G01*
X102225000Y-88932500D01*
G75*
G02*
X102495000Y-89202500I0J-270000D01*
G01*
X102495000Y-90012500D01*
G75*
G02*
X102225000Y-90282500I-270000J0D01*
G01*
G37*
G36*
G01*
X102225000Y-93082500D02*
X100015000Y-93082500D01*
G75*
G02*
X99745000Y-92812500I0J270000D01*
G01*
X99745000Y-92002500D01*
G75*
G02*
X100015000Y-91732500I270000J0D01*
G01*
X102225000Y-91732500D01*
G75*
G02*
X102495000Y-92002500I0J-270000D01*
G01*
X102495000Y-92812500D01*
G75*
G02*
X102225000Y-93082500I-270000J0D01*
G01*
G37*
%TD*%
%TO.C,C308*%
G36*
G01*
X91200000Y-96671738D02*
X91200000Y-98028262D01*
G75*
G02*
X90928262Y-98300000I-271738J0D01*
G01*
X90221738Y-98300000D01*
G75*
G02*
X89950000Y-98028262I0J271738D01*
G01*
X89950000Y-96671738D01*
G75*
G02*
X90221738Y-96400000I271738J0D01*
G01*
X90928262Y-96400000D01*
G75*
G02*
X91200000Y-96671738I0J-271738D01*
G01*
G37*
G36*
G01*
X94150000Y-96671738D02*
X94150000Y-98028262D01*
G75*
G02*
X93878262Y-98300000I-271738J0D01*
G01*
X93171738Y-98300000D01*
G75*
G02*
X92900000Y-98028262I0J271738D01*
G01*
X92900000Y-96671738D01*
G75*
G02*
X93171738Y-96400000I271738J0D01*
G01*
X93878262Y-96400000D01*
G75*
G02*
X94150000Y-96671738I0J-271738D01*
G01*
G37*
%TD*%
%TO.C,C307*%
G36*
G01*
X96000000Y-96450000D02*
X95000000Y-96450000D01*
G75*
G02*
X94725000Y-96175000I0J275000D01*
G01*
X94725000Y-95625000D01*
G75*
G02*
X95000000Y-95350000I275000J0D01*
G01*
X96000000Y-95350000D01*
G75*
G02*
X96275000Y-95625000I0J-275000D01*
G01*
X96275000Y-96175000D01*
G75*
G02*
X96000000Y-96450000I-275000J0D01*
G01*
G37*
G36*
G01*
X96000000Y-98350000D02*
X95000000Y-98350000D01*
G75*
G02*
X94725000Y-98075000I0J275000D01*
G01*
X94725000Y-97525000D01*
G75*
G02*
X95000000Y-97250000I275000J0D01*
G01*
X96000000Y-97250000D01*
G75*
G02*
X96275000Y-97525000I0J-275000D01*
G01*
X96275000Y-98075000D01*
G75*
G02*
X96000000Y-98350000I-275000J0D01*
G01*
G37*
%TD*%
%TO.C,C306*%
G36*
G01*
X101850000Y-96950000D02*
X102850000Y-96950000D01*
G75*
G02*
X103125000Y-97225000I0J-275000D01*
G01*
X103125000Y-97775000D01*
G75*
G02*
X102850000Y-98050000I-275000J0D01*
G01*
X101850000Y-98050000D01*
G75*
G02*
X101575000Y-97775000I0J275000D01*
G01*
X101575000Y-97225000D01*
G75*
G02*
X101850000Y-96950000I275000J0D01*
G01*
G37*
G36*
G01*
X101850000Y-95050000D02*
X102850000Y-95050000D01*
G75*
G02*
X103125000Y-95325000I0J-275000D01*
G01*
X103125000Y-95875000D01*
G75*
G02*
X102850000Y-96150000I-275000J0D01*
G01*
X101850000Y-96150000D01*
G75*
G02*
X101575000Y-95875000I0J275000D01*
G01*
X101575000Y-95325000D01*
G75*
G02*
X101850000Y-95050000I275000J0D01*
G01*
G37*
%TD*%
%TO.C,F301*%
G36*
G01*
X95642220Y-106575000D02*
X98597780Y-106575000D01*
G75*
G02*
X98870000Y-106847220I0J-272220D01*
G01*
X98870000Y-107527780D01*
G75*
G02*
X98597780Y-107800000I-272220J0D01*
G01*
X95642220Y-107800000D01*
G75*
G02*
X95370000Y-107527780I0J272220D01*
G01*
X95370000Y-106847220D01*
G75*
G02*
X95642220Y-106575000I272220J0D01*
G01*
G37*
G36*
G01*
X95642220Y-102300000D02*
X98597780Y-102300000D01*
G75*
G02*
X98870000Y-102572220I0J-272220D01*
G01*
X98870000Y-103252780D01*
G75*
G02*
X98597780Y-103525000I-272220J0D01*
G01*
X95642220Y-103525000D01*
G75*
G02*
X95370000Y-103252780I0J272220D01*
G01*
X95370000Y-102572220D01*
G75*
G02*
X95642220Y-102300000I272220J0D01*
G01*
G37*
%TD*%
%TO.C,F601*%
G36*
G01*
X119525000Y-107007780D02*
X119525000Y-104052220D01*
G75*
G02*
X119797220Y-103780000I272220J0D01*
G01*
X120477780Y-103780000D01*
G75*
G02*
X120750000Y-104052220I0J-272220D01*
G01*
X120750000Y-107007780D01*
G75*
G02*
X120477780Y-107280000I-272220J0D01*
G01*
X119797220Y-107280000D01*
G75*
G02*
X119525000Y-107007780I0J272220D01*
G01*
G37*
G36*
G01*
X115250000Y-107007780D02*
X115250000Y-104052220D01*
G75*
G02*
X115522220Y-103780000I272220J0D01*
G01*
X116202780Y-103780000D01*
G75*
G02*
X116475000Y-104052220I0J-272220D01*
G01*
X116475000Y-107007780D01*
G75*
G02*
X116202780Y-107280000I-272220J0D01*
G01*
X115522220Y-107280000D01*
G75*
G02*
X115250000Y-107007780I0J272220D01*
G01*
G37*
%TD*%
%TO.C,D201*%
G36*
G01*
X128410000Y-90500000D02*
X128410000Y-89300000D01*
G75*
G02*
X128460000Y-89250000I50000J0D01*
G01*
X129360000Y-89250000D01*
G75*
G02*
X129410000Y-89300000I0J-50000D01*
G01*
X129410000Y-90500000D01*
G75*
G02*
X129360000Y-90550000I-50000J0D01*
G01*
X128460000Y-90550000D01*
G75*
G02*
X128410000Y-90500000I0J50000D01*
G01*
G37*
G36*
G01*
X125110000Y-90500000D02*
X125110000Y-89300000D01*
G75*
G02*
X125160000Y-89250000I50000J0D01*
G01*
X126060000Y-89250000D01*
G75*
G02*
X126110000Y-89300000I0J-50000D01*
G01*
X126110000Y-90500000D01*
G75*
G02*
X126060000Y-90550000I-50000J0D01*
G01*
X125160000Y-90550000D01*
G75*
G02*
X125110000Y-90500000I0J50000D01*
G01*
G37*
%TD*%
%TO.C,H1001*%
G36*
G01*
X114578427Y-66328427D02*
X114578427Y-66328427D01*
G75*
G02*
X110052943Y-66328427I-2262742J2262742D01*
G01*
X108921573Y-65197057D01*
G75*
G02*
X108921573Y-60671573I2262742J2262742D01*
G01*
X108921573Y-60671573D01*
G75*
G02*
X113447057Y-60671573I2262742J-2262742D01*
G01*
X114578427Y-61802943D01*
G75*
G02*
X114578427Y-66328427I-2262742J-2262742D01*
G01*
G37*
%TD*%
%TO.C,H1002*%
G36*
G01*
X159078427Y-111328427D02*
X159078427Y-111328427D01*
G75*
G02*
X154552943Y-111328427I-2262742J2262742D01*
G01*
X153421573Y-110197057D01*
G75*
G02*
X153421573Y-105671573I2262742J2262742D01*
G01*
X153421573Y-105671573D01*
G75*
G02*
X157947057Y-105671573I2262742J-2262742D01*
G01*
X159078427Y-106802943D01*
G75*
G02*
X159078427Y-111328427I-2262742J-2262742D01*
G01*
G37*
%TD*%
D13*
%TO.C,J601*%
X114450000Y-112150000D03*
X116950000Y-112150000D03*
X119450000Y-112150000D03*
G36*
G01*
X122850000Y-111389705D02*
X122850000Y-112910295D01*
G75*
G02*
X122585295Y-113175000I-264705J0D01*
G01*
X121314705Y-113175000D01*
G75*
G02*
X121050000Y-112910295I0J264705D01*
G01*
X121050000Y-111389705D01*
G75*
G02*
X121314705Y-111125000I264705J0D01*
G01*
X122585295Y-111125000D01*
G75*
G02*
X122850000Y-111389705I0J-264705D01*
G01*
G37*
%TD*%
%TO.C,R202*%
G36*
G01*
X167418750Y-87225000D02*
X167981250Y-87225000D01*
G75*
G02*
X168225000Y-87468750I0J-243750D01*
G01*
X168225000Y-87956250D01*
G75*
G02*
X167981250Y-88200000I-243750J0D01*
G01*
X167418750Y-88200000D01*
G75*
G02*
X167175000Y-87956250I0J243750D01*
G01*
X167175000Y-87468750D01*
G75*
G02*
X167418750Y-87225000I243750J0D01*
G01*
G37*
G36*
G01*
X167418750Y-88800000D02*
X167981250Y-88800000D01*
G75*
G02*
X168225000Y-89043750I0J-243750D01*
G01*
X168225000Y-89531250D01*
G75*
G02*
X167981250Y-89775000I-243750J0D01*
G01*
X167418750Y-89775000D01*
G75*
G02*
X167175000Y-89531250I0J243750D01*
G01*
X167175000Y-89043750D01*
G75*
G02*
X167418750Y-88800000I243750J0D01*
G01*
G37*
%TD*%
D14*
%TO.C,REF\u002A\u002A*%
X147320000Y-83820000D03*
%TD*%
%TO.C,REF\u002A\u002A*%
X99060000Y-83820000D03*
%TD*%
%TO.C,REF\u002A\u002A*%
X99060000Y-68580000D03*
%TD*%
%TO.C,REF\u002A\u002A*%
X147320000Y-68580000D03*
%TD*%
%TO.C,U201*%
G36*
G01*
X160572999Y-72530000D02*
X165572999Y-72530000D01*
G75*
G02*
X165622999Y-72580000I0J-50000D01*
G01*
X165622999Y-77580000D01*
G75*
G02*
X165572999Y-77630000I-50000J0D01*
G01*
X160572999Y-77630000D01*
G75*
G02*
X160522999Y-77580000I0J50000D01*
G01*
X160522999Y-72580000D01*
G75*
G02*
X160572999Y-72530000I50000J0D01*
G01*
G37*
G36*
G01*
X170122999Y-65530000D02*
X171022999Y-65530000D01*
G75*
G02*
X171072999Y-65580000I0J-50000D01*
G01*
X171072999Y-68580000D01*
G75*
G02*
X171022999Y-68630000I-50000J0D01*
G01*
X170122999Y-68630000D01*
G75*
G02*
X170072999Y-68580000I0J50000D01*
G01*
X170072999Y-65580000D01*
G75*
G02*
X170122999Y-65530000I50000J0D01*
G01*
G37*
G36*
G01*
X168852999Y-65530000D02*
X169752999Y-65530000D01*
G75*
G02*
X169802999Y-65580000I0J-50000D01*
G01*
X169802999Y-68580000D01*
G75*
G02*
X169752999Y-68630000I-50000J0D01*
G01*
X168852999Y-68630000D01*
G75*
G02*
X168802999Y-68580000I0J50000D01*
G01*
X168802999Y-65580000D01*
G75*
G02*
X168852999Y-65530000I50000J0D01*
G01*
G37*
G36*
G01*
X167582999Y-65530000D02*
X168482999Y-65530000D01*
G75*
G02*
X168532999Y-65580000I0J-50000D01*
G01*
X168532999Y-68580000D01*
G75*
G02*
X168482999Y-68630000I-50000J0D01*
G01*
X167582999Y-68630000D01*
G75*
G02*
X167532999Y-68580000I0J50000D01*
G01*
X167532999Y-65580000D01*
G75*
G02*
X167582999Y-65530000I50000J0D01*
G01*
G37*
G36*
G01*
X166312999Y-65530000D02*
X167212999Y-65530000D01*
G75*
G02*
X167262999Y-65580000I0J-50000D01*
G01*
X167262999Y-68580000D01*
G75*
G02*
X167212999Y-68630000I-50000J0D01*
G01*
X166312999Y-68630000D01*
G75*
G02*
X166262999Y-68580000I0J50000D01*
G01*
X166262999Y-65580000D01*
G75*
G02*
X166312999Y-65530000I50000J0D01*
G01*
G37*
G36*
G01*
X165042999Y-65530000D02*
X165942999Y-65530000D01*
G75*
G02*
X165992999Y-65580000I0J-50000D01*
G01*
X165992999Y-68580000D01*
G75*
G02*
X165942999Y-68630000I-50000J0D01*
G01*
X165042999Y-68630000D01*
G75*
G02*
X164992999Y-68580000I0J50000D01*
G01*
X164992999Y-65580000D01*
G75*
G02*
X165042999Y-65530000I50000J0D01*
G01*
G37*
G36*
G01*
X163772999Y-65530000D02*
X164672999Y-65530000D01*
G75*
G02*
X164722999Y-65580000I0J-50000D01*
G01*
X164722999Y-68580000D01*
G75*
G02*
X164672999Y-68630000I-50000J0D01*
G01*
X163772999Y-68630000D01*
G75*
G02*
X163722999Y-68580000I0J50000D01*
G01*
X163722999Y-65580000D01*
G75*
G02*
X163772999Y-65530000I50000J0D01*
G01*
G37*
G36*
G01*
X162502999Y-65530000D02*
X163402999Y-65530000D01*
G75*
G02*
X163452999Y-65580000I0J-50000D01*
G01*
X163452999Y-68580000D01*
G75*
G02*
X163402999Y-68630000I-50000J0D01*
G01*
X162502999Y-68630000D01*
G75*
G02*
X162452999Y-68580000I0J50000D01*
G01*
X162452999Y-65580000D01*
G75*
G02*
X162502999Y-65530000I50000J0D01*
G01*
G37*
G36*
G01*
X161232999Y-65530000D02*
X162132999Y-65530000D01*
G75*
G02*
X162182999Y-65580000I0J-50000D01*
G01*
X162182999Y-68580000D01*
G75*
G02*
X162132999Y-68630000I-50000J0D01*
G01*
X161232999Y-68630000D01*
G75*
G02*
X161182999Y-68580000I0J50000D01*
G01*
X161182999Y-65580000D01*
G75*
G02*
X161232999Y-65530000I50000J0D01*
G01*
G37*
G36*
G01*
X159962999Y-65530000D02*
X160862999Y-65530000D01*
G75*
G02*
X160912999Y-65580000I0J-50000D01*
G01*
X160912999Y-68580000D01*
G75*
G02*
X160862999Y-68630000I-50000J0D01*
G01*
X159962999Y-68630000D01*
G75*
G02*
X159912999Y-68580000I0J50000D01*
G01*
X159912999Y-65580000D01*
G75*
G02*
X159962999Y-65530000I50000J0D01*
G01*
G37*
G36*
G01*
X158692999Y-65530000D02*
X159592999Y-65530000D01*
G75*
G02*
X159642999Y-65580000I0J-50000D01*
G01*
X159642999Y-68580000D01*
G75*
G02*
X159592999Y-68630000I-50000J0D01*
G01*
X158692999Y-68630000D01*
G75*
G02*
X158642999Y-68580000I0J50000D01*
G01*
X158642999Y-65580000D01*
G75*
G02*
X158692999Y-65530000I50000J0D01*
G01*
G37*
G36*
G01*
X157422999Y-65530000D02*
X158322999Y-65530000D01*
G75*
G02*
X158372999Y-65580000I0J-50000D01*
G01*
X158372999Y-68580000D01*
G75*
G02*
X158322999Y-68630000I-50000J0D01*
G01*
X157422999Y-68630000D01*
G75*
G02*
X157372999Y-68580000I0J50000D01*
G01*
X157372999Y-65580000D01*
G75*
G02*
X157422999Y-65530000I50000J0D01*
G01*
G37*
G36*
G01*
X156152999Y-65530000D02*
X157052999Y-65530000D01*
G75*
G02*
X157102999Y-65580000I0J-50000D01*
G01*
X157102999Y-68580000D01*
G75*
G02*
X157052999Y-68630000I-50000J0D01*
G01*
X156152999Y-68630000D01*
G75*
G02*
X156102999Y-68580000I0J50000D01*
G01*
X156102999Y-65580000D01*
G75*
G02*
X156152999Y-65530000I50000J0D01*
G01*
G37*
G36*
G01*
X154882999Y-65530000D02*
X155782999Y-65530000D01*
G75*
G02*
X155832999Y-65580000I0J-50000D01*
G01*
X155832999Y-68580000D01*
G75*
G02*
X155782999Y-68630000I-50000J0D01*
G01*
X154882999Y-68630000D01*
G75*
G02*
X154832999Y-68580000I0J50000D01*
G01*
X154832999Y-65580000D01*
G75*
G02*
X154882999Y-65530000I50000J0D01*
G01*
G37*
G36*
G01*
X153612999Y-65530000D02*
X154512999Y-65530000D01*
G75*
G02*
X154562999Y-65580000I0J-50000D01*
G01*
X154562999Y-68580000D01*
G75*
G02*
X154512999Y-68630000I-50000J0D01*
G01*
X153612999Y-68630000D01*
G75*
G02*
X153562999Y-68580000I0J50000D01*
G01*
X153562999Y-65580000D01*
G75*
G02*
X153612999Y-65530000I50000J0D01*
G01*
G37*
G36*
G01*
X151012999Y-70815000D02*
X151012999Y-69915000D01*
G75*
G02*
X151062999Y-69865000I50000J0D01*
G01*
X154062999Y-69865000D01*
G75*
G02*
X154112999Y-69915000I0J-50000D01*
G01*
X154112999Y-70815000D01*
G75*
G02*
X154062999Y-70865000I-50000J0D01*
G01*
X151062999Y-70865000D01*
G75*
G02*
X151012999Y-70815000I0J50000D01*
G01*
G37*
G36*
G01*
X151012999Y-72085000D02*
X151012999Y-71185000D01*
G75*
G02*
X151062999Y-71135000I50000J0D01*
G01*
X154062999Y-71135000D01*
G75*
G02*
X154112999Y-71185000I0J-50000D01*
G01*
X154112999Y-72085000D01*
G75*
G02*
X154062999Y-72135000I-50000J0D01*
G01*
X151062999Y-72135000D01*
G75*
G02*
X151012999Y-72085000I0J50000D01*
G01*
G37*
G36*
G01*
X151012999Y-73355000D02*
X151012999Y-72455000D01*
G75*
G02*
X151062999Y-72405000I50000J0D01*
G01*
X154062999Y-72405000D01*
G75*
G02*
X154112999Y-72455000I0J-50000D01*
G01*
X154112999Y-73355000D01*
G75*
G02*
X154062999Y-73405000I-50000J0D01*
G01*
X151062999Y-73405000D01*
G75*
G02*
X151012999Y-73355000I0J50000D01*
G01*
G37*
G36*
G01*
X151012999Y-74625000D02*
X151012999Y-73725000D01*
G75*
G02*
X151062999Y-73675000I50000J0D01*
G01*
X154062999Y-73675000D01*
G75*
G02*
X154112999Y-73725000I0J-50000D01*
G01*
X154112999Y-74625000D01*
G75*
G02*
X154062999Y-74675000I-50000J0D01*
G01*
X151062999Y-74675000D01*
G75*
G02*
X151012999Y-74625000I0J50000D01*
G01*
G37*
G36*
G01*
X151012999Y-75895000D02*
X151012999Y-74995000D01*
G75*
G02*
X151062999Y-74945000I50000J0D01*
G01*
X154062999Y-74945000D01*
G75*
G02*
X154112999Y-74995000I0J-50000D01*
G01*
X154112999Y-75895000D01*
G75*
G02*
X154062999Y-75945000I-50000J0D01*
G01*
X151062999Y-75945000D01*
G75*
G02*
X151012999Y-75895000I0J50000D01*
G01*
G37*
G36*
G01*
X151012999Y-77165000D02*
X151012999Y-76265000D01*
G75*
G02*
X151062999Y-76215000I50000J0D01*
G01*
X154062999Y-76215000D01*
G75*
G02*
X154112999Y-76265000I0J-50000D01*
G01*
X154112999Y-77165000D01*
G75*
G02*
X154062999Y-77215000I-50000J0D01*
G01*
X151062999Y-77215000D01*
G75*
G02*
X151012999Y-77165000I0J50000D01*
G01*
G37*
G36*
G01*
X151012999Y-78435000D02*
X151012999Y-77535000D01*
G75*
G02*
X151062999Y-77485000I50000J0D01*
G01*
X154062999Y-77485000D01*
G75*
G02*
X154112999Y-77535000I0J-50000D01*
G01*
X154112999Y-78435000D01*
G75*
G02*
X154062999Y-78485000I-50000J0D01*
G01*
X151062999Y-78485000D01*
G75*
G02*
X151012999Y-78435000I0J50000D01*
G01*
G37*
G36*
G01*
X151012999Y-79705000D02*
X151012999Y-78805000D01*
G75*
G02*
X151062999Y-78755000I50000J0D01*
G01*
X154062999Y-78755000D01*
G75*
G02*
X154112999Y-78805000I0J-50000D01*
G01*
X154112999Y-79705000D01*
G75*
G02*
X154062999Y-79755000I-50000J0D01*
G01*
X151062999Y-79755000D01*
G75*
G02*
X151012999Y-79705000I0J50000D01*
G01*
G37*
G36*
G01*
X151012999Y-80975000D02*
X151012999Y-80075000D01*
G75*
G02*
X151062999Y-80025000I50000J0D01*
G01*
X154062999Y-80025000D01*
G75*
G02*
X154112999Y-80075000I0J-50000D01*
G01*
X154112999Y-80975000D01*
G75*
G02*
X154062999Y-81025000I-50000J0D01*
G01*
X151062999Y-81025000D01*
G75*
G02*
X151012999Y-80975000I0J50000D01*
G01*
G37*
G36*
G01*
X151012999Y-82245000D02*
X151012999Y-81345000D01*
G75*
G02*
X151062999Y-81295000I50000J0D01*
G01*
X154062999Y-81295000D01*
G75*
G02*
X154112999Y-81345000I0J-50000D01*
G01*
X154112999Y-82245000D01*
G75*
G02*
X154062999Y-82295000I-50000J0D01*
G01*
X151062999Y-82295000D01*
G75*
G02*
X151012999Y-82245000I0J50000D01*
G01*
G37*
G36*
G01*
X153612999Y-83530000D02*
X154512999Y-83530000D01*
G75*
G02*
X154562999Y-83580000I0J-50000D01*
G01*
X154562999Y-86580000D01*
G75*
G02*
X154512999Y-86630000I-50000J0D01*
G01*
X153612999Y-86630000D01*
G75*
G02*
X153562999Y-86580000I0J50000D01*
G01*
X153562999Y-83580000D01*
G75*
G02*
X153612999Y-83530000I50000J0D01*
G01*
G37*
G36*
G01*
X154882999Y-83530000D02*
X155782999Y-83530000D01*
G75*
G02*
X155832999Y-83580000I0J-50000D01*
G01*
X155832999Y-86580000D01*
G75*
G02*
X155782999Y-86630000I-50000J0D01*
G01*
X154882999Y-86630000D01*
G75*
G02*
X154832999Y-86580000I0J50000D01*
G01*
X154832999Y-83580000D01*
G75*
G02*
X154882999Y-83530000I50000J0D01*
G01*
G37*
G36*
G01*
X156152999Y-83530000D02*
X157052999Y-83530000D01*
G75*
G02*
X157102999Y-83580000I0J-50000D01*
G01*
X157102999Y-86580000D01*
G75*
G02*
X157052999Y-86630000I-50000J0D01*
G01*
X156152999Y-86630000D01*
G75*
G02*
X156102999Y-86580000I0J50000D01*
G01*
X156102999Y-83580000D01*
G75*
G02*
X156152999Y-83530000I50000J0D01*
G01*
G37*
G36*
G01*
X157422999Y-83530000D02*
X158322999Y-83530000D01*
G75*
G02*
X158372999Y-83580000I0J-50000D01*
G01*
X158372999Y-86580000D01*
G75*
G02*
X158322999Y-86630000I-50000J0D01*
G01*
X157422999Y-86630000D01*
G75*
G02*
X157372999Y-86580000I0J50000D01*
G01*
X157372999Y-83580000D01*
G75*
G02*
X157422999Y-83530000I50000J0D01*
G01*
G37*
G36*
G01*
X158692999Y-83530000D02*
X159592999Y-83530000D01*
G75*
G02*
X159642999Y-83580000I0J-50000D01*
G01*
X159642999Y-86580000D01*
G75*
G02*
X159592999Y-86630000I-50000J0D01*
G01*
X158692999Y-86630000D01*
G75*
G02*
X158642999Y-86580000I0J50000D01*
G01*
X158642999Y-83580000D01*
G75*
G02*
X158692999Y-83530000I50000J0D01*
G01*
G37*
G36*
G01*
X159962999Y-83530000D02*
X160862999Y-83530000D01*
G75*
G02*
X160912999Y-83580000I0J-50000D01*
G01*
X160912999Y-86580000D01*
G75*
G02*
X160862999Y-86630000I-50000J0D01*
G01*
X159962999Y-86630000D01*
G75*
G02*
X159912999Y-86580000I0J50000D01*
G01*
X159912999Y-83580000D01*
G75*
G02*
X159962999Y-83530000I50000J0D01*
G01*
G37*
G36*
G01*
X161232999Y-83530000D02*
X162132999Y-83530000D01*
G75*
G02*
X162182999Y-83580000I0J-50000D01*
G01*
X162182999Y-86580000D01*
G75*
G02*
X162132999Y-86630000I-50000J0D01*
G01*
X161232999Y-86630000D01*
G75*
G02*
X161182999Y-86580000I0J50000D01*
G01*
X161182999Y-83580000D01*
G75*
G02*
X161232999Y-83530000I50000J0D01*
G01*
G37*
G36*
G01*
X162502999Y-83530000D02*
X163402999Y-83530000D01*
G75*
G02*
X163452999Y-83580000I0J-50000D01*
G01*
X163452999Y-86580000D01*
G75*
G02*
X163402999Y-86630000I-50000J0D01*
G01*
X162502999Y-86630000D01*
G75*
G02*
X162452999Y-86580000I0J50000D01*
G01*
X162452999Y-83580000D01*
G75*
G02*
X162502999Y-83530000I50000J0D01*
G01*
G37*
G36*
G01*
X163772999Y-83530000D02*
X164672999Y-83530000D01*
G75*
G02*
X164722999Y-83580000I0J-50000D01*
G01*
X164722999Y-86580000D01*
G75*
G02*
X164672999Y-86630000I-50000J0D01*
G01*
X163772999Y-86630000D01*
G75*
G02*
X163722999Y-86580000I0J50000D01*
G01*
X163722999Y-83580000D01*
G75*
G02*
X163772999Y-83530000I50000J0D01*
G01*
G37*
G36*
G01*
X165042999Y-83530000D02*
X165942999Y-83530000D01*
G75*
G02*
X165992999Y-83580000I0J-50000D01*
G01*
X165992999Y-86580000D01*
G75*
G02*
X165942999Y-86630000I-50000J0D01*
G01*
X165042999Y-86630000D01*
G75*
G02*
X164992999Y-86580000I0J50000D01*
G01*
X164992999Y-83580000D01*
G75*
G02*
X165042999Y-83530000I50000J0D01*
G01*
G37*
G36*
G01*
X166312999Y-83530000D02*
X167212999Y-83530000D01*
G75*
G02*
X167262999Y-83580000I0J-50000D01*
G01*
X167262999Y-86580000D01*
G75*
G02*
X167212999Y-86630000I-50000J0D01*
G01*
X166312999Y-86630000D01*
G75*
G02*
X166262999Y-86580000I0J50000D01*
G01*
X166262999Y-83580000D01*
G75*
G02*
X166312999Y-83530000I50000J0D01*
G01*
G37*
G36*
G01*
X167582999Y-83530000D02*
X168482999Y-83530000D01*
G75*
G02*
X168532999Y-83580000I0J-50000D01*
G01*
X168532999Y-86580000D01*
G75*
G02*
X168482999Y-86630000I-50000J0D01*
G01*
X167582999Y-86630000D01*
G75*
G02*
X167532999Y-86580000I0J50000D01*
G01*
X167532999Y-83580000D01*
G75*
G02*
X167582999Y-83530000I50000J0D01*
G01*
G37*
G36*
G01*
X168852999Y-83530000D02*
X169752999Y-83530000D01*
G75*
G02*
X169802999Y-83580000I0J-50000D01*
G01*
X169802999Y-86580000D01*
G75*
G02*
X169752999Y-86630000I-50000J0D01*
G01*
X168852999Y-86630000D01*
G75*
G02*
X168802999Y-86580000I0J50000D01*
G01*
X168802999Y-83580000D01*
G75*
G02*
X168852999Y-83530000I50000J0D01*
G01*
G37*
G36*
G01*
X170122999Y-83530000D02*
X171022999Y-83530000D01*
G75*
G02*
X171072999Y-83580000I0J-50000D01*
G01*
X171072999Y-86580000D01*
G75*
G02*
X171022999Y-86630000I-50000J0D01*
G01*
X170122999Y-86630000D01*
G75*
G02*
X170072999Y-86580000I0J50000D01*
G01*
X170072999Y-83580000D01*
G75*
G02*
X170122999Y-83530000I50000J0D01*
G01*
G37*
%TD*%
%TO.C,C1006*%
G36*
G01*
X172690000Y-106247500D02*
X172690000Y-105852500D01*
G75*
G02*
X172862500Y-105680000I172500J0D01*
G01*
X173207500Y-105680000D01*
G75*
G02*
X173380000Y-105852500I0J-172500D01*
G01*
X173380000Y-106247500D01*
G75*
G02*
X173207500Y-106420000I-172500J0D01*
G01*
X172862500Y-106420000D01*
G75*
G02*
X172690000Y-106247500I0J172500D01*
G01*
G37*
G36*
G01*
X171720000Y-106247500D02*
X171720000Y-105852500D01*
G75*
G02*
X171892500Y-105680000I172500J0D01*
G01*
X172237500Y-105680000D01*
G75*
G02*
X172410000Y-105852500I0J-172500D01*
G01*
X172410000Y-106247500D01*
G75*
G02*
X172237500Y-106420000I-172500J0D01*
G01*
X171892500Y-106420000D01*
G75*
G02*
X171720000Y-106247500I0J172500D01*
G01*
G37*
%TD*%
%TO.C,D502*%
G36*
G01*
X174900000Y-102518750D02*
X174900000Y-103081250D01*
G75*
G02*
X174656250Y-103325000I-243750J0D01*
G01*
X174168750Y-103325000D01*
G75*
G02*
X173925000Y-103081250I0J243750D01*
G01*
X173925000Y-102518750D01*
G75*
G02*
X174168750Y-102275000I243750J0D01*
G01*
X174656250Y-102275000D01*
G75*
G02*
X174900000Y-102518750I0J-243750D01*
G01*
G37*
G36*
G01*
X176475000Y-102518750D02*
X176475000Y-103081250D01*
G75*
G02*
X176231250Y-103325000I-243750J0D01*
G01*
X175743750Y-103325000D01*
G75*
G02*
X175500000Y-103081250I0J243750D01*
G01*
X175500000Y-102518750D01*
G75*
G02*
X175743750Y-102275000I243750J0D01*
G01*
X176231250Y-102275000D01*
G75*
G02*
X176475000Y-102518750I0J-243750D01*
G01*
G37*
%TD*%
%TO.C,J702*%
G36*
G01*
X149450000Y-107010000D02*
X151150000Y-107010000D01*
G75*
G02*
X151200000Y-107060000I0J-50000D01*
G01*
X151200000Y-108760000D01*
G75*
G02*
X151150000Y-108810000I-50000J0D01*
G01*
X149450000Y-108810000D01*
G75*
G02*
X149400000Y-108760000I0J50000D01*
G01*
X149400000Y-107060000D01*
G75*
G02*
X149450000Y-107010000I50000J0D01*
G01*
G37*
D15*
X147760000Y-107910000D03*
X145220000Y-107910000D03*
X142680000Y-107910000D03*
%TD*%
%TO.C,FB902*%
G36*
G01*
X131181250Y-106890000D02*
X130218750Y-106890000D01*
G75*
G02*
X129950000Y-106621250I0J268750D01*
G01*
X129950000Y-106083750D01*
G75*
G02*
X130218750Y-105815000I268750J0D01*
G01*
X131181250Y-105815000D01*
G75*
G02*
X131450000Y-106083750I0J-268750D01*
G01*
X131450000Y-106621250D01*
G75*
G02*
X131181250Y-106890000I-268750J0D01*
G01*
G37*
G36*
G01*
X131181250Y-108765000D02*
X130218750Y-108765000D01*
G75*
G02*
X129950000Y-108496250I0J268750D01*
G01*
X129950000Y-107958750D01*
G75*
G02*
X130218750Y-107690000I268750J0D01*
G01*
X131181250Y-107690000D01*
G75*
G02*
X131450000Y-107958750I0J-268750D01*
G01*
X131450000Y-108496250D01*
G75*
G02*
X131181250Y-108765000I-268750J0D01*
G01*
G37*
%TD*%
%TO.C,D902*%
G36*
G01*
X128970000Y-101900000D02*
X127870000Y-101900000D01*
G75*
G02*
X127820000Y-101850000I0J50000D01*
G01*
X127820000Y-100750000D01*
G75*
G02*
X127870000Y-100700000I50000J0D01*
G01*
X128970000Y-100700000D01*
G75*
G02*
X129020000Y-100750000I0J-50000D01*
G01*
X129020000Y-101850000D01*
G75*
G02*
X128970000Y-101900000I-50000J0D01*
G01*
G37*
G36*
G01*
X128970000Y-104700000D02*
X127870000Y-104700000D01*
G75*
G02*
X127820000Y-104650000I0J50000D01*
G01*
X127820000Y-103550000D01*
G75*
G02*
X127870000Y-103500000I50000J0D01*
G01*
X128970000Y-103500000D01*
G75*
G02*
X129020000Y-103550000I0J-50000D01*
G01*
X129020000Y-104650000D01*
G75*
G02*
X128970000Y-104700000I-50000J0D01*
G01*
G37*
%TD*%
%TO.C,R602*%
G36*
G01*
X111550000Y-101024388D02*
X111550000Y-101975612D01*
G75*
G02*
X111275612Y-102250000I-274388J0D01*
G01*
X110699388Y-102250000D01*
G75*
G02*
X110425000Y-101975612I0J274388D01*
G01*
X110425000Y-101024388D01*
G75*
G02*
X110699388Y-100750000I274388J0D01*
G01*
X111275612Y-100750000D01*
G75*
G02*
X111550000Y-101024388I0J-274388D01*
G01*
G37*
G36*
G01*
X113375000Y-101024388D02*
X113375000Y-101975612D01*
G75*
G02*
X113100612Y-102250000I-274388J0D01*
G01*
X112524388Y-102250000D01*
G75*
G02*
X112250000Y-101975612I0J274388D01*
G01*
X112250000Y-101024388D01*
G75*
G02*
X112524388Y-100750000I274388J0D01*
G01*
X113100612Y-100750000D01*
G75*
G02*
X113375000Y-101024388I0J-274388D01*
G01*
G37*
%TD*%
%TO.C,R601*%
G36*
G01*
X111550000Y-103024388D02*
X111550000Y-103975612D01*
G75*
G02*
X111275612Y-104250000I-274388J0D01*
G01*
X110699388Y-104250000D01*
G75*
G02*
X110425000Y-103975612I0J274388D01*
G01*
X110425000Y-103024388D01*
G75*
G02*
X110699388Y-102750000I274388J0D01*
G01*
X111275612Y-102750000D01*
G75*
G02*
X111550000Y-103024388I0J-274388D01*
G01*
G37*
G36*
G01*
X113375000Y-103024388D02*
X113375000Y-103975612D01*
G75*
G02*
X113100612Y-104250000I-274388J0D01*
G01*
X112524388Y-104250000D01*
G75*
G02*
X112250000Y-103975612I0J274388D01*
G01*
X112250000Y-103024388D01*
G75*
G02*
X112524388Y-102750000I274388J0D01*
G01*
X113100612Y-102750000D01*
G75*
G02*
X113375000Y-103024388I0J-274388D01*
G01*
G37*
%TD*%
D16*
%TO.C,J301*%
X100540000Y-112050000D03*
G36*
G01*
X103940000Y-111264705D02*
X103940000Y-112835295D01*
G75*
G02*
X103675295Y-113100000I-264705J0D01*
G01*
X102404705Y-113100000D01*
G75*
G02*
X102140000Y-112835295I0J264705D01*
G01*
X102140000Y-111264705D01*
G75*
G02*
X102404705Y-111000000I264705J0D01*
G01*
X103675295Y-111000000D01*
G75*
G02*
X103940000Y-111264705I0J-264705D01*
G01*
G37*
%TD*%
%TO.C,D602*%
G36*
G01*
X117145000Y-102280500D02*
X118345000Y-102280500D01*
G75*
G02*
X118395000Y-102330500I0J-50000D01*
G01*
X118395000Y-103230500D01*
G75*
G02*
X118345000Y-103280500I-50000J0D01*
G01*
X117145000Y-103280500D01*
G75*
G02*
X117095000Y-103230500I0J50000D01*
G01*
X117095000Y-102330500D01*
G75*
G02*
X117145000Y-102280500I50000J0D01*
G01*
G37*
G36*
G01*
X117145000Y-98980500D02*
X118345000Y-98980500D01*
G75*
G02*
X118395000Y-99030500I0J-50000D01*
G01*
X118395000Y-99930500D01*
G75*
G02*
X118345000Y-99980500I-50000J0D01*
G01*
X117145000Y-99980500D01*
G75*
G02*
X117095000Y-99930500I0J50000D01*
G01*
X117095000Y-99030500D01*
G75*
G02*
X117145000Y-98980500I50000J0D01*
G01*
G37*
%TD*%
%TO.C,J401*%
G36*
G01*
X174920000Y-99220000D02*
X174080000Y-99220000D01*
G75*
G02*
X174030000Y-99170000I0J50000D01*
G01*
X174030000Y-98330000D01*
G75*
G02*
X174080000Y-98280000I50000J0D01*
G01*
X174920000Y-98280000D01*
G75*
G02*
X174970000Y-98330000I0J-50000D01*
G01*
X174970000Y-99170000D01*
G75*
G02*
X174920000Y-99220000I-50000J0D01*
G01*
G37*
D17*
X175500000Y-98100000D03*
X174500000Y-97450000D03*
X175500000Y-96800000D03*
X174500000Y-96150000D03*
D18*
X174720000Y-101025000D03*
X174720000Y-93875000D03*
%TD*%
%TO.C,J203*%
G36*
G01*
X130650000Y-91390000D02*
X130650000Y-89690000D01*
G75*
G02*
X130700000Y-89640000I50000J0D01*
G01*
X132400000Y-89640000D01*
G75*
G02*
X132450000Y-89690000I0J-50000D01*
G01*
X132450000Y-91390000D01*
G75*
G02*
X132400000Y-91440000I-50000J0D01*
G01*
X130700000Y-91440000D01*
G75*
G02*
X130650000Y-91390000I0J50000D01*
G01*
G37*
%TD*%
%TO.C,R906*%
G36*
G01*
X134600000Y-105735612D02*
X134600000Y-104784388D01*
G75*
G02*
X134874388Y-104510000I274388J0D01*
G01*
X135450612Y-104510000D01*
G75*
G02*
X135725000Y-104784388I0J-274388D01*
G01*
X135725000Y-105735612D01*
G75*
G02*
X135450612Y-106010000I-274388J0D01*
G01*
X134874388Y-106010000D01*
G75*
G02*
X134600000Y-105735612I0J274388D01*
G01*
G37*
G36*
G01*
X132775000Y-105735612D02*
X132775000Y-104784388D01*
G75*
G02*
X133049388Y-104510000I274388J0D01*
G01*
X133625612Y-104510000D01*
G75*
G02*
X133900000Y-104784388I0J-274388D01*
G01*
X133900000Y-105735612D01*
G75*
G02*
X133625612Y-106010000I-274388J0D01*
G01*
X133049388Y-106010000D01*
G75*
G02*
X132775000Y-105735612I0J274388D01*
G01*
G37*
%TD*%
%TO.C,C1022*%
G36*
G01*
X148942000Y-86532500D02*
X148942000Y-86137500D01*
G75*
G02*
X149114500Y-85965000I172500J0D01*
G01*
X149459500Y-85965000D01*
G75*
G02*
X149632000Y-86137500I0J-172500D01*
G01*
X149632000Y-86532500D01*
G75*
G02*
X149459500Y-86705000I-172500J0D01*
G01*
X149114500Y-86705000D01*
G75*
G02*
X148942000Y-86532500I0J172500D01*
G01*
G37*
G36*
G01*
X147972000Y-86532500D02*
X147972000Y-86137500D01*
G75*
G02*
X148144500Y-85965000I172500J0D01*
G01*
X148489500Y-85965000D01*
G75*
G02*
X148662000Y-86137500I0J-172500D01*
G01*
X148662000Y-86532500D01*
G75*
G02*
X148489500Y-86705000I-172500J0D01*
G01*
X148144500Y-86705000D01*
G75*
G02*
X147972000Y-86532500I0J172500D01*
G01*
G37*
%TD*%
D15*
%TO.C,J202*%
X99740000Y-61340000D03*
X99740000Y-58800000D03*
X102280000Y-61340000D03*
X102280000Y-58800000D03*
X104820000Y-61340000D03*
G36*
G01*
X103970000Y-57900000D02*
X105670000Y-57900000D01*
G75*
G02*
X105720000Y-57950000I0J-50000D01*
G01*
X105720000Y-59650000D01*
G75*
G02*
X105670000Y-59700000I-50000J0D01*
G01*
X103970000Y-59700000D01*
G75*
G02*
X103920000Y-59650000I0J50000D01*
G01*
X103920000Y-57950000D01*
G75*
G02*
X103970000Y-57900000I50000J0D01*
G01*
G37*
%TD*%
%TO.C,R1103*%
G36*
G01*
X150090000Y-79950000D02*
X150090000Y-79530000D01*
G75*
G02*
X150250000Y-79370000I160000J0D01*
G01*
X150570000Y-79370000D01*
G75*
G02*
X150730000Y-79530000I0J-160000D01*
G01*
X150730000Y-79950000D01*
G75*
G02*
X150570000Y-80110000I-160000J0D01*
G01*
X150250000Y-80110000D01*
G75*
G02*
X150090000Y-79950000I0J160000D01*
G01*
G37*
G36*
G01*
X149070000Y-79950000D02*
X149070000Y-79530000D01*
G75*
G02*
X149230000Y-79370000I160000J0D01*
G01*
X149550000Y-79370000D01*
G75*
G02*
X149710000Y-79530000I0J-160000D01*
G01*
X149710000Y-79950000D01*
G75*
G02*
X149550000Y-80110000I-160000J0D01*
G01*
X149230000Y-80110000D01*
G75*
G02*
X149070000Y-79950000I0J160000D01*
G01*
G37*
%TD*%
%TO.C,D1102*%
G36*
G01*
X154200000Y-99540000D02*
X154600000Y-99540000D01*
G75*
G02*
X154650000Y-99590000I0J-50000D01*
G01*
X154650000Y-100100000D01*
G75*
G02*
X154600000Y-100150000I-50000J0D01*
G01*
X154200000Y-100150000D01*
G75*
G02*
X154150000Y-100100000I0J50000D01*
G01*
X154150000Y-99590000D01*
G75*
G02*
X154200000Y-99540000I50000J0D01*
G01*
G37*
G36*
G01*
X153700000Y-98250000D02*
X154100000Y-98250000D01*
G75*
G02*
X154150000Y-98300000I0J-50000D01*
G01*
X154150000Y-98810000D01*
G75*
G02*
X154100000Y-98860000I-50000J0D01*
G01*
X153700000Y-98860000D01*
G75*
G02*
X153650000Y-98810000I0J50000D01*
G01*
X153650000Y-98300000D01*
G75*
G02*
X153700000Y-98250000I50000J0D01*
G01*
G37*
G36*
G01*
X153200000Y-99540000D02*
X153600000Y-99540000D01*
G75*
G02*
X153650000Y-99590000I0J-50000D01*
G01*
X153650000Y-100100000D01*
G75*
G02*
X153600000Y-100150000I-50000J0D01*
G01*
X153200000Y-100150000D01*
G75*
G02*
X153150000Y-100100000I0J50000D01*
G01*
X153150000Y-99590000D01*
G75*
G02*
X153200000Y-99540000I50000J0D01*
G01*
G37*
%TD*%
%TO.C,D1101*%
G36*
G01*
X149460000Y-81640000D02*
X149460000Y-82040000D01*
G75*
G02*
X149410000Y-82090000I-50000J0D01*
G01*
X148900000Y-82090000D01*
G75*
G02*
X148850000Y-82040000I0J50000D01*
G01*
X148850000Y-81640000D01*
G75*
G02*
X148900000Y-81590000I50000J0D01*
G01*
X149410000Y-81590000D01*
G75*
G02*
X149460000Y-81640000I0J-50000D01*
G01*
G37*
G36*
G01*
X150750000Y-81140000D02*
X150750000Y-81540000D01*
G75*
G02*
X150700000Y-81590000I-50000J0D01*
G01*
X150190000Y-81590000D01*
G75*
G02*
X150140000Y-81540000I0J50000D01*
G01*
X150140000Y-81140000D01*
G75*
G02*
X150190000Y-81090000I50000J0D01*
G01*
X150700000Y-81090000D01*
G75*
G02*
X150750000Y-81140000I0J-50000D01*
G01*
G37*
G36*
G01*
X149460000Y-80640000D02*
X149460000Y-81040000D01*
G75*
G02*
X149410000Y-81090000I-50000J0D01*
G01*
X148900000Y-81090000D01*
G75*
G02*
X148850000Y-81040000I0J50000D01*
G01*
X148850000Y-80640000D01*
G75*
G02*
X148900000Y-80590000I50000J0D01*
G01*
X149410000Y-80590000D01*
G75*
G02*
X149460000Y-80640000I0J-50000D01*
G01*
G37*
%TD*%
%TO.C,J201*%
X119390000Y-61340000D03*
X119390000Y-58800000D03*
X121930000Y-61340000D03*
X121930000Y-58800000D03*
X124470000Y-61340000D03*
X124470000Y-58800000D03*
X127010000Y-61340000D03*
X127010000Y-58800000D03*
X129550000Y-61340000D03*
X129550000Y-58800000D03*
X132090000Y-61340000D03*
X132090000Y-58800000D03*
X134630000Y-61340000D03*
X134630000Y-58800000D03*
X137170000Y-61340000D03*
X137170000Y-58800000D03*
X139710000Y-61340000D03*
X139710000Y-58800000D03*
X142250000Y-61340000D03*
X142250000Y-58800000D03*
X144790000Y-61340000D03*
X144790000Y-58800000D03*
X147330000Y-61340000D03*
X147330000Y-58800000D03*
X149870000Y-61340000D03*
X149870000Y-58800000D03*
X152410000Y-61340000D03*
X152410000Y-58800000D03*
X154950000Y-61340000D03*
X154950000Y-58800000D03*
X157490000Y-61340000D03*
X157490000Y-58800000D03*
X160030000Y-61340000D03*
X160030000Y-58800000D03*
X162570000Y-61340000D03*
X162570000Y-58800000D03*
X165110000Y-61340000D03*
X165110000Y-58800000D03*
X167650000Y-61340000D03*
G36*
G01*
X166800000Y-57900000D02*
X168500000Y-57900000D01*
G75*
G02*
X168550000Y-57950000I0J-50000D01*
G01*
X168550000Y-59650000D01*
G75*
G02*
X168500000Y-59700000I-50000J0D01*
G01*
X166800000Y-59700000D01*
G75*
G02*
X166750000Y-59650000I0J50000D01*
G01*
X166750000Y-57950000D01*
G75*
G02*
X166800000Y-57900000I50000J0D01*
G01*
G37*
%TD*%
%TO.C,R905*%
G36*
G01*
X128935612Y-106940000D02*
X127984388Y-106940000D01*
G75*
G02*
X127710000Y-106665612I0J274388D01*
G01*
X127710000Y-106089388D01*
G75*
G02*
X127984388Y-105815000I274388J0D01*
G01*
X128935612Y-105815000D01*
G75*
G02*
X129210000Y-106089388I0J-274388D01*
G01*
X129210000Y-106665612D01*
G75*
G02*
X128935612Y-106940000I-274388J0D01*
G01*
G37*
G36*
G01*
X128935612Y-108765000D02*
X127984388Y-108765000D01*
G75*
G02*
X127710000Y-108490612I0J274388D01*
G01*
X127710000Y-107914388D01*
G75*
G02*
X127984388Y-107640000I274388J0D01*
G01*
X128935612Y-107640000D01*
G75*
G02*
X129210000Y-107914388I0J-274388D01*
G01*
X129210000Y-108490612D01*
G75*
G02*
X128935612Y-108765000I-274388J0D01*
G01*
G37*
%TD*%
%TO.C,U401*%
G36*
G01*
X166951500Y-97764000D02*
X167301500Y-97764000D01*
G75*
G02*
X167476500Y-97939000I0J-175000D01*
G01*
X167476500Y-99639000D01*
G75*
G02*
X167301500Y-99814000I-175000J0D01*
G01*
X166951500Y-99814000D01*
G75*
G02*
X166776500Y-99639000I0J175000D01*
G01*
X166776500Y-97939000D01*
G75*
G02*
X166951500Y-97764000I175000J0D01*
G01*
G37*
G36*
G01*
X165681500Y-97764000D02*
X166031500Y-97764000D01*
G75*
G02*
X166206500Y-97939000I0J-175000D01*
G01*
X166206500Y-99639000D01*
G75*
G02*
X166031500Y-99814000I-175000J0D01*
G01*
X165681500Y-99814000D01*
G75*
G02*
X165506500Y-99639000I0J175000D01*
G01*
X165506500Y-97939000D01*
G75*
G02*
X165681500Y-97764000I175000J0D01*
G01*
G37*
G36*
G01*
X164411500Y-97764000D02*
X164761500Y-97764000D01*
G75*
G02*
X164936500Y-97939000I0J-175000D01*
G01*
X164936500Y-99639000D01*
G75*
G02*
X164761500Y-99814000I-175000J0D01*
G01*
X164411500Y-99814000D01*
G75*
G02*
X164236500Y-99639000I0J175000D01*
G01*
X164236500Y-97939000D01*
G75*
G02*
X164411500Y-97764000I175000J0D01*
G01*
G37*
G36*
G01*
X163141500Y-97764000D02*
X163491500Y-97764000D01*
G75*
G02*
X163666500Y-97939000I0J-175000D01*
G01*
X163666500Y-99639000D01*
G75*
G02*
X163491500Y-99814000I-175000J0D01*
G01*
X163141500Y-99814000D01*
G75*
G02*
X162966500Y-99639000I0J175000D01*
G01*
X162966500Y-97939000D01*
G75*
G02*
X163141500Y-97764000I175000J0D01*
G01*
G37*
G36*
G01*
X161871500Y-97764000D02*
X162221500Y-97764000D01*
G75*
G02*
X162396500Y-97939000I0J-175000D01*
G01*
X162396500Y-99639000D01*
G75*
G02*
X162221500Y-99814000I-175000J0D01*
G01*
X161871500Y-99814000D01*
G75*
G02*
X161696500Y-99639000I0J175000D01*
G01*
X161696500Y-97939000D01*
G75*
G02*
X161871500Y-97764000I175000J0D01*
G01*
G37*
G36*
G01*
X160601500Y-97764000D02*
X160951500Y-97764000D01*
G75*
G02*
X161126500Y-97939000I0J-175000D01*
G01*
X161126500Y-99639000D01*
G75*
G02*
X160951500Y-99814000I-175000J0D01*
G01*
X160601500Y-99814000D01*
G75*
G02*
X160426500Y-99639000I0J175000D01*
G01*
X160426500Y-97939000D01*
G75*
G02*
X160601500Y-97764000I175000J0D01*
G01*
G37*
G36*
G01*
X159331500Y-97764000D02*
X159681500Y-97764000D01*
G75*
G02*
X159856500Y-97939000I0J-175000D01*
G01*
X159856500Y-99639000D01*
G75*
G02*
X159681500Y-99814000I-175000J0D01*
G01*
X159331500Y-99814000D01*
G75*
G02*
X159156500Y-99639000I0J175000D01*
G01*
X159156500Y-97939000D01*
G75*
G02*
X159331500Y-97764000I175000J0D01*
G01*
G37*
G36*
G01*
X158061500Y-97764000D02*
X158411500Y-97764000D01*
G75*
G02*
X158586500Y-97939000I0J-175000D01*
G01*
X158586500Y-99639000D01*
G75*
G02*
X158411500Y-99814000I-175000J0D01*
G01*
X158061500Y-99814000D01*
G75*
G02*
X157886500Y-99639000I0J175000D01*
G01*
X157886500Y-97939000D01*
G75*
G02*
X158061500Y-97764000I175000J0D01*
G01*
G37*
G36*
G01*
X158061500Y-92814000D02*
X158411500Y-92814000D01*
G75*
G02*
X158586500Y-92989000I0J-175000D01*
G01*
X158586500Y-94689000D01*
G75*
G02*
X158411500Y-94864000I-175000J0D01*
G01*
X158061500Y-94864000D01*
G75*
G02*
X157886500Y-94689000I0J175000D01*
G01*
X157886500Y-92989000D01*
G75*
G02*
X158061500Y-92814000I175000J0D01*
G01*
G37*
G36*
G01*
X159331500Y-92814000D02*
X159681500Y-92814000D01*
G75*
G02*
X159856500Y-92989000I0J-175000D01*
G01*
X159856500Y-94689000D01*
G75*
G02*
X159681500Y-94864000I-175000J0D01*
G01*
X159331500Y-94864000D01*
G75*
G02*
X159156500Y-94689000I0J175000D01*
G01*
X159156500Y-92989000D01*
G75*
G02*
X159331500Y-92814000I175000J0D01*
G01*
G37*
G36*
G01*
X160601500Y-92814000D02*
X160951500Y-92814000D01*
G75*
G02*
X161126500Y-92989000I0J-175000D01*
G01*
X161126500Y-94689000D01*
G75*
G02*
X160951500Y-94864000I-175000J0D01*
G01*
X160601500Y-94864000D01*
G75*
G02*
X160426500Y-94689000I0J175000D01*
G01*
X160426500Y-92989000D01*
G75*
G02*
X160601500Y-92814000I175000J0D01*
G01*
G37*
G36*
G01*
X161871500Y-92814000D02*
X162221500Y-92814000D01*
G75*
G02*
X162396500Y-92989000I0J-175000D01*
G01*
X162396500Y-94689000D01*
G75*
G02*
X162221500Y-94864000I-175000J0D01*
G01*
X161871500Y-94864000D01*
G75*
G02*
X161696500Y-94689000I0J175000D01*
G01*
X161696500Y-92989000D01*
G75*
G02*
X161871500Y-92814000I175000J0D01*
G01*
G37*
G36*
G01*
X163141500Y-92814000D02*
X163491500Y-92814000D01*
G75*
G02*
X163666500Y-92989000I0J-175000D01*
G01*
X163666500Y-94689000D01*
G75*
G02*
X163491500Y-94864000I-175000J0D01*
G01*
X163141500Y-94864000D01*
G75*
G02*
X162966500Y-94689000I0J175000D01*
G01*
X162966500Y-92989000D01*
G75*
G02*
X163141500Y-92814000I175000J0D01*
G01*
G37*
G36*
G01*
X164411500Y-92814000D02*
X164761500Y-92814000D01*
G75*
G02*
X164936500Y-92989000I0J-175000D01*
G01*
X164936500Y-94689000D01*
G75*
G02*
X164761500Y-94864000I-175000J0D01*
G01*
X164411500Y-94864000D01*
G75*
G02*
X164236500Y-94689000I0J175000D01*
G01*
X164236500Y-92989000D01*
G75*
G02*
X164411500Y-92814000I175000J0D01*
G01*
G37*
G36*
G01*
X165681500Y-92814000D02*
X166031500Y-92814000D01*
G75*
G02*
X166206500Y-92989000I0J-175000D01*
G01*
X166206500Y-94689000D01*
G75*
G02*
X166031500Y-94864000I-175000J0D01*
G01*
X165681500Y-94864000D01*
G75*
G02*
X165506500Y-94689000I0J175000D01*
G01*
X165506500Y-92989000D01*
G75*
G02*
X165681500Y-92814000I175000J0D01*
G01*
G37*
G36*
G01*
X166951500Y-92814000D02*
X167301500Y-92814000D01*
G75*
G02*
X167476500Y-92989000I0J-175000D01*
G01*
X167476500Y-94689000D01*
G75*
G02*
X167301500Y-94864000I-175000J0D01*
G01*
X166951500Y-94864000D01*
G75*
G02*
X166776500Y-94689000I0J175000D01*
G01*
X166776500Y-92989000D01*
G75*
G02*
X166951500Y-92814000I175000J0D01*
G01*
G37*
%TD*%
%TO.C,C503*%
G36*
G01*
X170068750Y-105000000D02*
X171031250Y-105000000D01*
G75*
G02*
X171300000Y-105268750I0J-268750D01*
G01*
X171300000Y-105806250D01*
G75*
G02*
X171031250Y-106075000I-268750J0D01*
G01*
X170068750Y-106075000D01*
G75*
G02*
X169800000Y-105806250I0J268750D01*
G01*
X169800000Y-105268750D01*
G75*
G02*
X170068750Y-105000000I268750J0D01*
G01*
G37*
G36*
G01*
X170068750Y-103125000D02*
X171031250Y-103125000D01*
G75*
G02*
X171300000Y-103393750I0J-268750D01*
G01*
X171300000Y-103931250D01*
G75*
G02*
X171031250Y-104200000I-268750J0D01*
G01*
X170068750Y-104200000D01*
G75*
G02*
X169800000Y-103931250I0J268750D01*
G01*
X169800000Y-103393750D01*
G75*
G02*
X170068750Y-103125000I268750J0D01*
G01*
G37*
%TD*%
%TO.C,F401*%
G36*
G01*
X172168500Y-102659000D02*
X170858500Y-102659000D01*
G75*
G02*
X170588500Y-102389000I0J270000D01*
G01*
X170588500Y-101579000D01*
G75*
G02*
X170858500Y-101309000I270000J0D01*
G01*
X172168500Y-101309000D01*
G75*
G02*
X172438500Y-101579000I0J-270000D01*
G01*
X172438500Y-102389000D01*
G75*
G02*
X172168500Y-102659000I-270000J0D01*
G01*
G37*
G36*
G01*
X172168500Y-99859000D02*
X170858500Y-99859000D01*
G75*
G02*
X170588500Y-99589000I0J270000D01*
G01*
X170588500Y-98779000D01*
G75*
G02*
X170858500Y-98509000I270000J0D01*
G01*
X172168500Y-98509000D01*
G75*
G02*
X172438500Y-98779000I0J-270000D01*
G01*
X172438500Y-99589000D01*
G75*
G02*
X172168500Y-99859000I-270000J0D01*
G01*
G37*
%TD*%
%TO.C,D303*%
G36*
G01*
X97800000Y-99000000D02*
X97800000Y-100200000D01*
G75*
G02*
X97750000Y-100250000I-50000J0D01*
G01*
X96850000Y-100250000D01*
G75*
G02*
X96800000Y-100200000I0J50000D01*
G01*
X96800000Y-99000000D01*
G75*
G02*
X96850000Y-98950000I50000J0D01*
G01*
X97750000Y-98950000D01*
G75*
G02*
X97800000Y-99000000I0J-50000D01*
G01*
G37*
G36*
G01*
X101100000Y-99000000D02*
X101100000Y-100200000D01*
G75*
G02*
X101050000Y-100250000I-50000J0D01*
G01*
X100150000Y-100250000D01*
G75*
G02*
X100100000Y-100200000I0J50000D01*
G01*
X100100000Y-99000000D01*
G75*
G02*
X100150000Y-98950000I50000J0D01*
G01*
X101050000Y-98950000D01*
G75*
G02*
X101100000Y-99000000I0J-50000D01*
G01*
G37*
%TD*%
%TO.C,FB401*%
G36*
G01*
X168873250Y-98410500D02*
X169835750Y-98410500D01*
G75*
G02*
X170104500Y-98679250I0J-268750D01*
G01*
X170104500Y-99216750D01*
G75*
G02*
X169835750Y-99485500I-268750J0D01*
G01*
X168873250Y-99485500D01*
G75*
G02*
X168604500Y-99216750I0J268750D01*
G01*
X168604500Y-98679250D01*
G75*
G02*
X168873250Y-98410500I268750J0D01*
G01*
G37*
G36*
G01*
X168873250Y-100285500D02*
X169835750Y-100285500D01*
G75*
G02*
X170104500Y-100554250I0J-268750D01*
G01*
X170104500Y-101091750D01*
G75*
G02*
X169835750Y-101360500I-268750J0D01*
G01*
X168873250Y-101360500D01*
G75*
G02*
X168604500Y-101091750I0J268750D01*
G01*
X168604500Y-100554250D01*
G75*
G02*
X168873250Y-100285500I268750J0D01*
G01*
G37*
%TD*%
%TO.C,U402*%
G36*
G01*
X170953500Y-96781500D02*
X171578500Y-96781500D01*
G75*
G02*
X171628500Y-96831500I0J-50000D01*
G01*
X171628500Y-97081500D01*
G75*
G02*
X171578500Y-97131500I-50000J0D01*
G01*
X170953500Y-97131500D01*
G75*
G02*
X170903500Y-97081500I0J50000D01*
G01*
X170903500Y-96831500D01*
G75*
G02*
X170953500Y-96781500I50000J0D01*
G01*
G37*
G36*
G01*
X170953500Y-97281500D02*
X171578500Y-97281500D01*
G75*
G02*
X171628500Y-97331500I0J-50000D01*
G01*
X171628500Y-97581500D01*
G75*
G02*
X171578500Y-97631500I-50000J0D01*
G01*
X170953500Y-97631500D01*
G75*
G02*
X170903500Y-97581500I0J50000D01*
G01*
X170903500Y-97331500D01*
G75*
G02*
X170953500Y-97281500I50000J0D01*
G01*
G37*
G36*
G01*
X171003500Y-96181500D02*
X171578500Y-96181500D01*
G75*
G02*
X171628500Y-96231500I0J-50000D01*
G01*
X171628500Y-96681500D01*
G75*
G02*
X171578500Y-96731500I-50000J0D01*
G01*
X171003500Y-96731500D01*
G75*
G02*
X170953500Y-96681500I0J50000D01*
G01*
X170953500Y-96231500D01*
G75*
G02*
X171003500Y-96181500I50000J0D01*
G01*
G37*
G36*
G01*
X170178500Y-97281500D02*
X170803500Y-97281500D01*
G75*
G02*
X170853500Y-97331500I0J-50000D01*
G01*
X170853500Y-97581500D01*
G75*
G02*
X170803500Y-97631500I-50000J0D01*
G01*
X170178500Y-97631500D01*
G75*
G02*
X170128500Y-97581500I0J50000D01*
G01*
X170128500Y-97331500D01*
G75*
G02*
X170178500Y-97281500I50000J0D01*
G01*
G37*
G36*
G01*
X170953500Y-95781500D02*
X171578500Y-95781500D01*
G75*
G02*
X171628500Y-95831500I0J-50000D01*
G01*
X171628500Y-96081500D01*
G75*
G02*
X171578500Y-96131500I-50000J0D01*
G01*
X170953500Y-96131500D01*
G75*
G02*
X170903500Y-96081500I0J50000D01*
G01*
X170903500Y-95831500D01*
G75*
G02*
X170953500Y-95781500I50000J0D01*
G01*
G37*
G36*
G01*
X170953500Y-95281500D02*
X171578500Y-95281500D01*
G75*
G02*
X171628500Y-95331500I0J-50000D01*
G01*
X171628500Y-95581500D01*
G75*
G02*
X171578500Y-95631500I-50000J0D01*
G01*
X170953500Y-95631500D01*
G75*
G02*
X170903500Y-95581500I0J50000D01*
G01*
X170903500Y-95331500D01*
G75*
G02*
X170953500Y-95281500I50000J0D01*
G01*
G37*
G36*
G01*
X170178500Y-96781500D02*
X170803500Y-96781500D01*
G75*
G02*
X170853500Y-96831500I0J-50000D01*
G01*
X170853500Y-97081500D01*
G75*
G02*
X170803500Y-97131500I-50000J0D01*
G01*
X170178500Y-97131500D01*
G75*
G02*
X170128500Y-97081500I0J50000D01*
G01*
X170128500Y-96831500D01*
G75*
G02*
X170178500Y-96781500I50000J0D01*
G01*
G37*
G36*
G01*
X170178500Y-95281500D02*
X170803500Y-95281500D01*
G75*
G02*
X170853500Y-95331500I0J-50000D01*
G01*
X170853500Y-95581500D01*
G75*
G02*
X170803500Y-95631500I-50000J0D01*
G01*
X170178500Y-95631500D01*
G75*
G02*
X170128500Y-95581500I0J50000D01*
G01*
X170128500Y-95331500D01*
G75*
G02*
X170178500Y-95281500I50000J0D01*
G01*
G37*
G36*
G01*
X170178500Y-96181500D02*
X170878500Y-96181500D01*
G75*
G02*
X170928500Y-96231500I0J-50000D01*
G01*
X170928500Y-96681500D01*
G75*
G02*
X170878500Y-96731500I-50000J0D01*
G01*
X170178500Y-96731500D01*
G75*
G02*
X170128500Y-96681500I0J50000D01*
G01*
X170128500Y-96231500D01*
G75*
G02*
X170178500Y-96181500I50000J0D01*
G01*
G37*
G36*
G01*
X170178500Y-95781500D02*
X170803500Y-95781500D01*
G75*
G02*
X170853500Y-95831500I0J-50000D01*
G01*
X170853500Y-96081500D01*
G75*
G02*
X170803500Y-96131500I-50000J0D01*
G01*
X170178500Y-96131500D01*
G75*
G02*
X170128500Y-96081500I0J50000D01*
G01*
X170128500Y-95831500D01*
G75*
G02*
X170178500Y-95781500I50000J0D01*
G01*
G37*
%TD*%
%TO.C,U701*%
G36*
G01*
X143745000Y-95800000D02*
X143745000Y-96425000D01*
G75*
G02*
X143695000Y-96475000I-50000J0D01*
G01*
X143445000Y-96475000D01*
G75*
G02*
X143395000Y-96425000I0J50000D01*
G01*
X143395000Y-95800000D01*
G75*
G02*
X143445000Y-95750000I50000J0D01*
G01*
X143695000Y-95750000D01*
G75*
G02*
X143745000Y-95800000I0J-50000D01*
G01*
G37*
G36*
G01*
X143345000Y-95800000D02*
X143345000Y-96500000D01*
G75*
G02*
X143295000Y-96550000I-50000J0D01*
G01*
X142845000Y-96550000D01*
G75*
G02*
X142795000Y-96500000I0J50000D01*
G01*
X142795000Y-95800000D01*
G75*
G02*
X142845000Y-95750000I50000J0D01*
G01*
X143295000Y-95750000D01*
G75*
G02*
X143345000Y-95800000I0J-50000D01*
G01*
G37*
G36*
G01*
X144245000Y-95800000D02*
X144245000Y-96425000D01*
G75*
G02*
X144195000Y-96475000I-50000J0D01*
G01*
X143945000Y-96475000D01*
G75*
G02*
X143895000Y-96425000I0J50000D01*
G01*
X143895000Y-95800000D01*
G75*
G02*
X143945000Y-95750000I50000J0D01*
G01*
X144195000Y-95750000D01*
G75*
G02*
X144245000Y-95800000I0J-50000D01*
G01*
G37*
G36*
G01*
X142745000Y-95800000D02*
X142745000Y-96425000D01*
G75*
G02*
X142695000Y-96475000I-50000J0D01*
G01*
X142445000Y-96475000D01*
G75*
G02*
X142395000Y-96425000I0J50000D01*
G01*
X142395000Y-95800000D01*
G75*
G02*
X142445000Y-95750000I50000J0D01*
G01*
X142695000Y-95750000D01*
G75*
G02*
X142745000Y-95800000I0J-50000D01*
G01*
G37*
G36*
G01*
X144245000Y-96575000D02*
X144245000Y-97200000D01*
G75*
G02*
X144195000Y-97250000I-50000J0D01*
G01*
X143945000Y-97250000D01*
G75*
G02*
X143895000Y-97200000I0J50000D01*
G01*
X143895000Y-96575000D01*
G75*
G02*
X143945000Y-96525000I50000J0D01*
G01*
X144195000Y-96525000D01*
G75*
G02*
X144245000Y-96575000I0J-50000D01*
G01*
G37*
G36*
G01*
X143745000Y-96575000D02*
X143745000Y-97200000D01*
G75*
G02*
X143695000Y-97250000I-50000J0D01*
G01*
X143445000Y-97250000D01*
G75*
G02*
X143395000Y-97200000I0J50000D01*
G01*
X143395000Y-96575000D01*
G75*
G02*
X143445000Y-96525000I50000J0D01*
G01*
X143695000Y-96525000D01*
G75*
G02*
X143745000Y-96575000I0J-50000D01*
G01*
G37*
G36*
G01*
X142245000Y-95800000D02*
X142245000Y-96425000D01*
G75*
G02*
X142195000Y-96475000I-50000J0D01*
G01*
X141945000Y-96475000D01*
G75*
G02*
X141895000Y-96425000I0J50000D01*
G01*
X141895000Y-95800000D01*
G75*
G02*
X141945000Y-95750000I50000J0D01*
G01*
X142195000Y-95750000D01*
G75*
G02*
X142245000Y-95800000I0J-50000D01*
G01*
G37*
G36*
G01*
X143345000Y-96625000D02*
X143345000Y-97200000D01*
G75*
G02*
X143295000Y-97250000I-50000J0D01*
G01*
X142845000Y-97250000D01*
G75*
G02*
X142795000Y-97200000I0J50000D01*
G01*
X142795000Y-96625000D01*
G75*
G02*
X142845000Y-96575000I50000J0D01*
G01*
X143295000Y-96575000D01*
G75*
G02*
X143345000Y-96625000I0J-50000D01*
G01*
G37*
G36*
G01*
X142245000Y-96575000D02*
X142245000Y-97200000D01*
G75*
G02*
X142195000Y-97250000I-50000J0D01*
G01*
X141945000Y-97250000D01*
G75*
G02*
X141895000Y-97200000I0J50000D01*
G01*
X141895000Y-96575000D01*
G75*
G02*
X141945000Y-96525000I50000J0D01*
G01*
X142195000Y-96525000D01*
G75*
G02*
X142245000Y-96575000I0J-50000D01*
G01*
G37*
G36*
G01*
X142745000Y-96575000D02*
X142745000Y-97200000D01*
G75*
G02*
X142695000Y-97250000I-50000J0D01*
G01*
X142445000Y-97250000D01*
G75*
G02*
X142395000Y-97200000I0J50000D01*
G01*
X142395000Y-96575000D01*
G75*
G02*
X142445000Y-96525000I50000J0D01*
G01*
X142695000Y-96525000D01*
G75*
G02*
X142745000Y-96575000I0J-50000D01*
G01*
G37*
%TD*%
D19*
%TO.C,J303*%
X103124000Y-100457000D03*
D20*
X103124000Y-102997000D03*
%TD*%
D19*
%TO.C,J602*%
X108850000Y-100600000D03*
D20*
X108850000Y-103140000D03*
%TD*%
D15*
%TO.C,J207*%
X96520000Y-68580000D03*
X96520000Y-71120000D03*
X96520000Y-73660000D03*
X96520000Y-76200000D03*
X96520000Y-78740000D03*
X96520000Y-81280000D03*
X96520000Y-83820000D03*
%TD*%
%TO.C,REF\u002A\u002A*%
G36*
G01*
X100500000Y-82330000D02*
X100500000Y-80230000D01*
G75*
G02*
X100550000Y-80180000I50000J0D01*
G01*
X102650000Y-80180000D01*
G75*
G02*
X102700000Y-80230000I0J-50000D01*
G01*
X102700000Y-82330000D01*
G75*
G02*
X102650000Y-82380000I-50000J0D01*
G01*
X100550000Y-82380000D01*
G75*
G02*
X100500000Y-82330000I0J50000D01*
G01*
G37*
%TD*%
%TO.C,REF\u002A\u002A*%
G36*
G01*
X103040000Y-82330000D02*
X103040000Y-80230000D01*
G75*
G02*
X103090000Y-80180000I50000J0D01*
G01*
X105190000Y-80180000D01*
G75*
G02*
X105240000Y-80230000I0J-50000D01*
G01*
X105240000Y-82330000D01*
G75*
G02*
X105190000Y-82380000I-50000J0D01*
G01*
X103090000Y-82380000D01*
G75*
G02*
X103040000Y-82330000I0J50000D01*
G01*
G37*
%TD*%
%TO.C,REF\u002A\u002A*%
G36*
G01*
X103040000Y-79790000D02*
X103040000Y-77690000D01*
G75*
G02*
X103090000Y-77640000I50000J0D01*
G01*
X105190000Y-77640000D01*
G75*
G02*
X105240000Y-77690000I0J-50000D01*
G01*
X105240000Y-79790000D01*
G75*
G02*
X105190000Y-79840000I-50000J0D01*
G01*
X103090000Y-79840000D01*
G75*
G02*
X103040000Y-79790000I0J50000D01*
G01*
G37*
%TD*%
%TO.C,REF\u002A\u002A*%
G36*
G01*
X103040000Y-74710000D02*
X103040000Y-72610000D01*
G75*
G02*
X103090000Y-72560000I50000J0D01*
G01*
X105190000Y-72560000D01*
G75*
G02*
X105240000Y-72610000I0J-50000D01*
G01*
X105240000Y-74710000D01*
G75*
G02*
X105190000Y-74760000I-50000J0D01*
G01*
X103090000Y-74760000D01*
G75*
G02*
X103040000Y-74710000I0J50000D01*
G01*
G37*
%TD*%
%TO.C,REF\u002A\u002A*%
G36*
G01*
X97960000Y-74710000D02*
X97960000Y-72610000D01*
G75*
G02*
X98010000Y-72560000I50000J0D01*
G01*
X100110000Y-72560000D01*
G75*
G02*
X100160000Y-72610000I0J-50000D01*
G01*
X100160000Y-74710000D01*
G75*
G02*
X100110000Y-74760000I-50000J0D01*
G01*
X98010000Y-74760000D01*
G75*
G02*
X97960000Y-74710000I0J50000D01*
G01*
G37*
%TD*%
%TO.C,REF\u002A\u002A*%
G36*
G01*
X100500000Y-74710000D02*
X100500000Y-72610000D01*
G75*
G02*
X100550000Y-72560000I50000J0D01*
G01*
X102650000Y-72560000D01*
G75*
G02*
X102700000Y-72610000I0J-50000D01*
G01*
X102700000Y-74710000D01*
G75*
G02*
X102650000Y-74760000I-50000J0D01*
G01*
X100550000Y-74760000D01*
G75*
G02*
X100500000Y-74710000I0J50000D01*
G01*
G37*
%TD*%
%TO.C,REF\u002A\u002A*%
G36*
G01*
X100500000Y-72170000D02*
X100500000Y-70070000D01*
G75*
G02*
X100550000Y-70020000I50000J0D01*
G01*
X102650000Y-70020000D01*
G75*
G02*
X102700000Y-70070000I0J-50000D01*
G01*
X102700000Y-72170000D01*
G75*
G02*
X102650000Y-72220000I-50000J0D01*
G01*
X100550000Y-72220000D01*
G75*
G02*
X100500000Y-72170000I0J50000D01*
G01*
G37*
%TD*%
%TO.C,REF\u002A\u002A*%
G36*
G01*
X100500000Y-79790000D02*
X100500000Y-77690000D01*
G75*
G02*
X100550000Y-77640000I50000J0D01*
G01*
X102650000Y-77640000D01*
G75*
G02*
X102700000Y-77690000I0J-50000D01*
G01*
X102700000Y-79790000D01*
G75*
G02*
X102650000Y-79840000I-50000J0D01*
G01*
X100550000Y-79840000D01*
G75*
G02*
X100500000Y-79790000I0J50000D01*
G01*
G37*
%TD*%
%TO.C,REF\u002A\u002A*%
G36*
G01*
X100500000Y-77250000D02*
X100500000Y-75150000D01*
G75*
G02*
X100550000Y-75100000I50000J0D01*
G01*
X102650000Y-75100000D01*
G75*
G02*
X102700000Y-75150000I0J-50000D01*
G01*
X102700000Y-77250000D01*
G75*
G02*
X102650000Y-77300000I-50000J0D01*
G01*
X100550000Y-77300000D01*
G75*
G02*
X100500000Y-77250000I0J50000D01*
G01*
G37*
%TD*%
%TO.C,REF\u002A\u002A*%
G36*
G01*
X97960000Y-79790000D02*
X97960000Y-77690000D01*
G75*
G02*
X98010000Y-77640000I50000J0D01*
G01*
X100110000Y-77640000D01*
G75*
G02*
X100160000Y-77690000I0J-50000D01*
G01*
X100160000Y-79790000D01*
G75*
G02*
X100110000Y-79840000I-50000J0D01*
G01*
X98010000Y-79840000D01*
G75*
G02*
X97960000Y-79790000I0J50000D01*
G01*
G37*
%TD*%
%TO.C,REF\u002A\u002A*%
G36*
G01*
X97960000Y-77250000D02*
X97960000Y-75150000D01*
G75*
G02*
X98010000Y-75100000I50000J0D01*
G01*
X100110000Y-75100000D01*
G75*
G02*
X100160000Y-75150000I0J-50000D01*
G01*
X100160000Y-77250000D01*
G75*
G02*
X100110000Y-77300000I-50000J0D01*
G01*
X98010000Y-77300000D01*
G75*
G02*
X97960000Y-77250000I0J50000D01*
G01*
G37*
%TD*%
%TO.C,REF\u002A\u002A*%
G36*
G01*
X97960000Y-82330000D02*
X97960000Y-80230000D01*
G75*
G02*
X98010000Y-80180000I50000J0D01*
G01*
X100110000Y-80180000D01*
G75*
G02*
X100160000Y-80230000I0J-50000D01*
G01*
X100160000Y-82330000D01*
G75*
G02*
X100110000Y-82380000I-50000J0D01*
G01*
X98010000Y-82380000D01*
G75*
G02*
X97960000Y-82330000I0J50000D01*
G01*
G37*
%TD*%
%TO.C,REF\u002A\u002A*%
G36*
G01*
X97960000Y-72170000D02*
X97960000Y-70070000D01*
G75*
G02*
X98010000Y-70020000I50000J0D01*
G01*
X100110000Y-70020000D01*
G75*
G02*
X100160000Y-70070000I0J-50000D01*
G01*
X100160000Y-72170000D01*
G75*
G02*
X100110000Y-72220000I-50000J0D01*
G01*
X98010000Y-72220000D01*
G75*
G02*
X97960000Y-72170000I0J50000D01*
G01*
G37*
%TD*%
%TO.C,REF\u002A\u002A*%
G36*
G01*
X103040000Y-77250000D02*
X103040000Y-75150000D01*
G75*
G02*
X103090000Y-75100000I50000J0D01*
G01*
X105190000Y-75100000D01*
G75*
G02*
X105240000Y-75150000I0J-50000D01*
G01*
X105240000Y-77250000D01*
G75*
G02*
X105190000Y-77300000I-50000J0D01*
G01*
X103090000Y-77300000D01*
G75*
G02*
X103040000Y-77250000I0J50000D01*
G01*
G37*
%TD*%
%TO.C,REF\u002A\u002A*%
G36*
G01*
X103040000Y-72170000D02*
X103040000Y-70070000D01*
G75*
G02*
X103090000Y-70020000I50000J0D01*
G01*
X105190000Y-70020000D01*
G75*
G02*
X105240000Y-70070000I0J-50000D01*
G01*
X105240000Y-72170000D01*
G75*
G02*
X105190000Y-72220000I-50000J0D01*
G01*
X103090000Y-72220000D01*
G75*
G02*
X103040000Y-72170000I0J50000D01*
G01*
G37*
%TD*%
%TO.C,REF\u002A\u002A*%
G36*
G01*
X103040000Y-84870000D02*
X103040000Y-82770000D01*
G75*
G02*
X103090000Y-82720000I50000J0D01*
G01*
X105190000Y-82720000D01*
G75*
G02*
X105240000Y-82770000I0J-50000D01*
G01*
X105240000Y-84870000D01*
G75*
G02*
X105190000Y-84920000I-50000J0D01*
G01*
X103090000Y-84920000D01*
G75*
G02*
X103040000Y-84870000I0J50000D01*
G01*
G37*
%TD*%
%TO.C,REF\u002A\u002A*%
G36*
G01*
X100500000Y-84870000D02*
X100500000Y-82770000D01*
G75*
G02*
X100550000Y-82720000I50000J0D01*
G01*
X102650000Y-82720000D01*
G75*
G02*
X102700000Y-82770000I0J-50000D01*
G01*
X102700000Y-84870000D01*
G75*
G02*
X102650000Y-84920000I-50000J0D01*
G01*
X100550000Y-84920000D01*
G75*
G02*
X100500000Y-84870000I0J50000D01*
G01*
G37*
%TD*%
%TO.C,REF\u002A\u002A*%
G36*
G01*
X103040000Y-69630000D02*
X103040000Y-67530000D01*
G75*
G02*
X103090000Y-67480000I50000J0D01*
G01*
X105190000Y-67480000D01*
G75*
G02*
X105240000Y-67530000I0J-50000D01*
G01*
X105240000Y-69630000D01*
G75*
G02*
X105190000Y-69680000I-50000J0D01*
G01*
X103090000Y-69680000D01*
G75*
G02*
X103040000Y-69630000I0J50000D01*
G01*
G37*
%TD*%
%TO.C,REF\u002A\u002A*%
G36*
G01*
X100500000Y-69630000D02*
X100500000Y-67530000D01*
G75*
G02*
X100550000Y-67480000I50000J0D01*
G01*
X102650000Y-67480000D01*
G75*
G02*
X102700000Y-67530000I0J-50000D01*
G01*
X102700000Y-69630000D01*
G75*
G02*
X102650000Y-69680000I-50000J0D01*
G01*
X100550000Y-69680000D01*
G75*
G02*
X100500000Y-69630000I0J50000D01*
G01*
G37*
%TD*%
%TO.C,J206*%
X90875000Y-68580000D03*
X90875000Y-71120000D03*
X90875000Y-73660000D03*
X90875000Y-76200000D03*
X90875000Y-78740000D03*
X90875000Y-81280000D03*
X90875000Y-83820000D03*
G36*
G01*
X91775000Y-85510000D02*
X91775000Y-87210000D01*
G75*
G02*
X91725000Y-87260000I-50000J0D01*
G01*
X90025000Y-87260000D01*
G75*
G02*
X89975000Y-87210000I0J50000D01*
G01*
X89975000Y-85510000D01*
G75*
G02*
X90025000Y-85460000I50000J0D01*
G01*
X91725000Y-85460000D01*
G75*
G02*
X91775000Y-85510000I0J-50000D01*
G01*
G37*
%TD*%
%TO.C,J302*%
X103640000Y-106300000D03*
G36*
G01*
X101950000Y-107200000D02*
X100250000Y-107200000D01*
G75*
G02*
X100200000Y-107150000I0J50000D01*
G01*
X100200000Y-105450000D01*
G75*
G02*
X100250000Y-105400000I50000J0D01*
G01*
X101950000Y-105400000D01*
G75*
G02*
X102000000Y-105450000I0J-50000D01*
G01*
X102000000Y-107150000D01*
G75*
G02*
X101950000Y-107200000I-50000J0D01*
G01*
G37*
%TD*%
%TO.C,U902*%
G36*
G01*
X134541000Y-95846000D02*
X134191000Y-95846000D01*
G75*
G02*
X134016000Y-95671000I0J175000D01*
G01*
X134016000Y-94296000D01*
G75*
G02*
X134191000Y-94121000I175000J0D01*
G01*
X134541000Y-94121000D01*
G75*
G02*
X134716000Y-94296000I0J-175000D01*
G01*
X134716000Y-95671000D01*
G75*
G02*
X134541000Y-95846000I-175000J0D01*
G01*
G37*
G36*
G01*
X135811000Y-95846000D02*
X135461000Y-95846000D01*
G75*
G02*
X135286000Y-95671000I0J175000D01*
G01*
X135286000Y-94296000D01*
G75*
G02*
X135461000Y-94121000I175000J0D01*
G01*
X135811000Y-94121000D01*
G75*
G02*
X135986000Y-94296000I0J-175000D01*
G01*
X135986000Y-95671000D01*
G75*
G02*
X135811000Y-95846000I-175000J0D01*
G01*
G37*
G36*
G01*
X135811000Y-102221000D02*
X135461000Y-102221000D01*
G75*
G02*
X135286000Y-102046000I0J175000D01*
G01*
X135286000Y-100671000D01*
G75*
G02*
X135461000Y-100496000I175000J0D01*
G01*
X135811000Y-100496000D01*
G75*
G02*
X135986000Y-100671000I0J-175000D01*
G01*
X135986000Y-102046000D01*
G75*
G02*
X135811000Y-102221000I-175000J0D01*
G01*
G37*
G36*
G01*
X134541000Y-102221000D02*
X134191000Y-102221000D01*
G75*
G02*
X134016000Y-102046000I0J175000D01*
G01*
X134016000Y-100671000D01*
G75*
G02*
X134191000Y-100496000I175000J0D01*
G01*
X134541000Y-100496000D01*
G75*
G02*
X134716000Y-100671000I0J-175000D01*
G01*
X134716000Y-102046000D01*
G75*
G02*
X134541000Y-102221000I-175000J0D01*
G01*
G37*
%TD*%
%TO.C,U901*%
G36*
G01*
X138763000Y-100496000D02*
X139113000Y-100496000D01*
G75*
G02*
X139288000Y-100671000I0J-175000D01*
G01*
X139288000Y-102046000D01*
G75*
G02*
X139113000Y-102221000I-175000J0D01*
G01*
X138763000Y-102221000D01*
G75*
G02*
X138588000Y-102046000I0J175000D01*
G01*
X138588000Y-100671000D01*
G75*
G02*
X138763000Y-100496000I175000J0D01*
G01*
G37*
G36*
G01*
X137493000Y-100496000D02*
X137843000Y-100496000D01*
G75*
G02*
X138018000Y-100671000I0J-175000D01*
G01*
X138018000Y-102046000D01*
G75*
G02*
X137843000Y-102221000I-175000J0D01*
G01*
X137493000Y-102221000D01*
G75*
G02*
X137318000Y-102046000I0J175000D01*
G01*
X137318000Y-100671000D01*
G75*
G02*
X137493000Y-100496000I175000J0D01*
G01*
G37*
G36*
G01*
X137493000Y-94121000D02*
X137843000Y-94121000D01*
G75*
G02*
X138018000Y-94296000I0J-175000D01*
G01*
X138018000Y-95671000D01*
G75*
G02*
X137843000Y-95846000I-175000J0D01*
G01*
X137493000Y-95846000D01*
G75*
G02*
X137318000Y-95671000I0J175000D01*
G01*
X137318000Y-94296000D01*
G75*
G02*
X137493000Y-94121000I175000J0D01*
G01*
G37*
G36*
G01*
X138763000Y-94121000D02*
X139113000Y-94121000D01*
G75*
G02*
X139288000Y-94296000I0J-175000D01*
G01*
X139288000Y-95671000D01*
G75*
G02*
X139113000Y-95846000I-175000J0D01*
G01*
X138763000Y-95846000D01*
G75*
G02*
X138588000Y-95671000I0J175000D01*
G01*
X138588000Y-94296000D01*
G75*
G02*
X138763000Y-94121000I175000J0D01*
G01*
G37*
%TD*%
%TO.C,R904*%
G36*
G01*
X134350000Y-107291250D02*
X134350000Y-106728750D01*
G75*
G02*
X134593750Y-106485000I243750J0D01*
G01*
X135081250Y-106485000D01*
G75*
G02*
X135325000Y-106728750I0J-243750D01*
G01*
X135325000Y-107291250D01*
G75*
G02*
X135081250Y-107535000I-243750J0D01*
G01*
X134593750Y-107535000D01*
G75*
G02*
X134350000Y-107291250I0J243750D01*
G01*
G37*
G36*
G01*
X132775000Y-107291250D02*
X132775000Y-106728750D01*
G75*
G02*
X133018750Y-106485000I243750J0D01*
G01*
X133506250Y-106485000D01*
G75*
G02*
X133750000Y-106728750I0J-243750D01*
G01*
X133750000Y-107291250D01*
G75*
G02*
X133506250Y-107535000I-243750J0D01*
G01*
X133018750Y-107535000D01*
G75*
G02*
X132775000Y-107291250I0J243750D01*
G01*
G37*
%TD*%
%TO.C,R903*%
G36*
G01*
X134350000Y-103791250D02*
X134350000Y-103228750D01*
G75*
G02*
X134593750Y-102985000I243750J0D01*
G01*
X135081250Y-102985000D01*
G75*
G02*
X135325000Y-103228750I0J-243750D01*
G01*
X135325000Y-103791250D01*
G75*
G02*
X135081250Y-104035000I-243750J0D01*
G01*
X134593750Y-104035000D01*
G75*
G02*
X134350000Y-103791250I0J243750D01*
G01*
G37*
G36*
G01*
X132775000Y-103791250D02*
X132775000Y-103228750D01*
G75*
G02*
X133018750Y-102985000I243750J0D01*
G01*
X133506250Y-102985000D01*
G75*
G02*
X133750000Y-103228750I0J-243750D01*
G01*
X133750000Y-103791250D01*
G75*
G02*
X133506250Y-104035000I-243750J0D01*
G01*
X133018750Y-104035000D01*
G75*
G02*
X132775000Y-103791250I0J243750D01*
G01*
G37*
%TD*%
%TO.C,D901*%
G36*
G01*
X138610000Y-108680000D02*
X138610000Y-107580000D01*
G75*
G02*
X138660000Y-107530000I50000J0D01*
G01*
X139760000Y-107530000D01*
G75*
G02*
X139810000Y-107580000I0J-50000D01*
G01*
X139810000Y-108680000D01*
G75*
G02*
X139760000Y-108730000I-50000J0D01*
G01*
X138660000Y-108730000D01*
G75*
G02*
X138610000Y-108680000I0J50000D01*
G01*
G37*
G36*
G01*
X135810000Y-108680000D02*
X135810000Y-107580000D01*
G75*
G02*
X135860000Y-107530000I50000J0D01*
G01*
X136960000Y-107530000D01*
G75*
G02*
X137010000Y-107580000I0J-50000D01*
G01*
X137010000Y-108680000D01*
G75*
G02*
X136960000Y-108730000I-50000J0D01*
G01*
X135860000Y-108730000D01*
G75*
G02*
X135810000Y-108680000I0J50000D01*
G01*
G37*
%TD*%
%TO.C,R902*%
G36*
G01*
X130764000Y-93317750D02*
X130764000Y-93880250D01*
G75*
G02*
X130520250Y-94124000I-243750J0D01*
G01*
X130032750Y-94124000D01*
G75*
G02*
X129789000Y-93880250I0J243750D01*
G01*
X129789000Y-93317750D01*
G75*
G02*
X130032750Y-93074000I243750J0D01*
G01*
X130520250Y-93074000D01*
G75*
G02*
X130764000Y-93317750I0J-243750D01*
G01*
G37*
G36*
G01*
X132339000Y-93317750D02*
X132339000Y-93880250D01*
G75*
G02*
X132095250Y-94124000I-243750J0D01*
G01*
X131607750Y-94124000D01*
G75*
G02*
X131364000Y-93880250I0J243750D01*
G01*
X131364000Y-93317750D01*
G75*
G02*
X131607750Y-93074000I243750J0D01*
G01*
X132095250Y-93074000D01*
G75*
G02*
X132339000Y-93317750I0J-243750D01*
G01*
G37*
%TD*%
%TO.C,C1028*%
G36*
G01*
X94544000Y-65757500D02*
X94544000Y-66152500D01*
G75*
G02*
X94371500Y-66325000I-172500J0D01*
G01*
X94026500Y-66325000D01*
G75*
G02*
X93854000Y-66152500I0J172500D01*
G01*
X93854000Y-65757500D01*
G75*
G02*
X94026500Y-65585000I172500J0D01*
G01*
X94371500Y-65585000D01*
G75*
G02*
X94544000Y-65757500I0J-172500D01*
G01*
G37*
G36*
G01*
X95514000Y-65757500D02*
X95514000Y-66152500D01*
G75*
G02*
X95341500Y-66325000I-172500J0D01*
G01*
X94996500Y-66325000D01*
G75*
G02*
X94824000Y-66152500I0J172500D01*
G01*
X94824000Y-65757500D01*
G75*
G02*
X94996500Y-65585000I172500J0D01*
G01*
X95341500Y-65585000D01*
G75*
G02*
X95514000Y-65757500I0J-172500D01*
G01*
G37*
%TD*%
%TO.C,C1027*%
G36*
G01*
X93404500Y-68575000D02*
X93009500Y-68575000D01*
G75*
G02*
X92837000Y-68402500I0J172500D01*
G01*
X92837000Y-68057500D01*
G75*
G02*
X93009500Y-67885000I172500J0D01*
G01*
X93404500Y-67885000D01*
G75*
G02*
X93577000Y-68057500I0J-172500D01*
G01*
X93577000Y-68402500D01*
G75*
G02*
X93404500Y-68575000I-172500J0D01*
G01*
G37*
G36*
G01*
X93404500Y-69545000D02*
X93009500Y-69545000D01*
G75*
G02*
X92837000Y-69372500I0J172500D01*
G01*
X92837000Y-69027500D01*
G75*
G02*
X93009500Y-68855000I172500J0D01*
G01*
X93404500Y-68855000D01*
G75*
G02*
X93577000Y-69027500I0J-172500D01*
G01*
X93577000Y-69372500D01*
G75*
G02*
X93404500Y-69545000I-172500J0D01*
G01*
G37*
%TD*%
%TO.C,C1026*%
G36*
G01*
X103692500Y-95240000D02*
X104087500Y-95240000D01*
G75*
G02*
X104260000Y-95412500I0J-172500D01*
G01*
X104260000Y-95757500D01*
G75*
G02*
X104087500Y-95930000I-172500J0D01*
G01*
X103692500Y-95930000D01*
G75*
G02*
X103520000Y-95757500I0J172500D01*
G01*
X103520000Y-95412500D01*
G75*
G02*
X103692500Y-95240000I172500J0D01*
G01*
G37*
G36*
G01*
X103692500Y-94270000D02*
X104087500Y-94270000D01*
G75*
G02*
X104260000Y-94442500I0J-172500D01*
G01*
X104260000Y-94787500D01*
G75*
G02*
X104087500Y-94960000I-172500J0D01*
G01*
X103692500Y-94960000D01*
G75*
G02*
X103520000Y-94787500I0J172500D01*
G01*
X103520000Y-94442500D01*
G75*
G02*
X103692500Y-94270000I172500J0D01*
G01*
G37*
%TD*%
%TO.C,C1025*%
G36*
G01*
X116852500Y-59690000D02*
X117247500Y-59690000D01*
G75*
G02*
X117420000Y-59862500I0J-172500D01*
G01*
X117420000Y-60207500D01*
G75*
G02*
X117247500Y-60380000I-172500J0D01*
G01*
X116852500Y-60380000D01*
G75*
G02*
X116680000Y-60207500I0J172500D01*
G01*
X116680000Y-59862500D01*
G75*
G02*
X116852500Y-59690000I172500J0D01*
G01*
G37*
G36*
G01*
X116852500Y-58720000D02*
X117247500Y-58720000D01*
G75*
G02*
X117420000Y-58892500I0J-172500D01*
G01*
X117420000Y-59237500D01*
G75*
G02*
X117247500Y-59410000I-172500J0D01*
G01*
X116852500Y-59410000D01*
G75*
G02*
X116680000Y-59237500I0J172500D01*
G01*
X116680000Y-58892500D01*
G75*
G02*
X116852500Y-58720000I172500J0D01*
G01*
G37*
%TD*%
%TO.C,C1024*%
G36*
G01*
X172028500Y-92951000D02*
X171633500Y-92951000D01*
G75*
G02*
X171461000Y-92778500I0J172500D01*
G01*
X171461000Y-92433500D01*
G75*
G02*
X171633500Y-92261000I172500J0D01*
G01*
X172028500Y-92261000D01*
G75*
G02*
X172201000Y-92433500I0J-172500D01*
G01*
X172201000Y-92778500D01*
G75*
G02*
X172028500Y-92951000I-172500J0D01*
G01*
G37*
G36*
G01*
X172028500Y-93921000D02*
X171633500Y-93921000D01*
G75*
G02*
X171461000Y-93748500I0J172500D01*
G01*
X171461000Y-93403500D01*
G75*
G02*
X171633500Y-93231000I172500J0D01*
G01*
X172028500Y-93231000D01*
G75*
G02*
X172201000Y-93403500I0J-172500D01*
G01*
X172201000Y-93748500D01*
G75*
G02*
X172028500Y-93921000I-172500J0D01*
G01*
G37*
%TD*%
%TO.C,C1023*%
G36*
G01*
X126098000Y-91560000D02*
X126098000Y-91955000D01*
G75*
G02*
X125925500Y-92127500I-172500J0D01*
G01*
X125580500Y-92127500D01*
G75*
G02*
X125408000Y-91955000I0J172500D01*
G01*
X125408000Y-91560000D01*
G75*
G02*
X125580500Y-91387500I172500J0D01*
G01*
X125925500Y-91387500D01*
G75*
G02*
X126098000Y-91560000I0J-172500D01*
G01*
G37*
G36*
G01*
X127068000Y-91560000D02*
X127068000Y-91955000D01*
G75*
G02*
X126895500Y-92127500I-172500J0D01*
G01*
X126550500Y-92127500D01*
G75*
G02*
X126378000Y-91955000I0J172500D01*
G01*
X126378000Y-91560000D01*
G75*
G02*
X126550500Y-91387500I172500J0D01*
G01*
X126895500Y-91387500D01*
G75*
G02*
X127068000Y-91560000I0J-172500D01*
G01*
G37*
%TD*%
%TO.C,C1021*%
G36*
G01*
X91922500Y-89735000D02*
X91527500Y-89735000D01*
G75*
G02*
X91355000Y-89562500I0J172500D01*
G01*
X91355000Y-89217500D01*
G75*
G02*
X91527500Y-89045000I172500J0D01*
G01*
X91922500Y-89045000D01*
G75*
G02*
X92095000Y-89217500I0J-172500D01*
G01*
X92095000Y-89562500D01*
G75*
G02*
X91922500Y-89735000I-172500J0D01*
G01*
G37*
G36*
G01*
X91922500Y-90705000D02*
X91527500Y-90705000D01*
G75*
G02*
X91355000Y-90532500I0J172500D01*
G01*
X91355000Y-90187500D01*
G75*
G02*
X91527500Y-90015000I172500J0D01*
G01*
X91922500Y-90015000D01*
G75*
G02*
X92095000Y-90187500I0J-172500D01*
G01*
X92095000Y-90532500D01*
G75*
G02*
X91922500Y-90705000I-172500J0D01*
G01*
G37*
%TD*%
%TO.C,C1020*%
G36*
G01*
X166340000Y-100697500D02*
X166340000Y-100302500D01*
G75*
G02*
X166512500Y-100130000I172500J0D01*
G01*
X166857500Y-100130000D01*
G75*
G02*
X167030000Y-100302500I0J-172500D01*
G01*
X167030000Y-100697500D01*
G75*
G02*
X166857500Y-100870000I-172500J0D01*
G01*
X166512500Y-100870000D01*
G75*
G02*
X166340000Y-100697500I0J172500D01*
G01*
G37*
G36*
G01*
X165370000Y-100697500D02*
X165370000Y-100302500D01*
G75*
G02*
X165542500Y-100130000I172500J0D01*
G01*
X165887500Y-100130000D01*
G75*
G02*
X166060000Y-100302500I0J-172500D01*
G01*
X166060000Y-100697500D01*
G75*
G02*
X165887500Y-100870000I-172500J0D01*
G01*
X165542500Y-100870000D01*
G75*
G02*
X165370000Y-100697500I0J172500D01*
G01*
G37*
%TD*%
%TO.C,C1019*%
G36*
G01*
X93451500Y-81245000D02*
X93056500Y-81245000D01*
G75*
G02*
X92884000Y-81072500I0J172500D01*
G01*
X92884000Y-80727500D01*
G75*
G02*
X93056500Y-80555000I172500J0D01*
G01*
X93451500Y-80555000D01*
G75*
G02*
X93624000Y-80727500I0J-172500D01*
G01*
X93624000Y-81072500D01*
G75*
G02*
X93451500Y-81245000I-172500J0D01*
G01*
G37*
G36*
G01*
X93451500Y-82215000D02*
X93056500Y-82215000D01*
G75*
G02*
X92884000Y-82042500I0J172500D01*
G01*
X92884000Y-81697500D01*
G75*
G02*
X93056500Y-81525000I172500J0D01*
G01*
X93451500Y-81525000D01*
G75*
G02*
X93624000Y-81697500I0J-172500D01*
G01*
X93624000Y-82042500D01*
G75*
G02*
X93451500Y-82215000I-172500J0D01*
G01*
G37*
%TD*%
%TO.C,C1018*%
G36*
G01*
X93426500Y-73505000D02*
X93031500Y-73505000D01*
G75*
G02*
X92859000Y-73332500I0J172500D01*
G01*
X92859000Y-72987500D01*
G75*
G02*
X93031500Y-72815000I172500J0D01*
G01*
X93426500Y-72815000D01*
G75*
G02*
X93599000Y-72987500I0J-172500D01*
G01*
X93599000Y-73332500D01*
G75*
G02*
X93426500Y-73505000I-172500J0D01*
G01*
G37*
G36*
G01*
X93426500Y-74475000D02*
X93031500Y-74475000D01*
G75*
G02*
X92859000Y-74302500I0J172500D01*
G01*
X92859000Y-73957500D01*
G75*
G02*
X93031500Y-73785000I172500J0D01*
G01*
X93426500Y-73785000D01*
G75*
G02*
X93599000Y-73957500I0J-172500D01*
G01*
X93599000Y-74302500D01*
G75*
G02*
X93426500Y-74475000I-172500J0D01*
G01*
G37*
%TD*%
%TO.C,C1017*%
G36*
G01*
X104135000Y-63648500D02*
X104135000Y-64043500D01*
G75*
G02*
X103962500Y-64216000I-172500J0D01*
G01*
X103617500Y-64216000D01*
G75*
G02*
X103445000Y-64043500I0J172500D01*
G01*
X103445000Y-63648500D01*
G75*
G02*
X103617500Y-63476000I172500J0D01*
G01*
X103962500Y-63476000D01*
G75*
G02*
X104135000Y-63648500I0J-172500D01*
G01*
G37*
G36*
G01*
X105105000Y-63648500D02*
X105105000Y-64043500D01*
G75*
G02*
X104932500Y-64216000I-172500J0D01*
G01*
X104587500Y-64216000D01*
G75*
G02*
X104415000Y-64043500I0J172500D01*
G01*
X104415000Y-63648500D01*
G75*
G02*
X104587500Y-63476000I172500J0D01*
G01*
X104932500Y-63476000D01*
G75*
G02*
X105105000Y-63648500I0J-172500D01*
G01*
G37*
%TD*%
%TO.C,C1016*%
G36*
G01*
X149655000Y-95536500D02*
X149655000Y-95141500D01*
G75*
G02*
X149827500Y-94969000I172500J0D01*
G01*
X150172500Y-94969000D01*
G75*
G02*
X150345000Y-95141500I0J-172500D01*
G01*
X150345000Y-95536500D01*
G75*
G02*
X150172500Y-95709000I-172500J0D01*
G01*
X149827500Y-95709000D01*
G75*
G02*
X149655000Y-95536500I0J172500D01*
G01*
G37*
G36*
G01*
X148685000Y-95536500D02*
X148685000Y-95141500D01*
G75*
G02*
X148857500Y-94969000I172500J0D01*
G01*
X149202500Y-94969000D01*
G75*
G02*
X149375000Y-95141500I0J-172500D01*
G01*
X149375000Y-95536500D01*
G75*
G02*
X149202500Y-95709000I-172500J0D01*
G01*
X148857500Y-95709000D01*
G75*
G02*
X148685000Y-95536500I0J172500D01*
G01*
G37*
%TD*%
%TO.C,C1015*%
G36*
G01*
X169752500Y-62040000D02*
X170147500Y-62040000D01*
G75*
G02*
X170320000Y-62212500I0J-172500D01*
G01*
X170320000Y-62557500D01*
G75*
G02*
X170147500Y-62730000I-172500J0D01*
G01*
X169752500Y-62730000D01*
G75*
G02*
X169580000Y-62557500I0J172500D01*
G01*
X169580000Y-62212500D01*
G75*
G02*
X169752500Y-62040000I172500J0D01*
G01*
G37*
G36*
G01*
X169752500Y-61070000D02*
X170147500Y-61070000D01*
G75*
G02*
X170320000Y-61242500I0J-172500D01*
G01*
X170320000Y-61587500D01*
G75*
G02*
X170147500Y-61760000I-172500J0D01*
G01*
X169752500Y-61760000D01*
G75*
G02*
X169580000Y-61587500I0J172500D01*
G01*
X169580000Y-61242500D01*
G75*
G02*
X169752500Y-61070000I172500J0D01*
G01*
G37*
%TD*%
%TO.C,C1014*%
G36*
G01*
X170410000Y-63102500D02*
X170410000Y-63497500D01*
G75*
G02*
X170237500Y-63670000I-172500J0D01*
G01*
X169892500Y-63670000D01*
G75*
G02*
X169720000Y-63497500I0J172500D01*
G01*
X169720000Y-63102500D01*
G75*
G02*
X169892500Y-62930000I172500J0D01*
G01*
X170237500Y-62930000D01*
G75*
G02*
X170410000Y-63102500I0J-172500D01*
G01*
G37*
G36*
G01*
X171380000Y-63102500D02*
X171380000Y-63497500D01*
G75*
G02*
X171207500Y-63670000I-172500J0D01*
G01*
X170862500Y-63670000D01*
G75*
G02*
X170690000Y-63497500I0J172500D01*
G01*
X170690000Y-63102500D01*
G75*
G02*
X170862500Y-62930000I172500J0D01*
G01*
X171207500Y-62930000D01*
G75*
G02*
X171380000Y-63102500I0J-172500D01*
G01*
G37*
%TD*%
%TO.C,C1013*%
G36*
G01*
X121357500Y-64300000D02*
X120962500Y-64300000D01*
G75*
G02*
X120790000Y-64127500I0J172500D01*
G01*
X120790000Y-63782500D01*
G75*
G02*
X120962500Y-63610000I172500J0D01*
G01*
X121357500Y-63610000D01*
G75*
G02*
X121530000Y-63782500I0J-172500D01*
G01*
X121530000Y-64127500D01*
G75*
G02*
X121357500Y-64300000I-172500J0D01*
G01*
G37*
G36*
G01*
X121357500Y-65270000D02*
X120962500Y-65270000D01*
G75*
G02*
X120790000Y-65097500I0J172500D01*
G01*
X120790000Y-64752500D01*
G75*
G02*
X120962500Y-64580000I172500J0D01*
G01*
X121357500Y-64580000D01*
G75*
G02*
X121530000Y-64752500I0J-172500D01*
G01*
X121530000Y-65097500D01*
G75*
G02*
X121357500Y-65270000I-172500J0D01*
G01*
G37*
%TD*%
%TO.C,C1012*%
G36*
G01*
X162370000Y-64797500D02*
X162370000Y-64402500D01*
G75*
G02*
X162542500Y-64230000I172500J0D01*
G01*
X162887500Y-64230000D01*
G75*
G02*
X163060000Y-64402500I0J-172500D01*
G01*
X163060000Y-64797500D01*
G75*
G02*
X162887500Y-64970000I-172500J0D01*
G01*
X162542500Y-64970000D01*
G75*
G02*
X162370000Y-64797500I0J172500D01*
G01*
G37*
G36*
G01*
X161400000Y-64797500D02*
X161400000Y-64402500D01*
G75*
G02*
X161572500Y-64230000I172500J0D01*
G01*
X161917500Y-64230000D01*
G75*
G02*
X162090000Y-64402500I0J-172500D01*
G01*
X162090000Y-64797500D01*
G75*
G02*
X161917500Y-64970000I-172500J0D01*
G01*
X161572500Y-64970000D01*
G75*
G02*
X161400000Y-64797500I0J172500D01*
G01*
G37*
%TD*%
%TO.C,C1011*%
G36*
G01*
X149162500Y-77770000D02*
X149557500Y-77770000D01*
G75*
G02*
X149730000Y-77942500I0J-172500D01*
G01*
X149730000Y-78287500D01*
G75*
G02*
X149557500Y-78460000I-172500J0D01*
G01*
X149162500Y-78460000D01*
G75*
G02*
X148990000Y-78287500I0J172500D01*
G01*
X148990000Y-77942500D01*
G75*
G02*
X149162500Y-77770000I172500J0D01*
G01*
G37*
G36*
G01*
X149162500Y-76800000D02*
X149557500Y-76800000D01*
G75*
G02*
X149730000Y-76972500I0J-172500D01*
G01*
X149730000Y-77317500D01*
G75*
G02*
X149557500Y-77490000I-172500J0D01*
G01*
X149162500Y-77490000D01*
G75*
G02*
X148990000Y-77317500I0J172500D01*
G01*
X148990000Y-76972500D01*
G75*
G02*
X149162500Y-76800000I172500J0D01*
G01*
G37*
%TD*%
%TO.C,C1010*%
G36*
G01*
X149242500Y-70850000D02*
X149637500Y-70850000D01*
G75*
G02*
X149810000Y-71022500I0J-172500D01*
G01*
X149810000Y-71367500D01*
G75*
G02*
X149637500Y-71540000I-172500J0D01*
G01*
X149242500Y-71540000D01*
G75*
G02*
X149070000Y-71367500I0J172500D01*
G01*
X149070000Y-71022500D01*
G75*
G02*
X149242500Y-70850000I172500J0D01*
G01*
G37*
G36*
G01*
X149242500Y-69880000D02*
X149637500Y-69880000D01*
G75*
G02*
X149810000Y-70052500I0J-172500D01*
G01*
X149810000Y-70397500D01*
G75*
G02*
X149637500Y-70570000I-172500J0D01*
G01*
X149242500Y-70570000D01*
G75*
G02*
X149070000Y-70397500I0J172500D01*
G01*
X149070000Y-70052500D01*
G75*
G02*
X149242500Y-69880000I172500J0D01*
G01*
G37*
%TD*%
%TO.C,C1009*%
G36*
G01*
X163341500Y-88763000D02*
X163736500Y-88763000D01*
G75*
G02*
X163909000Y-88935500I0J-172500D01*
G01*
X163909000Y-89280500D01*
G75*
G02*
X163736500Y-89453000I-172500J0D01*
G01*
X163341500Y-89453000D01*
G75*
G02*
X163169000Y-89280500I0J172500D01*
G01*
X163169000Y-88935500D01*
G75*
G02*
X163341500Y-88763000I172500J0D01*
G01*
G37*
G36*
G01*
X163341500Y-87793000D02*
X163736500Y-87793000D01*
G75*
G02*
X163909000Y-87965500I0J-172500D01*
G01*
X163909000Y-88310500D01*
G75*
G02*
X163736500Y-88483000I-172500J0D01*
G01*
X163341500Y-88483000D01*
G75*
G02*
X163169000Y-88310500I0J172500D01*
G01*
X163169000Y-87965500D01*
G75*
G02*
X163341500Y-87793000I172500J0D01*
G01*
G37*
%TD*%
%TO.C,C1008*%
G36*
G01*
X170563500Y-88012000D02*
X170958500Y-88012000D01*
G75*
G02*
X171131000Y-88184500I0J-172500D01*
G01*
X171131000Y-88529500D01*
G75*
G02*
X170958500Y-88702000I-172500J0D01*
G01*
X170563500Y-88702000D01*
G75*
G02*
X170391000Y-88529500I0J172500D01*
G01*
X170391000Y-88184500D01*
G75*
G02*
X170563500Y-88012000I172500J0D01*
G01*
G37*
G36*
G01*
X170563500Y-87042000D02*
X170958500Y-87042000D01*
G75*
G02*
X171131000Y-87214500I0J-172500D01*
G01*
X171131000Y-87559500D01*
G75*
G02*
X170958500Y-87732000I-172500J0D01*
G01*
X170563500Y-87732000D01*
G75*
G02*
X170391000Y-87559500I0J172500D01*
G01*
X170391000Y-87214500D01*
G75*
G02*
X170563500Y-87042000I172500J0D01*
G01*
G37*
%TD*%
%TO.C,C1007*%
G36*
G01*
X155047500Y-96950000D02*
X154652500Y-96950000D01*
G75*
G02*
X154480000Y-96777500I0J172500D01*
G01*
X154480000Y-96432500D01*
G75*
G02*
X154652500Y-96260000I172500J0D01*
G01*
X155047500Y-96260000D01*
G75*
G02*
X155220000Y-96432500I0J-172500D01*
G01*
X155220000Y-96777500D01*
G75*
G02*
X155047500Y-96950000I-172500J0D01*
G01*
G37*
G36*
G01*
X155047500Y-95980000D02*
X154652500Y-95980000D01*
G75*
G02*
X154480000Y-95807500I0J172500D01*
G01*
X154480000Y-95462500D01*
G75*
G02*
X154652500Y-95290000I172500J0D01*
G01*
X155047500Y-95290000D01*
G75*
G02*
X155220000Y-95462500I0J-172500D01*
G01*
X155220000Y-95807500D01*
G75*
G02*
X155047500Y-95980000I-172500J0D01*
G01*
G37*
%TD*%
%TO.C,C1005*%
G36*
G01*
X156310000Y-113702500D02*
X156310000Y-114097500D01*
G75*
G02*
X156137500Y-114270000I-172500J0D01*
G01*
X155792500Y-114270000D01*
G75*
G02*
X155620000Y-114097500I0J172500D01*
G01*
X155620000Y-113702500D01*
G75*
G02*
X155792500Y-113530000I172500J0D01*
G01*
X156137500Y-113530000D01*
G75*
G02*
X156310000Y-113702500I0J-172500D01*
G01*
G37*
G36*
G01*
X157280000Y-113702500D02*
X157280000Y-114097500D01*
G75*
G02*
X157107500Y-114270000I-172500J0D01*
G01*
X156762500Y-114270000D01*
G75*
G02*
X156590000Y-114097500I0J172500D01*
G01*
X156590000Y-113702500D01*
G75*
G02*
X156762500Y-113530000I172500J0D01*
G01*
X157107500Y-113530000D01*
G75*
G02*
X157280000Y-113702500I0J-172500D01*
G01*
G37*
%TD*%
%TO.C,C1004*%
G36*
G01*
X140997000Y-89389500D02*
X140997000Y-88994500D01*
G75*
G02*
X141169500Y-88822000I172500J0D01*
G01*
X141514500Y-88822000D01*
G75*
G02*
X141687000Y-88994500I0J-172500D01*
G01*
X141687000Y-89389500D01*
G75*
G02*
X141514500Y-89562000I-172500J0D01*
G01*
X141169500Y-89562000D01*
G75*
G02*
X140997000Y-89389500I0J172500D01*
G01*
G37*
G36*
G01*
X140027000Y-89389500D02*
X140027000Y-88994500D01*
G75*
G02*
X140199500Y-88822000I172500J0D01*
G01*
X140544500Y-88822000D01*
G75*
G02*
X140717000Y-88994500I0J-172500D01*
G01*
X140717000Y-89389500D01*
G75*
G02*
X140544500Y-89562000I-172500J0D01*
G01*
X140199500Y-89562000D01*
G75*
G02*
X140027000Y-89389500I0J172500D01*
G01*
G37*
%TD*%
%TO.C,C1003*%
G36*
G01*
X143135500Y-100218000D02*
X143530500Y-100218000D01*
G75*
G02*
X143703000Y-100390500I0J-172500D01*
G01*
X143703000Y-100735500D01*
G75*
G02*
X143530500Y-100908000I-172500J0D01*
G01*
X143135500Y-100908000D01*
G75*
G02*
X142963000Y-100735500I0J172500D01*
G01*
X142963000Y-100390500D01*
G75*
G02*
X143135500Y-100218000I172500J0D01*
G01*
G37*
G36*
G01*
X143135500Y-99248000D02*
X143530500Y-99248000D01*
G75*
G02*
X143703000Y-99420500I0J-172500D01*
G01*
X143703000Y-99765500D01*
G75*
G02*
X143530500Y-99938000I-172500J0D01*
G01*
X143135500Y-99938000D01*
G75*
G02*
X142963000Y-99765500I0J172500D01*
G01*
X142963000Y-99420500D01*
G75*
G02*
X143135500Y-99248000I172500J0D01*
G01*
G37*
%TD*%
%TO.C,C1002*%
G36*
G01*
X162222000Y-92096500D02*
X162222000Y-91701500D01*
G75*
G02*
X162394500Y-91529000I172500J0D01*
G01*
X162739500Y-91529000D01*
G75*
G02*
X162912000Y-91701500I0J-172500D01*
G01*
X162912000Y-92096500D01*
G75*
G02*
X162739500Y-92269000I-172500J0D01*
G01*
X162394500Y-92269000D01*
G75*
G02*
X162222000Y-92096500I0J172500D01*
G01*
G37*
G36*
G01*
X161252000Y-92096500D02*
X161252000Y-91701500D01*
G75*
G02*
X161424500Y-91529000I172500J0D01*
G01*
X161769500Y-91529000D01*
G75*
G02*
X161942000Y-91701500I0J-172500D01*
G01*
X161942000Y-92096500D01*
G75*
G02*
X161769500Y-92269000I-172500J0D01*
G01*
X161424500Y-92269000D01*
G75*
G02*
X161252000Y-92096500I0J172500D01*
G01*
G37*
%TD*%
%TO.C,C1001*%
G36*
G01*
X91115500Y-93755000D02*
X91115500Y-94150000D01*
G75*
G02*
X90943000Y-94322500I-172500J0D01*
G01*
X90598000Y-94322500D01*
G75*
G02*
X90425500Y-94150000I0J172500D01*
G01*
X90425500Y-93755000D01*
G75*
G02*
X90598000Y-93582500I172500J0D01*
G01*
X90943000Y-93582500D01*
G75*
G02*
X91115500Y-93755000I0J-172500D01*
G01*
G37*
G36*
G01*
X92085500Y-93755000D02*
X92085500Y-94150000D01*
G75*
G02*
X91913000Y-94322500I-172500J0D01*
G01*
X91568000Y-94322500D01*
G75*
G02*
X91395500Y-94150000I0J172500D01*
G01*
X91395500Y-93755000D01*
G75*
G02*
X91568000Y-93582500I172500J0D01*
G01*
X91913000Y-93582500D01*
G75*
G02*
X92085500Y-93755000I0J-172500D01*
G01*
G37*
%TD*%
%TO.C,REF\u002A\u002A*%
G36*
G01*
X108120000Y-69630000D02*
X108120000Y-67530000D01*
G75*
G02*
X108170000Y-67480000I50000J0D01*
G01*
X110270000Y-67480000D01*
G75*
G02*
X110320000Y-67530000I0J-50000D01*
G01*
X110320000Y-69630000D01*
G75*
G02*
X110270000Y-69680000I-50000J0D01*
G01*
X108170000Y-69680000D01*
G75*
G02*
X108120000Y-69630000I0J50000D01*
G01*
G37*
%TD*%
%TO.C,REF\u002A\u002A*%
G36*
G01*
X105580000Y-69630000D02*
X105580000Y-67530000D01*
G75*
G02*
X105630000Y-67480000I50000J0D01*
G01*
X107730000Y-67480000D01*
G75*
G02*
X107780000Y-67530000I0J-50000D01*
G01*
X107780000Y-69630000D01*
G75*
G02*
X107730000Y-69680000I-50000J0D01*
G01*
X105630000Y-69680000D01*
G75*
G02*
X105580000Y-69630000I0J50000D01*
G01*
G37*
%TD*%
%TO.C,REF\u002A\u002A*%
G36*
G01*
X146220000Y-72170000D02*
X146220000Y-70070000D01*
G75*
G02*
X146270000Y-70020000I50000J0D01*
G01*
X148370000Y-70020000D01*
G75*
G02*
X148420000Y-70070000I0J-50000D01*
G01*
X148420000Y-72170000D01*
G75*
G02*
X148370000Y-72220000I-50000J0D01*
G01*
X146270000Y-72220000D01*
G75*
G02*
X146220000Y-72170000I0J50000D01*
G01*
G37*
%TD*%
%TO.C,REF\u002A\u002A*%
G36*
G01*
X143680000Y-69630000D02*
X143680000Y-67530000D01*
G75*
G02*
X143730000Y-67480000I50000J0D01*
G01*
X145830000Y-67480000D01*
G75*
G02*
X145880000Y-67530000I0J-50000D01*
G01*
X145880000Y-69630000D01*
G75*
G02*
X145830000Y-69680000I-50000J0D01*
G01*
X143730000Y-69680000D01*
G75*
G02*
X143680000Y-69630000I0J50000D01*
G01*
G37*
%TD*%
%TO.C,REF\u002A\u002A*%
G36*
G01*
X146220000Y-77250000D02*
X146220000Y-75150000D01*
G75*
G02*
X146270000Y-75100000I50000J0D01*
G01*
X148370000Y-75100000D01*
G75*
G02*
X148420000Y-75150000I0J-50000D01*
G01*
X148420000Y-77250000D01*
G75*
G02*
X148370000Y-77300000I-50000J0D01*
G01*
X146270000Y-77300000D01*
G75*
G02*
X146220000Y-77250000I0J50000D01*
G01*
G37*
%TD*%
%TO.C,REF\u002A\u002A*%
G36*
G01*
X146220000Y-79790000D02*
X146220000Y-77690000D01*
G75*
G02*
X146270000Y-77640000I50000J0D01*
G01*
X148370000Y-77640000D01*
G75*
G02*
X148420000Y-77690000I0J-50000D01*
G01*
X148420000Y-79790000D01*
G75*
G02*
X148370000Y-79840000I-50000J0D01*
G01*
X146270000Y-79840000D01*
G75*
G02*
X146220000Y-79790000I0J50000D01*
G01*
G37*
%TD*%
%TO.C,REF\u002A\u002A*%
G36*
G01*
X146220000Y-82330000D02*
X146220000Y-80230000D01*
G75*
G02*
X146270000Y-80180000I50000J0D01*
G01*
X148370000Y-80180000D01*
G75*
G02*
X148420000Y-80230000I0J-50000D01*
G01*
X148420000Y-82330000D01*
G75*
G02*
X148370000Y-82380000I-50000J0D01*
G01*
X146270000Y-82380000D01*
G75*
G02*
X146220000Y-82330000I0J50000D01*
G01*
G37*
%TD*%
%TO.C,REF\u002A\u002A*%
G36*
G01*
X146220000Y-74710000D02*
X146220000Y-72610000D01*
G75*
G02*
X146270000Y-72560000I50000J0D01*
G01*
X148370000Y-72560000D01*
G75*
G02*
X148420000Y-72610000I0J-50000D01*
G01*
X148420000Y-74710000D01*
G75*
G02*
X148370000Y-74760000I-50000J0D01*
G01*
X146270000Y-74760000D01*
G75*
G02*
X146220000Y-74710000I0J50000D01*
G01*
G37*
%TD*%
%TO.C,REF\u002A\u002A*%
G36*
G01*
X123360000Y-69630000D02*
X123360000Y-67530000D01*
G75*
G02*
X123410000Y-67480000I50000J0D01*
G01*
X125510000Y-67480000D01*
G75*
G02*
X125560000Y-67530000I0J-50000D01*
G01*
X125560000Y-69630000D01*
G75*
G02*
X125510000Y-69680000I-50000J0D01*
G01*
X123410000Y-69680000D01*
G75*
G02*
X123360000Y-69630000I0J50000D01*
G01*
G37*
%TD*%
%TO.C,REF\u002A\u002A*%
G36*
G01*
X113200000Y-69630000D02*
X113200000Y-67530000D01*
G75*
G02*
X113250000Y-67480000I50000J0D01*
G01*
X115350000Y-67480000D01*
G75*
G02*
X115400000Y-67530000I0J-50000D01*
G01*
X115400000Y-69630000D01*
G75*
G02*
X115350000Y-69680000I-50000J0D01*
G01*
X113250000Y-69680000D01*
G75*
G02*
X113200000Y-69630000I0J50000D01*
G01*
G37*
%TD*%
%TO.C,REF\u002A\u002A*%
G36*
G01*
X130980000Y-69630000D02*
X130980000Y-67530000D01*
G75*
G02*
X131030000Y-67480000I50000J0D01*
G01*
X133130000Y-67480000D01*
G75*
G02*
X133180000Y-67530000I0J-50000D01*
G01*
X133180000Y-69630000D01*
G75*
G02*
X133130000Y-69680000I-50000J0D01*
G01*
X131030000Y-69680000D01*
G75*
G02*
X130980000Y-69630000I0J50000D01*
G01*
G37*
%TD*%
%TO.C,REF\u002A\u002A*%
G36*
G01*
X125900000Y-69630000D02*
X125900000Y-67530000D01*
G75*
G02*
X125950000Y-67480000I50000J0D01*
G01*
X128050000Y-67480000D01*
G75*
G02*
X128100000Y-67530000I0J-50000D01*
G01*
X128100000Y-69630000D01*
G75*
G02*
X128050000Y-69680000I-50000J0D01*
G01*
X125950000Y-69680000D01*
G75*
G02*
X125900000Y-69630000I0J50000D01*
G01*
G37*
%TD*%
%TO.C,REF\u002A\u002A*%
G36*
G01*
X128440000Y-69630000D02*
X128440000Y-67530000D01*
G75*
G02*
X128490000Y-67480000I50000J0D01*
G01*
X130590000Y-67480000D01*
G75*
G02*
X130640000Y-67530000I0J-50000D01*
G01*
X130640000Y-69630000D01*
G75*
G02*
X130590000Y-69680000I-50000J0D01*
G01*
X128490000Y-69680000D01*
G75*
G02*
X128440000Y-69630000I0J50000D01*
G01*
G37*
%TD*%
%TO.C,REF\u002A\u002A*%
G36*
G01*
X118280000Y-69630000D02*
X118280000Y-67530000D01*
G75*
G02*
X118330000Y-67480000I50000J0D01*
G01*
X120430000Y-67480000D01*
G75*
G02*
X120480000Y-67530000I0J-50000D01*
G01*
X120480000Y-69630000D01*
G75*
G02*
X120430000Y-69680000I-50000J0D01*
G01*
X118330000Y-69680000D01*
G75*
G02*
X118280000Y-69630000I0J50000D01*
G01*
G37*
%TD*%
%TO.C,REF\u002A\u002A*%
G36*
G01*
X138600000Y-69630000D02*
X138600000Y-67530000D01*
G75*
G02*
X138650000Y-67480000I50000J0D01*
G01*
X140750000Y-67480000D01*
G75*
G02*
X140800000Y-67530000I0J-50000D01*
G01*
X140800000Y-69630000D01*
G75*
G02*
X140750000Y-69680000I-50000J0D01*
G01*
X138650000Y-69680000D01*
G75*
G02*
X138600000Y-69630000I0J50000D01*
G01*
G37*
%TD*%
%TO.C,REF\u002A\u002A*%
G36*
G01*
X136060000Y-69630000D02*
X136060000Y-67530000D01*
G75*
G02*
X136110000Y-67480000I50000J0D01*
G01*
X138210000Y-67480000D01*
G75*
G02*
X138260000Y-67530000I0J-50000D01*
G01*
X138260000Y-69630000D01*
G75*
G02*
X138210000Y-69680000I-50000J0D01*
G01*
X136110000Y-69680000D01*
G75*
G02*
X136060000Y-69630000I0J50000D01*
G01*
G37*
%TD*%
%TO.C,REF\u002A\u002A*%
G36*
G01*
X115740000Y-69630000D02*
X115740000Y-67530000D01*
G75*
G02*
X115790000Y-67480000I50000J0D01*
G01*
X117890000Y-67480000D01*
G75*
G02*
X117940000Y-67530000I0J-50000D01*
G01*
X117940000Y-69630000D01*
G75*
G02*
X117890000Y-69680000I-50000J0D01*
G01*
X115790000Y-69680000D01*
G75*
G02*
X115740000Y-69630000I0J50000D01*
G01*
G37*
%TD*%
%TO.C,REF\u002A\u002A*%
G36*
G01*
X110660000Y-69630000D02*
X110660000Y-67530000D01*
G75*
G02*
X110710000Y-67480000I50000J0D01*
G01*
X112810000Y-67480000D01*
G75*
G02*
X112860000Y-67530000I0J-50000D01*
G01*
X112860000Y-69630000D01*
G75*
G02*
X112810000Y-69680000I-50000J0D01*
G01*
X110710000Y-69680000D01*
G75*
G02*
X110660000Y-69630000I0J50000D01*
G01*
G37*
%TD*%
%TO.C,REF\u002A\u002A*%
G36*
G01*
X133520000Y-69630000D02*
X133520000Y-67530000D01*
G75*
G02*
X133570000Y-67480000I50000J0D01*
G01*
X135670000Y-67480000D01*
G75*
G02*
X135720000Y-67530000I0J-50000D01*
G01*
X135720000Y-69630000D01*
G75*
G02*
X135670000Y-69680000I-50000J0D01*
G01*
X133570000Y-69680000D01*
G75*
G02*
X133520000Y-69630000I0J50000D01*
G01*
G37*
%TD*%
%TO.C,REF\u002A\u002A*%
G36*
G01*
X120820000Y-69630000D02*
X120820000Y-67530000D01*
G75*
G02*
X120870000Y-67480000I50000J0D01*
G01*
X122970000Y-67480000D01*
G75*
G02*
X123020000Y-67530000I0J-50000D01*
G01*
X123020000Y-69630000D01*
G75*
G02*
X122970000Y-69680000I-50000J0D01*
G01*
X120870000Y-69680000D01*
G75*
G02*
X120820000Y-69630000I0J50000D01*
G01*
G37*
%TD*%
%TO.C,REF\u002A\u002A*%
G36*
G01*
X141140000Y-69630000D02*
X141140000Y-67530000D01*
G75*
G02*
X141190000Y-67480000I50000J0D01*
G01*
X143290000Y-67480000D01*
G75*
G02*
X143340000Y-67530000I0J-50000D01*
G01*
X143340000Y-69630000D01*
G75*
G02*
X143290000Y-69680000I-50000J0D01*
G01*
X141190000Y-69680000D01*
G75*
G02*
X141140000Y-69630000I0J50000D01*
G01*
G37*
%TD*%
%TO.C,C601*%
G36*
G01*
X113463500Y-105784000D02*
X113858500Y-105784000D01*
G75*
G02*
X114031000Y-105956500I0J-172500D01*
G01*
X114031000Y-106301500D01*
G75*
G02*
X113858500Y-106474000I-172500J0D01*
G01*
X113463500Y-106474000D01*
G75*
G02*
X113291000Y-106301500I0J172500D01*
G01*
X113291000Y-105956500D01*
G75*
G02*
X113463500Y-105784000I172500J0D01*
G01*
G37*
G36*
G01*
X113463500Y-104814000D02*
X113858500Y-104814000D01*
G75*
G02*
X114031000Y-104986500I0J-172500D01*
G01*
X114031000Y-105331500D01*
G75*
G02*
X113858500Y-105504000I-172500J0D01*
G01*
X113463500Y-105504000D01*
G75*
G02*
X113291000Y-105331500I0J172500D01*
G01*
X113291000Y-104986500D01*
G75*
G02*
X113463500Y-104814000I172500J0D01*
G01*
G37*
%TD*%
%TO.C,C303*%
G36*
G01*
X100260000Y-93652500D02*
X100260000Y-94047500D01*
G75*
G02*
X100087500Y-94220000I-172500J0D01*
G01*
X99742500Y-94220000D01*
G75*
G02*
X99570000Y-94047500I0J172500D01*
G01*
X99570000Y-93652500D01*
G75*
G02*
X99742500Y-93480000I172500J0D01*
G01*
X100087500Y-93480000D01*
G75*
G02*
X100260000Y-93652500I0J-172500D01*
G01*
G37*
G36*
G01*
X101230000Y-93652500D02*
X101230000Y-94047500D01*
G75*
G02*
X101057500Y-94220000I-172500J0D01*
G01*
X100712500Y-94220000D01*
G75*
G02*
X100540000Y-94047500I0J172500D01*
G01*
X100540000Y-93652500D01*
G75*
G02*
X100712500Y-93480000I172500J0D01*
G01*
X101057500Y-93480000D01*
G75*
G02*
X101230000Y-93652500I0J-172500D01*
G01*
G37*
%TD*%
%TO.C,REF\u002A\u002A*%
G36*
G01*
X120820000Y-84870000D02*
X120820000Y-82770000D01*
G75*
G02*
X120870000Y-82720000I50000J0D01*
G01*
X122970000Y-82720000D01*
G75*
G02*
X123020000Y-82770000I0J-50000D01*
G01*
X123020000Y-84870000D01*
G75*
G02*
X122970000Y-84920000I-50000J0D01*
G01*
X120870000Y-84920000D01*
G75*
G02*
X120820000Y-84870000I0J50000D01*
G01*
G37*
%TD*%
%TO.C,REF\u002A\u002A*%
G36*
G01*
X108120000Y-84870000D02*
X108120000Y-82770000D01*
G75*
G02*
X108170000Y-82720000I50000J0D01*
G01*
X110270000Y-82720000D01*
G75*
G02*
X110320000Y-82770000I0J-50000D01*
G01*
X110320000Y-84870000D01*
G75*
G02*
X110270000Y-84920000I-50000J0D01*
G01*
X108170000Y-84920000D01*
G75*
G02*
X108120000Y-84870000I0J50000D01*
G01*
G37*
%TD*%
%TO.C,REF\u002A\u002A*%
G36*
G01*
X110660000Y-84870000D02*
X110660000Y-82770000D01*
G75*
G02*
X110710000Y-82720000I50000J0D01*
G01*
X112810000Y-82720000D01*
G75*
G02*
X112860000Y-82770000I0J-50000D01*
G01*
X112860000Y-84870000D01*
G75*
G02*
X112810000Y-84920000I-50000J0D01*
G01*
X110710000Y-84920000D01*
G75*
G02*
X110660000Y-84870000I0J50000D01*
G01*
G37*
%TD*%
%TO.C,REF\u002A\u002A*%
G36*
G01*
X125900000Y-84870000D02*
X125900000Y-82770000D01*
G75*
G02*
X125950000Y-82720000I50000J0D01*
G01*
X128050000Y-82720000D01*
G75*
G02*
X128100000Y-82770000I0J-50000D01*
G01*
X128100000Y-84870000D01*
G75*
G02*
X128050000Y-84920000I-50000J0D01*
G01*
X125950000Y-84920000D01*
G75*
G02*
X125900000Y-84870000I0J50000D01*
G01*
G37*
%TD*%
%TO.C,REF\u002A\u002A*%
G36*
G01*
X133520000Y-84870000D02*
X133520000Y-82770000D01*
G75*
G02*
X133570000Y-82720000I50000J0D01*
G01*
X135670000Y-82720000D01*
G75*
G02*
X135720000Y-82770000I0J-50000D01*
G01*
X135720000Y-84870000D01*
G75*
G02*
X135670000Y-84920000I-50000J0D01*
G01*
X133570000Y-84920000D01*
G75*
G02*
X133520000Y-84870000I0J50000D01*
G01*
G37*
%TD*%
%TO.C,REF\u002A\u002A*%
G36*
G01*
X118280000Y-84870000D02*
X118280000Y-82770000D01*
G75*
G02*
X118330000Y-82720000I50000J0D01*
G01*
X120430000Y-82720000D01*
G75*
G02*
X120480000Y-82770000I0J-50000D01*
G01*
X120480000Y-84870000D01*
G75*
G02*
X120430000Y-84920000I-50000J0D01*
G01*
X118330000Y-84920000D01*
G75*
G02*
X118280000Y-84870000I0J50000D01*
G01*
G37*
%TD*%
%TO.C,REF\u002A\u002A*%
G36*
G01*
X136060000Y-84870000D02*
X136060000Y-82770000D01*
G75*
G02*
X136110000Y-82720000I50000J0D01*
G01*
X138210000Y-82720000D01*
G75*
G02*
X138260000Y-82770000I0J-50000D01*
G01*
X138260000Y-84870000D01*
G75*
G02*
X138210000Y-84920000I-50000J0D01*
G01*
X136110000Y-84920000D01*
G75*
G02*
X136060000Y-84870000I0J50000D01*
G01*
G37*
%TD*%
%TO.C,REF\u002A\u002A*%
G36*
G01*
X138600000Y-84870000D02*
X138600000Y-82770000D01*
G75*
G02*
X138650000Y-82720000I50000J0D01*
G01*
X140750000Y-82720000D01*
G75*
G02*
X140800000Y-82770000I0J-50000D01*
G01*
X140800000Y-84870000D01*
G75*
G02*
X140750000Y-84920000I-50000J0D01*
G01*
X138650000Y-84920000D01*
G75*
G02*
X138600000Y-84870000I0J50000D01*
G01*
G37*
%TD*%
%TO.C,REF\u002A\u002A*%
G36*
G01*
X141140000Y-84870000D02*
X141140000Y-82770000D01*
G75*
G02*
X141190000Y-82720000I50000J0D01*
G01*
X143290000Y-82720000D01*
G75*
G02*
X143340000Y-82770000I0J-50000D01*
G01*
X143340000Y-84870000D01*
G75*
G02*
X143290000Y-84920000I-50000J0D01*
G01*
X141190000Y-84920000D01*
G75*
G02*
X141140000Y-84870000I0J50000D01*
G01*
G37*
%TD*%
%TO.C,REF\u002A\u002A*%
G36*
G01*
X143680000Y-84870000D02*
X143680000Y-82770000D01*
G75*
G02*
X143730000Y-82720000I50000J0D01*
G01*
X145830000Y-82720000D01*
G75*
G02*
X145880000Y-82770000I0J-50000D01*
G01*
X145880000Y-84870000D01*
G75*
G02*
X145830000Y-84920000I-50000J0D01*
G01*
X143730000Y-84920000D01*
G75*
G02*
X143680000Y-84870000I0J50000D01*
G01*
G37*
%TD*%
%TO.C,REF\u002A\u002A*%
G36*
G01*
X123360000Y-84870000D02*
X123360000Y-82770000D01*
G75*
G02*
X123410000Y-82720000I50000J0D01*
G01*
X125510000Y-82720000D01*
G75*
G02*
X125560000Y-82770000I0J-50000D01*
G01*
X125560000Y-84870000D01*
G75*
G02*
X125510000Y-84920000I-50000J0D01*
G01*
X123410000Y-84920000D01*
G75*
G02*
X123360000Y-84870000I0J50000D01*
G01*
G37*
%TD*%
%TO.C,REF\u002A\u002A*%
G36*
G01*
X105580000Y-84870000D02*
X105580000Y-82770000D01*
G75*
G02*
X105630000Y-82720000I50000J0D01*
G01*
X107730000Y-82720000D01*
G75*
G02*
X107780000Y-82770000I0J-50000D01*
G01*
X107780000Y-84870000D01*
G75*
G02*
X107730000Y-84920000I-50000J0D01*
G01*
X105630000Y-84920000D01*
G75*
G02*
X105580000Y-84870000I0J50000D01*
G01*
G37*
%TD*%
%TO.C,REF\u002A\u002A*%
G36*
G01*
X113200000Y-84870000D02*
X113200000Y-82770000D01*
G75*
G02*
X113250000Y-82720000I50000J0D01*
G01*
X115350000Y-82720000D01*
G75*
G02*
X115400000Y-82770000I0J-50000D01*
G01*
X115400000Y-84870000D01*
G75*
G02*
X115350000Y-84920000I-50000J0D01*
G01*
X113250000Y-84920000D01*
G75*
G02*
X113200000Y-84870000I0J50000D01*
G01*
G37*
%TD*%
%TO.C,REF\u002A\u002A*%
G36*
G01*
X115740000Y-84870000D02*
X115740000Y-82770000D01*
G75*
G02*
X115790000Y-82720000I50000J0D01*
G01*
X117890000Y-82720000D01*
G75*
G02*
X117940000Y-82770000I0J-50000D01*
G01*
X117940000Y-84870000D01*
G75*
G02*
X117890000Y-84920000I-50000J0D01*
G01*
X115790000Y-84920000D01*
G75*
G02*
X115740000Y-84870000I0J50000D01*
G01*
G37*
%TD*%
%TO.C,REF\u002A\u002A*%
G36*
G01*
X130980000Y-84870000D02*
X130980000Y-82770000D01*
G75*
G02*
X131030000Y-82720000I50000J0D01*
G01*
X133130000Y-82720000D01*
G75*
G02*
X133180000Y-82770000I0J-50000D01*
G01*
X133180000Y-84870000D01*
G75*
G02*
X133130000Y-84920000I-50000J0D01*
G01*
X131030000Y-84920000D01*
G75*
G02*
X130980000Y-84870000I0J50000D01*
G01*
G37*
%TD*%
%TO.C,REF\u002A\u002A*%
G36*
G01*
X128440000Y-84870000D02*
X128440000Y-82770000D01*
G75*
G02*
X128490000Y-82720000I50000J0D01*
G01*
X130590000Y-82720000D01*
G75*
G02*
X130640000Y-82770000I0J-50000D01*
G01*
X130640000Y-84870000D01*
G75*
G02*
X130590000Y-84920000I-50000J0D01*
G01*
X128490000Y-84920000D01*
G75*
G02*
X128440000Y-84870000I0J50000D01*
G01*
G37*
%TD*%
%TO.C,REF\u002A\u002A*%
G36*
G01*
X113200000Y-74710000D02*
X113200000Y-72610000D01*
G75*
G02*
X113250000Y-72560000I50000J0D01*
G01*
X115350000Y-72560000D01*
G75*
G02*
X115400000Y-72610000I0J-50000D01*
G01*
X115400000Y-74710000D01*
G75*
G02*
X115350000Y-74760000I-50000J0D01*
G01*
X113250000Y-74760000D01*
G75*
G02*
X113200000Y-74710000I0J50000D01*
G01*
G37*
%TD*%
%TO.C,REF\u002A\u002A*%
G36*
G01*
X110660000Y-72170000D02*
X110660000Y-70070000D01*
G75*
G02*
X110710000Y-70020000I50000J0D01*
G01*
X112810000Y-70020000D01*
G75*
G02*
X112860000Y-70070000I0J-50000D01*
G01*
X112860000Y-72170000D01*
G75*
G02*
X112810000Y-72220000I-50000J0D01*
G01*
X110710000Y-72220000D01*
G75*
G02*
X110660000Y-72170000I0J50000D01*
G01*
G37*
%TD*%
%TO.C,REF\u002A\u002A*%
G36*
G01*
X110660000Y-77250000D02*
X110660000Y-75150000D01*
G75*
G02*
X110710000Y-75100000I50000J0D01*
G01*
X112810000Y-75100000D01*
G75*
G02*
X112860000Y-75150000I0J-50000D01*
G01*
X112860000Y-77250000D01*
G75*
G02*
X112810000Y-77300000I-50000J0D01*
G01*
X110710000Y-77300000D01*
G75*
G02*
X110660000Y-77250000I0J50000D01*
G01*
G37*
%TD*%
%TO.C,REF\u002A\u002A*%
G36*
G01*
X123360000Y-77250000D02*
X123360000Y-75150000D01*
G75*
G02*
X123410000Y-75100000I50000J0D01*
G01*
X125510000Y-75100000D01*
G75*
G02*
X125560000Y-75150000I0J-50000D01*
G01*
X125560000Y-77250000D01*
G75*
G02*
X125510000Y-77300000I-50000J0D01*
G01*
X123410000Y-77300000D01*
G75*
G02*
X123360000Y-77250000I0J50000D01*
G01*
G37*
%TD*%
%TO.C,REF\u002A\u002A*%
G36*
G01*
X105580000Y-72170000D02*
X105580000Y-70070000D01*
G75*
G02*
X105630000Y-70020000I50000J0D01*
G01*
X107730000Y-70020000D01*
G75*
G02*
X107780000Y-70070000I0J-50000D01*
G01*
X107780000Y-72170000D01*
G75*
G02*
X107730000Y-72220000I-50000J0D01*
G01*
X105630000Y-72220000D01*
G75*
G02*
X105580000Y-72170000I0J50000D01*
G01*
G37*
%TD*%
%TO.C,REF\u002A\u002A*%
G36*
G01*
X105580000Y-82330000D02*
X105580000Y-80230000D01*
G75*
G02*
X105630000Y-80180000I50000J0D01*
G01*
X107730000Y-80180000D01*
G75*
G02*
X107780000Y-80230000I0J-50000D01*
G01*
X107780000Y-82330000D01*
G75*
G02*
X107730000Y-82380000I-50000J0D01*
G01*
X105630000Y-82380000D01*
G75*
G02*
X105580000Y-82330000I0J50000D01*
G01*
G37*
%TD*%
%TO.C,REF\u002A\u002A*%
G36*
G01*
X105580000Y-77250000D02*
X105580000Y-75150000D01*
G75*
G02*
X105630000Y-75100000I50000J0D01*
G01*
X107730000Y-75100000D01*
G75*
G02*
X107780000Y-75150000I0J-50000D01*
G01*
X107780000Y-77250000D01*
G75*
G02*
X107730000Y-77300000I-50000J0D01*
G01*
X105630000Y-77300000D01*
G75*
G02*
X105580000Y-77250000I0J50000D01*
G01*
G37*
%TD*%
%TO.C,REF\u002A\u002A*%
G36*
G01*
X105580000Y-79790000D02*
X105580000Y-77690000D01*
G75*
G02*
X105630000Y-77640000I50000J0D01*
G01*
X107730000Y-77640000D01*
G75*
G02*
X107780000Y-77690000I0J-50000D01*
G01*
X107780000Y-79790000D01*
G75*
G02*
X107730000Y-79840000I-50000J0D01*
G01*
X105630000Y-79840000D01*
G75*
G02*
X105580000Y-79790000I0J50000D01*
G01*
G37*
%TD*%
%TO.C,REF\u002A\u002A*%
G36*
G01*
X108120000Y-77250000D02*
X108120000Y-75150000D01*
G75*
G02*
X108170000Y-75100000I50000J0D01*
G01*
X110270000Y-75100000D01*
G75*
G02*
X110320000Y-75150000I0J-50000D01*
G01*
X110320000Y-77250000D01*
G75*
G02*
X110270000Y-77300000I-50000J0D01*
G01*
X108170000Y-77300000D01*
G75*
G02*
X108120000Y-77250000I0J50000D01*
G01*
G37*
%TD*%
%TO.C,REF\u002A\u002A*%
G36*
G01*
X108120000Y-79790000D02*
X108120000Y-77690000D01*
G75*
G02*
X108170000Y-77640000I50000J0D01*
G01*
X110270000Y-77640000D01*
G75*
G02*
X110320000Y-77690000I0J-50000D01*
G01*
X110320000Y-79790000D01*
G75*
G02*
X110270000Y-79840000I-50000J0D01*
G01*
X108170000Y-79840000D01*
G75*
G02*
X108120000Y-79790000I0J50000D01*
G01*
G37*
%TD*%
%TO.C,REF\u002A\u002A*%
G36*
G01*
X108120000Y-72170000D02*
X108120000Y-70070000D01*
G75*
G02*
X108170000Y-70020000I50000J0D01*
G01*
X110270000Y-70020000D01*
G75*
G02*
X110320000Y-70070000I0J-50000D01*
G01*
X110320000Y-72170000D01*
G75*
G02*
X110270000Y-72220000I-50000J0D01*
G01*
X108170000Y-72220000D01*
G75*
G02*
X108120000Y-72170000I0J50000D01*
G01*
G37*
%TD*%
%TO.C,REF\u002A\u002A*%
G36*
G01*
X108120000Y-74710000D02*
X108120000Y-72610000D01*
G75*
G02*
X108170000Y-72560000I50000J0D01*
G01*
X110270000Y-72560000D01*
G75*
G02*
X110320000Y-72610000I0J-50000D01*
G01*
X110320000Y-74710000D01*
G75*
G02*
X110270000Y-74760000I-50000J0D01*
G01*
X108170000Y-74760000D01*
G75*
G02*
X108120000Y-74710000I0J50000D01*
G01*
G37*
%TD*%
%TO.C,REF\u002A\u002A*%
G36*
G01*
X105580000Y-74710000D02*
X105580000Y-72610000D01*
G75*
G02*
X105630000Y-72560000I50000J0D01*
G01*
X107730000Y-72560000D01*
G75*
G02*
X107780000Y-72610000I0J-50000D01*
G01*
X107780000Y-74710000D01*
G75*
G02*
X107730000Y-74760000I-50000J0D01*
G01*
X105630000Y-74760000D01*
G75*
G02*
X105580000Y-74710000I0J50000D01*
G01*
G37*
%TD*%
%TO.C,REF\u002A\u002A*%
G36*
G01*
X113200000Y-77250000D02*
X113200000Y-75150000D01*
G75*
G02*
X113250000Y-75100000I50000J0D01*
G01*
X115350000Y-75100000D01*
G75*
G02*
X115400000Y-75150000I0J-50000D01*
G01*
X115400000Y-77250000D01*
G75*
G02*
X115350000Y-77300000I-50000J0D01*
G01*
X113250000Y-77300000D01*
G75*
G02*
X113200000Y-77250000I0J50000D01*
G01*
G37*
%TD*%
%TO.C,REF\u002A\u002A*%
G36*
G01*
X113200000Y-79790000D02*
X113200000Y-77690000D01*
G75*
G02*
X113250000Y-77640000I50000J0D01*
G01*
X115350000Y-77640000D01*
G75*
G02*
X115400000Y-77690000I0J-50000D01*
G01*
X115400000Y-79790000D01*
G75*
G02*
X115350000Y-79840000I-50000J0D01*
G01*
X113250000Y-79840000D01*
G75*
G02*
X113200000Y-79790000I0J50000D01*
G01*
G37*
%TD*%
%TO.C,REF\u002A\u002A*%
G36*
G01*
X110660000Y-74710000D02*
X110660000Y-72610000D01*
G75*
G02*
X110710000Y-72560000I50000J0D01*
G01*
X112810000Y-72560000D01*
G75*
G02*
X112860000Y-72610000I0J-50000D01*
G01*
X112860000Y-74710000D01*
G75*
G02*
X112810000Y-74760000I-50000J0D01*
G01*
X110710000Y-74760000D01*
G75*
G02*
X110660000Y-74710000I0J50000D01*
G01*
G37*
%TD*%
%TO.C,REF\u002A\u002A*%
G36*
G01*
X113200000Y-82330000D02*
X113200000Y-80230000D01*
G75*
G02*
X113250000Y-80180000I50000J0D01*
G01*
X115350000Y-80180000D01*
G75*
G02*
X115400000Y-80230000I0J-50000D01*
G01*
X115400000Y-82330000D01*
G75*
G02*
X115350000Y-82380000I-50000J0D01*
G01*
X113250000Y-82380000D01*
G75*
G02*
X113200000Y-82330000I0J50000D01*
G01*
G37*
%TD*%
%TO.C,REF\u002A\u002A*%
G36*
G01*
X110660000Y-79790000D02*
X110660000Y-77690000D01*
G75*
G02*
X110710000Y-77640000I50000J0D01*
G01*
X112810000Y-77640000D01*
G75*
G02*
X112860000Y-77690000I0J-50000D01*
G01*
X112860000Y-79790000D01*
G75*
G02*
X112810000Y-79840000I-50000J0D01*
G01*
X110710000Y-79840000D01*
G75*
G02*
X110660000Y-79790000I0J50000D01*
G01*
G37*
%TD*%
%TO.C,REF\u002A\u002A*%
G36*
G01*
X123360000Y-79790000D02*
X123360000Y-77690000D01*
G75*
G02*
X123410000Y-77640000I50000J0D01*
G01*
X125510000Y-77640000D01*
G75*
G02*
X125560000Y-77690000I0J-50000D01*
G01*
X125560000Y-79790000D01*
G75*
G02*
X125510000Y-79840000I-50000J0D01*
G01*
X123410000Y-79840000D01*
G75*
G02*
X123360000Y-79790000I0J50000D01*
G01*
G37*
%TD*%
%TO.C,REF\u002A\u002A*%
G36*
G01*
X115740000Y-82330000D02*
X115740000Y-80230000D01*
G75*
G02*
X115790000Y-80180000I50000J0D01*
G01*
X117890000Y-80180000D01*
G75*
G02*
X117940000Y-80230000I0J-50000D01*
G01*
X117940000Y-82330000D01*
G75*
G02*
X117890000Y-82380000I-50000J0D01*
G01*
X115790000Y-82380000D01*
G75*
G02*
X115740000Y-82330000I0J50000D01*
G01*
G37*
%TD*%
%TO.C,REF\u002A\u002A*%
G36*
G01*
X115740000Y-77250000D02*
X115740000Y-75150000D01*
G75*
G02*
X115790000Y-75100000I50000J0D01*
G01*
X117890000Y-75100000D01*
G75*
G02*
X117940000Y-75150000I0J-50000D01*
G01*
X117940000Y-77250000D01*
G75*
G02*
X117890000Y-77300000I-50000J0D01*
G01*
X115790000Y-77300000D01*
G75*
G02*
X115740000Y-77250000I0J50000D01*
G01*
G37*
%TD*%
%TO.C,REF\u002A\u002A*%
G36*
G01*
X115740000Y-79790000D02*
X115740000Y-77690000D01*
G75*
G02*
X115790000Y-77640000I50000J0D01*
G01*
X117890000Y-77640000D01*
G75*
G02*
X117940000Y-77690000I0J-50000D01*
G01*
X117940000Y-79790000D01*
G75*
G02*
X117890000Y-79840000I-50000J0D01*
G01*
X115790000Y-79840000D01*
G75*
G02*
X115740000Y-79790000I0J50000D01*
G01*
G37*
%TD*%
%TO.C,REF\u002A\u002A*%
G36*
G01*
X118280000Y-77250000D02*
X118280000Y-75150000D01*
G75*
G02*
X118330000Y-75100000I50000J0D01*
G01*
X120430000Y-75100000D01*
G75*
G02*
X120480000Y-75150000I0J-50000D01*
G01*
X120480000Y-77250000D01*
G75*
G02*
X120430000Y-77300000I-50000J0D01*
G01*
X118330000Y-77300000D01*
G75*
G02*
X118280000Y-77250000I0J50000D01*
G01*
G37*
%TD*%
%TO.C,REF\u002A\u002A*%
G36*
G01*
X118280000Y-79790000D02*
X118280000Y-77690000D01*
G75*
G02*
X118330000Y-77640000I50000J0D01*
G01*
X120430000Y-77640000D01*
G75*
G02*
X120480000Y-77690000I0J-50000D01*
G01*
X120480000Y-79790000D01*
G75*
G02*
X120430000Y-79840000I-50000J0D01*
G01*
X118330000Y-79840000D01*
G75*
G02*
X118280000Y-79790000I0J50000D01*
G01*
G37*
%TD*%
%TO.C,REF\u002A\u002A*%
G36*
G01*
X118280000Y-72170000D02*
X118280000Y-70070000D01*
G75*
G02*
X118330000Y-70020000I50000J0D01*
G01*
X120430000Y-70020000D01*
G75*
G02*
X120480000Y-70070000I0J-50000D01*
G01*
X120480000Y-72170000D01*
G75*
G02*
X120430000Y-72220000I-50000J0D01*
G01*
X118330000Y-72220000D01*
G75*
G02*
X118280000Y-72170000I0J50000D01*
G01*
G37*
%TD*%
%TO.C,REF\u002A\u002A*%
G36*
G01*
X118280000Y-74710000D02*
X118280000Y-72610000D01*
G75*
G02*
X118330000Y-72560000I50000J0D01*
G01*
X120430000Y-72560000D01*
G75*
G02*
X120480000Y-72610000I0J-50000D01*
G01*
X120480000Y-74710000D01*
G75*
G02*
X120430000Y-74760000I-50000J0D01*
G01*
X118330000Y-74760000D01*
G75*
G02*
X118280000Y-74710000I0J50000D01*
G01*
G37*
%TD*%
%TO.C,REF\u002A\u002A*%
G36*
G01*
X115740000Y-74710000D02*
X115740000Y-72610000D01*
G75*
G02*
X115790000Y-72560000I50000J0D01*
G01*
X117890000Y-72560000D01*
G75*
G02*
X117940000Y-72610000I0J-50000D01*
G01*
X117940000Y-74710000D01*
G75*
G02*
X117890000Y-74760000I-50000J0D01*
G01*
X115790000Y-74760000D01*
G75*
G02*
X115740000Y-74710000I0J50000D01*
G01*
G37*
%TD*%
%TO.C,REF\u002A\u002A*%
G36*
G01*
X115740000Y-72170000D02*
X115740000Y-70070000D01*
G75*
G02*
X115790000Y-70020000I50000J0D01*
G01*
X117890000Y-70020000D01*
G75*
G02*
X117940000Y-70070000I0J-50000D01*
G01*
X117940000Y-72170000D01*
G75*
G02*
X117890000Y-72220000I-50000J0D01*
G01*
X115790000Y-72220000D01*
G75*
G02*
X115740000Y-72170000I0J50000D01*
G01*
G37*
%TD*%
%TO.C,REF\u002A\u002A*%
G36*
G01*
X118280000Y-82330000D02*
X118280000Y-80230000D01*
G75*
G02*
X118330000Y-80180000I50000J0D01*
G01*
X120430000Y-80180000D01*
G75*
G02*
X120480000Y-80230000I0J-50000D01*
G01*
X120480000Y-82330000D01*
G75*
G02*
X120430000Y-82380000I-50000J0D01*
G01*
X118330000Y-82380000D01*
G75*
G02*
X118280000Y-82330000I0J50000D01*
G01*
G37*
%TD*%
%TO.C,REF\u002A\u002A*%
G36*
G01*
X120820000Y-77250000D02*
X120820000Y-75150000D01*
G75*
G02*
X120870000Y-75100000I50000J0D01*
G01*
X122970000Y-75100000D01*
G75*
G02*
X123020000Y-75150000I0J-50000D01*
G01*
X123020000Y-77250000D01*
G75*
G02*
X122970000Y-77300000I-50000J0D01*
G01*
X120870000Y-77300000D01*
G75*
G02*
X120820000Y-77250000I0J50000D01*
G01*
G37*
%TD*%
%TO.C,REF\u002A\u002A*%
G36*
G01*
X120820000Y-79790000D02*
X120820000Y-77690000D01*
G75*
G02*
X120870000Y-77640000I50000J0D01*
G01*
X122970000Y-77640000D01*
G75*
G02*
X123020000Y-77690000I0J-50000D01*
G01*
X123020000Y-79790000D01*
G75*
G02*
X122970000Y-79840000I-50000J0D01*
G01*
X120870000Y-79840000D01*
G75*
G02*
X120820000Y-79790000I0J50000D01*
G01*
G37*
%TD*%
%TO.C,REF\u002A\u002A*%
G36*
G01*
X120820000Y-82330000D02*
X120820000Y-80230000D01*
G75*
G02*
X120870000Y-80180000I50000J0D01*
G01*
X122970000Y-80180000D01*
G75*
G02*
X123020000Y-80230000I0J-50000D01*
G01*
X123020000Y-82330000D01*
G75*
G02*
X122970000Y-82380000I-50000J0D01*
G01*
X120870000Y-82380000D01*
G75*
G02*
X120820000Y-82330000I0J50000D01*
G01*
G37*
%TD*%
%TO.C,REF\u002A\u002A*%
G36*
G01*
X120820000Y-74710000D02*
X120820000Y-72610000D01*
G75*
G02*
X120870000Y-72560000I50000J0D01*
G01*
X122970000Y-72560000D01*
G75*
G02*
X123020000Y-72610000I0J-50000D01*
G01*
X123020000Y-74710000D01*
G75*
G02*
X122970000Y-74760000I-50000J0D01*
G01*
X120870000Y-74760000D01*
G75*
G02*
X120820000Y-74710000I0J50000D01*
G01*
G37*
%TD*%
%TO.C,REF\u002A\u002A*%
G36*
G01*
X120820000Y-72170000D02*
X120820000Y-70070000D01*
G75*
G02*
X120870000Y-70020000I50000J0D01*
G01*
X122970000Y-70020000D01*
G75*
G02*
X123020000Y-70070000I0J-50000D01*
G01*
X123020000Y-72170000D01*
G75*
G02*
X122970000Y-72220000I-50000J0D01*
G01*
X120870000Y-72220000D01*
G75*
G02*
X120820000Y-72170000I0J50000D01*
G01*
G37*
%TD*%
%TO.C,REF\u002A\u002A*%
G36*
G01*
X123360000Y-82330000D02*
X123360000Y-80230000D01*
G75*
G02*
X123410000Y-80180000I50000J0D01*
G01*
X125510000Y-80180000D01*
G75*
G02*
X125560000Y-80230000I0J-50000D01*
G01*
X125560000Y-82330000D01*
G75*
G02*
X125510000Y-82380000I-50000J0D01*
G01*
X123410000Y-82380000D01*
G75*
G02*
X123360000Y-82330000I0J50000D01*
G01*
G37*
%TD*%
%TO.C,REF\u002A\u002A*%
G36*
G01*
X123360000Y-74710000D02*
X123360000Y-72610000D01*
G75*
G02*
X123410000Y-72560000I50000J0D01*
G01*
X125510000Y-72560000D01*
G75*
G02*
X125560000Y-72610000I0J-50000D01*
G01*
X125560000Y-74710000D01*
G75*
G02*
X125510000Y-74760000I-50000J0D01*
G01*
X123410000Y-74760000D01*
G75*
G02*
X123360000Y-74710000I0J50000D01*
G01*
G37*
%TD*%
%TO.C,REF\u002A\u002A*%
G36*
G01*
X113200000Y-72170000D02*
X113200000Y-70070000D01*
G75*
G02*
X113250000Y-70020000I50000J0D01*
G01*
X115350000Y-70020000D01*
G75*
G02*
X115400000Y-70070000I0J-50000D01*
G01*
X115400000Y-72170000D01*
G75*
G02*
X115350000Y-72220000I-50000J0D01*
G01*
X113250000Y-72220000D01*
G75*
G02*
X113200000Y-72170000I0J50000D01*
G01*
G37*
%TD*%
%TO.C,REF\u002A\u002A*%
G36*
G01*
X110660000Y-82330000D02*
X110660000Y-80230000D01*
G75*
G02*
X110710000Y-80180000I50000J0D01*
G01*
X112810000Y-80180000D01*
G75*
G02*
X112860000Y-80230000I0J-50000D01*
G01*
X112860000Y-82330000D01*
G75*
G02*
X112810000Y-82380000I-50000J0D01*
G01*
X110710000Y-82380000D01*
G75*
G02*
X110660000Y-82330000I0J50000D01*
G01*
G37*
%TD*%
%TO.C,REF\u002A\u002A*%
G36*
G01*
X108120000Y-82330000D02*
X108120000Y-80230000D01*
G75*
G02*
X108170000Y-80180000I50000J0D01*
G01*
X110270000Y-80180000D01*
G75*
G02*
X110320000Y-80230000I0J-50000D01*
G01*
X110320000Y-82330000D01*
G75*
G02*
X110270000Y-82380000I-50000J0D01*
G01*
X108170000Y-82380000D01*
G75*
G02*
X108120000Y-82330000I0J50000D01*
G01*
G37*
%TD*%
%TO.C,REF\u002A\u002A*%
G36*
G01*
X123360000Y-72170000D02*
X123360000Y-70070000D01*
G75*
G02*
X123410000Y-70020000I50000J0D01*
G01*
X125510000Y-70020000D01*
G75*
G02*
X125560000Y-70070000I0J-50000D01*
G01*
X125560000Y-72170000D01*
G75*
G02*
X125510000Y-72220000I-50000J0D01*
G01*
X123410000Y-72220000D01*
G75*
G02*
X123360000Y-72170000I0J50000D01*
G01*
G37*
%TD*%
%TO.C,REF\u002A\u002A*%
G36*
G01*
X133520000Y-77250000D02*
X133520000Y-75150000D01*
G75*
G02*
X133570000Y-75100000I50000J0D01*
G01*
X135670000Y-75100000D01*
G75*
G02*
X135720000Y-75150000I0J-50000D01*
G01*
X135720000Y-77250000D01*
G75*
G02*
X135670000Y-77300000I-50000J0D01*
G01*
X133570000Y-77300000D01*
G75*
G02*
X133520000Y-77250000I0J50000D01*
G01*
G37*
%TD*%
%TO.C,REF\u002A\u002A*%
G36*
G01*
X133520000Y-79790000D02*
X133520000Y-77690000D01*
G75*
G02*
X133570000Y-77640000I50000J0D01*
G01*
X135670000Y-77640000D01*
G75*
G02*
X135720000Y-77690000I0J-50000D01*
G01*
X135720000Y-79790000D01*
G75*
G02*
X135670000Y-79840000I-50000J0D01*
G01*
X133570000Y-79840000D01*
G75*
G02*
X133520000Y-79790000I0J50000D01*
G01*
G37*
%TD*%
%TO.C,REF\u002A\u002A*%
G36*
G01*
X125900000Y-82330000D02*
X125900000Y-80230000D01*
G75*
G02*
X125950000Y-80180000I50000J0D01*
G01*
X128050000Y-80180000D01*
G75*
G02*
X128100000Y-80230000I0J-50000D01*
G01*
X128100000Y-82330000D01*
G75*
G02*
X128050000Y-82380000I-50000J0D01*
G01*
X125950000Y-82380000D01*
G75*
G02*
X125900000Y-82330000I0J50000D01*
G01*
G37*
%TD*%
%TO.C,REF\u002A\u002A*%
G36*
G01*
X125900000Y-77250000D02*
X125900000Y-75150000D01*
G75*
G02*
X125950000Y-75100000I50000J0D01*
G01*
X128050000Y-75100000D01*
G75*
G02*
X128100000Y-75150000I0J-50000D01*
G01*
X128100000Y-77250000D01*
G75*
G02*
X128050000Y-77300000I-50000J0D01*
G01*
X125950000Y-77300000D01*
G75*
G02*
X125900000Y-77250000I0J50000D01*
G01*
G37*
%TD*%
%TO.C,REF\u002A\u002A*%
G36*
G01*
X125900000Y-79790000D02*
X125900000Y-77690000D01*
G75*
G02*
X125950000Y-77640000I50000J0D01*
G01*
X128050000Y-77640000D01*
G75*
G02*
X128100000Y-77690000I0J-50000D01*
G01*
X128100000Y-79790000D01*
G75*
G02*
X128050000Y-79840000I-50000J0D01*
G01*
X125950000Y-79840000D01*
G75*
G02*
X125900000Y-79790000I0J50000D01*
G01*
G37*
%TD*%
%TO.C,REF\u002A\u002A*%
G36*
G01*
X128440000Y-77250000D02*
X128440000Y-75150000D01*
G75*
G02*
X128490000Y-75100000I50000J0D01*
G01*
X130590000Y-75100000D01*
G75*
G02*
X130640000Y-75150000I0J-50000D01*
G01*
X130640000Y-77250000D01*
G75*
G02*
X130590000Y-77300000I-50000J0D01*
G01*
X128490000Y-77300000D01*
G75*
G02*
X128440000Y-77250000I0J50000D01*
G01*
G37*
%TD*%
%TO.C,REF\u002A\u002A*%
G36*
G01*
X128440000Y-79790000D02*
X128440000Y-77690000D01*
G75*
G02*
X128490000Y-77640000I50000J0D01*
G01*
X130590000Y-77640000D01*
G75*
G02*
X130640000Y-77690000I0J-50000D01*
G01*
X130640000Y-79790000D01*
G75*
G02*
X130590000Y-79840000I-50000J0D01*
G01*
X128490000Y-79840000D01*
G75*
G02*
X128440000Y-79790000I0J50000D01*
G01*
G37*
%TD*%
%TO.C,REF\u002A\u002A*%
G36*
G01*
X128440000Y-72170000D02*
X128440000Y-70070000D01*
G75*
G02*
X128490000Y-70020000I50000J0D01*
G01*
X130590000Y-70020000D01*
G75*
G02*
X130640000Y-70070000I0J-50000D01*
G01*
X130640000Y-72170000D01*
G75*
G02*
X130590000Y-72220000I-50000J0D01*
G01*
X128490000Y-72220000D01*
G75*
G02*
X128440000Y-72170000I0J50000D01*
G01*
G37*
%TD*%
%TO.C,REF\u002A\u002A*%
G36*
G01*
X128440000Y-74710000D02*
X128440000Y-72610000D01*
G75*
G02*
X128490000Y-72560000I50000J0D01*
G01*
X130590000Y-72560000D01*
G75*
G02*
X130640000Y-72610000I0J-50000D01*
G01*
X130640000Y-74710000D01*
G75*
G02*
X130590000Y-74760000I-50000J0D01*
G01*
X128490000Y-74760000D01*
G75*
G02*
X128440000Y-74710000I0J50000D01*
G01*
G37*
%TD*%
%TO.C,REF\u002A\u002A*%
G36*
G01*
X125900000Y-74710000D02*
X125900000Y-72610000D01*
G75*
G02*
X125950000Y-72560000I50000J0D01*
G01*
X128050000Y-72560000D01*
G75*
G02*
X128100000Y-72610000I0J-50000D01*
G01*
X128100000Y-74710000D01*
G75*
G02*
X128050000Y-74760000I-50000J0D01*
G01*
X125950000Y-74760000D01*
G75*
G02*
X125900000Y-74710000I0J50000D01*
G01*
G37*
%TD*%
%TO.C,REF\u002A\u002A*%
G36*
G01*
X125900000Y-72170000D02*
X125900000Y-70070000D01*
G75*
G02*
X125950000Y-70020000I50000J0D01*
G01*
X128050000Y-70020000D01*
G75*
G02*
X128100000Y-70070000I0J-50000D01*
G01*
X128100000Y-72170000D01*
G75*
G02*
X128050000Y-72220000I-50000J0D01*
G01*
X125950000Y-72220000D01*
G75*
G02*
X125900000Y-72170000I0J50000D01*
G01*
G37*
%TD*%
%TO.C,REF\u002A\u002A*%
G36*
G01*
X128440000Y-82330000D02*
X128440000Y-80230000D01*
G75*
G02*
X128490000Y-80180000I50000J0D01*
G01*
X130590000Y-80180000D01*
G75*
G02*
X130640000Y-80230000I0J-50000D01*
G01*
X130640000Y-82330000D01*
G75*
G02*
X130590000Y-82380000I-50000J0D01*
G01*
X128490000Y-82380000D01*
G75*
G02*
X128440000Y-82330000I0J50000D01*
G01*
G37*
%TD*%
%TO.C,REF\u002A\u002A*%
G36*
G01*
X130980000Y-77250000D02*
X130980000Y-75150000D01*
G75*
G02*
X131030000Y-75100000I50000J0D01*
G01*
X133130000Y-75100000D01*
G75*
G02*
X133180000Y-75150000I0J-50000D01*
G01*
X133180000Y-77250000D01*
G75*
G02*
X133130000Y-77300000I-50000J0D01*
G01*
X131030000Y-77300000D01*
G75*
G02*
X130980000Y-77250000I0J50000D01*
G01*
G37*
%TD*%
%TO.C,REF\u002A\u002A*%
G36*
G01*
X130980000Y-79790000D02*
X130980000Y-77690000D01*
G75*
G02*
X131030000Y-77640000I50000J0D01*
G01*
X133130000Y-77640000D01*
G75*
G02*
X133180000Y-77690000I0J-50000D01*
G01*
X133180000Y-79790000D01*
G75*
G02*
X133130000Y-79840000I-50000J0D01*
G01*
X131030000Y-79840000D01*
G75*
G02*
X130980000Y-79790000I0J50000D01*
G01*
G37*
%TD*%
%TO.C,REF\u002A\u002A*%
G36*
G01*
X130980000Y-82330000D02*
X130980000Y-80230000D01*
G75*
G02*
X131030000Y-80180000I50000J0D01*
G01*
X133130000Y-80180000D01*
G75*
G02*
X133180000Y-80230000I0J-50000D01*
G01*
X133180000Y-82330000D01*
G75*
G02*
X133130000Y-82380000I-50000J0D01*
G01*
X131030000Y-82380000D01*
G75*
G02*
X130980000Y-82330000I0J50000D01*
G01*
G37*
%TD*%
%TO.C,REF\u002A\u002A*%
G36*
G01*
X130980000Y-74710000D02*
X130980000Y-72610000D01*
G75*
G02*
X131030000Y-72560000I50000J0D01*
G01*
X133130000Y-72560000D01*
G75*
G02*
X133180000Y-72610000I0J-50000D01*
G01*
X133180000Y-74710000D01*
G75*
G02*
X133130000Y-74760000I-50000J0D01*
G01*
X131030000Y-74760000D01*
G75*
G02*
X130980000Y-74710000I0J50000D01*
G01*
G37*
%TD*%
%TO.C,REF\u002A\u002A*%
G36*
G01*
X130980000Y-72170000D02*
X130980000Y-70070000D01*
G75*
G02*
X131030000Y-70020000I50000J0D01*
G01*
X133130000Y-70020000D01*
G75*
G02*
X133180000Y-70070000I0J-50000D01*
G01*
X133180000Y-72170000D01*
G75*
G02*
X133130000Y-72220000I-50000J0D01*
G01*
X131030000Y-72220000D01*
G75*
G02*
X130980000Y-72170000I0J50000D01*
G01*
G37*
%TD*%
%TO.C,REF\u002A\u002A*%
G36*
G01*
X133520000Y-82330000D02*
X133520000Y-80230000D01*
G75*
G02*
X133570000Y-80180000I50000J0D01*
G01*
X135670000Y-80180000D01*
G75*
G02*
X135720000Y-80230000I0J-50000D01*
G01*
X135720000Y-82330000D01*
G75*
G02*
X135670000Y-82380000I-50000J0D01*
G01*
X133570000Y-82380000D01*
G75*
G02*
X133520000Y-82330000I0J50000D01*
G01*
G37*
%TD*%
%TO.C,REF\u002A\u002A*%
G36*
G01*
X133520000Y-74710000D02*
X133520000Y-72610000D01*
G75*
G02*
X133570000Y-72560000I50000J0D01*
G01*
X135670000Y-72560000D01*
G75*
G02*
X135720000Y-72610000I0J-50000D01*
G01*
X135720000Y-74710000D01*
G75*
G02*
X135670000Y-74760000I-50000J0D01*
G01*
X133570000Y-74760000D01*
G75*
G02*
X133520000Y-74710000I0J50000D01*
G01*
G37*
%TD*%
%TO.C,REF\u002A\u002A*%
G36*
G01*
X133520000Y-72170000D02*
X133520000Y-70070000D01*
G75*
G02*
X133570000Y-70020000I50000J0D01*
G01*
X135670000Y-70020000D01*
G75*
G02*
X135720000Y-70070000I0J-50000D01*
G01*
X135720000Y-72170000D01*
G75*
G02*
X135670000Y-72220000I-50000J0D01*
G01*
X133570000Y-72220000D01*
G75*
G02*
X133520000Y-72170000I0J50000D01*
G01*
G37*
%TD*%
%TO.C,REF\u002A\u002A*%
G36*
G01*
X138600000Y-77250000D02*
X138600000Y-75150000D01*
G75*
G02*
X138650000Y-75100000I50000J0D01*
G01*
X140750000Y-75100000D01*
G75*
G02*
X140800000Y-75150000I0J-50000D01*
G01*
X140800000Y-77250000D01*
G75*
G02*
X140750000Y-77300000I-50000J0D01*
G01*
X138650000Y-77300000D01*
G75*
G02*
X138600000Y-77250000I0J50000D01*
G01*
G37*
%TD*%
%TO.C,REF\u002A\u002A*%
G36*
G01*
X138600000Y-79790000D02*
X138600000Y-77690000D01*
G75*
G02*
X138650000Y-77640000I50000J0D01*
G01*
X140750000Y-77640000D01*
G75*
G02*
X140800000Y-77690000I0J-50000D01*
G01*
X140800000Y-79790000D01*
G75*
G02*
X140750000Y-79840000I-50000J0D01*
G01*
X138650000Y-79840000D01*
G75*
G02*
X138600000Y-79790000I0J50000D01*
G01*
G37*
%TD*%
%TO.C,REF\u002A\u002A*%
G36*
G01*
X136060000Y-77250000D02*
X136060000Y-75150000D01*
G75*
G02*
X136110000Y-75100000I50000J0D01*
G01*
X138210000Y-75100000D01*
G75*
G02*
X138260000Y-75150000I0J-50000D01*
G01*
X138260000Y-77250000D01*
G75*
G02*
X138210000Y-77300000I-50000J0D01*
G01*
X136110000Y-77300000D01*
G75*
G02*
X136060000Y-77250000I0J50000D01*
G01*
G37*
%TD*%
%TO.C,REF\u002A\u002A*%
G36*
G01*
X136060000Y-79790000D02*
X136060000Y-77690000D01*
G75*
G02*
X136110000Y-77640000I50000J0D01*
G01*
X138210000Y-77640000D01*
G75*
G02*
X138260000Y-77690000I0J-50000D01*
G01*
X138260000Y-79790000D01*
G75*
G02*
X138210000Y-79840000I-50000J0D01*
G01*
X136110000Y-79840000D01*
G75*
G02*
X136060000Y-79790000I0J50000D01*
G01*
G37*
%TD*%
%TO.C,REF\u002A\u002A*%
G36*
G01*
X136060000Y-82330000D02*
X136060000Y-80230000D01*
G75*
G02*
X136110000Y-80180000I50000J0D01*
G01*
X138210000Y-80180000D01*
G75*
G02*
X138260000Y-80230000I0J-50000D01*
G01*
X138260000Y-82330000D01*
G75*
G02*
X138210000Y-82380000I-50000J0D01*
G01*
X136110000Y-82380000D01*
G75*
G02*
X136060000Y-82330000I0J50000D01*
G01*
G37*
%TD*%
%TO.C,REF\u002A\u002A*%
G36*
G01*
X136060000Y-74710000D02*
X136060000Y-72610000D01*
G75*
G02*
X136110000Y-72560000I50000J0D01*
G01*
X138210000Y-72560000D01*
G75*
G02*
X138260000Y-72610000I0J-50000D01*
G01*
X138260000Y-74710000D01*
G75*
G02*
X138210000Y-74760000I-50000J0D01*
G01*
X136110000Y-74760000D01*
G75*
G02*
X136060000Y-74710000I0J50000D01*
G01*
G37*
%TD*%
%TO.C,REF\u002A\u002A*%
G36*
G01*
X136060000Y-72170000D02*
X136060000Y-70070000D01*
G75*
G02*
X136110000Y-70020000I50000J0D01*
G01*
X138210000Y-70020000D01*
G75*
G02*
X138260000Y-70070000I0J-50000D01*
G01*
X138260000Y-72170000D01*
G75*
G02*
X138210000Y-72220000I-50000J0D01*
G01*
X136110000Y-72220000D01*
G75*
G02*
X136060000Y-72170000I0J50000D01*
G01*
G37*
%TD*%
%TO.C,REF\u002A\u002A*%
G36*
G01*
X138600000Y-82330000D02*
X138600000Y-80230000D01*
G75*
G02*
X138650000Y-80180000I50000J0D01*
G01*
X140750000Y-80180000D01*
G75*
G02*
X140800000Y-80230000I0J-50000D01*
G01*
X140800000Y-82330000D01*
G75*
G02*
X140750000Y-82380000I-50000J0D01*
G01*
X138650000Y-82380000D01*
G75*
G02*
X138600000Y-82330000I0J50000D01*
G01*
G37*
%TD*%
%TO.C,REF\u002A\u002A*%
G36*
G01*
X138600000Y-74710000D02*
X138600000Y-72610000D01*
G75*
G02*
X138650000Y-72560000I50000J0D01*
G01*
X140750000Y-72560000D01*
G75*
G02*
X140800000Y-72610000I0J-50000D01*
G01*
X140800000Y-74710000D01*
G75*
G02*
X140750000Y-74760000I-50000J0D01*
G01*
X138650000Y-74760000D01*
G75*
G02*
X138600000Y-74710000I0J50000D01*
G01*
G37*
%TD*%
%TO.C,REF\u002A\u002A*%
G36*
G01*
X138600000Y-72170000D02*
X138600000Y-70070000D01*
G75*
G02*
X138650000Y-70020000I50000J0D01*
G01*
X140750000Y-70020000D01*
G75*
G02*
X140800000Y-70070000I0J-50000D01*
G01*
X140800000Y-72170000D01*
G75*
G02*
X140750000Y-72220000I-50000J0D01*
G01*
X138650000Y-72220000D01*
G75*
G02*
X138600000Y-72170000I0J50000D01*
G01*
G37*
%TD*%
%TO.C,REF\u002A\u002A*%
G36*
G01*
X141140000Y-77250000D02*
X141140000Y-75150000D01*
G75*
G02*
X141190000Y-75100000I50000J0D01*
G01*
X143290000Y-75100000D01*
G75*
G02*
X143340000Y-75150000I0J-50000D01*
G01*
X143340000Y-77250000D01*
G75*
G02*
X143290000Y-77300000I-50000J0D01*
G01*
X141190000Y-77300000D01*
G75*
G02*
X141140000Y-77250000I0J50000D01*
G01*
G37*
%TD*%
%TO.C,REF\u002A\u002A*%
G36*
G01*
X141140000Y-79790000D02*
X141140000Y-77690000D01*
G75*
G02*
X141190000Y-77640000I50000J0D01*
G01*
X143290000Y-77640000D01*
G75*
G02*
X143340000Y-77690000I0J-50000D01*
G01*
X143340000Y-79790000D01*
G75*
G02*
X143290000Y-79840000I-50000J0D01*
G01*
X141190000Y-79840000D01*
G75*
G02*
X141140000Y-79790000I0J50000D01*
G01*
G37*
%TD*%
%TO.C,REF\u002A\u002A*%
G36*
G01*
X141140000Y-82330000D02*
X141140000Y-80230000D01*
G75*
G02*
X141190000Y-80180000I50000J0D01*
G01*
X143290000Y-80180000D01*
G75*
G02*
X143340000Y-80230000I0J-50000D01*
G01*
X143340000Y-82330000D01*
G75*
G02*
X143290000Y-82380000I-50000J0D01*
G01*
X141190000Y-82380000D01*
G75*
G02*
X141140000Y-82330000I0J50000D01*
G01*
G37*
%TD*%
%TO.C,REF\u002A\u002A*%
G36*
G01*
X141140000Y-74710000D02*
X141140000Y-72610000D01*
G75*
G02*
X141190000Y-72560000I50000J0D01*
G01*
X143290000Y-72560000D01*
G75*
G02*
X143340000Y-72610000I0J-50000D01*
G01*
X143340000Y-74710000D01*
G75*
G02*
X143290000Y-74760000I-50000J0D01*
G01*
X141190000Y-74760000D01*
G75*
G02*
X141140000Y-74710000I0J50000D01*
G01*
G37*
%TD*%
%TO.C,REF\u002A\u002A*%
G36*
G01*
X141140000Y-72170000D02*
X141140000Y-70070000D01*
G75*
G02*
X141190000Y-70020000I50000J0D01*
G01*
X143290000Y-70020000D01*
G75*
G02*
X143340000Y-70070000I0J-50000D01*
G01*
X143340000Y-72170000D01*
G75*
G02*
X143290000Y-72220000I-50000J0D01*
G01*
X141190000Y-72220000D01*
G75*
G02*
X141140000Y-72170000I0J50000D01*
G01*
G37*
%TD*%
%TO.C,REF\u002A\u002A*%
G36*
G01*
X143680000Y-74710000D02*
X143680000Y-72610000D01*
G75*
G02*
X143730000Y-72560000I50000J0D01*
G01*
X145830000Y-72560000D01*
G75*
G02*
X145880000Y-72610000I0J-50000D01*
G01*
X145880000Y-74710000D01*
G75*
G02*
X145830000Y-74760000I-50000J0D01*
G01*
X143730000Y-74760000D01*
G75*
G02*
X143680000Y-74710000I0J50000D01*
G01*
G37*
%TD*%
%TO.C,REF\u002A\u002A*%
G36*
G01*
X143680000Y-72170000D02*
X143680000Y-70070000D01*
G75*
G02*
X143730000Y-70020000I50000J0D01*
G01*
X145830000Y-70020000D01*
G75*
G02*
X145880000Y-70070000I0J-50000D01*
G01*
X145880000Y-72170000D01*
G75*
G02*
X145830000Y-72220000I-50000J0D01*
G01*
X143730000Y-72220000D01*
G75*
G02*
X143680000Y-72170000I0J50000D01*
G01*
G37*
%TD*%
%TO.C,REF\u002A\u002A*%
G36*
G01*
X143680000Y-79790000D02*
X143680000Y-77690000D01*
G75*
G02*
X143730000Y-77640000I50000J0D01*
G01*
X145830000Y-77640000D01*
G75*
G02*
X145880000Y-77690000I0J-50000D01*
G01*
X145880000Y-79790000D01*
G75*
G02*
X145830000Y-79840000I-50000J0D01*
G01*
X143730000Y-79840000D01*
G75*
G02*
X143680000Y-79790000I0J50000D01*
G01*
G37*
%TD*%
%TO.C,REF\u002A\u002A*%
G36*
G01*
X143680000Y-77250000D02*
X143680000Y-75150000D01*
G75*
G02*
X143730000Y-75100000I50000J0D01*
G01*
X145830000Y-75100000D01*
G75*
G02*
X145880000Y-75150000I0J-50000D01*
G01*
X145880000Y-77250000D01*
G75*
G02*
X145830000Y-77300000I-50000J0D01*
G01*
X143730000Y-77300000D01*
G75*
G02*
X143680000Y-77250000I0J50000D01*
G01*
G37*
%TD*%
%TO.C,REF\u002A\u002A*%
G36*
G01*
X143680000Y-82330000D02*
X143680000Y-80230000D01*
G75*
G02*
X143730000Y-80180000I50000J0D01*
G01*
X145830000Y-80180000D01*
G75*
G02*
X145880000Y-80230000I0J-50000D01*
G01*
X145880000Y-82330000D01*
G75*
G02*
X145830000Y-82380000I-50000J0D01*
G01*
X143730000Y-82380000D01*
G75*
G02*
X143680000Y-82330000I0J50000D01*
G01*
G37*
%TD*%
%TO.C,C202*%
G36*
G01*
X171725000Y-64268750D02*
X171725000Y-64831250D01*
G75*
G02*
X171481250Y-65075000I-243750J0D01*
G01*
X170993750Y-65075000D01*
G75*
G02*
X170750000Y-64831250I0J243750D01*
G01*
X170750000Y-64268750D01*
G75*
G02*
X170993750Y-64025000I243750J0D01*
G01*
X171481250Y-64025000D01*
G75*
G02*
X171725000Y-64268750I0J-243750D01*
G01*
G37*
G36*
G01*
X170150000Y-64268750D02*
X170150000Y-64831250D01*
G75*
G02*
X169906250Y-65075000I-243750J0D01*
G01*
X169418750Y-65075000D01*
G75*
G02*
X169175000Y-64831250I0J243750D01*
G01*
X169175000Y-64268750D01*
G75*
G02*
X169418750Y-64025000I243750J0D01*
G01*
X169906250Y-64025000D01*
G75*
G02*
X170150000Y-64268750I0J-243750D01*
G01*
G37*
%TD*%
%TO.C,C203*%
G36*
G01*
X167780000Y-64502500D02*
X167780000Y-64897500D01*
G75*
G02*
X167607500Y-65070000I-172500J0D01*
G01*
X167262500Y-65070000D01*
G75*
G02*
X167090000Y-64897500I0J172500D01*
G01*
X167090000Y-64502500D01*
G75*
G02*
X167262500Y-64330000I172500J0D01*
G01*
X167607500Y-64330000D01*
G75*
G02*
X167780000Y-64502500I0J-172500D01*
G01*
G37*
G36*
G01*
X166810000Y-64502500D02*
X166810000Y-64897500D01*
G75*
G02*
X166637500Y-65070000I-172500J0D01*
G01*
X166292500Y-65070000D01*
G75*
G02*
X166120000Y-64897500I0J172500D01*
G01*
X166120000Y-64502500D01*
G75*
G02*
X166292500Y-64330000I172500J0D01*
G01*
X166637500Y-64330000D01*
G75*
G02*
X166810000Y-64502500I0J-172500D01*
G01*
G37*
%TD*%
%TO.C,C301*%
G36*
G01*
X94855000Y-92025000D02*
X93545000Y-92025000D01*
G75*
G02*
X93275000Y-91755000I0J270000D01*
G01*
X93275000Y-90945000D01*
G75*
G02*
X93545000Y-90675000I270000J0D01*
G01*
X94855000Y-90675000D01*
G75*
G02*
X95125000Y-90945000I0J-270000D01*
G01*
X95125000Y-91755000D01*
G75*
G02*
X94855000Y-92025000I-270000J0D01*
G01*
G37*
G36*
G01*
X94855000Y-94825000D02*
X93545000Y-94825000D01*
G75*
G02*
X93275000Y-94555000I0J270000D01*
G01*
X93275000Y-93745000D01*
G75*
G02*
X93545000Y-93475000I270000J0D01*
G01*
X94855000Y-93475000D01*
G75*
G02*
X95125000Y-93745000I0J-270000D01*
G01*
X95125000Y-94555000D01*
G75*
G02*
X94855000Y-94825000I-270000J0D01*
G01*
G37*
%TD*%
%TO.C,C302*%
G36*
G01*
X95997500Y-100460000D02*
X95602500Y-100460000D01*
G75*
G02*
X95430000Y-100287500I0J172500D01*
G01*
X95430000Y-99942500D01*
G75*
G02*
X95602500Y-99770000I172500J0D01*
G01*
X95997500Y-99770000D01*
G75*
G02*
X96170000Y-99942500I0J-172500D01*
G01*
X96170000Y-100287500D01*
G75*
G02*
X95997500Y-100460000I-172500J0D01*
G01*
G37*
G36*
G01*
X95997500Y-101430000D02*
X95602500Y-101430000D01*
G75*
G02*
X95430000Y-101257500I0J172500D01*
G01*
X95430000Y-100912500D01*
G75*
G02*
X95602500Y-100740000I172500J0D01*
G01*
X95997500Y-100740000D01*
G75*
G02*
X96170000Y-100912500I0J-172500D01*
G01*
X96170000Y-101257500D01*
G75*
G02*
X95997500Y-101430000I-172500J0D01*
G01*
G37*
%TD*%
%TO.C,C304*%
G36*
G01*
X100881250Y-86450000D02*
X99918750Y-86450000D01*
G75*
G02*
X99650000Y-86181250I0J268750D01*
G01*
X99650000Y-85643750D01*
G75*
G02*
X99918750Y-85375000I268750J0D01*
G01*
X100881250Y-85375000D01*
G75*
G02*
X101150000Y-85643750I0J-268750D01*
G01*
X101150000Y-86181250D01*
G75*
G02*
X100881250Y-86450000I-268750J0D01*
G01*
G37*
G36*
G01*
X100881250Y-88325000D02*
X99918750Y-88325000D01*
G75*
G02*
X99650000Y-88056250I0J268750D01*
G01*
X99650000Y-87518750D01*
G75*
G02*
X99918750Y-87250000I268750J0D01*
G01*
X100881250Y-87250000D01*
G75*
G02*
X101150000Y-87518750I0J-268750D01*
G01*
X101150000Y-88056250D01*
G75*
G02*
X100881250Y-88325000I-268750J0D01*
G01*
G37*
%TD*%
%TO.C,C305*%
G36*
G01*
X98997500Y-87880000D02*
X98602500Y-87880000D01*
G75*
G02*
X98430000Y-87707500I0J172500D01*
G01*
X98430000Y-87362500D01*
G75*
G02*
X98602500Y-87190000I172500J0D01*
G01*
X98997500Y-87190000D01*
G75*
G02*
X99170000Y-87362500I0J-172500D01*
G01*
X99170000Y-87707500D01*
G75*
G02*
X98997500Y-87880000I-172500J0D01*
G01*
G37*
G36*
G01*
X98997500Y-86910000D02*
X98602500Y-86910000D01*
G75*
G02*
X98430000Y-86737500I0J172500D01*
G01*
X98430000Y-86392500D01*
G75*
G02*
X98602500Y-86220000I172500J0D01*
G01*
X98997500Y-86220000D01*
G75*
G02*
X99170000Y-86392500I0J-172500D01*
G01*
X99170000Y-86737500D01*
G75*
G02*
X98997500Y-86910000I-172500J0D01*
G01*
G37*
%TD*%
%TO.C,C402*%
G36*
G01*
X156218750Y-96800000D02*
X156781250Y-96800000D01*
G75*
G02*
X157025000Y-97043750I0J-243750D01*
G01*
X157025000Y-97531250D01*
G75*
G02*
X156781250Y-97775000I-243750J0D01*
G01*
X156218750Y-97775000D01*
G75*
G02*
X155975000Y-97531250I0J243750D01*
G01*
X155975000Y-97043750D01*
G75*
G02*
X156218750Y-96800000I243750J0D01*
G01*
G37*
G36*
G01*
X156218750Y-95225000D02*
X156781250Y-95225000D01*
G75*
G02*
X157025000Y-95468750I0J-243750D01*
G01*
X157025000Y-95956250D01*
G75*
G02*
X156781250Y-96200000I-243750J0D01*
G01*
X156218750Y-96200000D01*
G75*
G02*
X155975000Y-95956250I0J243750D01*
G01*
X155975000Y-95468750D01*
G75*
G02*
X156218750Y-95225000I243750J0D01*
G01*
G37*
%TD*%
%TO.C,C403*%
G36*
G01*
X169495500Y-95501000D02*
X169100500Y-95501000D01*
G75*
G02*
X168928000Y-95328500I0J172500D01*
G01*
X168928000Y-94983500D01*
G75*
G02*
X169100500Y-94811000I172500J0D01*
G01*
X169495500Y-94811000D01*
G75*
G02*
X169668000Y-94983500I0J-172500D01*
G01*
X169668000Y-95328500D01*
G75*
G02*
X169495500Y-95501000I-172500J0D01*
G01*
G37*
G36*
G01*
X169495500Y-94531000D02*
X169100500Y-94531000D01*
G75*
G02*
X168928000Y-94358500I0J172500D01*
G01*
X168928000Y-94013500D01*
G75*
G02*
X169100500Y-93841000I172500J0D01*
G01*
X169495500Y-93841000D01*
G75*
G02*
X169668000Y-94013500I0J-172500D01*
G01*
X169668000Y-94358500D01*
G75*
G02*
X169495500Y-94531000I-172500J0D01*
G01*
G37*
%TD*%
%TO.C,C404*%
G36*
G01*
X169100500Y-95896000D02*
X169495500Y-95896000D01*
G75*
G02*
X169668000Y-96068500I0J-172500D01*
G01*
X169668000Y-96413500D01*
G75*
G02*
X169495500Y-96586000I-172500J0D01*
G01*
X169100500Y-96586000D01*
G75*
G02*
X168928000Y-96413500I0J172500D01*
G01*
X168928000Y-96068500D01*
G75*
G02*
X169100500Y-95896000I172500J0D01*
G01*
G37*
G36*
G01*
X169100500Y-96866000D02*
X169495500Y-96866000D01*
G75*
G02*
X169668000Y-97038500I0J-172500D01*
G01*
X169668000Y-97383500D01*
G75*
G02*
X169495500Y-97556000I-172500J0D01*
G01*
X169100500Y-97556000D01*
G75*
G02*
X168928000Y-97383500I0J172500D01*
G01*
X168928000Y-97038500D01*
G75*
G02*
X169100500Y-96866000I172500J0D01*
G01*
G37*
%TD*%
%TO.C,C501*%
G36*
G01*
X166450000Y-101868750D02*
X166450000Y-102431250D01*
G75*
G02*
X166206250Y-102675000I-243750J0D01*
G01*
X165718750Y-102675000D01*
G75*
G02*
X165475000Y-102431250I0J243750D01*
G01*
X165475000Y-101868750D01*
G75*
G02*
X165718750Y-101625000I243750J0D01*
G01*
X166206250Y-101625000D01*
G75*
G02*
X166450000Y-101868750I0J-243750D01*
G01*
G37*
G36*
G01*
X168025000Y-101868750D02*
X168025000Y-102431250D01*
G75*
G02*
X167781250Y-102675000I-243750J0D01*
G01*
X167293750Y-102675000D01*
G75*
G02*
X167050000Y-102431250I0J243750D01*
G01*
X167050000Y-101868750D01*
G75*
G02*
X167293750Y-101625000I243750J0D01*
G01*
X167781250Y-101625000D01*
G75*
G02*
X168025000Y-101868750I0J-243750D01*
G01*
G37*
%TD*%
%TO.C,C502*%
G36*
G01*
X170631250Y-109675000D02*
X170068750Y-109675000D01*
G75*
G02*
X169825000Y-109431250I0J243750D01*
G01*
X169825000Y-108943750D01*
G75*
G02*
X170068750Y-108700000I243750J0D01*
G01*
X170631250Y-108700000D01*
G75*
G02*
X170875000Y-108943750I0J-243750D01*
G01*
X170875000Y-109431250D01*
G75*
G02*
X170631250Y-109675000I-243750J0D01*
G01*
G37*
G36*
G01*
X170631250Y-108100000D02*
X170068750Y-108100000D01*
G75*
G02*
X169825000Y-107856250I0J243750D01*
G01*
X169825000Y-107368750D01*
G75*
G02*
X170068750Y-107125000I243750J0D01*
G01*
X170631250Y-107125000D01*
G75*
G02*
X170875000Y-107368750I0J-243750D01*
G01*
X170875000Y-107856250D01*
G75*
G02*
X170631250Y-108100000I-243750J0D01*
G01*
G37*
%TD*%
%TO.C,C602*%
G36*
G01*
X113830000Y-99022500D02*
X113830000Y-99417500D01*
G75*
G02*
X113657500Y-99590000I-172500J0D01*
G01*
X113312500Y-99590000D01*
G75*
G02*
X113140000Y-99417500I0J172500D01*
G01*
X113140000Y-99022500D01*
G75*
G02*
X113312500Y-98850000I172500J0D01*
G01*
X113657500Y-98850000D01*
G75*
G02*
X113830000Y-99022500I0J-172500D01*
G01*
G37*
G36*
G01*
X114800000Y-99022500D02*
X114800000Y-99417500D01*
G75*
G02*
X114627500Y-99590000I-172500J0D01*
G01*
X114282500Y-99590000D01*
G75*
G02*
X114110000Y-99417500I0J172500D01*
G01*
X114110000Y-99022500D01*
G75*
G02*
X114282500Y-98850000I172500J0D01*
G01*
X114627500Y-98850000D01*
G75*
G02*
X114800000Y-99022500I0J-172500D01*
G01*
G37*
%TD*%
%TO.C,C603*%
G36*
G01*
X119470250Y-98537500D02*
X120432750Y-98537500D01*
G75*
G02*
X120701500Y-98806250I0J-268750D01*
G01*
X120701500Y-99343750D01*
G75*
G02*
X120432750Y-99612500I-268750J0D01*
G01*
X119470250Y-99612500D01*
G75*
G02*
X119201500Y-99343750I0J268750D01*
G01*
X119201500Y-98806250D01*
G75*
G02*
X119470250Y-98537500I268750J0D01*
G01*
G37*
G36*
G01*
X119470250Y-100412500D02*
X120432750Y-100412500D01*
G75*
G02*
X120701500Y-100681250I0J-268750D01*
G01*
X120701500Y-101218750D01*
G75*
G02*
X120432750Y-101487500I-268750J0D01*
G01*
X119470250Y-101487500D01*
G75*
G02*
X119201500Y-101218750I0J268750D01*
G01*
X119201500Y-100681250D01*
G75*
G02*
X119470250Y-100412500I268750J0D01*
G01*
G37*
%TD*%
%TO.C,C604*%
G36*
G01*
X118438000Y-87796500D02*
X118438000Y-87401500D01*
G75*
G02*
X118610500Y-87229000I172500J0D01*
G01*
X118955500Y-87229000D01*
G75*
G02*
X119128000Y-87401500I0J-172500D01*
G01*
X119128000Y-87796500D01*
G75*
G02*
X118955500Y-87969000I-172500J0D01*
G01*
X118610500Y-87969000D01*
G75*
G02*
X118438000Y-87796500I0J172500D01*
G01*
G37*
G36*
G01*
X119408000Y-87796500D02*
X119408000Y-87401500D01*
G75*
G02*
X119580500Y-87229000I172500J0D01*
G01*
X119925500Y-87229000D01*
G75*
G02*
X120098000Y-87401500I0J-172500D01*
G01*
X120098000Y-87796500D01*
G75*
G02*
X119925500Y-87969000I-172500J0D01*
G01*
X119580500Y-87969000D01*
G75*
G02*
X119408000Y-87796500I0J172500D01*
G01*
G37*
%TD*%
%TO.C,C605*%
G36*
G01*
X118252500Y-94125250D02*
X118252500Y-93562750D01*
G75*
G02*
X118496250Y-93319000I243750J0D01*
G01*
X118983750Y-93319000D01*
G75*
G02*
X119227500Y-93562750I0J-243750D01*
G01*
X119227500Y-94125250D01*
G75*
G02*
X118983750Y-94369000I-243750J0D01*
G01*
X118496250Y-94369000D01*
G75*
G02*
X118252500Y-94125250I0J243750D01*
G01*
G37*
G36*
G01*
X119827500Y-94125250D02*
X119827500Y-93562750D01*
G75*
G02*
X120071250Y-93319000I243750J0D01*
G01*
X120558750Y-93319000D01*
G75*
G02*
X120802500Y-93562750I0J-243750D01*
G01*
X120802500Y-94125250D01*
G75*
G02*
X120558750Y-94369000I-243750J0D01*
G01*
X120071250Y-94369000D01*
G75*
G02*
X119827500Y-94125250I0J243750D01*
G01*
G37*
%TD*%
%TO.C,C701*%
G36*
G01*
X148096000Y-90924500D02*
X148096000Y-90529500D01*
G75*
G02*
X148268500Y-90357000I172500J0D01*
G01*
X148613500Y-90357000D01*
G75*
G02*
X148786000Y-90529500I0J-172500D01*
G01*
X148786000Y-90924500D01*
G75*
G02*
X148613500Y-91097000I-172500J0D01*
G01*
X148268500Y-91097000D01*
G75*
G02*
X148096000Y-90924500I0J172500D01*
G01*
G37*
G36*
G01*
X149066000Y-90924500D02*
X149066000Y-90529500D01*
G75*
G02*
X149238500Y-90357000I172500J0D01*
G01*
X149583500Y-90357000D01*
G75*
G02*
X149756000Y-90529500I0J-172500D01*
G01*
X149756000Y-90924500D01*
G75*
G02*
X149583500Y-91097000I-172500J0D01*
G01*
X149238500Y-91097000D01*
G75*
G02*
X149066000Y-90924500I0J172500D01*
G01*
G37*
%TD*%
%TO.C,C702*%
G36*
G01*
X144120000Y-90606500D02*
X144120000Y-91001500D01*
G75*
G02*
X143947500Y-91174000I-172500J0D01*
G01*
X143602500Y-91174000D01*
G75*
G02*
X143430000Y-91001500I0J172500D01*
G01*
X143430000Y-90606500D01*
G75*
G02*
X143602500Y-90434000I172500J0D01*
G01*
X143947500Y-90434000D01*
G75*
G02*
X144120000Y-90606500I0J-172500D01*
G01*
G37*
G36*
G01*
X143150000Y-90606500D02*
X143150000Y-91001500D01*
G75*
G02*
X142977500Y-91174000I-172500J0D01*
G01*
X142632500Y-91174000D01*
G75*
G02*
X142460000Y-91001500I0J172500D01*
G01*
X142460000Y-90606500D01*
G75*
G02*
X142632500Y-90434000I172500J0D01*
G01*
X142977500Y-90434000D01*
G75*
G02*
X143150000Y-90606500I0J-172500D01*
G01*
G37*
%TD*%
%TO.C,C703*%
G36*
G01*
X146813000Y-90656500D02*
X146813000Y-91051500D01*
G75*
G02*
X146640500Y-91224000I-172500J0D01*
G01*
X146295500Y-91224000D01*
G75*
G02*
X146123000Y-91051500I0J172500D01*
G01*
X146123000Y-90656500D01*
G75*
G02*
X146295500Y-90484000I172500J0D01*
G01*
X146640500Y-90484000D01*
G75*
G02*
X146813000Y-90656500I0J-172500D01*
G01*
G37*
G36*
G01*
X147783000Y-90656500D02*
X147783000Y-91051500D01*
G75*
G02*
X147610500Y-91224000I-172500J0D01*
G01*
X147265500Y-91224000D01*
G75*
G02*
X147093000Y-91051500I0J172500D01*
G01*
X147093000Y-90656500D01*
G75*
G02*
X147265500Y-90484000I172500J0D01*
G01*
X147610500Y-90484000D01*
G75*
G02*
X147783000Y-90656500I0J-172500D01*
G01*
G37*
%TD*%
%TO.C,C704*%
G36*
G01*
X151763000Y-91783000D02*
X150453000Y-91783000D01*
G75*
G02*
X150183000Y-91513000I0J270000D01*
G01*
X150183000Y-90703000D01*
G75*
G02*
X150453000Y-90433000I270000J0D01*
G01*
X151763000Y-90433000D01*
G75*
G02*
X152033000Y-90703000I0J-270000D01*
G01*
X152033000Y-91513000D01*
G75*
G02*
X151763000Y-91783000I-270000J0D01*
G01*
G37*
G36*
G01*
X151763000Y-94583000D02*
X150453000Y-94583000D01*
G75*
G02*
X150183000Y-94313000I0J270000D01*
G01*
X150183000Y-93503000D01*
G75*
G02*
X150453000Y-93233000I270000J0D01*
G01*
X151763000Y-93233000D01*
G75*
G02*
X152033000Y-93503000I0J-270000D01*
G01*
X152033000Y-94313000D01*
G75*
G02*
X151763000Y-94583000I-270000J0D01*
G01*
G37*
%TD*%
%TO.C,C705*%
G36*
G01*
X141666250Y-92891500D02*
X141103750Y-92891500D01*
G75*
G02*
X140860000Y-92647750I0J243750D01*
G01*
X140860000Y-92160250D01*
G75*
G02*
X141103750Y-91916500I243750J0D01*
G01*
X141666250Y-91916500D01*
G75*
G02*
X141910000Y-92160250I0J-243750D01*
G01*
X141910000Y-92647750D01*
G75*
G02*
X141666250Y-92891500I-243750J0D01*
G01*
G37*
G36*
G01*
X141666250Y-94466500D02*
X141103750Y-94466500D01*
G75*
G02*
X140860000Y-94222750I0J243750D01*
G01*
X140860000Y-93735250D01*
G75*
G02*
X141103750Y-93491500I243750J0D01*
G01*
X141666250Y-93491500D01*
G75*
G02*
X141910000Y-93735250I0J-243750D01*
G01*
X141910000Y-94222750D01*
G75*
G02*
X141666250Y-94466500I-243750J0D01*
G01*
G37*
%TD*%
%TO.C,C706*%
G36*
G01*
X145306250Y-94516500D02*
X144743750Y-94516500D01*
G75*
G02*
X144500000Y-94272750I0J243750D01*
G01*
X144500000Y-93785250D01*
G75*
G02*
X144743750Y-93541500I243750J0D01*
G01*
X145306250Y-93541500D01*
G75*
G02*
X145550000Y-93785250I0J-243750D01*
G01*
X145550000Y-94272750D01*
G75*
G02*
X145306250Y-94516500I-243750J0D01*
G01*
G37*
G36*
G01*
X145306250Y-92941500D02*
X144743750Y-92941500D01*
G75*
G02*
X144500000Y-92697750I0J243750D01*
G01*
X144500000Y-92210250D01*
G75*
G02*
X144743750Y-91966500I243750J0D01*
G01*
X145306250Y-91966500D01*
G75*
G02*
X145550000Y-92210250I0J-243750D01*
G01*
X145550000Y-92697750D01*
G75*
G02*
X145306250Y-92941500I-243750J0D01*
G01*
G37*
%TD*%
%TO.C,C801*%
G36*
G01*
X144959500Y-98156000D02*
X145354500Y-98156000D01*
G75*
G02*
X145527000Y-98328500I0J-172500D01*
G01*
X145527000Y-98673500D01*
G75*
G02*
X145354500Y-98846000I-172500J0D01*
G01*
X144959500Y-98846000D01*
G75*
G02*
X144787000Y-98673500I0J172500D01*
G01*
X144787000Y-98328500D01*
G75*
G02*
X144959500Y-98156000I172500J0D01*
G01*
G37*
G36*
G01*
X144959500Y-97186000D02*
X145354500Y-97186000D01*
G75*
G02*
X145527000Y-97358500I0J-172500D01*
G01*
X145527000Y-97703500D01*
G75*
G02*
X145354500Y-97876000I-172500J0D01*
G01*
X144959500Y-97876000D01*
G75*
G02*
X144787000Y-97703500I0J172500D01*
G01*
X144787000Y-97358500D01*
G75*
G02*
X144959500Y-97186000I172500J0D01*
G01*
G37*
%TD*%
%TO.C,C802*%
G36*
G01*
X151553000Y-97004250D02*
X151553000Y-96441750D01*
G75*
G02*
X151796750Y-96198000I243750J0D01*
G01*
X152284250Y-96198000D01*
G75*
G02*
X152528000Y-96441750I0J-243750D01*
G01*
X152528000Y-97004250D01*
G75*
G02*
X152284250Y-97248000I-243750J0D01*
G01*
X151796750Y-97248000D01*
G75*
G02*
X151553000Y-97004250I0J243750D01*
G01*
G37*
G36*
G01*
X149978000Y-97004250D02*
X149978000Y-96441750D01*
G75*
G02*
X150221750Y-96198000I243750J0D01*
G01*
X150709250Y-96198000D01*
G75*
G02*
X150953000Y-96441750I0J-243750D01*
G01*
X150953000Y-97004250D01*
G75*
G02*
X150709250Y-97248000I-243750J0D01*
G01*
X150221750Y-97248000D01*
G75*
G02*
X149978000Y-97004250I0J243750D01*
G01*
G37*
%TD*%
%TO.C,C803*%
G36*
G01*
X149010000Y-99624000D02*
X149010000Y-100934000D01*
G75*
G02*
X148740000Y-101204000I-270000J0D01*
G01*
X147930000Y-101204000D01*
G75*
G02*
X147660000Y-100934000I0J270000D01*
G01*
X147660000Y-99624000D01*
G75*
G02*
X147930000Y-99354000I270000J0D01*
G01*
X148740000Y-99354000D01*
G75*
G02*
X149010000Y-99624000I0J-270000D01*
G01*
G37*
G36*
G01*
X146210000Y-99624000D02*
X146210000Y-100934000D01*
G75*
G02*
X145940000Y-101204000I-270000J0D01*
G01*
X145130000Y-101204000D01*
G75*
G02*
X144860000Y-100934000I0J270000D01*
G01*
X144860000Y-99624000D01*
G75*
G02*
X145130000Y-99354000I270000J0D01*
G01*
X145940000Y-99354000D01*
G75*
G02*
X146210000Y-99624000I0J-270000D01*
G01*
G37*
%TD*%
%TO.C,C901*%
G36*
G01*
X130907500Y-105390000D02*
X130512500Y-105390000D01*
G75*
G02*
X130340000Y-105217500I0J172500D01*
G01*
X130340000Y-104872500D01*
G75*
G02*
X130512500Y-104700000I172500J0D01*
G01*
X130907500Y-104700000D01*
G75*
G02*
X131080000Y-104872500I0J-172500D01*
G01*
X131080000Y-105217500D01*
G75*
G02*
X130907500Y-105390000I-172500J0D01*
G01*
G37*
G36*
G01*
X130907500Y-104420000D02*
X130512500Y-104420000D01*
G75*
G02*
X130340000Y-104247500I0J172500D01*
G01*
X130340000Y-103902500D01*
G75*
G02*
X130512500Y-103730000I172500J0D01*
G01*
X130907500Y-103730000D01*
G75*
G02*
X131080000Y-103902500I0J-172500D01*
G01*
X131080000Y-104247500D01*
G75*
G02*
X130907500Y-104420000I-172500J0D01*
G01*
G37*
%TD*%
%TO.C,C902*%
G36*
G01*
X138120500Y-110454000D02*
X138515500Y-110454000D01*
G75*
G02*
X138688000Y-110626500I0J-172500D01*
G01*
X138688000Y-110971500D01*
G75*
G02*
X138515500Y-111144000I-172500J0D01*
G01*
X138120500Y-111144000D01*
G75*
G02*
X137948000Y-110971500I0J172500D01*
G01*
X137948000Y-110626500D01*
G75*
G02*
X138120500Y-110454000I172500J0D01*
G01*
G37*
G36*
G01*
X138120500Y-109484000D02*
X138515500Y-109484000D01*
G75*
G02*
X138688000Y-109656500I0J-172500D01*
G01*
X138688000Y-110001500D01*
G75*
G02*
X138515500Y-110174000I-172500J0D01*
G01*
X138120500Y-110174000D01*
G75*
G02*
X137948000Y-110001500I0J172500D01*
G01*
X137948000Y-109656500D01*
G75*
G02*
X138120500Y-109484000I172500J0D01*
G01*
G37*
%TD*%
%TO.C,C903*%
G36*
G01*
X139152500Y-110490000D02*
X139547500Y-110490000D01*
G75*
G02*
X139720000Y-110662500I0J-172500D01*
G01*
X139720000Y-111007500D01*
G75*
G02*
X139547500Y-111180000I-172500J0D01*
G01*
X139152500Y-111180000D01*
G75*
G02*
X138980000Y-111007500I0J172500D01*
G01*
X138980000Y-110662500D01*
G75*
G02*
X139152500Y-110490000I172500J0D01*
G01*
G37*
G36*
G01*
X139152500Y-109520000D02*
X139547500Y-109520000D01*
G75*
G02*
X139720000Y-109692500I0J-172500D01*
G01*
X139720000Y-110037500D01*
G75*
G02*
X139547500Y-110210000I-172500J0D01*
G01*
X139152500Y-110210000D01*
G75*
G02*
X138980000Y-110037500I0J172500D01*
G01*
X138980000Y-109692500D01*
G75*
G02*
X139152500Y-109520000I172500J0D01*
G01*
G37*
%TD*%
%TO.C,C904*%
G36*
G01*
X130980000Y-109532000D02*
X130980000Y-110842000D01*
G75*
G02*
X130710000Y-111112000I-270000J0D01*
G01*
X129900000Y-111112000D01*
G75*
G02*
X129630000Y-110842000I0J270000D01*
G01*
X129630000Y-109532000D01*
G75*
G02*
X129900000Y-109262000I270000J0D01*
G01*
X130710000Y-109262000D01*
G75*
G02*
X130980000Y-109532000I0J-270000D01*
G01*
G37*
G36*
G01*
X128180000Y-109532000D02*
X128180000Y-110842000D01*
G75*
G02*
X127910000Y-111112000I-270000J0D01*
G01*
X127100000Y-111112000D01*
G75*
G02*
X126830000Y-110842000I0J270000D01*
G01*
X126830000Y-109532000D01*
G75*
G02*
X127100000Y-109262000I270000J0D01*
G01*
X127910000Y-109262000D01*
G75*
G02*
X128180000Y-109532000I0J-270000D01*
G01*
G37*
%TD*%
%TO.C,C905*%
G36*
G01*
X132557000Y-110286750D02*
X132557000Y-110849250D01*
G75*
G02*
X132313250Y-111093000I-243750J0D01*
G01*
X131825750Y-111093000D01*
G75*
G02*
X131582000Y-110849250I0J243750D01*
G01*
X131582000Y-110286750D01*
G75*
G02*
X131825750Y-110043000I243750J0D01*
G01*
X132313250Y-110043000D01*
G75*
G02*
X132557000Y-110286750I0J-243750D01*
G01*
G37*
G36*
G01*
X134132000Y-110286750D02*
X134132000Y-110849250D01*
G75*
G02*
X133888250Y-111093000I-243750J0D01*
G01*
X133400750Y-111093000D01*
G75*
G02*
X133157000Y-110849250I0J243750D01*
G01*
X133157000Y-110286750D01*
G75*
G02*
X133400750Y-110043000I243750J0D01*
G01*
X133888250Y-110043000D01*
G75*
G02*
X134132000Y-110286750I0J-243750D01*
G01*
G37*
%TD*%
%TO.C,C906*%
G36*
G01*
X138931250Y-114495000D02*
X138368750Y-114495000D01*
G75*
G02*
X138125000Y-114251250I0J243750D01*
G01*
X138125000Y-113763750D01*
G75*
G02*
X138368750Y-113520000I243750J0D01*
G01*
X138931250Y-113520000D01*
G75*
G02*
X139175000Y-113763750I0J-243750D01*
G01*
X139175000Y-114251250D01*
G75*
G02*
X138931250Y-114495000I-243750J0D01*
G01*
G37*
G36*
G01*
X138931250Y-112920000D02*
X138368750Y-112920000D01*
G75*
G02*
X138125000Y-112676250I0J243750D01*
G01*
X138125000Y-112188750D01*
G75*
G02*
X138368750Y-111945000I243750J0D01*
G01*
X138931250Y-111945000D01*
G75*
G02*
X139175000Y-112188750I0J-243750D01*
G01*
X139175000Y-112676250D01*
G75*
G02*
X138931250Y-112920000I-243750J0D01*
G01*
G37*
%TD*%
%TO.C,D301*%
G36*
G01*
X91604000Y-103623000D02*
X93904000Y-103623000D01*
G75*
G02*
X93954000Y-103673000I0J-50000D01*
G01*
X93954000Y-106173000D01*
G75*
G02*
X93904000Y-106223000I-50000J0D01*
G01*
X91604000Y-106223000D01*
G75*
G02*
X91554000Y-106173000I0J50000D01*
G01*
X91554000Y-103673000D01*
G75*
G02*
X91604000Y-103623000I50000J0D01*
G01*
G37*
G36*
G01*
X91604000Y-99323000D02*
X93904000Y-99323000D01*
G75*
G02*
X93954000Y-99373000I0J-50000D01*
G01*
X93954000Y-101873000D01*
G75*
G02*
X93904000Y-101923000I-50000J0D01*
G01*
X91604000Y-101923000D01*
G75*
G02*
X91554000Y-101873000I0J50000D01*
G01*
X91554000Y-99373000D01*
G75*
G02*
X91604000Y-99323000I50000J0D01*
G01*
G37*
%TD*%
%TO.C,D302*%
G36*
G01*
X98950000Y-88609000D02*
X98950000Y-89809000D01*
G75*
G02*
X98900000Y-89859000I-50000J0D01*
G01*
X98000000Y-89859000D01*
G75*
G02*
X97950000Y-89809000I0J50000D01*
G01*
X97950000Y-88609000D01*
G75*
G02*
X98000000Y-88559000I50000J0D01*
G01*
X98900000Y-88559000D01*
G75*
G02*
X98950000Y-88609000I0J-50000D01*
G01*
G37*
G36*
G01*
X95650000Y-88609000D02*
X95650000Y-89809000D01*
G75*
G02*
X95600000Y-89859000I-50000J0D01*
G01*
X94700000Y-89859000D01*
G75*
G02*
X94650000Y-89809000I0J50000D01*
G01*
X94650000Y-88609000D01*
G75*
G02*
X94700000Y-88559000I50000J0D01*
G01*
X95600000Y-88559000D01*
G75*
G02*
X95650000Y-88609000I0J-50000D01*
G01*
G37*
%TD*%
%TO.C,D501*%
G36*
G01*
X176475000Y-104618750D02*
X176475000Y-105181250D01*
G75*
G02*
X176231250Y-105425000I-243750J0D01*
G01*
X175743750Y-105425000D01*
G75*
G02*
X175500000Y-105181250I0J243750D01*
G01*
X175500000Y-104618750D01*
G75*
G02*
X175743750Y-104375000I243750J0D01*
G01*
X176231250Y-104375000D01*
G75*
G02*
X176475000Y-104618750I0J-243750D01*
G01*
G37*
G36*
G01*
X174900000Y-104618750D02*
X174900000Y-105181250D01*
G75*
G02*
X174656250Y-105425000I-243750J0D01*
G01*
X174168750Y-105425000D01*
G75*
G02*
X173925000Y-105181250I0J243750D01*
G01*
X173925000Y-104618750D01*
G75*
G02*
X174168750Y-104375000I243750J0D01*
G01*
X174656250Y-104375000D01*
G75*
G02*
X174900000Y-104618750I0J-243750D01*
G01*
G37*
%TD*%
%TO.C,D601*%
G36*
G01*
X122167000Y-99429000D02*
X124467000Y-99429000D01*
G75*
G02*
X124517000Y-99479000I0J-50000D01*
G01*
X124517000Y-101979000D01*
G75*
G02*
X124467000Y-102029000I-50000J0D01*
G01*
X122167000Y-102029000D01*
G75*
G02*
X122117000Y-101979000I0J50000D01*
G01*
X122117000Y-99479000D01*
G75*
G02*
X122167000Y-99429000I50000J0D01*
G01*
G37*
G36*
G01*
X122167000Y-103729000D02*
X124467000Y-103729000D01*
G75*
G02*
X124517000Y-103779000I0J-50000D01*
G01*
X124517000Y-106279000D01*
G75*
G02*
X124467000Y-106329000I-50000J0D01*
G01*
X122167000Y-106329000D01*
G75*
G02*
X122117000Y-106279000I0J50000D01*
G01*
X122117000Y-103779000D01*
G75*
G02*
X122167000Y-103729000I50000J0D01*
G01*
G37*
%TD*%
%TO.C,FB301*%
G36*
G01*
X99818750Y-101125000D02*
X100781250Y-101125000D01*
G75*
G02*
X101050000Y-101393750I0J-268750D01*
G01*
X101050000Y-101931250D01*
G75*
G02*
X100781250Y-102200000I-268750J0D01*
G01*
X99818750Y-102200000D01*
G75*
G02*
X99550000Y-101931250I0J268750D01*
G01*
X99550000Y-101393750D01*
G75*
G02*
X99818750Y-101125000I268750J0D01*
G01*
G37*
G36*
G01*
X99818750Y-103000000D02*
X100781250Y-103000000D01*
G75*
G02*
X101050000Y-103268750I0J-268750D01*
G01*
X101050000Y-103806250D01*
G75*
G02*
X100781250Y-104075000I-268750J0D01*
G01*
X99818750Y-104075000D01*
G75*
G02*
X99550000Y-103806250I0J268750D01*
G01*
X99550000Y-103268750D01*
G75*
G02*
X99818750Y-103000000I268750J0D01*
G01*
G37*
%TD*%
%TO.C,FB601*%
G36*
G01*
X115991250Y-103272500D02*
X115028750Y-103272500D01*
G75*
G02*
X114760000Y-103003750I0J268750D01*
G01*
X114760000Y-102466250D01*
G75*
G02*
X115028750Y-102197500I268750J0D01*
G01*
X115991250Y-102197500D01*
G75*
G02*
X116260000Y-102466250I0J-268750D01*
G01*
X116260000Y-103003750D01*
G75*
G02*
X115991250Y-103272500I-268750J0D01*
G01*
G37*
G36*
G01*
X115991250Y-101397500D02*
X115028750Y-101397500D01*
G75*
G02*
X114760000Y-101128750I0J268750D01*
G01*
X114760000Y-100591250D01*
G75*
G02*
X115028750Y-100322500I268750J0D01*
G01*
X115991250Y-100322500D01*
G75*
G02*
X116260000Y-100591250I0J-268750D01*
G01*
X116260000Y-101128750D01*
G75*
G02*
X115991250Y-101397500I-268750J0D01*
G01*
G37*
%TD*%
%TO.C,FB701*%
G36*
G01*
X149430250Y-94566500D02*
X148467750Y-94566500D01*
G75*
G02*
X148199000Y-94297750I0J268750D01*
G01*
X148199000Y-93760250D01*
G75*
G02*
X148467750Y-93491500I268750J0D01*
G01*
X149430250Y-93491500D01*
G75*
G02*
X149699000Y-93760250I0J-268750D01*
G01*
X149699000Y-94297750D01*
G75*
G02*
X149430250Y-94566500I-268750J0D01*
G01*
G37*
G36*
G01*
X149430250Y-92691500D02*
X148467750Y-92691500D01*
G75*
G02*
X148199000Y-92422750I0J268750D01*
G01*
X148199000Y-91885250D01*
G75*
G02*
X148467750Y-91616500I268750J0D01*
G01*
X149430250Y-91616500D01*
G75*
G02*
X149699000Y-91885250I0J-268750D01*
G01*
X149699000Y-92422750D01*
G75*
G02*
X149430250Y-92691500I-268750J0D01*
G01*
G37*
%TD*%
%TO.C,FB702*%
G36*
G01*
X143771250Y-94516500D02*
X142808750Y-94516500D01*
G75*
G02*
X142540000Y-94247750I0J268750D01*
G01*
X142540000Y-93710250D01*
G75*
G02*
X142808750Y-93441500I268750J0D01*
G01*
X143771250Y-93441500D01*
G75*
G02*
X144040000Y-93710250I0J-268750D01*
G01*
X144040000Y-94247750D01*
G75*
G02*
X143771250Y-94516500I-268750J0D01*
G01*
G37*
G36*
G01*
X143771250Y-92641500D02*
X142808750Y-92641500D01*
G75*
G02*
X142540000Y-92372750I0J268750D01*
G01*
X142540000Y-91835250D01*
G75*
G02*
X142808750Y-91566500I268750J0D01*
G01*
X143771250Y-91566500D01*
G75*
G02*
X144040000Y-91835250I0J-268750D01*
G01*
X144040000Y-92372750D01*
G75*
G02*
X143771250Y-92641500I-268750J0D01*
G01*
G37*
%TD*%
%TO.C,FB703*%
G36*
G01*
X147411250Y-94566500D02*
X146448750Y-94566500D01*
G75*
G02*
X146180000Y-94297750I0J268750D01*
G01*
X146180000Y-93760250D01*
G75*
G02*
X146448750Y-93491500I268750J0D01*
G01*
X147411250Y-93491500D01*
G75*
G02*
X147680000Y-93760250I0J-268750D01*
G01*
X147680000Y-94297750D01*
G75*
G02*
X147411250Y-94566500I-268750J0D01*
G01*
G37*
G36*
G01*
X147411250Y-92691500D02*
X146448750Y-92691500D01*
G75*
G02*
X146180000Y-92422750I0J268750D01*
G01*
X146180000Y-91885250D01*
G75*
G02*
X146448750Y-91616500I268750J0D01*
G01*
X147411250Y-91616500D01*
G75*
G02*
X147680000Y-91885250I0J-268750D01*
G01*
X147680000Y-92422750D01*
G75*
G02*
X147411250Y-92691500I-268750J0D01*
G01*
G37*
%TD*%
%TO.C,FB801*%
G36*
G01*
X146994500Y-97638750D02*
X146994500Y-98601250D01*
G75*
G02*
X146725750Y-98870000I-268750J0D01*
G01*
X146188250Y-98870000D01*
G75*
G02*
X145919500Y-98601250I0J268750D01*
G01*
X145919500Y-97638750D01*
G75*
G02*
X146188250Y-97370000I268750J0D01*
G01*
X146725750Y-97370000D01*
G75*
G02*
X146994500Y-97638750I0J-268750D01*
G01*
G37*
G36*
G01*
X148869500Y-97638750D02*
X148869500Y-98601250D01*
G75*
G02*
X148600750Y-98870000I-268750J0D01*
G01*
X148063250Y-98870000D01*
G75*
G02*
X147794500Y-98601250I0J268750D01*
G01*
X147794500Y-97638750D01*
G75*
G02*
X148063250Y-97370000I268750J0D01*
G01*
X148600750Y-97370000D01*
G75*
G02*
X148869500Y-97638750I0J-268750D01*
G01*
G37*
%TD*%
%TO.C,FB903*%
G36*
G01*
X136480500Y-110795250D02*
X136480500Y-109832750D01*
G75*
G02*
X136749250Y-109564000I268750J0D01*
G01*
X137286750Y-109564000D01*
G75*
G02*
X137555500Y-109832750I0J-268750D01*
G01*
X137555500Y-110795250D01*
G75*
G02*
X137286750Y-111064000I-268750J0D01*
G01*
X136749250Y-111064000D01*
G75*
G02*
X136480500Y-110795250I0J268750D01*
G01*
G37*
G36*
G01*
X134605500Y-110795250D02*
X134605500Y-109832750D01*
G75*
G02*
X134874250Y-109564000I268750J0D01*
G01*
X135411750Y-109564000D01*
G75*
G02*
X135680500Y-109832750I0J-268750D01*
G01*
X135680500Y-110795250D01*
G75*
G02*
X135411750Y-111064000I-268750J0D01*
G01*
X134874250Y-111064000D01*
G75*
G02*
X134605500Y-110795250I0J268750D01*
G01*
G37*
%TD*%
%TO.C,FB904*%
G36*
G01*
X140891250Y-114502500D02*
X139928750Y-114502500D01*
G75*
G02*
X139660000Y-114233750I0J268750D01*
G01*
X139660000Y-113696250D01*
G75*
G02*
X139928750Y-113427500I268750J0D01*
G01*
X140891250Y-113427500D01*
G75*
G02*
X141160000Y-113696250I0J-268750D01*
G01*
X141160000Y-114233750D01*
G75*
G02*
X140891250Y-114502500I-268750J0D01*
G01*
G37*
G36*
G01*
X140891250Y-112627500D02*
X139928750Y-112627500D01*
G75*
G02*
X139660000Y-112358750I0J268750D01*
G01*
X139660000Y-111821250D01*
G75*
G02*
X139928750Y-111552500I268750J0D01*
G01*
X140891250Y-111552500D01*
G75*
G02*
X141160000Y-111821250I0J-268750D01*
G01*
X141160000Y-112358750D01*
G75*
G02*
X140891250Y-112627500I-268750J0D01*
G01*
G37*
%TD*%
%TO.C,J701*%
G36*
G01*
X146050000Y-112920832D02*
X146050000Y-114279168D01*
G75*
G02*
X145779168Y-114550000I-270832J0D01*
G01*
X145020832Y-114550000D01*
G75*
G02*
X144750000Y-114279168I0J270832D01*
G01*
X144750000Y-112920832D01*
G75*
G02*
X145020832Y-112650000I270832J0D01*
G01*
X145779168Y-112650000D01*
G75*
G02*
X146050000Y-112920832I0J-270832D01*
G01*
G37*
G36*
G01*
X151650000Y-112920832D02*
X151650000Y-114279168D01*
G75*
G02*
X151379168Y-114550000I-270832J0D01*
G01*
X150620832Y-114550000D01*
G75*
G02*
X150350000Y-114279168I0J270832D01*
G01*
X150350000Y-112920832D01*
G75*
G02*
X150620832Y-112650000I270832J0D01*
G01*
X151379168Y-112650000D01*
G75*
G02*
X151650000Y-112920832I0J-270832D01*
G01*
G37*
G36*
G01*
X147050000Y-110425000D02*
X147050000Y-111725000D01*
G75*
G02*
X146875000Y-111900000I-175000J0D01*
G01*
X146525000Y-111900000D01*
G75*
G02*
X146350000Y-111725000I0J175000D01*
G01*
X146350000Y-110425000D01*
G75*
G02*
X146525000Y-110250000I175000J0D01*
G01*
X146875000Y-110250000D01*
G75*
G02*
X147050000Y-110425000I0J-175000D01*
G01*
G37*
G36*
G01*
X148050000Y-110425000D02*
X148050000Y-111725000D01*
G75*
G02*
X147875000Y-111900000I-175000J0D01*
G01*
X147525000Y-111900000D01*
G75*
G02*
X147350000Y-111725000I0J175000D01*
G01*
X147350000Y-110425000D01*
G75*
G02*
X147525000Y-110250000I175000J0D01*
G01*
X147875000Y-110250000D01*
G75*
G02*
X148050000Y-110425000I0J-175000D01*
G01*
G37*
G36*
G01*
X149050000Y-110425000D02*
X149050000Y-111725000D01*
G75*
G02*
X148875000Y-111900000I-175000J0D01*
G01*
X148525000Y-111900000D01*
G75*
G02*
X148350000Y-111725000I0J175000D01*
G01*
X148350000Y-110425000D01*
G75*
G02*
X148525000Y-110250000I175000J0D01*
G01*
X148875000Y-110250000D01*
G75*
G02*
X149050000Y-110425000I0J-175000D01*
G01*
G37*
G36*
G01*
X150050000Y-110425000D02*
X150050000Y-111725000D01*
G75*
G02*
X149875000Y-111900000I-175000J0D01*
G01*
X149525000Y-111900000D01*
G75*
G02*
X149350000Y-111725000I0J175000D01*
G01*
X149350000Y-110425000D01*
G75*
G02*
X149525000Y-110250000I175000J0D01*
G01*
X149875000Y-110250000D01*
G75*
G02*
X150050000Y-110425000I0J-175000D01*
G01*
G37*
%TD*%
%TO.C,Q401*%
G36*
G01*
X155670000Y-100960000D02*
X156470000Y-100960000D01*
G75*
G02*
X156520000Y-101010000I0J-50000D01*
G01*
X156520000Y-101910000D01*
G75*
G02*
X156470000Y-101960000I-50000J0D01*
G01*
X155670000Y-101960000D01*
G75*
G02*
X155620000Y-101910000I0J50000D01*
G01*
X155620000Y-101010000D01*
G75*
G02*
X155670000Y-100960000I50000J0D01*
G01*
G37*
G36*
G01*
X153770000Y-100960000D02*
X154570000Y-100960000D01*
G75*
G02*
X154620000Y-101010000I0J-50000D01*
G01*
X154620000Y-101910000D01*
G75*
G02*
X154570000Y-101960000I-50000J0D01*
G01*
X153770000Y-101960000D01*
G75*
G02*
X153720000Y-101910000I0J50000D01*
G01*
X153720000Y-101010000D01*
G75*
G02*
X153770000Y-100960000I50000J0D01*
G01*
G37*
G36*
G01*
X154720000Y-102960000D02*
X155520000Y-102960000D01*
G75*
G02*
X155570000Y-103010000I0J-50000D01*
G01*
X155570000Y-103910000D01*
G75*
G02*
X155520000Y-103960000I-50000J0D01*
G01*
X154720000Y-103960000D01*
G75*
G02*
X154670000Y-103910000I0J50000D01*
G01*
X154670000Y-103010000D01*
G75*
G02*
X154720000Y-102960000I50000J0D01*
G01*
G37*
%TD*%
%TO.C,Q402*%
G36*
G01*
X158320000Y-102960000D02*
X159120000Y-102960000D01*
G75*
G02*
X159170000Y-103010000I0J-50000D01*
G01*
X159170000Y-103910000D01*
G75*
G02*
X159120000Y-103960000I-50000J0D01*
G01*
X158320000Y-103960000D01*
G75*
G02*
X158270000Y-103910000I0J50000D01*
G01*
X158270000Y-103010000D01*
G75*
G02*
X158320000Y-102960000I50000J0D01*
G01*
G37*
G36*
G01*
X157370000Y-100960000D02*
X158170000Y-100960000D01*
G75*
G02*
X158220000Y-101010000I0J-50000D01*
G01*
X158220000Y-101910000D01*
G75*
G02*
X158170000Y-101960000I-50000J0D01*
G01*
X157370000Y-101960000D01*
G75*
G02*
X157320000Y-101910000I0J50000D01*
G01*
X157320000Y-101010000D01*
G75*
G02*
X157370000Y-100960000I50000J0D01*
G01*
G37*
G36*
G01*
X159270000Y-100960000D02*
X160070000Y-100960000D01*
G75*
G02*
X160120000Y-101010000I0J-50000D01*
G01*
X160120000Y-101910000D01*
G75*
G02*
X160070000Y-101960000I-50000J0D01*
G01*
X159270000Y-101960000D01*
G75*
G02*
X159220000Y-101910000I0J50000D01*
G01*
X159220000Y-101010000D01*
G75*
G02*
X159270000Y-100960000I50000J0D01*
G01*
G37*
%TD*%
%TO.C,Q901*%
G36*
G01*
X138770000Y-103630000D02*
X139570000Y-103630000D01*
G75*
G02*
X139620000Y-103680000I0J-50000D01*
G01*
X139620000Y-104580000D01*
G75*
G02*
X139570000Y-104630000I-50000J0D01*
G01*
X138770000Y-104630000D01*
G75*
G02*
X138720000Y-104580000I0J50000D01*
G01*
X138720000Y-103680000D01*
G75*
G02*
X138770000Y-103630000I50000J0D01*
G01*
G37*
G36*
G01*
X136870000Y-103630000D02*
X137670000Y-103630000D01*
G75*
G02*
X137720000Y-103680000I0J-50000D01*
G01*
X137720000Y-104580000D01*
G75*
G02*
X137670000Y-104630000I-50000J0D01*
G01*
X136870000Y-104630000D01*
G75*
G02*
X136820000Y-104580000I0J50000D01*
G01*
X136820000Y-103680000D01*
G75*
G02*
X136870000Y-103630000I50000J0D01*
G01*
G37*
G36*
G01*
X137820000Y-105630000D02*
X138620000Y-105630000D01*
G75*
G02*
X138670000Y-105680000I0J-50000D01*
G01*
X138670000Y-106580000D01*
G75*
G02*
X138620000Y-106630000I-50000J0D01*
G01*
X137820000Y-106630000D01*
G75*
G02*
X137770000Y-106580000I0J50000D01*
G01*
X137770000Y-105680000D01*
G75*
G02*
X137820000Y-105630000I50000J0D01*
G01*
G37*
%TD*%
%TO.C,R201*%
G36*
G01*
X167090000Y-63947500D02*
X167090000Y-63552500D01*
G75*
G02*
X167262500Y-63380000I172500J0D01*
G01*
X167607500Y-63380000D01*
G75*
G02*
X167780000Y-63552500I0J-172500D01*
G01*
X167780000Y-63947500D01*
G75*
G02*
X167607500Y-64120000I-172500J0D01*
G01*
X167262500Y-64120000D01*
G75*
G02*
X167090000Y-63947500I0J172500D01*
G01*
G37*
G36*
G01*
X166120000Y-63947500D02*
X166120000Y-63552500D01*
G75*
G02*
X166292500Y-63380000I172500J0D01*
G01*
X166637500Y-63380000D01*
G75*
G02*
X166810000Y-63552500I0J-172500D01*
G01*
X166810000Y-63947500D01*
G75*
G02*
X166637500Y-64120000I-172500J0D01*
G01*
X166292500Y-64120000D01*
G75*
G02*
X166120000Y-63947500I0J172500D01*
G01*
G37*
%TD*%
%TO.C,R203*%
G36*
G01*
X164968750Y-88796000D02*
X165531250Y-88796000D01*
G75*
G02*
X165775000Y-89039750I0J-243750D01*
G01*
X165775000Y-89527250D01*
G75*
G02*
X165531250Y-89771000I-243750J0D01*
G01*
X164968750Y-89771000D01*
G75*
G02*
X164725000Y-89527250I0J243750D01*
G01*
X164725000Y-89039750D01*
G75*
G02*
X164968750Y-88796000I243750J0D01*
G01*
G37*
G36*
G01*
X164968750Y-87221000D02*
X165531250Y-87221000D01*
G75*
G02*
X165775000Y-87464750I0J-243750D01*
G01*
X165775000Y-87952250D01*
G75*
G02*
X165531250Y-88196000I-243750J0D01*
G01*
X164968750Y-88196000D01*
G75*
G02*
X164725000Y-87952250I0J243750D01*
G01*
X164725000Y-87464750D01*
G75*
G02*
X164968750Y-87221000I243750J0D01*
G01*
G37*
%TD*%
%TO.C,R204*%
G36*
G01*
X162219250Y-88196000D02*
X161656750Y-88196000D01*
G75*
G02*
X161413000Y-87952250I0J243750D01*
G01*
X161413000Y-87464750D01*
G75*
G02*
X161656750Y-87221000I243750J0D01*
G01*
X162219250Y-87221000D01*
G75*
G02*
X162463000Y-87464750I0J-243750D01*
G01*
X162463000Y-87952250D01*
G75*
G02*
X162219250Y-88196000I-243750J0D01*
G01*
G37*
G36*
G01*
X162219250Y-89771000D02*
X161656750Y-89771000D01*
G75*
G02*
X161413000Y-89527250I0J243750D01*
G01*
X161413000Y-89039750D01*
G75*
G02*
X161656750Y-88796000I243750J0D01*
G01*
X162219250Y-88796000D01*
G75*
G02*
X162463000Y-89039750I0J-243750D01*
G01*
X162463000Y-89527250D01*
G75*
G02*
X162219250Y-89771000I-243750J0D01*
G01*
G37*
%TD*%
%TO.C,R205*%
G36*
G01*
X160187250Y-89771000D02*
X159624750Y-89771000D01*
G75*
G02*
X159381000Y-89527250I0J243750D01*
G01*
X159381000Y-89039750D01*
G75*
G02*
X159624750Y-88796000I243750J0D01*
G01*
X160187250Y-88796000D01*
G75*
G02*
X160431000Y-89039750I0J-243750D01*
G01*
X160431000Y-89527250D01*
G75*
G02*
X160187250Y-89771000I-243750J0D01*
G01*
G37*
G36*
G01*
X160187250Y-88196000D02*
X159624750Y-88196000D01*
G75*
G02*
X159381000Y-87952250I0J243750D01*
G01*
X159381000Y-87464750D01*
G75*
G02*
X159624750Y-87221000I243750J0D01*
G01*
X160187250Y-87221000D01*
G75*
G02*
X160431000Y-87464750I0J-243750D01*
G01*
X160431000Y-87952250D01*
G75*
G02*
X160187250Y-88196000I-243750J0D01*
G01*
G37*
%TD*%
%TO.C,R206*%
G36*
G01*
X156501250Y-88200000D02*
X155938750Y-88200000D01*
G75*
G02*
X155695000Y-87956250I0J243750D01*
G01*
X155695000Y-87468750D01*
G75*
G02*
X155938750Y-87225000I243750J0D01*
G01*
X156501250Y-87225000D01*
G75*
G02*
X156745000Y-87468750I0J-243750D01*
G01*
X156745000Y-87956250D01*
G75*
G02*
X156501250Y-88200000I-243750J0D01*
G01*
G37*
G36*
G01*
X156501250Y-89775000D02*
X155938750Y-89775000D01*
G75*
G02*
X155695000Y-89531250I0J243750D01*
G01*
X155695000Y-89043750D01*
G75*
G02*
X155938750Y-88800000I243750J0D01*
G01*
X156501250Y-88800000D01*
G75*
G02*
X156745000Y-89043750I0J-243750D01*
G01*
X156745000Y-89531250D01*
G75*
G02*
X156501250Y-89775000I-243750J0D01*
G01*
G37*
%TD*%
%TO.C,R207*%
G36*
G01*
X158201250Y-89775000D02*
X157638750Y-89775000D01*
G75*
G02*
X157395000Y-89531250I0J243750D01*
G01*
X157395000Y-89043750D01*
G75*
G02*
X157638750Y-88800000I243750J0D01*
G01*
X158201250Y-88800000D01*
G75*
G02*
X158445000Y-89043750I0J-243750D01*
G01*
X158445000Y-89531250D01*
G75*
G02*
X158201250Y-89775000I-243750J0D01*
G01*
G37*
G36*
G01*
X158201250Y-88200000D02*
X157638750Y-88200000D01*
G75*
G02*
X157395000Y-87956250I0J243750D01*
G01*
X157395000Y-87468750D01*
G75*
G02*
X157638750Y-87225000I243750J0D01*
G01*
X158201250Y-87225000D01*
G75*
G02*
X158445000Y-87468750I0J-243750D01*
G01*
X158445000Y-87956250D01*
G75*
G02*
X158201250Y-88200000I-243750J0D01*
G01*
G37*
%TD*%
%TO.C,R208*%
G36*
G01*
X154571250Y-89765000D02*
X154008750Y-89765000D01*
G75*
G02*
X153765000Y-89521250I0J243750D01*
G01*
X153765000Y-89033750D01*
G75*
G02*
X154008750Y-88790000I243750J0D01*
G01*
X154571250Y-88790000D01*
G75*
G02*
X154815000Y-89033750I0J-243750D01*
G01*
X154815000Y-89521250D01*
G75*
G02*
X154571250Y-89765000I-243750J0D01*
G01*
G37*
G36*
G01*
X154571250Y-88190000D02*
X154008750Y-88190000D01*
G75*
G02*
X153765000Y-87946250I0J243750D01*
G01*
X153765000Y-87458750D01*
G75*
G02*
X154008750Y-87215000I243750J0D01*
G01*
X154571250Y-87215000D01*
G75*
G02*
X154815000Y-87458750I0J-243750D01*
G01*
X154815000Y-87946250D01*
G75*
G02*
X154571250Y-88190000I-243750J0D01*
G01*
G37*
%TD*%
%TO.C,R209*%
G36*
G01*
X134381250Y-91140000D02*
X133818750Y-91140000D01*
G75*
G02*
X133575000Y-90896250I0J243750D01*
G01*
X133575000Y-90408750D01*
G75*
G02*
X133818750Y-90165000I243750J0D01*
G01*
X134381250Y-90165000D01*
G75*
G02*
X134625000Y-90408750I0J-243750D01*
G01*
X134625000Y-90896250D01*
G75*
G02*
X134381250Y-91140000I-243750J0D01*
G01*
G37*
G36*
G01*
X134381250Y-92715000D02*
X133818750Y-92715000D01*
G75*
G02*
X133575000Y-92471250I0J243750D01*
G01*
X133575000Y-91983750D01*
G75*
G02*
X133818750Y-91740000I243750J0D01*
G01*
X134381250Y-91740000D01*
G75*
G02*
X134625000Y-91983750I0J-243750D01*
G01*
X134625000Y-92471250D01*
G75*
G02*
X134381250Y-92715000I-243750J0D01*
G01*
G37*
%TD*%
%TO.C,R210*%
G36*
G01*
X136044250Y-92715000D02*
X135481750Y-92715000D01*
G75*
G02*
X135238000Y-92471250I0J243750D01*
G01*
X135238000Y-91983750D01*
G75*
G02*
X135481750Y-91740000I243750J0D01*
G01*
X136044250Y-91740000D01*
G75*
G02*
X136288000Y-91983750I0J-243750D01*
G01*
X136288000Y-92471250D01*
G75*
G02*
X136044250Y-92715000I-243750J0D01*
G01*
G37*
G36*
G01*
X136044250Y-91140000D02*
X135481750Y-91140000D01*
G75*
G02*
X135238000Y-90896250I0J243750D01*
G01*
X135238000Y-90408750D01*
G75*
G02*
X135481750Y-90165000I243750J0D01*
G01*
X136044250Y-90165000D01*
G75*
G02*
X136288000Y-90408750I0J-243750D01*
G01*
X136288000Y-90896250D01*
G75*
G02*
X136044250Y-91140000I-243750J0D01*
G01*
G37*
%TD*%
%TO.C,R302*%
G36*
G01*
X93468000Y-88948000D02*
X93468000Y-88553000D01*
G75*
G02*
X93640500Y-88380500I172500J0D01*
G01*
X93985500Y-88380500D01*
G75*
G02*
X94158000Y-88553000I0J-172500D01*
G01*
X94158000Y-88948000D01*
G75*
G02*
X93985500Y-89120500I-172500J0D01*
G01*
X93640500Y-89120500D01*
G75*
G02*
X93468000Y-88948000I0J172500D01*
G01*
G37*
G36*
G01*
X92498000Y-88948000D02*
X92498000Y-88553000D01*
G75*
G02*
X92670500Y-88380500I172500J0D01*
G01*
X93015500Y-88380500D01*
G75*
G02*
X93188000Y-88553000I0J-172500D01*
G01*
X93188000Y-88948000D01*
G75*
G02*
X93015500Y-89120500I-172500J0D01*
G01*
X92670500Y-89120500D01*
G75*
G02*
X92498000Y-88948000I0J172500D01*
G01*
G37*
%TD*%
%TO.C,R303*%
G36*
G01*
X94130000Y-89552500D02*
X94130000Y-89947500D01*
G75*
G02*
X93957500Y-90120000I-172500J0D01*
G01*
X93612500Y-90120000D01*
G75*
G02*
X93440000Y-89947500I0J172500D01*
G01*
X93440000Y-89552500D01*
G75*
G02*
X93612500Y-89380000I172500J0D01*
G01*
X93957500Y-89380000D01*
G75*
G02*
X94130000Y-89552500I0J-172500D01*
G01*
G37*
G36*
G01*
X93160000Y-89552500D02*
X93160000Y-89947500D01*
G75*
G02*
X92987500Y-90120000I-172500J0D01*
G01*
X92642500Y-90120000D01*
G75*
G02*
X92470000Y-89947500I0J172500D01*
G01*
X92470000Y-89552500D01*
G75*
G02*
X92642500Y-89380000I172500J0D01*
G01*
X92987500Y-89380000D01*
G75*
G02*
X93160000Y-89552500I0J-172500D01*
G01*
G37*
%TD*%
%TO.C,R401*%
G36*
G01*
X162560000Y-100352500D02*
X162560000Y-100747500D01*
G75*
G02*
X162387500Y-100920000I-172500J0D01*
G01*
X162042500Y-100920000D01*
G75*
G02*
X161870000Y-100747500I0J172500D01*
G01*
X161870000Y-100352500D01*
G75*
G02*
X162042500Y-100180000I172500J0D01*
G01*
X162387500Y-100180000D01*
G75*
G02*
X162560000Y-100352500I0J-172500D01*
G01*
G37*
G36*
G01*
X163530000Y-100352500D02*
X163530000Y-100747500D01*
G75*
G02*
X163357500Y-100920000I-172500J0D01*
G01*
X163012500Y-100920000D01*
G75*
G02*
X162840000Y-100747500I0J172500D01*
G01*
X162840000Y-100352500D01*
G75*
G02*
X163012500Y-100180000I172500J0D01*
G01*
X163357500Y-100180000D01*
G75*
G02*
X163530000Y-100352500I0J-172500D01*
G01*
G37*
%TD*%
%TO.C,R402*%
G36*
G01*
X164880000Y-102052500D02*
X164880000Y-102447500D01*
G75*
G02*
X164707500Y-102620000I-172500J0D01*
G01*
X164362500Y-102620000D01*
G75*
G02*
X164190000Y-102447500I0J172500D01*
G01*
X164190000Y-102052500D01*
G75*
G02*
X164362500Y-101880000I172500J0D01*
G01*
X164707500Y-101880000D01*
G75*
G02*
X164880000Y-102052500I0J-172500D01*
G01*
G37*
G36*
G01*
X163910000Y-102052500D02*
X163910000Y-102447500D01*
G75*
G02*
X163737500Y-102620000I-172500J0D01*
G01*
X163392500Y-102620000D01*
G75*
G02*
X163220000Y-102447500I0J172500D01*
G01*
X163220000Y-102052500D01*
G75*
G02*
X163392500Y-101880000I172500J0D01*
G01*
X163737500Y-101880000D01*
G75*
G02*
X163910000Y-102052500I0J-172500D01*
G01*
G37*
%TD*%
%TO.C,R501*%
G36*
G01*
X171720000Y-105097500D02*
X171720000Y-104702500D01*
G75*
G02*
X171892500Y-104530000I172500J0D01*
G01*
X172237500Y-104530000D01*
G75*
G02*
X172410000Y-104702500I0J-172500D01*
G01*
X172410000Y-105097500D01*
G75*
G02*
X172237500Y-105270000I-172500J0D01*
G01*
X171892500Y-105270000D01*
G75*
G02*
X171720000Y-105097500I0J172500D01*
G01*
G37*
G36*
G01*
X172690000Y-105097500D02*
X172690000Y-104702500D01*
G75*
G02*
X172862500Y-104530000I172500J0D01*
G01*
X173207500Y-104530000D01*
G75*
G02*
X173380000Y-104702500I0J-172500D01*
G01*
X173380000Y-105097500D01*
G75*
G02*
X173207500Y-105270000I-172500J0D01*
G01*
X172862500Y-105270000D01*
G75*
G02*
X172690000Y-105097500I0J172500D01*
G01*
G37*
%TD*%
%TO.C,R502*%
G36*
G01*
X172690000Y-103597500D02*
X172690000Y-103202500D01*
G75*
G02*
X172862500Y-103030000I172500J0D01*
G01*
X173207500Y-103030000D01*
G75*
G02*
X173380000Y-103202500I0J-172500D01*
G01*
X173380000Y-103597500D01*
G75*
G02*
X173207500Y-103770000I-172500J0D01*
G01*
X172862500Y-103770000D01*
G75*
G02*
X172690000Y-103597500I0J172500D01*
G01*
G37*
G36*
G01*
X171720000Y-103597500D02*
X171720000Y-103202500D01*
G75*
G02*
X171892500Y-103030000I172500J0D01*
G01*
X172237500Y-103030000D01*
G75*
G02*
X172410000Y-103202500I0J-172500D01*
G01*
X172410000Y-103597500D01*
G75*
G02*
X172237500Y-103770000I-172500J0D01*
G01*
X171892500Y-103770000D01*
G75*
G02*
X171720000Y-103597500I0J172500D01*
G01*
G37*
%TD*%
%TO.C,R701*%
G36*
G01*
X143173000Y-89463500D02*
X143173000Y-89858500D01*
G75*
G02*
X143000500Y-90031000I-172500J0D01*
G01*
X142655500Y-90031000D01*
G75*
G02*
X142483000Y-89858500I0J172500D01*
G01*
X142483000Y-89463500D01*
G75*
G02*
X142655500Y-89291000I172500J0D01*
G01*
X143000500Y-89291000D01*
G75*
G02*
X143173000Y-89463500I0J-172500D01*
G01*
G37*
G36*
G01*
X144143000Y-89463500D02*
X144143000Y-89858500D01*
G75*
G02*
X143970500Y-90031000I-172500J0D01*
G01*
X143625500Y-90031000D01*
G75*
G02*
X143453000Y-89858500I0J172500D01*
G01*
X143453000Y-89463500D01*
G75*
G02*
X143625500Y-89291000I172500J0D01*
G01*
X143970500Y-89291000D01*
G75*
G02*
X144143000Y-89463500I0J-172500D01*
G01*
G37*
%TD*%
%TO.C,R702*%
G36*
G01*
X147070000Y-89908500D02*
X147070000Y-89513500D01*
G75*
G02*
X147242500Y-89341000I172500J0D01*
G01*
X147587500Y-89341000D01*
G75*
G02*
X147760000Y-89513500I0J-172500D01*
G01*
X147760000Y-89908500D01*
G75*
G02*
X147587500Y-90081000I-172500J0D01*
G01*
X147242500Y-90081000D01*
G75*
G02*
X147070000Y-89908500I0J172500D01*
G01*
G37*
G36*
G01*
X146100000Y-89908500D02*
X146100000Y-89513500D01*
G75*
G02*
X146272500Y-89341000I172500J0D01*
G01*
X146617500Y-89341000D01*
G75*
G02*
X146790000Y-89513500I0J-172500D01*
G01*
X146790000Y-89908500D01*
G75*
G02*
X146617500Y-90081000I-172500J0D01*
G01*
X146272500Y-90081000D01*
G75*
G02*
X146100000Y-89908500I0J172500D01*
G01*
G37*
%TD*%
%TO.C,R801*%
G36*
G01*
X149543000Y-96422500D02*
X149543000Y-96817500D01*
G75*
G02*
X149370500Y-96990000I-172500J0D01*
G01*
X149025500Y-96990000D01*
G75*
G02*
X148853000Y-96817500I0J172500D01*
G01*
X148853000Y-96422500D01*
G75*
G02*
X149025500Y-96250000I172500J0D01*
G01*
X149370500Y-96250000D01*
G75*
G02*
X149543000Y-96422500I0J-172500D01*
G01*
G37*
G36*
G01*
X148573000Y-96422500D02*
X148573000Y-96817500D01*
G75*
G02*
X148400500Y-96990000I-172500J0D01*
G01*
X148055500Y-96990000D01*
G75*
G02*
X147883000Y-96817500I0J172500D01*
G01*
X147883000Y-96422500D01*
G75*
G02*
X148055500Y-96250000I172500J0D01*
G01*
X148400500Y-96250000D01*
G75*
G02*
X148573000Y-96422500I0J-172500D01*
G01*
G37*
%TD*%
%TO.C,R802*%
G36*
G01*
X152552500Y-98019750D02*
X152552500Y-98982250D01*
G75*
G02*
X152283750Y-99251000I-268750J0D01*
G01*
X151746250Y-99251000D01*
G75*
G02*
X151477500Y-98982250I0J268750D01*
G01*
X151477500Y-98019750D01*
G75*
G02*
X151746250Y-97751000I268750J0D01*
G01*
X152283750Y-97751000D01*
G75*
G02*
X152552500Y-98019750I0J-268750D01*
G01*
G37*
G36*
G01*
X150677500Y-98019750D02*
X150677500Y-98982250D01*
G75*
G02*
X150408750Y-99251000I-268750J0D01*
G01*
X149871250Y-99251000D01*
G75*
G02*
X149602500Y-98982250I0J268750D01*
G01*
X149602500Y-98019750D01*
G75*
G02*
X149871250Y-97751000I268750J0D01*
G01*
X150408750Y-97751000D01*
G75*
G02*
X150677500Y-98019750I0J-268750D01*
G01*
G37*
%TD*%
%TO.C,R901*%
G36*
G01*
X139578000Y-92555750D02*
X139578000Y-93118250D01*
G75*
G02*
X139334250Y-93362000I-243750J0D01*
G01*
X138846750Y-93362000D01*
G75*
G02*
X138603000Y-93118250I0J243750D01*
G01*
X138603000Y-92555750D01*
G75*
G02*
X138846750Y-92312000I243750J0D01*
G01*
X139334250Y-92312000D01*
G75*
G02*
X139578000Y-92555750I0J-243750D01*
G01*
G37*
G36*
G01*
X138003000Y-92555750D02*
X138003000Y-93118250D01*
G75*
G02*
X137759250Y-93362000I-243750J0D01*
G01*
X137271750Y-93362000D01*
G75*
G02*
X137028000Y-93118250I0J243750D01*
G01*
X137028000Y-92555750D01*
G75*
G02*
X137271750Y-92312000I243750J0D01*
G01*
X137759250Y-92312000D01*
G75*
G02*
X138003000Y-92555750I0J-243750D01*
G01*
G37*
%TD*%
%TO.C,U301*%
G36*
G01*
X97950000Y-90695000D02*
X98600000Y-90695000D01*
G75*
G02*
X98650000Y-90745000I0J-50000D01*
G01*
X98650000Y-91805000D01*
G75*
G02*
X98600000Y-91855000I-50000J0D01*
G01*
X97950000Y-91855000D01*
G75*
G02*
X97900000Y-91805000I0J50000D01*
G01*
X97900000Y-90745000D01*
G75*
G02*
X97950000Y-90695000I50000J0D01*
G01*
G37*
G36*
G01*
X97000000Y-90695000D02*
X97650000Y-90695000D01*
G75*
G02*
X97700000Y-90745000I0J-50000D01*
G01*
X97700000Y-91805000D01*
G75*
G02*
X97650000Y-91855000I-50000J0D01*
G01*
X97000000Y-91855000D01*
G75*
G02*
X96950000Y-91805000I0J50000D01*
G01*
X96950000Y-90745000D01*
G75*
G02*
X97000000Y-90695000I50000J0D01*
G01*
G37*
G36*
G01*
X96050000Y-90695000D02*
X96700000Y-90695000D01*
G75*
G02*
X96750000Y-90745000I0J-50000D01*
G01*
X96750000Y-91805000D01*
G75*
G02*
X96700000Y-91855000I-50000J0D01*
G01*
X96050000Y-91855000D01*
G75*
G02*
X96000000Y-91805000I0J50000D01*
G01*
X96000000Y-90745000D01*
G75*
G02*
X96050000Y-90695000I50000J0D01*
G01*
G37*
G36*
G01*
X96050000Y-92895000D02*
X96700000Y-92895000D01*
G75*
G02*
X96750000Y-92945000I0J-50000D01*
G01*
X96750000Y-94005000D01*
G75*
G02*
X96700000Y-94055000I-50000J0D01*
G01*
X96050000Y-94055000D01*
G75*
G02*
X96000000Y-94005000I0J50000D01*
G01*
X96000000Y-92945000D01*
G75*
G02*
X96050000Y-92895000I50000J0D01*
G01*
G37*
G36*
G01*
X97950000Y-92895000D02*
X98600000Y-92895000D01*
G75*
G02*
X98650000Y-92945000I0J-50000D01*
G01*
X98650000Y-94005000D01*
G75*
G02*
X98600000Y-94055000I-50000J0D01*
G01*
X97950000Y-94055000D01*
G75*
G02*
X97900000Y-94005000I0J50000D01*
G01*
X97900000Y-92945000D01*
G75*
G02*
X97950000Y-92895000I50000J0D01*
G01*
G37*
G36*
G01*
X97000000Y-92895000D02*
X97650000Y-92895000D01*
G75*
G02*
X97700000Y-92945000I0J-50000D01*
G01*
X97700000Y-94005000D01*
G75*
G02*
X97650000Y-94055000I-50000J0D01*
G01*
X97000000Y-94055000D01*
G75*
G02*
X96950000Y-94005000I0J50000D01*
G01*
X96950000Y-92945000D01*
G75*
G02*
X97000000Y-92895000I50000J0D01*
G01*
G37*
%TD*%
%TO.C,U602*%
G36*
G01*
X116398500Y-86960000D02*
X116773500Y-86960000D01*
G75*
G02*
X116961000Y-87147500I0J-187500D01*
G01*
X116961000Y-89222500D01*
G75*
G02*
X116773500Y-89410000I-187500J0D01*
G01*
X116398500Y-89410000D01*
G75*
G02*
X116211000Y-89222500I0J187500D01*
G01*
X116211000Y-87147500D01*
G75*
G02*
X116398500Y-86960000I187500J0D01*
G01*
G37*
G36*
G01*
X113858500Y-86960000D02*
X114233500Y-86960000D01*
G75*
G02*
X114421000Y-87147500I0J-187500D01*
G01*
X114421000Y-89222500D01*
G75*
G02*
X114233500Y-89410000I-187500J0D01*
G01*
X113858500Y-89410000D01*
G75*
G02*
X113671000Y-89222500I0J187500D01*
G01*
X113671000Y-87147500D01*
G75*
G02*
X113858500Y-86960000I187500J0D01*
G01*
G37*
G36*
G01*
X111318500Y-86960000D02*
X111693500Y-86960000D01*
G75*
G02*
X111881000Y-87147500I0J-187500D01*
G01*
X111881000Y-89222500D01*
G75*
G02*
X111693500Y-89410000I-187500J0D01*
G01*
X111318500Y-89410000D01*
G75*
G02*
X111131000Y-89222500I0J187500D01*
G01*
X111131000Y-87147500D01*
G75*
G02*
X111318500Y-86960000I187500J0D01*
G01*
G37*
G36*
G01*
X108778500Y-86960000D02*
X109153500Y-86960000D01*
G75*
G02*
X109341000Y-87147500I0J-187500D01*
G01*
X109341000Y-89222500D01*
G75*
G02*
X109153500Y-89410000I-187500J0D01*
G01*
X108778500Y-89410000D01*
G75*
G02*
X108591000Y-89222500I0J187500D01*
G01*
X108591000Y-87147500D01*
G75*
G02*
X108778500Y-86960000I187500J0D01*
G01*
G37*
G36*
G01*
X108778500Y-96010000D02*
X109153500Y-96010000D01*
G75*
G02*
X109341000Y-96197500I0J-187500D01*
G01*
X109341000Y-98272500D01*
G75*
G02*
X109153500Y-98460000I-187500J0D01*
G01*
X108778500Y-98460000D01*
G75*
G02*
X108591000Y-98272500I0J187500D01*
G01*
X108591000Y-96197500D01*
G75*
G02*
X108778500Y-96010000I187500J0D01*
G01*
G37*
G36*
G01*
X111318500Y-96010000D02*
X111693500Y-96010000D01*
G75*
G02*
X111881000Y-96197500I0J-187500D01*
G01*
X111881000Y-98272500D01*
G75*
G02*
X111693500Y-98460000I-187500J0D01*
G01*
X111318500Y-98460000D01*
G75*
G02*
X111131000Y-98272500I0J187500D01*
G01*
X111131000Y-96197500D01*
G75*
G02*
X111318500Y-96010000I187500J0D01*
G01*
G37*
G36*
G01*
X113858500Y-96010000D02*
X114233500Y-96010000D01*
G75*
G02*
X114421000Y-96197500I0J-187500D01*
G01*
X114421000Y-98272500D01*
G75*
G02*
X114233500Y-98460000I-187500J0D01*
G01*
X113858500Y-98460000D01*
G75*
G02*
X113671000Y-98272500I0J187500D01*
G01*
X113671000Y-96197500D01*
G75*
G02*
X113858500Y-96010000I187500J0D01*
G01*
G37*
G36*
G01*
X116398500Y-96010000D02*
X116773500Y-96010000D01*
G75*
G02*
X116961000Y-96197500I0J-187500D01*
G01*
X116961000Y-98272500D01*
G75*
G02*
X116773500Y-98460000I-187500J0D01*
G01*
X116398500Y-98460000D01*
G75*
G02*
X116211000Y-98272500I0J187500D01*
G01*
X116211000Y-96197500D01*
G75*
G02*
X116398500Y-96010000I187500J0D01*
G01*
G37*
%TD*%
%TO.C,U603*%
G36*
G01*
X119102000Y-96884000D02*
X119902000Y-96884000D01*
G75*
G02*
X119952000Y-96934000I0J-50000D01*
G01*
X119952000Y-97834000D01*
G75*
G02*
X119902000Y-97884000I-50000J0D01*
G01*
X119102000Y-97884000D01*
G75*
G02*
X119052000Y-97834000I0J50000D01*
G01*
X119052000Y-96934000D01*
G75*
G02*
X119102000Y-96884000I50000J0D01*
G01*
G37*
G36*
G01*
X118152000Y-94884000D02*
X118952000Y-94884000D01*
G75*
G02*
X119002000Y-94934000I0J-50000D01*
G01*
X119002000Y-95834000D01*
G75*
G02*
X118952000Y-95884000I-50000J0D01*
G01*
X118152000Y-95884000D01*
G75*
G02*
X118102000Y-95834000I0J50000D01*
G01*
X118102000Y-94934000D01*
G75*
G02*
X118152000Y-94884000I50000J0D01*
G01*
G37*
G36*
G01*
X120052000Y-94884000D02*
X120852000Y-94884000D01*
G75*
G02*
X120902000Y-94934000I0J-50000D01*
G01*
X120902000Y-95834000D01*
G75*
G02*
X120852000Y-95884000I-50000J0D01*
G01*
X120052000Y-95884000D01*
G75*
G02*
X120002000Y-95834000I0J50000D01*
G01*
X120002000Y-94934000D01*
G75*
G02*
X120052000Y-94884000I50000J0D01*
G01*
G37*
%TD*%
%TO.C,U801*%
G36*
G01*
X150578000Y-101233000D02*
X150578000Y-100608000D01*
G75*
G02*
X150628000Y-100558000I50000J0D01*
G01*
X150878000Y-100558000D01*
G75*
G02*
X150928000Y-100608000I0J-50000D01*
G01*
X150928000Y-101233000D01*
G75*
G02*
X150878000Y-101283000I-50000J0D01*
G01*
X150628000Y-101283000D01*
G75*
G02*
X150578000Y-101233000I0J50000D01*
G01*
G37*
G36*
G01*
X150978000Y-101233000D02*
X150978000Y-100533000D01*
G75*
G02*
X151028000Y-100483000I50000J0D01*
G01*
X151478000Y-100483000D01*
G75*
G02*
X151528000Y-100533000I0J-50000D01*
G01*
X151528000Y-101233000D01*
G75*
G02*
X151478000Y-101283000I-50000J0D01*
G01*
X151028000Y-101283000D01*
G75*
G02*
X150978000Y-101233000I0J50000D01*
G01*
G37*
G36*
G01*
X150078000Y-101233000D02*
X150078000Y-100608000D01*
G75*
G02*
X150128000Y-100558000I50000J0D01*
G01*
X150378000Y-100558000D01*
G75*
G02*
X150428000Y-100608000I0J-50000D01*
G01*
X150428000Y-101233000D01*
G75*
G02*
X150378000Y-101283000I-50000J0D01*
G01*
X150128000Y-101283000D01*
G75*
G02*
X150078000Y-101233000I0J50000D01*
G01*
G37*
G36*
G01*
X151578000Y-101233000D02*
X151578000Y-100608000D01*
G75*
G02*
X151628000Y-100558000I50000J0D01*
G01*
X151878000Y-100558000D01*
G75*
G02*
X151928000Y-100608000I0J-50000D01*
G01*
X151928000Y-101233000D01*
G75*
G02*
X151878000Y-101283000I-50000J0D01*
G01*
X151628000Y-101283000D01*
G75*
G02*
X151578000Y-101233000I0J50000D01*
G01*
G37*
G36*
G01*
X150078000Y-100458000D02*
X150078000Y-99833000D01*
G75*
G02*
X150128000Y-99783000I50000J0D01*
G01*
X150378000Y-99783000D01*
G75*
G02*
X150428000Y-99833000I0J-50000D01*
G01*
X150428000Y-100458000D01*
G75*
G02*
X150378000Y-100508000I-50000J0D01*
G01*
X150128000Y-100508000D01*
G75*
G02*
X150078000Y-100458000I0J50000D01*
G01*
G37*
G36*
G01*
X150578000Y-100458000D02*
X150578000Y-99833000D01*
G75*
G02*
X150628000Y-99783000I50000J0D01*
G01*
X150878000Y-99783000D01*
G75*
G02*
X150928000Y-99833000I0J-50000D01*
G01*
X150928000Y-100458000D01*
G75*
G02*
X150878000Y-100508000I-50000J0D01*
G01*
X150628000Y-100508000D01*
G75*
G02*
X150578000Y-100458000I0J50000D01*
G01*
G37*
G36*
G01*
X152078000Y-101233000D02*
X152078000Y-100608000D01*
G75*
G02*
X152128000Y-100558000I50000J0D01*
G01*
X152378000Y-100558000D01*
G75*
G02*
X152428000Y-100608000I0J-50000D01*
G01*
X152428000Y-101233000D01*
G75*
G02*
X152378000Y-101283000I-50000J0D01*
G01*
X152128000Y-101283000D01*
G75*
G02*
X152078000Y-101233000I0J50000D01*
G01*
G37*
G36*
G01*
X150978000Y-100408000D02*
X150978000Y-99833000D01*
G75*
G02*
X151028000Y-99783000I50000J0D01*
G01*
X151478000Y-99783000D01*
G75*
G02*
X151528000Y-99833000I0J-50000D01*
G01*
X151528000Y-100408000D01*
G75*
G02*
X151478000Y-100458000I-50000J0D01*
G01*
X151028000Y-100458000D01*
G75*
G02*
X150978000Y-100408000I0J50000D01*
G01*
G37*
G36*
G01*
X152078000Y-100458000D02*
X152078000Y-99833000D01*
G75*
G02*
X152128000Y-99783000I50000J0D01*
G01*
X152378000Y-99783000D01*
G75*
G02*
X152428000Y-99833000I0J-50000D01*
G01*
X152428000Y-100458000D01*
G75*
G02*
X152378000Y-100508000I-50000J0D01*
G01*
X152128000Y-100508000D01*
G75*
G02*
X152078000Y-100458000I0J50000D01*
G01*
G37*
G36*
G01*
X151578000Y-100458000D02*
X151578000Y-99833000D01*
G75*
G02*
X151628000Y-99783000I50000J0D01*
G01*
X151878000Y-99783000D01*
G75*
G02*
X151928000Y-99833000I0J-50000D01*
G01*
X151928000Y-100458000D01*
G75*
G02*
X151878000Y-100508000I-50000J0D01*
G01*
X151628000Y-100508000D01*
G75*
G02*
X151578000Y-100458000I0J50000D01*
G01*
G37*
%TD*%
%TO.C,SW501*%
G36*
G01*
X163000000Y-103550000D02*
X163000000Y-104550000D01*
G75*
G02*
X162950000Y-104600000I-50000J0D01*
G01*
X161250000Y-104600000D01*
G75*
G02*
X161200000Y-104550000I0J50000D01*
G01*
X161200000Y-103550000D01*
G75*
G02*
X161250000Y-103500000I50000J0D01*
G01*
X162950000Y-103500000D01*
G75*
G02*
X163000000Y-103550000I0J-50000D01*
G01*
G37*
G36*
G01*
X169300000Y-103550000D02*
X169300000Y-104550000D01*
G75*
G02*
X169250000Y-104600000I-50000J0D01*
G01*
X167550000Y-104600000D01*
G75*
G02*
X167500000Y-104550000I0J50000D01*
G01*
X167500000Y-103550000D01*
G75*
G02*
X167550000Y-103500000I50000J0D01*
G01*
X169250000Y-103500000D01*
G75*
G02*
X169300000Y-103550000I0J-50000D01*
G01*
G37*
G36*
G01*
X163000000Y-107350000D02*
X163000000Y-108350000D01*
G75*
G02*
X162950000Y-108400000I-50000J0D01*
G01*
X161250000Y-108400000D01*
G75*
G02*
X161200000Y-108350000I0J50000D01*
G01*
X161200000Y-107350000D01*
G75*
G02*
X161250000Y-107300000I50000J0D01*
G01*
X162950000Y-107300000D01*
G75*
G02*
X163000000Y-107350000I0J-50000D01*
G01*
G37*
G36*
G01*
X169300000Y-107350000D02*
X169300000Y-108350000D01*
G75*
G02*
X169250000Y-108400000I-50000J0D01*
G01*
X167550000Y-108400000D01*
G75*
G02*
X167500000Y-108350000I0J50000D01*
G01*
X167500000Y-107350000D01*
G75*
G02*
X167550000Y-107300000I50000J0D01*
G01*
X169250000Y-107300000D01*
G75*
G02*
X169300000Y-107350000I0J-50000D01*
G01*
G37*
%TD*%
%TO.C,SW502*%
G36*
G01*
X169300000Y-113400000D02*
X169300000Y-114400000D01*
G75*
G02*
X169250000Y-114450000I-50000J0D01*
G01*
X167550000Y-114450000D01*
G75*
G02*
X167500000Y-114400000I0J50000D01*
G01*
X167500000Y-113400000D01*
G75*
G02*
X167550000Y-113350000I50000J0D01*
G01*
X169250000Y-113350000D01*
G75*
G02*
X169300000Y-113400000I0J-50000D01*
G01*
G37*
G36*
G01*
X163000000Y-113400000D02*
X163000000Y-114400000D01*
G75*
G02*
X162950000Y-114450000I-50000J0D01*
G01*
X161250000Y-114450000D01*
G75*
G02*
X161200000Y-114400000I0J50000D01*
G01*
X161200000Y-113400000D01*
G75*
G02*
X161250000Y-113350000I50000J0D01*
G01*
X162950000Y-113350000D01*
G75*
G02*
X163000000Y-113400000I0J-50000D01*
G01*
G37*
G36*
G01*
X169300000Y-109600000D02*
X169300000Y-110600000D01*
G75*
G02*
X169250000Y-110650000I-50000J0D01*
G01*
X167550000Y-110650000D01*
G75*
G02*
X167500000Y-110600000I0J50000D01*
G01*
X167500000Y-109600000D01*
G75*
G02*
X167550000Y-109550000I50000J0D01*
G01*
X169250000Y-109550000D01*
G75*
G02*
X169300000Y-109600000I0J-50000D01*
G01*
G37*
G36*
G01*
X163000000Y-109600000D02*
X163000000Y-110600000D01*
G75*
G02*
X162950000Y-110650000I-50000J0D01*
G01*
X161250000Y-110650000D01*
G75*
G02*
X161200000Y-110600000I0J50000D01*
G01*
X161200000Y-109600000D01*
G75*
G02*
X161250000Y-109550000I50000J0D01*
G01*
X162950000Y-109550000D01*
G75*
G02*
X163000000Y-109600000I0J-50000D01*
G01*
G37*
%TD*%
%TO.C,J801*%
G36*
G01*
X149450000Y-103300000D02*
X151150000Y-103300000D01*
G75*
G02*
X151200000Y-103350000I0J-50000D01*
G01*
X151200000Y-105050000D01*
G75*
G02*
X151150000Y-105100000I-50000J0D01*
G01*
X149450000Y-105100000D01*
G75*
G02*
X149400000Y-105050000I0J50000D01*
G01*
X149400000Y-103350000D01*
G75*
G02*
X149450000Y-103300000I50000J0D01*
G01*
G37*
X147760000Y-104200000D03*
X145220000Y-104200000D03*
%TD*%
%TO.C,J901*%
X136040000Y-113200000D03*
X133500000Y-113200000D03*
X130960000Y-113200000D03*
G36*
G01*
X129270000Y-114100000D02*
X127570000Y-114100000D01*
G75*
G02*
X127520000Y-114050000I0J50000D01*
G01*
X127520000Y-112350000D01*
G75*
G02*
X127570000Y-112300000I50000J0D01*
G01*
X129270000Y-112300000D01*
G75*
G02*
X129320000Y-112350000I0J-50000D01*
G01*
X129320000Y-114050000D01*
G75*
G02*
X129270000Y-114100000I-50000J0D01*
G01*
G37*
%TD*%
M02*
