%TF.GenerationSoftware,KiCad,Pcbnew,(5.1.8-0-10_14)*%
%TF.CreationDate,2020-11-27T14:09:33+02:00*%
%TF.ProjectId,SH-ESP32,53482d45-5350-4333-922e-6b696361645f,0.2.0*%
%TF.SameCoordinates,Original*%
%TF.FileFunction,Soldermask,Top*%
%TF.FilePolarity,Negative*%
%FSLAX46Y46*%
G04 Gerber Fmt 4.6, Leading zero omitted, Abs format (unit mm)*
G04 Created by KiCad (PCBNEW (5.1.8-0-10_14)) date 2020-11-27 14:09:33*
%MOMM*%
%LPD*%
G01*
G04 APERTURE LIST*
%TA.AperFunction,Profile*%
%ADD10C,0.050000*%
%TD*%
%ADD11O,1.950000X0.950000*%
%ADD12C,0.940000*%
%ADD13O,1.800000X1.800000*%
%ADD14C,1.900000*%
%ADD15O,1.900000X1.800000*%
%ADD16O,1.900000X3.700000*%
%ADD17C,6.400000*%
G04 APERTURE END LIST*
D10*
X169500000Y-115000000D02*
G75*
G02*
X178000000Y-106500000I8500000J0D01*
G01*
X89000000Y-106500000D02*
G75*
G02*
X97500000Y-115000000I0J-8500000D01*
G01*
X178000000Y-65500000D02*
G75*
G02*
X169500000Y-57000000I0J8500000D01*
G01*
X97500000Y-57000000D02*
G75*
G02*
X89000000Y-65500000I-8500000J0D01*
G01*
X178000000Y-106500000D02*
X178000000Y-65500000D01*
X169500000Y-115000000D02*
X97500000Y-115000000D01*
X169500000Y-57000000D02*
X97500000Y-57000000D01*
X89000000Y-65500000D02*
X89000000Y-106500000D01*
%TO.C,D602*%
G36*
G01*
X116875000Y-102940500D02*
X118075000Y-102940500D01*
G75*
G02*
X118125000Y-102990500I0J-50000D01*
G01*
X118125000Y-103890500D01*
G75*
G02*
X118075000Y-103940500I-50000J0D01*
G01*
X116875000Y-103940500D01*
G75*
G02*
X116825000Y-103890500I0J50000D01*
G01*
X116825000Y-102990500D01*
G75*
G02*
X116875000Y-102940500I50000J0D01*
G01*
G37*
G36*
G01*
X116875000Y-99640500D02*
X118075000Y-99640500D01*
G75*
G02*
X118125000Y-99690500I0J-50000D01*
G01*
X118125000Y-100590500D01*
G75*
G02*
X118075000Y-100640500I-50000J0D01*
G01*
X116875000Y-100640500D01*
G75*
G02*
X116825000Y-100590500I0J50000D01*
G01*
X116825000Y-99690500D01*
G75*
G02*
X116875000Y-99640500I50000J0D01*
G01*
G37*
%TD*%
D11*
%TO.C,J401*%
X174720000Y-93875000D03*
X174720000Y-101025000D03*
D12*
X174500000Y-96150000D03*
X175500000Y-96800000D03*
X174500000Y-97450000D03*
X175500000Y-98100000D03*
G36*
G01*
X174920000Y-99220000D02*
X174080000Y-99220000D01*
G75*
G02*
X174030000Y-99170000I0J50000D01*
G01*
X174030000Y-98330000D01*
G75*
G02*
X174080000Y-98280000I50000J0D01*
G01*
X174920000Y-98280000D01*
G75*
G02*
X174970000Y-98330000I0J-50000D01*
G01*
X174970000Y-99170000D01*
G75*
G02*
X174920000Y-99220000I-50000J0D01*
G01*
G37*
%TD*%
%TO.C,J203*%
G36*
G01*
X130650000Y-91390000D02*
X130650000Y-89690000D01*
G75*
G02*
X130700000Y-89640000I50000J0D01*
G01*
X132400000Y-89640000D01*
G75*
G02*
X132450000Y-89690000I0J-50000D01*
G01*
X132450000Y-91390000D01*
G75*
G02*
X132400000Y-91440000I-50000J0D01*
G01*
X130700000Y-91440000D01*
G75*
G02*
X130650000Y-91390000I0J50000D01*
G01*
G37*
%TD*%
%TO.C,R906*%
G36*
G01*
X137384389Y-105370000D02*
X138335611Y-105370000D01*
G75*
G02*
X138610000Y-105644389I0J-274389D01*
G01*
X138610000Y-106220611D01*
G75*
G02*
X138335611Y-106495000I-274389J0D01*
G01*
X137384389Y-106495000D01*
G75*
G02*
X137110000Y-106220611I0J274389D01*
G01*
X137110000Y-105644389D01*
G75*
G02*
X137384389Y-105370000I274389J0D01*
G01*
G37*
G36*
G01*
X137384389Y-103545000D02*
X138335611Y-103545000D01*
G75*
G02*
X138610000Y-103819389I0J-274389D01*
G01*
X138610000Y-104395611D01*
G75*
G02*
X138335611Y-104670000I-274389J0D01*
G01*
X137384389Y-104670000D01*
G75*
G02*
X137110000Y-104395611I0J274389D01*
G01*
X137110000Y-103819389D01*
G75*
G02*
X137384389Y-103545000I274389J0D01*
G01*
G37*
%TD*%
%TO.C,C1022*%
G36*
G01*
X148942000Y-86532500D02*
X148942000Y-86137500D01*
G75*
G02*
X149114500Y-85965000I172500J0D01*
G01*
X149459500Y-85965000D01*
G75*
G02*
X149632000Y-86137500I0J-172500D01*
G01*
X149632000Y-86532500D01*
G75*
G02*
X149459500Y-86705000I-172500J0D01*
G01*
X149114500Y-86705000D01*
G75*
G02*
X148942000Y-86532500I0J172500D01*
G01*
G37*
G36*
G01*
X147972000Y-86532500D02*
X147972000Y-86137500D01*
G75*
G02*
X148144500Y-85965000I172500J0D01*
G01*
X148489500Y-85965000D01*
G75*
G02*
X148662000Y-86137500I0J-172500D01*
G01*
X148662000Y-86532500D01*
G75*
G02*
X148489500Y-86705000I-172500J0D01*
G01*
X148144500Y-86705000D01*
G75*
G02*
X147972000Y-86532500I0J172500D01*
G01*
G37*
%TD*%
D13*
%TO.C,J202*%
X99740000Y-61340000D03*
X99740000Y-58800000D03*
X102280000Y-61340000D03*
X102280000Y-58800000D03*
X104820000Y-61340000D03*
G36*
G01*
X103970000Y-57900000D02*
X105670000Y-57900000D01*
G75*
G02*
X105720000Y-57950000I0J-50000D01*
G01*
X105720000Y-59650000D01*
G75*
G02*
X105670000Y-59700000I-50000J0D01*
G01*
X103970000Y-59700000D01*
G75*
G02*
X103920000Y-59650000I0J50000D01*
G01*
X103920000Y-57950000D01*
G75*
G02*
X103970000Y-57900000I50000J0D01*
G01*
G37*
%TD*%
%TO.C,R1103*%
G36*
G01*
X150190000Y-79950000D02*
X150190000Y-79530000D01*
G75*
G02*
X150350000Y-79370000I160000J0D01*
G01*
X150670000Y-79370000D01*
G75*
G02*
X150830000Y-79530000I0J-160000D01*
G01*
X150830000Y-79950000D01*
G75*
G02*
X150670000Y-80110000I-160000J0D01*
G01*
X150350000Y-80110000D01*
G75*
G02*
X150190000Y-79950000I0J160000D01*
G01*
G37*
G36*
G01*
X149170000Y-79950000D02*
X149170000Y-79530000D01*
G75*
G02*
X149330000Y-79370000I160000J0D01*
G01*
X149650000Y-79370000D01*
G75*
G02*
X149810000Y-79530000I0J-160000D01*
G01*
X149810000Y-79950000D01*
G75*
G02*
X149650000Y-80110000I-160000J0D01*
G01*
X149330000Y-80110000D01*
G75*
G02*
X149170000Y-79950000I0J160000D01*
G01*
G37*
%TD*%
%TO.C,D1102*%
G36*
G01*
X155360000Y-100870000D02*
X155760000Y-100870000D01*
G75*
G02*
X155810000Y-100920000I0J-50000D01*
G01*
X155810000Y-101430000D01*
G75*
G02*
X155760000Y-101480000I-50000J0D01*
G01*
X155360000Y-101480000D01*
G75*
G02*
X155310000Y-101430000I0J50000D01*
G01*
X155310000Y-100920000D01*
G75*
G02*
X155360000Y-100870000I50000J0D01*
G01*
G37*
G36*
G01*
X154860000Y-99580000D02*
X155260000Y-99580000D01*
G75*
G02*
X155310000Y-99630000I0J-50000D01*
G01*
X155310000Y-100140000D01*
G75*
G02*
X155260000Y-100190000I-50000J0D01*
G01*
X154860000Y-100190000D01*
G75*
G02*
X154810000Y-100140000I0J50000D01*
G01*
X154810000Y-99630000D01*
G75*
G02*
X154860000Y-99580000I50000J0D01*
G01*
G37*
G36*
G01*
X154360000Y-100870000D02*
X154760000Y-100870000D01*
G75*
G02*
X154810000Y-100920000I0J-50000D01*
G01*
X154810000Y-101430000D01*
G75*
G02*
X154760000Y-101480000I-50000J0D01*
G01*
X154360000Y-101480000D01*
G75*
G02*
X154310000Y-101430000I0J50000D01*
G01*
X154310000Y-100920000D01*
G75*
G02*
X154360000Y-100870000I50000J0D01*
G01*
G37*
%TD*%
%TO.C,D1101*%
G36*
G01*
X149530000Y-81640000D02*
X149530000Y-82040000D01*
G75*
G02*
X149480000Y-82090000I-50000J0D01*
G01*
X148970000Y-82090000D01*
G75*
G02*
X148920000Y-82040000I0J50000D01*
G01*
X148920000Y-81640000D01*
G75*
G02*
X148970000Y-81590000I50000J0D01*
G01*
X149480000Y-81590000D01*
G75*
G02*
X149530000Y-81640000I0J-50000D01*
G01*
G37*
G36*
G01*
X150820000Y-81140000D02*
X150820000Y-81540000D01*
G75*
G02*
X150770000Y-81590000I-50000J0D01*
G01*
X150260000Y-81590000D01*
G75*
G02*
X150210000Y-81540000I0J50000D01*
G01*
X150210000Y-81140000D01*
G75*
G02*
X150260000Y-81090000I50000J0D01*
G01*
X150770000Y-81090000D01*
G75*
G02*
X150820000Y-81140000I0J-50000D01*
G01*
G37*
G36*
G01*
X149530000Y-80640000D02*
X149530000Y-81040000D01*
G75*
G02*
X149480000Y-81090000I-50000J0D01*
G01*
X148970000Y-81090000D01*
G75*
G02*
X148920000Y-81040000I0J50000D01*
G01*
X148920000Y-80640000D01*
G75*
G02*
X148970000Y-80590000I50000J0D01*
G01*
X149480000Y-80590000D01*
G75*
G02*
X149530000Y-80640000I0J-50000D01*
G01*
G37*
%TD*%
%TO.C,J201*%
X117520000Y-61340000D03*
X117520000Y-58800000D03*
X120060000Y-61340000D03*
X120060000Y-58800000D03*
X122600000Y-61340000D03*
X122600000Y-58800000D03*
X125140000Y-61340000D03*
X125140000Y-58800000D03*
X127680000Y-61340000D03*
X127680000Y-58800000D03*
X130220000Y-61340000D03*
X130220000Y-58800000D03*
X132760000Y-61340000D03*
X132760000Y-58800000D03*
X135300000Y-61340000D03*
X135300000Y-58800000D03*
X137840000Y-61340000D03*
X137840000Y-58800000D03*
X140380000Y-61340000D03*
X140380000Y-58800000D03*
X142920000Y-61340000D03*
X142920000Y-58800000D03*
X145460000Y-61340000D03*
X145460000Y-58800000D03*
X148000000Y-61340000D03*
X148000000Y-58800000D03*
X150540000Y-61340000D03*
X150540000Y-58800000D03*
X153080000Y-61340000D03*
X153080000Y-58800000D03*
X155620000Y-61340000D03*
X155620000Y-58800000D03*
X158160000Y-61340000D03*
X158160000Y-58800000D03*
X160700000Y-61340000D03*
X160700000Y-58800000D03*
X163240000Y-61340000D03*
X163240000Y-58800000D03*
X165780000Y-61340000D03*
G36*
G01*
X164930000Y-57900000D02*
X166630000Y-57900000D01*
G75*
G02*
X166680000Y-57950000I0J-50000D01*
G01*
X166680000Y-59650000D01*
G75*
G02*
X166630000Y-59700000I-50000J0D01*
G01*
X164930000Y-59700000D01*
G75*
G02*
X164880000Y-59650000I0J50000D01*
G01*
X164880000Y-57950000D01*
G75*
G02*
X164930000Y-57900000I50000J0D01*
G01*
G37*
%TD*%
%TO.C,U201*%
G36*
G01*
X160572999Y-72530000D02*
X165572999Y-72530000D01*
G75*
G02*
X165622999Y-72580000I0J-50000D01*
G01*
X165622999Y-77580000D01*
G75*
G02*
X165572999Y-77630000I-50000J0D01*
G01*
X160572999Y-77630000D01*
G75*
G02*
X160522999Y-77580000I0J50000D01*
G01*
X160522999Y-72580000D01*
G75*
G02*
X160572999Y-72530000I50000J0D01*
G01*
G37*
G36*
G01*
X170122999Y-66530000D02*
X171022999Y-66530000D01*
G75*
G02*
X171072999Y-66580000I0J-50000D01*
G01*
X171072999Y-68580000D01*
G75*
G02*
X171022999Y-68630000I-50000J0D01*
G01*
X170122999Y-68630000D01*
G75*
G02*
X170072999Y-68580000I0J50000D01*
G01*
X170072999Y-66580000D01*
G75*
G02*
X170122999Y-66530000I50000J0D01*
G01*
G37*
G36*
G01*
X168852999Y-66530000D02*
X169752999Y-66530000D01*
G75*
G02*
X169802999Y-66580000I0J-50000D01*
G01*
X169802999Y-68580000D01*
G75*
G02*
X169752999Y-68630000I-50000J0D01*
G01*
X168852999Y-68630000D01*
G75*
G02*
X168802999Y-68580000I0J50000D01*
G01*
X168802999Y-66580000D01*
G75*
G02*
X168852999Y-66530000I50000J0D01*
G01*
G37*
G36*
G01*
X167582999Y-66530000D02*
X168482999Y-66530000D01*
G75*
G02*
X168532999Y-66580000I0J-50000D01*
G01*
X168532999Y-68580000D01*
G75*
G02*
X168482999Y-68630000I-50000J0D01*
G01*
X167582999Y-68630000D01*
G75*
G02*
X167532999Y-68580000I0J50000D01*
G01*
X167532999Y-66580000D01*
G75*
G02*
X167582999Y-66530000I50000J0D01*
G01*
G37*
G36*
G01*
X166312999Y-66530000D02*
X167212999Y-66530000D01*
G75*
G02*
X167262999Y-66580000I0J-50000D01*
G01*
X167262999Y-68580000D01*
G75*
G02*
X167212999Y-68630000I-50000J0D01*
G01*
X166312999Y-68630000D01*
G75*
G02*
X166262999Y-68580000I0J50000D01*
G01*
X166262999Y-66580000D01*
G75*
G02*
X166312999Y-66530000I50000J0D01*
G01*
G37*
G36*
G01*
X165042999Y-66530000D02*
X165942999Y-66530000D01*
G75*
G02*
X165992999Y-66580000I0J-50000D01*
G01*
X165992999Y-68580000D01*
G75*
G02*
X165942999Y-68630000I-50000J0D01*
G01*
X165042999Y-68630000D01*
G75*
G02*
X164992999Y-68580000I0J50000D01*
G01*
X164992999Y-66580000D01*
G75*
G02*
X165042999Y-66530000I50000J0D01*
G01*
G37*
G36*
G01*
X163772999Y-66530000D02*
X164672999Y-66530000D01*
G75*
G02*
X164722999Y-66580000I0J-50000D01*
G01*
X164722999Y-68580000D01*
G75*
G02*
X164672999Y-68630000I-50000J0D01*
G01*
X163772999Y-68630000D01*
G75*
G02*
X163722999Y-68580000I0J50000D01*
G01*
X163722999Y-66580000D01*
G75*
G02*
X163772999Y-66530000I50000J0D01*
G01*
G37*
G36*
G01*
X162502999Y-66530000D02*
X163402999Y-66530000D01*
G75*
G02*
X163452999Y-66580000I0J-50000D01*
G01*
X163452999Y-68580000D01*
G75*
G02*
X163402999Y-68630000I-50000J0D01*
G01*
X162502999Y-68630000D01*
G75*
G02*
X162452999Y-68580000I0J50000D01*
G01*
X162452999Y-66580000D01*
G75*
G02*
X162502999Y-66530000I50000J0D01*
G01*
G37*
G36*
G01*
X161232999Y-66530000D02*
X162132999Y-66530000D01*
G75*
G02*
X162182999Y-66580000I0J-50000D01*
G01*
X162182999Y-68580000D01*
G75*
G02*
X162132999Y-68630000I-50000J0D01*
G01*
X161232999Y-68630000D01*
G75*
G02*
X161182999Y-68580000I0J50000D01*
G01*
X161182999Y-66580000D01*
G75*
G02*
X161232999Y-66530000I50000J0D01*
G01*
G37*
G36*
G01*
X159962999Y-66530000D02*
X160862999Y-66530000D01*
G75*
G02*
X160912999Y-66580000I0J-50000D01*
G01*
X160912999Y-68580000D01*
G75*
G02*
X160862999Y-68630000I-50000J0D01*
G01*
X159962999Y-68630000D01*
G75*
G02*
X159912999Y-68580000I0J50000D01*
G01*
X159912999Y-66580000D01*
G75*
G02*
X159962999Y-66530000I50000J0D01*
G01*
G37*
G36*
G01*
X158692999Y-66530000D02*
X159592999Y-66530000D01*
G75*
G02*
X159642999Y-66580000I0J-50000D01*
G01*
X159642999Y-68580000D01*
G75*
G02*
X159592999Y-68630000I-50000J0D01*
G01*
X158692999Y-68630000D01*
G75*
G02*
X158642999Y-68580000I0J50000D01*
G01*
X158642999Y-66580000D01*
G75*
G02*
X158692999Y-66530000I50000J0D01*
G01*
G37*
G36*
G01*
X157422999Y-66530000D02*
X158322999Y-66530000D01*
G75*
G02*
X158372999Y-66580000I0J-50000D01*
G01*
X158372999Y-68580000D01*
G75*
G02*
X158322999Y-68630000I-50000J0D01*
G01*
X157422999Y-68630000D01*
G75*
G02*
X157372999Y-68580000I0J50000D01*
G01*
X157372999Y-66580000D01*
G75*
G02*
X157422999Y-66530000I50000J0D01*
G01*
G37*
G36*
G01*
X156152999Y-66530000D02*
X157052999Y-66530000D01*
G75*
G02*
X157102999Y-66580000I0J-50000D01*
G01*
X157102999Y-68580000D01*
G75*
G02*
X157052999Y-68630000I-50000J0D01*
G01*
X156152999Y-68630000D01*
G75*
G02*
X156102999Y-68580000I0J50000D01*
G01*
X156102999Y-66580000D01*
G75*
G02*
X156152999Y-66530000I50000J0D01*
G01*
G37*
G36*
G01*
X154882999Y-66530000D02*
X155782999Y-66530000D01*
G75*
G02*
X155832999Y-66580000I0J-50000D01*
G01*
X155832999Y-68580000D01*
G75*
G02*
X155782999Y-68630000I-50000J0D01*
G01*
X154882999Y-68630000D01*
G75*
G02*
X154832999Y-68580000I0J50000D01*
G01*
X154832999Y-66580000D01*
G75*
G02*
X154882999Y-66530000I50000J0D01*
G01*
G37*
G36*
G01*
X153612999Y-66530000D02*
X154512999Y-66530000D01*
G75*
G02*
X154562999Y-66580000I0J-50000D01*
G01*
X154562999Y-68580000D01*
G75*
G02*
X154512999Y-68630000I-50000J0D01*
G01*
X153612999Y-68630000D01*
G75*
G02*
X153562999Y-68580000I0J50000D01*
G01*
X153562999Y-66580000D01*
G75*
G02*
X153612999Y-66530000I50000J0D01*
G01*
G37*
G36*
G01*
X152012999Y-70815000D02*
X152012999Y-69915000D01*
G75*
G02*
X152062999Y-69865000I50000J0D01*
G01*
X154062999Y-69865000D01*
G75*
G02*
X154112999Y-69915000I0J-50000D01*
G01*
X154112999Y-70815000D01*
G75*
G02*
X154062999Y-70865000I-50000J0D01*
G01*
X152062999Y-70865000D01*
G75*
G02*
X152012999Y-70815000I0J50000D01*
G01*
G37*
G36*
G01*
X152012999Y-72085000D02*
X152012999Y-71185000D01*
G75*
G02*
X152062999Y-71135000I50000J0D01*
G01*
X154062999Y-71135000D01*
G75*
G02*
X154112999Y-71185000I0J-50000D01*
G01*
X154112999Y-72085000D01*
G75*
G02*
X154062999Y-72135000I-50000J0D01*
G01*
X152062999Y-72135000D01*
G75*
G02*
X152012999Y-72085000I0J50000D01*
G01*
G37*
G36*
G01*
X152012999Y-73355000D02*
X152012999Y-72455000D01*
G75*
G02*
X152062999Y-72405000I50000J0D01*
G01*
X154062999Y-72405000D01*
G75*
G02*
X154112999Y-72455000I0J-50000D01*
G01*
X154112999Y-73355000D01*
G75*
G02*
X154062999Y-73405000I-50000J0D01*
G01*
X152062999Y-73405000D01*
G75*
G02*
X152012999Y-73355000I0J50000D01*
G01*
G37*
G36*
G01*
X152012999Y-74625000D02*
X152012999Y-73725000D01*
G75*
G02*
X152062999Y-73675000I50000J0D01*
G01*
X154062999Y-73675000D01*
G75*
G02*
X154112999Y-73725000I0J-50000D01*
G01*
X154112999Y-74625000D01*
G75*
G02*
X154062999Y-74675000I-50000J0D01*
G01*
X152062999Y-74675000D01*
G75*
G02*
X152012999Y-74625000I0J50000D01*
G01*
G37*
G36*
G01*
X152012999Y-75895000D02*
X152012999Y-74995000D01*
G75*
G02*
X152062999Y-74945000I50000J0D01*
G01*
X154062999Y-74945000D01*
G75*
G02*
X154112999Y-74995000I0J-50000D01*
G01*
X154112999Y-75895000D01*
G75*
G02*
X154062999Y-75945000I-50000J0D01*
G01*
X152062999Y-75945000D01*
G75*
G02*
X152012999Y-75895000I0J50000D01*
G01*
G37*
G36*
G01*
X152012999Y-77165000D02*
X152012999Y-76265000D01*
G75*
G02*
X152062999Y-76215000I50000J0D01*
G01*
X154062999Y-76215000D01*
G75*
G02*
X154112999Y-76265000I0J-50000D01*
G01*
X154112999Y-77165000D01*
G75*
G02*
X154062999Y-77215000I-50000J0D01*
G01*
X152062999Y-77215000D01*
G75*
G02*
X152012999Y-77165000I0J50000D01*
G01*
G37*
G36*
G01*
X152012999Y-78435000D02*
X152012999Y-77535000D01*
G75*
G02*
X152062999Y-77485000I50000J0D01*
G01*
X154062999Y-77485000D01*
G75*
G02*
X154112999Y-77535000I0J-50000D01*
G01*
X154112999Y-78435000D01*
G75*
G02*
X154062999Y-78485000I-50000J0D01*
G01*
X152062999Y-78485000D01*
G75*
G02*
X152012999Y-78435000I0J50000D01*
G01*
G37*
G36*
G01*
X152012999Y-79705000D02*
X152012999Y-78805000D01*
G75*
G02*
X152062999Y-78755000I50000J0D01*
G01*
X154062999Y-78755000D01*
G75*
G02*
X154112999Y-78805000I0J-50000D01*
G01*
X154112999Y-79705000D01*
G75*
G02*
X154062999Y-79755000I-50000J0D01*
G01*
X152062999Y-79755000D01*
G75*
G02*
X152012999Y-79705000I0J50000D01*
G01*
G37*
G36*
G01*
X152012999Y-80975000D02*
X152012999Y-80075000D01*
G75*
G02*
X152062999Y-80025000I50000J0D01*
G01*
X154062999Y-80025000D01*
G75*
G02*
X154112999Y-80075000I0J-50000D01*
G01*
X154112999Y-80975000D01*
G75*
G02*
X154062999Y-81025000I-50000J0D01*
G01*
X152062999Y-81025000D01*
G75*
G02*
X152012999Y-80975000I0J50000D01*
G01*
G37*
G36*
G01*
X152012999Y-82245000D02*
X152012999Y-81345000D01*
G75*
G02*
X152062999Y-81295000I50000J0D01*
G01*
X154062999Y-81295000D01*
G75*
G02*
X154112999Y-81345000I0J-50000D01*
G01*
X154112999Y-82245000D01*
G75*
G02*
X154062999Y-82295000I-50000J0D01*
G01*
X152062999Y-82295000D01*
G75*
G02*
X152012999Y-82245000I0J50000D01*
G01*
G37*
G36*
G01*
X153612999Y-83530000D02*
X154512999Y-83530000D01*
G75*
G02*
X154562999Y-83580000I0J-50000D01*
G01*
X154562999Y-85580000D01*
G75*
G02*
X154512999Y-85630000I-50000J0D01*
G01*
X153612999Y-85630000D01*
G75*
G02*
X153562999Y-85580000I0J50000D01*
G01*
X153562999Y-83580000D01*
G75*
G02*
X153612999Y-83530000I50000J0D01*
G01*
G37*
G36*
G01*
X154882999Y-83530000D02*
X155782999Y-83530000D01*
G75*
G02*
X155832999Y-83580000I0J-50000D01*
G01*
X155832999Y-85580000D01*
G75*
G02*
X155782999Y-85630000I-50000J0D01*
G01*
X154882999Y-85630000D01*
G75*
G02*
X154832999Y-85580000I0J50000D01*
G01*
X154832999Y-83580000D01*
G75*
G02*
X154882999Y-83530000I50000J0D01*
G01*
G37*
G36*
G01*
X156152999Y-83530000D02*
X157052999Y-83530000D01*
G75*
G02*
X157102999Y-83580000I0J-50000D01*
G01*
X157102999Y-85580000D01*
G75*
G02*
X157052999Y-85630000I-50000J0D01*
G01*
X156152999Y-85630000D01*
G75*
G02*
X156102999Y-85580000I0J50000D01*
G01*
X156102999Y-83580000D01*
G75*
G02*
X156152999Y-83530000I50000J0D01*
G01*
G37*
G36*
G01*
X157422999Y-83530000D02*
X158322999Y-83530000D01*
G75*
G02*
X158372999Y-83580000I0J-50000D01*
G01*
X158372999Y-85580000D01*
G75*
G02*
X158322999Y-85630000I-50000J0D01*
G01*
X157422999Y-85630000D01*
G75*
G02*
X157372999Y-85580000I0J50000D01*
G01*
X157372999Y-83580000D01*
G75*
G02*
X157422999Y-83530000I50000J0D01*
G01*
G37*
G36*
G01*
X158692999Y-83530000D02*
X159592999Y-83530000D01*
G75*
G02*
X159642999Y-83580000I0J-50000D01*
G01*
X159642999Y-85580000D01*
G75*
G02*
X159592999Y-85630000I-50000J0D01*
G01*
X158692999Y-85630000D01*
G75*
G02*
X158642999Y-85580000I0J50000D01*
G01*
X158642999Y-83580000D01*
G75*
G02*
X158692999Y-83530000I50000J0D01*
G01*
G37*
G36*
G01*
X159962999Y-83530000D02*
X160862999Y-83530000D01*
G75*
G02*
X160912999Y-83580000I0J-50000D01*
G01*
X160912999Y-85580000D01*
G75*
G02*
X160862999Y-85630000I-50000J0D01*
G01*
X159962999Y-85630000D01*
G75*
G02*
X159912999Y-85580000I0J50000D01*
G01*
X159912999Y-83580000D01*
G75*
G02*
X159962999Y-83530000I50000J0D01*
G01*
G37*
G36*
G01*
X161232999Y-83530000D02*
X162132999Y-83530000D01*
G75*
G02*
X162182999Y-83580000I0J-50000D01*
G01*
X162182999Y-85580000D01*
G75*
G02*
X162132999Y-85630000I-50000J0D01*
G01*
X161232999Y-85630000D01*
G75*
G02*
X161182999Y-85580000I0J50000D01*
G01*
X161182999Y-83580000D01*
G75*
G02*
X161232999Y-83530000I50000J0D01*
G01*
G37*
G36*
G01*
X162502999Y-83530000D02*
X163402999Y-83530000D01*
G75*
G02*
X163452999Y-83580000I0J-50000D01*
G01*
X163452999Y-85580000D01*
G75*
G02*
X163402999Y-85630000I-50000J0D01*
G01*
X162502999Y-85630000D01*
G75*
G02*
X162452999Y-85580000I0J50000D01*
G01*
X162452999Y-83580000D01*
G75*
G02*
X162502999Y-83530000I50000J0D01*
G01*
G37*
G36*
G01*
X163772999Y-83530000D02*
X164672999Y-83530000D01*
G75*
G02*
X164722999Y-83580000I0J-50000D01*
G01*
X164722999Y-85580000D01*
G75*
G02*
X164672999Y-85630000I-50000J0D01*
G01*
X163772999Y-85630000D01*
G75*
G02*
X163722999Y-85580000I0J50000D01*
G01*
X163722999Y-83580000D01*
G75*
G02*
X163772999Y-83530000I50000J0D01*
G01*
G37*
G36*
G01*
X165042999Y-83530000D02*
X165942999Y-83530000D01*
G75*
G02*
X165992999Y-83580000I0J-50000D01*
G01*
X165992999Y-85580000D01*
G75*
G02*
X165942999Y-85630000I-50000J0D01*
G01*
X165042999Y-85630000D01*
G75*
G02*
X164992999Y-85580000I0J50000D01*
G01*
X164992999Y-83580000D01*
G75*
G02*
X165042999Y-83530000I50000J0D01*
G01*
G37*
G36*
G01*
X166312999Y-83530000D02*
X167212999Y-83530000D01*
G75*
G02*
X167262999Y-83580000I0J-50000D01*
G01*
X167262999Y-85580000D01*
G75*
G02*
X167212999Y-85630000I-50000J0D01*
G01*
X166312999Y-85630000D01*
G75*
G02*
X166262999Y-85580000I0J50000D01*
G01*
X166262999Y-83580000D01*
G75*
G02*
X166312999Y-83530000I50000J0D01*
G01*
G37*
G36*
G01*
X167582999Y-83530000D02*
X168482999Y-83530000D01*
G75*
G02*
X168532999Y-83580000I0J-50000D01*
G01*
X168532999Y-85580000D01*
G75*
G02*
X168482999Y-85630000I-50000J0D01*
G01*
X167582999Y-85630000D01*
G75*
G02*
X167532999Y-85580000I0J50000D01*
G01*
X167532999Y-83580000D01*
G75*
G02*
X167582999Y-83530000I50000J0D01*
G01*
G37*
G36*
G01*
X168852999Y-83530000D02*
X169752999Y-83530000D01*
G75*
G02*
X169802999Y-83580000I0J-50000D01*
G01*
X169802999Y-85580000D01*
G75*
G02*
X169752999Y-85630000I-50000J0D01*
G01*
X168852999Y-85630000D01*
G75*
G02*
X168802999Y-85580000I0J50000D01*
G01*
X168802999Y-83580000D01*
G75*
G02*
X168852999Y-83530000I50000J0D01*
G01*
G37*
G36*
G01*
X170122999Y-83530000D02*
X171022999Y-83530000D01*
G75*
G02*
X171072999Y-83580000I0J-50000D01*
G01*
X171072999Y-85580000D01*
G75*
G02*
X171022999Y-85630000I-50000J0D01*
G01*
X170122999Y-85630000D01*
G75*
G02*
X170072999Y-85580000I0J50000D01*
G01*
X170072999Y-83580000D01*
G75*
G02*
X170122999Y-83530000I50000J0D01*
G01*
G37*
%TD*%
%TO.C,R905*%
G36*
G01*
X132375612Y-106850000D02*
X131424388Y-106850000D01*
G75*
G02*
X131150000Y-106575612I0J274388D01*
G01*
X131150000Y-105999388D01*
G75*
G02*
X131424388Y-105725000I274388J0D01*
G01*
X132375612Y-105725000D01*
G75*
G02*
X132650000Y-105999388I0J-274388D01*
G01*
X132650000Y-106575612D01*
G75*
G02*
X132375612Y-106850000I-274388J0D01*
G01*
G37*
G36*
G01*
X132375612Y-108675000D02*
X131424388Y-108675000D01*
G75*
G02*
X131150000Y-108400612I0J274388D01*
G01*
X131150000Y-107824388D01*
G75*
G02*
X131424388Y-107550000I274388J0D01*
G01*
X132375612Y-107550000D01*
G75*
G02*
X132650000Y-107824388I0J-274388D01*
G01*
X132650000Y-108400612D01*
G75*
G02*
X132375612Y-108675000I-274388J0D01*
G01*
G37*
%TD*%
%TO.C,U401*%
G36*
G01*
X166951500Y-92814000D02*
X167301500Y-92814000D01*
G75*
G02*
X167476500Y-92989000I0J-175000D01*
G01*
X167476500Y-94689000D01*
G75*
G02*
X167301500Y-94864000I-175000J0D01*
G01*
X166951500Y-94864000D01*
G75*
G02*
X166776500Y-94689000I0J175000D01*
G01*
X166776500Y-92989000D01*
G75*
G02*
X166951500Y-92814000I175000J0D01*
G01*
G37*
G36*
G01*
X165681500Y-92814000D02*
X166031500Y-92814000D01*
G75*
G02*
X166206500Y-92989000I0J-175000D01*
G01*
X166206500Y-94689000D01*
G75*
G02*
X166031500Y-94864000I-175000J0D01*
G01*
X165681500Y-94864000D01*
G75*
G02*
X165506500Y-94689000I0J175000D01*
G01*
X165506500Y-92989000D01*
G75*
G02*
X165681500Y-92814000I175000J0D01*
G01*
G37*
G36*
G01*
X164411500Y-92814000D02*
X164761500Y-92814000D01*
G75*
G02*
X164936500Y-92989000I0J-175000D01*
G01*
X164936500Y-94689000D01*
G75*
G02*
X164761500Y-94864000I-175000J0D01*
G01*
X164411500Y-94864000D01*
G75*
G02*
X164236500Y-94689000I0J175000D01*
G01*
X164236500Y-92989000D01*
G75*
G02*
X164411500Y-92814000I175000J0D01*
G01*
G37*
G36*
G01*
X163141500Y-92814000D02*
X163491500Y-92814000D01*
G75*
G02*
X163666500Y-92989000I0J-175000D01*
G01*
X163666500Y-94689000D01*
G75*
G02*
X163491500Y-94864000I-175000J0D01*
G01*
X163141500Y-94864000D01*
G75*
G02*
X162966500Y-94689000I0J175000D01*
G01*
X162966500Y-92989000D01*
G75*
G02*
X163141500Y-92814000I175000J0D01*
G01*
G37*
G36*
G01*
X161871500Y-92814000D02*
X162221500Y-92814000D01*
G75*
G02*
X162396500Y-92989000I0J-175000D01*
G01*
X162396500Y-94689000D01*
G75*
G02*
X162221500Y-94864000I-175000J0D01*
G01*
X161871500Y-94864000D01*
G75*
G02*
X161696500Y-94689000I0J175000D01*
G01*
X161696500Y-92989000D01*
G75*
G02*
X161871500Y-92814000I175000J0D01*
G01*
G37*
G36*
G01*
X160601500Y-92814000D02*
X160951500Y-92814000D01*
G75*
G02*
X161126500Y-92989000I0J-175000D01*
G01*
X161126500Y-94689000D01*
G75*
G02*
X160951500Y-94864000I-175000J0D01*
G01*
X160601500Y-94864000D01*
G75*
G02*
X160426500Y-94689000I0J175000D01*
G01*
X160426500Y-92989000D01*
G75*
G02*
X160601500Y-92814000I175000J0D01*
G01*
G37*
G36*
G01*
X159331500Y-92814000D02*
X159681500Y-92814000D01*
G75*
G02*
X159856500Y-92989000I0J-175000D01*
G01*
X159856500Y-94689000D01*
G75*
G02*
X159681500Y-94864000I-175000J0D01*
G01*
X159331500Y-94864000D01*
G75*
G02*
X159156500Y-94689000I0J175000D01*
G01*
X159156500Y-92989000D01*
G75*
G02*
X159331500Y-92814000I175000J0D01*
G01*
G37*
G36*
G01*
X158061500Y-92814000D02*
X158411500Y-92814000D01*
G75*
G02*
X158586500Y-92989000I0J-175000D01*
G01*
X158586500Y-94689000D01*
G75*
G02*
X158411500Y-94864000I-175000J0D01*
G01*
X158061500Y-94864000D01*
G75*
G02*
X157886500Y-94689000I0J175000D01*
G01*
X157886500Y-92989000D01*
G75*
G02*
X158061500Y-92814000I175000J0D01*
G01*
G37*
G36*
G01*
X158061500Y-97764000D02*
X158411500Y-97764000D01*
G75*
G02*
X158586500Y-97939000I0J-175000D01*
G01*
X158586500Y-99639000D01*
G75*
G02*
X158411500Y-99814000I-175000J0D01*
G01*
X158061500Y-99814000D01*
G75*
G02*
X157886500Y-99639000I0J175000D01*
G01*
X157886500Y-97939000D01*
G75*
G02*
X158061500Y-97764000I175000J0D01*
G01*
G37*
G36*
G01*
X159331500Y-97764000D02*
X159681500Y-97764000D01*
G75*
G02*
X159856500Y-97939000I0J-175000D01*
G01*
X159856500Y-99639000D01*
G75*
G02*
X159681500Y-99814000I-175000J0D01*
G01*
X159331500Y-99814000D01*
G75*
G02*
X159156500Y-99639000I0J175000D01*
G01*
X159156500Y-97939000D01*
G75*
G02*
X159331500Y-97764000I175000J0D01*
G01*
G37*
G36*
G01*
X160601500Y-97764000D02*
X160951500Y-97764000D01*
G75*
G02*
X161126500Y-97939000I0J-175000D01*
G01*
X161126500Y-99639000D01*
G75*
G02*
X160951500Y-99814000I-175000J0D01*
G01*
X160601500Y-99814000D01*
G75*
G02*
X160426500Y-99639000I0J175000D01*
G01*
X160426500Y-97939000D01*
G75*
G02*
X160601500Y-97764000I175000J0D01*
G01*
G37*
G36*
G01*
X161871500Y-97764000D02*
X162221500Y-97764000D01*
G75*
G02*
X162396500Y-97939000I0J-175000D01*
G01*
X162396500Y-99639000D01*
G75*
G02*
X162221500Y-99814000I-175000J0D01*
G01*
X161871500Y-99814000D01*
G75*
G02*
X161696500Y-99639000I0J175000D01*
G01*
X161696500Y-97939000D01*
G75*
G02*
X161871500Y-97764000I175000J0D01*
G01*
G37*
G36*
G01*
X163141500Y-97764000D02*
X163491500Y-97764000D01*
G75*
G02*
X163666500Y-97939000I0J-175000D01*
G01*
X163666500Y-99639000D01*
G75*
G02*
X163491500Y-99814000I-175000J0D01*
G01*
X163141500Y-99814000D01*
G75*
G02*
X162966500Y-99639000I0J175000D01*
G01*
X162966500Y-97939000D01*
G75*
G02*
X163141500Y-97764000I175000J0D01*
G01*
G37*
G36*
G01*
X164411500Y-97764000D02*
X164761500Y-97764000D01*
G75*
G02*
X164936500Y-97939000I0J-175000D01*
G01*
X164936500Y-99639000D01*
G75*
G02*
X164761500Y-99814000I-175000J0D01*
G01*
X164411500Y-99814000D01*
G75*
G02*
X164236500Y-99639000I0J175000D01*
G01*
X164236500Y-97939000D01*
G75*
G02*
X164411500Y-97764000I175000J0D01*
G01*
G37*
G36*
G01*
X165681500Y-97764000D02*
X166031500Y-97764000D01*
G75*
G02*
X166206500Y-97939000I0J-175000D01*
G01*
X166206500Y-99639000D01*
G75*
G02*
X166031500Y-99814000I-175000J0D01*
G01*
X165681500Y-99814000D01*
G75*
G02*
X165506500Y-99639000I0J175000D01*
G01*
X165506500Y-97939000D01*
G75*
G02*
X165681500Y-97764000I175000J0D01*
G01*
G37*
G36*
G01*
X166951500Y-97764000D02*
X167301500Y-97764000D01*
G75*
G02*
X167476500Y-97939000I0J-175000D01*
G01*
X167476500Y-99639000D01*
G75*
G02*
X167301500Y-99814000I-175000J0D01*
G01*
X166951500Y-99814000D01*
G75*
G02*
X166776500Y-99639000I0J175000D01*
G01*
X166776500Y-97939000D01*
G75*
G02*
X166951500Y-97764000I175000J0D01*
G01*
G37*
%TD*%
%TO.C,C503*%
G36*
G01*
X168873250Y-103778000D02*
X169835750Y-103778000D01*
G75*
G02*
X170104500Y-104046750I0J-268750D01*
G01*
X170104500Y-104584250D01*
G75*
G02*
X169835750Y-104853000I-268750J0D01*
G01*
X168873250Y-104853000D01*
G75*
G02*
X168604500Y-104584250I0J268750D01*
G01*
X168604500Y-104046750D01*
G75*
G02*
X168873250Y-103778000I268750J0D01*
G01*
G37*
G36*
G01*
X168873250Y-101903000D02*
X169835750Y-101903000D01*
G75*
G02*
X170104500Y-102171750I0J-268750D01*
G01*
X170104500Y-102709250D01*
G75*
G02*
X169835750Y-102978000I-268750J0D01*
G01*
X168873250Y-102978000D01*
G75*
G02*
X168604500Y-102709250I0J268750D01*
G01*
X168604500Y-102171750D01*
G75*
G02*
X168873250Y-101903000I268750J0D01*
G01*
G37*
%TD*%
%TO.C,F401*%
G36*
G01*
X172168500Y-99859000D02*
X170858500Y-99859000D01*
G75*
G02*
X170588500Y-99589000I0J270000D01*
G01*
X170588500Y-98779000D01*
G75*
G02*
X170858500Y-98509000I270000J0D01*
G01*
X172168500Y-98509000D01*
G75*
G02*
X172438500Y-98779000I0J-270000D01*
G01*
X172438500Y-99589000D01*
G75*
G02*
X172168500Y-99859000I-270000J0D01*
G01*
G37*
G36*
G01*
X172168500Y-102659000D02*
X170858500Y-102659000D01*
G75*
G02*
X170588500Y-102389000I0J270000D01*
G01*
X170588500Y-101579000D01*
G75*
G02*
X170858500Y-101309000I270000J0D01*
G01*
X172168500Y-101309000D01*
G75*
G02*
X172438500Y-101579000I0J-270000D01*
G01*
X172438500Y-102389000D01*
G75*
G02*
X172168500Y-102659000I-270000J0D01*
G01*
G37*
%TD*%
%TO.C,D303*%
G36*
G01*
X96364500Y-100019500D02*
X97564500Y-100019500D01*
G75*
G02*
X97614500Y-100069500I0J-50000D01*
G01*
X97614500Y-100969500D01*
G75*
G02*
X97564500Y-101019500I-50000J0D01*
G01*
X96364500Y-101019500D01*
G75*
G02*
X96314500Y-100969500I0J50000D01*
G01*
X96314500Y-100069500D01*
G75*
G02*
X96364500Y-100019500I50000J0D01*
G01*
G37*
G36*
G01*
X96364500Y-96719500D02*
X97564500Y-96719500D01*
G75*
G02*
X97614500Y-96769500I0J-50000D01*
G01*
X97614500Y-97669500D01*
G75*
G02*
X97564500Y-97719500I-50000J0D01*
G01*
X96364500Y-97719500D01*
G75*
G02*
X96314500Y-97669500I0J50000D01*
G01*
X96314500Y-96769500D01*
G75*
G02*
X96364500Y-96719500I50000J0D01*
G01*
G37*
%TD*%
%TO.C,R1102*%
G36*
G01*
X127590000Y-87797500D02*
X127590000Y-87402500D01*
G75*
G02*
X127762500Y-87230000I172500J0D01*
G01*
X128107500Y-87230000D01*
G75*
G02*
X128280000Y-87402500I0J-172500D01*
G01*
X128280000Y-87797500D01*
G75*
G02*
X128107500Y-87970000I-172500J0D01*
G01*
X127762500Y-87970000D01*
G75*
G02*
X127590000Y-87797500I0J172500D01*
G01*
G37*
G36*
G01*
X126620000Y-87797500D02*
X126620000Y-87402500D01*
G75*
G02*
X126792500Y-87230000I172500J0D01*
G01*
X127137500Y-87230000D01*
G75*
G02*
X127310000Y-87402500I0J-172500D01*
G01*
X127310000Y-87797500D01*
G75*
G02*
X127137500Y-87970000I-172500J0D01*
G01*
X126792500Y-87970000D01*
G75*
G02*
X126620000Y-87797500I0J172500D01*
G01*
G37*
%TD*%
%TO.C,R1101*%
G36*
G01*
X128597500Y-91369500D02*
X128597500Y-91764500D01*
G75*
G02*
X128425000Y-91937000I-172500J0D01*
G01*
X128080000Y-91937000D01*
G75*
G02*
X127907500Y-91764500I0J172500D01*
G01*
X127907500Y-91369500D01*
G75*
G02*
X128080000Y-91197000I172500J0D01*
G01*
X128425000Y-91197000D01*
G75*
G02*
X128597500Y-91369500I0J-172500D01*
G01*
G37*
G36*
G01*
X129567500Y-91369500D02*
X129567500Y-91764500D01*
G75*
G02*
X129395000Y-91937000I-172500J0D01*
G01*
X129050000Y-91937000D01*
G75*
G02*
X128877500Y-91764500I0J172500D01*
G01*
X128877500Y-91369500D01*
G75*
G02*
X129050000Y-91197000I172500J0D01*
G01*
X129395000Y-91197000D01*
G75*
G02*
X129567500Y-91369500I0J-172500D01*
G01*
G37*
%TD*%
%TO.C,Q1102*%
G36*
G01*
X127568000Y-89985000D02*
X127568000Y-90385000D01*
G75*
G02*
X127518000Y-90435000I-50000J0D01*
G01*
X126868000Y-90435000D01*
G75*
G02*
X126818000Y-90385000I0J50000D01*
G01*
X126818000Y-89985000D01*
G75*
G02*
X126868000Y-89935000I50000J0D01*
G01*
X127518000Y-89935000D01*
G75*
G02*
X127568000Y-89985000I0J-50000D01*
G01*
G37*
G36*
G01*
X127568000Y-88685000D02*
X127568000Y-89085000D01*
G75*
G02*
X127518000Y-89135000I-50000J0D01*
G01*
X126868000Y-89135000D01*
G75*
G02*
X126818000Y-89085000I0J50000D01*
G01*
X126818000Y-88685000D01*
G75*
G02*
X126868000Y-88635000I50000J0D01*
G01*
X127518000Y-88635000D01*
G75*
G02*
X127568000Y-88685000I0J-50000D01*
G01*
G37*
G36*
G01*
X129468000Y-89335000D02*
X129468000Y-89735000D01*
G75*
G02*
X129418000Y-89785000I-50000J0D01*
G01*
X128768000Y-89785000D01*
G75*
G02*
X128718000Y-89735000I0J50000D01*
G01*
X128718000Y-89335000D01*
G75*
G02*
X128768000Y-89285000I50000J0D01*
G01*
X129418000Y-89285000D01*
G75*
G02*
X129468000Y-89335000I0J-50000D01*
G01*
G37*
G36*
G01*
X127568000Y-89335000D02*
X127568000Y-89735000D01*
G75*
G02*
X127518000Y-89785000I-50000J0D01*
G01*
X126868000Y-89785000D01*
G75*
G02*
X126818000Y-89735000I0J50000D01*
G01*
X126818000Y-89335000D01*
G75*
G02*
X126868000Y-89285000I50000J0D01*
G01*
X127518000Y-89285000D01*
G75*
G02*
X127568000Y-89335000I0J-50000D01*
G01*
G37*
G36*
G01*
X129468000Y-88685000D02*
X129468000Y-89085000D01*
G75*
G02*
X129418000Y-89135000I-50000J0D01*
G01*
X128768000Y-89135000D01*
G75*
G02*
X128718000Y-89085000I0J50000D01*
G01*
X128718000Y-88685000D01*
G75*
G02*
X128768000Y-88635000I50000J0D01*
G01*
X129418000Y-88635000D01*
G75*
G02*
X129468000Y-88685000I0J-50000D01*
G01*
G37*
G36*
G01*
X129468000Y-89985000D02*
X129468000Y-90385000D01*
G75*
G02*
X129418000Y-90435000I-50000J0D01*
G01*
X128768000Y-90435000D01*
G75*
G02*
X128718000Y-90385000I0J50000D01*
G01*
X128718000Y-89985000D01*
G75*
G02*
X128768000Y-89935000I50000J0D01*
G01*
X129418000Y-89935000D01*
G75*
G02*
X129468000Y-89985000I0J-50000D01*
G01*
G37*
%TD*%
%TO.C,Q1101*%
G36*
G01*
X124187000Y-89781000D02*
X124987000Y-89781000D01*
G75*
G02*
X125037000Y-89831000I0J-50000D01*
G01*
X125037000Y-90731000D01*
G75*
G02*
X124987000Y-90781000I-50000J0D01*
G01*
X124187000Y-90781000D01*
G75*
G02*
X124137000Y-90731000I0J50000D01*
G01*
X124137000Y-89831000D01*
G75*
G02*
X124187000Y-89781000I50000J0D01*
G01*
G37*
G36*
G01*
X123237000Y-87781000D02*
X124037000Y-87781000D01*
G75*
G02*
X124087000Y-87831000I0J-50000D01*
G01*
X124087000Y-88731000D01*
G75*
G02*
X124037000Y-88781000I-50000J0D01*
G01*
X123237000Y-88781000D01*
G75*
G02*
X123187000Y-88731000I0J50000D01*
G01*
X123187000Y-87831000D01*
G75*
G02*
X123237000Y-87781000I50000J0D01*
G01*
G37*
G36*
G01*
X125137000Y-87781000D02*
X125937000Y-87781000D01*
G75*
G02*
X125987000Y-87831000I0J-50000D01*
G01*
X125987000Y-88731000D01*
G75*
G02*
X125937000Y-88781000I-50000J0D01*
G01*
X125137000Y-88781000D01*
G75*
G02*
X125087000Y-88731000I0J50000D01*
G01*
X125087000Y-87831000D01*
G75*
G02*
X125137000Y-87781000I50000J0D01*
G01*
G37*
%TD*%
%TO.C,FB401*%
G36*
G01*
X168873250Y-98410500D02*
X169835750Y-98410500D01*
G75*
G02*
X170104500Y-98679250I0J-268750D01*
G01*
X170104500Y-99216750D01*
G75*
G02*
X169835750Y-99485500I-268750J0D01*
G01*
X168873250Y-99485500D01*
G75*
G02*
X168604500Y-99216750I0J268750D01*
G01*
X168604500Y-98679250D01*
G75*
G02*
X168873250Y-98410500I268750J0D01*
G01*
G37*
G36*
G01*
X168873250Y-100285500D02*
X169835750Y-100285500D01*
G75*
G02*
X170104500Y-100554250I0J-268750D01*
G01*
X170104500Y-101091750D01*
G75*
G02*
X169835750Y-101360500I-268750J0D01*
G01*
X168873250Y-101360500D01*
G75*
G02*
X168604500Y-101091750I0J268750D01*
G01*
X168604500Y-100554250D01*
G75*
G02*
X168873250Y-100285500I268750J0D01*
G01*
G37*
%TD*%
%TO.C,U402*%
G36*
G01*
X170178500Y-95781500D02*
X170803500Y-95781500D01*
G75*
G02*
X170853500Y-95831500I0J-50000D01*
G01*
X170853500Y-96081500D01*
G75*
G02*
X170803500Y-96131500I-50000J0D01*
G01*
X170178500Y-96131500D01*
G75*
G02*
X170128500Y-96081500I0J50000D01*
G01*
X170128500Y-95831500D01*
G75*
G02*
X170178500Y-95781500I50000J0D01*
G01*
G37*
G36*
G01*
X170178500Y-96181500D02*
X170878500Y-96181500D01*
G75*
G02*
X170928500Y-96231500I0J-50000D01*
G01*
X170928500Y-96681500D01*
G75*
G02*
X170878500Y-96731500I-50000J0D01*
G01*
X170178500Y-96731500D01*
G75*
G02*
X170128500Y-96681500I0J50000D01*
G01*
X170128500Y-96231500D01*
G75*
G02*
X170178500Y-96181500I50000J0D01*
G01*
G37*
G36*
G01*
X170178500Y-95281500D02*
X170803500Y-95281500D01*
G75*
G02*
X170853500Y-95331500I0J-50000D01*
G01*
X170853500Y-95581500D01*
G75*
G02*
X170803500Y-95631500I-50000J0D01*
G01*
X170178500Y-95631500D01*
G75*
G02*
X170128500Y-95581500I0J50000D01*
G01*
X170128500Y-95331500D01*
G75*
G02*
X170178500Y-95281500I50000J0D01*
G01*
G37*
G36*
G01*
X170178500Y-96781500D02*
X170803500Y-96781500D01*
G75*
G02*
X170853500Y-96831500I0J-50000D01*
G01*
X170853500Y-97081500D01*
G75*
G02*
X170803500Y-97131500I-50000J0D01*
G01*
X170178500Y-97131500D01*
G75*
G02*
X170128500Y-97081500I0J50000D01*
G01*
X170128500Y-96831500D01*
G75*
G02*
X170178500Y-96781500I50000J0D01*
G01*
G37*
G36*
G01*
X170953500Y-95281500D02*
X171578500Y-95281500D01*
G75*
G02*
X171628500Y-95331500I0J-50000D01*
G01*
X171628500Y-95581500D01*
G75*
G02*
X171578500Y-95631500I-50000J0D01*
G01*
X170953500Y-95631500D01*
G75*
G02*
X170903500Y-95581500I0J50000D01*
G01*
X170903500Y-95331500D01*
G75*
G02*
X170953500Y-95281500I50000J0D01*
G01*
G37*
G36*
G01*
X170953500Y-95781500D02*
X171578500Y-95781500D01*
G75*
G02*
X171628500Y-95831500I0J-50000D01*
G01*
X171628500Y-96081500D01*
G75*
G02*
X171578500Y-96131500I-50000J0D01*
G01*
X170953500Y-96131500D01*
G75*
G02*
X170903500Y-96081500I0J50000D01*
G01*
X170903500Y-95831500D01*
G75*
G02*
X170953500Y-95781500I50000J0D01*
G01*
G37*
G36*
G01*
X170178500Y-97281500D02*
X170803500Y-97281500D01*
G75*
G02*
X170853500Y-97331500I0J-50000D01*
G01*
X170853500Y-97581500D01*
G75*
G02*
X170803500Y-97631500I-50000J0D01*
G01*
X170178500Y-97631500D01*
G75*
G02*
X170128500Y-97581500I0J50000D01*
G01*
X170128500Y-97331500D01*
G75*
G02*
X170178500Y-97281500I50000J0D01*
G01*
G37*
G36*
G01*
X171003500Y-96181500D02*
X171578500Y-96181500D01*
G75*
G02*
X171628500Y-96231500I0J-50000D01*
G01*
X171628500Y-96681500D01*
G75*
G02*
X171578500Y-96731500I-50000J0D01*
G01*
X171003500Y-96731500D01*
G75*
G02*
X170953500Y-96681500I0J50000D01*
G01*
X170953500Y-96231500D01*
G75*
G02*
X171003500Y-96181500I50000J0D01*
G01*
G37*
G36*
G01*
X170953500Y-97281500D02*
X171578500Y-97281500D01*
G75*
G02*
X171628500Y-97331500I0J-50000D01*
G01*
X171628500Y-97581500D01*
G75*
G02*
X171578500Y-97631500I-50000J0D01*
G01*
X170953500Y-97631500D01*
G75*
G02*
X170903500Y-97581500I0J50000D01*
G01*
X170903500Y-97331500D01*
G75*
G02*
X170953500Y-97281500I50000J0D01*
G01*
G37*
G36*
G01*
X170953500Y-96781500D02*
X171578500Y-96781500D01*
G75*
G02*
X171628500Y-96831500I0J-50000D01*
G01*
X171628500Y-97081500D01*
G75*
G02*
X171578500Y-97131500I-50000J0D01*
G01*
X170953500Y-97131500D01*
G75*
G02*
X170903500Y-97081500I0J50000D01*
G01*
X170903500Y-96831500D01*
G75*
G02*
X170953500Y-96781500I50000J0D01*
G01*
G37*
%TD*%
%TO.C,U701*%
G36*
G01*
X147125000Y-95875000D02*
X147125000Y-96500000D01*
G75*
G02*
X147075000Y-96550000I-50000J0D01*
G01*
X146825000Y-96550000D01*
G75*
G02*
X146775000Y-96500000I0J50000D01*
G01*
X146775000Y-95875000D01*
G75*
G02*
X146825000Y-95825000I50000J0D01*
G01*
X147075000Y-95825000D01*
G75*
G02*
X147125000Y-95875000I0J-50000D01*
G01*
G37*
G36*
G01*
X146625000Y-95875000D02*
X146625000Y-96500000D01*
G75*
G02*
X146575000Y-96550000I-50000J0D01*
G01*
X146325000Y-96550000D01*
G75*
G02*
X146275000Y-96500000I0J50000D01*
G01*
X146275000Y-95875000D01*
G75*
G02*
X146325000Y-95825000I50000J0D01*
G01*
X146575000Y-95825000D01*
G75*
G02*
X146625000Y-95875000I0J-50000D01*
G01*
G37*
G36*
G01*
X147725000Y-95925000D02*
X147725000Y-96500000D01*
G75*
G02*
X147675000Y-96550000I-50000J0D01*
G01*
X147225000Y-96550000D01*
G75*
G02*
X147175000Y-96500000I0J50000D01*
G01*
X147175000Y-95925000D01*
G75*
G02*
X147225000Y-95875000I50000J0D01*
G01*
X147675000Y-95875000D01*
G75*
G02*
X147725000Y-95925000I0J-50000D01*
G01*
G37*
G36*
G01*
X146625000Y-95100000D02*
X146625000Y-95725000D01*
G75*
G02*
X146575000Y-95775000I-50000J0D01*
G01*
X146325000Y-95775000D01*
G75*
G02*
X146275000Y-95725000I0J50000D01*
G01*
X146275000Y-95100000D01*
G75*
G02*
X146325000Y-95050000I50000J0D01*
G01*
X146575000Y-95050000D01*
G75*
G02*
X146625000Y-95100000I0J-50000D01*
G01*
G37*
G36*
G01*
X148125000Y-95875000D02*
X148125000Y-96500000D01*
G75*
G02*
X148075000Y-96550000I-50000J0D01*
G01*
X147825000Y-96550000D01*
G75*
G02*
X147775000Y-96500000I0J50000D01*
G01*
X147775000Y-95875000D01*
G75*
G02*
X147825000Y-95825000I50000J0D01*
G01*
X148075000Y-95825000D01*
G75*
G02*
X148125000Y-95875000I0J-50000D01*
G01*
G37*
G36*
G01*
X148625000Y-95875000D02*
X148625000Y-96500000D01*
G75*
G02*
X148575000Y-96550000I-50000J0D01*
G01*
X148325000Y-96550000D01*
G75*
G02*
X148275000Y-96500000I0J50000D01*
G01*
X148275000Y-95875000D01*
G75*
G02*
X148325000Y-95825000I50000J0D01*
G01*
X148575000Y-95825000D01*
G75*
G02*
X148625000Y-95875000I0J-50000D01*
G01*
G37*
G36*
G01*
X147125000Y-95100000D02*
X147125000Y-95725000D01*
G75*
G02*
X147075000Y-95775000I-50000J0D01*
G01*
X146825000Y-95775000D01*
G75*
G02*
X146775000Y-95725000I0J50000D01*
G01*
X146775000Y-95100000D01*
G75*
G02*
X146825000Y-95050000I50000J0D01*
G01*
X147075000Y-95050000D01*
G75*
G02*
X147125000Y-95100000I0J-50000D01*
G01*
G37*
G36*
G01*
X148625000Y-95100000D02*
X148625000Y-95725000D01*
G75*
G02*
X148575000Y-95775000I-50000J0D01*
G01*
X148325000Y-95775000D01*
G75*
G02*
X148275000Y-95725000I0J50000D01*
G01*
X148275000Y-95100000D01*
G75*
G02*
X148325000Y-95050000I50000J0D01*
G01*
X148575000Y-95050000D01*
G75*
G02*
X148625000Y-95100000I0J-50000D01*
G01*
G37*
G36*
G01*
X147725000Y-95100000D02*
X147725000Y-95800000D01*
G75*
G02*
X147675000Y-95850000I-50000J0D01*
G01*
X147225000Y-95850000D01*
G75*
G02*
X147175000Y-95800000I0J50000D01*
G01*
X147175000Y-95100000D01*
G75*
G02*
X147225000Y-95050000I50000J0D01*
G01*
X147675000Y-95050000D01*
G75*
G02*
X147725000Y-95100000I0J-50000D01*
G01*
G37*
G36*
G01*
X148125000Y-95100000D02*
X148125000Y-95725000D01*
G75*
G02*
X148075000Y-95775000I-50000J0D01*
G01*
X147825000Y-95775000D01*
G75*
G02*
X147775000Y-95725000I0J50000D01*
G01*
X147775000Y-95100000D01*
G75*
G02*
X147825000Y-95050000I50000J0D01*
G01*
X148075000Y-95050000D01*
G75*
G02*
X148125000Y-95100000I0J-50000D01*
G01*
G37*
%TD*%
%TO.C,J702*%
X144560000Y-98610000D03*
X147100000Y-98610000D03*
X149640000Y-98610000D03*
G36*
G01*
X151330000Y-97710000D02*
X153030000Y-97710000D01*
G75*
G02*
X153080000Y-97760000I0J-50000D01*
G01*
X153080000Y-99460000D01*
G75*
G02*
X153030000Y-99510000I-50000J0D01*
G01*
X151330000Y-99510000D01*
G75*
G02*
X151280000Y-99460000I0J50000D01*
G01*
X151280000Y-97760000D01*
G75*
G02*
X151330000Y-97710000I50000J0D01*
G01*
G37*
%TD*%
D14*
%TO.C,J303*%
X103124000Y-100457000D03*
D15*
X103124000Y-102997000D03*
%TD*%
D14*
%TO.C,J602*%
X108204000Y-100457000D03*
D15*
X108204000Y-102997000D03*
%TD*%
D13*
%TO.C,J207*%
X96520000Y-68580000D03*
X96520000Y-71120000D03*
X96520000Y-73660000D03*
X96520000Y-76200000D03*
X96520000Y-78740000D03*
X96520000Y-81280000D03*
X96520000Y-83820000D03*
%TD*%
%TO.C,J601*%
G36*
G01*
X123759000Y-108649888D02*
X123759000Y-111822112D01*
G75*
G02*
X123495112Y-112086000I-263888J0D01*
G01*
X122122888Y-112086000D01*
G75*
G02*
X121859000Y-111822112I0J263888D01*
G01*
X121859000Y-108649888D01*
G75*
G02*
X122122888Y-108386000I263888J0D01*
G01*
X123495112Y-108386000D01*
G75*
G02*
X123759000Y-108649888I0J-263888D01*
G01*
G37*
D16*
X118999000Y-110236000D03*
X115189000Y-110236000D03*
X111379000Y-110236000D03*
%TD*%
%TO.C,REF\u002A\u002A*%
G36*
G01*
X100500000Y-82330000D02*
X100500000Y-80230000D01*
G75*
G02*
X100550000Y-80180000I50000J0D01*
G01*
X102650000Y-80180000D01*
G75*
G02*
X102700000Y-80230000I0J-50000D01*
G01*
X102700000Y-82330000D01*
G75*
G02*
X102650000Y-82380000I-50000J0D01*
G01*
X100550000Y-82380000D01*
G75*
G02*
X100500000Y-82330000I0J50000D01*
G01*
G37*
%TD*%
%TO.C,REF\u002A\u002A*%
G36*
G01*
X103040000Y-82330000D02*
X103040000Y-80230000D01*
G75*
G02*
X103090000Y-80180000I50000J0D01*
G01*
X105190000Y-80180000D01*
G75*
G02*
X105240000Y-80230000I0J-50000D01*
G01*
X105240000Y-82330000D01*
G75*
G02*
X105190000Y-82380000I-50000J0D01*
G01*
X103090000Y-82380000D01*
G75*
G02*
X103040000Y-82330000I0J50000D01*
G01*
G37*
%TD*%
%TO.C,REF\u002A\u002A*%
G36*
G01*
X103040000Y-79790000D02*
X103040000Y-77690000D01*
G75*
G02*
X103090000Y-77640000I50000J0D01*
G01*
X105190000Y-77640000D01*
G75*
G02*
X105240000Y-77690000I0J-50000D01*
G01*
X105240000Y-79790000D01*
G75*
G02*
X105190000Y-79840000I-50000J0D01*
G01*
X103090000Y-79840000D01*
G75*
G02*
X103040000Y-79790000I0J50000D01*
G01*
G37*
%TD*%
%TO.C,REF\u002A\u002A*%
G36*
G01*
X103040000Y-74710000D02*
X103040000Y-72610000D01*
G75*
G02*
X103090000Y-72560000I50000J0D01*
G01*
X105190000Y-72560000D01*
G75*
G02*
X105240000Y-72610000I0J-50000D01*
G01*
X105240000Y-74710000D01*
G75*
G02*
X105190000Y-74760000I-50000J0D01*
G01*
X103090000Y-74760000D01*
G75*
G02*
X103040000Y-74710000I0J50000D01*
G01*
G37*
%TD*%
%TO.C,REF\u002A\u002A*%
G36*
G01*
X97960000Y-74710000D02*
X97960000Y-72610000D01*
G75*
G02*
X98010000Y-72560000I50000J0D01*
G01*
X100110000Y-72560000D01*
G75*
G02*
X100160000Y-72610000I0J-50000D01*
G01*
X100160000Y-74710000D01*
G75*
G02*
X100110000Y-74760000I-50000J0D01*
G01*
X98010000Y-74760000D01*
G75*
G02*
X97960000Y-74710000I0J50000D01*
G01*
G37*
%TD*%
%TO.C,REF\u002A\u002A*%
G36*
G01*
X100500000Y-74710000D02*
X100500000Y-72610000D01*
G75*
G02*
X100550000Y-72560000I50000J0D01*
G01*
X102650000Y-72560000D01*
G75*
G02*
X102700000Y-72610000I0J-50000D01*
G01*
X102700000Y-74710000D01*
G75*
G02*
X102650000Y-74760000I-50000J0D01*
G01*
X100550000Y-74760000D01*
G75*
G02*
X100500000Y-74710000I0J50000D01*
G01*
G37*
%TD*%
%TO.C,REF\u002A\u002A*%
G36*
G01*
X100500000Y-72170000D02*
X100500000Y-70070000D01*
G75*
G02*
X100550000Y-70020000I50000J0D01*
G01*
X102650000Y-70020000D01*
G75*
G02*
X102700000Y-70070000I0J-50000D01*
G01*
X102700000Y-72170000D01*
G75*
G02*
X102650000Y-72220000I-50000J0D01*
G01*
X100550000Y-72220000D01*
G75*
G02*
X100500000Y-72170000I0J50000D01*
G01*
G37*
%TD*%
%TO.C,REF\u002A\u002A*%
G36*
G01*
X100500000Y-79790000D02*
X100500000Y-77690000D01*
G75*
G02*
X100550000Y-77640000I50000J0D01*
G01*
X102650000Y-77640000D01*
G75*
G02*
X102700000Y-77690000I0J-50000D01*
G01*
X102700000Y-79790000D01*
G75*
G02*
X102650000Y-79840000I-50000J0D01*
G01*
X100550000Y-79840000D01*
G75*
G02*
X100500000Y-79790000I0J50000D01*
G01*
G37*
%TD*%
%TO.C,REF\u002A\u002A*%
G36*
G01*
X100500000Y-77250000D02*
X100500000Y-75150000D01*
G75*
G02*
X100550000Y-75100000I50000J0D01*
G01*
X102650000Y-75100000D01*
G75*
G02*
X102700000Y-75150000I0J-50000D01*
G01*
X102700000Y-77250000D01*
G75*
G02*
X102650000Y-77300000I-50000J0D01*
G01*
X100550000Y-77300000D01*
G75*
G02*
X100500000Y-77250000I0J50000D01*
G01*
G37*
%TD*%
%TO.C,REF\u002A\u002A*%
G36*
G01*
X97960000Y-79790000D02*
X97960000Y-77690000D01*
G75*
G02*
X98010000Y-77640000I50000J0D01*
G01*
X100110000Y-77640000D01*
G75*
G02*
X100160000Y-77690000I0J-50000D01*
G01*
X100160000Y-79790000D01*
G75*
G02*
X100110000Y-79840000I-50000J0D01*
G01*
X98010000Y-79840000D01*
G75*
G02*
X97960000Y-79790000I0J50000D01*
G01*
G37*
%TD*%
%TO.C,REF\u002A\u002A*%
G36*
G01*
X97960000Y-77250000D02*
X97960000Y-75150000D01*
G75*
G02*
X98010000Y-75100000I50000J0D01*
G01*
X100110000Y-75100000D01*
G75*
G02*
X100160000Y-75150000I0J-50000D01*
G01*
X100160000Y-77250000D01*
G75*
G02*
X100110000Y-77300000I-50000J0D01*
G01*
X98010000Y-77300000D01*
G75*
G02*
X97960000Y-77250000I0J50000D01*
G01*
G37*
%TD*%
%TO.C,REF\u002A\u002A*%
G36*
G01*
X97960000Y-82330000D02*
X97960000Y-80230000D01*
G75*
G02*
X98010000Y-80180000I50000J0D01*
G01*
X100110000Y-80180000D01*
G75*
G02*
X100160000Y-80230000I0J-50000D01*
G01*
X100160000Y-82330000D01*
G75*
G02*
X100110000Y-82380000I-50000J0D01*
G01*
X98010000Y-82380000D01*
G75*
G02*
X97960000Y-82330000I0J50000D01*
G01*
G37*
%TD*%
%TO.C,REF\u002A\u002A*%
G36*
G01*
X97960000Y-72170000D02*
X97960000Y-70070000D01*
G75*
G02*
X98010000Y-70020000I50000J0D01*
G01*
X100110000Y-70020000D01*
G75*
G02*
X100160000Y-70070000I0J-50000D01*
G01*
X100160000Y-72170000D01*
G75*
G02*
X100110000Y-72220000I-50000J0D01*
G01*
X98010000Y-72220000D01*
G75*
G02*
X97960000Y-72170000I0J50000D01*
G01*
G37*
%TD*%
%TO.C,REF\u002A\u002A*%
G36*
G01*
X103040000Y-77250000D02*
X103040000Y-75150000D01*
G75*
G02*
X103090000Y-75100000I50000J0D01*
G01*
X105190000Y-75100000D01*
G75*
G02*
X105240000Y-75150000I0J-50000D01*
G01*
X105240000Y-77250000D01*
G75*
G02*
X105190000Y-77300000I-50000J0D01*
G01*
X103090000Y-77300000D01*
G75*
G02*
X103040000Y-77250000I0J50000D01*
G01*
G37*
%TD*%
%TO.C,REF\u002A\u002A*%
G36*
G01*
X103040000Y-72170000D02*
X103040000Y-70070000D01*
G75*
G02*
X103090000Y-70020000I50000J0D01*
G01*
X105190000Y-70020000D01*
G75*
G02*
X105240000Y-70070000I0J-50000D01*
G01*
X105240000Y-72170000D01*
G75*
G02*
X105190000Y-72220000I-50000J0D01*
G01*
X103090000Y-72220000D01*
G75*
G02*
X103040000Y-72170000I0J50000D01*
G01*
G37*
%TD*%
%TO.C,REF\u002A\u002A*%
G36*
G01*
X97960000Y-84870000D02*
X97960000Y-82770000D01*
G75*
G02*
X98010000Y-82720000I50000J0D01*
G01*
X100110000Y-82720000D01*
G75*
G02*
X100160000Y-82770000I0J-50000D01*
G01*
X100160000Y-84870000D01*
G75*
G02*
X100110000Y-84920000I-50000J0D01*
G01*
X98010000Y-84920000D01*
G75*
G02*
X97960000Y-84870000I0J50000D01*
G01*
G37*
%TD*%
%TO.C,REF\u002A\u002A*%
G36*
G01*
X103040000Y-84870000D02*
X103040000Y-82770000D01*
G75*
G02*
X103090000Y-82720000I50000J0D01*
G01*
X105190000Y-82720000D01*
G75*
G02*
X105240000Y-82770000I0J-50000D01*
G01*
X105240000Y-84870000D01*
G75*
G02*
X105190000Y-84920000I-50000J0D01*
G01*
X103090000Y-84920000D01*
G75*
G02*
X103040000Y-84870000I0J50000D01*
G01*
G37*
%TD*%
%TO.C,REF\u002A\u002A*%
G36*
G01*
X100500000Y-84870000D02*
X100500000Y-82770000D01*
G75*
G02*
X100550000Y-82720000I50000J0D01*
G01*
X102650000Y-82720000D01*
G75*
G02*
X102700000Y-82770000I0J-50000D01*
G01*
X102700000Y-84870000D01*
G75*
G02*
X102650000Y-84920000I-50000J0D01*
G01*
X100550000Y-84920000D01*
G75*
G02*
X100500000Y-84870000I0J50000D01*
G01*
G37*
%TD*%
%TO.C,REF\u002A\u002A*%
G36*
G01*
X103040000Y-69630000D02*
X103040000Y-67530000D01*
G75*
G02*
X103090000Y-67480000I50000J0D01*
G01*
X105190000Y-67480000D01*
G75*
G02*
X105240000Y-67530000I0J-50000D01*
G01*
X105240000Y-69630000D01*
G75*
G02*
X105190000Y-69680000I-50000J0D01*
G01*
X103090000Y-69680000D01*
G75*
G02*
X103040000Y-69630000I0J50000D01*
G01*
G37*
%TD*%
%TO.C,REF\u002A\u002A*%
G36*
G01*
X97960000Y-69630000D02*
X97960000Y-67530000D01*
G75*
G02*
X98010000Y-67480000I50000J0D01*
G01*
X100110000Y-67480000D01*
G75*
G02*
X100160000Y-67530000I0J-50000D01*
G01*
X100160000Y-69630000D01*
G75*
G02*
X100110000Y-69680000I-50000J0D01*
G01*
X98010000Y-69680000D01*
G75*
G02*
X97960000Y-69630000I0J50000D01*
G01*
G37*
%TD*%
%TO.C,REF\u002A\u002A*%
G36*
G01*
X100500000Y-69630000D02*
X100500000Y-67530000D01*
G75*
G02*
X100550000Y-67480000I50000J0D01*
G01*
X102650000Y-67480000D01*
G75*
G02*
X102700000Y-67530000I0J-50000D01*
G01*
X102700000Y-69630000D01*
G75*
G02*
X102650000Y-69680000I-50000J0D01*
G01*
X100550000Y-69680000D01*
G75*
G02*
X100500000Y-69630000I0J50000D01*
G01*
G37*
%TD*%
D13*
%TO.C,J206*%
X90875000Y-68580000D03*
X90875000Y-71120000D03*
X90875000Y-73660000D03*
X90875000Y-76200000D03*
X90875000Y-78740000D03*
X90875000Y-81280000D03*
X90875000Y-83820000D03*
G36*
G01*
X91775000Y-85510000D02*
X91775000Y-87210000D01*
G75*
G02*
X91725000Y-87260000I-50000J0D01*
G01*
X90025000Y-87260000D01*
G75*
G02*
X89975000Y-87210000I0J50000D01*
G01*
X89975000Y-85510000D01*
G75*
G02*
X90025000Y-85460000I50000J0D01*
G01*
X91725000Y-85460000D01*
G75*
G02*
X91775000Y-85510000I0J-50000D01*
G01*
G37*
%TD*%
%TO.C,J302*%
X90825000Y-94315000D03*
G36*
G01*
X89925000Y-92625000D02*
X89925000Y-90925000D01*
G75*
G02*
X89975000Y-90875000I50000J0D01*
G01*
X91675000Y-90875000D01*
G75*
G02*
X91725000Y-90925000I0J-50000D01*
G01*
X91725000Y-92625000D01*
G75*
G02*
X91675000Y-92675000I-50000J0D01*
G01*
X89975000Y-92675000D01*
G75*
G02*
X89925000Y-92625000I0J50000D01*
G01*
G37*
%TD*%
%TO.C,U902*%
G36*
G01*
X134541000Y-95846000D02*
X134191000Y-95846000D01*
G75*
G02*
X134016000Y-95671000I0J175000D01*
G01*
X134016000Y-94296000D01*
G75*
G02*
X134191000Y-94121000I175000J0D01*
G01*
X134541000Y-94121000D01*
G75*
G02*
X134716000Y-94296000I0J-175000D01*
G01*
X134716000Y-95671000D01*
G75*
G02*
X134541000Y-95846000I-175000J0D01*
G01*
G37*
G36*
G01*
X135811000Y-95846000D02*
X135461000Y-95846000D01*
G75*
G02*
X135286000Y-95671000I0J175000D01*
G01*
X135286000Y-94296000D01*
G75*
G02*
X135461000Y-94121000I175000J0D01*
G01*
X135811000Y-94121000D01*
G75*
G02*
X135986000Y-94296000I0J-175000D01*
G01*
X135986000Y-95671000D01*
G75*
G02*
X135811000Y-95846000I-175000J0D01*
G01*
G37*
G36*
G01*
X135811000Y-102221000D02*
X135461000Y-102221000D01*
G75*
G02*
X135286000Y-102046000I0J175000D01*
G01*
X135286000Y-100671000D01*
G75*
G02*
X135461000Y-100496000I175000J0D01*
G01*
X135811000Y-100496000D01*
G75*
G02*
X135986000Y-100671000I0J-175000D01*
G01*
X135986000Y-102046000D01*
G75*
G02*
X135811000Y-102221000I-175000J0D01*
G01*
G37*
G36*
G01*
X134541000Y-102221000D02*
X134191000Y-102221000D01*
G75*
G02*
X134016000Y-102046000I0J175000D01*
G01*
X134016000Y-100671000D01*
G75*
G02*
X134191000Y-100496000I175000J0D01*
G01*
X134541000Y-100496000D01*
G75*
G02*
X134716000Y-100671000I0J-175000D01*
G01*
X134716000Y-102046000D01*
G75*
G02*
X134541000Y-102221000I-175000J0D01*
G01*
G37*
%TD*%
%TO.C,U901*%
G36*
G01*
X138763000Y-100496000D02*
X139113000Y-100496000D01*
G75*
G02*
X139288000Y-100671000I0J-175000D01*
G01*
X139288000Y-102046000D01*
G75*
G02*
X139113000Y-102221000I-175000J0D01*
G01*
X138763000Y-102221000D01*
G75*
G02*
X138588000Y-102046000I0J175000D01*
G01*
X138588000Y-100671000D01*
G75*
G02*
X138763000Y-100496000I175000J0D01*
G01*
G37*
G36*
G01*
X137493000Y-100496000D02*
X137843000Y-100496000D01*
G75*
G02*
X138018000Y-100671000I0J-175000D01*
G01*
X138018000Y-102046000D01*
G75*
G02*
X137843000Y-102221000I-175000J0D01*
G01*
X137493000Y-102221000D01*
G75*
G02*
X137318000Y-102046000I0J175000D01*
G01*
X137318000Y-100671000D01*
G75*
G02*
X137493000Y-100496000I175000J0D01*
G01*
G37*
G36*
G01*
X137493000Y-94121000D02*
X137843000Y-94121000D01*
G75*
G02*
X138018000Y-94296000I0J-175000D01*
G01*
X138018000Y-95671000D01*
G75*
G02*
X137843000Y-95846000I-175000J0D01*
G01*
X137493000Y-95846000D01*
G75*
G02*
X137318000Y-95671000I0J175000D01*
G01*
X137318000Y-94296000D01*
G75*
G02*
X137493000Y-94121000I175000J0D01*
G01*
G37*
G36*
G01*
X138763000Y-94121000D02*
X139113000Y-94121000D01*
G75*
G02*
X139288000Y-94296000I0J-175000D01*
G01*
X139288000Y-95671000D01*
G75*
G02*
X139113000Y-95846000I-175000J0D01*
G01*
X138763000Y-95846000D01*
G75*
G02*
X138588000Y-95671000I0J175000D01*
G01*
X138588000Y-94296000D01*
G75*
G02*
X138763000Y-94121000I175000J0D01*
G01*
G37*
%TD*%
%TO.C,R904*%
G36*
G01*
X134012250Y-106761000D02*
X133449750Y-106761000D01*
G75*
G02*
X133206000Y-106517250I0J243750D01*
G01*
X133206000Y-106029750D01*
G75*
G02*
X133449750Y-105786000I243750J0D01*
G01*
X134012250Y-105786000D01*
G75*
G02*
X134256000Y-106029750I0J-243750D01*
G01*
X134256000Y-106517250D01*
G75*
G02*
X134012250Y-106761000I-243750J0D01*
G01*
G37*
G36*
G01*
X134012250Y-108336000D02*
X133449750Y-108336000D01*
G75*
G02*
X133206000Y-108092250I0J243750D01*
G01*
X133206000Y-107604750D01*
G75*
G02*
X133449750Y-107361000I243750J0D01*
G01*
X134012250Y-107361000D01*
G75*
G02*
X134256000Y-107604750I0J-243750D01*
G01*
X134256000Y-108092250D01*
G75*
G02*
X134012250Y-108336000I-243750J0D01*
G01*
G37*
%TD*%
%TO.C,R903*%
G36*
G01*
X140889000Y-105945250D02*
X140889000Y-105382750D01*
G75*
G02*
X141132750Y-105139000I243750J0D01*
G01*
X141620250Y-105139000D01*
G75*
G02*
X141864000Y-105382750I0J-243750D01*
G01*
X141864000Y-105945250D01*
G75*
G02*
X141620250Y-106189000I-243750J0D01*
G01*
X141132750Y-106189000D01*
G75*
G02*
X140889000Y-105945250I0J243750D01*
G01*
G37*
G36*
G01*
X139314000Y-105945250D02*
X139314000Y-105382750D01*
G75*
G02*
X139557750Y-105139000I243750J0D01*
G01*
X140045250Y-105139000D01*
G75*
G02*
X140289000Y-105382750I0J-243750D01*
G01*
X140289000Y-105945250D01*
G75*
G02*
X140045250Y-106189000I-243750J0D01*
G01*
X139557750Y-106189000D01*
G75*
G02*
X139314000Y-105945250I0J243750D01*
G01*
G37*
%TD*%
%TO.C,D902*%
G36*
G01*
X135293000Y-104436000D02*
X135293000Y-103336000D01*
G75*
G02*
X135343000Y-103286000I50000J0D01*
G01*
X136443000Y-103286000D01*
G75*
G02*
X136493000Y-103336000I0J-50000D01*
G01*
X136493000Y-104436000D01*
G75*
G02*
X136443000Y-104486000I-50000J0D01*
G01*
X135343000Y-104486000D01*
G75*
G02*
X135293000Y-104436000I0J50000D01*
G01*
G37*
G36*
G01*
X132493000Y-104436000D02*
X132493000Y-103336000D01*
G75*
G02*
X132543000Y-103286000I50000J0D01*
G01*
X133643000Y-103286000D01*
G75*
G02*
X133693000Y-103336000I0J-50000D01*
G01*
X133693000Y-104436000D01*
G75*
G02*
X133643000Y-104486000I-50000J0D01*
G01*
X132543000Y-104486000D01*
G75*
G02*
X132493000Y-104436000I0J50000D01*
G01*
G37*
%TD*%
%TO.C,D901*%
G36*
G01*
X137607000Y-108578000D02*
X137607000Y-107478000D01*
G75*
G02*
X137657000Y-107428000I50000J0D01*
G01*
X138757000Y-107428000D01*
G75*
G02*
X138807000Y-107478000I0J-50000D01*
G01*
X138807000Y-108578000D01*
G75*
G02*
X138757000Y-108628000I-50000J0D01*
G01*
X137657000Y-108628000D01*
G75*
G02*
X137607000Y-108578000I0J50000D01*
G01*
G37*
G36*
G01*
X134807000Y-108578000D02*
X134807000Y-107478000D01*
G75*
G02*
X134857000Y-107428000I50000J0D01*
G01*
X135957000Y-107428000D01*
G75*
G02*
X136007000Y-107478000I0J-50000D01*
G01*
X136007000Y-108578000D01*
G75*
G02*
X135957000Y-108628000I-50000J0D01*
G01*
X134857000Y-108628000D01*
G75*
G02*
X134807000Y-108578000I0J50000D01*
G01*
G37*
%TD*%
%TO.C,R902*%
G36*
G01*
X130764000Y-93317750D02*
X130764000Y-93880250D01*
G75*
G02*
X130520250Y-94124000I-243750J0D01*
G01*
X130032750Y-94124000D01*
G75*
G02*
X129789000Y-93880250I0J243750D01*
G01*
X129789000Y-93317750D01*
G75*
G02*
X130032750Y-93074000I243750J0D01*
G01*
X130520250Y-93074000D01*
G75*
G02*
X130764000Y-93317750I0J-243750D01*
G01*
G37*
G36*
G01*
X132339000Y-93317750D02*
X132339000Y-93880250D01*
G75*
G02*
X132095250Y-94124000I-243750J0D01*
G01*
X131607750Y-94124000D01*
G75*
G02*
X131364000Y-93880250I0J243750D01*
G01*
X131364000Y-93317750D01*
G75*
G02*
X131607750Y-93074000I243750J0D01*
G01*
X132095250Y-93074000D01*
G75*
G02*
X132339000Y-93317750I0J-243750D01*
G01*
G37*
%TD*%
%TO.C,C1028*%
G36*
G01*
X94544000Y-65757500D02*
X94544000Y-66152500D01*
G75*
G02*
X94371500Y-66325000I-172500J0D01*
G01*
X94026500Y-66325000D01*
G75*
G02*
X93854000Y-66152500I0J172500D01*
G01*
X93854000Y-65757500D01*
G75*
G02*
X94026500Y-65585000I172500J0D01*
G01*
X94371500Y-65585000D01*
G75*
G02*
X94544000Y-65757500I0J-172500D01*
G01*
G37*
G36*
G01*
X95514000Y-65757500D02*
X95514000Y-66152500D01*
G75*
G02*
X95341500Y-66325000I-172500J0D01*
G01*
X94996500Y-66325000D01*
G75*
G02*
X94824000Y-66152500I0J172500D01*
G01*
X94824000Y-65757500D01*
G75*
G02*
X94996500Y-65585000I172500J0D01*
G01*
X95341500Y-65585000D01*
G75*
G02*
X95514000Y-65757500I0J-172500D01*
G01*
G37*
%TD*%
%TO.C,C1027*%
G36*
G01*
X93404500Y-68575000D02*
X93009500Y-68575000D01*
G75*
G02*
X92837000Y-68402500I0J172500D01*
G01*
X92837000Y-68057500D01*
G75*
G02*
X93009500Y-67885000I172500J0D01*
G01*
X93404500Y-67885000D01*
G75*
G02*
X93577000Y-68057500I0J-172500D01*
G01*
X93577000Y-68402500D01*
G75*
G02*
X93404500Y-68575000I-172500J0D01*
G01*
G37*
G36*
G01*
X93404500Y-69545000D02*
X93009500Y-69545000D01*
G75*
G02*
X92837000Y-69372500I0J172500D01*
G01*
X92837000Y-69027500D01*
G75*
G02*
X93009500Y-68855000I172500J0D01*
G01*
X93404500Y-68855000D01*
G75*
G02*
X93577000Y-69027500I0J-172500D01*
G01*
X93577000Y-69372500D01*
G75*
G02*
X93404500Y-69545000I-172500J0D01*
G01*
G37*
%TD*%
%TO.C,C1026*%
G36*
G01*
X100530000Y-102905500D02*
X100925000Y-102905500D01*
G75*
G02*
X101097500Y-103078000I0J-172500D01*
G01*
X101097500Y-103423000D01*
G75*
G02*
X100925000Y-103595500I-172500J0D01*
G01*
X100530000Y-103595500D01*
G75*
G02*
X100357500Y-103423000I0J172500D01*
G01*
X100357500Y-103078000D01*
G75*
G02*
X100530000Y-102905500I172500J0D01*
G01*
G37*
G36*
G01*
X100530000Y-101935500D02*
X100925000Y-101935500D01*
G75*
G02*
X101097500Y-102108000I0J-172500D01*
G01*
X101097500Y-102453000D01*
G75*
G02*
X100925000Y-102625500I-172500J0D01*
G01*
X100530000Y-102625500D01*
G75*
G02*
X100357500Y-102453000I0J172500D01*
G01*
X100357500Y-102108000D01*
G75*
G02*
X100530000Y-101935500I172500J0D01*
G01*
G37*
%TD*%
%TO.C,C1025*%
G36*
G01*
X114852500Y-58990000D02*
X115247500Y-58990000D01*
G75*
G02*
X115420000Y-59162500I0J-172500D01*
G01*
X115420000Y-59507500D01*
G75*
G02*
X115247500Y-59680000I-172500J0D01*
G01*
X114852500Y-59680000D01*
G75*
G02*
X114680000Y-59507500I0J172500D01*
G01*
X114680000Y-59162500D01*
G75*
G02*
X114852500Y-58990000I172500J0D01*
G01*
G37*
G36*
G01*
X114852500Y-58020000D02*
X115247500Y-58020000D01*
G75*
G02*
X115420000Y-58192500I0J-172500D01*
G01*
X115420000Y-58537500D01*
G75*
G02*
X115247500Y-58710000I-172500J0D01*
G01*
X114852500Y-58710000D01*
G75*
G02*
X114680000Y-58537500I0J172500D01*
G01*
X114680000Y-58192500D01*
G75*
G02*
X114852500Y-58020000I172500J0D01*
G01*
G37*
%TD*%
%TO.C,C1024*%
G36*
G01*
X172028500Y-92951000D02*
X171633500Y-92951000D01*
G75*
G02*
X171461000Y-92778500I0J172500D01*
G01*
X171461000Y-92433500D01*
G75*
G02*
X171633500Y-92261000I172500J0D01*
G01*
X172028500Y-92261000D01*
G75*
G02*
X172201000Y-92433500I0J-172500D01*
G01*
X172201000Y-92778500D01*
G75*
G02*
X172028500Y-92951000I-172500J0D01*
G01*
G37*
G36*
G01*
X172028500Y-93921000D02*
X171633500Y-93921000D01*
G75*
G02*
X171461000Y-93748500I0J172500D01*
G01*
X171461000Y-93403500D01*
G75*
G02*
X171633500Y-93231000I172500J0D01*
G01*
X172028500Y-93231000D01*
G75*
G02*
X172201000Y-93403500I0J-172500D01*
G01*
X172201000Y-93748500D01*
G75*
G02*
X172028500Y-93921000I-172500J0D01*
G01*
G37*
%TD*%
%TO.C,C1023*%
G36*
G01*
X126098000Y-91560000D02*
X126098000Y-91955000D01*
G75*
G02*
X125925500Y-92127500I-172500J0D01*
G01*
X125580500Y-92127500D01*
G75*
G02*
X125408000Y-91955000I0J172500D01*
G01*
X125408000Y-91560000D01*
G75*
G02*
X125580500Y-91387500I172500J0D01*
G01*
X125925500Y-91387500D01*
G75*
G02*
X126098000Y-91560000I0J-172500D01*
G01*
G37*
G36*
G01*
X127068000Y-91560000D02*
X127068000Y-91955000D01*
G75*
G02*
X126895500Y-92127500I-172500J0D01*
G01*
X126550500Y-92127500D01*
G75*
G02*
X126378000Y-91955000I0J172500D01*
G01*
X126378000Y-91560000D01*
G75*
G02*
X126550500Y-91387500I172500J0D01*
G01*
X126895500Y-91387500D01*
G75*
G02*
X127068000Y-91560000I0J-172500D01*
G01*
G37*
%TD*%
%TO.C,C1021*%
G36*
G01*
X96307000Y-86358500D02*
X96307000Y-85963500D01*
G75*
G02*
X96479500Y-85791000I172500J0D01*
G01*
X96824500Y-85791000D01*
G75*
G02*
X96997000Y-85963500I0J-172500D01*
G01*
X96997000Y-86358500D01*
G75*
G02*
X96824500Y-86531000I-172500J0D01*
G01*
X96479500Y-86531000D01*
G75*
G02*
X96307000Y-86358500I0J172500D01*
G01*
G37*
G36*
G01*
X95337000Y-86358500D02*
X95337000Y-85963500D01*
G75*
G02*
X95509500Y-85791000I172500J0D01*
G01*
X95854500Y-85791000D01*
G75*
G02*
X96027000Y-85963500I0J-172500D01*
G01*
X96027000Y-86358500D01*
G75*
G02*
X95854500Y-86531000I-172500J0D01*
G01*
X95509500Y-86531000D01*
G75*
G02*
X95337000Y-86358500I0J172500D01*
G01*
G37*
%TD*%
D17*
%TO.C,H1002*%
X156250000Y-109000000D03*
%TD*%
%TO.C,H1001*%
X111750000Y-63000000D03*
%TD*%
%TO.C,C1020*%
G36*
G01*
X166340000Y-100697500D02*
X166340000Y-100302500D01*
G75*
G02*
X166512500Y-100130000I172500J0D01*
G01*
X166857500Y-100130000D01*
G75*
G02*
X167030000Y-100302500I0J-172500D01*
G01*
X167030000Y-100697500D01*
G75*
G02*
X166857500Y-100870000I-172500J0D01*
G01*
X166512500Y-100870000D01*
G75*
G02*
X166340000Y-100697500I0J172500D01*
G01*
G37*
G36*
G01*
X165370000Y-100697500D02*
X165370000Y-100302500D01*
G75*
G02*
X165542500Y-100130000I172500J0D01*
G01*
X165887500Y-100130000D01*
G75*
G02*
X166060000Y-100302500I0J-172500D01*
G01*
X166060000Y-100697500D01*
G75*
G02*
X165887500Y-100870000I-172500J0D01*
G01*
X165542500Y-100870000D01*
G75*
G02*
X165370000Y-100697500I0J172500D01*
G01*
G37*
%TD*%
%TO.C,C1019*%
G36*
G01*
X93451500Y-81245000D02*
X93056500Y-81245000D01*
G75*
G02*
X92884000Y-81072500I0J172500D01*
G01*
X92884000Y-80727500D01*
G75*
G02*
X93056500Y-80555000I172500J0D01*
G01*
X93451500Y-80555000D01*
G75*
G02*
X93624000Y-80727500I0J-172500D01*
G01*
X93624000Y-81072500D01*
G75*
G02*
X93451500Y-81245000I-172500J0D01*
G01*
G37*
G36*
G01*
X93451500Y-82215000D02*
X93056500Y-82215000D01*
G75*
G02*
X92884000Y-82042500I0J172500D01*
G01*
X92884000Y-81697500D01*
G75*
G02*
X93056500Y-81525000I172500J0D01*
G01*
X93451500Y-81525000D01*
G75*
G02*
X93624000Y-81697500I0J-172500D01*
G01*
X93624000Y-82042500D01*
G75*
G02*
X93451500Y-82215000I-172500J0D01*
G01*
G37*
%TD*%
%TO.C,C1018*%
G36*
G01*
X93426500Y-73505000D02*
X93031500Y-73505000D01*
G75*
G02*
X92859000Y-73332500I0J172500D01*
G01*
X92859000Y-72987500D01*
G75*
G02*
X93031500Y-72815000I172500J0D01*
G01*
X93426500Y-72815000D01*
G75*
G02*
X93599000Y-72987500I0J-172500D01*
G01*
X93599000Y-73332500D01*
G75*
G02*
X93426500Y-73505000I-172500J0D01*
G01*
G37*
G36*
G01*
X93426500Y-74475000D02*
X93031500Y-74475000D01*
G75*
G02*
X92859000Y-74302500I0J172500D01*
G01*
X92859000Y-73957500D01*
G75*
G02*
X93031500Y-73785000I172500J0D01*
G01*
X93426500Y-73785000D01*
G75*
G02*
X93599000Y-73957500I0J-172500D01*
G01*
X93599000Y-74302500D01*
G75*
G02*
X93426500Y-74475000I-172500J0D01*
G01*
G37*
%TD*%
%TO.C,C1017*%
G36*
G01*
X104135000Y-63648500D02*
X104135000Y-64043500D01*
G75*
G02*
X103962500Y-64216000I-172500J0D01*
G01*
X103617500Y-64216000D01*
G75*
G02*
X103445000Y-64043500I0J172500D01*
G01*
X103445000Y-63648500D01*
G75*
G02*
X103617500Y-63476000I172500J0D01*
G01*
X103962500Y-63476000D01*
G75*
G02*
X104135000Y-63648500I0J-172500D01*
G01*
G37*
G36*
G01*
X105105000Y-63648500D02*
X105105000Y-64043500D01*
G75*
G02*
X104932500Y-64216000I-172500J0D01*
G01*
X104587500Y-64216000D01*
G75*
G02*
X104415000Y-64043500I0J172500D01*
G01*
X104415000Y-63648500D01*
G75*
G02*
X104587500Y-63476000I172500J0D01*
G01*
X104932500Y-63476000D01*
G75*
G02*
X105105000Y-63648500I0J-172500D01*
G01*
G37*
%TD*%
%TO.C,C1016*%
G36*
G01*
X151335000Y-95836500D02*
X151335000Y-95441500D01*
G75*
G02*
X151507500Y-95269000I172500J0D01*
G01*
X151852500Y-95269000D01*
G75*
G02*
X152025000Y-95441500I0J-172500D01*
G01*
X152025000Y-95836500D01*
G75*
G02*
X151852500Y-96009000I-172500J0D01*
G01*
X151507500Y-96009000D01*
G75*
G02*
X151335000Y-95836500I0J172500D01*
G01*
G37*
G36*
G01*
X150365000Y-95836500D02*
X150365000Y-95441500D01*
G75*
G02*
X150537500Y-95269000I172500J0D01*
G01*
X150882500Y-95269000D01*
G75*
G02*
X151055000Y-95441500I0J-172500D01*
G01*
X151055000Y-95836500D01*
G75*
G02*
X150882500Y-96009000I-172500J0D01*
G01*
X150537500Y-96009000D01*
G75*
G02*
X150365000Y-95836500I0J172500D01*
G01*
G37*
%TD*%
%TO.C,C1015*%
G36*
G01*
X154485000Y-63957500D02*
X154485000Y-63562500D01*
G75*
G02*
X154657500Y-63390000I172500J0D01*
G01*
X155002500Y-63390000D01*
G75*
G02*
X155175000Y-63562500I0J-172500D01*
G01*
X155175000Y-63957500D01*
G75*
G02*
X155002500Y-64130000I-172500J0D01*
G01*
X154657500Y-64130000D01*
G75*
G02*
X154485000Y-63957500I0J172500D01*
G01*
G37*
G36*
G01*
X153515000Y-63957500D02*
X153515000Y-63562500D01*
G75*
G02*
X153687500Y-63390000I172500J0D01*
G01*
X154032500Y-63390000D01*
G75*
G02*
X154205000Y-63562500I0J-172500D01*
G01*
X154205000Y-63957500D01*
G75*
G02*
X154032500Y-64130000I-172500J0D01*
G01*
X153687500Y-64130000D01*
G75*
G02*
X153515000Y-63957500I0J172500D01*
G01*
G37*
%TD*%
%TO.C,C1014*%
G36*
G01*
X169862500Y-64400000D02*
X170257500Y-64400000D01*
G75*
G02*
X170430000Y-64572500I0J-172500D01*
G01*
X170430000Y-64917500D01*
G75*
G02*
X170257500Y-65090000I-172500J0D01*
G01*
X169862500Y-65090000D01*
G75*
G02*
X169690000Y-64917500I0J172500D01*
G01*
X169690000Y-64572500D01*
G75*
G02*
X169862500Y-64400000I172500J0D01*
G01*
G37*
G36*
G01*
X169862500Y-63430000D02*
X170257500Y-63430000D01*
G75*
G02*
X170430000Y-63602500I0J-172500D01*
G01*
X170430000Y-63947500D01*
G75*
G02*
X170257500Y-64120000I-172500J0D01*
G01*
X169862500Y-64120000D01*
G75*
G02*
X169690000Y-63947500I0J172500D01*
G01*
X169690000Y-63602500D01*
G75*
G02*
X169862500Y-63430000I172500J0D01*
G01*
G37*
%TD*%
%TO.C,C1013*%
G36*
G01*
X121357500Y-64300000D02*
X120962500Y-64300000D01*
G75*
G02*
X120790000Y-64127500I0J172500D01*
G01*
X120790000Y-63782500D01*
G75*
G02*
X120962500Y-63610000I172500J0D01*
G01*
X121357500Y-63610000D01*
G75*
G02*
X121530000Y-63782500I0J-172500D01*
G01*
X121530000Y-64127500D01*
G75*
G02*
X121357500Y-64300000I-172500J0D01*
G01*
G37*
G36*
G01*
X121357500Y-65270000D02*
X120962500Y-65270000D01*
G75*
G02*
X120790000Y-65097500I0J172500D01*
G01*
X120790000Y-64752500D01*
G75*
G02*
X120962500Y-64580000I172500J0D01*
G01*
X121357500Y-64580000D01*
G75*
G02*
X121530000Y-64752500I0J-172500D01*
G01*
X121530000Y-65097500D01*
G75*
G02*
X121357500Y-65270000I-172500J0D01*
G01*
G37*
%TD*%
%TO.C,C1012*%
G36*
G01*
X162070000Y-63997500D02*
X162070000Y-63602500D01*
G75*
G02*
X162242500Y-63430000I172500J0D01*
G01*
X162587500Y-63430000D01*
G75*
G02*
X162760000Y-63602500I0J-172500D01*
G01*
X162760000Y-63997500D01*
G75*
G02*
X162587500Y-64170000I-172500J0D01*
G01*
X162242500Y-64170000D01*
G75*
G02*
X162070000Y-63997500I0J172500D01*
G01*
G37*
G36*
G01*
X161100000Y-63997500D02*
X161100000Y-63602500D01*
G75*
G02*
X161272500Y-63430000I172500J0D01*
G01*
X161617500Y-63430000D01*
G75*
G02*
X161790000Y-63602500I0J-172500D01*
G01*
X161790000Y-63997500D01*
G75*
G02*
X161617500Y-64170000I-172500J0D01*
G01*
X161272500Y-64170000D01*
G75*
G02*
X161100000Y-63997500I0J172500D01*
G01*
G37*
%TD*%
%TO.C,C1011*%
G36*
G01*
X149162500Y-77770000D02*
X149557500Y-77770000D01*
G75*
G02*
X149730000Y-77942500I0J-172500D01*
G01*
X149730000Y-78287500D01*
G75*
G02*
X149557500Y-78460000I-172500J0D01*
G01*
X149162500Y-78460000D01*
G75*
G02*
X148990000Y-78287500I0J172500D01*
G01*
X148990000Y-77942500D01*
G75*
G02*
X149162500Y-77770000I172500J0D01*
G01*
G37*
G36*
G01*
X149162500Y-76800000D02*
X149557500Y-76800000D01*
G75*
G02*
X149730000Y-76972500I0J-172500D01*
G01*
X149730000Y-77317500D01*
G75*
G02*
X149557500Y-77490000I-172500J0D01*
G01*
X149162500Y-77490000D01*
G75*
G02*
X148990000Y-77317500I0J172500D01*
G01*
X148990000Y-76972500D01*
G75*
G02*
X149162500Y-76800000I172500J0D01*
G01*
G37*
%TD*%
%TO.C,C1010*%
G36*
G01*
X149242500Y-70850000D02*
X149637500Y-70850000D01*
G75*
G02*
X149810000Y-71022500I0J-172500D01*
G01*
X149810000Y-71367500D01*
G75*
G02*
X149637500Y-71540000I-172500J0D01*
G01*
X149242500Y-71540000D01*
G75*
G02*
X149070000Y-71367500I0J172500D01*
G01*
X149070000Y-71022500D01*
G75*
G02*
X149242500Y-70850000I172500J0D01*
G01*
G37*
G36*
G01*
X149242500Y-69880000D02*
X149637500Y-69880000D01*
G75*
G02*
X149810000Y-70052500I0J-172500D01*
G01*
X149810000Y-70397500D01*
G75*
G02*
X149637500Y-70570000I-172500J0D01*
G01*
X149242500Y-70570000D01*
G75*
G02*
X149070000Y-70397500I0J172500D01*
G01*
X149070000Y-70052500D01*
G75*
G02*
X149242500Y-69880000I172500J0D01*
G01*
G37*
%TD*%
%TO.C,C1009*%
G36*
G01*
X163391500Y-88363000D02*
X163786500Y-88363000D01*
G75*
G02*
X163959000Y-88535500I0J-172500D01*
G01*
X163959000Y-88880500D01*
G75*
G02*
X163786500Y-89053000I-172500J0D01*
G01*
X163391500Y-89053000D01*
G75*
G02*
X163219000Y-88880500I0J172500D01*
G01*
X163219000Y-88535500D01*
G75*
G02*
X163391500Y-88363000I172500J0D01*
G01*
G37*
G36*
G01*
X163391500Y-87393000D02*
X163786500Y-87393000D01*
G75*
G02*
X163959000Y-87565500I0J-172500D01*
G01*
X163959000Y-87910500D01*
G75*
G02*
X163786500Y-88083000I-172500J0D01*
G01*
X163391500Y-88083000D01*
G75*
G02*
X163219000Y-87910500I0J172500D01*
G01*
X163219000Y-87565500D01*
G75*
G02*
X163391500Y-87393000I172500J0D01*
G01*
G37*
%TD*%
%TO.C,C1008*%
G36*
G01*
X170363500Y-87262000D02*
X170758500Y-87262000D01*
G75*
G02*
X170931000Y-87434500I0J-172500D01*
G01*
X170931000Y-87779500D01*
G75*
G02*
X170758500Y-87952000I-172500J0D01*
G01*
X170363500Y-87952000D01*
G75*
G02*
X170191000Y-87779500I0J172500D01*
G01*
X170191000Y-87434500D01*
G75*
G02*
X170363500Y-87262000I172500J0D01*
G01*
G37*
G36*
G01*
X170363500Y-86292000D02*
X170758500Y-86292000D01*
G75*
G02*
X170931000Y-86464500I0J-172500D01*
G01*
X170931000Y-86809500D01*
G75*
G02*
X170758500Y-86982000I-172500J0D01*
G01*
X170363500Y-86982000D01*
G75*
G02*
X170191000Y-86809500I0J172500D01*
G01*
X170191000Y-86464500D01*
G75*
G02*
X170363500Y-86292000I172500J0D01*
G01*
G37*
%TD*%
%TO.C,C1007*%
G36*
G01*
X143542500Y-103014000D02*
X143147500Y-103014000D01*
G75*
G02*
X142975000Y-102841500I0J172500D01*
G01*
X142975000Y-102496500D01*
G75*
G02*
X143147500Y-102324000I172500J0D01*
G01*
X143542500Y-102324000D01*
G75*
G02*
X143715000Y-102496500I0J-172500D01*
G01*
X143715000Y-102841500D01*
G75*
G02*
X143542500Y-103014000I-172500J0D01*
G01*
G37*
G36*
G01*
X143542500Y-102044000D02*
X143147500Y-102044000D01*
G75*
G02*
X142975000Y-101871500I0J172500D01*
G01*
X142975000Y-101526500D01*
G75*
G02*
X143147500Y-101354000I172500J0D01*
G01*
X143542500Y-101354000D01*
G75*
G02*
X143715000Y-101526500I0J-172500D01*
G01*
X143715000Y-101871500D01*
G75*
G02*
X143542500Y-102044000I-172500J0D01*
G01*
G37*
%TD*%
%TO.C,C1006*%
G36*
G01*
X171590000Y-103829500D02*
X171590000Y-103434500D01*
G75*
G02*
X171762500Y-103262000I172500J0D01*
G01*
X172107500Y-103262000D01*
G75*
G02*
X172280000Y-103434500I0J-172500D01*
G01*
X172280000Y-103829500D01*
G75*
G02*
X172107500Y-104002000I-172500J0D01*
G01*
X171762500Y-104002000D01*
G75*
G02*
X171590000Y-103829500I0J172500D01*
G01*
G37*
G36*
G01*
X170620000Y-103829500D02*
X170620000Y-103434500D01*
G75*
G02*
X170792500Y-103262000I172500J0D01*
G01*
X171137500Y-103262000D01*
G75*
G02*
X171310000Y-103434500I0J-172500D01*
G01*
X171310000Y-103829500D01*
G75*
G02*
X171137500Y-104002000I-172500J0D01*
G01*
X170792500Y-104002000D01*
G75*
G02*
X170620000Y-103829500I0J172500D01*
G01*
G37*
%TD*%
%TO.C,C1005*%
G36*
G01*
X154810000Y-112752500D02*
X154810000Y-113147500D01*
G75*
G02*
X154637500Y-113320000I-172500J0D01*
G01*
X154292500Y-113320000D01*
G75*
G02*
X154120000Y-113147500I0J172500D01*
G01*
X154120000Y-112752500D01*
G75*
G02*
X154292500Y-112580000I172500J0D01*
G01*
X154637500Y-112580000D01*
G75*
G02*
X154810000Y-112752500I0J-172500D01*
G01*
G37*
G36*
G01*
X155780000Y-112752500D02*
X155780000Y-113147500D01*
G75*
G02*
X155607500Y-113320000I-172500J0D01*
G01*
X155262500Y-113320000D01*
G75*
G02*
X155090000Y-113147500I0J172500D01*
G01*
X155090000Y-112752500D01*
G75*
G02*
X155262500Y-112580000I172500J0D01*
G01*
X155607500Y-112580000D01*
G75*
G02*
X155780000Y-112752500I0J-172500D01*
G01*
G37*
%TD*%
%TO.C,C1004*%
G36*
G01*
X140997000Y-89389500D02*
X140997000Y-88994500D01*
G75*
G02*
X141169500Y-88822000I172500J0D01*
G01*
X141514500Y-88822000D01*
G75*
G02*
X141687000Y-88994500I0J-172500D01*
G01*
X141687000Y-89389500D01*
G75*
G02*
X141514500Y-89562000I-172500J0D01*
G01*
X141169500Y-89562000D01*
G75*
G02*
X140997000Y-89389500I0J172500D01*
G01*
G37*
G36*
G01*
X140027000Y-89389500D02*
X140027000Y-88994500D01*
G75*
G02*
X140199500Y-88822000I172500J0D01*
G01*
X140544500Y-88822000D01*
G75*
G02*
X140717000Y-88994500I0J-172500D01*
G01*
X140717000Y-89389500D01*
G75*
G02*
X140544500Y-89562000I-172500J0D01*
G01*
X140199500Y-89562000D01*
G75*
G02*
X140027000Y-89389500I0J172500D01*
G01*
G37*
%TD*%
%TO.C,C1003*%
G36*
G01*
X142442000Y-95195500D02*
X142442000Y-95590500D01*
G75*
G02*
X142269500Y-95763000I-172500J0D01*
G01*
X141924500Y-95763000D01*
G75*
G02*
X141752000Y-95590500I0J172500D01*
G01*
X141752000Y-95195500D01*
G75*
G02*
X141924500Y-95023000I172500J0D01*
G01*
X142269500Y-95023000D01*
G75*
G02*
X142442000Y-95195500I0J-172500D01*
G01*
G37*
G36*
G01*
X143412000Y-95195500D02*
X143412000Y-95590500D01*
G75*
G02*
X143239500Y-95763000I-172500J0D01*
G01*
X142894500Y-95763000D01*
G75*
G02*
X142722000Y-95590500I0J172500D01*
G01*
X142722000Y-95195500D01*
G75*
G02*
X142894500Y-95023000I172500J0D01*
G01*
X143239500Y-95023000D01*
G75*
G02*
X143412000Y-95195500I0J-172500D01*
G01*
G37*
%TD*%
%TO.C,C1002*%
G36*
G01*
X162222000Y-92096500D02*
X162222000Y-91701500D01*
G75*
G02*
X162394500Y-91529000I172500J0D01*
G01*
X162739500Y-91529000D01*
G75*
G02*
X162912000Y-91701500I0J-172500D01*
G01*
X162912000Y-92096500D01*
G75*
G02*
X162739500Y-92269000I-172500J0D01*
G01*
X162394500Y-92269000D01*
G75*
G02*
X162222000Y-92096500I0J172500D01*
G01*
G37*
G36*
G01*
X161252000Y-92096500D02*
X161252000Y-91701500D01*
G75*
G02*
X161424500Y-91529000I172500J0D01*
G01*
X161769500Y-91529000D01*
G75*
G02*
X161942000Y-91701500I0J-172500D01*
G01*
X161942000Y-92096500D01*
G75*
G02*
X161769500Y-92269000I-172500J0D01*
G01*
X161424500Y-92269000D01*
G75*
G02*
X161252000Y-92096500I0J172500D01*
G01*
G37*
%TD*%
%TO.C,C1001*%
G36*
G01*
X101015500Y-97275000D02*
X101015500Y-97670000D01*
G75*
G02*
X100843000Y-97842500I-172500J0D01*
G01*
X100498000Y-97842500D01*
G75*
G02*
X100325500Y-97670000I0J172500D01*
G01*
X100325500Y-97275000D01*
G75*
G02*
X100498000Y-97102500I172500J0D01*
G01*
X100843000Y-97102500D01*
G75*
G02*
X101015500Y-97275000I0J-172500D01*
G01*
G37*
G36*
G01*
X101985500Y-97275000D02*
X101985500Y-97670000D01*
G75*
G02*
X101813000Y-97842500I-172500J0D01*
G01*
X101468000Y-97842500D01*
G75*
G02*
X101295500Y-97670000I0J172500D01*
G01*
X101295500Y-97275000D01*
G75*
G02*
X101468000Y-97102500I172500J0D01*
G01*
X101813000Y-97102500D01*
G75*
G02*
X101985500Y-97275000I0J-172500D01*
G01*
G37*
%TD*%
%TO.C,REF\u002A\u002A*%
G36*
G01*
X108120000Y-69630000D02*
X108120000Y-67530000D01*
G75*
G02*
X108170000Y-67480000I50000J0D01*
G01*
X110270000Y-67480000D01*
G75*
G02*
X110320000Y-67530000I0J-50000D01*
G01*
X110320000Y-69630000D01*
G75*
G02*
X110270000Y-69680000I-50000J0D01*
G01*
X108170000Y-69680000D01*
G75*
G02*
X108120000Y-69630000I0J50000D01*
G01*
G37*
%TD*%
%TO.C,REF\u002A\u002A*%
G36*
G01*
X105580000Y-69630000D02*
X105580000Y-67530000D01*
G75*
G02*
X105630000Y-67480000I50000J0D01*
G01*
X107730000Y-67480000D01*
G75*
G02*
X107780000Y-67530000I0J-50000D01*
G01*
X107780000Y-69630000D01*
G75*
G02*
X107730000Y-69680000I-50000J0D01*
G01*
X105630000Y-69680000D01*
G75*
G02*
X105580000Y-69630000I0J50000D01*
G01*
G37*
%TD*%
%TO.C,REF\u002A\u002A*%
G36*
G01*
X146220000Y-69630000D02*
X146220000Y-67530000D01*
G75*
G02*
X146270000Y-67480000I50000J0D01*
G01*
X148370000Y-67480000D01*
G75*
G02*
X148420000Y-67530000I0J-50000D01*
G01*
X148420000Y-69630000D01*
G75*
G02*
X148370000Y-69680000I-50000J0D01*
G01*
X146270000Y-69680000D01*
G75*
G02*
X146220000Y-69630000I0J50000D01*
G01*
G37*
%TD*%
%TO.C,REF\u002A\u002A*%
G36*
G01*
X146220000Y-72170000D02*
X146220000Y-70070000D01*
G75*
G02*
X146270000Y-70020000I50000J0D01*
G01*
X148370000Y-70020000D01*
G75*
G02*
X148420000Y-70070000I0J-50000D01*
G01*
X148420000Y-72170000D01*
G75*
G02*
X148370000Y-72220000I-50000J0D01*
G01*
X146270000Y-72220000D01*
G75*
G02*
X146220000Y-72170000I0J50000D01*
G01*
G37*
%TD*%
%TO.C,REF\u002A\u002A*%
G36*
G01*
X143680000Y-69630000D02*
X143680000Y-67530000D01*
G75*
G02*
X143730000Y-67480000I50000J0D01*
G01*
X145830000Y-67480000D01*
G75*
G02*
X145880000Y-67530000I0J-50000D01*
G01*
X145880000Y-69630000D01*
G75*
G02*
X145830000Y-69680000I-50000J0D01*
G01*
X143730000Y-69680000D01*
G75*
G02*
X143680000Y-69630000I0J50000D01*
G01*
G37*
%TD*%
%TO.C,REF\u002A\u002A*%
G36*
G01*
X146220000Y-77250000D02*
X146220000Y-75150000D01*
G75*
G02*
X146270000Y-75100000I50000J0D01*
G01*
X148370000Y-75100000D01*
G75*
G02*
X148420000Y-75150000I0J-50000D01*
G01*
X148420000Y-77250000D01*
G75*
G02*
X148370000Y-77300000I-50000J0D01*
G01*
X146270000Y-77300000D01*
G75*
G02*
X146220000Y-77250000I0J50000D01*
G01*
G37*
%TD*%
%TO.C,REF\u002A\u002A*%
G36*
G01*
X146220000Y-79790000D02*
X146220000Y-77690000D01*
G75*
G02*
X146270000Y-77640000I50000J0D01*
G01*
X148370000Y-77640000D01*
G75*
G02*
X148420000Y-77690000I0J-50000D01*
G01*
X148420000Y-79790000D01*
G75*
G02*
X148370000Y-79840000I-50000J0D01*
G01*
X146270000Y-79840000D01*
G75*
G02*
X146220000Y-79790000I0J50000D01*
G01*
G37*
%TD*%
%TO.C,REF\u002A\u002A*%
G36*
G01*
X146220000Y-82330000D02*
X146220000Y-80230000D01*
G75*
G02*
X146270000Y-80180000I50000J0D01*
G01*
X148370000Y-80180000D01*
G75*
G02*
X148420000Y-80230000I0J-50000D01*
G01*
X148420000Y-82330000D01*
G75*
G02*
X148370000Y-82380000I-50000J0D01*
G01*
X146270000Y-82380000D01*
G75*
G02*
X146220000Y-82330000I0J50000D01*
G01*
G37*
%TD*%
%TO.C,REF\u002A\u002A*%
G36*
G01*
X146220000Y-74710000D02*
X146220000Y-72610000D01*
G75*
G02*
X146270000Y-72560000I50000J0D01*
G01*
X148370000Y-72560000D01*
G75*
G02*
X148420000Y-72610000I0J-50000D01*
G01*
X148420000Y-74710000D01*
G75*
G02*
X148370000Y-74760000I-50000J0D01*
G01*
X146270000Y-74760000D01*
G75*
G02*
X146220000Y-74710000I0J50000D01*
G01*
G37*
%TD*%
%TO.C,REF\u002A\u002A*%
G36*
G01*
X146220000Y-84870000D02*
X146220000Y-82770000D01*
G75*
G02*
X146270000Y-82720000I50000J0D01*
G01*
X148370000Y-82720000D01*
G75*
G02*
X148420000Y-82770000I0J-50000D01*
G01*
X148420000Y-84870000D01*
G75*
G02*
X148370000Y-84920000I-50000J0D01*
G01*
X146270000Y-84920000D01*
G75*
G02*
X146220000Y-84870000I0J50000D01*
G01*
G37*
%TD*%
%TO.C,REF\u002A\u002A*%
G36*
G01*
X123360000Y-69630000D02*
X123360000Y-67530000D01*
G75*
G02*
X123410000Y-67480000I50000J0D01*
G01*
X125510000Y-67480000D01*
G75*
G02*
X125560000Y-67530000I0J-50000D01*
G01*
X125560000Y-69630000D01*
G75*
G02*
X125510000Y-69680000I-50000J0D01*
G01*
X123410000Y-69680000D01*
G75*
G02*
X123360000Y-69630000I0J50000D01*
G01*
G37*
%TD*%
%TO.C,REF\u002A\u002A*%
G36*
G01*
X113200000Y-69630000D02*
X113200000Y-67530000D01*
G75*
G02*
X113250000Y-67480000I50000J0D01*
G01*
X115350000Y-67480000D01*
G75*
G02*
X115400000Y-67530000I0J-50000D01*
G01*
X115400000Y-69630000D01*
G75*
G02*
X115350000Y-69680000I-50000J0D01*
G01*
X113250000Y-69680000D01*
G75*
G02*
X113200000Y-69630000I0J50000D01*
G01*
G37*
%TD*%
%TO.C,REF\u002A\u002A*%
G36*
G01*
X130980000Y-69630000D02*
X130980000Y-67530000D01*
G75*
G02*
X131030000Y-67480000I50000J0D01*
G01*
X133130000Y-67480000D01*
G75*
G02*
X133180000Y-67530000I0J-50000D01*
G01*
X133180000Y-69630000D01*
G75*
G02*
X133130000Y-69680000I-50000J0D01*
G01*
X131030000Y-69680000D01*
G75*
G02*
X130980000Y-69630000I0J50000D01*
G01*
G37*
%TD*%
%TO.C,REF\u002A\u002A*%
G36*
G01*
X125900000Y-69630000D02*
X125900000Y-67530000D01*
G75*
G02*
X125950000Y-67480000I50000J0D01*
G01*
X128050000Y-67480000D01*
G75*
G02*
X128100000Y-67530000I0J-50000D01*
G01*
X128100000Y-69630000D01*
G75*
G02*
X128050000Y-69680000I-50000J0D01*
G01*
X125950000Y-69680000D01*
G75*
G02*
X125900000Y-69630000I0J50000D01*
G01*
G37*
%TD*%
%TO.C,REF\u002A\u002A*%
G36*
G01*
X128440000Y-69630000D02*
X128440000Y-67530000D01*
G75*
G02*
X128490000Y-67480000I50000J0D01*
G01*
X130590000Y-67480000D01*
G75*
G02*
X130640000Y-67530000I0J-50000D01*
G01*
X130640000Y-69630000D01*
G75*
G02*
X130590000Y-69680000I-50000J0D01*
G01*
X128490000Y-69680000D01*
G75*
G02*
X128440000Y-69630000I0J50000D01*
G01*
G37*
%TD*%
%TO.C,REF\u002A\u002A*%
G36*
G01*
X118280000Y-69630000D02*
X118280000Y-67530000D01*
G75*
G02*
X118330000Y-67480000I50000J0D01*
G01*
X120430000Y-67480000D01*
G75*
G02*
X120480000Y-67530000I0J-50000D01*
G01*
X120480000Y-69630000D01*
G75*
G02*
X120430000Y-69680000I-50000J0D01*
G01*
X118330000Y-69680000D01*
G75*
G02*
X118280000Y-69630000I0J50000D01*
G01*
G37*
%TD*%
%TO.C,REF\u002A\u002A*%
G36*
G01*
X138600000Y-69630000D02*
X138600000Y-67530000D01*
G75*
G02*
X138650000Y-67480000I50000J0D01*
G01*
X140750000Y-67480000D01*
G75*
G02*
X140800000Y-67530000I0J-50000D01*
G01*
X140800000Y-69630000D01*
G75*
G02*
X140750000Y-69680000I-50000J0D01*
G01*
X138650000Y-69680000D01*
G75*
G02*
X138600000Y-69630000I0J50000D01*
G01*
G37*
%TD*%
%TO.C,REF\u002A\u002A*%
G36*
G01*
X136060000Y-69630000D02*
X136060000Y-67530000D01*
G75*
G02*
X136110000Y-67480000I50000J0D01*
G01*
X138210000Y-67480000D01*
G75*
G02*
X138260000Y-67530000I0J-50000D01*
G01*
X138260000Y-69630000D01*
G75*
G02*
X138210000Y-69680000I-50000J0D01*
G01*
X136110000Y-69680000D01*
G75*
G02*
X136060000Y-69630000I0J50000D01*
G01*
G37*
%TD*%
%TO.C,REF\u002A\u002A*%
G36*
G01*
X115740000Y-69630000D02*
X115740000Y-67530000D01*
G75*
G02*
X115790000Y-67480000I50000J0D01*
G01*
X117890000Y-67480000D01*
G75*
G02*
X117940000Y-67530000I0J-50000D01*
G01*
X117940000Y-69630000D01*
G75*
G02*
X117890000Y-69680000I-50000J0D01*
G01*
X115790000Y-69680000D01*
G75*
G02*
X115740000Y-69630000I0J50000D01*
G01*
G37*
%TD*%
%TO.C,REF\u002A\u002A*%
G36*
G01*
X110660000Y-69630000D02*
X110660000Y-67530000D01*
G75*
G02*
X110710000Y-67480000I50000J0D01*
G01*
X112810000Y-67480000D01*
G75*
G02*
X112860000Y-67530000I0J-50000D01*
G01*
X112860000Y-69630000D01*
G75*
G02*
X112810000Y-69680000I-50000J0D01*
G01*
X110710000Y-69680000D01*
G75*
G02*
X110660000Y-69630000I0J50000D01*
G01*
G37*
%TD*%
%TO.C,REF\u002A\u002A*%
G36*
G01*
X133520000Y-69630000D02*
X133520000Y-67530000D01*
G75*
G02*
X133570000Y-67480000I50000J0D01*
G01*
X135670000Y-67480000D01*
G75*
G02*
X135720000Y-67530000I0J-50000D01*
G01*
X135720000Y-69630000D01*
G75*
G02*
X135670000Y-69680000I-50000J0D01*
G01*
X133570000Y-69680000D01*
G75*
G02*
X133520000Y-69630000I0J50000D01*
G01*
G37*
%TD*%
%TO.C,REF\u002A\u002A*%
G36*
G01*
X120820000Y-69630000D02*
X120820000Y-67530000D01*
G75*
G02*
X120870000Y-67480000I50000J0D01*
G01*
X122970000Y-67480000D01*
G75*
G02*
X123020000Y-67530000I0J-50000D01*
G01*
X123020000Y-69630000D01*
G75*
G02*
X122970000Y-69680000I-50000J0D01*
G01*
X120870000Y-69680000D01*
G75*
G02*
X120820000Y-69630000I0J50000D01*
G01*
G37*
%TD*%
%TO.C,REF\u002A\u002A*%
G36*
G01*
X141140000Y-69630000D02*
X141140000Y-67530000D01*
G75*
G02*
X141190000Y-67480000I50000J0D01*
G01*
X143290000Y-67480000D01*
G75*
G02*
X143340000Y-67530000I0J-50000D01*
G01*
X143340000Y-69630000D01*
G75*
G02*
X143290000Y-69680000I-50000J0D01*
G01*
X141190000Y-69680000D01*
G75*
G02*
X141140000Y-69630000I0J50000D01*
G01*
G37*
%TD*%
%TO.C,C601*%
G36*
G01*
X113463500Y-105784000D02*
X113858500Y-105784000D01*
G75*
G02*
X114031000Y-105956500I0J-172500D01*
G01*
X114031000Y-106301500D01*
G75*
G02*
X113858500Y-106474000I-172500J0D01*
G01*
X113463500Y-106474000D01*
G75*
G02*
X113291000Y-106301500I0J172500D01*
G01*
X113291000Y-105956500D01*
G75*
G02*
X113463500Y-105784000I172500J0D01*
G01*
G37*
G36*
G01*
X113463500Y-104814000D02*
X113858500Y-104814000D01*
G75*
G02*
X114031000Y-104986500I0J-172500D01*
G01*
X114031000Y-105331500D01*
G75*
G02*
X113858500Y-105504000I-172500J0D01*
G01*
X113463500Y-105504000D01*
G75*
G02*
X113291000Y-105331500I0J172500D01*
G01*
X113291000Y-104986500D01*
G75*
G02*
X113463500Y-104814000I172500J0D01*
G01*
G37*
%TD*%
%TO.C,C303*%
G36*
G01*
X97098500Y-93332000D02*
X96703500Y-93332000D01*
G75*
G02*
X96531000Y-93159500I0J172500D01*
G01*
X96531000Y-92814500D01*
G75*
G02*
X96703500Y-92642000I172500J0D01*
G01*
X97098500Y-92642000D01*
G75*
G02*
X97271000Y-92814500I0J-172500D01*
G01*
X97271000Y-93159500D01*
G75*
G02*
X97098500Y-93332000I-172500J0D01*
G01*
G37*
G36*
G01*
X97098500Y-94302000D02*
X96703500Y-94302000D01*
G75*
G02*
X96531000Y-94129500I0J172500D01*
G01*
X96531000Y-93784500D01*
G75*
G02*
X96703500Y-93612000I172500J0D01*
G01*
X97098500Y-93612000D01*
G75*
G02*
X97271000Y-93784500I0J-172500D01*
G01*
X97271000Y-94129500D01*
G75*
G02*
X97098500Y-94302000I-172500J0D01*
G01*
G37*
%TD*%
%TO.C,REF\u002A\u002A*%
G36*
G01*
X120820000Y-84870000D02*
X120820000Y-82770000D01*
G75*
G02*
X120870000Y-82720000I50000J0D01*
G01*
X122970000Y-82720000D01*
G75*
G02*
X123020000Y-82770000I0J-50000D01*
G01*
X123020000Y-84870000D01*
G75*
G02*
X122970000Y-84920000I-50000J0D01*
G01*
X120870000Y-84920000D01*
G75*
G02*
X120820000Y-84870000I0J50000D01*
G01*
G37*
%TD*%
%TO.C,REF\u002A\u002A*%
G36*
G01*
X108120000Y-84870000D02*
X108120000Y-82770000D01*
G75*
G02*
X108170000Y-82720000I50000J0D01*
G01*
X110270000Y-82720000D01*
G75*
G02*
X110320000Y-82770000I0J-50000D01*
G01*
X110320000Y-84870000D01*
G75*
G02*
X110270000Y-84920000I-50000J0D01*
G01*
X108170000Y-84920000D01*
G75*
G02*
X108120000Y-84870000I0J50000D01*
G01*
G37*
%TD*%
%TO.C,REF\u002A\u002A*%
G36*
G01*
X110660000Y-84870000D02*
X110660000Y-82770000D01*
G75*
G02*
X110710000Y-82720000I50000J0D01*
G01*
X112810000Y-82720000D01*
G75*
G02*
X112860000Y-82770000I0J-50000D01*
G01*
X112860000Y-84870000D01*
G75*
G02*
X112810000Y-84920000I-50000J0D01*
G01*
X110710000Y-84920000D01*
G75*
G02*
X110660000Y-84870000I0J50000D01*
G01*
G37*
%TD*%
%TO.C,REF\u002A\u002A*%
G36*
G01*
X125900000Y-84870000D02*
X125900000Y-82770000D01*
G75*
G02*
X125950000Y-82720000I50000J0D01*
G01*
X128050000Y-82720000D01*
G75*
G02*
X128100000Y-82770000I0J-50000D01*
G01*
X128100000Y-84870000D01*
G75*
G02*
X128050000Y-84920000I-50000J0D01*
G01*
X125950000Y-84920000D01*
G75*
G02*
X125900000Y-84870000I0J50000D01*
G01*
G37*
%TD*%
%TO.C,REF\u002A\u002A*%
G36*
G01*
X133520000Y-84870000D02*
X133520000Y-82770000D01*
G75*
G02*
X133570000Y-82720000I50000J0D01*
G01*
X135670000Y-82720000D01*
G75*
G02*
X135720000Y-82770000I0J-50000D01*
G01*
X135720000Y-84870000D01*
G75*
G02*
X135670000Y-84920000I-50000J0D01*
G01*
X133570000Y-84920000D01*
G75*
G02*
X133520000Y-84870000I0J50000D01*
G01*
G37*
%TD*%
%TO.C,REF\u002A\u002A*%
G36*
G01*
X118280000Y-84870000D02*
X118280000Y-82770000D01*
G75*
G02*
X118330000Y-82720000I50000J0D01*
G01*
X120430000Y-82720000D01*
G75*
G02*
X120480000Y-82770000I0J-50000D01*
G01*
X120480000Y-84870000D01*
G75*
G02*
X120430000Y-84920000I-50000J0D01*
G01*
X118330000Y-84920000D01*
G75*
G02*
X118280000Y-84870000I0J50000D01*
G01*
G37*
%TD*%
%TO.C,REF\u002A\u002A*%
G36*
G01*
X136060000Y-84870000D02*
X136060000Y-82770000D01*
G75*
G02*
X136110000Y-82720000I50000J0D01*
G01*
X138210000Y-82720000D01*
G75*
G02*
X138260000Y-82770000I0J-50000D01*
G01*
X138260000Y-84870000D01*
G75*
G02*
X138210000Y-84920000I-50000J0D01*
G01*
X136110000Y-84920000D01*
G75*
G02*
X136060000Y-84870000I0J50000D01*
G01*
G37*
%TD*%
%TO.C,REF\u002A\u002A*%
G36*
G01*
X138600000Y-84870000D02*
X138600000Y-82770000D01*
G75*
G02*
X138650000Y-82720000I50000J0D01*
G01*
X140750000Y-82720000D01*
G75*
G02*
X140800000Y-82770000I0J-50000D01*
G01*
X140800000Y-84870000D01*
G75*
G02*
X140750000Y-84920000I-50000J0D01*
G01*
X138650000Y-84920000D01*
G75*
G02*
X138600000Y-84870000I0J50000D01*
G01*
G37*
%TD*%
%TO.C,REF\u002A\u002A*%
G36*
G01*
X141140000Y-84870000D02*
X141140000Y-82770000D01*
G75*
G02*
X141190000Y-82720000I50000J0D01*
G01*
X143290000Y-82720000D01*
G75*
G02*
X143340000Y-82770000I0J-50000D01*
G01*
X143340000Y-84870000D01*
G75*
G02*
X143290000Y-84920000I-50000J0D01*
G01*
X141190000Y-84920000D01*
G75*
G02*
X141140000Y-84870000I0J50000D01*
G01*
G37*
%TD*%
%TO.C,REF\u002A\u002A*%
G36*
G01*
X143680000Y-84870000D02*
X143680000Y-82770000D01*
G75*
G02*
X143730000Y-82720000I50000J0D01*
G01*
X145830000Y-82720000D01*
G75*
G02*
X145880000Y-82770000I0J-50000D01*
G01*
X145880000Y-84870000D01*
G75*
G02*
X145830000Y-84920000I-50000J0D01*
G01*
X143730000Y-84920000D01*
G75*
G02*
X143680000Y-84870000I0J50000D01*
G01*
G37*
%TD*%
%TO.C,REF\u002A\u002A*%
G36*
G01*
X123360000Y-84870000D02*
X123360000Y-82770000D01*
G75*
G02*
X123410000Y-82720000I50000J0D01*
G01*
X125510000Y-82720000D01*
G75*
G02*
X125560000Y-82770000I0J-50000D01*
G01*
X125560000Y-84870000D01*
G75*
G02*
X125510000Y-84920000I-50000J0D01*
G01*
X123410000Y-84920000D01*
G75*
G02*
X123360000Y-84870000I0J50000D01*
G01*
G37*
%TD*%
%TO.C,REF\u002A\u002A*%
G36*
G01*
X105580000Y-84870000D02*
X105580000Y-82770000D01*
G75*
G02*
X105630000Y-82720000I50000J0D01*
G01*
X107730000Y-82720000D01*
G75*
G02*
X107780000Y-82770000I0J-50000D01*
G01*
X107780000Y-84870000D01*
G75*
G02*
X107730000Y-84920000I-50000J0D01*
G01*
X105630000Y-84920000D01*
G75*
G02*
X105580000Y-84870000I0J50000D01*
G01*
G37*
%TD*%
%TO.C,REF\u002A\u002A*%
G36*
G01*
X113200000Y-84870000D02*
X113200000Y-82770000D01*
G75*
G02*
X113250000Y-82720000I50000J0D01*
G01*
X115350000Y-82720000D01*
G75*
G02*
X115400000Y-82770000I0J-50000D01*
G01*
X115400000Y-84870000D01*
G75*
G02*
X115350000Y-84920000I-50000J0D01*
G01*
X113250000Y-84920000D01*
G75*
G02*
X113200000Y-84870000I0J50000D01*
G01*
G37*
%TD*%
%TO.C,REF\u002A\u002A*%
G36*
G01*
X115740000Y-84870000D02*
X115740000Y-82770000D01*
G75*
G02*
X115790000Y-82720000I50000J0D01*
G01*
X117890000Y-82720000D01*
G75*
G02*
X117940000Y-82770000I0J-50000D01*
G01*
X117940000Y-84870000D01*
G75*
G02*
X117890000Y-84920000I-50000J0D01*
G01*
X115790000Y-84920000D01*
G75*
G02*
X115740000Y-84870000I0J50000D01*
G01*
G37*
%TD*%
%TO.C,REF\u002A\u002A*%
G36*
G01*
X130980000Y-84870000D02*
X130980000Y-82770000D01*
G75*
G02*
X131030000Y-82720000I50000J0D01*
G01*
X133130000Y-82720000D01*
G75*
G02*
X133180000Y-82770000I0J-50000D01*
G01*
X133180000Y-84870000D01*
G75*
G02*
X133130000Y-84920000I-50000J0D01*
G01*
X131030000Y-84920000D01*
G75*
G02*
X130980000Y-84870000I0J50000D01*
G01*
G37*
%TD*%
%TO.C,REF\u002A\u002A*%
G36*
G01*
X128440000Y-84870000D02*
X128440000Y-82770000D01*
G75*
G02*
X128490000Y-82720000I50000J0D01*
G01*
X130590000Y-82720000D01*
G75*
G02*
X130640000Y-82770000I0J-50000D01*
G01*
X130640000Y-84870000D01*
G75*
G02*
X130590000Y-84920000I-50000J0D01*
G01*
X128490000Y-84920000D01*
G75*
G02*
X128440000Y-84870000I0J50000D01*
G01*
G37*
%TD*%
%TO.C,REF\u002A\u002A*%
G36*
G01*
X113200000Y-74710000D02*
X113200000Y-72610000D01*
G75*
G02*
X113250000Y-72560000I50000J0D01*
G01*
X115350000Y-72560000D01*
G75*
G02*
X115400000Y-72610000I0J-50000D01*
G01*
X115400000Y-74710000D01*
G75*
G02*
X115350000Y-74760000I-50000J0D01*
G01*
X113250000Y-74760000D01*
G75*
G02*
X113200000Y-74710000I0J50000D01*
G01*
G37*
%TD*%
%TO.C,REF\u002A\u002A*%
G36*
G01*
X110660000Y-72170000D02*
X110660000Y-70070000D01*
G75*
G02*
X110710000Y-70020000I50000J0D01*
G01*
X112810000Y-70020000D01*
G75*
G02*
X112860000Y-70070000I0J-50000D01*
G01*
X112860000Y-72170000D01*
G75*
G02*
X112810000Y-72220000I-50000J0D01*
G01*
X110710000Y-72220000D01*
G75*
G02*
X110660000Y-72170000I0J50000D01*
G01*
G37*
%TD*%
%TO.C,REF\u002A\u002A*%
G36*
G01*
X110660000Y-77250000D02*
X110660000Y-75150000D01*
G75*
G02*
X110710000Y-75100000I50000J0D01*
G01*
X112810000Y-75100000D01*
G75*
G02*
X112860000Y-75150000I0J-50000D01*
G01*
X112860000Y-77250000D01*
G75*
G02*
X112810000Y-77300000I-50000J0D01*
G01*
X110710000Y-77300000D01*
G75*
G02*
X110660000Y-77250000I0J50000D01*
G01*
G37*
%TD*%
%TO.C,REF\u002A\u002A*%
G36*
G01*
X123360000Y-77250000D02*
X123360000Y-75150000D01*
G75*
G02*
X123410000Y-75100000I50000J0D01*
G01*
X125510000Y-75100000D01*
G75*
G02*
X125560000Y-75150000I0J-50000D01*
G01*
X125560000Y-77250000D01*
G75*
G02*
X125510000Y-77300000I-50000J0D01*
G01*
X123410000Y-77300000D01*
G75*
G02*
X123360000Y-77250000I0J50000D01*
G01*
G37*
%TD*%
%TO.C,REF\u002A\u002A*%
G36*
G01*
X105580000Y-72170000D02*
X105580000Y-70070000D01*
G75*
G02*
X105630000Y-70020000I50000J0D01*
G01*
X107730000Y-70020000D01*
G75*
G02*
X107780000Y-70070000I0J-50000D01*
G01*
X107780000Y-72170000D01*
G75*
G02*
X107730000Y-72220000I-50000J0D01*
G01*
X105630000Y-72220000D01*
G75*
G02*
X105580000Y-72170000I0J50000D01*
G01*
G37*
%TD*%
%TO.C,REF\u002A\u002A*%
G36*
G01*
X105580000Y-82330000D02*
X105580000Y-80230000D01*
G75*
G02*
X105630000Y-80180000I50000J0D01*
G01*
X107730000Y-80180000D01*
G75*
G02*
X107780000Y-80230000I0J-50000D01*
G01*
X107780000Y-82330000D01*
G75*
G02*
X107730000Y-82380000I-50000J0D01*
G01*
X105630000Y-82380000D01*
G75*
G02*
X105580000Y-82330000I0J50000D01*
G01*
G37*
%TD*%
%TO.C,REF\u002A\u002A*%
G36*
G01*
X105580000Y-77250000D02*
X105580000Y-75150000D01*
G75*
G02*
X105630000Y-75100000I50000J0D01*
G01*
X107730000Y-75100000D01*
G75*
G02*
X107780000Y-75150000I0J-50000D01*
G01*
X107780000Y-77250000D01*
G75*
G02*
X107730000Y-77300000I-50000J0D01*
G01*
X105630000Y-77300000D01*
G75*
G02*
X105580000Y-77250000I0J50000D01*
G01*
G37*
%TD*%
%TO.C,REF\u002A\u002A*%
G36*
G01*
X105580000Y-79790000D02*
X105580000Y-77690000D01*
G75*
G02*
X105630000Y-77640000I50000J0D01*
G01*
X107730000Y-77640000D01*
G75*
G02*
X107780000Y-77690000I0J-50000D01*
G01*
X107780000Y-79790000D01*
G75*
G02*
X107730000Y-79840000I-50000J0D01*
G01*
X105630000Y-79840000D01*
G75*
G02*
X105580000Y-79790000I0J50000D01*
G01*
G37*
%TD*%
%TO.C,REF\u002A\u002A*%
G36*
G01*
X108120000Y-77250000D02*
X108120000Y-75150000D01*
G75*
G02*
X108170000Y-75100000I50000J0D01*
G01*
X110270000Y-75100000D01*
G75*
G02*
X110320000Y-75150000I0J-50000D01*
G01*
X110320000Y-77250000D01*
G75*
G02*
X110270000Y-77300000I-50000J0D01*
G01*
X108170000Y-77300000D01*
G75*
G02*
X108120000Y-77250000I0J50000D01*
G01*
G37*
%TD*%
%TO.C,REF\u002A\u002A*%
G36*
G01*
X108120000Y-79790000D02*
X108120000Y-77690000D01*
G75*
G02*
X108170000Y-77640000I50000J0D01*
G01*
X110270000Y-77640000D01*
G75*
G02*
X110320000Y-77690000I0J-50000D01*
G01*
X110320000Y-79790000D01*
G75*
G02*
X110270000Y-79840000I-50000J0D01*
G01*
X108170000Y-79840000D01*
G75*
G02*
X108120000Y-79790000I0J50000D01*
G01*
G37*
%TD*%
%TO.C,REF\u002A\u002A*%
G36*
G01*
X108120000Y-72170000D02*
X108120000Y-70070000D01*
G75*
G02*
X108170000Y-70020000I50000J0D01*
G01*
X110270000Y-70020000D01*
G75*
G02*
X110320000Y-70070000I0J-50000D01*
G01*
X110320000Y-72170000D01*
G75*
G02*
X110270000Y-72220000I-50000J0D01*
G01*
X108170000Y-72220000D01*
G75*
G02*
X108120000Y-72170000I0J50000D01*
G01*
G37*
%TD*%
%TO.C,REF\u002A\u002A*%
G36*
G01*
X108120000Y-74710000D02*
X108120000Y-72610000D01*
G75*
G02*
X108170000Y-72560000I50000J0D01*
G01*
X110270000Y-72560000D01*
G75*
G02*
X110320000Y-72610000I0J-50000D01*
G01*
X110320000Y-74710000D01*
G75*
G02*
X110270000Y-74760000I-50000J0D01*
G01*
X108170000Y-74760000D01*
G75*
G02*
X108120000Y-74710000I0J50000D01*
G01*
G37*
%TD*%
%TO.C,REF\u002A\u002A*%
G36*
G01*
X105580000Y-74710000D02*
X105580000Y-72610000D01*
G75*
G02*
X105630000Y-72560000I50000J0D01*
G01*
X107730000Y-72560000D01*
G75*
G02*
X107780000Y-72610000I0J-50000D01*
G01*
X107780000Y-74710000D01*
G75*
G02*
X107730000Y-74760000I-50000J0D01*
G01*
X105630000Y-74760000D01*
G75*
G02*
X105580000Y-74710000I0J50000D01*
G01*
G37*
%TD*%
%TO.C,REF\u002A\u002A*%
G36*
G01*
X113200000Y-77250000D02*
X113200000Y-75150000D01*
G75*
G02*
X113250000Y-75100000I50000J0D01*
G01*
X115350000Y-75100000D01*
G75*
G02*
X115400000Y-75150000I0J-50000D01*
G01*
X115400000Y-77250000D01*
G75*
G02*
X115350000Y-77300000I-50000J0D01*
G01*
X113250000Y-77300000D01*
G75*
G02*
X113200000Y-77250000I0J50000D01*
G01*
G37*
%TD*%
%TO.C,REF\u002A\u002A*%
G36*
G01*
X113200000Y-79790000D02*
X113200000Y-77690000D01*
G75*
G02*
X113250000Y-77640000I50000J0D01*
G01*
X115350000Y-77640000D01*
G75*
G02*
X115400000Y-77690000I0J-50000D01*
G01*
X115400000Y-79790000D01*
G75*
G02*
X115350000Y-79840000I-50000J0D01*
G01*
X113250000Y-79840000D01*
G75*
G02*
X113200000Y-79790000I0J50000D01*
G01*
G37*
%TD*%
%TO.C,REF\u002A\u002A*%
G36*
G01*
X110660000Y-74710000D02*
X110660000Y-72610000D01*
G75*
G02*
X110710000Y-72560000I50000J0D01*
G01*
X112810000Y-72560000D01*
G75*
G02*
X112860000Y-72610000I0J-50000D01*
G01*
X112860000Y-74710000D01*
G75*
G02*
X112810000Y-74760000I-50000J0D01*
G01*
X110710000Y-74760000D01*
G75*
G02*
X110660000Y-74710000I0J50000D01*
G01*
G37*
%TD*%
%TO.C,REF\u002A\u002A*%
G36*
G01*
X113200000Y-82330000D02*
X113200000Y-80230000D01*
G75*
G02*
X113250000Y-80180000I50000J0D01*
G01*
X115350000Y-80180000D01*
G75*
G02*
X115400000Y-80230000I0J-50000D01*
G01*
X115400000Y-82330000D01*
G75*
G02*
X115350000Y-82380000I-50000J0D01*
G01*
X113250000Y-82380000D01*
G75*
G02*
X113200000Y-82330000I0J50000D01*
G01*
G37*
%TD*%
%TO.C,REF\u002A\u002A*%
G36*
G01*
X110660000Y-79790000D02*
X110660000Y-77690000D01*
G75*
G02*
X110710000Y-77640000I50000J0D01*
G01*
X112810000Y-77640000D01*
G75*
G02*
X112860000Y-77690000I0J-50000D01*
G01*
X112860000Y-79790000D01*
G75*
G02*
X112810000Y-79840000I-50000J0D01*
G01*
X110710000Y-79840000D01*
G75*
G02*
X110660000Y-79790000I0J50000D01*
G01*
G37*
%TD*%
%TO.C,REF\u002A\u002A*%
G36*
G01*
X123360000Y-79790000D02*
X123360000Y-77690000D01*
G75*
G02*
X123410000Y-77640000I50000J0D01*
G01*
X125510000Y-77640000D01*
G75*
G02*
X125560000Y-77690000I0J-50000D01*
G01*
X125560000Y-79790000D01*
G75*
G02*
X125510000Y-79840000I-50000J0D01*
G01*
X123410000Y-79840000D01*
G75*
G02*
X123360000Y-79790000I0J50000D01*
G01*
G37*
%TD*%
%TO.C,REF\u002A\u002A*%
G36*
G01*
X115740000Y-82330000D02*
X115740000Y-80230000D01*
G75*
G02*
X115790000Y-80180000I50000J0D01*
G01*
X117890000Y-80180000D01*
G75*
G02*
X117940000Y-80230000I0J-50000D01*
G01*
X117940000Y-82330000D01*
G75*
G02*
X117890000Y-82380000I-50000J0D01*
G01*
X115790000Y-82380000D01*
G75*
G02*
X115740000Y-82330000I0J50000D01*
G01*
G37*
%TD*%
%TO.C,REF\u002A\u002A*%
G36*
G01*
X115740000Y-77250000D02*
X115740000Y-75150000D01*
G75*
G02*
X115790000Y-75100000I50000J0D01*
G01*
X117890000Y-75100000D01*
G75*
G02*
X117940000Y-75150000I0J-50000D01*
G01*
X117940000Y-77250000D01*
G75*
G02*
X117890000Y-77300000I-50000J0D01*
G01*
X115790000Y-77300000D01*
G75*
G02*
X115740000Y-77250000I0J50000D01*
G01*
G37*
%TD*%
%TO.C,REF\u002A\u002A*%
G36*
G01*
X115740000Y-79790000D02*
X115740000Y-77690000D01*
G75*
G02*
X115790000Y-77640000I50000J0D01*
G01*
X117890000Y-77640000D01*
G75*
G02*
X117940000Y-77690000I0J-50000D01*
G01*
X117940000Y-79790000D01*
G75*
G02*
X117890000Y-79840000I-50000J0D01*
G01*
X115790000Y-79840000D01*
G75*
G02*
X115740000Y-79790000I0J50000D01*
G01*
G37*
%TD*%
%TO.C,REF\u002A\u002A*%
G36*
G01*
X118280000Y-77250000D02*
X118280000Y-75150000D01*
G75*
G02*
X118330000Y-75100000I50000J0D01*
G01*
X120430000Y-75100000D01*
G75*
G02*
X120480000Y-75150000I0J-50000D01*
G01*
X120480000Y-77250000D01*
G75*
G02*
X120430000Y-77300000I-50000J0D01*
G01*
X118330000Y-77300000D01*
G75*
G02*
X118280000Y-77250000I0J50000D01*
G01*
G37*
%TD*%
%TO.C,REF\u002A\u002A*%
G36*
G01*
X118280000Y-79790000D02*
X118280000Y-77690000D01*
G75*
G02*
X118330000Y-77640000I50000J0D01*
G01*
X120430000Y-77640000D01*
G75*
G02*
X120480000Y-77690000I0J-50000D01*
G01*
X120480000Y-79790000D01*
G75*
G02*
X120430000Y-79840000I-50000J0D01*
G01*
X118330000Y-79840000D01*
G75*
G02*
X118280000Y-79790000I0J50000D01*
G01*
G37*
%TD*%
%TO.C,REF\u002A\u002A*%
G36*
G01*
X118280000Y-72170000D02*
X118280000Y-70070000D01*
G75*
G02*
X118330000Y-70020000I50000J0D01*
G01*
X120430000Y-70020000D01*
G75*
G02*
X120480000Y-70070000I0J-50000D01*
G01*
X120480000Y-72170000D01*
G75*
G02*
X120430000Y-72220000I-50000J0D01*
G01*
X118330000Y-72220000D01*
G75*
G02*
X118280000Y-72170000I0J50000D01*
G01*
G37*
%TD*%
%TO.C,REF\u002A\u002A*%
G36*
G01*
X118280000Y-74710000D02*
X118280000Y-72610000D01*
G75*
G02*
X118330000Y-72560000I50000J0D01*
G01*
X120430000Y-72560000D01*
G75*
G02*
X120480000Y-72610000I0J-50000D01*
G01*
X120480000Y-74710000D01*
G75*
G02*
X120430000Y-74760000I-50000J0D01*
G01*
X118330000Y-74760000D01*
G75*
G02*
X118280000Y-74710000I0J50000D01*
G01*
G37*
%TD*%
%TO.C,REF\u002A\u002A*%
G36*
G01*
X115740000Y-74710000D02*
X115740000Y-72610000D01*
G75*
G02*
X115790000Y-72560000I50000J0D01*
G01*
X117890000Y-72560000D01*
G75*
G02*
X117940000Y-72610000I0J-50000D01*
G01*
X117940000Y-74710000D01*
G75*
G02*
X117890000Y-74760000I-50000J0D01*
G01*
X115790000Y-74760000D01*
G75*
G02*
X115740000Y-74710000I0J50000D01*
G01*
G37*
%TD*%
%TO.C,REF\u002A\u002A*%
G36*
G01*
X115740000Y-72170000D02*
X115740000Y-70070000D01*
G75*
G02*
X115790000Y-70020000I50000J0D01*
G01*
X117890000Y-70020000D01*
G75*
G02*
X117940000Y-70070000I0J-50000D01*
G01*
X117940000Y-72170000D01*
G75*
G02*
X117890000Y-72220000I-50000J0D01*
G01*
X115790000Y-72220000D01*
G75*
G02*
X115740000Y-72170000I0J50000D01*
G01*
G37*
%TD*%
%TO.C,REF\u002A\u002A*%
G36*
G01*
X118280000Y-82330000D02*
X118280000Y-80230000D01*
G75*
G02*
X118330000Y-80180000I50000J0D01*
G01*
X120430000Y-80180000D01*
G75*
G02*
X120480000Y-80230000I0J-50000D01*
G01*
X120480000Y-82330000D01*
G75*
G02*
X120430000Y-82380000I-50000J0D01*
G01*
X118330000Y-82380000D01*
G75*
G02*
X118280000Y-82330000I0J50000D01*
G01*
G37*
%TD*%
%TO.C,REF\u002A\u002A*%
G36*
G01*
X120820000Y-77250000D02*
X120820000Y-75150000D01*
G75*
G02*
X120870000Y-75100000I50000J0D01*
G01*
X122970000Y-75100000D01*
G75*
G02*
X123020000Y-75150000I0J-50000D01*
G01*
X123020000Y-77250000D01*
G75*
G02*
X122970000Y-77300000I-50000J0D01*
G01*
X120870000Y-77300000D01*
G75*
G02*
X120820000Y-77250000I0J50000D01*
G01*
G37*
%TD*%
%TO.C,REF\u002A\u002A*%
G36*
G01*
X120820000Y-79790000D02*
X120820000Y-77690000D01*
G75*
G02*
X120870000Y-77640000I50000J0D01*
G01*
X122970000Y-77640000D01*
G75*
G02*
X123020000Y-77690000I0J-50000D01*
G01*
X123020000Y-79790000D01*
G75*
G02*
X122970000Y-79840000I-50000J0D01*
G01*
X120870000Y-79840000D01*
G75*
G02*
X120820000Y-79790000I0J50000D01*
G01*
G37*
%TD*%
%TO.C,REF\u002A\u002A*%
G36*
G01*
X120820000Y-82330000D02*
X120820000Y-80230000D01*
G75*
G02*
X120870000Y-80180000I50000J0D01*
G01*
X122970000Y-80180000D01*
G75*
G02*
X123020000Y-80230000I0J-50000D01*
G01*
X123020000Y-82330000D01*
G75*
G02*
X122970000Y-82380000I-50000J0D01*
G01*
X120870000Y-82380000D01*
G75*
G02*
X120820000Y-82330000I0J50000D01*
G01*
G37*
%TD*%
%TO.C,REF\u002A\u002A*%
G36*
G01*
X120820000Y-74710000D02*
X120820000Y-72610000D01*
G75*
G02*
X120870000Y-72560000I50000J0D01*
G01*
X122970000Y-72560000D01*
G75*
G02*
X123020000Y-72610000I0J-50000D01*
G01*
X123020000Y-74710000D01*
G75*
G02*
X122970000Y-74760000I-50000J0D01*
G01*
X120870000Y-74760000D01*
G75*
G02*
X120820000Y-74710000I0J50000D01*
G01*
G37*
%TD*%
%TO.C,REF\u002A\u002A*%
G36*
G01*
X120820000Y-72170000D02*
X120820000Y-70070000D01*
G75*
G02*
X120870000Y-70020000I50000J0D01*
G01*
X122970000Y-70020000D01*
G75*
G02*
X123020000Y-70070000I0J-50000D01*
G01*
X123020000Y-72170000D01*
G75*
G02*
X122970000Y-72220000I-50000J0D01*
G01*
X120870000Y-72220000D01*
G75*
G02*
X120820000Y-72170000I0J50000D01*
G01*
G37*
%TD*%
%TO.C,REF\u002A\u002A*%
G36*
G01*
X123360000Y-82330000D02*
X123360000Y-80230000D01*
G75*
G02*
X123410000Y-80180000I50000J0D01*
G01*
X125510000Y-80180000D01*
G75*
G02*
X125560000Y-80230000I0J-50000D01*
G01*
X125560000Y-82330000D01*
G75*
G02*
X125510000Y-82380000I-50000J0D01*
G01*
X123410000Y-82380000D01*
G75*
G02*
X123360000Y-82330000I0J50000D01*
G01*
G37*
%TD*%
%TO.C,REF\u002A\u002A*%
G36*
G01*
X123360000Y-74710000D02*
X123360000Y-72610000D01*
G75*
G02*
X123410000Y-72560000I50000J0D01*
G01*
X125510000Y-72560000D01*
G75*
G02*
X125560000Y-72610000I0J-50000D01*
G01*
X125560000Y-74710000D01*
G75*
G02*
X125510000Y-74760000I-50000J0D01*
G01*
X123410000Y-74760000D01*
G75*
G02*
X123360000Y-74710000I0J50000D01*
G01*
G37*
%TD*%
%TO.C,REF\u002A\u002A*%
G36*
G01*
X113200000Y-72170000D02*
X113200000Y-70070000D01*
G75*
G02*
X113250000Y-70020000I50000J0D01*
G01*
X115350000Y-70020000D01*
G75*
G02*
X115400000Y-70070000I0J-50000D01*
G01*
X115400000Y-72170000D01*
G75*
G02*
X115350000Y-72220000I-50000J0D01*
G01*
X113250000Y-72220000D01*
G75*
G02*
X113200000Y-72170000I0J50000D01*
G01*
G37*
%TD*%
%TO.C,REF\u002A\u002A*%
G36*
G01*
X110660000Y-82330000D02*
X110660000Y-80230000D01*
G75*
G02*
X110710000Y-80180000I50000J0D01*
G01*
X112810000Y-80180000D01*
G75*
G02*
X112860000Y-80230000I0J-50000D01*
G01*
X112860000Y-82330000D01*
G75*
G02*
X112810000Y-82380000I-50000J0D01*
G01*
X110710000Y-82380000D01*
G75*
G02*
X110660000Y-82330000I0J50000D01*
G01*
G37*
%TD*%
%TO.C,REF\u002A\u002A*%
G36*
G01*
X108120000Y-82330000D02*
X108120000Y-80230000D01*
G75*
G02*
X108170000Y-80180000I50000J0D01*
G01*
X110270000Y-80180000D01*
G75*
G02*
X110320000Y-80230000I0J-50000D01*
G01*
X110320000Y-82330000D01*
G75*
G02*
X110270000Y-82380000I-50000J0D01*
G01*
X108170000Y-82380000D01*
G75*
G02*
X108120000Y-82330000I0J50000D01*
G01*
G37*
%TD*%
%TO.C,REF\u002A\u002A*%
G36*
G01*
X123360000Y-72170000D02*
X123360000Y-70070000D01*
G75*
G02*
X123410000Y-70020000I50000J0D01*
G01*
X125510000Y-70020000D01*
G75*
G02*
X125560000Y-70070000I0J-50000D01*
G01*
X125560000Y-72170000D01*
G75*
G02*
X125510000Y-72220000I-50000J0D01*
G01*
X123410000Y-72220000D01*
G75*
G02*
X123360000Y-72170000I0J50000D01*
G01*
G37*
%TD*%
%TO.C,REF\u002A\u002A*%
G36*
G01*
X133520000Y-77250000D02*
X133520000Y-75150000D01*
G75*
G02*
X133570000Y-75100000I50000J0D01*
G01*
X135670000Y-75100000D01*
G75*
G02*
X135720000Y-75150000I0J-50000D01*
G01*
X135720000Y-77250000D01*
G75*
G02*
X135670000Y-77300000I-50000J0D01*
G01*
X133570000Y-77300000D01*
G75*
G02*
X133520000Y-77250000I0J50000D01*
G01*
G37*
%TD*%
%TO.C,REF\u002A\u002A*%
G36*
G01*
X133520000Y-79790000D02*
X133520000Y-77690000D01*
G75*
G02*
X133570000Y-77640000I50000J0D01*
G01*
X135670000Y-77640000D01*
G75*
G02*
X135720000Y-77690000I0J-50000D01*
G01*
X135720000Y-79790000D01*
G75*
G02*
X135670000Y-79840000I-50000J0D01*
G01*
X133570000Y-79840000D01*
G75*
G02*
X133520000Y-79790000I0J50000D01*
G01*
G37*
%TD*%
%TO.C,REF\u002A\u002A*%
G36*
G01*
X125900000Y-82330000D02*
X125900000Y-80230000D01*
G75*
G02*
X125950000Y-80180000I50000J0D01*
G01*
X128050000Y-80180000D01*
G75*
G02*
X128100000Y-80230000I0J-50000D01*
G01*
X128100000Y-82330000D01*
G75*
G02*
X128050000Y-82380000I-50000J0D01*
G01*
X125950000Y-82380000D01*
G75*
G02*
X125900000Y-82330000I0J50000D01*
G01*
G37*
%TD*%
%TO.C,REF\u002A\u002A*%
G36*
G01*
X125900000Y-77250000D02*
X125900000Y-75150000D01*
G75*
G02*
X125950000Y-75100000I50000J0D01*
G01*
X128050000Y-75100000D01*
G75*
G02*
X128100000Y-75150000I0J-50000D01*
G01*
X128100000Y-77250000D01*
G75*
G02*
X128050000Y-77300000I-50000J0D01*
G01*
X125950000Y-77300000D01*
G75*
G02*
X125900000Y-77250000I0J50000D01*
G01*
G37*
%TD*%
%TO.C,REF\u002A\u002A*%
G36*
G01*
X125900000Y-79790000D02*
X125900000Y-77690000D01*
G75*
G02*
X125950000Y-77640000I50000J0D01*
G01*
X128050000Y-77640000D01*
G75*
G02*
X128100000Y-77690000I0J-50000D01*
G01*
X128100000Y-79790000D01*
G75*
G02*
X128050000Y-79840000I-50000J0D01*
G01*
X125950000Y-79840000D01*
G75*
G02*
X125900000Y-79790000I0J50000D01*
G01*
G37*
%TD*%
%TO.C,REF\u002A\u002A*%
G36*
G01*
X128440000Y-77250000D02*
X128440000Y-75150000D01*
G75*
G02*
X128490000Y-75100000I50000J0D01*
G01*
X130590000Y-75100000D01*
G75*
G02*
X130640000Y-75150000I0J-50000D01*
G01*
X130640000Y-77250000D01*
G75*
G02*
X130590000Y-77300000I-50000J0D01*
G01*
X128490000Y-77300000D01*
G75*
G02*
X128440000Y-77250000I0J50000D01*
G01*
G37*
%TD*%
%TO.C,REF\u002A\u002A*%
G36*
G01*
X128440000Y-79790000D02*
X128440000Y-77690000D01*
G75*
G02*
X128490000Y-77640000I50000J0D01*
G01*
X130590000Y-77640000D01*
G75*
G02*
X130640000Y-77690000I0J-50000D01*
G01*
X130640000Y-79790000D01*
G75*
G02*
X130590000Y-79840000I-50000J0D01*
G01*
X128490000Y-79840000D01*
G75*
G02*
X128440000Y-79790000I0J50000D01*
G01*
G37*
%TD*%
%TO.C,REF\u002A\u002A*%
G36*
G01*
X128440000Y-72170000D02*
X128440000Y-70070000D01*
G75*
G02*
X128490000Y-70020000I50000J0D01*
G01*
X130590000Y-70020000D01*
G75*
G02*
X130640000Y-70070000I0J-50000D01*
G01*
X130640000Y-72170000D01*
G75*
G02*
X130590000Y-72220000I-50000J0D01*
G01*
X128490000Y-72220000D01*
G75*
G02*
X128440000Y-72170000I0J50000D01*
G01*
G37*
%TD*%
%TO.C,REF\u002A\u002A*%
G36*
G01*
X128440000Y-74710000D02*
X128440000Y-72610000D01*
G75*
G02*
X128490000Y-72560000I50000J0D01*
G01*
X130590000Y-72560000D01*
G75*
G02*
X130640000Y-72610000I0J-50000D01*
G01*
X130640000Y-74710000D01*
G75*
G02*
X130590000Y-74760000I-50000J0D01*
G01*
X128490000Y-74760000D01*
G75*
G02*
X128440000Y-74710000I0J50000D01*
G01*
G37*
%TD*%
%TO.C,REF\u002A\u002A*%
G36*
G01*
X125900000Y-74710000D02*
X125900000Y-72610000D01*
G75*
G02*
X125950000Y-72560000I50000J0D01*
G01*
X128050000Y-72560000D01*
G75*
G02*
X128100000Y-72610000I0J-50000D01*
G01*
X128100000Y-74710000D01*
G75*
G02*
X128050000Y-74760000I-50000J0D01*
G01*
X125950000Y-74760000D01*
G75*
G02*
X125900000Y-74710000I0J50000D01*
G01*
G37*
%TD*%
%TO.C,REF\u002A\u002A*%
G36*
G01*
X125900000Y-72170000D02*
X125900000Y-70070000D01*
G75*
G02*
X125950000Y-70020000I50000J0D01*
G01*
X128050000Y-70020000D01*
G75*
G02*
X128100000Y-70070000I0J-50000D01*
G01*
X128100000Y-72170000D01*
G75*
G02*
X128050000Y-72220000I-50000J0D01*
G01*
X125950000Y-72220000D01*
G75*
G02*
X125900000Y-72170000I0J50000D01*
G01*
G37*
%TD*%
%TO.C,REF\u002A\u002A*%
G36*
G01*
X128440000Y-82330000D02*
X128440000Y-80230000D01*
G75*
G02*
X128490000Y-80180000I50000J0D01*
G01*
X130590000Y-80180000D01*
G75*
G02*
X130640000Y-80230000I0J-50000D01*
G01*
X130640000Y-82330000D01*
G75*
G02*
X130590000Y-82380000I-50000J0D01*
G01*
X128490000Y-82380000D01*
G75*
G02*
X128440000Y-82330000I0J50000D01*
G01*
G37*
%TD*%
%TO.C,REF\u002A\u002A*%
G36*
G01*
X130980000Y-77250000D02*
X130980000Y-75150000D01*
G75*
G02*
X131030000Y-75100000I50000J0D01*
G01*
X133130000Y-75100000D01*
G75*
G02*
X133180000Y-75150000I0J-50000D01*
G01*
X133180000Y-77250000D01*
G75*
G02*
X133130000Y-77300000I-50000J0D01*
G01*
X131030000Y-77300000D01*
G75*
G02*
X130980000Y-77250000I0J50000D01*
G01*
G37*
%TD*%
%TO.C,REF\u002A\u002A*%
G36*
G01*
X130980000Y-79790000D02*
X130980000Y-77690000D01*
G75*
G02*
X131030000Y-77640000I50000J0D01*
G01*
X133130000Y-77640000D01*
G75*
G02*
X133180000Y-77690000I0J-50000D01*
G01*
X133180000Y-79790000D01*
G75*
G02*
X133130000Y-79840000I-50000J0D01*
G01*
X131030000Y-79840000D01*
G75*
G02*
X130980000Y-79790000I0J50000D01*
G01*
G37*
%TD*%
%TO.C,REF\u002A\u002A*%
G36*
G01*
X130980000Y-82330000D02*
X130980000Y-80230000D01*
G75*
G02*
X131030000Y-80180000I50000J0D01*
G01*
X133130000Y-80180000D01*
G75*
G02*
X133180000Y-80230000I0J-50000D01*
G01*
X133180000Y-82330000D01*
G75*
G02*
X133130000Y-82380000I-50000J0D01*
G01*
X131030000Y-82380000D01*
G75*
G02*
X130980000Y-82330000I0J50000D01*
G01*
G37*
%TD*%
%TO.C,REF\u002A\u002A*%
G36*
G01*
X130980000Y-74710000D02*
X130980000Y-72610000D01*
G75*
G02*
X131030000Y-72560000I50000J0D01*
G01*
X133130000Y-72560000D01*
G75*
G02*
X133180000Y-72610000I0J-50000D01*
G01*
X133180000Y-74710000D01*
G75*
G02*
X133130000Y-74760000I-50000J0D01*
G01*
X131030000Y-74760000D01*
G75*
G02*
X130980000Y-74710000I0J50000D01*
G01*
G37*
%TD*%
%TO.C,REF\u002A\u002A*%
G36*
G01*
X130980000Y-72170000D02*
X130980000Y-70070000D01*
G75*
G02*
X131030000Y-70020000I50000J0D01*
G01*
X133130000Y-70020000D01*
G75*
G02*
X133180000Y-70070000I0J-50000D01*
G01*
X133180000Y-72170000D01*
G75*
G02*
X133130000Y-72220000I-50000J0D01*
G01*
X131030000Y-72220000D01*
G75*
G02*
X130980000Y-72170000I0J50000D01*
G01*
G37*
%TD*%
%TO.C,REF\u002A\u002A*%
G36*
G01*
X133520000Y-82330000D02*
X133520000Y-80230000D01*
G75*
G02*
X133570000Y-80180000I50000J0D01*
G01*
X135670000Y-80180000D01*
G75*
G02*
X135720000Y-80230000I0J-50000D01*
G01*
X135720000Y-82330000D01*
G75*
G02*
X135670000Y-82380000I-50000J0D01*
G01*
X133570000Y-82380000D01*
G75*
G02*
X133520000Y-82330000I0J50000D01*
G01*
G37*
%TD*%
%TO.C,REF\u002A\u002A*%
G36*
G01*
X133520000Y-74710000D02*
X133520000Y-72610000D01*
G75*
G02*
X133570000Y-72560000I50000J0D01*
G01*
X135670000Y-72560000D01*
G75*
G02*
X135720000Y-72610000I0J-50000D01*
G01*
X135720000Y-74710000D01*
G75*
G02*
X135670000Y-74760000I-50000J0D01*
G01*
X133570000Y-74760000D01*
G75*
G02*
X133520000Y-74710000I0J50000D01*
G01*
G37*
%TD*%
%TO.C,REF\u002A\u002A*%
G36*
G01*
X133520000Y-72170000D02*
X133520000Y-70070000D01*
G75*
G02*
X133570000Y-70020000I50000J0D01*
G01*
X135670000Y-70020000D01*
G75*
G02*
X135720000Y-70070000I0J-50000D01*
G01*
X135720000Y-72170000D01*
G75*
G02*
X135670000Y-72220000I-50000J0D01*
G01*
X133570000Y-72220000D01*
G75*
G02*
X133520000Y-72170000I0J50000D01*
G01*
G37*
%TD*%
%TO.C,REF\u002A\u002A*%
G36*
G01*
X138600000Y-77250000D02*
X138600000Y-75150000D01*
G75*
G02*
X138650000Y-75100000I50000J0D01*
G01*
X140750000Y-75100000D01*
G75*
G02*
X140800000Y-75150000I0J-50000D01*
G01*
X140800000Y-77250000D01*
G75*
G02*
X140750000Y-77300000I-50000J0D01*
G01*
X138650000Y-77300000D01*
G75*
G02*
X138600000Y-77250000I0J50000D01*
G01*
G37*
%TD*%
%TO.C,REF\u002A\u002A*%
G36*
G01*
X138600000Y-79790000D02*
X138600000Y-77690000D01*
G75*
G02*
X138650000Y-77640000I50000J0D01*
G01*
X140750000Y-77640000D01*
G75*
G02*
X140800000Y-77690000I0J-50000D01*
G01*
X140800000Y-79790000D01*
G75*
G02*
X140750000Y-79840000I-50000J0D01*
G01*
X138650000Y-79840000D01*
G75*
G02*
X138600000Y-79790000I0J50000D01*
G01*
G37*
%TD*%
%TO.C,REF\u002A\u002A*%
G36*
G01*
X136060000Y-77250000D02*
X136060000Y-75150000D01*
G75*
G02*
X136110000Y-75100000I50000J0D01*
G01*
X138210000Y-75100000D01*
G75*
G02*
X138260000Y-75150000I0J-50000D01*
G01*
X138260000Y-77250000D01*
G75*
G02*
X138210000Y-77300000I-50000J0D01*
G01*
X136110000Y-77300000D01*
G75*
G02*
X136060000Y-77250000I0J50000D01*
G01*
G37*
%TD*%
%TO.C,REF\u002A\u002A*%
G36*
G01*
X136060000Y-79790000D02*
X136060000Y-77690000D01*
G75*
G02*
X136110000Y-77640000I50000J0D01*
G01*
X138210000Y-77640000D01*
G75*
G02*
X138260000Y-77690000I0J-50000D01*
G01*
X138260000Y-79790000D01*
G75*
G02*
X138210000Y-79840000I-50000J0D01*
G01*
X136110000Y-79840000D01*
G75*
G02*
X136060000Y-79790000I0J50000D01*
G01*
G37*
%TD*%
%TO.C,REF\u002A\u002A*%
G36*
G01*
X136060000Y-82330000D02*
X136060000Y-80230000D01*
G75*
G02*
X136110000Y-80180000I50000J0D01*
G01*
X138210000Y-80180000D01*
G75*
G02*
X138260000Y-80230000I0J-50000D01*
G01*
X138260000Y-82330000D01*
G75*
G02*
X138210000Y-82380000I-50000J0D01*
G01*
X136110000Y-82380000D01*
G75*
G02*
X136060000Y-82330000I0J50000D01*
G01*
G37*
%TD*%
%TO.C,REF\u002A\u002A*%
G36*
G01*
X136060000Y-74710000D02*
X136060000Y-72610000D01*
G75*
G02*
X136110000Y-72560000I50000J0D01*
G01*
X138210000Y-72560000D01*
G75*
G02*
X138260000Y-72610000I0J-50000D01*
G01*
X138260000Y-74710000D01*
G75*
G02*
X138210000Y-74760000I-50000J0D01*
G01*
X136110000Y-74760000D01*
G75*
G02*
X136060000Y-74710000I0J50000D01*
G01*
G37*
%TD*%
%TO.C,REF\u002A\u002A*%
G36*
G01*
X136060000Y-72170000D02*
X136060000Y-70070000D01*
G75*
G02*
X136110000Y-70020000I50000J0D01*
G01*
X138210000Y-70020000D01*
G75*
G02*
X138260000Y-70070000I0J-50000D01*
G01*
X138260000Y-72170000D01*
G75*
G02*
X138210000Y-72220000I-50000J0D01*
G01*
X136110000Y-72220000D01*
G75*
G02*
X136060000Y-72170000I0J50000D01*
G01*
G37*
%TD*%
%TO.C,REF\u002A\u002A*%
G36*
G01*
X138600000Y-82330000D02*
X138600000Y-80230000D01*
G75*
G02*
X138650000Y-80180000I50000J0D01*
G01*
X140750000Y-80180000D01*
G75*
G02*
X140800000Y-80230000I0J-50000D01*
G01*
X140800000Y-82330000D01*
G75*
G02*
X140750000Y-82380000I-50000J0D01*
G01*
X138650000Y-82380000D01*
G75*
G02*
X138600000Y-82330000I0J50000D01*
G01*
G37*
%TD*%
%TO.C,REF\u002A\u002A*%
G36*
G01*
X138600000Y-74710000D02*
X138600000Y-72610000D01*
G75*
G02*
X138650000Y-72560000I50000J0D01*
G01*
X140750000Y-72560000D01*
G75*
G02*
X140800000Y-72610000I0J-50000D01*
G01*
X140800000Y-74710000D01*
G75*
G02*
X140750000Y-74760000I-50000J0D01*
G01*
X138650000Y-74760000D01*
G75*
G02*
X138600000Y-74710000I0J50000D01*
G01*
G37*
%TD*%
%TO.C,REF\u002A\u002A*%
G36*
G01*
X138600000Y-72170000D02*
X138600000Y-70070000D01*
G75*
G02*
X138650000Y-70020000I50000J0D01*
G01*
X140750000Y-70020000D01*
G75*
G02*
X140800000Y-70070000I0J-50000D01*
G01*
X140800000Y-72170000D01*
G75*
G02*
X140750000Y-72220000I-50000J0D01*
G01*
X138650000Y-72220000D01*
G75*
G02*
X138600000Y-72170000I0J50000D01*
G01*
G37*
%TD*%
%TO.C,REF\u002A\u002A*%
G36*
G01*
X141140000Y-77250000D02*
X141140000Y-75150000D01*
G75*
G02*
X141190000Y-75100000I50000J0D01*
G01*
X143290000Y-75100000D01*
G75*
G02*
X143340000Y-75150000I0J-50000D01*
G01*
X143340000Y-77250000D01*
G75*
G02*
X143290000Y-77300000I-50000J0D01*
G01*
X141190000Y-77300000D01*
G75*
G02*
X141140000Y-77250000I0J50000D01*
G01*
G37*
%TD*%
%TO.C,REF\u002A\u002A*%
G36*
G01*
X141140000Y-79790000D02*
X141140000Y-77690000D01*
G75*
G02*
X141190000Y-77640000I50000J0D01*
G01*
X143290000Y-77640000D01*
G75*
G02*
X143340000Y-77690000I0J-50000D01*
G01*
X143340000Y-79790000D01*
G75*
G02*
X143290000Y-79840000I-50000J0D01*
G01*
X141190000Y-79840000D01*
G75*
G02*
X141140000Y-79790000I0J50000D01*
G01*
G37*
%TD*%
%TO.C,REF\u002A\u002A*%
G36*
G01*
X141140000Y-82330000D02*
X141140000Y-80230000D01*
G75*
G02*
X141190000Y-80180000I50000J0D01*
G01*
X143290000Y-80180000D01*
G75*
G02*
X143340000Y-80230000I0J-50000D01*
G01*
X143340000Y-82330000D01*
G75*
G02*
X143290000Y-82380000I-50000J0D01*
G01*
X141190000Y-82380000D01*
G75*
G02*
X141140000Y-82330000I0J50000D01*
G01*
G37*
%TD*%
%TO.C,REF\u002A\u002A*%
G36*
G01*
X141140000Y-74710000D02*
X141140000Y-72610000D01*
G75*
G02*
X141190000Y-72560000I50000J0D01*
G01*
X143290000Y-72560000D01*
G75*
G02*
X143340000Y-72610000I0J-50000D01*
G01*
X143340000Y-74710000D01*
G75*
G02*
X143290000Y-74760000I-50000J0D01*
G01*
X141190000Y-74760000D01*
G75*
G02*
X141140000Y-74710000I0J50000D01*
G01*
G37*
%TD*%
%TO.C,REF\u002A\u002A*%
G36*
G01*
X141140000Y-72170000D02*
X141140000Y-70070000D01*
G75*
G02*
X141190000Y-70020000I50000J0D01*
G01*
X143290000Y-70020000D01*
G75*
G02*
X143340000Y-70070000I0J-50000D01*
G01*
X143340000Y-72170000D01*
G75*
G02*
X143290000Y-72220000I-50000J0D01*
G01*
X141190000Y-72220000D01*
G75*
G02*
X141140000Y-72170000I0J50000D01*
G01*
G37*
%TD*%
%TO.C,REF\u002A\u002A*%
G36*
G01*
X143680000Y-74710000D02*
X143680000Y-72610000D01*
G75*
G02*
X143730000Y-72560000I50000J0D01*
G01*
X145830000Y-72560000D01*
G75*
G02*
X145880000Y-72610000I0J-50000D01*
G01*
X145880000Y-74710000D01*
G75*
G02*
X145830000Y-74760000I-50000J0D01*
G01*
X143730000Y-74760000D01*
G75*
G02*
X143680000Y-74710000I0J50000D01*
G01*
G37*
%TD*%
%TO.C,REF\u002A\u002A*%
G36*
G01*
X143680000Y-72170000D02*
X143680000Y-70070000D01*
G75*
G02*
X143730000Y-70020000I50000J0D01*
G01*
X145830000Y-70020000D01*
G75*
G02*
X145880000Y-70070000I0J-50000D01*
G01*
X145880000Y-72170000D01*
G75*
G02*
X145830000Y-72220000I-50000J0D01*
G01*
X143730000Y-72220000D01*
G75*
G02*
X143680000Y-72170000I0J50000D01*
G01*
G37*
%TD*%
%TO.C,REF\u002A\u002A*%
G36*
G01*
X143680000Y-79790000D02*
X143680000Y-77690000D01*
G75*
G02*
X143730000Y-77640000I50000J0D01*
G01*
X145830000Y-77640000D01*
G75*
G02*
X145880000Y-77690000I0J-50000D01*
G01*
X145880000Y-79790000D01*
G75*
G02*
X145830000Y-79840000I-50000J0D01*
G01*
X143730000Y-79840000D01*
G75*
G02*
X143680000Y-79790000I0J50000D01*
G01*
G37*
%TD*%
%TO.C,REF\u002A\u002A*%
G36*
G01*
X143680000Y-77250000D02*
X143680000Y-75150000D01*
G75*
G02*
X143730000Y-75100000I50000J0D01*
G01*
X145830000Y-75100000D01*
G75*
G02*
X145880000Y-75150000I0J-50000D01*
G01*
X145880000Y-77250000D01*
G75*
G02*
X145830000Y-77300000I-50000J0D01*
G01*
X143730000Y-77300000D01*
G75*
G02*
X143680000Y-77250000I0J50000D01*
G01*
G37*
%TD*%
%TO.C,REF\u002A\u002A*%
G36*
G01*
X143680000Y-82330000D02*
X143680000Y-80230000D01*
G75*
G02*
X143730000Y-80180000I50000J0D01*
G01*
X145830000Y-80180000D01*
G75*
G02*
X145880000Y-80230000I0J-50000D01*
G01*
X145880000Y-82330000D01*
G75*
G02*
X145830000Y-82380000I-50000J0D01*
G01*
X143730000Y-82380000D01*
G75*
G02*
X143680000Y-82330000I0J50000D01*
G01*
G37*
%TD*%
%TO.C,C202*%
G36*
G01*
X168508750Y-62975000D02*
X169071250Y-62975000D01*
G75*
G02*
X169315000Y-63218750I0J-243750D01*
G01*
X169315000Y-63706250D01*
G75*
G02*
X169071250Y-63950000I-243750J0D01*
G01*
X168508750Y-63950000D01*
G75*
G02*
X168265000Y-63706250I0J243750D01*
G01*
X168265000Y-63218750D01*
G75*
G02*
X168508750Y-62975000I243750J0D01*
G01*
G37*
G36*
G01*
X168508750Y-64550000D02*
X169071250Y-64550000D01*
G75*
G02*
X169315000Y-64793750I0J-243750D01*
G01*
X169315000Y-65281250D01*
G75*
G02*
X169071250Y-65525000I-243750J0D01*
G01*
X168508750Y-65525000D01*
G75*
G02*
X168265000Y-65281250I0J243750D01*
G01*
X168265000Y-64793750D01*
G75*
G02*
X168508750Y-64550000I243750J0D01*
G01*
G37*
%TD*%
%TO.C,C203*%
G36*
G01*
X167784000Y-62217500D02*
X167784000Y-61822500D01*
G75*
G02*
X167956500Y-61650000I172500J0D01*
G01*
X168301500Y-61650000D01*
G75*
G02*
X168474000Y-61822500I0J-172500D01*
G01*
X168474000Y-62217500D01*
G75*
G02*
X168301500Y-62390000I-172500J0D01*
G01*
X167956500Y-62390000D01*
G75*
G02*
X167784000Y-62217500I0J172500D01*
G01*
G37*
G36*
G01*
X168754000Y-62217500D02*
X168754000Y-61822500D01*
G75*
G02*
X168926500Y-61650000I172500J0D01*
G01*
X169271500Y-61650000D01*
G75*
G02*
X169444000Y-61822500I0J-172500D01*
G01*
X169444000Y-62217500D01*
G75*
G02*
X169271500Y-62390000I-172500J0D01*
G01*
X168926500Y-62390000D01*
G75*
G02*
X168754000Y-62217500I0J172500D01*
G01*
G37*
%TD*%
%TO.C,C301*%
G36*
G01*
X92529000Y-96620500D02*
X92529000Y-97930500D01*
G75*
G02*
X92259000Y-98200500I-270000J0D01*
G01*
X91449000Y-98200500D01*
G75*
G02*
X91179000Y-97930500I0J270000D01*
G01*
X91179000Y-96620500D01*
G75*
G02*
X91449000Y-96350500I270000J0D01*
G01*
X92259000Y-96350500D01*
G75*
G02*
X92529000Y-96620500I0J-270000D01*
G01*
G37*
G36*
G01*
X95329000Y-96620500D02*
X95329000Y-97930500D01*
G75*
G02*
X95059000Y-98200500I-270000J0D01*
G01*
X94249000Y-98200500D01*
G75*
G02*
X93979000Y-97930500I0J270000D01*
G01*
X93979000Y-96620500D01*
G75*
G02*
X94249000Y-96350500I270000J0D01*
G01*
X95059000Y-96350500D01*
G75*
G02*
X95329000Y-96620500I0J-270000D01*
G01*
G37*
%TD*%
%TO.C,C302*%
G36*
G01*
X100527500Y-100505000D02*
X100922500Y-100505000D01*
G75*
G02*
X101095000Y-100677500I0J-172500D01*
G01*
X101095000Y-101022500D01*
G75*
G02*
X100922500Y-101195000I-172500J0D01*
G01*
X100527500Y-101195000D01*
G75*
G02*
X100355000Y-101022500I0J172500D01*
G01*
X100355000Y-100677500D01*
G75*
G02*
X100527500Y-100505000I172500J0D01*
G01*
G37*
G36*
G01*
X100527500Y-99535000D02*
X100922500Y-99535000D01*
G75*
G02*
X101095000Y-99707500I0J-172500D01*
G01*
X101095000Y-100052500D01*
G75*
G02*
X100922500Y-100225000I-172500J0D01*
G01*
X100527500Y-100225000D01*
G75*
G02*
X100355000Y-100052500I0J172500D01*
G01*
X100355000Y-99707500D01*
G75*
G02*
X100527500Y-99535000I172500J0D01*
G01*
G37*
%TD*%
%TO.C,C304*%
G36*
G01*
X95521000Y-88418750D02*
X95521000Y-89381250D01*
G75*
G02*
X95252250Y-89650000I-268750J0D01*
G01*
X94714750Y-89650000D01*
G75*
G02*
X94446000Y-89381250I0J268750D01*
G01*
X94446000Y-88418750D01*
G75*
G02*
X94714750Y-88150000I268750J0D01*
G01*
X95252250Y-88150000D01*
G75*
G02*
X95521000Y-88418750I0J-268750D01*
G01*
G37*
G36*
G01*
X97396000Y-88418750D02*
X97396000Y-89381250D01*
G75*
G02*
X97127250Y-89650000I-268750J0D01*
G01*
X96589750Y-89650000D01*
G75*
G02*
X96321000Y-89381250I0J268750D01*
G01*
X96321000Y-88418750D01*
G75*
G02*
X96589750Y-88150000I268750J0D01*
G01*
X97127250Y-88150000D01*
G75*
G02*
X97396000Y-88418750I0J-268750D01*
G01*
G37*
%TD*%
%TO.C,C305*%
G36*
G01*
X96715000Y-87178500D02*
X96715000Y-87573500D01*
G75*
G02*
X96542500Y-87746000I-172500J0D01*
G01*
X96197500Y-87746000D01*
G75*
G02*
X96025000Y-87573500I0J172500D01*
G01*
X96025000Y-87178500D01*
G75*
G02*
X96197500Y-87006000I172500J0D01*
G01*
X96542500Y-87006000D01*
G75*
G02*
X96715000Y-87178500I0J-172500D01*
G01*
G37*
G36*
G01*
X95745000Y-87178500D02*
X95745000Y-87573500D01*
G75*
G02*
X95572500Y-87746000I-172500J0D01*
G01*
X95227500Y-87746000D01*
G75*
G02*
X95055000Y-87573500I0J172500D01*
G01*
X95055000Y-87178500D01*
G75*
G02*
X95227500Y-87006000I172500J0D01*
G01*
X95572500Y-87006000D01*
G75*
G02*
X95745000Y-87178500I0J-172500D01*
G01*
G37*
%TD*%
%TO.C,C402*%
G36*
G01*
X156368750Y-98150000D02*
X156931250Y-98150000D01*
G75*
G02*
X157175000Y-98393750I0J-243750D01*
G01*
X157175000Y-98881250D01*
G75*
G02*
X156931250Y-99125000I-243750J0D01*
G01*
X156368750Y-99125000D01*
G75*
G02*
X156125000Y-98881250I0J243750D01*
G01*
X156125000Y-98393750D01*
G75*
G02*
X156368750Y-98150000I243750J0D01*
G01*
G37*
G36*
G01*
X156368750Y-96575000D02*
X156931250Y-96575000D01*
G75*
G02*
X157175000Y-96818750I0J-243750D01*
G01*
X157175000Y-97306250D01*
G75*
G02*
X156931250Y-97550000I-243750J0D01*
G01*
X156368750Y-97550000D01*
G75*
G02*
X156125000Y-97306250I0J243750D01*
G01*
X156125000Y-96818750D01*
G75*
G02*
X156368750Y-96575000I243750J0D01*
G01*
G37*
%TD*%
%TO.C,C403*%
G36*
G01*
X169495500Y-95501000D02*
X169100500Y-95501000D01*
G75*
G02*
X168928000Y-95328500I0J172500D01*
G01*
X168928000Y-94983500D01*
G75*
G02*
X169100500Y-94811000I172500J0D01*
G01*
X169495500Y-94811000D01*
G75*
G02*
X169668000Y-94983500I0J-172500D01*
G01*
X169668000Y-95328500D01*
G75*
G02*
X169495500Y-95501000I-172500J0D01*
G01*
G37*
G36*
G01*
X169495500Y-94531000D02*
X169100500Y-94531000D01*
G75*
G02*
X168928000Y-94358500I0J172500D01*
G01*
X168928000Y-94013500D01*
G75*
G02*
X169100500Y-93841000I172500J0D01*
G01*
X169495500Y-93841000D01*
G75*
G02*
X169668000Y-94013500I0J-172500D01*
G01*
X169668000Y-94358500D01*
G75*
G02*
X169495500Y-94531000I-172500J0D01*
G01*
G37*
%TD*%
%TO.C,C404*%
G36*
G01*
X169100500Y-95896000D02*
X169495500Y-95896000D01*
G75*
G02*
X169668000Y-96068500I0J-172500D01*
G01*
X169668000Y-96413500D01*
G75*
G02*
X169495500Y-96586000I-172500J0D01*
G01*
X169100500Y-96586000D01*
G75*
G02*
X168928000Y-96413500I0J172500D01*
G01*
X168928000Y-96068500D01*
G75*
G02*
X169100500Y-95896000I172500J0D01*
G01*
G37*
G36*
G01*
X169100500Y-96866000D02*
X169495500Y-96866000D01*
G75*
G02*
X169668000Y-97038500I0J-172500D01*
G01*
X169668000Y-97383500D01*
G75*
G02*
X169495500Y-97556000I-172500J0D01*
G01*
X169100500Y-97556000D01*
G75*
G02*
X168928000Y-97383500I0J172500D01*
G01*
X168928000Y-97038500D01*
G75*
G02*
X169100500Y-96866000I172500J0D01*
G01*
G37*
%TD*%
%TO.C,C501*%
G36*
G01*
X166450000Y-101868750D02*
X166450000Y-102431250D01*
G75*
G02*
X166206250Y-102675000I-243750J0D01*
G01*
X165718750Y-102675000D01*
G75*
G02*
X165475000Y-102431250I0J243750D01*
G01*
X165475000Y-101868750D01*
G75*
G02*
X165718750Y-101625000I243750J0D01*
G01*
X166206250Y-101625000D01*
G75*
G02*
X166450000Y-101868750I0J-243750D01*
G01*
G37*
G36*
G01*
X168025000Y-101868750D02*
X168025000Y-102431250D01*
G75*
G02*
X167781250Y-102675000I-243750J0D01*
G01*
X167293750Y-102675000D01*
G75*
G02*
X167050000Y-102431250I0J243750D01*
G01*
X167050000Y-101868750D01*
G75*
G02*
X167293750Y-101625000I243750J0D01*
G01*
X167781250Y-101625000D01*
G75*
G02*
X168025000Y-101868750I0J-243750D01*
G01*
G37*
%TD*%
%TO.C,C502*%
G36*
G01*
X169431250Y-110575000D02*
X168868750Y-110575000D01*
G75*
G02*
X168625000Y-110331250I0J243750D01*
G01*
X168625000Y-109843750D01*
G75*
G02*
X168868750Y-109600000I243750J0D01*
G01*
X169431250Y-109600000D01*
G75*
G02*
X169675000Y-109843750I0J-243750D01*
G01*
X169675000Y-110331250D01*
G75*
G02*
X169431250Y-110575000I-243750J0D01*
G01*
G37*
G36*
G01*
X169431250Y-109000000D02*
X168868750Y-109000000D01*
G75*
G02*
X168625000Y-108756250I0J243750D01*
G01*
X168625000Y-108268750D01*
G75*
G02*
X168868750Y-108025000I243750J0D01*
G01*
X169431250Y-108025000D01*
G75*
G02*
X169675000Y-108268750I0J-243750D01*
G01*
X169675000Y-108756250D01*
G75*
G02*
X169431250Y-109000000I-243750J0D01*
G01*
G37*
%TD*%
%TO.C,C602*%
G36*
G01*
X114483500Y-99835000D02*
X114878500Y-99835000D01*
G75*
G02*
X115051000Y-100007500I0J-172500D01*
G01*
X115051000Y-100352500D01*
G75*
G02*
X114878500Y-100525000I-172500J0D01*
G01*
X114483500Y-100525000D01*
G75*
G02*
X114311000Y-100352500I0J172500D01*
G01*
X114311000Y-100007500D01*
G75*
G02*
X114483500Y-99835000I172500J0D01*
G01*
G37*
G36*
G01*
X114483500Y-98865000D02*
X114878500Y-98865000D01*
G75*
G02*
X115051000Y-99037500I0J-172500D01*
G01*
X115051000Y-99382500D01*
G75*
G02*
X114878500Y-99555000I-172500J0D01*
G01*
X114483500Y-99555000D01*
G75*
G02*
X114311000Y-99382500I0J172500D01*
G01*
X114311000Y-99037500D01*
G75*
G02*
X114483500Y-98865000I172500J0D01*
G01*
G37*
%TD*%
%TO.C,C603*%
G36*
G01*
X119470250Y-98537500D02*
X120432750Y-98537500D01*
G75*
G02*
X120701500Y-98806250I0J-268750D01*
G01*
X120701500Y-99343750D01*
G75*
G02*
X120432750Y-99612500I-268750J0D01*
G01*
X119470250Y-99612500D01*
G75*
G02*
X119201500Y-99343750I0J268750D01*
G01*
X119201500Y-98806250D01*
G75*
G02*
X119470250Y-98537500I268750J0D01*
G01*
G37*
G36*
G01*
X119470250Y-100412500D02*
X120432750Y-100412500D01*
G75*
G02*
X120701500Y-100681250I0J-268750D01*
G01*
X120701500Y-101218750D01*
G75*
G02*
X120432750Y-101487500I-268750J0D01*
G01*
X119470250Y-101487500D01*
G75*
G02*
X119201500Y-101218750I0J268750D01*
G01*
X119201500Y-100681250D01*
G75*
G02*
X119470250Y-100412500I268750J0D01*
G01*
G37*
%TD*%
%TO.C,C604*%
G36*
G01*
X118438000Y-87796500D02*
X118438000Y-87401500D01*
G75*
G02*
X118610500Y-87229000I172500J0D01*
G01*
X118955500Y-87229000D01*
G75*
G02*
X119128000Y-87401500I0J-172500D01*
G01*
X119128000Y-87796500D01*
G75*
G02*
X118955500Y-87969000I-172500J0D01*
G01*
X118610500Y-87969000D01*
G75*
G02*
X118438000Y-87796500I0J172500D01*
G01*
G37*
G36*
G01*
X119408000Y-87796500D02*
X119408000Y-87401500D01*
G75*
G02*
X119580500Y-87229000I172500J0D01*
G01*
X119925500Y-87229000D01*
G75*
G02*
X120098000Y-87401500I0J-172500D01*
G01*
X120098000Y-87796500D01*
G75*
G02*
X119925500Y-87969000I-172500J0D01*
G01*
X119580500Y-87969000D01*
G75*
G02*
X119408000Y-87796500I0J172500D01*
G01*
G37*
%TD*%
%TO.C,C605*%
G36*
G01*
X118252500Y-94125250D02*
X118252500Y-93562750D01*
G75*
G02*
X118496250Y-93319000I243750J0D01*
G01*
X118983750Y-93319000D01*
G75*
G02*
X119227500Y-93562750I0J-243750D01*
G01*
X119227500Y-94125250D01*
G75*
G02*
X118983750Y-94369000I-243750J0D01*
G01*
X118496250Y-94369000D01*
G75*
G02*
X118252500Y-94125250I0J243750D01*
G01*
G37*
G36*
G01*
X119827500Y-94125250D02*
X119827500Y-93562750D01*
G75*
G02*
X120071250Y-93319000I243750J0D01*
G01*
X120558750Y-93319000D01*
G75*
G02*
X120802500Y-93562750I0J-243750D01*
G01*
X120802500Y-94125250D01*
G75*
G02*
X120558750Y-94369000I-243750J0D01*
G01*
X120071250Y-94369000D01*
G75*
G02*
X119827500Y-94125250I0J243750D01*
G01*
G37*
%TD*%
%TO.C,C701*%
G36*
G01*
X148096000Y-90924500D02*
X148096000Y-90529500D01*
G75*
G02*
X148268500Y-90357000I172500J0D01*
G01*
X148613500Y-90357000D01*
G75*
G02*
X148786000Y-90529500I0J-172500D01*
G01*
X148786000Y-90924500D01*
G75*
G02*
X148613500Y-91097000I-172500J0D01*
G01*
X148268500Y-91097000D01*
G75*
G02*
X148096000Y-90924500I0J172500D01*
G01*
G37*
G36*
G01*
X149066000Y-90924500D02*
X149066000Y-90529500D01*
G75*
G02*
X149238500Y-90357000I172500J0D01*
G01*
X149583500Y-90357000D01*
G75*
G02*
X149756000Y-90529500I0J-172500D01*
G01*
X149756000Y-90924500D01*
G75*
G02*
X149583500Y-91097000I-172500J0D01*
G01*
X149238500Y-91097000D01*
G75*
G02*
X149066000Y-90924500I0J172500D01*
G01*
G37*
%TD*%
%TO.C,C702*%
G36*
G01*
X144120000Y-90606500D02*
X144120000Y-91001500D01*
G75*
G02*
X143947500Y-91174000I-172500J0D01*
G01*
X143602500Y-91174000D01*
G75*
G02*
X143430000Y-91001500I0J172500D01*
G01*
X143430000Y-90606500D01*
G75*
G02*
X143602500Y-90434000I172500J0D01*
G01*
X143947500Y-90434000D01*
G75*
G02*
X144120000Y-90606500I0J-172500D01*
G01*
G37*
G36*
G01*
X143150000Y-90606500D02*
X143150000Y-91001500D01*
G75*
G02*
X142977500Y-91174000I-172500J0D01*
G01*
X142632500Y-91174000D01*
G75*
G02*
X142460000Y-91001500I0J172500D01*
G01*
X142460000Y-90606500D01*
G75*
G02*
X142632500Y-90434000I172500J0D01*
G01*
X142977500Y-90434000D01*
G75*
G02*
X143150000Y-90606500I0J-172500D01*
G01*
G37*
%TD*%
%TO.C,C703*%
G36*
G01*
X146813000Y-90656500D02*
X146813000Y-91051500D01*
G75*
G02*
X146640500Y-91224000I-172500J0D01*
G01*
X146295500Y-91224000D01*
G75*
G02*
X146123000Y-91051500I0J172500D01*
G01*
X146123000Y-90656500D01*
G75*
G02*
X146295500Y-90484000I172500J0D01*
G01*
X146640500Y-90484000D01*
G75*
G02*
X146813000Y-90656500I0J-172500D01*
G01*
G37*
G36*
G01*
X147783000Y-90656500D02*
X147783000Y-91051500D01*
G75*
G02*
X147610500Y-91224000I-172500J0D01*
G01*
X147265500Y-91224000D01*
G75*
G02*
X147093000Y-91051500I0J172500D01*
G01*
X147093000Y-90656500D01*
G75*
G02*
X147265500Y-90484000I172500J0D01*
G01*
X147610500Y-90484000D01*
G75*
G02*
X147783000Y-90656500I0J-172500D01*
G01*
G37*
%TD*%
%TO.C,C704*%
G36*
G01*
X151763000Y-91783000D02*
X150453000Y-91783000D01*
G75*
G02*
X150183000Y-91513000I0J270000D01*
G01*
X150183000Y-90703000D01*
G75*
G02*
X150453000Y-90433000I270000J0D01*
G01*
X151763000Y-90433000D01*
G75*
G02*
X152033000Y-90703000I0J-270000D01*
G01*
X152033000Y-91513000D01*
G75*
G02*
X151763000Y-91783000I-270000J0D01*
G01*
G37*
G36*
G01*
X151763000Y-94583000D02*
X150453000Y-94583000D01*
G75*
G02*
X150183000Y-94313000I0J270000D01*
G01*
X150183000Y-93503000D01*
G75*
G02*
X150453000Y-93233000I270000J0D01*
G01*
X151763000Y-93233000D01*
G75*
G02*
X152033000Y-93503000I0J-270000D01*
G01*
X152033000Y-94313000D01*
G75*
G02*
X151763000Y-94583000I-270000J0D01*
G01*
G37*
%TD*%
%TO.C,C705*%
G36*
G01*
X141666250Y-92891500D02*
X141103750Y-92891500D01*
G75*
G02*
X140860000Y-92647750I0J243750D01*
G01*
X140860000Y-92160250D01*
G75*
G02*
X141103750Y-91916500I243750J0D01*
G01*
X141666250Y-91916500D01*
G75*
G02*
X141910000Y-92160250I0J-243750D01*
G01*
X141910000Y-92647750D01*
G75*
G02*
X141666250Y-92891500I-243750J0D01*
G01*
G37*
G36*
G01*
X141666250Y-94466500D02*
X141103750Y-94466500D01*
G75*
G02*
X140860000Y-94222750I0J243750D01*
G01*
X140860000Y-93735250D01*
G75*
G02*
X141103750Y-93491500I243750J0D01*
G01*
X141666250Y-93491500D01*
G75*
G02*
X141910000Y-93735250I0J-243750D01*
G01*
X141910000Y-94222750D01*
G75*
G02*
X141666250Y-94466500I-243750J0D01*
G01*
G37*
%TD*%
%TO.C,C706*%
G36*
G01*
X145306250Y-94516500D02*
X144743750Y-94516500D01*
G75*
G02*
X144500000Y-94272750I0J243750D01*
G01*
X144500000Y-93785250D01*
G75*
G02*
X144743750Y-93541500I243750J0D01*
G01*
X145306250Y-93541500D01*
G75*
G02*
X145550000Y-93785250I0J-243750D01*
G01*
X145550000Y-94272750D01*
G75*
G02*
X145306250Y-94516500I-243750J0D01*
G01*
G37*
G36*
G01*
X145306250Y-92941500D02*
X144743750Y-92941500D01*
G75*
G02*
X144500000Y-92697750I0J243750D01*
G01*
X144500000Y-92210250D01*
G75*
G02*
X144743750Y-91966500I243750J0D01*
G01*
X145306250Y-91966500D01*
G75*
G02*
X145550000Y-92210250I0J-243750D01*
G01*
X145550000Y-92697750D01*
G75*
G02*
X145306250Y-92941500I-243750J0D01*
G01*
G37*
%TD*%
%TO.C,C801*%
G36*
G01*
X144709500Y-107986000D02*
X145104500Y-107986000D01*
G75*
G02*
X145277000Y-108158500I0J-172500D01*
G01*
X145277000Y-108503500D01*
G75*
G02*
X145104500Y-108676000I-172500J0D01*
G01*
X144709500Y-108676000D01*
G75*
G02*
X144537000Y-108503500I0J172500D01*
G01*
X144537000Y-108158500D01*
G75*
G02*
X144709500Y-107986000I172500J0D01*
G01*
G37*
G36*
G01*
X144709500Y-107016000D02*
X145104500Y-107016000D01*
G75*
G02*
X145277000Y-107188500I0J-172500D01*
G01*
X145277000Y-107533500D01*
G75*
G02*
X145104500Y-107706000I-172500J0D01*
G01*
X144709500Y-107706000D01*
G75*
G02*
X144537000Y-107533500I0J172500D01*
G01*
X144537000Y-107188500D01*
G75*
G02*
X144709500Y-107016000I172500J0D01*
G01*
G37*
%TD*%
%TO.C,C802*%
G36*
G01*
X151303000Y-106834250D02*
X151303000Y-106271750D01*
G75*
G02*
X151546750Y-106028000I243750J0D01*
G01*
X152034250Y-106028000D01*
G75*
G02*
X152278000Y-106271750I0J-243750D01*
G01*
X152278000Y-106834250D01*
G75*
G02*
X152034250Y-107078000I-243750J0D01*
G01*
X151546750Y-107078000D01*
G75*
G02*
X151303000Y-106834250I0J243750D01*
G01*
G37*
G36*
G01*
X149728000Y-106834250D02*
X149728000Y-106271750D01*
G75*
G02*
X149971750Y-106028000I243750J0D01*
G01*
X150459250Y-106028000D01*
G75*
G02*
X150703000Y-106271750I0J-243750D01*
G01*
X150703000Y-106834250D01*
G75*
G02*
X150459250Y-107078000I-243750J0D01*
G01*
X149971750Y-107078000D01*
G75*
G02*
X149728000Y-106834250I0J243750D01*
G01*
G37*
%TD*%
%TO.C,C803*%
G36*
G01*
X148760000Y-109454000D02*
X148760000Y-110764000D01*
G75*
G02*
X148490000Y-111034000I-270000J0D01*
G01*
X147680000Y-111034000D01*
G75*
G02*
X147410000Y-110764000I0J270000D01*
G01*
X147410000Y-109454000D01*
G75*
G02*
X147680000Y-109184000I270000J0D01*
G01*
X148490000Y-109184000D01*
G75*
G02*
X148760000Y-109454000I0J-270000D01*
G01*
G37*
G36*
G01*
X145960000Y-109454000D02*
X145960000Y-110764000D01*
G75*
G02*
X145690000Y-111034000I-270000J0D01*
G01*
X144880000Y-111034000D01*
G75*
G02*
X144610000Y-110764000I0J270000D01*
G01*
X144610000Y-109454000D01*
G75*
G02*
X144880000Y-109184000I270000J0D01*
G01*
X145690000Y-109184000D01*
G75*
G02*
X145960000Y-109454000I0J-270000D01*
G01*
G37*
%TD*%
%TO.C,C901*%
G36*
G01*
X130751000Y-106228500D02*
X130751000Y-106623500D01*
G75*
G02*
X130578500Y-106796000I-172500J0D01*
G01*
X130233500Y-106796000D01*
G75*
G02*
X130061000Y-106623500I0J172500D01*
G01*
X130061000Y-106228500D01*
G75*
G02*
X130233500Y-106056000I172500J0D01*
G01*
X130578500Y-106056000D01*
G75*
G02*
X130751000Y-106228500I0J-172500D01*
G01*
G37*
G36*
G01*
X129781000Y-106228500D02*
X129781000Y-106623500D01*
G75*
G02*
X129608500Y-106796000I-172500J0D01*
G01*
X129263500Y-106796000D01*
G75*
G02*
X129091000Y-106623500I0J172500D01*
G01*
X129091000Y-106228500D01*
G75*
G02*
X129263500Y-106056000I172500J0D01*
G01*
X129608500Y-106056000D01*
G75*
G02*
X129781000Y-106228500I0J-172500D01*
G01*
G37*
%TD*%
%TO.C,C902*%
G36*
G01*
X138120500Y-110454000D02*
X138515500Y-110454000D01*
G75*
G02*
X138688000Y-110626500I0J-172500D01*
G01*
X138688000Y-110971500D01*
G75*
G02*
X138515500Y-111144000I-172500J0D01*
G01*
X138120500Y-111144000D01*
G75*
G02*
X137948000Y-110971500I0J172500D01*
G01*
X137948000Y-110626500D01*
G75*
G02*
X138120500Y-110454000I172500J0D01*
G01*
G37*
G36*
G01*
X138120500Y-109484000D02*
X138515500Y-109484000D01*
G75*
G02*
X138688000Y-109656500I0J-172500D01*
G01*
X138688000Y-110001500D01*
G75*
G02*
X138515500Y-110174000I-172500J0D01*
G01*
X138120500Y-110174000D01*
G75*
G02*
X137948000Y-110001500I0J172500D01*
G01*
X137948000Y-109656500D01*
G75*
G02*
X138120500Y-109484000I172500J0D01*
G01*
G37*
%TD*%
%TO.C,C903*%
G36*
G01*
X141457000Y-110370500D02*
X141457000Y-110765500D01*
G75*
G02*
X141284500Y-110938000I-172500J0D01*
G01*
X140939500Y-110938000D01*
G75*
G02*
X140767000Y-110765500I0J172500D01*
G01*
X140767000Y-110370500D01*
G75*
G02*
X140939500Y-110198000I172500J0D01*
G01*
X141284500Y-110198000D01*
G75*
G02*
X141457000Y-110370500I0J-172500D01*
G01*
G37*
G36*
G01*
X142427000Y-110370500D02*
X142427000Y-110765500D01*
G75*
G02*
X142254500Y-110938000I-172500J0D01*
G01*
X141909500Y-110938000D01*
G75*
G02*
X141737000Y-110765500I0J172500D01*
G01*
X141737000Y-110370500D01*
G75*
G02*
X141909500Y-110198000I172500J0D01*
G01*
X142254500Y-110198000D01*
G75*
G02*
X142427000Y-110370500I0J-172500D01*
G01*
G37*
%TD*%
%TO.C,C904*%
G36*
G01*
X130980000Y-109532000D02*
X130980000Y-110842000D01*
G75*
G02*
X130710000Y-111112000I-270000J0D01*
G01*
X129900000Y-111112000D01*
G75*
G02*
X129630000Y-110842000I0J270000D01*
G01*
X129630000Y-109532000D01*
G75*
G02*
X129900000Y-109262000I270000J0D01*
G01*
X130710000Y-109262000D01*
G75*
G02*
X130980000Y-109532000I0J-270000D01*
G01*
G37*
G36*
G01*
X128180000Y-109532000D02*
X128180000Y-110842000D01*
G75*
G02*
X127910000Y-111112000I-270000J0D01*
G01*
X127100000Y-111112000D01*
G75*
G02*
X126830000Y-110842000I0J270000D01*
G01*
X126830000Y-109532000D01*
G75*
G02*
X127100000Y-109262000I270000J0D01*
G01*
X127910000Y-109262000D01*
G75*
G02*
X128180000Y-109532000I0J-270000D01*
G01*
G37*
%TD*%
%TO.C,C905*%
G36*
G01*
X132557000Y-110286750D02*
X132557000Y-110849250D01*
G75*
G02*
X132313250Y-111093000I-243750J0D01*
G01*
X131825750Y-111093000D01*
G75*
G02*
X131582000Y-110849250I0J243750D01*
G01*
X131582000Y-110286750D01*
G75*
G02*
X131825750Y-110043000I243750J0D01*
G01*
X132313250Y-110043000D01*
G75*
G02*
X132557000Y-110286750I0J-243750D01*
G01*
G37*
G36*
G01*
X134132000Y-110286750D02*
X134132000Y-110849250D01*
G75*
G02*
X133888250Y-111093000I-243750J0D01*
G01*
X133400750Y-111093000D01*
G75*
G02*
X133157000Y-110849250I0J243750D01*
G01*
X133157000Y-110286750D01*
G75*
G02*
X133400750Y-110043000I243750J0D01*
G01*
X133888250Y-110043000D01*
G75*
G02*
X134132000Y-110286750I0J-243750D01*
G01*
G37*
%TD*%
%TO.C,C906*%
G36*
G01*
X140123250Y-114256000D02*
X139560750Y-114256000D01*
G75*
G02*
X139317000Y-114012250I0J243750D01*
G01*
X139317000Y-113524750D01*
G75*
G02*
X139560750Y-113281000I243750J0D01*
G01*
X140123250Y-113281000D01*
G75*
G02*
X140367000Y-113524750I0J-243750D01*
G01*
X140367000Y-114012250D01*
G75*
G02*
X140123250Y-114256000I-243750J0D01*
G01*
G37*
G36*
G01*
X140123250Y-112681000D02*
X139560750Y-112681000D01*
G75*
G02*
X139317000Y-112437250I0J243750D01*
G01*
X139317000Y-111949750D01*
G75*
G02*
X139560750Y-111706000I243750J0D01*
G01*
X140123250Y-111706000D01*
G75*
G02*
X140367000Y-111949750I0J-243750D01*
G01*
X140367000Y-112437250D01*
G75*
G02*
X140123250Y-112681000I-243750J0D01*
G01*
G37*
%TD*%
%TO.C,D301*%
G36*
G01*
X92104000Y-103523000D02*
X94404000Y-103523000D01*
G75*
G02*
X94454000Y-103573000I0J-50000D01*
G01*
X94454000Y-106073000D01*
G75*
G02*
X94404000Y-106123000I-50000J0D01*
G01*
X92104000Y-106123000D01*
G75*
G02*
X92054000Y-106073000I0J50000D01*
G01*
X92054000Y-103573000D01*
G75*
G02*
X92104000Y-103523000I50000J0D01*
G01*
G37*
G36*
G01*
X92104000Y-99223000D02*
X94404000Y-99223000D01*
G75*
G02*
X94454000Y-99273000I0J-50000D01*
G01*
X94454000Y-101773000D01*
G75*
G02*
X94404000Y-101823000I-50000J0D01*
G01*
X92104000Y-101823000D01*
G75*
G02*
X92054000Y-101773000I0J50000D01*
G01*
X92054000Y-99273000D01*
G75*
G02*
X92104000Y-99223000I50000J0D01*
G01*
G37*
%TD*%
%TO.C,D302*%
G36*
G01*
X97436000Y-90459000D02*
X97436000Y-91659000D01*
G75*
G02*
X97386000Y-91709000I-50000J0D01*
G01*
X96486000Y-91709000D01*
G75*
G02*
X96436000Y-91659000I0J50000D01*
G01*
X96436000Y-90459000D01*
G75*
G02*
X96486000Y-90409000I50000J0D01*
G01*
X97386000Y-90409000D01*
G75*
G02*
X97436000Y-90459000I0J-50000D01*
G01*
G37*
G36*
G01*
X94136000Y-90459000D02*
X94136000Y-91659000D01*
G75*
G02*
X94086000Y-91709000I-50000J0D01*
G01*
X93186000Y-91709000D01*
G75*
G02*
X93136000Y-91659000I0J50000D01*
G01*
X93136000Y-90459000D01*
G75*
G02*
X93186000Y-90409000I50000J0D01*
G01*
X94086000Y-90409000D01*
G75*
G02*
X94136000Y-90459000I0J-50000D01*
G01*
G37*
%TD*%
%TO.C,D501*%
G36*
G01*
X170485000Y-106774750D02*
X170485000Y-106212250D01*
G75*
G02*
X170728750Y-105968500I243750J0D01*
G01*
X171216250Y-105968500D01*
G75*
G02*
X171460000Y-106212250I0J-243750D01*
G01*
X171460000Y-106774750D01*
G75*
G02*
X171216250Y-107018500I-243750J0D01*
G01*
X170728750Y-107018500D01*
G75*
G02*
X170485000Y-106774750I0J243750D01*
G01*
G37*
G36*
G01*
X172060000Y-106774750D02*
X172060000Y-106212250D01*
G75*
G02*
X172303750Y-105968500I243750J0D01*
G01*
X172791250Y-105968500D01*
G75*
G02*
X173035000Y-106212250I0J-243750D01*
G01*
X173035000Y-106774750D01*
G75*
G02*
X172791250Y-107018500I-243750J0D01*
G01*
X172303750Y-107018500D01*
G75*
G02*
X172060000Y-106774750I0J243750D01*
G01*
G37*
%TD*%
%TO.C,D502*%
G36*
G01*
X175565500Y-103242250D02*
X175565500Y-102679750D01*
G75*
G02*
X175809250Y-102436000I243750J0D01*
G01*
X176296750Y-102436000D01*
G75*
G02*
X176540500Y-102679750I0J-243750D01*
G01*
X176540500Y-103242250D01*
G75*
G02*
X176296750Y-103486000I-243750J0D01*
G01*
X175809250Y-103486000D01*
G75*
G02*
X175565500Y-103242250I0J243750D01*
G01*
G37*
G36*
G01*
X173990500Y-103242250D02*
X173990500Y-102679750D01*
G75*
G02*
X174234250Y-102436000I243750J0D01*
G01*
X174721750Y-102436000D01*
G75*
G02*
X174965500Y-102679750I0J-243750D01*
G01*
X174965500Y-103242250D01*
G75*
G02*
X174721750Y-103486000I-243750J0D01*
G01*
X174234250Y-103486000D01*
G75*
G02*
X173990500Y-103242250I0J243750D01*
G01*
G37*
%TD*%
%TO.C,D601*%
G36*
G01*
X122167000Y-99429000D02*
X124467000Y-99429000D01*
G75*
G02*
X124517000Y-99479000I0J-50000D01*
G01*
X124517000Y-101979000D01*
G75*
G02*
X124467000Y-102029000I-50000J0D01*
G01*
X122167000Y-102029000D01*
G75*
G02*
X122117000Y-101979000I0J50000D01*
G01*
X122117000Y-99479000D01*
G75*
G02*
X122167000Y-99429000I50000J0D01*
G01*
G37*
G36*
G01*
X122167000Y-103729000D02*
X124467000Y-103729000D01*
G75*
G02*
X124517000Y-103779000I0J-50000D01*
G01*
X124517000Y-106279000D01*
G75*
G02*
X124467000Y-106329000I-50000J0D01*
G01*
X122167000Y-106329000D01*
G75*
G02*
X122117000Y-106279000I0J50000D01*
G01*
X122117000Y-103779000D01*
G75*
G02*
X122167000Y-103729000I50000J0D01*
G01*
G37*
%TD*%
%TO.C,F301*%
G36*
G01*
X96370000Y-104650000D02*
X97680000Y-104650000D01*
G75*
G02*
X97950000Y-104920000I0J-270000D01*
G01*
X97950000Y-105730000D01*
G75*
G02*
X97680000Y-106000000I-270000J0D01*
G01*
X96370000Y-106000000D01*
G75*
G02*
X96100000Y-105730000I0J270000D01*
G01*
X96100000Y-104920000D01*
G75*
G02*
X96370000Y-104650000I270000J0D01*
G01*
G37*
G36*
G01*
X96370000Y-101850000D02*
X97680000Y-101850000D01*
G75*
G02*
X97950000Y-102120000I0J-270000D01*
G01*
X97950000Y-102930000D01*
G75*
G02*
X97680000Y-103200000I-270000J0D01*
G01*
X96370000Y-103200000D01*
G75*
G02*
X96100000Y-102930000I0J270000D01*
G01*
X96100000Y-102120000D01*
G75*
G02*
X96370000Y-101850000I270000J0D01*
G01*
G37*
%TD*%
%TO.C,F601*%
G36*
G01*
X116411000Y-106056000D02*
X116411000Y-104746000D01*
G75*
G02*
X116681000Y-104476000I270000J0D01*
G01*
X117491000Y-104476000D01*
G75*
G02*
X117761000Y-104746000I0J-270000D01*
G01*
X117761000Y-106056000D01*
G75*
G02*
X117491000Y-106326000I-270000J0D01*
G01*
X116681000Y-106326000D01*
G75*
G02*
X116411000Y-106056000I0J270000D01*
G01*
G37*
G36*
G01*
X119211000Y-106056000D02*
X119211000Y-104746000D01*
G75*
G02*
X119481000Y-104476000I270000J0D01*
G01*
X120291000Y-104476000D01*
G75*
G02*
X120561000Y-104746000I0J-270000D01*
G01*
X120561000Y-106056000D01*
G75*
G02*
X120291000Y-106326000I-270000J0D01*
G01*
X119481000Y-106326000D01*
G75*
G02*
X119211000Y-106056000I0J270000D01*
G01*
G37*
%TD*%
%TO.C,FB301*%
G36*
G01*
X98718750Y-99925000D02*
X99681250Y-99925000D01*
G75*
G02*
X99950000Y-100193750I0J-268750D01*
G01*
X99950000Y-100731250D01*
G75*
G02*
X99681250Y-101000000I-268750J0D01*
G01*
X98718750Y-101000000D01*
G75*
G02*
X98450000Y-100731250I0J268750D01*
G01*
X98450000Y-100193750D01*
G75*
G02*
X98718750Y-99925000I268750J0D01*
G01*
G37*
G36*
G01*
X98718750Y-101800000D02*
X99681250Y-101800000D01*
G75*
G02*
X99950000Y-102068750I0J-268750D01*
G01*
X99950000Y-102606250D01*
G75*
G02*
X99681250Y-102875000I-268750J0D01*
G01*
X98718750Y-102875000D01*
G75*
G02*
X98450000Y-102606250I0J268750D01*
G01*
X98450000Y-102068750D01*
G75*
G02*
X98718750Y-101800000I268750J0D01*
G01*
G37*
%TD*%
%TO.C,FB601*%
G36*
G01*
X115670250Y-104453500D02*
X114707750Y-104453500D01*
G75*
G02*
X114439000Y-104184750I0J268750D01*
G01*
X114439000Y-103647250D01*
G75*
G02*
X114707750Y-103378500I268750J0D01*
G01*
X115670250Y-103378500D01*
G75*
G02*
X115939000Y-103647250I0J-268750D01*
G01*
X115939000Y-104184750D01*
G75*
G02*
X115670250Y-104453500I-268750J0D01*
G01*
G37*
G36*
G01*
X115670250Y-106328500D02*
X114707750Y-106328500D01*
G75*
G02*
X114439000Y-106059750I0J268750D01*
G01*
X114439000Y-105522250D01*
G75*
G02*
X114707750Y-105253500I268750J0D01*
G01*
X115670250Y-105253500D01*
G75*
G02*
X115939000Y-105522250I0J-268750D01*
G01*
X115939000Y-106059750D01*
G75*
G02*
X115670250Y-106328500I-268750J0D01*
G01*
G37*
%TD*%
%TO.C,FB701*%
G36*
G01*
X149430250Y-94566500D02*
X148467750Y-94566500D01*
G75*
G02*
X148199000Y-94297750I0J268750D01*
G01*
X148199000Y-93760250D01*
G75*
G02*
X148467750Y-93491500I268750J0D01*
G01*
X149430250Y-93491500D01*
G75*
G02*
X149699000Y-93760250I0J-268750D01*
G01*
X149699000Y-94297750D01*
G75*
G02*
X149430250Y-94566500I-268750J0D01*
G01*
G37*
G36*
G01*
X149430250Y-92691500D02*
X148467750Y-92691500D01*
G75*
G02*
X148199000Y-92422750I0J268750D01*
G01*
X148199000Y-91885250D01*
G75*
G02*
X148467750Y-91616500I268750J0D01*
G01*
X149430250Y-91616500D01*
G75*
G02*
X149699000Y-91885250I0J-268750D01*
G01*
X149699000Y-92422750D01*
G75*
G02*
X149430250Y-92691500I-268750J0D01*
G01*
G37*
%TD*%
%TO.C,FB702*%
G36*
G01*
X143771250Y-94516500D02*
X142808750Y-94516500D01*
G75*
G02*
X142540000Y-94247750I0J268750D01*
G01*
X142540000Y-93710250D01*
G75*
G02*
X142808750Y-93441500I268750J0D01*
G01*
X143771250Y-93441500D01*
G75*
G02*
X144040000Y-93710250I0J-268750D01*
G01*
X144040000Y-94247750D01*
G75*
G02*
X143771250Y-94516500I-268750J0D01*
G01*
G37*
G36*
G01*
X143771250Y-92641500D02*
X142808750Y-92641500D01*
G75*
G02*
X142540000Y-92372750I0J268750D01*
G01*
X142540000Y-91835250D01*
G75*
G02*
X142808750Y-91566500I268750J0D01*
G01*
X143771250Y-91566500D01*
G75*
G02*
X144040000Y-91835250I0J-268750D01*
G01*
X144040000Y-92372750D01*
G75*
G02*
X143771250Y-92641500I-268750J0D01*
G01*
G37*
%TD*%
%TO.C,FB703*%
G36*
G01*
X147411250Y-94566500D02*
X146448750Y-94566500D01*
G75*
G02*
X146180000Y-94297750I0J268750D01*
G01*
X146180000Y-93760250D01*
G75*
G02*
X146448750Y-93491500I268750J0D01*
G01*
X147411250Y-93491500D01*
G75*
G02*
X147680000Y-93760250I0J-268750D01*
G01*
X147680000Y-94297750D01*
G75*
G02*
X147411250Y-94566500I-268750J0D01*
G01*
G37*
G36*
G01*
X147411250Y-92691500D02*
X146448750Y-92691500D01*
G75*
G02*
X146180000Y-92422750I0J268750D01*
G01*
X146180000Y-91885250D01*
G75*
G02*
X146448750Y-91616500I268750J0D01*
G01*
X147411250Y-91616500D01*
G75*
G02*
X147680000Y-91885250I0J-268750D01*
G01*
X147680000Y-92422750D01*
G75*
G02*
X147411250Y-92691500I-268750J0D01*
G01*
G37*
%TD*%
%TO.C,FB801*%
G36*
G01*
X146744500Y-107468750D02*
X146744500Y-108431250D01*
G75*
G02*
X146475750Y-108700000I-268750J0D01*
G01*
X145938250Y-108700000D01*
G75*
G02*
X145669500Y-108431250I0J268750D01*
G01*
X145669500Y-107468750D01*
G75*
G02*
X145938250Y-107200000I268750J0D01*
G01*
X146475750Y-107200000D01*
G75*
G02*
X146744500Y-107468750I0J-268750D01*
G01*
G37*
G36*
G01*
X148619500Y-107468750D02*
X148619500Y-108431250D01*
G75*
G02*
X148350750Y-108700000I-268750J0D01*
G01*
X147813250Y-108700000D01*
G75*
G02*
X147544500Y-108431250I0J268750D01*
G01*
X147544500Y-107468750D01*
G75*
G02*
X147813250Y-107200000I268750J0D01*
G01*
X148350750Y-107200000D01*
G75*
G02*
X148619500Y-107468750I0J-268750D01*
G01*
G37*
%TD*%
%TO.C,FB902*%
G36*
G01*
X129559000Y-108431250D02*
X129559000Y-107468750D01*
G75*
G02*
X129827750Y-107200000I268750J0D01*
G01*
X130365250Y-107200000D01*
G75*
G02*
X130634000Y-107468750I0J-268750D01*
G01*
X130634000Y-108431250D01*
G75*
G02*
X130365250Y-108700000I-268750J0D01*
G01*
X129827750Y-108700000D01*
G75*
G02*
X129559000Y-108431250I0J268750D01*
G01*
G37*
G36*
G01*
X127684000Y-108431250D02*
X127684000Y-107468750D01*
G75*
G02*
X127952750Y-107200000I268750J0D01*
G01*
X128490250Y-107200000D01*
G75*
G02*
X128759000Y-107468750I0J-268750D01*
G01*
X128759000Y-108431250D01*
G75*
G02*
X128490250Y-108700000I-268750J0D01*
G01*
X127952750Y-108700000D01*
G75*
G02*
X127684000Y-108431250I0J268750D01*
G01*
G37*
%TD*%
%TO.C,FB903*%
G36*
G01*
X136480500Y-110795250D02*
X136480500Y-109832750D01*
G75*
G02*
X136749250Y-109564000I268750J0D01*
G01*
X137286750Y-109564000D01*
G75*
G02*
X137555500Y-109832750I0J-268750D01*
G01*
X137555500Y-110795250D01*
G75*
G02*
X137286750Y-111064000I-268750J0D01*
G01*
X136749250Y-111064000D01*
G75*
G02*
X136480500Y-110795250I0J268750D01*
G01*
G37*
G36*
G01*
X134605500Y-110795250D02*
X134605500Y-109832750D01*
G75*
G02*
X134874250Y-109564000I268750J0D01*
G01*
X135411750Y-109564000D01*
G75*
G02*
X135680500Y-109832750I0J-268750D01*
G01*
X135680500Y-110795250D01*
G75*
G02*
X135411750Y-111064000I-268750J0D01*
G01*
X134874250Y-111064000D01*
G75*
G02*
X134605500Y-110795250I0J268750D01*
G01*
G37*
%TD*%
%TO.C,FB904*%
G36*
G01*
X142101250Y-114250500D02*
X141138750Y-114250500D01*
G75*
G02*
X140870000Y-113981750I0J268750D01*
G01*
X140870000Y-113444250D01*
G75*
G02*
X141138750Y-113175500I268750J0D01*
G01*
X142101250Y-113175500D01*
G75*
G02*
X142370000Y-113444250I0J-268750D01*
G01*
X142370000Y-113981750D01*
G75*
G02*
X142101250Y-114250500I-268750J0D01*
G01*
G37*
G36*
G01*
X142101250Y-112375500D02*
X141138750Y-112375500D01*
G75*
G02*
X140870000Y-112106750I0J268750D01*
G01*
X140870000Y-111569250D01*
G75*
G02*
X141138750Y-111300500I268750J0D01*
G01*
X142101250Y-111300500D01*
G75*
G02*
X142370000Y-111569250I0J-268750D01*
G01*
X142370000Y-112106750D01*
G75*
G02*
X142101250Y-112375500I-268750J0D01*
G01*
G37*
%TD*%
%TO.C,J701*%
G36*
G01*
X150450000Y-101125000D02*
X150450000Y-102425000D01*
G75*
G02*
X150275000Y-102600000I-175000J0D01*
G01*
X149925000Y-102600000D01*
G75*
G02*
X149750000Y-102425000I0J175000D01*
G01*
X149750000Y-101125000D01*
G75*
G02*
X149925000Y-100950000I175000J0D01*
G01*
X150275000Y-100950000D01*
G75*
G02*
X150450000Y-101125000I0J-175000D01*
G01*
G37*
G36*
G01*
X149450000Y-101125000D02*
X149450000Y-102425000D01*
G75*
G02*
X149275000Y-102600000I-175000J0D01*
G01*
X148925000Y-102600000D01*
G75*
G02*
X148750000Y-102425000I0J175000D01*
G01*
X148750000Y-101125000D01*
G75*
G02*
X148925000Y-100950000I175000J0D01*
G01*
X149275000Y-100950000D01*
G75*
G02*
X149450000Y-101125000I0J-175000D01*
G01*
G37*
G36*
G01*
X148450000Y-101125000D02*
X148450000Y-102425000D01*
G75*
G02*
X148275000Y-102600000I-175000J0D01*
G01*
X147925000Y-102600000D01*
G75*
G02*
X147750000Y-102425000I0J175000D01*
G01*
X147750000Y-101125000D01*
G75*
G02*
X147925000Y-100950000I175000J0D01*
G01*
X148275000Y-100950000D01*
G75*
G02*
X148450000Y-101125000I0J-175000D01*
G01*
G37*
G36*
G01*
X147450000Y-101125000D02*
X147450000Y-102425000D01*
G75*
G02*
X147275000Y-102600000I-175000J0D01*
G01*
X146925000Y-102600000D01*
G75*
G02*
X146750000Y-102425000I0J175000D01*
G01*
X146750000Y-101125000D01*
G75*
G02*
X146925000Y-100950000I175000J0D01*
G01*
X147275000Y-100950000D01*
G75*
G02*
X147450000Y-101125000I0J-175000D01*
G01*
G37*
G36*
G01*
X152050000Y-103620832D02*
X152050000Y-104979168D01*
G75*
G02*
X151779168Y-105250000I-270832J0D01*
G01*
X151020832Y-105250000D01*
G75*
G02*
X150750000Y-104979168I0J270832D01*
G01*
X150750000Y-103620832D01*
G75*
G02*
X151020832Y-103350000I270832J0D01*
G01*
X151779168Y-103350000D01*
G75*
G02*
X152050000Y-103620832I0J-270832D01*
G01*
G37*
G36*
G01*
X146450000Y-103620832D02*
X146450000Y-104979168D01*
G75*
G02*
X146179168Y-105250000I-270832J0D01*
G01*
X145420832Y-105250000D01*
G75*
G02*
X145150000Y-104979168I0J270832D01*
G01*
X145150000Y-103620832D01*
G75*
G02*
X145420832Y-103350000I270832J0D01*
G01*
X146179168Y-103350000D01*
G75*
G02*
X146450000Y-103620832I0J-270832D01*
G01*
G37*
%TD*%
%TO.C,L301*%
G36*
G01*
X101870000Y-96007500D02*
X99370000Y-96007500D01*
G75*
G02*
X99320000Y-95957500I0J50000D01*
G01*
X99320000Y-94057500D01*
G75*
G02*
X99370000Y-94007500I50000J0D01*
G01*
X101870000Y-94007500D01*
G75*
G02*
X101920000Y-94057500I0J-50000D01*
G01*
X101920000Y-95957500D01*
G75*
G02*
X101870000Y-96007500I-50000J0D01*
G01*
G37*
G36*
G01*
X101870000Y-91907500D02*
X99370000Y-91907500D01*
G75*
G02*
X99320000Y-91857500I0J50000D01*
G01*
X99320000Y-89957500D01*
G75*
G02*
X99370000Y-89907500I50000J0D01*
G01*
X101870000Y-89907500D01*
G75*
G02*
X101920000Y-89957500I0J-50000D01*
G01*
X101920000Y-91857500D01*
G75*
G02*
X101870000Y-91907500I-50000J0D01*
G01*
G37*
%TD*%
%TO.C,Q401*%
G36*
G01*
X154950000Y-101950000D02*
X155750000Y-101950000D01*
G75*
G02*
X155800000Y-102000000I0J-50000D01*
G01*
X155800000Y-102900000D01*
G75*
G02*
X155750000Y-102950000I-50000J0D01*
G01*
X154950000Y-102950000D01*
G75*
G02*
X154900000Y-102900000I0J50000D01*
G01*
X154900000Y-102000000D01*
G75*
G02*
X154950000Y-101950000I50000J0D01*
G01*
G37*
G36*
G01*
X153050000Y-101950000D02*
X153850000Y-101950000D01*
G75*
G02*
X153900000Y-102000000I0J-50000D01*
G01*
X153900000Y-102900000D01*
G75*
G02*
X153850000Y-102950000I-50000J0D01*
G01*
X153050000Y-102950000D01*
G75*
G02*
X153000000Y-102900000I0J50000D01*
G01*
X153000000Y-102000000D01*
G75*
G02*
X153050000Y-101950000I50000J0D01*
G01*
G37*
G36*
G01*
X154000000Y-103950000D02*
X154800000Y-103950000D01*
G75*
G02*
X154850000Y-104000000I0J-50000D01*
G01*
X154850000Y-104900000D01*
G75*
G02*
X154800000Y-104950000I-50000J0D01*
G01*
X154000000Y-104950000D01*
G75*
G02*
X153950000Y-104900000I0J50000D01*
G01*
X153950000Y-104000000D01*
G75*
G02*
X154000000Y-103950000I50000J0D01*
G01*
G37*
%TD*%
%TO.C,Q402*%
G36*
G01*
X157600000Y-103950000D02*
X158400000Y-103950000D01*
G75*
G02*
X158450000Y-104000000I0J-50000D01*
G01*
X158450000Y-104900000D01*
G75*
G02*
X158400000Y-104950000I-50000J0D01*
G01*
X157600000Y-104950000D01*
G75*
G02*
X157550000Y-104900000I0J50000D01*
G01*
X157550000Y-104000000D01*
G75*
G02*
X157600000Y-103950000I50000J0D01*
G01*
G37*
G36*
G01*
X156650000Y-101950000D02*
X157450000Y-101950000D01*
G75*
G02*
X157500000Y-102000000I0J-50000D01*
G01*
X157500000Y-102900000D01*
G75*
G02*
X157450000Y-102950000I-50000J0D01*
G01*
X156650000Y-102950000D01*
G75*
G02*
X156600000Y-102900000I0J50000D01*
G01*
X156600000Y-102000000D01*
G75*
G02*
X156650000Y-101950000I50000J0D01*
G01*
G37*
G36*
G01*
X158550000Y-101950000D02*
X159350000Y-101950000D01*
G75*
G02*
X159400000Y-102000000I0J-50000D01*
G01*
X159400000Y-102900000D01*
G75*
G02*
X159350000Y-102950000I-50000J0D01*
G01*
X158550000Y-102950000D01*
G75*
G02*
X158500000Y-102900000I0J50000D01*
G01*
X158500000Y-102000000D01*
G75*
G02*
X158550000Y-101950000I50000J0D01*
G01*
G37*
%TD*%
%TO.C,Q901*%
G36*
G01*
X141665000Y-106782000D02*
X142465000Y-106782000D01*
G75*
G02*
X142515000Y-106832000I0J-50000D01*
G01*
X142515000Y-107732000D01*
G75*
G02*
X142465000Y-107782000I-50000J0D01*
G01*
X141665000Y-107782000D01*
G75*
G02*
X141615000Y-107732000I0J50000D01*
G01*
X141615000Y-106832000D01*
G75*
G02*
X141665000Y-106782000I50000J0D01*
G01*
G37*
G36*
G01*
X139765000Y-106782000D02*
X140565000Y-106782000D01*
G75*
G02*
X140615000Y-106832000I0J-50000D01*
G01*
X140615000Y-107732000D01*
G75*
G02*
X140565000Y-107782000I-50000J0D01*
G01*
X139765000Y-107782000D01*
G75*
G02*
X139715000Y-107732000I0J50000D01*
G01*
X139715000Y-106832000D01*
G75*
G02*
X139765000Y-106782000I50000J0D01*
G01*
G37*
G36*
G01*
X140715000Y-108782000D02*
X141515000Y-108782000D01*
G75*
G02*
X141565000Y-108832000I0J-50000D01*
G01*
X141565000Y-109732000D01*
G75*
G02*
X141515000Y-109782000I-50000J0D01*
G01*
X140715000Y-109782000D01*
G75*
G02*
X140665000Y-109732000I0J50000D01*
G01*
X140665000Y-108832000D01*
G75*
G02*
X140715000Y-108782000I50000J0D01*
G01*
G37*
%TD*%
%TO.C,R201*%
G36*
G01*
X167914500Y-60604000D02*
X168309500Y-60604000D01*
G75*
G02*
X168482000Y-60776500I0J-172500D01*
G01*
X168482000Y-61121500D01*
G75*
G02*
X168309500Y-61294000I-172500J0D01*
G01*
X167914500Y-61294000D01*
G75*
G02*
X167742000Y-61121500I0J172500D01*
G01*
X167742000Y-60776500D01*
G75*
G02*
X167914500Y-60604000I172500J0D01*
G01*
G37*
G36*
G01*
X167914500Y-59634000D02*
X168309500Y-59634000D01*
G75*
G02*
X168482000Y-59806500I0J-172500D01*
G01*
X168482000Y-60151500D01*
G75*
G02*
X168309500Y-60324000I-172500J0D01*
G01*
X167914500Y-60324000D01*
G75*
G02*
X167742000Y-60151500I0J172500D01*
G01*
X167742000Y-59806500D01*
G75*
G02*
X167914500Y-59634000I172500J0D01*
G01*
G37*
%TD*%
%TO.C,R202*%
G36*
G01*
X166945750Y-86821000D02*
X167508250Y-86821000D01*
G75*
G02*
X167752000Y-87064750I0J-243750D01*
G01*
X167752000Y-87552250D01*
G75*
G02*
X167508250Y-87796000I-243750J0D01*
G01*
X166945750Y-87796000D01*
G75*
G02*
X166702000Y-87552250I0J243750D01*
G01*
X166702000Y-87064750D01*
G75*
G02*
X166945750Y-86821000I243750J0D01*
G01*
G37*
G36*
G01*
X166945750Y-88396000D02*
X167508250Y-88396000D01*
G75*
G02*
X167752000Y-88639750I0J-243750D01*
G01*
X167752000Y-89127250D01*
G75*
G02*
X167508250Y-89371000I-243750J0D01*
G01*
X166945750Y-89371000D01*
G75*
G02*
X166702000Y-89127250I0J243750D01*
G01*
X166702000Y-88639750D01*
G75*
G02*
X166945750Y-88396000I243750J0D01*
G01*
G37*
%TD*%
%TO.C,R203*%
G36*
G01*
X164958750Y-88396000D02*
X165521250Y-88396000D01*
G75*
G02*
X165765000Y-88639750I0J-243750D01*
G01*
X165765000Y-89127250D01*
G75*
G02*
X165521250Y-89371000I-243750J0D01*
G01*
X164958750Y-89371000D01*
G75*
G02*
X164715000Y-89127250I0J243750D01*
G01*
X164715000Y-88639750D01*
G75*
G02*
X164958750Y-88396000I243750J0D01*
G01*
G37*
G36*
G01*
X164958750Y-86821000D02*
X165521250Y-86821000D01*
G75*
G02*
X165765000Y-87064750I0J-243750D01*
G01*
X165765000Y-87552250D01*
G75*
G02*
X165521250Y-87796000I-243750J0D01*
G01*
X164958750Y-87796000D01*
G75*
G02*
X164715000Y-87552250I0J243750D01*
G01*
X164715000Y-87064750D01*
G75*
G02*
X164958750Y-86821000I243750J0D01*
G01*
G37*
%TD*%
%TO.C,R204*%
G36*
G01*
X162219250Y-87796000D02*
X161656750Y-87796000D01*
G75*
G02*
X161413000Y-87552250I0J243750D01*
G01*
X161413000Y-87064750D01*
G75*
G02*
X161656750Y-86821000I243750J0D01*
G01*
X162219250Y-86821000D01*
G75*
G02*
X162463000Y-87064750I0J-243750D01*
G01*
X162463000Y-87552250D01*
G75*
G02*
X162219250Y-87796000I-243750J0D01*
G01*
G37*
G36*
G01*
X162219250Y-89371000D02*
X161656750Y-89371000D01*
G75*
G02*
X161413000Y-89127250I0J243750D01*
G01*
X161413000Y-88639750D01*
G75*
G02*
X161656750Y-88396000I243750J0D01*
G01*
X162219250Y-88396000D01*
G75*
G02*
X162463000Y-88639750I0J-243750D01*
G01*
X162463000Y-89127250D01*
G75*
G02*
X162219250Y-89371000I-243750J0D01*
G01*
G37*
%TD*%
%TO.C,R205*%
G36*
G01*
X160187250Y-89371000D02*
X159624750Y-89371000D01*
G75*
G02*
X159381000Y-89127250I0J243750D01*
G01*
X159381000Y-88639750D01*
G75*
G02*
X159624750Y-88396000I243750J0D01*
G01*
X160187250Y-88396000D01*
G75*
G02*
X160431000Y-88639750I0J-243750D01*
G01*
X160431000Y-89127250D01*
G75*
G02*
X160187250Y-89371000I-243750J0D01*
G01*
G37*
G36*
G01*
X160187250Y-87796000D02*
X159624750Y-87796000D01*
G75*
G02*
X159381000Y-87552250I0J243750D01*
G01*
X159381000Y-87064750D01*
G75*
G02*
X159624750Y-86821000I243750J0D01*
G01*
X160187250Y-86821000D01*
G75*
G02*
X160431000Y-87064750I0J-243750D01*
G01*
X160431000Y-87552250D01*
G75*
G02*
X160187250Y-87796000I-243750J0D01*
G01*
G37*
%TD*%
%TO.C,R206*%
G36*
G01*
X156501250Y-87800000D02*
X155938750Y-87800000D01*
G75*
G02*
X155695000Y-87556250I0J243750D01*
G01*
X155695000Y-87068750D01*
G75*
G02*
X155938750Y-86825000I243750J0D01*
G01*
X156501250Y-86825000D01*
G75*
G02*
X156745000Y-87068750I0J-243750D01*
G01*
X156745000Y-87556250D01*
G75*
G02*
X156501250Y-87800000I-243750J0D01*
G01*
G37*
G36*
G01*
X156501250Y-89375000D02*
X155938750Y-89375000D01*
G75*
G02*
X155695000Y-89131250I0J243750D01*
G01*
X155695000Y-88643750D01*
G75*
G02*
X155938750Y-88400000I243750J0D01*
G01*
X156501250Y-88400000D01*
G75*
G02*
X156745000Y-88643750I0J-243750D01*
G01*
X156745000Y-89131250D01*
G75*
G02*
X156501250Y-89375000I-243750J0D01*
G01*
G37*
%TD*%
%TO.C,R207*%
G36*
G01*
X158201250Y-89375000D02*
X157638750Y-89375000D01*
G75*
G02*
X157395000Y-89131250I0J243750D01*
G01*
X157395000Y-88643750D01*
G75*
G02*
X157638750Y-88400000I243750J0D01*
G01*
X158201250Y-88400000D01*
G75*
G02*
X158445000Y-88643750I0J-243750D01*
G01*
X158445000Y-89131250D01*
G75*
G02*
X158201250Y-89375000I-243750J0D01*
G01*
G37*
G36*
G01*
X158201250Y-87800000D02*
X157638750Y-87800000D01*
G75*
G02*
X157395000Y-87556250I0J243750D01*
G01*
X157395000Y-87068750D01*
G75*
G02*
X157638750Y-86825000I243750J0D01*
G01*
X158201250Y-86825000D01*
G75*
G02*
X158445000Y-87068750I0J-243750D01*
G01*
X158445000Y-87556250D01*
G75*
G02*
X158201250Y-87800000I-243750J0D01*
G01*
G37*
%TD*%
%TO.C,R208*%
G36*
G01*
X154571250Y-89365000D02*
X154008750Y-89365000D01*
G75*
G02*
X153765000Y-89121250I0J243750D01*
G01*
X153765000Y-88633750D01*
G75*
G02*
X154008750Y-88390000I243750J0D01*
G01*
X154571250Y-88390000D01*
G75*
G02*
X154815000Y-88633750I0J-243750D01*
G01*
X154815000Y-89121250D01*
G75*
G02*
X154571250Y-89365000I-243750J0D01*
G01*
G37*
G36*
G01*
X154571250Y-87790000D02*
X154008750Y-87790000D01*
G75*
G02*
X153765000Y-87546250I0J243750D01*
G01*
X153765000Y-87058750D01*
G75*
G02*
X154008750Y-86815000I243750J0D01*
G01*
X154571250Y-86815000D01*
G75*
G02*
X154815000Y-87058750I0J-243750D01*
G01*
X154815000Y-87546250D01*
G75*
G02*
X154571250Y-87790000I-243750J0D01*
G01*
G37*
%TD*%
%TO.C,R209*%
G36*
G01*
X134381250Y-91140000D02*
X133818750Y-91140000D01*
G75*
G02*
X133575000Y-90896250I0J243750D01*
G01*
X133575000Y-90408750D01*
G75*
G02*
X133818750Y-90165000I243750J0D01*
G01*
X134381250Y-90165000D01*
G75*
G02*
X134625000Y-90408750I0J-243750D01*
G01*
X134625000Y-90896250D01*
G75*
G02*
X134381250Y-91140000I-243750J0D01*
G01*
G37*
G36*
G01*
X134381250Y-92715000D02*
X133818750Y-92715000D01*
G75*
G02*
X133575000Y-92471250I0J243750D01*
G01*
X133575000Y-91983750D01*
G75*
G02*
X133818750Y-91740000I243750J0D01*
G01*
X134381250Y-91740000D01*
G75*
G02*
X134625000Y-91983750I0J-243750D01*
G01*
X134625000Y-92471250D01*
G75*
G02*
X134381250Y-92715000I-243750J0D01*
G01*
G37*
%TD*%
%TO.C,R210*%
G36*
G01*
X136044250Y-92715000D02*
X135481750Y-92715000D01*
G75*
G02*
X135238000Y-92471250I0J243750D01*
G01*
X135238000Y-91983750D01*
G75*
G02*
X135481750Y-91740000I243750J0D01*
G01*
X136044250Y-91740000D01*
G75*
G02*
X136288000Y-91983750I0J-243750D01*
G01*
X136288000Y-92471250D01*
G75*
G02*
X136044250Y-92715000I-243750J0D01*
G01*
G37*
G36*
G01*
X136044250Y-91140000D02*
X135481750Y-91140000D01*
G75*
G02*
X135238000Y-90896250I0J243750D01*
G01*
X135238000Y-90408750D01*
G75*
G02*
X135481750Y-90165000I243750J0D01*
G01*
X136044250Y-90165000D01*
G75*
G02*
X136288000Y-90408750I0J-243750D01*
G01*
X136288000Y-90896250D01*
G75*
G02*
X136044250Y-91140000I-243750J0D01*
G01*
G37*
%TD*%
%TO.C,R302*%
G36*
G01*
X91868000Y-89498000D02*
X91868000Y-89103000D01*
G75*
G02*
X92040500Y-88930500I172500J0D01*
G01*
X92385500Y-88930500D01*
G75*
G02*
X92558000Y-89103000I0J-172500D01*
G01*
X92558000Y-89498000D01*
G75*
G02*
X92385500Y-89670500I-172500J0D01*
G01*
X92040500Y-89670500D01*
G75*
G02*
X91868000Y-89498000I0J172500D01*
G01*
G37*
G36*
G01*
X90898000Y-89498000D02*
X90898000Y-89103000D01*
G75*
G02*
X91070500Y-88930500I172500J0D01*
G01*
X91415500Y-88930500D01*
G75*
G02*
X91588000Y-89103000I0J-172500D01*
G01*
X91588000Y-89498000D01*
G75*
G02*
X91415500Y-89670500I-172500J0D01*
G01*
X91070500Y-89670500D01*
G75*
G02*
X90898000Y-89498000I0J172500D01*
G01*
G37*
%TD*%
%TO.C,R303*%
G36*
G01*
X93397500Y-89680000D02*
X93002500Y-89680000D01*
G75*
G02*
X92830000Y-89507500I0J172500D01*
G01*
X92830000Y-89162500D01*
G75*
G02*
X93002500Y-88990000I172500J0D01*
G01*
X93397500Y-88990000D01*
G75*
G02*
X93570000Y-89162500I0J-172500D01*
G01*
X93570000Y-89507500D01*
G75*
G02*
X93397500Y-89680000I-172500J0D01*
G01*
G37*
G36*
G01*
X93397500Y-88710000D02*
X93002500Y-88710000D01*
G75*
G02*
X92830000Y-88537500I0J172500D01*
G01*
X92830000Y-88192500D01*
G75*
G02*
X93002500Y-88020000I172500J0D01*
G01*
X93397500Y-88020000D01*
G75*
G02*
X93570000Y-88192500I0J-172500D01*
G01*
X93570000Y-88537500D01*
G75*
G02*
X93397500Y-88710000I-172500J0D01*
G01*
G37*
%TD*%
%TO.C,R401*%
G36*
G01*
X162560000Y-100352500D02*
X162560000Y-100747500D01*
G75*
G02*
X162387500Y-100920000I-172500J0D01*
G01*
X162042500Y-100920000D01*
G75*
G02*
X161870000Y-100747500I0J172500D01*
G01*
X161870000Y-100352500D01*
G75*
G02*
X162042500Y-100180000I172500J0D01*
G01*
X162387500Y-100180000D01*
G75*
G02*
X162560000Y-100352500I0J-172500D01*
G01*
G37*
G36*
G01*
X163530000Y-100352500D02*
X163530000Y-100747500D01*
G75*
G02*
X163357500Y-100920000I-172500J0D01*
G01*
X163012500Y-100920000D01*
G75*
G02*
X162840000Y-100747500I0J172500D01*
G01*
X162840000Y-100352500D01*
G75*
G02*
X163012500Y-100180000I172500J0D01*
G01*
X163357500Y-100180000D01*
G75*
G02*
X163530000Y-100352500I0J-172500D01*
G01*
G37*
%TD*%
%TO.C,R402*%
G36*
G01*
X164880000Y-102052500D02*
X164880000Y-102447500D01*
G75*
G02*
X164707500Y-102620000I-172500J0D01*
G01*
X164362500Y-102620000D01*
G75*
G02*
X164190000Y-102447500I0J172500D01*
G01*
X164190000Y-102052500D01*
G75*
G02*
X164362500Y-101880000I172500J0D01*
G01*
X164707500Y-101880000D01*
G75*
G02*
X164880000Y-102052500I0J-172500D01*
G01*
G37*
G36*
G01*
X163910000Y-102052500D02*
X163910000Y-102447500D01*
G75*
G02*
X163737500Y-102620000I-172500J0D01*
G01*
X163392500Y-102620000D01*
G75*
G02*
X163220000Y-102447500I0J172500D01*
G01*
X163220000Y-102052500D01*
G75*
G02*
X163392500Y-101880000I172500J0D01*
G01*
X163737500Y-101880000D01*
G75*
G02*
X163910000Y-102052500I0J-172500D01*
G01*
G37*
%TD*%
%TO.C,R501*%
G36*
G01*
X174961000Y-105607500D02*
X174961000Y-105212500D01*
G75*
G02*
X175133500Y-105040000I172500J0D01*
G01*
X175478500Y-105040000D01*
G75*
G02*
X175651000Y-105212500I0J-172500D01*
G01*
X175651000Y-105607500D01*
G75*
G02*
X175478500Y-105780000I-172500J0D01*
G01*
X175133500Y-105780000D01*
G75*
G02*
X174961000Y-105607500I0J172500D01*
G01*
G37*
G36*
G01*
X175931000Y-105607500D02*
X175931000Y-105212500D01*
G75*
G02*
X176103500Y-105040000I172500J0D01*
G01*
X176448500Y-105040000D01*
G75*
G02*
X176621000Y-105212500I0J-172500D01*
G01*
X176621000Y-105607500D01*
G75*
G02*
X176448500Y-105780000I-172500J0D01*
G01*
X176103500Y-105780000D01*
G75*
G02*
X175931000Y-105607500I0J172500D01*
G01*
G37*
%TD*%
%TO.C,R502*%
G36*
G01*
X175971500Y-104464500D02*
X175971500Y-104069500D01*
G75*
G02*
X176144000Y-103897000I172500J0D01*
G01*
X176489000Y-103897000D01*
G75*
G02*
X176661500Y-104069500I0J-172500D01*
G01*
X176661500Y-104464500D01*
G75*
G02*
X176489000Y-104637000I-172500J0D01*
G01*
X176144000Y-104637000D01*
G75*
G02*
X175971500Y-104464500I0J172500D01*
G01*
G37*
G36*
G01*
X175001500Y-104464500D02*
X175001500Y-104069500D01*
G75*
G02*
X175174000Y-103897000I172500J0D01*
G01*
X175519000Y-103897000D01*
G75*
G02*
X175691500Y-104069500I0J-172500D01*
G01*
X175691500Y-104464500D01*
G75*
G02*
X175519000Y-104637000I-172500J0D01*
G01*
X175174000Y-104637000D01*
G75*
G02*
X175001500Y-104464500I0J172500D01*
G01*
G37*
%TD*%
%TO.C,R601*%
G36*
G01*
X113975000Y-102845000D02*
X113975000Y-104155000D01*
G75*
G02*
X113705000Y-104425000I-270000J0D01*
G01*
X112895000Y-104425000D01*
G75*
G02*
X112625000Y-104155000I0J270000D01*
G01*
X112625000Y-102845000D01*
G75*
G02*
X112895000Y-102575000I270000J0D01*
G01*
X113705000Y-102575000D01*
G75*
G02*
X113975000Y-102845000I0J-270000D01*
G01*
G37*
G36*
G01*
X111175000Y-102845000D02*
X111175000Y-104155000D01*
G75*
G02*
X110905000Y-104425000I-270000J0D01*
G01*
X110095000Y-104425000D01*
G75*
G02*
X109825000Y-104155000I0J270000D01*
G01*
X109825000Y-102845000D01*
G75*
G02*
X110095000Y-102575000I270000J0D01*
G01*
X110905000Y-102575000D01*
G75*
G02*
X111175000Y-102845000I0J-270000D01*
G01*
G37*
%TD*%
%TO.C,R701*%
G36*
G01*
X143173000Y-89463500D02*
X143173000Y-89858500D01*
G75*
G02*
X143000500Y-90031000I-172500J0D01*
G01*
X142655500Y-90031000D01*
G75*
G02*
X142483000Y-89858500I0J172500D01*
G01*
X142483000Y-89463500D01*
G75*
G02*
X142655500Y-89291000I172500J0D01*
G01*
X143000500Y-89291000D01*
G75*
G02*
X143173000Y-89463500I0J-172500D01*
G01*
G37*
G36*
G01*
X144143000Y-89463500D02*
X144143000Y-89858500D01*
G75*
G02*
X143970500Y-90031000I-172500J0D01*
G01*
X143625500Y-90031000D01*
G75*
G02*
X143453000Y-89858500I0J172500D01*
G01*
X143453000Y-89463500D01*
G75*
G02*
X143625500Y-89291000I172500J0D01*
G01*
X143970500Y-89291000D01*
G75*
G02*
X144143000Y-89463500I0J-172500D01*
G01*
G37*
%TD*%
%TO.C,R702*%
G36*
G01*
X147070000Y-89908500D02*
X147070000Y-89513500D01*
G75*
G02*
X147242500Y-89341000I172500J0D01*
G01*
X147587500Y-89341000D01*
G75*
G02*
X147760000Y-89513500I0J-172500D01*
G01*
X147760000Y-89908500D01*
G75*
G02*
X147587500Y-90081000I-172500J0D01*
G01*
X147242500Y-90081000D01*
G75*
G02*
X147070000Y-89908500I0J172500D01*
G01*
G37*
G36*
G01*
X146100000Y-89908500D02*
X146100000Y-89513500D01*
G75*
G02*
X146272500Y-89341000I172500J0D01*
G01*
X146617500Y-89341000D01*
G75*
G02*
X146790000Y-89513500I0J-172500D01*
G01*
X146790000Y-89908500D01*
G75*
G02*
X146617500Y-90081000I-172500J0D01*
G01*
X146272500Y-90081000D01*
G75*
G02*
X146100000Y-89908500I0J172500D01*
G01*
G37*
%TD*%
%TO.C,R801*%
G36*
G01*
X149293000Y-106252500D02*
X149293000Y-106647500D01*
G75*
G02*
X149120500Y-106820000I-172500J0D01*
G01*
X148775500Y-106820000D01*
G75*
G02*
X148603000Y-106647500I0J172500D01*
G01*
X148603000Y-106252500D01*
G75*
G02*
X148775500Y-106080000I172500J0D01*
G01*
X149120500Y-106080000D01*
G75*
G02*
X149293000Y-106252500I0J-172500D01*
G01*
G37*
G36*
G01*
X148323000Y-106252500D02*
X148323000Y-106647500D01*
G75*
G02*
X148150500Y-106820000I-172500J0D01*
G01*
X147805500Y-106820000D01*
G75*
G02*
X147633000Y-106647500I0J172500D01*
G01*
X147633000Y-106252500D01*
G75*
G02*
X147805500Y-106080000I172500J0D01*
G01*
X148150500Y-106080000D01*
G75*
G02*
X148323000Y-106252500I0J-172500D01*
G01*
G37*
%TD*%
%TO.C,R802*%
G36*
G01*
X152302500Y-107849750D02*
X152302500Y-108812250D01*
G75*
G02*
X152033750Y-109081000I-268750J0D01*
G01*
X151496250Y-109081000D01*
G75*
G02*
X151227500Y-108812250I0J268750D01*
G01*
X151227500Y-107849750D01*
G75*
G02*
X151496250Y-107581000I268750J0D01*
G01*
X152033750Y-107581000D01*
G75*
G02*
X152302500Y-107849750I0J-268750D01*
G01*
G37*
G36*
G01*
X150427500Y-107849750D02*
X150427500Y-108812250D01*
G75*
G02*
X150158750Y-109081000I-268750J0D01*
G01*
X149621250Y-109081000D01*
G75*
G02*
X149352500Y-108812250I0J268750D01*
G01*
X149352500Y-107849750D01*
G75*
G02*
X149621250Y-107581000I268750J0D01*
G01*
X150158750Y-107581000D01*
G75*
G02*
X150427500Y-107849750I0J-268750D01*
G01*
G37*
%TD*%
%TO.C,R901*%
G36*
G01*
X139578000Y-92555750D02*
X139578000Y-93118250D01*
G75*
G02*
X139334250Y-93362000I-243750J0D01*
G01*
X138846750Y-93362000D01*
G75*
G02*
X138603000Y-93118250I0J243750D01*
G01*
X138603000Y-92555750D01*
G75*
G02*
X138846750Y-92312000I243750J0D01*
G01*
X139334250Y-92312000D01*
G75*
G02*
X139578000Y-92555750I0J-243750D01*
G01*
G37*
G36*
G01*
X138003000Y-92555750D02*
X138003000Y-93118250D01*
G75*
G02*
X137759250Y-93362000I-243750J0D01*
G01*
X137271750Y-93362000D01*
G75*
G02*
X137028000Y-93118250I0J243750D01*
G01*
X137028000Y-92555750D01*
G75*
G02*
X137271750Y-92312000I243750J0D01*
G01*
X137759250Y-92312000D01*
G75*
G02*
X138003000Y-92555750I0J-243750D01*
G01*
G37*
%TD*%
%TO.C,U301*%
G36*
G01*
X95050000Y-92545000D02*
X95700000Y-92545000D01*
G75*
G02*
X95750000Y-92595000I0J-50000D01*
G01*
X95750000Y-93655000D01*
G75*
G02*
X95700000Y-93705000I-50000J0D01*
G01*
X95050000Y-93705000D01*
G75*
G02*
X95000000Y-93655000I0J50000D01*
G01*
X95000000Y-92595000D01*
G75*
G02*
X95050000Y-92545000I50000J0D01*
G01*
G37*
G36*
G01*
X94100000Y-92545000D02*
X94750000Y-92545000D01*
G75*
G02*
X94800000Y-92595000I0J-50000D01*
G01*
X94800000Y-93655000D01*
G75*
G02*
X94750000Y-93705000I-50000J0D01*
G01*
X94100000Y-93705000D01*
G75*
G02*
X94050000Y-93655000I0J50000D01*
G01*
X94050000Y-92595000D01*
G75*
G02*
X94100000Y-92545000I50000J0D01*
G01*
G37*
G36*
G01*
X93150000Y-92545000D02*
X93800000Y-92545000D01*
G75*
G02*
X93850000Y-92595000I0J-50000D01*
G01*
X93850000Y-93655000D01*
G75*
G02*
X93800000Y-93705000I-50000J0D01*
G01*
X93150000Y-93705000D01*
G75*
G02*
X93100000Y-93655000I0J50000D01*
G01*
X93100000Y-92595000D01*
G75*
G02*
X93150000Y-92545000I50000J0D01*
G01*
G37*
G36*
G01*
X93150000Y-94745000D02*
X93800000Y-94745000D01*
G75*
G02*
X93850000Y-94795000I0J-50000D01*
G01*
X93850000Y-95855000D01*
G75*
G02*
X93800000Y-95905000I-50000J0D01*
G01*
X93150000Y-95905000D01*
G75*
G02*
X93100000Y-95855000I0J50000D01*
G01*
X93100000Y-94795000D01*
G75*
G02*
X93150000Y-94745000I50000J0D01*
G01*
G37*
G36*
G01*
X95050000Y-94745000D02*
X95700000Y-94745000D01*
G75*
G02*
X95750000Y-94795000I0J-50000D01*
G01*
X95750000Y-95855000D01*
G75*
G02*
X95700000Y-95905000I-50000J0D01*
G01*
X95050000Y-95905000D01*
G75*
G02*
X95000000Y-95855000I0J50000D01*
G01*
X95000000Y-94795000D01*
G75*
G02*
X95050000Y-94745000I50000J0D01*
G01*
G37*
G36*
G01*
X94100000Y-94745000D02*
X94750000Y-94745000D01*
G75*
G02*
X94800000Y-94795000I0J-50000D01*
G01*
X94800000Y-95855000D01*
G75*
G02*
X94750000Y-95905000I-50000J0D01*
G01*
X94100000Y-95905000D01*
G75*
G02*
X94050000Y-95855000I0J50000D01*
G01*
X94050000Y-94795000D01*
G75*
G02*
X94100000Y-94745000I50000J0D01*
G01*
G37*
%TD*%
%TO.C,U601*%
G36*
G01*
X110975000Y-106364000D02*
X110975000Y-105739000D01*
G75*
G02*
X111025000Y-105689000I50000J0D01*
G01*
X111275000Y-105689000D01*
G75*
G02*
X111325000Y-105739000I0J-50000D01*
G01*
X111325000Y-106364000D01*
G75*
G02*
X111275000Y-106414000I-50000J0D01*
G01*
X111025000Y-106414000D01*
G75*
G02*
X110975000Y-106364000I0J50000D01*
G01*
G37*
G36*
G01*
X111375000Y-106364000D02*
X111375000Y-105664000D01*
G75*
G02*
X111425000Y-105614000I50000J0D01*
G01*
X111875000Y-105614000D01*
G75*
G02*
X111925000Y-105664000I0J-50000D01*
G01*
X111925000Y-106364000D01*
G75*
G02*
X111875000Y-106414000I-50000J0D01*
G01*
X111425000Y-106414000D01*
G75*
G02*
X111375000Y-106364000I0J50000D01*
G01*
G37*
G36*
G01*
X110475000Y-106364000D02*
X110475000Y-105739000D01*
G75*
G02*
X110525000Y-105689000I50000J0D01*
G01*
X110775000Y-105689000D01*
G75*
G02*
X110825000Y-105739000I0J-50000D01*
G01*
X110825000Y-106364000D01*
G75*
G02*
X110775000Y-106414000I-50000J0D01*
G01*
X110525000Y-106414000D01*
G75*
G02*
X110475000Y-106364000I0J50000D01*
G01*
G37*
G36*
G01*
X111975000Y-106364000D02*
X111975000Y-105739000D01*
G75*
G02*
X112025000Y-105689000I50000J0D01*
G01*
X112275000Y-105689000D01*
G75*
G02*
X112325000Y-105739000I0J-50000D01*
G01*
X112325000Y-106364000D01*
G75*
G02*
X112275000Y-106414000I-50000J0D01*
G01*
X112025000Y-106414000D01*
G75*
G02*
X111975000Y-106364000I0J50000D01*
G01*
G37*
G36*
G01*
X110475000Y-105589000D02*
X110475000Y-104964000D01*
G75*
G02*
X110525000Y-104914000I50000J0D01*
G01*
X110775000Y-104914000D01*
G75*
G02*
X110825000Y-104964000I0J-50000D01*
G01*
X110825000Y-105589000D01*
G75*
G02*
X110775000Y-105639000I-50000J0D01*
G01*
X110525000Y-105639000D01*
G75*
G02*
X110475000Y-105589000I0J50000D01*
G01*
G37*
G36*
G01*
X110975000Y-105589000D02*
X110975000Y-104964000D01*
G75*
G02*
X111025000Y-104914000I50000J0D01*
G01*
X111275000Y-104914000D01*
G75*
G02*
X111325000Y-104964000I0J-50000D01*
G01*
X111325000Y-105589000D01*
G75*
G02*
X111275000Y-105639000I-50000J0D01*
G01*
X111025000Y-105639000D01*
G75*
G02*
X110975000Y-105589000I0J50000D01*
G01*
G37*
G36*
G01*
X112475000Y-106364000D02*
X112475000Y-105739000D01*
G75*
G02*
X112525000Y-105689000I50000J0D01*
G01*
X112775000Y-105689000D01*
G75*
G02*
X112825000Y-105739000I0J-50000D01*
G01*
X112825000Y-106364000D01*
G75*
G02*
X112775000Y-106414000I-50000J0D01*
G01*
X112525000Y-106414000D01*
G75*
G02*
X112475000Y-106364000I0J50000D01*
G01*
G37*
G36*
G01*
X111375000Y-105539000D02*
X111375000Y-104964000D01*
G75*
G02*
X111425000Y-104914000I50000J0D01*
G01*
X111875000Y-104914000D01*
G75*
G02*
X111925000Y-104964000I0J-50000D01*
G01*
X111925000Y-105539000D01*
G75*
G02*
X111875000Y-105589000I-50000J0D01*
G01*
X111425000Y-105589000D01*
G75*
G02*
X111375000Y-105539000I0J50000D01*
G01*
G37*
G36*
G01*
X112475000Y-105589000D02*
X112475000Y-104964000D01*
G75*
G02*
X112525000Y-104914000I50000J0D01*
G01*
X112775000Y-104914000D01*
G75*
G02*
X112825000Y-104964000I0J-50000D01*
G01*
X112825000Y-105589000D01*
G75*
G02*
X112775000Y-105639000I-50000J0D01*
G01*
X112525000Y-105639000D01*
G75*
G02*
X112475000Y-105589000I0J50000D01*
G01*
G37*
G36*
G01*
X111975000Y-105589000D02*
X111975000Y-104964000D01*
G75*
G02*
X112025000Y-104914000I50000J0D01*
G01*
X112275000Y-104914000D01*
G75*
G02*
X112325000Y-104964000I0J-50000D01*
G01*
X112325000Y-105589000D01*
G75*
G02*
X112275000Y-105639000I-50000J0D01*
G01*
X112025000Y-105639000D01*
G75*
G02*
X111975000Y-105589000I0J50000D01*
G01*
G37*
%TD*%
%TO.C,U602*%
G36*
G01*
X116398500Y-86960000D02*
X116773500Y-86960000D01*
G75*
G02*
X116961000Y-87147500I0J-187500D01*
G01*
X116961000Y-89222500D01*
G75*
G02*
X116773500Y-89410000I-187500J0D01*
G01*
X116398500Y-89410000D01*
G75*
G02*
X116211000Y-89222500I0J187500D01*
G01*
X116211000Y-87147500D01*
G75*
G02*
X116398500Y-86960000I187500J0D01*
G01*
G37*
G36*
G01*
X113858500Y-86960000D02*
X114233500Y-86960000D01*
G75*
G02*
X114421000Y-87147500I0J-187500D01*
G01*
X114421000Y-89222500D01*
G75*
G02*
X114233500Y-89410000I-187500J0D01*
G01*
X113858500Y-89410000D01*
G75*
G02*
X113671000Y-89222500I0J187500D01*
G01*
X113671000Y-87147500D01*
G75*
G02*
X113858500Y-86960000I187500J0D01*
G01*
G37*
G36*
G01*
X111318500Y-86960000D02*
X111693500Y-86960000D01*
G75*
G02*
X111881000Y-87147500I0J-187500D01*
G01*
X111881000Y-89222500D01*
G75*
G02*
X111693500Y-89410000I-187500J0D01*
G01*
X111318500Y-89410000D01*
G75*
G02*
X111131000Y-89222500I0J187500D01*
G01*
X111131000Y-87147500D01*
G75*
G02*
X111318500Y-86960000I187500J0D01*
G01*
G37*
G36*
G01*
X108778500Y-86960000D02*
X109153500Y-86960000D01*
G75*
G02*
X109341000Y-87147500I0J-187500D01*
G01*
X109341000Y-89222500D01*
G75*
G02*
X109153500Y-89410000I-187500J0D01*
G01*
X108778500Y-89410000D01*
G75*
G02*
X108591000Y-89222500I0J187500D01*
G01*
X108591000Y-87147500D01*
G75*
G02*
X108778500Y-86960000I187500J0D01*
G01*
G37*
G36*
G01*
X108778500Y-96010000D02*
X109153500Y-96010000D01*
G75*
G02*
X109341000Y-96197500I0J-187500D01*
G01*
X109341000Y-98272500D01*
G75*
G02*
X109153500Y-98460000I-187500J0D01*
G01*
X108778500Y-98460000D01*
G75*
G02*
X108591000Y-98272500I0J187500D01*
G01*
X108591000Y-96197500D01*
G75*
G02*
X108778500Y-96010000I187500J0D01*
G01*
G37*
G36*
G01*
X111318500Y-96010000D02*
X111693500Y-96010000D01*
G75*
G02*
X111881000Y-96197500I0J-187500D01*
G01*
X111881000Y-98272500D01*
G75*
G02*
X111693500Y-98460000I-187500J0D01*
G01*
X111318500Y-98460000D01*
G75*
G02*
X111131000Y-98272500I0J187500D01*
G01*
X111131000Y-96197500D01*
G75*
G02*
X111318500Y-96010000I187500J0D01*
G01*
G37*
G36*
G01*
X113858500Y-96010000D02*
X114233500Y-96010000D01*
G75*
G02*
X114421000Y-96197500I0J-187500D01*
G01*
X114421000Y-98272500D01*
G75*
G02*
X114233500Y-98460000I-187500J0D01*
G01*
X113858500Y-98460000D01*
G75*
G02*
X113671000Y-98272500I0J187500D01*
G01*
X113671000Y-96197500D01*
G75*
G02*
X113858500Y-96010000I187500J0D01*
G01*
G37*
G36*
G01*
X116398500Y-96010000D02*
X116773500Y-96010000D01*
G75*
G02*
X116961000Y-96197500I0J-187500D01*
G01*
X116961000Y-98272500D01*
G75*
G02*
X116773500Y-98460000I-187500J0D01*
G01*
X116398500Y-98460000D01*
G75*
G02*
X116211000Y-98272500I0J187500D01*
G01*
X116211000Y-96197500D01*
G75*
G02*
X116398500Y-96010000I187500J0D01*
G01*
G37*
%TD*%
%TO.C,U603*%
G36*
G01*
X119102000Y-96884000D02*
X119902000Y-96884000D01*
G75*
G02*
X119952000Y-96934000I0J-50000D01*
G01*
X119952000Y-97834000D01*
G75*
G02*
X119902000Y-97884000I-50000J0D01*
G01*
X119102000Y-97884000D01*
G75*
G02*
X119052000Y-97834000I0J50000D01*
G01*
X119052000Y-96934000D01*
G75*
G02*
X119102000Y-96884000I50000J0D01*
G01*
G37*
G36*
G01*
X118152000Y-94884000D02*
X118952000Y-94884000D01*
G75*
G02*
X119002000Y-94934000I0J-50000D01*
G01*
X119002000Y-95834000D01*
G75*
G02*
X118952000Y-95884000I-50000J0D01*
G01*
X118152000Y-95884000D01*
G75*
G02*
X118102000Y-95834000I0J50000D01*
G01*
X118102000Y-94934000D01*
G75*
G02*
X118152000Y-94884000I50000J0D01*
G01*
G37*
G36*
G01*
X120052000Y-94884000D02*
X120852000Y-94884000D01*
G75*
G02*
X120902000Y-94934000I0J-50000D01*
G01*
X120902000Y-95834000D01*
G75*
G02*
X120852000Y-95884000I-50000J0D01*
G01*
X120052000Y-95884000D01*
G75*
G02*
X120002000Y-95834000I0J50000D01*
G01*
X120002000Y-94934000D01*
G75*
G02*
X120052000Y-94884000I50000J0D01*
G01*
G37*
%TD*%
%TO.C,U801*%
G36*
G01*
X151328000Y-110288000D02*
X151328000Y-109663000D01*
G75*
G02*
X151378000Y-109613000I50000J0D01*
G01*
X151628000Y-109613000D01*
G75*
G02*
X151678000Y-109663000I0J-50000D01*
G01*
X151678000Y-110288000D01*
G75*
G02*
X151628000Y-110338000I-50000J0D01*
G01*
X151378000Y-110338000D01*
G75*
G02*
X151328000Y-110288000I0J50000D01*
G01*
G37*
G36*
G01*
X151828000Y-110288000D02*
X151828000Y-109663000D01*
G75*
G02*
X151878000Y-109613000I50000J0D01*
G01*
X152128000Y-109613000D01*
G75*
G02*
X152178000Y-109663000I0J-50000D01*
G01*
X152178000Y-110288000D01*
G75*
G02*
X152128000Y-110338000I-50000J0D01*
G01*
X151878000Y-110338000D01*
G75*
G02*
X151828000Y-110288000I0J50000D01*
G01*
G37*
G36*
G01*
X150728000Y-110238000D02*
X150728000Y-109663000D01*
G75*
G02*
X150778000Y-109613000I50000J0D01*
G01*
X151228000Y-109613000D01*
G75*
G02*
X151278000Y-109663000I0J-50000D01*
G01*
X151278000Y-110238000D01*
G75*
G02*
X151228000Y-110288000I-50000J0D01*
G01*
X150778000Y-110288000D01*
G75*
G02*
X150728000Y-110238000I0J50000D01*
G01*
G37*
G36*
G01*
X151828000Y-111063000D02*
X151828000Y-110438000D01*
G75*
G02*
X151878000Y-110388000I50000J0D01*
G01*
X152128000Y-110388000D01*
G75*
G02*
X152178000Y-110438000I0J-50000D01*
G01*
X152178000Y-111063000D01*
G75*
G02*
X152128000Y-111113000I-50000J0D01*
G01*
X151878000Y-111113000D01*
G75*
G02*
X151828000Y-111063000I0J50000D01*
G01*
G37*
G36*
G01*
X150328000Y-110288000D02*
X150328000Y-109663000D01*
G75*
G02*
X150378000Y-109613000I50000J0D01*
G01*
X150628000Y-109613000D01*
G75*
G02*
X150678000Y-109663000I0J-50000D01*
G01*
X150678000Y-110288000D01*
G75*
G02*
X150628000Y-110338000I-50000J0D01*
G01*
X150378000Y-110338000D01*
G75*
G02*
X150328000Y-110288000I0J50000D01*
G01*
G37*
G36*
G01*
X149828000Y-110288000D02*
X149828000Y-109663000D01*
G75*
G02*
X149878000Y-109613000I50000J0D01*
G01*
X150128000Y-109613000D01*
G75*
G02*
X150178000Y-109663000I0J-50000D01*
G01*
X150178000Y-110288000D01*
G75*
G02*
X150128000Y-110338000I-50000J0D01*
G01*
X149878000Y-110338000D01*
G75*
G02*
X149828000Y-110288000I0J50000D01*
G01*
G37*
G36*
G01*
X151328000Y-111063000D02*
X151328000Y-110438000D01*
G75*
G02*
X151378000Y-110388000I50000J0D01*
G01*
X151628000Y-110388000D01*
G75*
G02*
X151678000Y-110438000I0J-50000D01*
G01*
X151678000Y-111063000D01*
G75*
G02*
X151628000Y-111113000I-50000J0D01*
G01*
X151378000Y-111113000D01*
G75*
G02*
X151328000Y-111063000I0J50000D01*
G01*
G37*
G36*
G01*
X149828000Y-111063000D02*
X149828000Y-110438000D01*
G75*
G02*
X149878000Y-110388000I50000J0D01*
G01*
X150128000Y-110388000D01*
G75*
G02*
X150178000Y-110438000I0J-50000D01*
G01*
X150178000Y-111063000D01*
G75*
G02*
X150128000Y-111113000I-50000J0D01*
G01*
X149878000Y-111113000D01*
G75*
G02*
X149828000Y-111063000I0J50000D01*
G01*
G37*
G36*
G01*
X150728000Y-111063000D02*
X150728000Y-110363000D01*
G75*
G02*
X150778000Y-110313000I50000J0D01*
G01*
X151228000Y-110313000D01*
G75*
G02*
X151278000Y-110363000I0J-50000D01*
G01*
X151278000Y-111063000D01*
G75*
G02*
X151228000Y-111113000I-50000J0D01*
G01*
X150778000Y-111113000D01*
G75*
G02*
X150728000Y-111063000I0J50000D01*
G01*
G37*
G36*
G01*
X150328000Y-111063000D02*
X150328000Y-110438000D01*
G75*
G02*
X150378000Y-110388000I50000J0D01*
G01*
X150628000Y-110388000D01*
G75*
G02*
X150678000Y-110438000I0J-50000D01*
G01*
X150678000Y-111063000D01*
G75*
G02*
X150628000Y-111113000I-50000J0D01*
G01*
X150378000Y-111113000D01*
G75*
G02*
X150328000Y-111063000I0J50000D01*
G01*
G37*
%TD*%
%TO.C,SW501*%
G36*
G01*
X161850000Y-103550000D02*
X161850000Y-104550000D01*
G75*
G02*
X161800000Y-104600000I-50000J0D01*
G01*
X160100000Y-104600000D01*
G75*
G02*
X160050000Y-104550000I0J50000D01*
G01*
X160050000Y-103550000D01*
G75*
G02*
X160100000Y-103500000I50000J0D01*
G01*
X161800000Y-103500000D01*
G75*
G02*
X161850000Y-103550000I0J-50000D01*
G01*
G37*
G36*
G01*
X168150000Y-103550000D02*
X168150000Y-104550000D01*
G75*
G02*
X168100000Y-104600000I-50000J0D01*
G01*
X166400000Y-104600000D01*
G75*
G02*
X166350000Y-104550000I0J50000D01*
G01*
X166350000Y-103550000D01*
G75*
G02*
X166400000Y-103500000I50000J0D01*
G01*
X168100000Y-103500000D01*
G75*
G02*
X168150000Y-103550000I0J-50000D01*
G01*
G37*
G36*
G01*
X161850000Y-107350000D02*
X161850000Y-108350000D01*
G75*
G02*
X161800000Y-108400000I-50000J0D01*
G01*
X160100000Y-108400000D01*
G75*
G02*
X160050000Y-108350000I0J50000D01*
G01*
X160050000Y-107350000D01*
G75*
G02*
X160100000Y-107300000I50000J0D01*
G01*
X161800000Y-107300000D01*
G75*
G02*
X161850000Y-107350000I0J-50000D01*
G01*
G37*
G36*
G01*
X168150000Y-107350000D02*
X168150000Y-108350000D01*
G75*
G02*
X168100000Y-108400000I-50000J0D01*
G01*
X166400000Y-108400000D01*
G75*
G02*
X166350000Y-108350000I0J50000D01*
G01*
X166350000Y-107350000D01*
G75*
G02*
X166400000Y-107300000I50000J0D01*
G01*
X168100000Y-107300000D01*
G75*
G02*
X168150000Y-107350000I0J-50000D01*
G01*
G37*
%TD*%
%TO.C,SW502*%
G36*
G01*
X168150000Y-113400000D02*
X168150000Y-114400000D01*
G75*
G02*
X168100000Y-114450000I-50000J0D01*
G01*
X166400000Y-114450000D01*
G75*
G02*
X166350000Y-114400000I0J50000D01*
G01*
X166350000Y-113400000D01*
G75*
G02*
X166400000Y-113350000I50000J0D01*
G01*
X168100000Y-113350000D01*
G75*
G02*
X168150000Y-113400000I0J-50000D01*
G01*
G37*
G36*
G01*
X161850000Y-113400000D02*
X161850000Y-114400000D01*
G75*
G02*
X161800000Y-114450000I-50000J0D01*
G01*
X160100000Y-114450000D01*
G75*
G02*
X160050000Y-114400000I0J50000D01*
G01*
X160050000Y-113400000D01*
G75*
G02*
X160100000Y-113350000I50000J0D01*
G01*
X161800000Y-113350000D01*
G75*
G02*
X161850000Y-113400000I0J-50000D01*
G01*
G37*
G36*
G01*
X168150000Y-109600000D02*
X168150000Y-110600000D01*
G75*
G02*
X168100000Y-110650000I-50000J0D01*
G01*
X166400000Y-110650000D01*
G75*
G02*
X166350000Y-110600000I0J50000D01*
G01*
X166350000Y-109600000D01*
G75*
G02*
X166400000Y-109550000I50000J0D01*
G01*
X168100000Y-109550000D01*
G75*
G02*
X168150000Y-109600000I0J-50000D01*
G01*
G37*
G36*
G01*
X161850000Y-109600000D02*
X161850000Y-110600000D01*
G75*
G02*
X161800000Y-110650000I-50000J0D01*
G01*
X160100000Y-110650000D01*
G75*
G02*
X160050000Y-110600000I0J50000D01*
G01*
X160050000Y-109600000D01*
G75*
G02*
X160100000Y-109550000I50000J0D01*
G01*
X161800000Y-109550000D01*
G75*
G02*
X161850000Y-109600000I0J-50000D01*
G01*
G37*
%TD*%
%TO.C,J301*%
G36*
G01*
X105350000Y-108663888D02*
X105350000Y-111836112D01*
G75*
G02*
X105086112Y-112100000I-263888J0D01*
G01*
X103713888Y-112100000D01*
G75*
G02*
X103450000Y-111836112I0J263888D01*
G01*
X103450000Y-108663888D01*
G75*
G02*
X103713888Y-108400000I263888J0D01*
G01*
X105086112Y-108400000D01*
G75*
G02*
X105350000Y-108663888I0J-263888D01*
G01*
G37*
D16*
X100590000Y-110250000D03*
%TD*%
%TO.C,J801*%
G36*
G01*
X147026001Y-114057000D02*
X145326001Y-114057000D01*
G75*
G02*
X145276001Y-114007000I0J50000D01*
G01*
X145276001Y-112307000D01*
G75*
G02*
X145326001Y-112257000I50000J0D01*
G01*
X147026001Y-112257000D01*
G75*
G02*
X147076001Y-112307000I0J-50000D01*
G01*
X147076001Y-114007000D01*
G75*
G02*
X147026001Y-114057000I-50000J0D01*
G01*
G37*
D13*
X148716001Y-113157000D03*
X151256001Y-113157000D03*
%TD*%
%TO.C,J901*%
X137175000Y-113235000D03*
X134635000Y-113235000D03*
X132095000Y-113235000D03*
G36*
G01*
X130405000Y-114135000D02*
X128705000Y-114135000D01*
G75*
G02*
X128655000Y-114085000I0J50000D01*
G01*
X128655000Y-112385000D01*
G75*
G02*
X128705000Y-112335000I50000J0D01*
G01*
X130405000Y-112335000D01*
G75*
G02*
X130455000Y-112385000I0J-50000D01*
G01*
X130455000Y-114085000D01*
G75*
G02*
X130405000Y-114135000I-50000J0D01*
G01*
G37*
%TD*%
M02*
