M48
; DRILL file {KiCad (5.1.8-0-10_14)} date Friday, November 27, 2020 at 02:10:19 PM
; FORMAT={-:-/ absolute / inch / decimal}
; #@! TF.CreationDate,2020-11-27T14:10:19+02:00
; #@! TF.GenerationSoftware,Kicad,Pcbnew,(5.1.8-0-10_14)
; #@! TF.FileFunction,Plated,1,4,PTH
FMAT,2
INCH
T1C0.0079
T2C0.0138
T3C0.0157
T4C0.0173
T5C0.0236
T6C0.0394
T7C0.0472
%
G90
G05
T1
X5.4343Y-3.5232
X5.4394Y-3.4012
X5.7335Y-3.4
X5.8799Y-3.3232
X5.8858Y-3.4752
X5.9488Y-2.9689
X5.95Y-3.1051
X5.9504Y-2.7843
X6.0252Y-3.3988
X6.3646Y-3.1488
X6.4213Y-3.1476
X6.4543Y-3.3969
X6.502Y-3.6409
X6.5051Y-3.5354
X6.622Y-2.8701
X6.6417Y-2.8504
X6.6567Y-3.4169
X6.6614Y-2.8307
X6.6811Y-2.811
X6.6945Y-3.2657
X6.7008Y-2.7913
X6.7083Y-3.0409
X6.7205Y-2.7717
X6.7268Y-3.6559
T3
X3.5394Y-3.3602
X3.5423Y-2.751
X3.5423Y-2.8494
X3.5423Y-2.9498
X3.5423Y-3.0512
X3.5423Y-3.1506
X3.5423Y-3.25
X3.5433Y-2.6043
X3.5571Y-3.5148
X3.5571Y-3.9173
X3.57Y-3.82
X3.6Y-4.08
X3.6Y-4.12
X3.6Y-4.16
X3.6358Y-2.6004
X3.659Y-3.8565
X3.6673Y-3.0502
X3.6696Y-2.6603
X3.6696Y-2.7503
X3.6696Y-3.4488
X3.6704Y-2.8535
X3.6704Y-2.9485
X3.6714Y-3.1591
X3.6714Y-3.2491
X3.6827Y-2.5967
X3.687Y-3.3563
X3.69Y-3.7095
X3.7Y-3.54
X3.715Y-3.44
X3.7165Y-4.2126
X3.72Y-3.63
X3.729Y-3.7095
X3.73Y-3.59
X3.735Y-4.08
X3.735Y-4.12
X3.735Y-4.16
X3.7411Y-3.3922
X3.77Y-3.56
X3.7727Y-2.5967
X3.775Y-3.62
X3.78Y-3.7
X3.7992Y-2.4606
X3.8071Y-4.3228
X3.8311Y-3.3922
X3.8356Y-3.251
X3.8415Y-2.753
X3.8681Y-2.5197
X3.895Y-3.44
X3.9075Y-2.6181
X3.9625Y-3.806
X3.9656Y-4.0009
X3.9764Y-2.3622
X3.9941Y-4.0837
X4.0025Y-3.806
X4.0049Y-3.3898
X4.0525Y-3.8025
X4.0603Y-2.5136
X4.0748Y-2.3622
X4.08Y-3.52
X4.1325Y-3.8675
X4.14Y-3.37
X4.1503Y-2.5136
X4.2323Y-2.4016
X4.255Y-3.43
X4.26Y-3.83
X4.2618Y-2.2933
X4.2618Y-2.6083
X4.3012Y-4.4882
X4.3177Y-4.2441
X4.32Y-3.43
X4.32Y-3.83
X4.335Y-3.885
X4.3425Y-2.3071
X4.3825Y-3.97
X4.4122Y-4.2193
X4.4134Y-4.0166
X4.44Y-3.37
X4.44Y-3.83
X4.46Y-4.38
X4.4748Y-4.2092
X4.4875Y-4.0225
X4.5024Y-2.3
X4.5098Y-4.248
X4.515Y-3.975
X4.535Y-4.03
X4.5386Y-2.3626
X4.5669Y-2.5197
X4.5701Y-2.6295
X4.61Y-4.235
X4.625Y-3.4418
X4.6425Y-4.03
X4.645Y-3.65
X4.6675Y-4.125
X4.705Y-4.015
X4.7497Y-3.4494
X4.7646Y-2.6315
X4.7697Y-2.4921
X4.7697Y-2.5854
X4.77Y-3.72
X4.8Y-3.875
X4.8525Y-3.55
X4.855Y-4.225
X4.89Y-4.48
X4.92Y-3.825
X4.925Y-3.6125
X4.9563Y-2.4874
X4.96Y-3.5175
X4.975Y-3.655
X4.9775Y-2.365
X5.013Y-2.635
X5.015Y-3.6125
X5.02Y-4.39
X5.0217Y-4.4941
X5.0252Y-2.4705
X5.0252Y-2.5665
X5.0433Y-3.6476
X5.0531Y-4.0
X5.06Y-4.18
X5.063Y-3.4331
X5.0709Y-3.7421
X5.09Y-4.23
X5.095Y-3.685
X5.0996Y-2.5366
X5.1378Y-4.1417
X5.1775Y-2.365
X5.178Y-2.5177
X5.2Y-4.39
X5.2165Y-3.7421
X5.2323Y-3.9921
X5.255Y-3.69
X5.26Y-3.74
X5.2917Y-2.5272
X5.2941Y-3.5181
X5.35Y-4.4
X5.3508Y-4.1331
X5.36Y-4.25
X5.3657Y-2.5098
X5.3772Y-2.2965
X5.39Y-3.74
X5.3937Y-3.4992
X5.405Y-3.61
X5.42Y-4.04
X5.4642Y-3.6079
X5.47Y-4.39
X5.4732Y-4.126
X5.5105Y-3.5215
X5.515Y-3.99
X5.5197Y-3.689
X5.52Y-4.35
X5.525Y-4.06
X5.525Y-4.26
X5.5256Y-3.75
X5.5315Y-3.6102
X5.5685Y-3.7556
X5.5906Y-3.5115
X5.61Y-4.295
X5.625Y-4.445
X5.6585Y-3.7556
X5.6771Y-4.003
X5.6772Y-4.0413
X5.6772Y-4.0846
X5.6775Y-2.365
X5.698Y-4.1724
X5.7106Y-3.5276
X5.7165Y-3.6043
X5.735Y-4.205
X5.7461Y-3.9764
X5.76Y-4.38
X5.7898Y-4.1516
X5.811Y-3.8169
X5.82Y-4.4
X5.8327Y-3.3691
X5.8563Y-4.0748
X5.8681Y-3.3642
X5.8791Y-3.1138
X5.8811Y-3.011
X5.8815Y-2.7398
X5.8815Y-2.8319
X5.8825Y-2.8725
X5.8909Y-2.6843
X5.8929Y-2.6449
X5.9026Y-3.7653
X5.905Y-4.495
X5.9094Y-3.6457
X5.9134Y-3.4053
X5.942Y-3.4063
X5.9496Y-2.7047
X5.9496Y-2.7366
X5.96Y-4.3933
X5.9646Y-3.2087
X5.9646Y-3.6437
X5.9673Y-3.2866
X5.9831Y-3.3984
X6.0035Y-3.4311
X6.0079Y-3.7677
X6.0276Y-4.1693
X6.028Y-3.4563
X6.0315Y-3.7185
X6.0362Y-2.4945
X6.0394Y-4.498
X6.0433Y-4.4469
X6.0839Y-3.2665
X6.0843Y-3.1165
X6.0906Y-3.0437
X6.0945Y-2.9701
X6.0984Y-2.8913
X6.1197Y-2.5094
X6.1287Y-3.9579
X6.1366Y-3.261
X6.1375Y-2.545
X6.1504Y-4.0992
X6.1508Y-2.737
X6.16Y-2.815
X6.1614Y-4.4488
X6.1618Y-3.574
X6.1673Y-3.9252
X6.1685Y-2.4748
X6.1846Y-3.2598
X6.1933Y-2.7949
X6.2Y-2.5525
X6.213Y-2.6
X6.2177Y-3.039
X6.2217Y-4.0828
X6.2225Y-2.76
X6.2354Y-2.824
X6.2421Y-3.1724
X6.2575Y-3.2475
X6.2575Y-3.5475
X6.26Y-3.205
X6.2618Y-4.415
X6.263Y-2.9319
X6.2657Y-3.0067
X6.2752Y-3.1472
X6.2756Y-4.1752
X6.2776Y-4.1008
X6.2776Y-4.4961
X6.2882Y-2.5819
X6.2953Y-3.0787
X6.3169Y-4.2047
X6.3169Y-4.4409
X6.3205Y-3.1449
X6.3279Y-4.1472
X6.3315Y-3.4697
X6.3319Y-3.4008
X6.3346Y-3.111
X6.335Y-3.7701
X6.3362Y-3.6181
X6.3398Y-3.9827
X6.35Y-2.88
X6.35Y-3.04
X6.3516Y-2.5429
X6.3528Y-3.5205
X6.3575Y-2.8394
X6.37Y-2.92
X6.37Y-3.0
X6.3819Y-3.5728
X6.39Y-2.88
X6.39Y-3.04
X6.3933Y-3.4031
X6.3949Y-4.3728
X6.3984Y-2.5433
X6.4012Y-2.5949
X6.41Y-2.92
X6.41Y-3.0
X6.4134Y-4.1327
X6.4165Y-4.3043
X6.424Y-4.2012
X6.428Y-3.611
X6.43Y-2.88
X6.43Y-3.04
X6.4327Y-2.7693
X6.435Y-3.265
X6.4405Y-3.4283
X6.4405Y-3.5233
X6.45Y-2.92
X6.45Y-3.0
X6.4504Y-2.539
X6.4531Y-3.9894
X6.455Y-3.5825
X6.465Y-3.0875
X6.47Y-2.88
X6.47Y-3.04
X6.49Y-2.92
X6.49Y-3.0
X6.5012Y-3.2654
X6.502Y-4.1323
X6.5025Y-2.5125
X6.5059Y-3.9862
X6.522Y-4.3008
X6.522Y-4.3732
X6.5375Y-3.2725
X6.5525Y-2.475
X6.5525Y-2.5575
X6.5551Y-3.6406
X6.5583Y-3.5665
X6.5724Y-3.2626
X6.5898Y-2.9134
X6.5921Y-2.9843
X6.5925Y-4.4429
X6.5929Y-2.2909
X6.5933Y-2.8807
X6.6004Y-3.9646
X6.6142Y-3.6654
X6.62Y-3.0975
X6.62Y-3.2625
X6.6236Y-3.4823
X6.6319Y-3.8012
X6.6331Y-2.2728
X6.645Y-2.3775
X6.6496Y-4.3858
X6.6535Y-4.2343
X6.655Y-4.155
X6.6575Y-2.3287
X6.665Y-2.7165
X6.6655Y-2.5991
X6.6756Y-2.4843
X6.6859Y-3.4491
X6.6957Y-3.1622
X6.6972Y-4.1902
X6.7007Y-3.6882
X6.7146Y-4.252
X6.715Y-4.11
X6.72Y-2.6
X6.726Y-2.4642
X6.7402Y-2.7205
X6.75Y-3.385
X6.7586Y-3.2793
X6.76Y-2.66
X6.76Y-3.33
X6.763Y-3.4937
X6.765Y-3.62
X6.765Y-3.71
X6.7681Y-3.1205
X6.77Y-3.9575
X6.8Y-4.08
X6.8051Y-3.6122
X6.825Y-4.115
X6.828Y-3.9429
X6.8346Y-3.7425
X6.835Y-4.055
X6.875Y-4.105
X6.8839Y-3.6063
X6.9059Y-3.9299
X6.9083Y-3.7413
X6.965Y-3.58
X6.9681Y-3.8941
X6.9705Y-3.7874
T4
X6.8701Y-3.7854
X6.8701Y-3.8366
X6.8701Y-3.8878
X6.9094Y-3.811
X6.9094Y-3.8622
T5
X3.8195Y-3.8725
X3.835Y-3.445
X3.86Y-3.49
X3.91Y-3.505
X3.96Y-3.505
X4.03Y-3.505
X4.55Y-3.8275
X4.5575Y-3.9325
X4.7025Y-3.6575
X4.78Y-4.09
X4.78Y-4.16
X4.825Y-3.475
X4.83Y-4.06
X4.9Y-4.06
X4.93Y-4.11
X4.93Y-4.17
X4.945Y-3.565
X5.0846Y-3.4665
X6.09Y-2.77
X6.1673Y-3.7657
T6
X5.755Y-4.455
X5.855Y-4.455
X5.955Y-4.455
X4.3Y-2.7
X5.8Y-2.8
X5.8Y-2.9
X5.0Y-3.0
X5.1Y-2.9
X4.2Y-3.0
X4.3Y-2.9
X3.9Y-2.9
X4.5Y-2.7
X5.1Y-3.2
X4.5Y-3.1
X3.8Y-2.7
X3.8Y-2.8
X3.8Y-2.9
X3.8Y-3.0
X3.8Y-3.1
X3.8Y-3.2
X3.8Y-3.3
X5.3Y-2.8
X4.06Y-3.955
X4.06Y-4.055
X4.4Y-3.1
X3.9Y-3.3
X4.0Y-2.7
X5.4Y-2.7
X5.6Y-2.7
X5.5Y-3.2
X4.6268Y-2.315
X4.6268Y-2.415
X4.7268Y-2.315
X4.7268Y-2.415
X4.8268Y-2.315
X4.8268Y-2.415
X4.9268Y-2.315
X4.9268Y-2.415
X5.0268Y-2.315
X5.0268Y-2.415
X5.1268Y-2.315
X5.1268Y-2.415
X5.2268Y-2.315
X5.2268Y-2.415
X5.3268Y-2.315
X5.3268Y-2.415
X5.4268Y-2.315
X5.4268Y-2.415
X5.5268Y-2.315
X5.5268Y-2.415
X5.6268Y-2.315
X5.6268Y-2.415
X5.7268Y-2.315
X5.7268Y-2.415
X5.8268Y-2.315
X5.8268Y-2.415
X5.9268Y-2.315
X5.9268Y-2.415
X6.0268Y-2.315
X6.0268Y-2.415
X6.1268Y-2.315
X6.1268Y-2.415
X6.2268Y-2.315
X6.2268Y-2.415
X6.3268Y-2.315
X6.3268Y-2.415
X6.4268Y-2.315
X6.4268Y-2.415
X6.5268Y-2.315
X6.5268Y-2.415
X5.6Y-3.0
X5.7Y-2.9
X4.7Y-3.2
X4.8Y-2.8
X4.4Y-3.3
X5.7Y-3.0
X4.9Y-3.3
X4.4Y-3.2
X5.2Y-3.3
X4.4Y-2.8
X4.2Y-2.7
X5.8Y-3.1
X5.1Y-3.1
X4.2Y-2.8
X4.3Y-3.1
X4.1Y-3.1
X4.0Y-3.1
X5.8Y-3.3
X5.1Y-2.7
X5.0Y-2.9
X5.2Y-3.2
X3.9Y-3.0
X5.3Y-3.2
X5.4Y-3.0
X4.4Y-2.9
X4.6Y-3.0
X4.1Y-3.0
X4.1Y-2.7
X5.3Y-2.7
X5.4Y-2.9
X4.7Y-3.1
X5.6Y-2.9
X4.6Y-2.9
X4.8Y-3.2
X5.1791Y-3.5646
X4.8Y-3.3
X4.7Y-3.3
X5.6Y-3.3
X4.2Y-3.3
X5.3Y-3.0
X5.7Y-2.7
X5.0Y-3.1
X4.2Y-3.1
X4.2Y-2.9
X4.0Y-3.2
X4.0Y-2.9
X5.2Y-2.7
X5.2Y-3.0
X5.5Y-3.0
X4.9Y-3.1
X4.1Y-3.3
X3.5778Y-2.7
X3.5778Y-2.8
X3.5778Y-2.9
X3.5778Y-3.0
X3.5778Y-3.1
X3.5778Y-3.2
X3.5778Y-3.3
X3.5778Y-3.4
X4.6Y-2.7
X5.5Y-2.9
X5.6Y-3.1
X5.7Y-2.8
X4.8Y-3.0
X4.9Y-3.2
X5.0Y-3.3
X5.7Y-3.2
X4.26Y-3.955
X4.26Y-4.055
X4.3Y-3.2
X5.1Y-3.3
X4.4Y-3.0
X5.8Y-2.7
X5.8Y-3.2
X5.0Y-3.2
X5.1Y-2.8
X4.2Y-3.2
X4.3Y-2.8
X4.1Y-2.9
X4.0Y-3.0
X3.9268Y-2.315
X3.9268Y-2.415
X4.0268Y-2.315
X4.0268Y-2.415
X4.1268Y-2.315
X4.1268Y-2.415
X4.9Y-2.7
X4.7Y-2.7
X5.0Y-2.8
X5.2Y-2.9
X3.9Y-3.2
X5.3Y-2.9
X5.4Y-3.1
X4.5Y-3.2
X4.6Y-3.1
X4.1Y-2.8
X3.9Y-2.7
X4.8Y-2.7
X5.4Y-2.8
X4.7Y-2.8
X5.6Y-2.8
X4.6Y-2.8
X4.8Y-2.9
X4.3Y-3.3
X5.4Y-3.3
X4.9Y-2.9
X5.7Y-3.3
X5.6913Y-3.8823
X5.7913Y-3.8823
X5.8913Y-3.8823
X5.9913Y-3.8823
X4.5Y-3.3
X4.5Y-2.8
X5.3Y-3.1
X4.6Y-3.3
X4.5Y-2.9
X5.8Y-3.0
X5.1Y-3.0
X3.5758Y-3.6132
X3.5758Y-3.7132
X4.9Y-3.0
X4.3Y-3.0
X4.5Y-3.0
X4.1Y-3.2
X4.0Y-2.8
X5.0Y-2.7
X5.2Y-3.1
X3.9Y-3.1
X5.5Y-2.7
X5.2Y-2.8
X5.5Y-3.1
X4.6Y-3.2
X3.9Y-2.8
X4.0Y-3.3
X4.4Y-2.7
X5.4Y-3.2
X5.5Y-2.8
X4.7Y-3.0
X5.6Y-3.2
X5.7Y-3.1
X4.7Y-2.9
X4.8Y-3.1
X5.3Y-3.3
X5.5Y-3.3
X5.1006Y-4.4581
X5.2006Y-4.4581
X5.3006Y-4.4581
X5.4006Y-4.4581
X4.9Y-2.8
T7
X4.385Y-4.34
X4.535Y-4.34
X4.685Y-4.34
X4.835Y-4.34
X3.9602Y-4.3406
X4.1102Y-4.3406
T2
G00X6.8591Y-3.6959
M15
G01X6.8984Y-3.6959
M16
G05
G00X6.8591Y-3.9774
M15
G01X6.8984Y-3.9774
M16
G05
T0
M30
