%TF.GenerationSoftware,KiCad,Pcbnew,(5.1.8-0-10_14)*%
%TF.CreationDate,2020-11-27T14:09:33+02:00*%
%TF.ProjectId,SH-ESP32,53482d45-5350-4333-922e-6b696361645f,0.2.0*%
%TF.SameCoordinates,Original*%
%TF.FileFunction,Legend,Top*%
%TF.FilePolarity,Positive*%
%FSLAX46Y46*%
G04 Gerber Fmt 4.6, Leading zero omitted, Abs format (unit mm)*
G04 Created by KiCad (PCBNEW (5.1.8-0-10_14)) date 2020-11-27 14:09:33*
%MOMM*%
%LPD*%
G01*
G04 APERTURE LIST*
%ADD10C,0.160000*%
%ADD11C,0.120000*%
%TA.AperFunction,Profile*%
%ADD12C,0.050000*%
%TD*%
%ADD13C,0.250000*%
%ADD14C,0.125000*%
%ADD15C,0.400000*%
%ADD16C,0.200000*%
%ADD17C,0.300000*%
%ADD18C,0.150000*%
%ADD19C,0.130000*%
G04 APERTURE END LIST*
D10*
X103419047Y-105571428D02*
X104180952Y-105571428D01*
X103800000Y-105952380D02*
X103800000Y-105190476D01*
D11*
X104804988Y-105600000D02*
G75*
G03*
X104804988Y-105600000I-1004988J0D01*
G01*
X101554988Y-105620000D02*
G75*
G03*
X101554988Y-105620000I-1004988J0D01*
G01*
D10*
X100149047Y-105581428D02*
X100910952Y-105581428D01*
D11*
X128750000Y-64750000D02*
X118750000Y-64750000D01*
X128750000Y-67000000D02*
X128750000Y-64750000D01*
X118750000Y-67000000D02*
X128750000Y-67000000D01*
X118750000Y-64750000D02*
X118750000Y-67000000D01*
X129000000Y-64500000D02*
X129000000Y-63000000D01*
X144250000Y-64500000D02*
X129000000Y-64500000D01*
X144250000Y-63000000D02*
X144250000Y-64500000D01*
X129000000Y-63000000D02*
X144250000Y-63000000D01*
X167000000Y-62750000D02*
X167000000Y-66250000D01*
X149250000Y-66750000D02*
X153250000Y-66750000D01*
X167000000Y-62750000D02*
X149250000Y-62750000D01*
X149250000Y-62750000D02*
X149250000Y-66750000D01*
X167000000Y-57500000D02*
X149250000Y-57500000D01*
X167000000Y-62500000D02*
X167000000Y-57500000D01*
X149250000Y-62500000D02*
X167000000Y-62500000D01*
X149250000Y-57500000D02*
X149250000Y-62500000D01*
X144250000Y-60000000D02*
X129000000Y-60000000D01*
X144250000Y-57500000D02*
X144250000Y-60000000D01*
X129000000Y-57500000D02*
X144250000Y-57500000D01*
X129000000Y-60000000D02*
X129000000Y-57500000D01*
X118750000Y-62500000D02*
X118750000Y-60000000D01*
X128750000Y-62500000D02*
X118750000Y-62500000D01*
X128750000Y-60000000D02*
X128750000Y-62500000D01*
X118750000Y-60000000D02*
X128750000Y-60000000D01*
D10*
X166761904Y-90251619D02*
X166761904Y-89756380D01*
X167066666Y-90023047D01*
X167066666Y-89908761D01*
X167104761Y-89832571D01*
X167142857Y-89794476D01*
X167219047Y-89756380D01*
X167409523Y-89756380D01*
X167485714Y-89794476D01*
X167523809Y-89832571D01*
X167561904Y-89908761D01*
X167561904Y-90137333D01*
X167523809Y-90213523D01*
X167485714Y-90251619D01*
X165461904Y-89856380D02*
X165461904Y-90313523D01*
X165461904Y-90084952D02*
X164661904Y-90084952D01*
X164776190Y-90161142D01*
X164852380Y-90237333D01*
X164890476Y-90313523D01*
X161361904Y-91113523D02*
X161361904Y-90618285D01*
X161666666Y-90884952D01*
X161666666Y-90770666D01*
X161704761Y-90694476D01*
X161742857Y-90656380D01*
X161819047Y-90618285D01*
X162009523Y-90618285D01*
X162085714Y-90656380D01*
X162123809Y-90694476D01*
X162161904Y-90770666D01*
X162161904Y-90999238D01*
X162123809Y-91075428D01*
X162085714Y-91113523D01*
X161628571Y-89932571D02*
X162161904Y-89932571D01*
X161323809Y-90123047D02*
X161895238Y-90313523D01*
X161895238Y-89818285D01*
X159461904Y-91113523D02*
X159461904Y-90618285D01*
X159766666Y-90884952D01*
X159766666Y-90770666D01*
X159804761Y-90694476D01*
X159842857Y-90656380D01*
X159919047Y-90618285D01*
X160109523Y-90618285D01*
X160185714Y-90656380D01*
X160223809Y-90694476D01*
X160261904Y-90770666D01*
X160261904Y-90999238D01*
X160223809Y-91075428D01*
X160185714Y-91113523D01*
X159538095Y-90313523D02*
X159500000Y-90275428D01*
X159461904Y-90199238D01*
X159461904Y-90008761D01*
X159500000Y-89932571D01*
X159538095Y-89894476D01*
X159614285Y-89856380D01*
X159690476Y-89856380D01*
X159804761Y-89894476D01*
X160261904Y-90351619D01*
X160261904Y-89856380D01*
X158261904Y-90618285D02*
X158261904Y-91075428D01*
X158261904Y-90846857D02*
X157461904Y-90846857D01*
X157576190Y-90923047D01*
X157652380Y-90999238D01*
X157690476Y-91075428D01*
X157461904Y-90351619D02*
X157461904Y-89818285D01*
X158261904Y-90161142D01*
X156661904Y-90618285D02*
X156661904Y-91075428D01*
X156661904Y-90846857D02*
X155861904Y-90846857D01*
X155976190Y-90923047D01*
X156052380Y-90999238D01*
X156090476Y-91075428D01*
X155861904Y-89932571D02*
X155861904Y-90084952D01*
X155900000Y-90161142D01*
X155938095Y-90199238D01*
X156052380Y-90275428D01*
X156204761Y-90313523D01*
X156509523Y-90313523D01*
X156585714Y-90275428D01*
X156623809Y-90237333D01*
X156661904Y-90161142D01*
X156661904Y-90008761D01*
X156623809Y-89932571D01*
X156585714Y-89894476D01*
X156509523Y-89856380D01*
X156319047Y-89856380D01*
X156242857Y-89894476D01*
X156204761Y-89932571D01*
X156166666Y-90008761D01*
X156166666Y-90161142D01*
X156204761Y-90237333D01*
X156242857Y-90275428D01*
X156319047Y-90313523D01*
X130261904Y-63250000D02*
X130166666Y-63202380D01*
X130023809Y-63202380D01*
X129880952Y-63250000D01*
X129785714Y-63345238D01*
X129738095Y-63440476D01*
X129690476Y-63630952D01*
X129690476Y-63773809D01*
X129738095Y-63964285D01*
X129785714Y-64059523D01*
X129880952Y-64154761D01*
X130023809Y-64202380D01*
X130119047Y-64202380D01*
X130261904Y-64154761D01*
X130309523Y-64107142D01*
X130309523Y-63773809D01*
X130119047Y-63773809D01*
X153011904Y-63250000D02*
X152916666Y-63202380D01*
X152773809Y-63202380D01*
X152630952Y-63250000D01*
X152535714Y-63345238D01*
X152488095Y-63440476D01*
X152440476Y-63630952D01*
X152440476Y-63773809D01*
X152488095Y-63964285D01*
X152535714Y-64059523D01*
X152630952Y-64154761D01*
X152773809Y-64202380D01*
X152869047Y-64202380D01*
X153011904Y-64154761D01*
X153059523Y-64107142D01*
X153059523Y-63773809D01*
X152869047Y-63773809D01*
X150119047Y-63821428D02*
X150880952Y-63821428D01*
X150500000Y-64202380D02*
X150500000Y-63440476D01*
X142369047Y-63821428D02*
X143130952Y-63821428D01*
X142750000Y-64202380D02*
X142750000Y-63440476D01*
X122119047Y-63821428D02*
X122880952Y-63821428D01*
X122500000Y-64202380D02*
X122500000Y-63440476D01*
X122119047Y-65821428D02*
X122880952Y-65821428D01*
X122500000Y-66202380D02*
X122500000Y-65440476D01*
X117511904Y-65250000D02*
X117416666Y-65202380D01*
X117273809Y-65202380D01*
X117130952Y-65250000D01*
X117035714Y-65345238D01*
X116988095Y-65440476D01*
X116940476Y-65630952D01*
X116940476Y-65773809D01*
X116988095Y-65964285D01*
X117035714Y-66059523D01*
X117130952Y-66154761D01*
X117273809Y-66202380D01*
X117369047Y-66202380D01*
X117511904Y-66154761D01*
X117559523Y-66107142D01*
X117559523Y-65773809D01*
X117369047Y-65773809D01*
X117511904Y-63250000D02*
X117416666Y-63202380D01*
X117273809Y-63202380D01*
X117130952Y-63250000D01*
X117035714Y-63345238D01*
X116988095Y-63440476D01*
X116940476Y-63630952D01*
X116940476Y-63773809D01*
X116988095Y-63964285D01*
X117035714Y-64059523D01*
X117130952Y-64154761D01*
X117273809Y-64202380D01*
X117369047Y-64202380D01*
X117511904Y-64154761D01*
X117559523Y-64107142D01*
X117559523Y-63773809D01*
X117369047Y-63773809D01*
X120011904Y-65250000D02*
X119916666Y-65202380D01*
X119773809Y-65202380D01*
X119630952Y-65250000D01*
X119535714Y-65345238D01*
X119488095Y-65440476D01*
X119440476Y-65630952D01*
X119440476Y-65773809D01*
X119488095Y-65964285D01*
X119535714Y-66059523D01*
X119630952Y-66154761D01*
X119773809Y-66202380D01*
X119869047Y-66202380D01*
X120011904Y-66154761D01*
X120059523Y-66107142D01*
X120059523Y-65773809D01*
X119869047Y-65773809D01*
X120011904Y-63250000D02*
X119916666Y-63202380D01*
X119773809Y-63202380D01*
X119630952Y-63250000D01*
X119535714Y-63345238D01*
X119488095Y-63440476D01*
X119440476Y-63630952D01*
X119440476Y-63773809D01*
X119488095Y-63964285D01*
X119535714Y-64059523D01*
X119630952Y-64154761D01*
X119773809Y-64202380D01*
X119869047Y-64202380D01*
X120011904Y-64154761D01*
X120059523Y-64107142D01*
X120059523Y-63773809D01*
X119869047Y-63773809D01*
X155761904Y-65250000D02*
X155666666Y-65202380D01*
X155523809Y-65202380D01*
X155380952Y-65250000D01*
X155285714Y-65345238D01*
X155238095Y-65440476D01*
X155190476Y-65630952D01*
X155190476Y-65773809D01*
X155238095Y-65964285D01*
X155285714Y-66059523D01*
X155380952Y-66154761D01*
X155523809Y-66202380D01*
X155619047Y-66202380D01*
X155761904Y-66154761D01*
X155809523Y-66107142D01*
X155809523Y-65773809D01*
X155619047Y-65773809D01*
X150761904Y-65250000D02*
X150666666Y-65202380D01*
X150523809Y-65202380D01*
X150380952Y-65250000D01*
X150285714Y-65345238D01*
X150238095Y-65440476D01*
X150190476Y-65630952D01*
X150190476Y-65773809D01*
X150238095Y-65964285D01*
X150285714Y-66059523D01*
X150380952Y-66154761D01*
X150523809Y-66202380D01*
X150619047Y-66202380D01*
X150761904Y-66154761D01*
X150809523Y-66107142D01*
X150809523Y-65773809D01*
X150619047Y-65773809D01*
X143011904Y-65250000D02*
X142916666Y-65202380D01*
X142773809Y-65202380D01*
X142630952Y-65250000D01*
X142535714Y-65345238D01*
X142488095Y-65440476D01*
X142440476Y-65630952D01*
X142440476Y-65773809D01*
X142488095Y-65964285D01*
X142535714Y-66059523D01*
X142630952Y-66154761D01*
X142773809Y-66202380D01*
X142869047Y-66202380D01*
X143011904Y-66154761D01*
X143059523Y-66107142D01*
X143059523Y-65773809D01*
X142869047Y-65773809D01*
X145166666Y-65202380D02*
X145785714Y-65202380D01*
X145452380Y-65583333D01*
X145595238Y-65583333D01*
X145690476Y-65630952D01*
X145738095Y-65678571D01*
X145785714Y-65773809D01*
X145785714Y-66011904D01*
X145738095Y-66107142D01*
X145690476Y-66154761D01*
X145595238Y-66202380D01*
X145309523Y-66202380D01*
X145214285Y-66154761D01*
X145166666Y-66107142D01*
X148035714Y-66202380D02*
X147464285Y-66202380D01*
X147750000Y-66202380D02*
X147750000Y-65202380D01*
X147654761Y-65345238D01*
X147559523Y-65440476D01*
X147464285Y-65488095D01*
X152702380Y-65202380D02*
X152797619Y-65202380D01*
X152892857Y-65250000D01*
X152940476Y-65297619D01*
X152988095Y-65392857D01*
X153035714Y-65583333D01*
X153035714Y-65821428D01*
X152988095Y-66011904D01*
X152940476Y-66107142D01*
X152892857Y-66154761D01*
X152797619Y-66202380D01*
X152702380Y-66202380D01*
X152607142Y-66154761D01*
X152559523Y-66107142D01*
X152511904Y-66011904D01*
X152464285Y-65821428D01*
X152464285Y-65583333D01*
X152511904Y-65392857D01*
X152559523Y-65297619D01*
X152607142Y-65250000D01*
X152702380Y-65202380D01*
D12*
X169500000Y-115000000D02*
G75*
G02*
X178000000Y-106500000I8500000J0D01*
G01*
X89000000Y-106500000D02*
G75*
G02*
X97500000Y-115000000I0J-8500000D01*
G01*
X178000000Y-65500000D02*
G75*
G02*
X169500000Y-57000000I0J8500000D01*
G01*
X97500000Y-57000000D02*
G75*
G02*
X89000000Y-65500000I-8500000J0D01*
G01*
D13*
X105279761Y-98223809D02*
X105327380Y-98080952D01*
X105327380Y-97842857D01*
X105279761Y-97747619D01*
X105232142Y-97700000D01*
X105136904Y-97652380D01*
X105041666Y-97652380D01*
X104946428Y-97700000D01*
X104898809Y-97747619D01*
X104851190Y-97842857D01*
X104803571Y-98033333D01*
X104755952Y-98128571D01*
X104708333Y-98176190D01*
X104613095Y-98223809D01*
X104517857Y-98223809D01*
X104422619Y-98176190D01*
X104375000Y-98128571D01*
X104327380Y-98033333D01*
X104327380Y-97795238D01*
X104375000Y-97652380D01*
X105327380Y-96795238D02*
X104803571Y-96795238D01*
X104708333Y-96842857D01*
X104660714Y-96938095D01*
X104660714Y-97128571D01*
X104708333Y-97223809D01*
X105279761Y-96795238D02*
X105327380Y-96890476D01*
X105327380Y-97128571D01*
X105279761Y-97223809D01*
X105184523Y-97271428D01*
X105089285Y-97271428D01*
X104994047Y-97223809D01*
X104946428Y-97128571D01*
X104946428Y-96890476D01*
X104898809Y-96795238D01*
X105327380Y-96319047D02*
X104660714Y-96319047D01*
X104327380Y-96319047D02*
X104375000Y-96366666D01*
X104422619Y-96319047D01*
X104375000Y-96271428D01*
X104327380Y-96319047D01*
X104422619Y-96319047D01*
X105327380Y-95700000D02*
X105279761Y-95795238D01*
X105184523Y-95842857D01*
X104327380Y-95842857D01*
X105327380Y-95176190D02*
X105279761Y-95271428D01*
X105232142Y-95319047D01*
X105136904Y-95366666D01*
X104851190Y-95366666D01*
X104755952Y-95319047D01*
X104708333Y-95271428D01*
X104660714Y-95176190D01*
X104660714Y-95033333D01*
X104708333Y-94938095D01*
X104755952Y-94890476D01*
X104851190Y-94842857D01*
X105136904Y-94842857D01*
X105232142Y-94890476D01*
X105279761Y-94938095D01*
X105327380Y-95033333D01*
X105327380Y-95176190D01*
X105327380Y-94414285D02*
X104660714Y-94414285D01*
X104851190Y-94414285D02*
X104755952Y-94366666D01*
X104708333Y-94319047D01*
X104660714Y-94223809D01*
X104660714Y-94128571D01*
X105327380Y-93033333D02*
X104327380Y-93033333D01*
X104803571Y-93033333D02*
X104803571Y-92461904D01*
X105327380Y-92461904D02*
X104327380Y-92461904D01*
X105327380Y-91557142D02*
X104803571Y-91557142D01*
X104708333Y-91604761D01*
X104660714Y-91700000D01*
X104660714Y-91890476D01*
X104708333Y-91985714D01*
X105279761Y-91557142D02*
X105327380Y-91652380D01*
X105327380Y-91890476D01*
X105279761Y-91985714D01*
X105184523Y-92033333D01*
X105089285Y-92033333D01*
X104994047Y-91985714D01*
X104946428Y-91890476D01*
X104946428Y-91652380D01*
X104898809Y-91557142D01*
X104660714Y-91223809D02*
X104660714Y-90842857D01*
X104327380Y-91080952D02*
X105184523Y-91080952D01*
X105279761Y-91033333D01*
X105327380Y-90938095D01*
X105327380Y-90842857D01*
X104660714Y-89842857D02*
X105327380Y-89652380D01*
X104851190Y-89461904D01*
X105327380Y-89271428D01*
X104660714Y-89080952D01*
X105327380Y-88700000D02*
X104660714Y-88700000D01*
X104327380Y-88700000D02*
X104375000Y-88747619D01*
X104422619Y-88700000D01*
X104375000Y-88652380D01*
X104327380Y-88700000D01*
X104422619Y-88700000D01*
X104660714Y-88366666D02*
X104660714Y-87985714D01*
X104327380Y-88223809D02*
X105184523Y-88223809D01*
X105279761Y-88176190D01*
X105327380Y-88080952D01*
X105327380Y-87985714D01*
X105327380Y-87652380D02*
X104327380Y-87652380D01*
X105327380Y-87223809D02*
X104803571Y-87223809D01*
X104708333Y-87271428D01*
X104660714Y-87366666D01*
X104660714Y-87509523D01*
X104708333Y-87604761D01*
X104755952Y-87652380D01*
X106553571Y-97628571D02*
X106553571Y-97295238D01*
X107077380Y-97152380D02*
X107077380Y-97628571D01*
X106077380Y-97628571D01*
X106077380Y-97152380D01*
X107029761Y-96771428D02*
X107077380Y-96628571D01*
X107077380Y-96390476D01*
X107029761Y-96295238D01*
X106982142Y-96247619D01*
X106886904Y-96200000D01*
X106791666Y-96200000D01*
X106696428Y-96247619D01*
X106648809Y-96295238D01*
X106601190Y-96390476D01*
X106553571Y-96580952D01*
X106505952Y-96676190D01*
X106458333Y-96723809D01*
X106363095Y-96771428D01*
X106267857Y-96771428D01*
X106172619Y-96723809D01*
X106125000Y-96676190D01*
X106077380Y-96580952D01*
X106077380Y-96342857D01*
X106125000Y-96200000D01*
X107077380Y-95771428D02*
X106077380Y-95771428D01*
X106077380Y-95390476D01*
X106125000Y-95295238D01*
X106172619Y-95247619D01*
X106267857Y-95200000D01*
X106410714Y-95200000D01*
X106505952Y-95247619D01*
X106553571Y-95295238D01*
X106601190Y-95390476D01*
X106601190Y-95771428D01*
X106077380Y-94866666D02*
X106077380Y-94247619D01*
X106458333Y-94580952D01*
X106458333Y-94438095D01*
X106505952Y-94342857D01*
X106553571Y-94295238D01*
X106648809Y-94247619D01*
X106886904Y-94247619D01*
X106982142Y-94295238D01*
X107029761Y-94342857D01*
X107077380Y-94438095D01*
X107077380Y-94723809D01*
X107029761Y-94819047D01*
X106982142Y-94866666D01*
X106172619Y-93866666D02*
X106125000Y-93819047D01*
X106077380Y-93723809D01*
X106077380Y-93485714D01*
X106125000Y-93390476D01*
X106172619Y-93342857D01*
X106267857Y-93295238D01*
X106363095Y-93295238D01*
X106505952Y-93342857D01*
X107077380Y-93914285D01*
X107077380Y-93295238D01*
X107077380Y-91533333D02*
X106601190Y-91866666D01*
X107077380Y-92104761D02*
X106077380Y-92104761D01*
X106077380Y-91723809D01*
X106125000Y-91628571D01*
X106172619Y-91580952D01*
X106267857Y-91533333D01*
X106410714Y-91533333D01*
X106505952Y-91580952D01*
X106553571Y-91628571D01*
X106601190Y-91723809D01*
X106601190Y-92104761D01*
X106077380Y-90914285D02*
X106077380Y-90819047D01*
X106125000Y-90723809D01*
X106172619Y-90676190D01*
X106267857Y-90628571D01*
X106458333Y-90580952D01*
X106696428Y-90580952D01*
X106886904Y-90628571D01*
X106982142Y-90676190D01*
X107029761Y-90723809D01*
X107077380Y-90819047D01*
X107077380Y-90914285D01*
X107029761Y-91009523D01*
X106982142Y-91057142D01*
X106886904Y-91104761D01*
X106696428Y-91152380D01*
X106458333Y-91152380D01*
X106267857Y-91104761D01*
X106172619Y-91057142D01*
X106125000Y-91009523D01*
X106077380Y-90914285D01*
X106982142Y-90152380D02*
X107029761Y-90104761D01*
X107077380Y-90152380D01*
X107029761Y-90200000D01*
X106982142Y-90152380D01*
X107077380Y-90152380D01*
X106172619Y-89723809D02*
X106125000Y-89676190D01*
X106077380Y-89580952D01*
X106077380Y-89342857D01*
X106125000Y-89247619D01*
X106172619Y-89200000D01*
X106267857Y-89152380D01*
X106363095Y-89152380D01*
X106505952Y-89200000D01*
X107077380Y-89771428D01*
X107077380Y-89152380D01*
X106982142Y-88723809D02*
X107029761Y-88676190D01*
X107077380Y-88723809D01*
X107029761Y-88771428D01*
X106982142Y-88723809D01*
X107077380Y-88723809D01*
X106077380Y-88057142D02*
X106077380Y-87961904D01*
X106125000Y-87866666D01*
X106172619Y-87819047D01*
X106267857Y-87771428D01*
X106458333Y-87723809D01*
X106696428Y-87723809D01*
X106886904Y-87771428D01*
X106982142Y-87819047D01*
X107029761Y-87866666D01*
X107077380Y-87961904D01*
X107077380Y-88057142D01*
X107029761Y-88152380D01*
X106982142Y-88200000D01*
X106886904Y-88247619D01*
X106696428Y-88295238D01*
X106458333Y-88295238D01*
X106267857Y-88247619D01*
X106172619Y-88200000D01*
X106125000Y-88152380D01*
X106077380Y-88057142D01*
D14*
X105283047Y-103445500D02*
X105235428Y-103421690D01*
X105164000Y-103421690D01*
X105092571Y-103445500D01*
X105044952Y-103493119D01*
X105021142Y-103540738D01*
X104997333Y-103635976D01*
X104997333Y-103707404D01*
X105021142Y-103802642D01*
X105044952Y-103850261D01*
X105092571Y-103897880D01*
X105164000Y-103921690D01*
X105211619Y-103921690D01*
X105283047Y-103897880D01*
X105306857Y-103874071D01*
X105306857Y-103707404D01*
X105211619Y-103707404D01*
X105521142Y-103921690D02*
X105521142Y-103421690D01*
X105806857Y-103921690D01*
X105806857Y-103421690D01*
X106044952Y-103921690D02*
X106044952Y-103421690D01*
X106164000Y-103421690D01*
X106235428Y-103445500D01*
X106283047Y-103493119D01*
X106306857Y-103540738D01*
X106330666Y-103635976D01*
X106330666Y-103707404D01*
X106306857Y-103802642D01*
X106283047Y-103850261D01*
X106235428Y-103897880D01*
X106164000Y-103921690D01*
X106044952Y-103921690D01*
X104852833Y-101404190D02*
X105019500Y-101904190D01*
X105186166Y-101404190D01*
X105590928Y-101904190D02*
X105352833Y-101904190D01*
X105352833Y-101404190D01*
X105757595Y-101904190D02*
X105757595Y-101570857D01*
X105757595Y-101404190D02*
X105733785Y-101428000D01*
X105757595Y-101451809D01*
X105781404Y-101428000D01*
X105757595Y-101404190D01*
X105757595Y-101451809D01*
X105995690Y-101570857D02*
X105995690Y-101904190D01*
X105995690Y-101618476D02*
X106019500Y-101594666D01*
X106067119Y-101570857D01*
X106138547Y-101570857D01*
X106186166Y-101594666D01*
X106209976Y-101642285D01*
X106209976Y-101904190D01*
X106448071Y-101904190D02*
X106448071Y-101404190D01*
X106495690Y-101713714D02*
X106638547Y-101904190D01*
X106638547Y-101570857D02*
X106448071Y-101761333D01*
D10*
X106105833Y-99706500D02*
X106639166Y-99706500D01*
X106372500Y-99973166D02*
X106372500Y-99439833D01*
X104604333Y-99668000D02*
X105137666Y-99668000D01*
X104871000Y-99934666D02*
X104871000Y-99401333D01*
D15*
X104678500Y-103000000D02*
X106678500Y-103000000D01*
X104678500Y-100483500D02*
X106678500Y-100483500D01*
D10*
X90190476Y-87950000D02*
X90114285Y-87911904D01*
X90000000Y-87911904D01*
X89885714Y-87950000D01*
X89809523Y-88026190D01*
X89771428Y-88102380D01*
X89733333Y-88254761D01*
X89733333Y-88369047D01*
X89771428Y-88521428D01*
X89809523Y-88597619D01*
X89885714Y-88673809D01*
X90000000Y-88711904D01*
X90076190Y-88711904D01*
X90190476Y-88673809D01*
X90228571Y-88635714D01*
X90228571Y-88369047D01*
X90076190Y-88369047D01*
X90571428Y-88711904D02*
X90571428Y-87911904D01*
X91028571Y-88711904D01*
X91028571Y-87911904D01*
X91409523Y-88711904D02*
X91409523Y-87911904D01*
X91600000Y-87911904D01*
X91714285Y-87950000D01*
X91790476Y-88026190D01*
X91828571Y-88102380D01*
X91866666Y-88254761D01*
X91866666Y-88369047D01*
X91828571Y-88521428D01*
X91790476Y-88597619D01*
X91714285Y-88673809D01*
X91600000Y-88711904D01*
X91409523Y-88711904D01*
D11*
X95190000Y-85150000D02*
X92205000Y-85150000D01*
X95199200Y-67310000D02*
X92202000Y-67310000D01*
D13*
X89402380Y-102227380D02*
X90402380Y-101894047D01*
X89402380Y-101560714D01*
X90402380Y-101227380D02*
X89735714Y-101227380D01*
X89402380Y-101227380D02*
X89450000Y-101275000D01*
X89497619Y-101227380D01*
X89450000Y-101179761D01*
X89402380Y-101227380D01*
X89497619Y-101227380D01*
X89735714Y-100751190D02*
X90402380Y-100751190D01*
X89830952Y-100751190D02*
X89783333Y-100703571D01*
X89735714Y-100608333D01*
X89735714Y-100465476D01*
X89783333Y-100370238D01*
X89878571Y-100322619D01*
X90402380Y-100322619D01*
X90497619Y-100084523D02*
X90497619Y-99322619D01*
X90402380Y-99084523D02*
X89402380Y-99084523D01*
X89402380Y-98703571D01*
X89450000Y-98608333D01*
X89497619Y-98560714D01*
X89592857Y-98513095D01*
X89735714Y-98513095D01*
X89830952Y-98560714D01*
X89878571Y-98608333D01*
X89926190Y-98703571D01*
X89926190Y-99084523D01*
X90402380Y-98084523D02*
X89735714Y-98084523D01*
X89926190Y-98084523D02*
X89830952Y-98036904D01*
X89783333Y-97989285D01*
X89735714Y-97894047D01*
X89735714Y-97798809D01*
X90402380Y-97322619D02*
X90354761Y-97417857D01*
X90307142Y-97465476D01*
X90211904Y-97513095D01*
X89926190Y-97513095D01*
X89830952Y-97465476D01*
X89783333Y-97417857D01*
X89735714Y-97322619D01*
X89735714Y-97179761D01*
X89783333Y-97084523D01*
X89830952Y-97036904D01*
X89926190Y-96989285D01*
X90211904Y-96989285D01*
X90307142Y-97036904D01*
X90354761Y-97084523D01*
X90402380Y-97179761D01*
X90402380Y-97322619D01*
X89735714Y-96703571D02*
X89735714Y-96322619D01*
X89402380Y-96560714D02*
X90259523Y-96560714D01*
X90354761Y-96513095D01*
X90402380Y-96417857D01*
X90402380Y-96322619D01*
X91002380Y-66452380D02*
X91002380Y-65452380D01*
X92192857Y-65404761D02*
X91335714Y-66690476D01*
X92716666Y-65452380D02*
X92907142Y-65452380D01*
X93002380Y-65500000D01*
X93097619Y-65595238D01*
X93145238Y-65785714D01*
X93145238Y-66119047D01*
X93097619Y-66309523D01*
X93002380Y-66404761D01*
X92907142Y-66452380D01*
X92716666Y-66452380D01*
X92621428Y-66404761D01*
X92526190Y-66309523D01*
X92478571Y-66119047D01*
X92478571Y-65785714D01*
X92526190Y-65595238D01*
X92621428Y-65500000D01*
X92716666Y-65452380D01*
D10*
X142549523Y-86177380D02*
X142216190Y-85701190D01*
X141978095Y-86177380D02*
X141978095Y-85177380D01*
X142359047Y-85177380D01*
X142454285Y-85225000D01*
X142501904Y-85272619D01*
X142549523Y-85367857D01*
X142549523Y-85510714D01*
X142501904Y-85605952D01*
X142454285Y-85653571D01*
X142359047Y-85701190D01*
X141978095Y-85701190D01*
X144494285Y-86129761D02*
X144637142Y-86177380D01*
X144875238Y-86177380D01*
X144970476Y-86129761D01*
X145018095Y-86082142D01*
X145065714Y-85986904D01*
X145065714Y-85891666D01*
X145018095Y-85796428D01*
X144970476Y-85748809D01*
X144875238Y-85701190D01*
X144684761Y-85653571D01*
X144589523Y-85605952D01*
X144541904Y-85558333D01*
X144494285Y-85463095D01*
X144494285Y-85367857D01*
X144541904Y-85272619D01*
X144589523Y-85225000D01*
X144684761Y-85177380D01*
X144922857Y-85177380D01*
X145065714Y-85225000D01*
X147034285Y-85177380D02*
X147605714Y-85177380D01*
X147320000Y-86177380D02*
X147320000Y-85177380D01*
D11*
X126000000Y-65700000D02*
G75*
G03*
X126000000Y-65700000I-1000000J0D01*
G01*
X148700000Y-65700000D02*
G75*
G03*
X148700000Y-65700000I-1000000J0D01*
G01*
X146500000Y-65700000D02*
G75*
G03*
X146500000Y-65700000I-1000000J0D01*
G01*
X128500000Y-65700000D02*
G75*
G03*
X128500000Y-65700000I-1000000J0D01*
G01*
X136200000Y-65700000D02*
G75*
G03*
X136200000Y-65700000I-1000000J0D01*
G01*
X128400000Y-63700000D02*
G75*
G03*
X128400000Y-63700000I-1000000J0D01*
G01*
X130900000Y-65700000D02*
G75*
G03*
X130900000Y-65700000I-1000000J0D01*
G01*
X133400000Y-65700000D02*
G75*
G03*
X133400000Y-65700000I-1000000J0D01*
G01*
X126000000Y-63700000D02*
G75*
G03*
X126000000Y-63700000I-1000000J0D01*
G01*
D16*
X122387714Y-95321380D02*
X122387714Y-94321380D01*
X122902000Y-95321380D01*
X122902000Y-94321380D01*
X123330571Y-95321380D02*
X123330571Y-94321380D01*
X123630571Y-95035666D01*
X123930571Y-94321380D01*
X123930571Y-95321380D01*
X124359142Y-94797571D02*
X124659142Y-94797571D01*
X124787714Y-95321380D02*
X124359142Y-95321380D01*
X124359142Y-94321380D01*
X124787714Y-94321380D01*
X125130571Y-95035666D02*
X125559142Y-95035666D01*
X125044857Y-95321380D02*
X125344857Y-94321380D01*
X125644857Y-95321380D01*
X126544857Y-100933380D02*
X126716285Y-100933380D01*
X126802000Y-100981000D01*
X126887714Y-101076238D01*
X126930571Y-101266714D01*
X126930571Y-101600047D01*
X126887714Y-101790523D01*
X126802000Y-101885761D01*
X126716285Y-101933380D01*
X126544857Y-101933380D01*
X126459142Y-101885761D01*
X126373428Y-101790523D01*
X126330571Y-101600047D01*
X126330571Y-101266714D01*
X126373428Y-101076238D01*
X126459142Y-100981000D01*
X126544857Y-100933380D01*
X127316285Y-101266714D02*
X127316285Y-102266714D01*
X127316285Y-101314333D02*
X127402000Y-101266714D01*
X127573428Y-101266714D01*
X127659142Y-101314333D01*
X127702000Y-101361952D01*
X127744857Y-101457190D01*
X127744857Y-101742904D01*
X127702000Y-101838142D01*
X127659142Y-101885761D01*
X127573428Y-101933380D01*
X127402000Y-101933380D01*
X127316285Y-101885761D01*
X128002000Y-101266714D02*
X128344857Y-101266714D01*
X128130571Y-100933380D02*
X128130571Y-101790523D01*
X128173428Y-101885761D01*
X128259142Y-101933380D01*
X128344857Y-101933380D01*
X128773428Y-101933380D02*
X128687714Y-101885761D01*
X128644857Y-101838142D01*
X128602000Y-101742904D01*
X128602000Y-101457190D01*
X128644857Y-101361952D01*
X128687714Y-101314333D01*
X128773428Y-101266714D01*
X128902000Y-101266714D01*
X128987714Y-101314333D01*
X129030571Y-101361952D01*
X129073428Y-101457190D01*
X129073428Y-101742904D01*
X129030571Y-101838142D01*
X128987714Y-101885761D01*
X128902000Y-101933380D01*
X128773428Y-101933380D01*
X130144857Y-101933380D02*
X130144857Y-100933380D01*
X131216285Y-100885761D02*
X130444857Y-102171476D01*
X131687714Y-100933380D02*
X131859142Y-100933380D01*
X131944857Y-100981000D01*
X132030571Y-101076238D01*
X132073428Y-101266714D01*
X132073428Y-101600047D01*
X132030571Y-101790523D01*
X131944857Y-101885761D01*
X131859142Y-101933380D01*
X131687714Y-101933380D01*
X131602000Y-101885761D01*
X131516285Y-101790523D01*
X131473428Y-101600047D01*
X131473428Y-101266714D01*
X131516285Y-101076238D01*
X131602000Y-100981000D01*
X131687714Y-100933380D01*
D12*
X178000000Y-106500000D02*
X178000000Y-65500000D01*
D13*
X110260000Y-58114500D02*
X110117142Y-58043071D01*
X109902857Y-58043071D01*
X109688571Y-58114500D01*
X109545714Y-58257357D01*
X109474285Y-58400214D01*
X109402857Y-58685928D01*
X109402857Y-58900214D01*
X109474285Y-59185928D01*
X109545714Y-59328785D01*
X109688571Y-59471642D01*
X109902857Y-59543071D01*
X110045714Y-59543071D01*
X110260000Y-59471642D01*
X110331428Y-59400214D01*
X110331428Y-58900214D01*
X110045714Y-58900214D01*
X110974285Y-59543071D02*
X110974285Y-58043071D01*
X111545714Y-58043071D01*
X111688571Y-58114500D01*
X111760000Y-58185928D01*
X111831428Y-58328785D01*
X111831428Y-58543071D01*
X111760000Y-58685928D01*
X111688571Y-58757357D01*
X111545714Y-58828785D01*
X110974285Y-58828785D01*
X112474285Y-59543071D02*
X112474285Y-58043071D01*
X113474285Y-58043071D02*
X113760000Y-58043071D01*
X113902857Y-58114500D01*
X114045714Y-58257357D01*
X114117142Y-58543071D01*
X114117142Y-59043071D01*
X114045714Y-59328785D01*
X113902857Y-59471642D01*
X113760000Y-59543071D01*
X113474285Y-59543071D01*
X113331428Y-59471642D01*
X113188571Y-59328785D01*
X113117142Y-59043071D01*
X113117142Y-58543071D01*
X113188571Y-58257357D01*
X113331428Y-58114500D01*
X113474285Y-58043071D01*
D10*
X173408095Y-91712380D02*
X173408095Y-92521904D01*
X173455714Y-92617142D01*
X173503333Y-92664761D01*
X173598571Y-92712380D01*
X173789047Y-92712380D01*
X173884285Y-92664761D01*
X173931904Y-92617142D01*
X173979523Y-92521904D01*
X173979523Y-91712380D01*
X174408095Y-92664761D02*
X174550952Y-92712380D01*
X174789047Y-92712380D01*
X174884285Y-92664761D01*
X174931904Y-92617142D01*
X174979523Y-92521904D01*
X174979523Y-92426666D01*
X174931904Y-92331428D01*
X174884285Y-92283809D01*
X174789047Y-92236190D01*
X174598571Y-92188571D01*
X174503333Y-92140952D01*
X174455714Y-92093333D01*
X174408095Y-91998095D01*
X174408095Y-91902857D01*
X174455714Y-91807619D01*
X174503333Y-91760000D01*
X174598571Y-91712380D01*
X174836666Y-91712380D01*
X174979523Y-91760000D01*
X175741428Y-92188571D02*
X175884285Y-92236190D01*
X175931904Y-92283809D01*
X175979523Y-92379047D01*
X175979523Y-92521904D01*
X175931904Y-92617142D01*
X175884285Y-92664761D01*
X175789047Y-92712380D01*
X175408095Y-92712380D01*
X175408095Y-91712380D01*
X175741428Y-91712380D01*
X175836666Y-91760000D01*
X175884285Y-91807619D01*
X175931904Y-91902857D01*
X175931904Y-91998095D01*
X175884285Y-92093333D01*
X175836666Y-92140952D01*
X175741428Y-92188571D01*
X175408095Y-92188571D01*
X158414285Y-105692857D02*
X158528571Y-105730952D01*
X158566666Y-105769047D01*
X158604761Y-105845238D01*
X158604761Y-105959523D01*
X158566666Y-106035714D01*
X158528571Y-106073809D01*
X158452380Y-106111904D01*
X158147619Y-106111904D01*
X158147619Y-105311904D01*
X158414285Y-105311904D01*
X158490476Y-105350000D01*
X158528571Y-105388095D01*
X158566666Y-105464285D01*
X158566666Y-105540476D01*
X158528571Y-105616666D01*
X158490476Y-105654761D01*
X158414285Y-105692857D01*
X158147619Y-105692857D01*
X159100000Y-105311904D02*
X159252380Y-105311904D01*
X159328571Y-105350000D01*
X159404761Y-105426190D01*
X159442857Y-105578571D01*
X159442857Y-105845238D01*
X159404761Y-105997619D01*
X159328571Y-106073809D01*
X159252380Y-106111904D01*
X159100000Y-106111904D01*
X159023809Y-106073809D01*
X158947619Y-105997619D01*
X158909523Y-105845238D01*
X158909523Y-105578571D01*
X158947619Y-105426190D01*
X159023809Y-105350000D01*
X159100000Y-105311904D01*
X159938095Y-105311904D02*
X160090476Y-105311904D01*
X160166666Y-105350000D01*
X160242857Y-105426190D01*
X160280952Y-105578571D01*
X160280952Y-105845238D01*
X160242857Y-105997619D01*
X160166666Y-106073809D01*
X160090476Y-106111904D01*
X159938095Y-106111904D01*
X159861904Y-106073809D01*
X159785714Y-105997619D01*
X159747619Y-105845238D01*
X159747619Y-105578571D01*
X159785714Y-105426190D01*
X159861904Y-105350000D01*
X159938095Y-105311904D01*
X160509523Y-105311904D02*
X160966666Y-105311904D01*
X160738095Y-106111904D02*
X160738095Y-105311904D01*
X158088095Y-113111904D02*
X157821428Y-112730952D01*
X157630952Y-113111904D02*
X157630952Y-112311904D01*
X157935714Y-112311904D01*
X158011904Y-112350000D01*
X158050000Y-112388095D01*
X158088095Y-112464285D01*
X158088095Y-112578571D01*
X158050000Y-112654761D01*
X158011904Y-112692857D01*
X157935714Y-112730952D01*
X157630952Y-112730952D01*
X158430952Y-112692857D02*
X158697619Y-112692857D01*
X158811904Y-113111904D02*
X158430952Y-113111904D01*
X158430952Y-112311904D01*
X158811904Y-112311904D01*
X159116666Y-113073809D02*
X159230952Y-113111904D01*
X159421428Y-113111904D01*
X159497619Y-113073809D01*
X159535714Y-113035714D01*
X159573809Y-112959523D01*
X159573809Y-112883333D01*
X159535714Y-112807142D01*
X159497619Y-112769047D01*
X159421428Y-112730952D01*
X159269047Y-112692857D01*
X159192857Y-112654761D01*
X159154761Y-112616666D01*
X159116666Y-112540476D01*
X159116666Y-112464285D01*
X159154761Y-112388095D01*
X159192857Y-112350000D01*
X159269047Y-112311904D01*
X159459523Y-112311904D01*
X159573809Y-112350000D01*
X159916666Y-112692857D02*
X160183333Y-112692857D01*
X160297619Y-113111904D02*
X159916666Y-113111904D01*
X159916666Y-112311904D01*
X160297619Y-112311904D01*
X160526190Y-112311904D02*
X160983333Y-112311904D01*
X160754761Y-113111904D02*
X160754761Y-112311904D01*
X154128571Y-89982571D02*
X154661904Y-89982571D01*
X153823809Y-90173047D02*
X154395238Y-90363523D01*
X154395238Y-89868285D01*
X135211904Y-89581714D02*
X135211904Y-89086476D01*
X135516666Y-89353142D01*
X135516666Y-89238857D01*
X135554761Y-89162666D01*
X135592857Y-89124571D01*
X135669047Y-89086476D01*
X135859523Y-89086476D01*
X135935714Y-89124571D01*
X135973809Y-89162666D01*
X136011904Y-89238857D01*
X136011904Y-89467428D01*
X135973809Y-89543619D01*
X135935714Y-89581714D01*
X135211904Y-88819809D02*
X135211904Y-88324571D01*
X135516666Y-88591238D01*
X135516666Y-88476952D01*
X135554761Y-88400761D01*
X135592857Y-88362666D01*
X135669047Y-88324571D01*
X135859523Y-88324571D01*
X135935714Y-88362666D01*
X135973809Y-88400761D01*
X136011904Y-88476952D01*
X136011904Y-88705523D01*
X135973809Y-88781714D01*
X135935714Y-88819809D01*
X133661904Y-89631714D02*
X133661904Y-89136476D01*
X133966666Y-89403142D01*
X133966666Y-89288857D01*
X134004761Y-89212666D01*
X134042857Y-89174571D01*
X134119047Y-89136476D01*
X134309523Y-89136476D01*
X134385714Y-89174571D01*
X134423809Y-89212666D01*
X134461904Y-89288857D01*
X134461904Y-89517428D01*
X134423809Y-89593619D01*
X134385714Y-89631714D01*
X133661904Y-88412666D02*
X133661904Y-88793619D01*
X134042857Y-88831714D01*
X134004761Y-88793619D01*
X133966666Y-88717428D01*
X133966666Y-88526952D01*
X134004761Y-88450761D01*
X134042857Y-88412666D01*
X134119047Y-88374571D01*
X134309523Y-88374571D01*
X134385714Y-88412666D01*
X134423809Y-88450761D01*
X134461904Y-88526952D01*
X134461904Y-88717428D01*
X134423809Y-88793619D01*
X134385714Y-88831714D01*
D16*
X154364285Y-93652380D02*
X153850000Y-93652380D01*
X154107142Y-93652380D02*
X154107142Y-92652380D01*
X154021428Y-92795238D01*
X153935714Y-92890476D01*
X153850000Y-92938095D01*
X154664285Y-92652380D02*
X154878571Y-93652380D01*
X155050000Y-92938095D01*
X155221428Y-93652380D01*
X155435714Y-92652380D01*
X155778571Y-93652380D02*
X155778571Y-92985714D01*
X155778571Y-92652380D02*
X155735714Y-92700000D01*
X155778571Y-92747619D01*
X155821428Y-92700000D01*
X155778571Y-92652380D01*
X155778571Y-92747619D01*
X156207142Y-93652380D02*
X156207142Y-92985714D01*
X156207142Y-93176190D02*
X156250000Y-93080952D01*
X156292857Y-93033333D01*
X156378571Y-92985714D01*
X156464285Y-92985714D01*
X157107142Y-93604761D02*
X157021428Y-93652380D01*
X156850000Y-93652380D01*
X156764285Y-93604761D01*
X156721428Y-93509523D01*
X156721428Y-93128571D01*
X156764285Y-93033333D01*
X156850000Y-92985714D01*
X157021428Y-92985714D01*
X157107142Y-93033333D01*
X157150000Y-93128571D01*
X157150000Y-93223809D01*
X156721428Y-93319047D01*
D10*
X153790000Y-95782571D02*
X153751904Y-95858761D01*
X153751904Y-95973047D01*
X153790000Y-96087333D01*
X153866190Y-96163523D01*
X153942380Y-96201619D01*
X154094761Y-96239714D01*
X154209047Y-96239714D01*
X154361428Y-96201619D01*
X154437619Y-96163523D01*
X154513809Y-96087333D01*
X154551904Y-95973047D01*
X154551904Y-95896857D01*
X154513809Y-95782571D01*
X154475714Y-95744476D01*
X154209047Y-95744476D01*
X154209047Y-95896857D01*
X154551904Y-95401619D02*
X153751904Y-95401619D01*
X154551904Y-94944476D01*
X153751904Y-94944476D01*
X154551904Y-94563523D02*
X153751904Y-94563523D01*
X153751904Y-94373047D01*
X153790000Y-94258761D01*
X153866190Y-94182571D01*
X153942380Y-94144476D01*
X154094761Y-94106380D01*
X154209047Y-94106380D01*
X154361428Y-94144476D01*
X154437619Y-94182571D01*
X154513809Y-94258761D01*
X154551904Y-94373047D01*
X154551904Y-94563523D01*
X155111904Y-96049238D02*
X155111904Y-95554000D01*
X155416666Y-95820666D01*
X155416666Y-95706380D01*
X155454761Y-95630190D01*
X155492857Y-95592095D01*
X155569047Y-95554000D01*
X155759523Y-95554000D01*
X155835714Y-95592095D01*
X155873809Y-95630190D01*
X155911904Y-95706380D01*
X155911904Y-95934952D01*
X155873809Y-96011142D01*
X155835714Y-96049238D01*
X155111904Y-95325428D02*
X155911904Y-95058761D01*
X155111904Y-94792095D01*
X155111904Y-94601619D02*
X155111904Y-94106380D01*
X155416666Y-94373047D01*
X155416666Y-94258761D01*
X155454761Y-94182571D01*
X155492857Y-94144476D01*
X155569047Y-94106380D01*
X155759523Y-94106380D01*
X155835714Y-94144476D01*
X155873809Y-94182571D01*
X155911904Y-94258761D01*
X155911904Y-94487333D01*
X155873809Y-94563523D01*
X155835714Y-94601619D01*
X157271904Y-95401619D02*
X156471904Y-95401619D01*
X156471904Y-95211142D01*
X156510000Y-95096857D01*
X156586190Y-95020666D01*
X156662380Y-94982571D01*
X156814761Y-94944476D01*
X156929047Y-94944476D01*
X157081428Y-94982571D01*
X157157619Y-95020666D01*
X157233809Y-95096857D01*
X157271904Y-95211142D01*
X157271904Y-95401619D01*
X157348095Y-94068285D02*
X157310000Y-94144476D01*
X157233809Y-94220666D01*
X157119523Y-94334952D01*
X157081428Y-94411142D01*
X157081428Y-94487333D01*
X157271904Y-94449238D02*
X157233809Y-94525428D01*
X157157619Y-94601619D01*
X157005238Y-94639714D01*
X156738571Y-94639714D01*
X156586190Y-94601619D01*
X156510000Y-94525428D01*
X156471904Y-94449238D01*
X156471904Y-94296857D01*
X156510000Y-94220666D01*
X156586190Y-94144476D01*
X156738571Y-94106380D01*
X157005238Y-94106380D01*
X157157619Y-94144476D01*
X157233809Y-94220666D01*
X157271904Y-94296857D01*
X157271904Y-94449238D01*
X127016000Y-104302571D02*
X126977904Y-104378761D01*
X126977904Y-104493047D01*
X127016000Y-104607333D01*
X127092190Y-104683523D01*
X127168380Y-104721619D01*
X127320761Y-104759714D01*
X127435047Y-104759714D01*
X127587428Y-104721619D01*
X127663619Y-104683523D01*
X127739809Y-104607333D01*
X127777904Y-104493047D01*
X127777904Y-104416857D01*
X127739809Y-104302571D01*
X127701714Y-104264476D01*
X127435047Y-104264476D01*
X127435047Y-104416857D01*
X127777904Y-103921619D02*
X126977904Y-103921619D01*
X127777904Y-103464476D01*
X126977904Y-103464476D01*
X127777904Y-103083523D02*
X126977904Y-103083523D01*
X126977904Y-102893047D01*
X127016000Y-102778761D01*
X127092190Y-102702571D01*
X127168380Y-102664476D01*
X127320761Y-102626380D01*
X127435047Y-102626380D01*
X127587428Y-102664476D01*
X127663619Y-102702571D01*
X127739809Y-102778761D01*
X127777904Y-102893047D01*
X127777904Y-103083523D01*
X128337904Y-104874000D02*
X129137904Y-104607333D01*
X128337904Y-104340666D01*
X129099809Y-103769238D02*
X129137904Y-103845428D01*
X129137904Y-103997809D01*
X129099809Y-104074000D01*
X129023619Y-104112095D01*
X128718857Y-104112095D01*
X128642666Y-104074000D01*
X128604571Y-103997809D01*
X128604571Y-103845428D01*
X128642666Y-103769238D01*
X128718857Y-103731142D01*
X128795047Y-103731142D01*
X128871238Y-104112095D01*
X129137904Y-103464476D02*
X128604571Y-103045428D01*
X128604571Y-103464476D02*
X129137904Y-103045428D01*
X128604571Y-102854952D02*
X128604571Y-102550190D01*
X128337904Y-102740666D02*
X129023619Y-102740666D01*
X129099809Y-102702571D01*
X129137904Y-102626380D01*
X129137904Y-102550190D01*
X130497904Y-103502571D02*
X129697904Y-103502571D01*
X130497904Y-103121619D02*
X129697904Y-103121619D01*
X130497904Y-102664476D01*
X129697904Y-102664476D01*
X131057904Y-104416857D02*
X131057904Y-104264476D01*
X131096000Y-104188285D01*
X131172190Y-104112095D01*
X131324571Y-104074000D01*
X131591238Y-104074000D01*
X131743619Y-104112095D01*
X131819809Y-104188285D01*
X131857904Y-104264476D01*
X131857904Y-104416857D01*
X131819809Y-104493047D01*
X131743619Y-104569238D01*
X131591238Y-104607333D01*
X131324571Y-104607333D01*
X131172190Y-104569238D01*
X131096000Y-104493047D01*
X131057904Y-104416857D01*
X131057904Y-103731142D02*
X131705523Y-103731142D01*
X131781714Y-103693047D01*
X131819809Y-103654952D01*
X131857904Y-103578761D01*
X131857904Y-103426380D01*
X131819809Y-103350190D01*
X131781714Y-103312095D01*
X131705523Y-103274000D01*
X131057904Y-103274000D01*
X131057904Y-103007333D02*
X131057904Y-102550190D01*
X131857904Y-102778761D02*
X131057904Y-102778761D01*
X105233809Y-106104761D02*
X105157619Y-106066666D01*
X105119523Y-106028571D01*
X105081428Y-105952380D01*
X105081428Y-105914285D01*
X105119523Y-105838095D01*
X105157619Y-105800000D01*
X105233809Y-105761904D01*
X105386190Y-105761904D01*
X105462380Y-105800000D01*
X105500476Y-105838095D01*
X105538571Y-105914285D01*
X105538571Y-105952380D01*
X105500476Y-106028571D01*
X105462380Y-106066666D01*
X105386190Y-106104761D01*
X105233809Y-106104761D01*
X105157619Y-106142857D01*
X105119523Y-106180952D01*
X105081428Y-106257142D01*
X105081428Y-106409523D01*
X105119523Y-106485714D01*
X105157619Y-106523809D01*
X105233809Y-106561904D01*
X105386190Y-106561904D01*
X105462380Y-106523809D01*
X105500476Y-106485714D01*
X105538571Y-106409523D01*
X105538571Y-106257142D01*
X105500476Y-106180952D01*
X105462380Y-106142857D01*
X105386190Y-106104761D01*
X105881428Y-106257142D02*
X106490952Y-106257142D01*
X106795714Y-105761904D02*
X107290952Y-105761904D01*
X107024285Y-106066666D01*
X107138571Y-106066666D01*
X107214761Y-106104761D01*
X107252857Y-106142857D01*
X107290952Y-106219047D01*
X107290952Y-106409523D01*
X107252857Y-106485714D01*
X107214761Y-106523809D01*
X107138571Y-106561904D01*
X106910000Y-106561904D01*
X106833809Y-106523809D01*
X106795714Y-106485714D01*
X107595714Y-105838095D02*
X107633809Y-105800000D01*
X107710000Y-105761904D01*
X107900476Y-105761904D01*
X107976666Y-105800000D01*
X108014761Y-105838095D01*
X108052857Y-105914285D01*
X108052857Y-105990476D01*
X108014761Y-106104761D01*
X107557619Y-106561904D01*
X108052857Y-106561904D01*
X108281428Y-105761904D02*
X108548095Y-106561904D01*
X108814761Y-105761904D01*
X122324714Y-98058809D02*
X122362809Y-98096904D01*
X122400904Y-98211190D01*
X122400904Y-98287380D01*
X122362809Y-98401666D01*
X122286619Y-98477857D01*
X122210428Y-98515952D01*
X122058047Y-98554047D01*
X121943761Y-98554047D01*
X121791380Y-98515952D01*
X121715190Y-98477857D01*
X121639000Y-98401666D01*
X121600904Y-98287380D01*
X121600904Y-98211190D01*
X121639000Y-98096904D01*
X121677095Y-98058809D01*
X122172333Y-97754047D02*
X122172333Y-97373095D01*
X122400904Y-97830238D02*
X121600904Y-97563571D01*
X122400904Y-97296904D01*
X122400904Y-97030238D02*
X121600904Y-97030238D01*
X122400904Y-96573095D01*
X121600904Y-96573095D01*
X122400904Y-95811190D02*
X122400904Y-96192142D01*
X121600904Y-96192142D01*
X123684714Y-98249285D02*
X123722809Y-98287380D01*
X123760904Y-98401666D01*
X123760904Y-98477857D01*
X123722809Y-98592142D01*
X123646619Y-98668333D01*
X123570428Y-98706428D01*
X123418047Y-98744523D01*
X123303761Y-98744523D01*
X123151380Y-98706428D01*
X123075190Y-98668333D01*
X122999000Y-98592142D01*
X122960904Y-98477857D01*
X122960904Y-98401666D01*
X122999000Y-98287380D01*
X123037095Y-98249285D01*
X123532333Y-97944523D02*
X123532333Y-97563571D01*
X123760904Y-98020714D02*
X122960904Y-97754047D01*
X123760904Y-97487380D01*
X123760904Y-97220714D02*
X122960904Y-97220714D01*
X123760904Y-96763571D01*
X122960904Y-96763571D01*
X123760904Y-96382619D02*
X122960904Y-96382619D01*
X123341857Y-96382619D02*
X123341857Y-95925476D01*
X123760904Y-95925476D02*
X122960904Y-95925476D01*
X124359000Y-97563571D02*
X124320904Y-97639761D01*
X124320904Y-97754047D01*
X124359000Y-97868333D01*
X124435190Y-97944523D01*
X124511380Y-97982619D01*
X124663761Y-98020714D01*
X124778047Y-98020714D01*
X124930428Y-97982619D01*
X125006619Y-97944523D01*
X125082809Y-97868333D01*
X125120904Y-97754047D01*
X125120904Y-97677857D01*
X125082809Y-97563571D01*
X125044714Y-97525476D01*
X124778047Y-97525476D01*
X124778047Y-97677857D01*
X125120904Y-97182619D02*
X124320904Y-97182619D01*
X125120904Y-96725476D01*
X124320904Y-96725476D01*
X125120904Y-96344523D02*
X124320904Y-96344523D01*
X124320904Y-96154047D01*
X124359000Y-96039761D01*
X124435190Y-95963571D01*
X124511380Y-95925476D01*
X124663761Y-95887380D01*
X124778047Y-95887380D01*
X124930428Y-95925476D01*
X125006619Y-95963571D01*
X125082809Y-96039761D01*
X125120904Y-96154047D01*
X125120904Y-96344523D01*
X126480904Y-97335000D02*
X126480904Y-97792142D01*
X126480904Y-97563571D02*
X125680904Y-97563571D01*
X125795190Y-97639761D01*
X125871380Y-97715952D01*
X125909476Y-97792142D01*
X125757095Y-97030238D02*
X125719000Y-96992142D01*
X125680904Y-96915952D01*
X125680904Y-96725476D01*
X125719000Y-96649285D01*
X125757095Y-96611190D01*
X125833285Y-96573095D01*
X125909476Y-96573095D01*
X126023761Y-96611190D01*
X126480904Y-97068333D01*
X126480904Y-96573095D01*
X125680904Y-96344523D02*
X126480904Y-96077857D01*
X125680904Y-95811190D01*
X144197619Y-97073809D02*
X144311904Y-97111904D01*
X144502380Y-97111904D01*
X144578571Y-97073809D01*
X144616666Y-97035714D01*
X144654761Y-96959523D01*
X144654761Y-96883333D01*
X144616666Y-96807142D01*
X144578571Y-96769047D01*
X144502380Y-96730952D01*
X144350000Y-96692857D01*
X144273809Y-96654761D01*
X144235714Y-96616666D01*
X144197619Y-96540476D01*
X144197619Y-96464285D01*
X144235714Y-96388095D01*
X144273809Y-96350000D01*
X144350000Y-96311904D01*
X144540476Y-96311904D01*
X144654761Y-96350000D01*
X145454761Y-97035714D02*
X145416666Y-97073809D01*
X145302380Y-97111904D01*
X145226190Y-97111904D01*
X145111904Y-97073809D01*
X145035714Y-96997619D01*
X144997619Y-96921428D01*
X144959523Y-96769047D01*
X144959523Y-96654761D01*
X144997619Y-96502380D01*
X145035714Y-96426190D01*
X145111904Y-96350000D01*
X145226190Y-96311904D01*
X145302380Y-96311904D01*
X145416666Y-96350000D01*
X145454761Y-96388095D01*
X146178571Y-97111904D02*
X145797619Y-97111904D01*
X145797619Y-96311904D01*
X141978571Y-97073809D02*
X142092857Y-97111904D01*
X142283333Y-97111904D01*
X142359523Y-97073809D01*
X142397619Y-97035714D01*
X142435714Y-96959523D01*
X142435714Y-96883333D01*
X142397619Y-96807142D01*
X142359523Y-96769047D01*
X142283333Y-96730952D01*
X142130952Y-96692857D01*
X142054761Y-96654761D01*
X142016666Y-96616666D01*
X141978571Y-96540476D01*
X141978571Y-96464285D01*
X142016666Y-96388095D01*
X142054761Y-96350000D01*
X142130952Y-96311904D01*
X142321428Y-96311904D01*
X142435714Y-96350000D01*
X142778571Y-97111904D02*
X142778571Y-96311904D01*
X142969047Y-96311904D01*
X143083333Y-96350000D01*
X143159523Y-96426190D01*
X143197619Y-96502380D01*
X143235714Y-96654761D01*
X143235714Y-96769047D01*
X143197619Y-96921428D01*
X143159523Y-96997619D01*
X143083333Y-97073809D01*
X142969047Y-97111904D01*
X142778571Y-97111904D01*
X143540476Y-96883333D02*
X143921428Y-96883333D01*
X143464285Y-97111904D02*
X143730952Y-96311904D01*
X143997619Y-97111904D01*
X149009523Y-96311904D02*
X149504761Y-96311904D01*
X149238095Y-96616666D01*
X149352380Y-96616666D01*
X149428571Y-96654761D01*
X149466666Y-96692857D01*
X149504761Y-96769047D01*
X149504761Y-96959523D01*
X149466666Y-97035714D01*
X149428571Y-97073809D01*
X149352380Y-97111904D01*
X149123809Y-97111904D01*
X149047619Y-97073809D01*
X149009523Y-97035714D01*
X149733333Y-96311904D02*
X150000000Y-97111904D01*
X150266666Y-96311904D01*
X150457142Y-96311904D02*
X150952380Y-96311904D01*
X150685714Y-96616666D01*
X150800000Y-96616666D01*
X150876190Y-96654761D01*
X150914285Y-96692857D01*
X150952380Y-96769047D01*
X150952380Y-96959523D01*
X150914285Y-97035714D01*
X150876190Y-97073809D01*
X150800000Y-97111904D01*
X150571428Y-97111904D01*
X150495238Y-97073809D01*
X150457142Y-97035714D01*
X151690476Y-96350000D02*
X151614285Y-96311904D01*
X151500000Y-96311904D01*
X151385714Y-96350000D01*
X151309523Y-96426190D01*
X151271428Y-96502380D01*
X151233333Y-96654761D01*
X151233333Y-96769047D01*
X151271428Y-96921428D01*
X151309523Y-96997619D01*
X151385714Y-97073809D01*
X151500000Y-97111904D01*
X151576190Y-97111904D01*
X151690476Y-97073809D01*
X151728571Y-97035714D01*
X151728571Y-96769047D01*
X151576190Y-96769047D01*
X152071428Y-97111904D02*
X152071428Y-96311904D01*
X152528571Y-97111904D01*
X152528571Y-96311904D01*
X152909523Y-97111904D02*
X152909523Y-96311904D01*
X153100000Y-96311904D01*
X153214285Y-96350000D01*
X153290476Y-96426190D01*
X153328571Y-96502380D01*
X153366666Y-96654761D01*
X153366666Y-96769047D01*
X153328571Y-96921428D01*
X153290476Y-96997619D01*
X153214285Y-97073809D01*
X153100000Y-97111904D01*
X152909523Y-97111904D01*
X105133809Y-105552380D02*
X105133809Y-104552380D01*
X105514761Y-104552380D01*
X105610000Y-104600000D01*
X105657619Y-104647619D01*
X105705238Y-104742857D01*
X105705238Y-104885714D01*
X105657619Y-104980952D01*
X105610000Y-105028571D01*
X105514761Y-105076190D01*
X105133809Y-105076190D01*
X106276666Y-105552380D02*
X106181428Y-105504761D01*
X106133809Y-105457142D01*
X106086190Y-105361904D01*
X106086190Y-105076190D01*
X106133809Y-104980952D01*
X106181428Y-104933333D01*
X106276666Y-104885714D01*
X106419523Y-104885714D01*
X106514761Y-104933333D01*
X106562380Y-104980952D01*
X106610000Y-105076190D01*
X106610000Y-105361904D01*
X106562380Y-105457142D01*
X106514761Y-105504761D01*
X106419523Y-105552380D01*
X106276666Y-105552380D01*
X106943333Y-104885714D02*
X107133809Y-105552380D01*
X107324285Y-105076190D01*
X107514761Y-105552380D01*
X107705238Y-104885714D01*
X108467142Y-105504761D02*
X108371904Y-105552380D01*
X108181428Y-105552380D01*
X108086190Y-105504761D01*
X108038571Y-105409523D01*
X108038571Y-105028571D01*
X108086190Y-104933333D01*
X108181428Y-104885714D01*
X108371904Y-104885714D01*
X108467142Y-104933333D01*
X108514761Y-105028571D01*
X108514761Y-105123809D01*
X108038571Y-105219047D01*
X108943333Y-105552380D02*
X108943333Y-104885714D01*
X108943333Y-105076190D02*
X108990952Y-104980952D01*
X109038571Y-104933333D01*
X109133809Y-104885714D01*
X109229047Y-104885714D01*
X108402380Y-114521428D02*
X107402380Y-114521428D01*
X108402380Y-114007142D01*
X107402380Y-114007142D01*
X108402380Y-113578571D02*
X107402380Y-113578571D01*
X108116666Y-113278571D01*
X107402380Y-112978571D01*
X108402380Y-112978571D01*
X107878571Y-112550000D02*
X107878571Y-112250000D01*
X108402380Y-112121428D02*
X108402380Y-112550000D01*
X107402380Y-112550000D01*
X107402380Y-112121428D01*
X108116666Y-111778571D02*
X108116666Y-111350000D01*
X108402380Y-111864285D02*
X107402380Y-111564285D01*
X108402380Y-111264285D01*
X107497619Y-110321428D02*
X107450000Y-110278571D01*
X107402380Y-110192857D01*
X107402380Y-109978571D01*
X107450000Y-109892857D01*
X107497619Y-109850000D01*
X107592857Y-109807142D01*
X107688095Y-109807142D01*
X107830952Y-109850000D01*
X108402380Y-110364285D01*
X108402380Y-109807142D01*
X107402380Y-109250000D02*
X107402380Y-109164285D01*
X107450000Y-109078571D01*
X107497619Y-109035714D01*
X107592857Y-108992857D01*
X107783333Y-108950000D01*
X108021428Y-108950000D01*
X108211904Y-108992857D01*
X108307142Y-109035714D01*
X108354761Y-109078571D01*
X108402380Y-109164285D01*
X108402380Y-109250000D01*
X108354761Y-109335714D01*
X108307142Y-109378571D01*
X108211904Y-109421428D01*
X108021428Y-109464285D01*
X107783333Y-109464285D01*
X107592857Y-109421428D01*
X107497619Y-109378571D01*
X107450000Y-109335714D01*
X107402380Y-109250000D01*
X107402380Y-108392857D02*
X107402380Y-108307142D01*
X107450000Y-108221428D01*
X107497619Y-108178571D01*
X107592857Y-108135714D01*
X107783333Y-108092857D01*
X108021428Y-108092857D01*
X108211904Y-108135714D01*
X108307142Y-108178571D01*
X108354761Y-108221428D01*
X108402380Y-108307142D01*
X108402380Y-108392857D01*
X108354761Y-108478571D01*
X108307142Y-108521428D01*
X108211904Y-108564285D01*
X108021428Y-108607142D01*
X107783333Y-108607142D01*
X107592857Y-108564285D01*
X107497619Y-108521428D01*
X107450000Y-108478571D01*
X107402380Y-108392857D01*
X107402380Y-107535714D02*
X107402380Y-107450000D01*
X107450000Y-107364285D01*
X107497619Y-107321428D01*
X107592857Y-107278571D01*
X107783333Y-107235714D01*
X108021428Y-107235714D01*
X108211904Y-107278571D01*
X108307142Y-107321428D01*
X108354761Y-107364285D01*
X108402380Y-107450000D01*
X108402380Y-107535714D01*
X108354761Y-107621428D01*
X108307142Y-107664285D01*
X108211904Y-107707142D01*
X108021428Y-107750000D01*
X107783333Y-107750000D01*
X107592857Y-107707142D01*
X107497619Y-107664285D01*
X107450000Y-107621428D01*
X107402380Y-107535714D01*
X144216380Y-113894952D02*
X144216380Y-114466380D01*
X144216380Y-114180666D02*
X143216380Y-114180666D01*
X143359238Y-114275904D01*
X143454476Y-114371142D01*
X143502095Y-114466380D01*
X143835428Y-113466380D02*
X143835428Y-112704476D01*
X143216380Y-112323523D02*
X144216380Y-112085428D01*
X143502095Y-111894952D01*
X144216380Y-111704476D01*
X143216380Y-111466380D01*
X144216380Y-111085428D02*
X143549714Y-111085428D01*
X143216380Y-111085428D02*
X143264000Y-111133047D01*
X143311619Y-111085428D01*
X143264000Y-111037809D01*
X143216380Y-111085428D01*
X143311619Y-111085428D01*
X144216380Y-110609238D02*
X143549714Y-110609238D01*
X143740190Y-110609238D02*
X143644952Y-110561619D01*
X143597333Y-110514000D01*
X143549714Y-110418761D01*
X143549714Y-110323523D01*
X144168761Y-109609238D02*
X144216380Y-109704476D01*
X144216380Y-109894952D01*
X144168761Y-109990190D01*
X144073523Y-110037809D01*
X143692571Y-110037809D01*
X143597333Y-109990190D01*
X143549714Y-109894952D01*
X143549714Y-109704476D01*
X143597333Y-109609238D01*
X143692571Y-109561619D01*
X143787809Y-109561619D01*
X143883047Y-110037809D01*
X144638095Y-104988095D02*
X144600000Y-105064285D01*
X144523809Y-105140476D01*
X144409523Y-105254761D01*
X144371428Y-105330952D01*
X144371428Y-105407142D01*
X144561904Y-105369047D02*
X144523809Y-105445238D01*
X144447619Y-105521428D01*
X144295238Y-105559523D01*
X144028571Y-105559523D01*
X143876190Y-105521428D01*
X143800000Y-105445238D01*
X143761904Y-105369047D01*
X143761904Y-105216666D01*
X143800000Y-105140476D01*
X143876190Y-105064285D01*
X144028571Y-105026190D01*
X144295238Y-105026190D01*
X144447619Y-105064285D01*
X144523809Y-105140476D01*
X144561904Y-105216666D01*
X144561904Y-105369047D01*
X144028571Y-104759523D02*
X144561904Y-104607142D01*
X144180952Y-104454761D01*
X144561904Y-104302380D01*
X144028571Y-104150000D01*
X144561904Y-103845238D02*
X144028571Y-103845238D01*
X143761904Y-103845238D02*
X143800000Y-103883333D01*
X143838095Y-103845238D01*
X143800000Y-103807142D01*
X143761904Y-103845238D01*
X143838095Y-103845238D01*
X144561904Y-103464285D02*
X144028571Y-103464285D01*
X143761904Y-103464285D02*
X143800000Y-103502380D01*
X143838095Y-103464285D01*
X143800000Y-103426190D01*
X143761904Y-103464285D01*
X143838095Y-103464285D01*
X144523809Y-102740476D02*
X144561904Y-102816666D01*
X144561904Y-102969047D01*
X144523809Y-103045238D01*
X144485714Y-103083333D01*
X144409523Y-103121428D01*
X144180952Y-103121428D01*
X144104761Y-103083333D01*
X144066666Y-103045238D01*
X144028571Y-102969047D01*
X144028571Y-102816666D01*
X144066666Y-102740476D01*
X142552380Y-99826190D02*
X141552380Y-99826190D01*
X141647619Y-99397619D02*
X141600000Y-99350000D01*
X141552380Y-99254761D01*
X141552380Y-99016666D01*
X141600000Y-98921428D01*
X141647619Y-98873809D01*
X141742857Y-98826190D01*
X141838095Y-98826190D01*
X141980952Y-98873809D01*
X142552380Y-99445238D01*
X142552380Y-98826190D01*
X142457142Y-97826190D02*
X142504761Y-97873809D01*
X142552380Y-98016666D01*
X142552380Y-98111904D01*
X142504761Y-98254761D01*
X142409523Y-98350000D01*
X142314285Y-98397619D01*
X142123809Y-98445238D01*
X141980952Y-98445238D01*
X141790476Y-98397619D01*
X141695238Y-98350000D01*
X141600000Y-98254761D01*
X141552380Y-98111904D01*
X141552380Y-98016666D01*
X141600000Y-97873809D01*
X141647619Y-97826190D01*
X130411904Y-88935523D02*
X131059523Y-88935523D01*
X131135714Y-88897428D01*
X131173809Y-88859333D01*
X131211904Y-88783142D01*
X131211904Y-88630761D01*
X131173809Y-88554571D01*
X131135714Y-88516476D01*
X131059523Y-88478380D01*
X130411904Y-88478380D01*
X131173809Y-88135523D02*
X131211904Y-88021238D01*
X131211904Y-87830761D01*
X131173809Y-87754571D01*
X131135714Y-87716476D01*
X131059523Y-87678380D01*
X130983333Y-87678380D01*
X130907142Y-87716476D01*
X130869047Y-87754571D01*
X130830952Y-87830761D01*
X130792857Y-87983142D01*
X130754761Y-88059333D01*
X130716666Y-88097428D01*
X130640476Y-88135523D01*
X130564285Y-88135523D01*
X130488095Y-88097428D01*
X130450000Y-88059333D01*
X130411904Y-87983142D01*
X130411904Y-87792666D01*
X130450000Y-87678380D01*
X130792857Y-87068857D02*
X130830952Y-86954571D01*
X130869047Y-86916476D01*
X130945238Y-86878380D01*
X131059523Y-86878380D01*
X131135714Y-86916476D01*
X131173809Y-86954571D01*
X131211904Y-87030761D01*
X131211904Y-87335523D01*
X130411904Y-87335523D01*
X130411904Y-87068857D01*
X130450000Y-86992666D01*
X130488095Y-86954571D01*
X130564285Y-86916476D01*
X130640476Y-86916476D01*
X130716666Y-86954571D01*
X130754761Y-86992666D01*
X130792857Y-87068857D01*
X130792857Y-87335523D01*
X131771904Y-88554571D02*
X131771904Y-88935523D01*
X132152857Y-88973619D01*
X132114761Y-88935523D01*
X132076666Y-88859333D01*
X132076666Y-88668857D01*
X132114761Y-88592666D01*
X132152857Y-88554571D01*
X132229047Y-88516476D01*
X132419523Y-88516476D01*
X132495714Y-88554571D01*
X132533809Y-88592666D01*
X132571904Y-88668857D01*
X132571904Y-88859333D01*
X132533809Y-88935523D01*
X132495714Y-88973619D01*
X131771904Y-88287904D02*
X132571904Y-88021238D01*
X131771904Y-87754571D01*
X140080952Y-86272619D02*
X139985714Y-86225000D01*
X139890476Y-86129761D01*
X139747619Y-85986904D01*
X139652380Y-85939285D01*
X139557142Y-85939285D01*
X139604761Y-86177380D02*
X139509523Y-86129761D01*
X139414285Y-86034523D01*
X139366666Y-85844047D01*
X139366666Y-85510714D01*
X139414285Y-85320238D01*
X139509523Y-85225000D01*
X139604761Y-85177380D01*
X139795238Y-85177380D01*
X139890476Y-85225000D01*
X139985714Y-85320238D01*
X140033333Y-85510714D01*
X140033333Y-85844047D01*
X139985714Y-86034523D01*
X139890476Y-86129761D01*
X139795238Y-86177380D01*
X139604761Y-86177380D01*
X136898095Y-86177380D02*
X136898095Y-85177380D01*
X137279047Y-85177380D01*
X137374285Y-85225000D01*
X137421904Y-85272619D01*
X137469523Y-85367857D01*
X137469523Y-85510714D01*
X137421904Y-85605952D01*
X137374285Y-85653571D01*
X137279047Y-85701190D01*
X136898095Y-85701190D01*
X134524761Y-85177380D02*
X134715238Y-85177380D01*
X134810476Y-85225000D01*
X134905714Y-85320238D01*
X134953333Y-85510714D01*
X134953333Y-85844047D01*
X134905714Y-86034523D01*
X134810476Y-86129761D01*
X134715238Y-86177380D01*
X134524761Y-86177380D01*
X134429523Y-86129761D01*
X134334285Y-86034523D01*
X134286666Y-85844047D01*
X134286666Y-85510714D01*
X134334285Y-85320238D01*
X134429523Y-85225000D01*
X134524761Y-85177380D01*
X131794285Y-86177380D02*
X131794285Y-85177380D01*
X132365714Y-86177380D01*
X132365714Y-85177380D01*
X129206666Y-86177380D02*
X129206666Y-85177380D01*
X129540000Y-85891666D01*
X129873333Y-85177380D01*
X129873333Y-86177380D01*
X127309523Y-86177380D02*
X126833333Y-86177380D01*
X126833333Y-85177380D01*
X124198095Y-86177380D02*
X124198095Y-85177380D01*
X124769523Y-86177380D02*
X124340952Y-85605952D01*
X124769523Y-85177380D02*
X124198095Y-85748809D01*
X122062857Y-85177380D02*
X122062857Y-85891666D01*
X122015238Y-86034523D01*
X121920000Y-86129761D01*
X121777142Y-86177380D01*
X121681904Y-86177380D01*
X119380000Y-86177380D02*
X119380000Y-85177380D01*
X116554285Y-86177380D02*
X116554285Y-85177380D01*
X116554285Y-85653571D02*
X117125714Y-85653571D01*
X117125714Y-86177380D02*
X117125714Y-85177380D01*
X114561904Y-85225000D02*
X114466666Y-85177380D01*
X114323809Y-85177380D01*
X114180952Y-85225000D01*
X114085714Y-85320238D01*
X114038095Y-85415476D01*
X113990476Y-85605952D01*
X113990476Y-85748809D01*
X114038095Y-85939285D01*
X114085714Y-86034523D01*
X114180952Y-86129761D01*
X114323809Y-86177380D01*
X114419047Y-86177380D01*
X114561904Y-86129761D01*
X114609523Y-86082142D01*
X114609523Y-85748809D01*
X114419047Y-85748809D01*
X111902857Y-85653571D02*
X111569523Y-85653571D01*
X111569523Y-86177380D02*
X111569523Y-85177380D01*
X112045714Y-85177380D01*
X109005714Y-85653571D02*
X109339047Y-85653571D01*
X109481904Y-86177380D02*
X109005714Y-86177380D01*
X109005714Y-85177380D01*
X109481904Y-85177380D01*
X106418095Y-86177380D02*
X106418095Y-85177380D01*
X106656190Y-85177380D01*
X106799047Y-85225000D01*
X106894285Y-85320238D01*
X106941904Y-85415476D01*
X106989523Y-85605952D01*
X106989523Y-85748809D01*
X106941904Y-85939285D01*
X106894285Y-86034523D01*
X106799047Y-86129761D01*
X106656190Y-86177380D01*
X106418095Y-86177380D01*
X104449523Y-86082142D02*
X104401904Y-86129761D01*
X104259047Y-86177380D01*
X104163809Y-86177380D01*
X104020952Y-86129761D01*
X103925714Y-86034523D01*
X103878095Y-85939285D01*
X103830476Y-85748809D01*
X103830476Y-85605952D01*
X103878095Y-85415476D01*
X103925714Y-85320238D01*
X104020952Y-85225000D01*
X104163809Y-85177380D01*
X104259047Y-85177380D01*
X104401904Y-85225000D01*
X104449523Y-85272619D01*
X101671428Y-85653571D02*
X101814285Y-85701190D01*
X101861904Y-85748809D01*
X101909523Y-85844047D01*
X101909523Y-85986904D01*
X101861904Y-86082142D01*
X101814285Y-86129761D01*
X101719047Y-86177380D01*
X101338095Y-86177380D01*
X101338095Y-85177380D01*
X101671428Y-85177380D01*
X101766666Y-85225000D01*
X101814285Y-85272619D01*
X101861904Y-85367857D01*
X101861904Y-85463095D01*
X101814285Y-85558333D01*
X101766666Y-85605952D01*
X101671428Y-85653571D01*
X101338095Y-85653571D01*
X98821904Y-85891666D02*
X99298095Y-85891666D01*
X98726666Y-86177380D02*
X99060000Y-85177380D01*
X99393333Y-86177380D01*
X93981666Y-83272380D02*
X94648333Y-83272380D01*
X94219761Y-84272380D01*
X94505476Y-80732380D02*
X94315000Y-80732380D01*
X94219761Y-80780000D01*
X94172142Y-80827619D01*
X94076904Y-80970476D01*
X94029285Y-81160952D01*
X94029285Y-81541904D01*
X94076904Y-81637142D01*
X94124523Y-81684761D01*
X94219761Y-81732380D01*
X94410238Y-81732380D01*
X94505476Y-81684761D01*
X94553095Y-81637142D01*
X94600714Y-81541904D01*
X94600714Y-81303809D01*
X94553095Y-81208571D01*
X94505476Y-81160952D01*
X94410238Y-81113333D01*
X94219761Y-81113333D01*
X94124523Y-81160952D01*
X94076904Y-81208571D01*
X94029285Y-81303809D01*
X94553095Y-78192380D02*
X94076904Y-78192380D01*
X94029285Y-78668571D01*
X94076904Y-78620952D01*
X94172142Y-78573333D01*
X94410238Y-78573333D01*
X94505476Y-78620952D01*
X94553095Y-78668571D01*
X94600714Y-78763809D01*
X94600714Y-79001904D01*
X94553095Y-79097142D01*
X94505476Y-79144761D01*
X94410238Y-79192380D01*
X94172142Y-79192380D01*
X94076904Y-79144761D01*
X94029285Y-79097142D01*
X94505476Y-75985714D02*
X94505476Y-76652380D01*
X94267380Y-75604761D02*
X94029285Y-76319047D01*
X94648333Y-76319047D01*
X93981666Y-73112380D02*
X94600714Y-73112380D01*
X94267380Y-73493333D01*
X94410238Y-73493333D01*
X94505476Y-73540952D01*
X94553095Y-73588571D01*
X94600714Y-73683809D01*
X94600714Y-73921904D01*
X94553095Y-74017142D01*
X94505476Y-74064761D01*
X94410238Y-74112380D01*
X94124523Y-74112380D01*
X94029285Y-74064761D01*
X93981666Y-74017142D01*
X94029285Y-70667619D02*
X94076904Y-70620000D01*
X94172142Y-70572380D01*
X94410238Y-70572380D01*
X94505476Y-70620000D01*
X94553095Y-70667619D01*
X94600714Y-70762857D01*
X94600714Y-70858095D01*
X94553095Y-71000952D01*
X93981666Y-71572380D01*
X94600714Y-71572380D01*
X94600714Y-69032380D02*
X94029285Y-69032380D01*
X94315000Y-69032380D02*
X94315000Y-68032380D01*
X94219761Y-68175238D01*
X94124523Y-68270476D01*
X94029285Y-68318095D01*
X164988095Y-63297619D02*
X165035714Y-63250000D01*
X165130952Y-63202380D01*
X165369047Y-63202380D01*
X165464285Y-63250000D01*
X165511904Y-63297619D01*
X165559523Y-63392857D01*
X165559523Y-63488095D01*
X165511904Y-63630952D01*
X164940476Y-64202380D01*
X165559523Y-64202380D01*
X165892857Y-63202380D02*
X166511904Y-63202380D01*
X166178571Y-63583333D01*
X166321428Y-63583333D01*
X166416666Y-63630952D01*
X166464285Y-63678571D01*
X166511904Y-63773809D01*
X166511904Y-64011904D01*
X166464285Y-64107142D01*
X166416666Y-64154761D01*
X166321428Y-64202380D01*
X166035714Y-64202380D01*
X165940476Y-64154761D01*
X165892857Y-64107142D01*
X164988095Y-65297619D02*
X165035714Y-65250000D01*
X165130952Y-65202380D01*
X165369047Y-65202380D01*
X165464285Y-65250000D01*
X165511904Y-65297619D01*
X165559523Y-65392857D01*
X165559523Y-65488095D01*
X165511904Y-65630952D01*
X164940476Y-66202380D01*
X165559523Y-66202380D01*
X165940476Y-65297619D02*
X165988095Y-65250000D01*
X166083333Y-65202380D01*
X166321428Y-65202380D01*
X166416666Y-65250000D01*
X166464285Y-65297619D01*
X166511904Y-65392857D01*
X166511904Y-65488095D01*
X166464285Y-65630952D01*
X165892857Y-66202380D01*
X166511904Y-66202380D01*
X162938095Y-63297619D02*
X162985714Y-63250000D01*
X163080952Y-63202380D01*
X163319047Y-63202380D01*
X163414285Y-63250000D01*
X163461904Y-63297619D01*
X163509523Y-63392857D01*
X163509523Y-63488095D01*
X163461904Y-63630952D01*
X162890476Y-64202380D01*
X163509523Y-64202380D01*
X164461904Y-64202380D02*
X163890476Y-64202380D01*
X164176190Y-64202380D02*
X164176190Y-63202380D01*
X164080952Y-63345238D01*
X163985714Y-63440476D01*
X163890476Y-63488095D01*
X163059523Y-66202380D02*
X162488095Y-66202380D01*
X162773809Y-66202380D02*
X162773809Y-65202380D01*
X162678571Y-65345238D01*
X162583333Y-65440476D01*
X162488095Y-65488095D01*
X163535714Y-66202380D02*
X163726190Y-66202380D01*
X163821428Y-66154761D01*
X163869047Y-66107142D01*
X163964285Y-65964285D01*
X164011904Y-65773809D01*
X164011904Y-65392857D01*
X163964285Y-65297619D01*
X163916666Y-65250000D01*
X163821428Y-65202380D01*
X163630952Y-65202380D01*
X163535714Y-65250000D01*
X163488095Y-65297619D01*
X163440476Y-65392857D01*
X163440476Y-65630952D01*
X163488095Y-65726190D01*
X163535714Y-65773809D01*
X163630952Y-65821428D01*
X163821428Y-65821428D01*
X163916666Y-65773809D01*
X163964285Y-65726190D01*
X164011904Y-65630952D01*
X160109523Y-64202380D02*
X159538095Y-64202380D01*
X159823809Y-64202380D02*
X159823809Y-63202380D01*
X159728571Y-63345238D01*
X159633333Y-63440476D01*
X159538095Y-63488095D01*
X160680952Y-63630952D02*
X160585714Y-63583333D01*
X160538095Y-63535714D01*
X160490476Y-63440476D01*
X160490476Y-63392857D01*
X160538095Y-63297619D01*
X160585714Y-63250000D01*
X160680952Y-63202380D01*
X160871428Y-63202380D01*
X160966666Y-63250000D01*
X161014285Y-63297619D01*
X161061904Y-63392857D01*
X161061904Y-63440476D01*
X161014285Y-63535714D01*
X160966666Y-63583333D01*
X160871428Y-63630952D01*
X160680952Y-63630952D01*
X160585714Y-63678571D01*
X160538095Y-63726190D01*
X160490476Y-63821428D01*
X160490476Y-64011904D01*
X160538095Y-64107142D01*
X160585714Y-64154761D01*
X160680952Y-64202380D01*
X160871428Y-64202380D01*
X160966666Y-64154761D01*
X161014285Y-64107142D01*
X161061904Y-64011904D01*
X161061904Y-63821428D01*
X161014285Y-63726190D01*
X160966666Y-63678571D01*
X160871428Y-63630952D01*
X160738095Y-65202380D02*
X160261904Y-65202380D01*
X160214285Y-65678571D01*
X160261904Y-65630952D01*
X160357142Y-65583333D01*
X160595238Y-65583333D01*
X160690476Y-65630952D01*
X160738095Y-65678571D01*
X160785714Y-65773809D01*
X160785714Y-66011904D01*
X160738095Y-66107142D01*
X160690476Y-66154761D01*
X160595238Y-66202380D01*
X160357142Y-66202380D01*
X160261904Y-66154761D01*
X160214285Y-66107142D01*
X124809523Y-66202380D02*
X124238095Y-66202380D01*
X124523809Y-66202380D02*
X124523809Y-65202380D01*
X124428571Y-65345238D01*
X124333333Y-65440476D01*
X124238095Y-65488095D01*
X125142857Y-65202380D02*
X125809523Y-65202380D01*
X125380952Y-66202380D01*
X127309523Y-66202380D02*
X126738095Y-66202380D01*
X127023809Y-66202380D02*
X127023809Y-65202380D01*
X126928571Y-65345238D01*
X126833333Y-65440476D01*
X126738095Y-65488095D01*
X128166666Y-65202380D02*
X127976190Y-65202380D01*
X127880952Y-65250000D01*
X127833333Y-65297619D01*
X127738095Y-65440476D01*
X127690476Y-65630952D01*
X127690476Y-66011904D01*
X127738095Y-66107142D01*
X127785714Y-66154761D01*
X127880952Y-66202380D01*
X128071428Y-66202380D01*
X128166666Y-66154761D01*
X128214285Y-66107142D01*
X128261904Y-66011904D01*
X128261904Y-65773809D01*
X128214285Y-65678571D01*
X128166666Y-65630952D01*
X128071428Y-65583333D01*
X127880952Y-65583333D01*
X127785714Y-65630952D01*
X127738095Y-65678571D01*
X127690476Y-65773809D01*
X124940476Y-63535714D02*
X124940476Y-64202380D01*
X124702380Y-63154761D02*
X124464285Y-63869047D01*
X125083333Y-63869047D01*
X139714285Y-65297619D02*
X139761904Y-65250000D01*
X139857142Y-65202380D01*
X140095238Y-65202380D01*
X140190476Y-65250000D01*
X140238095Y-65297619D01*
X140285714Y-65392857D01*
X140285714Y-65488095D01*
X140238095Y-65630952D01*
X139666666Y-66202380D01*
X140285714Y-66202380D01*
X132309523Y-64202380D02*
X131738095Y-64202380D01*
X132023809Y-64202380D02*
X132023809Y-63202380D01*
X131928571Y-63345238D01*
X131833333Y-63440476D01*
X131738095Y-63488095D01*
X133214285Y-63202380D02*
X132738095Y-63202380D01*
X132690476Y-63678571D01*
X132738095Y-63630952D01*
X132833333Y-63583333D01*
X133071428Y-63583333D01*
X133166666Y-63630952D01*
X133214285Y-63678571D01*
X133261904Y-63773809D01*
X133261904Y-64011904D01*
X133214285Y-64107142D01*
X133166666Y-64154761D01*
X133071428Y-64202380D01*
X132833333Y-64202380D01*
X132738095Y-64154761D01*
X132690476Y-64107142D01*
X137261904Y-65678571D02*
X137595238Y-65678571D01*
X137738095Y-66202380D02*
X137261904Y-66202380D01*
X137261904Y-65202380D01*
X137738095Y-65202380D01*
X138166666Y-66202380D02*
X138166666Y-65202380D01*
X138738095Y-66202380D01*
X138738095Y-65202380D01*
X147166666Y-63202380D02*
X147500000Y-64202380D01*
X147833333Y-63202380D01*
X148166666Y-64202380D02*
X148166666Y-63202380D01*
X148547619Y-63202380D01*
X148642857Y-63250000D01*
X148690476Y-63297619D01*
X148738095Y-63392857D01*
X148738095Y-63535714D01*
X148690476Y-63630952D01*
X148642857Y-63678571D01*
X148547619Y-63726190D01*
X148166666Y-63726190D01*
X144642857Y-63202380D02*
X144976190Y-64202380D01*
X145309523Y-63202380D01*
X145642857Y-64202380D02*
X145642857Y-63202380D01*
X146214285Y-64202380D01*
X146214285Y-63202380D01*
X126690476Y-63202380D02*
X127309523Y-63202380D01*
X126976190Y-63583333D01*
X127119047Y-63583333D01*
X127214285Y-63630952D01*
X127261904Y-63678571D01*
X127309523Y-63773809D01*
X127309523Y-64011904D01*
X127261904Y-64107142D01*
X127214285Y-64154761D01*
X127119047Y-64202380D01*
X126833333Y-64202380D01*
X126738095Y-64154761D01*
X126690476Y-64107142D01*
X128166666Y-63535714D02*
X128166666Y-64202380D01*
X127928571Y-63154761D02*
X127690476Y-63869047D01*
X128309523Y-63869047D01*
X129190476Y-65202380D02*
X129809523Y-65202380D01*
X129476190Y-65583333D01*
X129619047Y-65583333D01*
X129714285Y-65630952D01*
X129761904Y-65678571D01*
X129809523Y-65773809D01*
X129809523Y-66011904D01*
X129761904Y-66107142D01*
X129714285Y-66154761D01*
X129619047Y-66202380D01*
X129333333Y-66202380D01*
X129238095Y-66154761D01*
X129190476Y-66107142D01*
X130714285Y-65202380D02*
X130238095Y-65202380D01*
X130190476Y-65678571D01*
X130238095Y-65630952D01*
X130333333Y-65583333D01*
X130571428Y-65583333D01*
X130666666Y-65630952D01*
X130714285Y-65678571D01*
X130761904Y-65773809D01*
X130761904Y-66011904D01*
X130714285Y-66107142D01*
X130666666Y-66154761D01*
X130571428Y-66202380D01*
X130333333Y-66202380D01*
X130238095Y-66154761D01*
X130190476Y-66107142D01*
X131690476Y-65202380D02*
X132309523Y-65202380D01*
X131976190Y-65583333D01*
X132119047Y-65583333D01*
X132214285Y-65630952D01*
X132261904Y-65678571D01*
X132309523Y-65773809D01*
X132309523Y-66011904D01*
X132261904Y-66107142D01*
X132214285Y-66154761D01*
X132119047Y-66202380D01*
X131833333Y-66202380D01*
X131738095Y-66154761D01*
X131690476Y-66107142D01*
X132690476Y-65297619D02*
X132738095Y-65250000D01*
X132833333Y-65202380D01*
X133071428Y-65202380D01*
X133166666Y-65250000D01*
X133214285Y-65297619D01*
X133261904Y-65392857D01*
X133261904Y-65488095D01*
X133214285Y-65630952D01*
X132642857Y-66202380D01*
X133261904Y-66202380D01*
X134440476Y-65202380D02*
X135059523Y-65202380D01*
X134726190Y-65583333D01*
X134869047Y-65583333D01*
X134964285Y-65630952D01*
X135011904Y-65678571D01*
X135059523Y-65773809D01*
X135059523Y-66011904D01*
X135011904Y-66107142D01*
X134964285Y-66154761D01*
X134869047Y-66202380D01*
X134583333Y-66202380D01*
X134488095Y-66154761D01*
X134440476Y-66107142D01*
X135392857Y-65202380D02*
X136011904Y-65202380D01*
X135678571Y-65583333D01*
X135821428Y-65583333D01*
X135916666Y-65630952D01*
X135964285Y-65678571D01*
X136011904Y-65773809D01*
X136011904Y-66011904D01*
X135964285Y-66107142D01*
X135916666Y-66154761D01*
X135821428Y-66202380D01*
X135535714Y-66202380D01*
X135440476Y-66154761D01*
X135392857Y-66107142D01*
X157488095Y-65297619D02*
X157535714Y-65250000D01*
X157630952Y-65202380D01*
X157869047Y-65202380D01*
X157964285Y-65250000D01*
X158011904Y-65297619D01*
X158059523Y-65392857D01*
X158059523Y-65488095D01*
X158011904Y-65630952D01*
X157440476Y-66202380D01*
X158059523Y-66202380D01*
X158964285Y-65202380D02*
X158488095Y-65202380D01*
X158440476Y-65678571D01*
X158488095Y-65630952D01*
X158583333Y-65583333D01*
X158821428Y-65583333D01*
X158916666Y-65630952D01*
X158964285Y-65678571D01*
X159011904Y-65773809D01*
X159011904Y-66011904D01*
X158964285Y-66107142D01*
X158916666Y-66154761D01*
X158821428Y-66202380D01*
X158583333Y-66202380D01*
X158488095Y-66154761D01*
X158440476Y-66107142D01*
X157488095Y-63297619D02*
X157535714Y-63250000D01*
X157630952Y-63202380D01*
X157869047Y-63202380D01*
X157964285Y-63250000D01*
X158011904Y-63297619D01*
X158059523Y-63392857D01*
X158059523Y-63488095D01*
X158011904Y-63630952D01*
X157440476Y-64202380D01*
X158059523Y-64202380D01*
X158916666Y-63202380D02*
X158726190Y-63202380D01*
X158630952Y-63250000D01*
X158583333Y-63297619D01*
X158488095Y-63440476D01*
X158440476Y-63630952D01*
X158440476Y-64011904D01*
X158488095Y-64107142D01*
X158535714Y-64154761D01*
X158630952Y-64202380D01*
X158821428Y-64202380D01*
X158916666Y-64154761D01*
X158964285Y-64107142D01*
X159011904Y-64011904D01*
X159011904Y-63773809D01*
X158964285Y-63678571D01*
X158916666Y-63630952D01*
X158821428Y-63583333D01*
X158630952Y-63583333D01*
X158535714Y-63630952D01*
X158488095Y-63678571D01*
X158440476Y-63773809D01*
X155438095Y-63297619D02*
X155485714Y-63250000D01*
X155580952Y-63202380D01*
X155819047Y-63202380D01*
X155914285Y-63250000D01*
X155961904Y-63297619D01*
X156009523Y-63392857D01*
X156009523Y-63488095D01*
X155961904Y-63630952D01*
X155390476Y-64202380D01*
X156009523Y-64202380D01*
X156342857Y-63202380D02*
X157009523Y-63202380D01*
X156580952Y-64202380D01*
X137809523Y-64202380D02*
X137238095Y-64202380D01*
X137523809Y-64202380D02*
X137523809Y-63202380D01*
X137428571Y-63345238D01*
X137333333Y-63440476D01*
X137238095Y-63488095D01*
X138666666Y-63535714D02*
X138666666Y-64202380D01*
X138428571Y-63154761D02*
X138190476Y-63869047D01*
X138809523Y-63869047D01*
X140309523Y-64202380D02*
X139738095Y-64202380D01*
X140023809Y-64202380D02*
X140023809Y-63202380D01*
X139928571Y-63345238D01*
X139833333Y-63440476D01*
X139738095Y-63488095D01*
X140690476Y-63297619D02*
X140738095Y-63250000D01*
X140833333Y-63202380D01*
X141071428Y-63202380D01*
X141166666Y-63250000D01*
X141214285Y-63297619D01*
X141261904Y-63392857D01*
X141261904Y-63488095D01*
X141214285Y-63630952D01*
X140642857Y-64202380D01*
X141261904Y-64202380D01*
X135059523Y-64202380D02*
X134488095Y-64202380D01*
X134773809Y-64202380D02*
X134773809Y-63202380D01*
X134678571Y-63345238D01*
X134583333Y-63440476D01*
X134488095Y-63488095D01*
X135392857Y-63202380D02*
X136011904Y-63202380D01*
X135678571Y-63583333D01*
X135821428Y-63583333D01*
X135916666Y-63630952D01*
X135964285Y-63678571D01*
X136011904Y-63773809D01*
X136011904Y-64011904D01*
X135964285Y-64107142D01*
X135916666Y-64154761D01*
X135821428Y-64202380D01*
X135535714Y-64202380D01*
X135440476Y-64154761D01*
X135392857Y-64107142D01*
D13*
X106452380Y-63976190D02*
X106452380Y-63357142D01*
X106833333Y-63690476D01*
X106833333Y-63547619D01*
X106880952Y-63452380D01*
X106928571Y-63404761D01*
X107023809Y-63357142D01*
X107261904Y-63357142D01*
X107357142Y-63404761D01*
X107404761Y-63452380D01*
X107452380Y-63547619D01*
X107452380Y-63833333D01*
X107404761Y-63928571D01*
X107357142Y-63976190D01*
X107357142Y-62928571D02*
X107404761Y-62880952D01*
X107452380Y-62928571D01*
X107404761Y-62976190D01*
X107357142Y-62928571D01*
X107452380Y-62928571D01*
X106452380Y-62547619D02*
X106452380Y-61928571D01*
X106833333Y-62261904D01*
X106833333Y-62119047D01*
X106880952Y-62023809D01*
X106928571Y-61976190D01*
X107023809Y-61928571D01*
X107261904Y-61928571D01*
X107357142Y-61976190D01*
X107404761Y-62023809D01*
X107452380Y-62119047D01*
X107452380Y-62404761D01*
X107404761Y-62500000D01*
X107357142Y-62547619D01*
X106452380Y-61642857D02*
X107452380Y-61309523D01*
X106452380Y-60976190D01*
X106500000Y-59511904D02*
X106452380Y-59607142D01*
X106452380Y-59750000D01*
X106500000Y-59892857D01*
X106595238Y-59988095D01*
X106690476Y-60035714D01*
X106880952Y-60083333D01*
X107023809Y-60083333D01*
X107214285Y-60035714D01*
X107309523Y-59988095D01*
X107404761Y-59892857D01*
X107452380Y-59750000D01*
X107452380Y-59654761D01*
X107404761Y-59511904D01*
X107357142Y-59464285D01*
X107023809Y-59464285D01*
X107023809Y-59654761D01*
X107452380Y-59035714D02*
X106452380Y-59035714D01*
X107452380Y-58464285D01*
X106452380Y-58464285D01*
X107452380Y-57988095D02*
X106452380Y-57988095D01*
X106452380Y-57750000D01*
X106500000Y-57607142D01*
X106595238Y-57511904D01*
X106690476Y-57464285D01*
X106880952Y-57416666D01*
X107023809Y-57416666D01*
X107214285Y-57464285D01*
X107309523Y-57511904D01*
X107404761Y-57607142D01*
X107452380Y-57750000D01*
X107452380Y-57988095D01*
D17*
X156520428Y-79188571D02*
X156520428Y-80260000D01*
X156449000Y-80474285D01*
X156306142Y-80617142D01*
X156091857Y-80688571D01*
X155949000Y-80688571D01*
X157949000Y-80688571D02*
X157234714Y-80688571D01*
X157234714Y-79188571D01*
X159306142Y-80545714D02*
X159234714Y-80617142D01*
X159020428Y-80688571D01*
X158877571Y-80688571D01*
X158663285Y-80617142D01*
X158520428Y-80474285D01*
X158449000Y-80331428D01*
X158377571Y-80045714D01*
X158377571Y-79831428D01*
X158449000Y-79545714D01*
X158520428Y-79402857D01*
X158663285Y-79260000D01*
X158877571Y-79188571D01*
X159020428Y-79188571D01*
X159234714Y-79260000D01*
X159306142Y-79331428D01*
X160377571Y-79188571D02*
X160377571Y-80260000D01*
X160306142Y-80474285D01*
X160163285Y-80617142D01*
X159949000Y-80688571D01*
X159806142Y-80688571D01*
X161806142Y-80688571D02*
X161091857Y-80688571D01*
X161091857Y-79188571D01*
X163163285Y-80545714D02*
X163091857Y-80617142D01*
X162877571Y-80688571D01*
X162734714Y-80688571D01*
X162520428Y-80617142D01*
X162377571Y-80474285D01*
X162306142Y-80331428D01*
X162234714Y-80045714D01*
X162234714Y-79831428D01*
X162306142Y-79545714D01*
X162377571Y-79402857D01*
X162520428Y-79260000D01*
X162734714Y-79188571D01*
X162877571Y-79188571D01*
X163091857Y-79260000D01*
X163163285Y-79331428D01*
X164234714Y-79188571D02*
X164234714Y-80260000D01*
X164163285Y-80474285D01*
X164020428Y-80617142D01*
X163806142Y-80688571D01*
X163663285Y-80688571D01*
X165663285Y-80688571D02*
X164949000Y-80688571D01*
X164949000Y-79188571D01*
X167020428Y-80545714D02*
X166949000Y-80617142D01*
X166734714Y-80688571D01*
X166591857Y-80688571D01*
X166377571Y-80617142D01*
X166234714Y-80474285D01*
X166163285Y-80331428D01*
X166091857Y-80045714D01*
X166091857Y-79831428D01*
X166163285Y-79545714D01*
X166234714Y-79402857D01*
X166377571Y-79260000D01*
X166591857Y-79188571D01*
X166734714Y-79188571D01*
X166949000Y-79260000D01*
X167020428Y-79331428D01*
X168091857Y-79188571D02*
X168091857Y-80260000D01*
X168020428Y-80474285D01*
X167877571Y-80617142D01*
X167663285Y-80688571D01*
X167520428Y-80688571D01*
X169520428Y-80688571D02*
X168806142Y-80688571D01*
X168806142Y-79188571D01*
X170877571Y-80545714D02*
X170806142Y-80617142D01*
X170591857Y-80688571D01*
X170449000Y-80688571D01*
X170234714Y-80617142D01*
X170091857Y-80474285D01*
X170020428Y-80331428D01*
X169949000Y-80045714D01*
X169949000Y-79831428D01*
X170020428Y-79545714D01*
X170091857Y-79402857D01*
X170234714Y-79260000D01*
X170449000Y-79188571D01*
X170591857Y-79188571D01*
X170806142Y-79260000D01*
X170877571Y-79331428D01*
D12*
X169500000Y-115000000D02*
X97500000Y-115000000D01*
X169500000Y-57000000D02*
X97500000Y-57000000D01*
X89000000Y-65500000D02*
X89000000Y-106500000D01*
D11*
%TO.C,D602*%
X118475000Y-99540500D02*
X116475000Y-99540500D01*
X116475000Y-99540500D02*
X116475000Y-103440500D01*
X118475000Y-99540500D02*
X118475000Y-103440500D01*
D18*
%TO.C,J401*%
X173595000Y-101600000D02*
X173120000Y-101600000D01*
X173120000Y-101600000D02*
X173120000Y-93300000D01*
X173120000Y-93300000D02*
X173595000Y-93300000D01*
X175845000Y-101600000D02*
X176320000Y-101600000D01*
X176320000Y-101600000D02*
X176320000Y-93300000D01*
X176320000Y-93300000D02*
X175845000Y-93300000D01*
X172820000Y-99750000D02*
X172820000Y-97750000D01*
D11*
%TO.C,J203*%
X130220000Y-89210000D02*
X131550000Y-89210000D01*
X130220000Y-90540000D02*
X130220000Y-89210000D01*
X130220000Y-91810000D02*
X132880000Y-91810000D01*
X132880000Y-91810000D02*
X132880000Y-91870000D01*
X130220000Y-91810000D02*
X130220000Y-91870000D01*
X130220000Y-91870000D02*
X132880000Y-91870000D01*
%TO.C,R906*%
X137125000Y-104792936D02*
X137125000Y-105247064D01*
X138595000Y-104792936D02*
X138595000Y-105247064D01*
%TO.C,J202*%
X98410000Y-57470000D02*
X98410000Y-62670000D01*
X103550000Y-57470000D02*
X98410000Y-57470000D01*
X106150000Y-62670000D02*
X98410000Y-62670000D01*
X103550000Y-57470000D02*
X103550000Y-60070000D01*
X103550000Y-60070000D02*
X106150000Y-60070000D01*
X106150000Y-60070000D02*
X106150000Y-62670000D01*
X104820000Y-57470000D02*
X106150000Y-57470000D01*
X106150000Y-57470000D02*
X106150000Y-58800000D01*
%TO.C,R1103*%
X149846359Y-79360000D02*
X150153641Y-79360000D01*
X149846359Y-80120000D02*
X150153641Y-80120000D01*
%TO.C,D1102*%
X155960000Y-99880000D02*
X155960000Y-101180000D01*
X154160000Y-101530000D02*
X154160000Y-99880000D01*
%TO.C,D1101*%
X150520000Y-82240000D02*
X149220000Y-82240000D01*
X148870000Y-80440000D02*
X150520000Y-80440000D01*
%TO.C,J201*%
X167110000Y-57470000D02*
X167110000Y-58800000D01*
X165780000Y-57470000D02*
X167110000Y-57470000D01*
X167110000Y-60070000D02*
X167110000Y-62670000D01*
X164510000Y-60070000D02*
X167110000Y-60070000D01*
X164510000Y-57470000D02*
X164510000Y-60070000D01*
X167110000Y-62670000D02*
X116190000Y-62670000D01*
X164510000Y-57470000D02*
X116190000Y-57470000D01*
X116190000Y-57470000D02*
X116190000Y-62670000D01*
%TO.C,U201*%
X171762999Y-66960000D02*
X171762999Y-66580000D01*
X178182999Y-66960000D02*
X171762999Y-66960000D01*
X178182999Y-85200000D02*
X171762999Y-85200000D01*
X178182999Y-66960000D02*
X178182999Y-85200000D01*
X152437999Y-85200000D02*
X152437999Y-84200000D01*
X153217999Y-85200000D02*
X152437999Y-85200000D01*
X152437999Y-66960000D02*
X152437999Y-67960000D01*
X153217999Y-66960000D02*
X152437999Y-66960000D01*
%TO.C,R905*%
X131165000Y-107427064D02*
X131165000Y-106972936D01*
X132635000Y-107427064D02*
X132635000Y-106972936D01*
%TO.C,U401*%
X167741500Y-96314000D02*
X167741500Y-92864000D01*
X167741500Y-96314000D02*
X167741500Y-98264000D01*
X157621500Y-96314000D02*
X157621500Y-94364000D01*
X157621500Y-96314000D02*
X157621500Y-98264000D01*
%TO.C,C503*%
X170064500Y-103119422D02*
X170064500Y-103636578D01*
X168644500Y-103119422D02*
X168644500Y-103636578D01*
%TO.C,F401*%
X170603500Y-101186064D02*
X170603500Y-99981936D01*
X172423500Y-101186064D02*
X172423500Y-99981936D01*
%TO.C,D303*%
X97964500Y-96619500D02*
X95964500Y-96619500D01*
X95964500Y-96619500D02*
X95964500Y-100519500D01*
X97964500Y-96619500D02*
X97964500Y-100519500D01*
%TO.C,Q1102*%
X128843000Y-88375000D02*
X127443000Y-88375000D01*
X127443000Y-90695000D02*
X129343000Y-90695000D01*
%TO.C,Q1101*%
X123007000Y-90041000D02*
X123007000Y-88581000D01*
X126167000Y-90041000D02*
X126167000Y-87881000D01*
X126167000Y-90041000D02*
X125237000Y-90041000D01*
X123007000Y-90041000D02*
X123937000Y-90041000D01*
%TO.C,FB401*%
X168644500Y-99626922D02*
X168644500Y-100144078D01*
X170064500Y-99626922D02*
X170064500Y-100144078D01*
%TO.C,U402*%
X171378500Y-97806500D02*
X170378500Y-97806500D01*
X171378500Y-95106500D02*
X170878500Y-95106500D01*
%TO.C,U701*%
X148800000Y-96300000D02*
X148800000Y-95800000D01*
X146100000Y-96300000D02*
X146100000Y-95300000D01*
%TO.C,J702*%
X143230000Y-97280000D02*
X143230000Y-99940000D01*
X150910000Y-97280000D02*
X143230000Y-97280000D01*
X150910000Y-99940000D02*
X143230000Y-99940000D01*
X150910000Y-97280000D02*
X150910000Y-99940000D01*
X152180000Y-97280000D02*
X153510000Y-97280000D01*
X153510000Y-97280000D02*
X153510000Y-98610000D01*
%TO.C,J207*%
X95190000Y-85150000D02*
X97850000Y-85150000D01*
X95190000Y-67250000D02*
X95190000Y-85150000D01*
X97850000Y-67250000D02*
X97850000Y-85150000D01*
X95190000Y-67250000D02*
X97850000Y-67250000D01*
%TO.C,J601*%
X125909000Y-114986000D02*
X123909000Y-114986000D01*
X125909000Y-113736000D02*
X125909000Y-114986000D01*
X109879000Y-107986000D02*
X110629000Y-107986000D01*
X109879000Y-112286000D02*
X109879000Y-107986000D01*
X110629000Y-112286000D02*
X109879000Y-112286000D01*
X110629000Y-112636000D02*
X110629000Y-112286000D01*
X110129000Y-112636000D02*
X110629000Y-112636000D01*
X109879000Y-113636000D02*
X110129000Y-112636000D01*
X112879000Y-113636000D02*
X109879000Y-113636000D01*
X112629000Y-112636000D02*
X112879000Y-113636000D01*
X112129000Y-112636000D02*
X112629000Y-112636000D01*
X112129000Y-112286000D02*
X112129000Y-112636000D01*
X112879000Y-112286000D02*
X112129000Y-112286000D01*
X112879000Y-107986000D02*
X112879000Y-112286000D01*
X112129000Y-107986000D02*
X112879000Y-107986000D01*
X113689000Y-107986000D02*
X114439000Y-107986000D01*
X113689000Y-112286000D02*
X113689000Y-107986000D01*
X114439000Y-112286000D02*
X113689000Y-112286000D01*
X114439000Y-112636000D02*
X114439000Y-112286000D01*
X113939000Y-112636000D02*
X114439000Y-112636000D01*
X113689000Y-113636000D02*
X113939000Y-112636000D01*
X116689000Y-113636000D02*
X113689000Y-113636000D01*
X116439000Y-112636000D02*
X116689000Y-113636000D01*
X115939000Y-112636000D02*
X116439000Y-112636000D01*
X115939000Y-112286000D02*
X115939000Y-112636000D01*
X116689000Y-112286000D02*
X115939000Y-112286000D01*
X116689000Y-107986000D02*
X116689000Y-112286000D01*
X115939000Y-107986000D02*
X116689000Y-107986000D01*
X117499000Y-107986000D02*
X118249000Y-107986000D01*
X117499000Y-112286000D02*
X117499000Y-107986000D01*
X118249000Y-112286000D02*
X117499000Y-112286000D01*
X118249000Y-112636000D02*
X118249000Y-112286000D01*
X117749000Y-112636000D02*
X118249000Y-112636000D01*
X117499000Y-113636000D02*
X117749000Y-112636000D01*
X120499000Y-113636000D02*
X117499000Y-113636000D01*
X120249000Y-112636000D02*
X120499000Y-113636000D01*
X119749000Y-112636000D02*
X120249000Y-112636000D01*
X119749000Y-112286000D02*
X119749000Y-112636000D01*
X120499000Y-112286000D02*
X119749000Y-112286000D01*
X120499000Y-107986000D02*
X120499000Y-112286000D01*
X119749000Y-107986000D02*
X120499000Y-107986000D01*
X121309000Y-107986000D02*
X122059000Y-107986000D01*
X121309000Y-112286000D02*
X121309000Y-107986000D01*
X122059000Y-112286000D02*
X121309000Y-112286000D01*
X122059000Y-112636000D02*
X122059000Y-112286000D01*
X121559000Y-112636000D02*
X122059000Y-112636000D01*
X121309000Y-113636000D02*
X121559000Y-112636000D01*
X124309000Y-113636000D02*
X121309000Y-113636000D01*
X124059000Y-112636000D02*
X124309000Y-113636000D01*
X123559000Y-112636000D02*
X124059000Y-112636000D01*
X123559000Y-112286000D02*
X123559000Y-112636000D01*
X124309000Y-112286000D02*
X123559000Y-112286000D01*
X124309000Y-107986000D02*
X124309000Y-112286000D01*
X123559000Y-107986000D02*
X124309000Y-107986000D01*
X108669000Y-114596000D02*
X125519000Y-114596000D01*
X108669000Y-107126000D02*
X108669000Y-114596000D01*
X125519000Y-107126000D02*
X108669000Y-107126000D01*
X125519000Y-114596000D02*
X125519000Y-107126000D01*
X122059353Y-107986155D02*
G75*
G03*
X123559000Y-107986000I749647J1700155D01*
G01*
X118249353Y-107986155D02*
G75*
G03*
X119749000Y-107986000I749647J1700155D01*
G01*
X114439353Y-107986155D02*
G75*
G03*
X115939000Y-107986000I749647J1700155D01*
G01*
X110629353Y-107986155D02*
G75*
G03*
X112129000Y-107986000I749647J1700155D01*
G01*
%TO.C,J206*%
X92205000Y-67250000D02*
X89545000Y-67250000D01*
X92205000Y-85090000D02*
X92205000Y-67250000D01*
X89545000Y-85090000D02*
X89545000Y-67250000D01*
X92205000Y-85090000D02*
X89545000Y-85090000D01*
X92205000Y-86360000D02*
X92205000Y-87690000D01*
X92205000Y-87690000D02*
X90875000Y-87690000D01*
%TO.C,J302*%
X89495000Y-95645000D02*
X92155000Y-95645000D01*
X89495000Y-93045000D02*
X89495000Y-95645000D01*
X92155000Y-93045000D02*
X92155000Y-95645000D01*
X89495000Y-93045000D02*
X92155000Y-93045000D01*
X89495000Y-91775000D02*
X89495000Y-90445000D01*
X89495000Y-90445000D02*
X90825000Y-90445000D01*
%TO.C,U902*%
X136411000Y-98171000D02*
X136411000Y-95861000D01*
X136411000Y-95861000D02*
X136196000Y-95861000D01*
X136411000Y-98171000D02*
X136411000Y-100481000D01*
X136411000Y-100481000D02*
X136196000Y-100481000D01*
X133591000Y-98171000D02*
X133591000Y-95861000D01*
X133591000Y-95861000D02*
X133806000Y-95861000D01*
X133591000Y-98171000D02*
X133591000Y-100481000D01*
X133591000Y-100481000D02*
X133806000Y-100481000D01*
X133806000Y-100481000D02*
X133806000Y-102171000D01*
%TO.C,U901*%
X136893000Y-98171000D02*
X136893000Y-100481000D01*
X136893000Y-100481000D02*
X137108000Y-100481000D01*
X136893000Y-98171000D02*
X136893000Y-95861000D01*
X136893000Y-95861000D02*
X137108000Y-95861000D01*
X139713000Y-98171000D02*
X139713000Y-100481000D01*
X139713000Y-100481000D02*
X139498000Y-100481000D01*
X139713000Y-98171000D02*
X139713000Y-95861000D01*
X139713000Y-95861000D02*
X139498000Y-95861000D01*
X139498000Y-95861000D02*
X139498000Y-94171000D01*
%TO.C,R904*%
X133221000Y-107223779D02*
X133221000Y-106898221D01*
X134241000Y-107223779D02*
X134241000Y-106898221D01*
%TO.C,R903*%
X140426221Y-105154000D02*
X140751779Y-105154000D01*
X140426221Y-106174000D02*
X140751779Y-106174000D01*
%TO.C,D902*%
X132293000Y-102886000D02*
X132293000Y-104886000D01*
X132293000Y-104886000D02*
X136143000Y-104886000D01*
X132293000Y-102886000D02*
X136143000Y-102886000D01*
%TO.C,D901*%
X134607000Y-107028000D02*
X134607000Y-109028000D01*
X134607000Y-109028000D02*
X138457000Y-109028000D01*
X134607000Y-107028000D02*
X138457000Y-107028000D01*
%TO.C,R902*%
X131226779Y-94109000D02*
X130901221Y-94109000D01*
X131226779Y-93089000D02*
X130901221Y-93089000D01*
%TO.C,C202*%
X168280000Y-64087221D02*
X168280000Y-64412779D01*
X169300000Y-64087221D02*
X169300000Y-64412779D01*
%TO.C,C301*%
X93856064Y-98185500D02*
X92651936Y-98185500D01*
X93856064Y-96365500D02*
X92651936Y-96365500D01*
%TO.C,C304*%
X96179578Y-89610000D02*
X95662422Y-89610000D01*
X96179578Y-88190000D02*
X95662422Y-88190000D01*
%TO.C,C402*%
X157160000Y-97687221D02*
X157160000Y-98012779D01*
X156140000Y-97687221D02*
X156140000Y-98012779D01*
%TO.C,C501*%
X166912779Y-102660000D02*
X166587221Y-102660000D01*
X166912779Y-101640000D02*
X166587221Y-101640000D01*
%TO.C,C502*%
X169660000Y-109462779D02*
X169660000Y-109137221D01*
X168640000Y-109462779D02*
X168640000Y-109137221D01*
%TO.C,C603*%
X119241500Y-99753922D02*
X119241500Y-100271078D01*
X120661500Y-99753922D02*
X120661500Y-100271078D01*
%TO.C,C605*%
X119364721Y-94354000D02*
X119690279Y-94354000D01*
X119364721Y-93334000D02*
X119690279Y-93334000D01*
%TO.C,C704*%
X150198000Y-93110064D02*
X150198000Y-91905936D01*
X152018000Y-93110064D02*
X152018000Y-91905936D01*
%TO.C,C705*%
X140875000Y-93354279D02*
X140875000Y-93028721D01*
X141895000Y-93354279D02*
X141895000Y-93028721D01*
%TO.C,C706*%
X145535000Y-93404279D02*
X145535000Y-93078721D01*
X144515000Y-93404279D02*
X144515000Y-93078721D01*
%TO.C,C802*%
X150840221Y-106043000D02*
X151165779Y-106043000D01*
X150840221Y-107063000D02*
X151165779Y-107063000D01*
%TO.C,C803*%
X147287064Y-109199000D02*
X146082936Y-109199000D01*
X147287064Y-111019000D02*
X146082936Y-111019000D01*
%TO.C,C904*%
X129507064Y-109277000D02*
X128302936Y-109277000D01*
X129507064Y-111097000D02*
X128302936Y-111097000D01*
%TO.C,C905*%
X133019779Y-111078000D02*
X132694221Y-111078000D01*
X133019779Y-110058000D02*
X132694221Y-110058000D01*
%TO.C,C906*%
X140352000Y-113143779D02*
X140352000Y-112818221D01*
X139332000Y-113143779D02*
X139332000Y-112818221D01*
%TO.C,D301*%
X95404000Y-99123000D02*
X91104000Y-99123000D01*
X91104000Y-99123000D02*
X91104000Y-104823000D01*
X95404000Y-99123000D02*
X95404000Y-104823000D01*
%TO.C,D302*%
X97536000Y-92059000D02*
X93636000Y-92059000D01*
X97536000Y-90059000D02*
X93636000Y-90059000D01*
X97536000Y-92059000D02*
X97536000Y-90059000D01*
%TO.C,D501*%
X170275000Y-107228500D02*
X172560000Y-107228500D01*
X170275000Y-105758500D02*
X170275000Y-107228500D01*
X172560000Y-105758500D02*
X170275000Y-105758500D01*
%TO.C,D502*%
X176065500Y-102226000D02*
X173780500Y-102226000D01*
X173780500Y-102226000D02*
X173780500Y-103696000D01*
X173780500Y-103696000D02*
X176065500Y-103696000D01*
%TO.C,D601*%
X125467000Y-99329000D02*
X125467000Y-105029000D01*
X121167000Y-99329000D02*
X121167000Y-105029000D01*
X125467000Y-99329000D02*
X121167000Y-99329000D01*
%TO.C,F301*%
X97935000Y-103322936D02*
X97935000Y-104527064D01*
X96115000Y-103322936D02*
X96115000Y-104527064D01*
%TO.C,F601*%
X117883936Y-106311000D02*
X119088064Y-106311000D01*
X117883936Y-104491000D02*
X119088064Y-104491000D01*
%TO.C,FB301*%
X98490000Y-101141422D02*
X98490000Y-101658578D01*
X99910000Y-101141422D02*
X99910000Y-101658578D01*
%TO.C,FB601*%
X114479000Y-105112078D02*
X114479000Y-104594922D01*
X115899000Y-105112078D02*
X115899000Y-104594922D01*
%TO.C,FB701*%
X149659000Y-93350078D02*
X149659000Y-92832922D01*
X148239000Y-93350078D02*
X148239000Y-92832922D01*
%TO.C,FB702*%
X144000000Y-93300078D02*
X144000000Y-92782922D01*
X142580000Y-93300078D02*
X142580000Y-92782922D01*
%TO.C,FB703*%
X147640000Y-93350078D02*
X147640000Y-92832922D01*
X146220000Y-93350078D02*
X146220000Y-92832922D01*
%TO.C,FB801*%
X147403078Y-108660000D02*
X146885922Y-108660000D01*
X147403078Y-107240000D02*
X146885922Y-107240000D01*
%TO.C,FB902*%
X128900422Y-107240000D02*
X129417578Y-107240000D01*
X128900422Y-108660000D02*
X129417578Y-108660000D01*
%TO.C,FB903*%
X135821922Y-109604000D02*
X136339078Y-109604000D01*
X135821922Y-111024000D02*
X136339078Y-111024000D01*
%TO.C,FB904*%
X142330000Y-113034078D02*
X142330000Y-112516922D01*
X140910000Y-113034078D02*
X140910000Y-112516922D01*
%TO.C,J701*%
X150540000Y-105110000D02*
X146660000Y-105110000D01*
X145490000Y-101990000D02*
X146540000Y-101990000D01*
X145490000Y-103140000D02*
X145490000Y-101990000D01*
X150660000Y-101990000D02*
X150660000Y-101000000D01*
X151710000Y-101990000D02*
X150660000Y-101990000D01*
X151710000Y-103140000D02*
X151710000Y-101990000D01*
%TO.C,L301*%
X103320000Y-90157500D02*
X102170000Y-90157500D01*
X97920000Y-90157500D02*
X99070000Y-90157500D01*
X103320000Y-95757500D02*
X102170000Y-95757500D01*
X97920000Y-95757500D02*
X99070000Y-95757500D01*
X103320000Y-95757500D02*
X103320000Y-90157500D01*
X97920000Y-95757500D02*
X97920000Y-90157500D01*
%TO.C,Q401*%
X152820000Y-104210000D02*
X152820000Y-102750000D01*
X155980000Y-104210000D02*
X155980000Y-102050000D01*
X155980000Y-104210000D02*
X155050000Y-104210000D01*
X152820000Y-104210000D02*
X153750000Y-104210000D01*
%TO.C,Q402*%
X156420000Y-104210000D02*
X157350000Y-104210000D01*
X159580000Y-104210000D02*
X158650000Y-104210000D01*
X159580000Y-104210000D02*
X159580000Y-102050000D01*
X156420000Y-104210000D02*
X156420000Y-102750000D01*
%TO.C,Q901*%
X139535000Y-109042000D02*
X139535000Y-107582000D01*
X142695000Y-109042000D02*
X142695000Y-106882000D01*
X142695000Y-109042000D02*
X141765000Y-109042000D01*
X139535000Y-109042000D02*
X140465000Y-109042000D01*
%TO.C,R202*%
X166717000Y-87933221D02*
X166717000Y-88258779D01*
X167737000Y-87933221D02*
X167737000Y-88258779D01*
%TO.C,R203*%
X165750000Y-87933221D02*
X165750000Y-88258779D01*
X164730000Y-87933221D02*
X164730000Y-88258779D01*
%TO.C,R204*%
X161428000Y-88258779D02*
X161428000Y-87933221D01*
X162448000Y-88258779D02*
X162448000Y-87933221D01*
%TO.C,R205*%
X160416000Y-88258779D02*
X160416000Y-87933221D01*
X159396000Y-88258779D02*
X159396000Y-87933221D01*
%TO.C,R206*%
X155710000Y-88262779D02*
X155710000Y-87937221D01*
X156730000Y-88262779D02*
X156730000Y-87937221D01*
%TO.C,R207*%
X158430000Y-88262779D02*
X158430000Y-87937221D01*
X157410000Y-88262779D02*
X157410000Y-87937221D01*
%TO.C,R208*%
X154800000Y-88252779D02*
X154800000Y-87927221D01*
X153780000Y-88252779D02*
X153780000Y-87927221D01*
%TO.C,R209*%
X133590000Y-91602779D02*
X133590000Y-91277221D01*
X134610000Y-91602779D02*
X134610000Y-91277221D01*
%TO.C,R210*%
X136273000Y-91602779D02*
X136273000Y-91277221D01*
X135253000Y-91602779D02*
X135253000Y-91277221D01*
%TO.C,R601*%
X112502064Y-102590000D02*
X111297936Y-102590000D01*
X112502064Y-104410000D02*
X111297936Y-104410000D01*
%TO.C,R802*%
X151086078Y-107621000D02*
X150568922Y-107621000D01*
X151086078Y-109041000D02*
X150568922Y-109041000D01*
%TO.C,R901*%
X138465779Y-92327000D02*
X138140221Y-92327000D01*
X138465779Y-93347000D02*
X138140221Y-93347000D01*
%TO.C,U301*%
X96035000Y-95125000D02*
X96035000Y-92675000D01*
X92815000Y-93325000D02*
X92815000Y-95125000D01*
%TO.C,U601*%
X113000000Y-105164000D02*
X113000000Y-106164000D01*
X110300000Y-105164000D02*
X110300000Y-105664000D01*
%TO.C,U602*%
X117171000Y-89290000D02*
X117171000Y-87010000D01*
X117461000Y-89290000D02*
X117171000Y-89290000D01*
X117461000Y-92710000D02*
X117461000Y-89290000D01*
X117461000Y-96130000D02*
X117171000Y-96130000D01*
X117461000Y-92710000D02*
X117461000Y-96130000D01*
X108091000Y-89290000D02*
X108381000Y-89290000D01*
X108091000Y-92710000D02*
X108091000Y-89290000D01*
X108091000Y-96130000D02*
X108381000Y-96130000D01*
X108091000Y-92710000D02*
X108091000Y-96130000D01*
%TO.C,U603*%
X117922000Y-97144000D02*
X118852000Y-97144000D01*
X121082000Y-97144000D02*
X120152000Y-97144000D01*
X121082000Y-97144000D02*
X121082000Y-94984000D01*
X117922000Y-97144000D02*
X117922000Y-95684000D01*
%TO.C,U801*%
X149653000Y-109863000D02*
X149653000Y-110363000D01*
X152353000Y-109863000D02*
X152353000Y-110863000D01*
%TO.C,SW501*%
X165800000Y-103650000D02*
X165350000Y-103200000D01*
X162400000Y-103650000D02*
X162850000Y-103200000D01*
X162400000Y-108250000D02*
X162850000Y-108700000D01*
X165800000Y-108250000D02*
X165350000Y-108700000D01*
X161350000Y-106950000D02*
X161350000Y-104950000D01*
X165350000Y-103200000D02*
X162850000Y-103200000D01*
X166850000Y-106950000D02*
X166850000Y-104950000D01*
X165350000Y-108700000D02*
X162850000Y-108700000D01*
%TO.C,SW502*%
X165350000Y-114750000D02*
X162850000Y-114750000D01*
X166850000Y-113000000D02*
X166850000Y-111000000D01*
X165350000Y-109250000D02*
X162850000Y-109250000D01*
X161350000Y-113000000D02*
X161350000Y-111000000D01*
X165800000Y-114300000D02*
X165350000Y-114750000D01*
X162400000Y-114300000D02*
X162850000Y-114750000D01*
X162400000Y-109700000D02*
X162850000Y-109250000D01*
X165800000Y-109700000D02*
X165350000Y-109250000D01*
%TO.C,J301*%
X107500000Y-115000000D02*
X105500000Y-115000000D01*
X107500000Y-113750000D02*
X107500000Y-115000000D01*
X99090000Y-108000000D02*
X99840000Y-108000000D01*
X99090000Y-112300000D02*
X99090000Y-108000000D01*
X99840000Y-112300000D02*
X99090000Y-112300000D01*
X99840000Y-112650000D02*
X99840000Y-112300000D01*
X99340000Y-112650000D02*
X99840000Y-112650000D01*
X99090000Y-113650000D02*
X99340000Y-112650000D01*
X102090000Y-113650000D02*
X99090000Y-113650000D01*
X101840000Y-112650000D02*
X102090000Y-113650000D01*
X101340000Y-112650000D02*
X101840000Y-112650000D01*
X101340000Y-112300000D02*
X101340000Y-112650000D01*
X102090000Y-112300000D02*
X101340000Y-112300000D01*
X102090000Y-108000000D02*
X102090000Y-112300000D01*
X101340000Y-108000000D02*
X102090000Y-108000000D01*
X102900000Y-108000000D02*
X103650000Y-108000000D01*
X102900000Y-112300000D02*
X102900000Y-108000000D01*
X103650000Y-112300000D02*
X102900000Y-112300000D01*
X103650000Y-112650000D02*
X103650000Y-112300000D01*
X103150000Y-112650000D02*
X103650000Y-112650000D01*
X102900000Y-113650000D02*
X103150000Y-112650000D01*
X105900000Y-113650000D02*
X102900000Y-113650000D01*
X105650000Y-112650000D02*
X105900000Y-113650000D01*
X105150000Y-112650000D02*
X105650000Y-112650000D01*
X105150000Y-112300000D02*
X105150000Y-112650000D01*
X105900000Y-112300000D02*
X105150000Y-112300000D01*
X105900000Y-108000000D02*
X105900000Y-112300000D01*
X105150000Y-108000000D02*
X105900000Y-108000000D01*
X97880000Y-114610000D02*
X107110000Y-114610000D01*
X97880000Y-107140000D02*
X97880000Y-114610000D01*
X107110000Y-107140000D02*
X97880000Y-107140000D01*
X107110000Y-114610000D02*
X107110000Y-107140000D01*
X103650353Y-108000155D02*
G75*
G03*
X105150000Y-108000000I749647J1700155D01*
G01*
X99840353Y-108000155D02*
G75*
G03*
X101340000Y-108000000I749647J1700155D01*
G01*
%TO.C,J801*%
X144846001Y-114487000D02*
X144846001Y-113157000D01*
X146176001Y-114487000D02*
X144846001Y-114487000D01*
X147446001Y-114487000D02*
X147446001Y-111827000D01*
X147446001Y-111827000D02*
X152586001Y-111827000D01*
X147446001Y-114487000D02*
X152586001Y-114487000D01*
X152586001Y-114487000D02*
X152586001Y-111827000D01*
%TO.C,J901*%
X138505000Y-114565000D02*
X138505000Y-111905000D01*
X130825000Y-114565000D02*
X138505000Y-114565000D01*
X130825000Y-111905000D02*
X138505000Y-111905000D01*
X130825000Y-114565000D02*
X130825000Y-111905000D01*
X129555000Y-114565000D02*
X128225000Y-114565000D01*
X128225000Y-114565000D02*
X128225000Y-113235000D01*
%TD*%
%TO.C,R906*%
D19*
X139404761Y-104231904D02*
X139138095Y-103850952D01*
X138947619Y-104231904D02*
X138947619Y-103431904D01*
X139252380Y-103431904D01*
X139328571Y-103470000D01*
X139366666Y-103508095D01*
X139404761Y-103584285D01*
X139404761Y-103698571D01*
X139366666Y-103774761D01*
X139328571Y-103812857D01*
X139252380Y-103850952D01*
X138947619Y-103850952D01*
X139785714Y-104231904D02*
X139938095Y-104231904D01*
X140014285Y-104193809D01*
X140052380Y-104155714D01*
X140128571Y-104041428D01*
X140166666Y-103889047D01*
X140166666Y-103584285D01*
X140128571Y-103508095D01*
X140090476Y-103470000D01*
X140014285Y-103431904D01*
X139861904Y-103431904D01*
X139785714Y-103470000D01*
X139747619Y-103508095D01*
X139709523Y-103584285D01*
X139709523Y-103774761D01*
X139747619Y-103850952D01*
X139785714Y-103889047D01*
X139861904Y-103927142D01*
X140014285Y-103927142D01*
X140090476Y-103889047D01*
X140128571Y-103850952D01*
X140166666Y-103774761D01*
X140661904Y-103431904D02*
X140738095Y-103431904D01*
X140814285Y-103470000D01*
X140852380Y-103508095D01*
X140890476Y-103584285D01*
X140928571Y-103736666D01*
X140928571Y-103927142D01*
X140890476Y-104079523D01*
X140852380Y-104155714D01*
X140814285Y-104193809D01*
X140738095Y-104231904D01*
X140661904Y-104231904D01*
X140585714Y-104193809D01*
X140547619Y-104155714D01*
X140509523Y-104079523D01*
X140471428Y-103927142D01*
X140471428Y-103736666D01*
X140509523Y-103584285D01*
X140547619Y-103508095D01*
X140585714Y-103470000D01*
X140661904Y-103431904D01*
X141614285Y-103431904D02*
X141461904Y-103431904D01*
X141385714Y-103470000D01*
X141347619Y-103508095D01*
X141271428Y-103622380D01*
X141233333Y-103774761D01*
X141233333Y-104079523D01*
X141271428Y-104155714D01*
X141309523Y-104193809D01*
X141385714Y-104231904D01*
X141538095Y-104231904D01*
X141614285Y-104193809D01*
X141652380Y-104155714D01*
X141690476Y-104079523D01*
X141690476Y-103889047D01*
X141652380Y-103812857D01*
X141614285Y-103774761D01*
X141538095Y-103736666D01*
X141385714Y-103736666D01*
X141309523Y-103774761D01*
X141271428Y-103812857D01*
X141233333Y-103889047D01*
%TD*%
M02*
