%TF.GenerationSoftware,KiCad,Pcbnew,(5.1.8-0-10_14)*%
%TF.CreationDate,2020-11-27T14:09:33+02:00*%
%TF.ProjectId,SH-ESP32,53482d45-5350-4333-922e-6b696361645f,0.2.0*%
%TF.SameCoordinates,Original*%
%TF.FileFunction,Paste,Top*%
%TF.FilePolarity,Positive*%
%FSLAX46Y46*%
G04 Gerber Fmt 4.6, Leading zero omitted, Abs format (unit mm)*
G04 Created by KiCad (PCBNEW (5.1.8-0-10_14)) date 2020-11-27 14:09:33*
%MOMM*%
%LPD*%
G01*
G04 APERTURE LIST*
%TA.AperFunction,Profile*%
%ADD10C,0.050000*%
%TD*%
%ADD11R,1.200000X0.900000*%
%ADD12R,0.400000X0.510000*%
%ADD13R,0.510000X0.400000*%
%ADD14R,5.000000X5.000000*%
%ADD15R,0.900000X2.000000*%
%ADD16R,2.000000X0.900000*%
%ADD17R,0.650000X0.400000*%
%ADD18R,0.800000X0.900000*%
%ADD19R,0.625000X0.250000*%
%ADD20R,0.700000X0.450000*%
%ADD21R,0.575000X0.450000*%
%ADD22R,0.250000X0.625000*%
%ADD23R,0.450000X0.575000*%
%ADD24R,0.450000X0.700000*%
%ADD25R,1.100000X1.100000*%
%ADD26R,2.300000X2.500000*%
%ADD27R,0.900000X1.200000*%
%ADD28R,2.500000X1.900000*%
%ADD29R,0.650000X1.060000*%
%ADD30R,1.700000X1.000000*%
G04 APERTURE END LIST*
D10*
X169500000Y-115000000D02*
G75*
G02*
X178000000Y-106500000I8500000J0D01*
G01*
X89000000Y-106500000D02*
G75*
G02*
X97500000Y-115000000I0J-8500000D01*
G01*
X178000000Y-65500000D02*
G75*
G02*
X169500000Y-57000000I0J8500000D01*
G01*
X97500000Y-57000000D02*
G75*
G02*
X89000000Y-65500000I-8500000J0D01*
G01*
X178000000Y-106500000D02*
X178000000Y-65500000D01*
X169500000Y-115000000D02*
X97500000Y-115000000D01*
X169500000Y-57000000D02*
X97500000Y-57000000D01*
X89000000Y-65500000D02*
X89000000Y-106500000D01*
D11*
%TO.C,D602*%
X117475000Y-103440500D03*
X117475000Y-100140500D03*
%TD*%
%TO.C,R906*%
G36*
G01*
X137409999Y-105420000D02*
X138310001Y-105420000D01*
G75*
G02*
X138560000Y-105669999I0J-249999D01*
G01*
X138560000Y-106195001D01*
G75*
G02*
X138310001Y-106445000I-249999J0D01*
G01*
X137409999Y-106445000D01*
G75*
G02*
X137160000Y-106195001I0J249999D01*
G01*
X137160000Y-105669999D01*
G75*
G02*
X137409999Y-105420000I249999J0D01*
G01*
G37*
G36*
G01*
X137409999Y-103595000D02*
X138310001Y-103595000D01*
G75*
G02*
X138560000Y-103844999I0J-249999D01*
G01*
X138560000Y-104370001D01*
G75*
G02*
X138310001Y-104620000I-249999J0D01*
G01*
X137409999Y-104620000D01*
G75*
G02*
X137160000Y-104370001I0J249999D01*
G01*
X137160000Y-103844999D01*
G75*
G02*
X137409999Y-103595000I249999J0D01*
G01*
G37*
%TD*%
%TO.C,C1022*%
G36*
G01*
X148992000Y-86507500D02*
X148992000Y-86162500D01*
G75*
G02*
X149139500Y-86015000I147500J0D01*
G01*
X149434500Y-86015000D01*
G75*
G02*
X149582000Y-86162500I0J-147500D01*
G01*
X149582000Y-86507500D01*
G75*
G02*
X149434500Y-86655000I-147500J0D01*
G01*
X149139500Y-86655000D01*
G75*
G02*
X148992000Y-86507500I0J147500D01*
G01*
G37*
G36*
G01*
X148022000Y-86507500D02*
X148022000Y-86162500D01*
G75*
G02*
X148169500Y-86015000I147500J0D01*
G01*
X148464500Y-86015000D01*
G75*
G02*
X148612000Y-86162500I0J-147500D01*
G01*
X148612000Y-86507500D01*
G75*
G02*
X148464500Y-86655000I-147500J0D01*
G01*
X148169500Y-86655000D01*
G75*
G02*
X148022000Y-86507500I0J147500D01*
G01*
G37*
%TD*%
%TO.C,R1103*%
G36*
G01*
X150240000Y-79925000D02*
X150240000Y-79555000D01*
G75*
G02*
X150375000Y-79420000I135000J0D01*
G01*
X150645000Y-79420000D01*
G75*
G02*
X150780000Y-79555000I0J-135000D01*
G01*
X150780000Y-79925000D01*
G75*
G02*
X150645000Y-80060000I-135000J0D01*
G01*
X150375000Y-80060000D01*
G75*
G02*
X150240000Y-79925000I0J135000D01*
G01*
G37*
G36*
G01*
X149220000Y-79925000D02*
X149220000Y-79555000D01*
G75*
G02*
X149355000Y-79420000I135000J0D01*
G01*
X149625000Y-79420000D01*
G75*
G02*
X149760000Y-79555000I0J-135000D01*
G01*
X149760000Y-79925000D01*
G75*
G02*
X149625000Y-80060000I-135000J0D01*
G01*
X149355000Y-80060000D01*
G75*
G02*
X149220000Y-79925000I0J135000D01*
G01*
G37*
%TD*%
D12*
%TO.C,D1102*%
X155560000Y-101175000D03*
X155060000Y-99885000D03*
X154560000Y-101175000D03*
%TD*%
D13*
%TO.C,D1101*%
X149225000Y-81840000D03*
X150515000Y-81340000D03*
X149225000Y-80840000D03*
%TD*%
D14*
%TO.C,U201*%
X163072999Y-75080000D03*
D15*
X170572999Y-67580000D03*
X169302999Y-67580000D03*
X168032999Y-67580000D03*
X166762999Y-67580000D03*
X165492999Y-67580000D03*
X164222999Y-67580000D03*
X162952999Y-67580000D03*
X161682999Y-67580000D03*
X160412999Y-67580000D03*
X159142999Y-67580000D03*
X157872999Y-67580000D03*
X156602999Y-67580000D03*
X155332999Y-67580000D03*
X154062999Y-67580000D03*
D16*
X153062999Y-70365000D03*
X153062999Y-71635000D03*
X153062999Y-72905000D03*
X153062999Y-74175000D03*
X153062999Y-75445000D03*
X153062999Y-76715000D03*
X153062999Y-77985000D03*
X153062999Y-79255000D03*
X153062999Y-80525000D03*
X153062999Y-81795000D03*
D15*
X154062999Y-84580000D03*
X155332999Y-84580000D03*
X156602999Y-84580000D03*
X157872999Y-84580000D03*
X159142999Y-84580000D03*
X160412999Y-84580000D03*
X161682999Y-84580000D03*
X162952999Y-84580000D03*
X164222999Y-84580000D03*
X165492999Y-84580000D03*
X166762999Y-84580000D03*
X168032999Y-84580000D03*
X169302999Y-84580000D03*
X170572999Y-84580000D03*
%TD*%
%TO.C,R905*%
G36*
G01*
X132350002Y-106800000D02*
X131449998Y-106800000D01*
G75*
G02*
X131200000Y-106550002I0J249998D01*
G01*
X131200000Y-106024998D01*
G75*
G02*
X131449998Y-105775000I249998J0D01*
G01*
X132350002Y-105775000D01*
G75*
G02*
X132600000Y-106024998I0J-249998D01*
G01*
X132600000Y-106550002D01*
G75*
G02*
X132350002Y-106800000I-249998J0D01*
G01*
G37*
G36*
G01*
X132350002Y-108625000D02*
X131449998Y-108625000D01*
G75*
G02*
X131200000Y-108375002I0J249998D01*
G01*
X131200000Y-107849998D01*
G75*
G02*
X131449998Y-107600000I249998J0D01*
G01*
X132350002Y-107600000D01*
G75*
G02*
X132600000Y-107849998I0J-249998D01*
G01*
X132600000Y-108375002D01*
G75*
G02*
X132350002Y-108625000I-249998J0D01*
G01*
G37*
%TD*%
%TO.C,U401*%
G36*
G01*
X166976500Y-92864000D02*
X167276500Y-92864000D01*
G75*
G02*
X167426500Y-93014000I0J-150000D01*
G01*
X167426500Y-94664000D01*
G75*
G02*
X167276500Y-94814000I-150000J0D01*
G01*
X166976500Y-94814000D01*
G75*
G02*
X166826500Y-94664000I0J150000D01*
G01*
X166826500Y-93014000D01*
G75*
G02*
X166976500Y-92864000I150000J0D01*
G01*
G37*
G36*
G01*
X165706500Y-92864000D02*
X166006500Y-92864000D01*
G75*
G02*
X166156500Y-93014000I0J-150000D01*
G01*
X166156500Y-94664000D01*
G75*
G02*
X166006500Y-94814000I-150000J0D01*
G01*
X165706500Y-94814000D01*
G75*
G02*
X165556500Y-94664000I0J150000D01*
G01*
X165556500Y-93014000D01*
G75*
G02*
X165706500Y-92864000I150000J0D01*
G01*
G37*
G36*
G01*
X164436500Y-92864000D02*
X164736500Y-92864000D01*
G75*
G02*
X164886500Y-93014000I0J-150000D01*
G01*
X164886500Y-94664000D01*
G75*
G02*
X164736500Y-94814000I-150000J0D01*
G01*
X164436500Y-94814000D01*
G75*
G02*
X164286500Y-94664000I0J150000D01*
G01*
X164286500Y-93014000D01*
G75*
G02*
X164436500Y-92864000I150000J0D01*
G01*
G37*
G36*
G01*
X163166500Y-92864000D02*
X163466500Y-92864000D01*
G75*
G02*
X163616500Y-93014000I0J-150000D01*
G01*
X163616500Y-94664000D01*
G75*
G02*
X163466500Y-94814000I-150000J0D01*
G01*
X163166500Y-94814000D01*
G75*
G02*
X163016500Y-94664000I0J150000D01*
G01*
X163016500Y-93014000D01*
G75*
G02*
X163166500Y-92864000I150000J0D01*
G01*
G37*
G36*
G01*
X161896500Y-92864000D02*
X162196500Y-92864000D01*
G75*
G02*
X162346500Y-93014000I0J-150000D01*
G01*
X162346500Y-94664000D01*
G75*
G02*
X162196500Y-94814000I-150000J0D01*
G01*
X161896500Y-94814000D01*
G75*
G02*
X161746500Y-94664000I0J150000D01*
G01*
X161746500Y-93014000D01*
G75*
G02*
X161896500Y-92864000I150000J0D01*
G01*
G37*
G36*
G01*
X160626500Y-92864000D02*
X160926500Y-92864000D01*
G75*
G02*
X161076500Y-93014000I0J-150000D01*
G01*
X161076500Y-94664000D01*
G75*
G02*
X160926500Y-94814000I-150000J0D01*
G01*
X160626500Y-94814000D01*
G75*
G02*
X160476500Y-94664000I0J150000D01*
G01*
X160476500Y-93014000D01*
G75*
G02*
X160626500Y-92864000I150000J0D01*
G01*
G37*
G36*
G01*
X159356500Y-92864000D02*
X159656500Y-92864000D01*
G75*
G02*
X159806500Y-93014000I0J-150000D01*
G01*
X159806500Y-94664000D01*
G75*
G02*
X159656500Y-94814000I-150000J0D01*
G01*
X159356500Y-94814000D01*
G75*
G02*
X159206500Y-94664000I0J150000D01*
G01*
X159206500Y-93014000D01*
G75*
G02*
X159356500Y-92864000I150000J0D01*
G01*
G37*
G36*
G01*
X158086500Y-92864000D02*
X158386500Y-92864000D01*
G75*
G02*
X158536500Y-93014000I0J-150000D01*
G01*
X158536500Y-94664000D01*
G75*
G02*
X158386500Y-94814000I-150000J0D01*
G01*
X158086500Y-94814000D01*
G75*
G02*
X157936500Y-94664000I0J150000D01*
G01*
X157936500Y-93014000D01*
G75*
G02*
X158086500Y-92864000I150000J0D01*
G01*
G37*
G36*
G01*
X158086500Y-97814000D02*
X158386500Y-97814000D01*
G75*
G02*
X158536500Y-97964000I0J-150000D01*
G01*
X158536500Y-99614000D01*
G75*
G02*
X158386500Y-99764000I-150000J0D01*
G01*
X158086500Y-99764000D01*
G75*
G02*
X157936500Y-99614000I0J150000D01*
G01*
X157936500Y-97964000D01*
G75*
G02*
X158086500Y-97814000I150000J0D01*
G01*
G37*
G36*
G01*
X159356500Y-97814000D02*
X159656500Y-97814000D01*
G75*
G02*
X159806500Y-97964000I0J-150000D01*
G01*
X159806500Y-99614000D01*
G75*
G02*
X159656500Y-99764000I-150000J0D01*
G01*
X159356500Y-99764000D01*
G75*
G02*
X159206500Y-99614000I0J150000D01*
G01*
X159206500Y-97964000D01*
G75*
G02*
X159356500Y-97814000I150000J0D01*
G01*
G37*
G36*
G01*
X160626500Y-97814000D02*
X160926500Y-97814000D01*
G75*
G02*
X161076500Y-97964000I0J-150000D01*
G01*
X161076500Y-99614000D01*
G75*
G02*
X160926500Y-99764000I-150000J0D01*
G01*
X160626500Y-99764000D01*
G75*
G02*
X160476500Y-99614000I0J150000D01*
G01*
X160476500Y-97964000D01*
G75*
G02*
X160626500Y-97814000I150000J0D01*
G01*
G37*
G36*
G01*
X161896500Y-97814000D02*
X162196500Y-97814000D01*
G75*
G02*
X162346500Y-97964000I0J-150000D01*
G01*
X162346500Y-99614000D01*
G75*
G02*
X162196500Y-99764000I-150000J0D01*
G01*
X161896500Y-99764000D01*
G75*
G02*
X161746500Y-99614000I0J150000D01*
G01*
X161746500Y-97964000D01*
G75*
G02*
X161896500Y-97814000I150000J0D01*
G01*
G37*
G36*
G01*
X163166500Y-97814000D02*
X163466500Y-97814000D01*
G75*
G02*
X163616500Y-97964000I0J-150000D01*
G01*
X163616500Y-99614000D01*
G75*
G02*
X163466500Y-99764000I-150000J0D01*
G01*
X163166500Y-99764000D01*
G75*
G02*
X163016500Y-99614000I0J150000D01*
G01*
X163016500Y-97964000D01*
G75*
G02*
X163166500Y-97814000I150000J0D01*
G01*
G37*
G36*
G01*
X164436500Y-97814000D02*
X164736500Y-97814000D01*
G75*
G02*
X164886500Y-97964000I0J-150000D01*
G01*
X164886500Y-99614000D01*
G75*
G02*
X164736500Y-99764000I-150000J0D01*
G01*
X164436500Y-99764000D01*
G75*
G02*
X164286500Y-99614000I0J150000D01*
G01*
X164286500Y-97964000D01*
G75*
G02*
X164436500Y-97814000I150000J0D01*
G01*
G37*
G36*
G01*
X165706500Y-97814000D02*
X166006500Y-97814000D01*
G75*
G02*
X166156500Y-97964000I0J-150000D01*
G01*
X166156500Y-99614000D01*
G75*
G02*
X166006500Y-99764000I-150000J0D01*
G01*
X165706500Y-99764000D01*
G75*
G02*
X165556500Y-99614000I0J150000D01*
G01*
X165556500Y-97964000D01*
G75*
G02*
X165706500Y-97814000I150000J0D01*
G01*
G37*
G36*
G01*
X166976500Y-97814000D02*
X167276500Y-97814000D01*
G75*
G02*
X167426500Y-97964000I0J-150000D01*
G01*
X167426500Y-99614000D01*
G75*
G02*
X167276500Y-99764000I-150000J0D01*
G01*
X166976500Y-99764000D01*
G75*
G02*
X166826500Y-99614000I0J150000D01*
G01*
X166826500Y-97964000D01*
G75*
G02*
X166976500Y-97814000I150000J0D01*
G01*
G37*
%TD*%
%TO.C,C503*%
G36*
G01*
X168898250Y-103828000D02*
X169810750Y-103828000D01*
G75*
G02*
X170054500Y-104071750I0J-243750D01*
G01*
X170054500Y-104559250D01*
G75*
G02*
X169810750Y-104803000I-243750J0D01*
G01*
X168898250Y-104803000D01*
G75*
G02*
X168654500Y-104559250I0J243750D01*
G01*
X168654500Y-104071750D01*
G75*
G02*
X168898250Y-103828000I243750J0D01*
G01*
G37*
G36*
G01*
X168898250Y-101953000D02*
X169810750Y-101953000D01*
G75*
G02*
X170054500Y-102196750I0J-243750D01*
G01*
X170054500Y-102684250D01*
G75*
G02*
X169810750Y-102928000I-243750J0D01*
G01*
X168898250Y-102928000D01*
G75*
G02*
X168654500Y-102684250I0J243750D01*
G01*
X168654500Y-102196750D01*
G75*
G02*
X168898250Y-101953000I243750J0D01*
G01*
G37*
%TD*%
%TO.C,F401*%
G36*
G01*
X172138500Y-99809000D02*
X170888500Y-99809000D01*
G75*
G02*
X170638500Y-99559000I0J250000D01*
G01*
X170638500Y-98809000D01*
G75*
G02*
X170888500Y-98559000I250000J0D01*
G01*
X172138500Y-98559000D01*
G75*
G02*
X172388500Y-98809000I0J-250000D01*
G01*
X172388500Y-99559000D01*
G75*
G02*
X172138500Y-99809000I-250000J0D01*
G01*
G37*
G36*
G01*
X172138500Y-102609000D02*
X170888500Y-102609000D01*
G75*
G02*
X170638500Y-102359000I0J250000D01*
G01*
X170638500Y-101609000D01*
G75*
G02*
X170888500Y-101359000I250000J0D01*
G01*
X172138500Y-101359000D01*
G75*
G02*
X172388500Y-101609000I0J-250000D01*
G01*
X172388500Y-102359000D01*
G75*
G02*
X172138500Y-102609000I-250000J0D01*
G01*
G37*
%TD*%
D11*
%TO.C,D303*%
X96964500Y-100519500D03*
X96964500Y-97219500D03*
%TD*%
%TO.C,R1102*%
G36*
G01*
X127640000Y-87772500D02*
X127640000Y-87427500D01*
G75*
G02*
X127787500Y-87280000I147500J0D01*
G01*
X128082500Y-87280000D01*
G75*
G02*
X128230000Y-87427500I0J-147500D01*
G01*
X128230000Y-87772500D01*
G75*
G02*
X128082500Y-87920000I-147500J0D01*
G01*
X127787500Y-87920000D01*
G75*
G02*
X127640000Y-87772500I0J147500D01*
G01*
G37*
G36*
G01*
X126670000Y-87772500D02*
X126670000Y-87427500D01*
G75*
G02*
X126817500Y-87280000I147500J0D01*
G01*
X127112500Y-87280000D01*
G75*
G02*
X127260000Y-87427500I0J-147500D01*
G01*
X127260000Y-87772500D01*
G75*
G02*
X127112500Y-87920000I-147500J0D01*
G01*
X126817500Y-87920000D01*
G75*
G02*
X126670000Y-87772500I0J147500D01*
G01*
G37*
%TD*%
%TO.C,R1101*%
G36*
G01*
X128547500Y-91394500D02*
X128547500Y-91739500D01*
G75*
G02*
X128400000Y-91887000I-147500J0D01*
G01*
X128105000Y-91887000D01*
G75*
G02*
X127957500Y-91739500I0J147500D01*
G01*
X127957500Y-91394500D01*
G75*
G02*
X128105000Y-91247000I147500J0D01*
G01*
X128400000Y-91247000D01*
G75*
G02*
X128547500Y-91394500I0J-147500D01*
G01*
G37*
G36*
G01*
X129517500Y-91394500D02*
X129517500Y-91739500D01*
G75*
G02*
X129370000Y-91887000I-147500J0D01*
G01*
X129075000Y-91887000D01*
G75*
G02*
X128927500Y-91739500I0J147500D01*
G01*
X128927500Y-91394500D01*
G75*
G02*
X129075000Y-91247000I147500J0D01*
G01*
X129370000Y-91247000D01*
G75*
G02*
X129517500Y-91394500I0J-147500D01*
G01*
G37*
%TD*%
D17*
%TO.C,Q1102*%
X127193000Y-90185000D03*
X127193000Y-88885000D03*
X129093000Y-89535000D03*
X127193000Y-89535000D03*
X129093000Y-88885000D03*
X129093000Y-90185000D03*
%TD*%
D18*
%TO.C,Q1101*%
X124587000Y-90281000D03*
X123637000Y-88281000D03*
X125537000Y-88281000D03*
%TD*%
%TO.C,FB401*%
G36*
G01*
X168898250Y-98460500D02*
X169810750Y-98460500D01*
G75*
G02*
X170054500Y-98704250I0J-243750D01*
G01*
X170054500Y-99191750D01*
G75*
G02*
X169810750Y-99435500I-243750J0D01*
G01*
X168898250Y-99435500D01*
G75*
G02*
X168654500Y-99191750I0J243750D01*
G01*
X168654500Y-98704250D01*
G75*
G02*
X168898250Y-98460500I243750J0D01*
G01*
G37*
G36*
G01*
X168898250Y-100335500D02*
X169810750Y-100335500D01*
G75*
G02*
X170054500Y-100579250I0J-243750D01*
G01*
X170054500Y-101066750D01*
G75*
G02*
X169810750Y-101310500I-243750J0D01*
G01*
X168898250Y-101310500D01*
G75*
G02*
X168654500Y-101066750I0J243750D01*
G01*
X168654500Y-100579250D01*
G75*
G02*
X168898250Y-100335500I243750J0D01*
G01*
G37*
%TD*%
D19*
%TO.C,U402*%
X170491000Y-95956500D03*
D20*
X170528500Y-96456500D03*
D19*
X170491000Y-95456500D03*
X170491000Y-96956500D03*
X171266000Y-95456500D03*
X171266000Y-95956500D03*
X170491000Y-97456500D03*
D21*
X171291000Y-96456500D03*
D19*
X171266000Y-97456500D03*
X171266000Y-96956500D03*
%TD*%
D22*
%TO.C,U701*%
X146950000Y-96187500D03*
X146450000Y-96187500D03*
D23*
X147450000Y-96212500D03*
D22*
X146450000Y-95412500D03*
X147950000Y-96187500D03*
X148450000Y-96187500D03*
X146950000Y-95412500D03*
X148450000Y-95412500D03*
D24*
X147450000Y-95450000D03*
D22*
X147950000Y-95412500D03*
%TD*%
%TO.C,U902*%
G36*
G01*
X134516000Y-95796000D02*
X134216000Y-95796000D01*
G75*
G02*
X134066000Y-95646000I0J150000D01*
G01*
X134066000Y-94321000D01*
G75*
G02*
X134216000Y-94171000I150000J0D01*
G01*
X134516000Y-94171000D01*
G75*
G02*
X134666000Y-94321000I0J-150000D01*
G01*
X134666000Y-95646000D01*
G75*
G02*
X134516000Y-95796000I-150000J0D01*
G01*
G37*
G36*
G01*
X135786000Y-95796000D02*
X135486000Y-95796000D01*
G75*
G02*
X135336000Y-95646000I0J150000D01*
G01*
X135336000Y-94321000D01*
G75*
G02*
X135486000Y-94171000I150000J0D01*
G01*
X135786000Y-94171000D01*
G75*
G02*
X135936000Y-94321000I0J-150000D01*
G01*
X135936000Y-95646000D01*
G75*
G02*
X135786000Y-95796000I-150000J0D01*
G01*
G37*
G36*
G01*
X135786000Y-102171000D02*
X135486000Y-102171000D01*
G75*
G02*
X135336000Y-102021000I0J150000D01*
G01*
X135336000Y-100696000D01*
G75*
G02*
X135486000Y-100546000I150000J0D01*
G01*
X135786000Y-100546000D01*
G75*
G02*
X135936000Y-100696000I0J-150000D01*
G01*
X135936000Y-102021000D01*
G75*
G02*
X135786000Y-102171000I-150000J0D01*
G01*
G37*
G36*
G01*
X134516000Y-102171000D02*
X134216000Y-102171000D01*
G75*
G02*
X134066000Y-102021000I0J150000D01*
G01*
X134066000Y-100696000D01*
G75*
G02*
X134216000Y-100546000I150000J0D01*
G01*
X134516000Y-100546000D01*
G75*
G02*
X134666000Y-100696000I0J-150000D01*
G01*
X134666000Y-102021000D01*
G75*
G02*
X134516000Y-102171000I-150000J0D01*
G01*
G37*
%TD*%
%TO.C,U901*%
G36*
G01*
X138788000Y-100546000D02*
X139088000Y-100546000D01*
G75*
G02*
X139238000Y-100696000I0J-150000D01*
G01*
X139238000Y-102021000D01*
G75*
G02*
X139088000Y-102171000I-150000J0D01*
G01*
X138788000Y-102171000D01*
G75*
G02*
X138638000Y-102021000I0J150000D01*
G01*
X138638000Y-100696000D01*
G75*
G02*
X138788000Y-100546000I150000J0D01*
G01*
G37*
G36*
G01*
X137518000Y-100546000D02*
X137818000Y-100546000D01*
G75*
G02*
X137968000Y-100696000I0J-150000D01*
G01*
X137968000Y-102021000D01*
G75*
G02*
X137818000Y-102171000I-150000J0D01*
G01*
X137518000Y-102171000D01*
G75*
G02*
X137368000Y-102021000I0J150000D01*
G01*
X137368000Y-100696000D01*
G75*
G02*
X137518000Y-100546000I150000J0D01*
G01*
G37*
G36*
G01*
X137518000Y-94171000D02*
X137818000Y-94171000D01*
G75*
G02*
X137968000Y-94321000I0J-150000D01*
G01*
X137968000Y-95646000D01*
G75*
G02*
X137818000Y-95796000I-150000J0D01*
G01*
X137518000Y-95796000D01*
G75*
G02*
X137368000Y-95646000I0J150000D01*
G01*
X137368000Y-94321000D01*
G75*
G02*
X137518000Y-94171000I150000J0D01*
G01*
G37*
G36*
G01*
X138788000Y-94171000D02*
X139088000Y-94171000D01*
G75*
G02*
X139238000Y-94321000I0J-150000D01*
G01*
X139238000Y-95646000D01*
G75*
G02*
X139088000Y-95796000I-150000J0D01*
G01*
X138788000Y-95796000D01*
G75*
G02*
X138638000Y-95646000I0J150000D01*
G01*
X138638000Y-94321000D01*
G75*
G02*
X138788000Y-94171000I150000J0D01*
G01*
G37*
%TD*%
%TO.C,R904*%
G36*
G01*
X133987250Y-106711000D02*
X133474750Y-106711000D01*
G75*
G02*
X133256000Y-106492250I0J218750D01*
G01*
X133256000Y-106054750D01*
G75*
G02*
X133474750Y-105836000I218750J0D01*
G01*
X133987250Y-105836000D01*
G75*
G02*
X134206000Y-106054750I0J-218750D01*
G01*
X134206000Y-106492250D01*
G75*
G02*
X133987250Y-106711000I-218750J0D01*
G01*
G37*
G36*
G01*
X133987250Y-108286000D02*
X133474750Y-108286000D01*
G75*
G02*
X133256000Y-108067250I0J218750D01*
G01*
X133256000Y-107629750D01*
G75*
G02*
X133474750Y-107411000I218750J0D01*
G01*
X133987250Y-107411000D01*
G75*
G02*
X134206000Y-107629750I0J-218750D01*
G01*
X134206000Y-108067250D01*
G75*
G02*
X133987250Y-108286000I-218750J0D01*
G01*
G37*
%TD*%
%TO.C,R903*%
G36*
G01*
X140939000Y-105920250D02*
X140939000Y-105407750D01*
G75*
G02*
X141157750Y-105189000I218750J0D01*
G01*
X141595250Y-105189000D01*
G75*
G02*
X141814000Y-105407750I0J-218750D01*
G01*
X141814000Y-105920250D01*
G75*
G02*
X141595250Y-106139000I-218750J0D01*
G01*
X141157750Y-106139000D01*
G75*
G02*
X140939000Y-105920250I0J218750D01*
G01*
G37*
G36*
G01*
X139364000Y-105920250D02*
X139364000Y-105407750D01*
G75*
G02*
X139582750Y-105189000I218750J0D01*
G01*
X140020250Y-105189000D01*
G75*
G02*
X140239000Y-105407750I0J-218750D01*
G01*
X140239000Y-105920250D01*
G75*
G02*
X140020250Y-106139000I-218750J0D01*
G01*
X139582750Y-106139000D01*
G75*
G02*
X139364000Y-105920250I0J218750D01*
G01*
G37*
%TD*%
D25*
%TO.C,D902*%
X135893000Y-103886000D03*
X133093000Y-103886000D03*
%TD*%
%TO.C,D901*%
X138207000Y-108028000D03*
X135407000Y-108028000D03*
%TD*%
%TO.C,R902*%
G36*
G01*
X130714000Y-93342750D02*
X130714000Y-93855250D01*
G75*
G02*
X130495250Y-94074000I-218750J0D01*
G01*
X130057750Y-94074000D01*
G75*
G02*
X129839000Y-93855250I0J218750D01*
G01*
X129839000Y-93342750D01*
G75*
G02*
X130057750Y-93124000I218750J0D01*
G01*
X130495250Y-93124000D01*
G75*
G02*
X130714000Y-93342750I0J-218750D01*
G01*
G37*
G36*
G01*
X132289000Y-93342750D02*
X132289000Y-93855250D01*
G75*
G02*
X132070250Y-94074000I-218750J0D01*
G01*
X131632750Y-94074000D01*
G75*
G02*
X131414000Y-93855250I0J218750D01*
G01*
X131414000Y-93342750D01*
G75*
G02*
X131632750Y-93124000I218750J0D01*
G01*
X132070250Y-93124000D01*
G75*
G02*
X132289000Y-93342750I0J-218750D01*
G01*
G37*
%TD*%
%TO.C,C1028*%
G36*
G01*
X94494000Y-65782500D02*
X94494000Y-66127500D01*
G75*
G02*
X94346500Y-66275000I-147500J0D01*
G01*
X94051500Y-66275000D01*
G75*
G02*
X93904000Y-66127500I0J147500D01*
G01*
X93904000Y-65782500D01*
G75*
G02*
X94051500Y-65635000I147500J0D01*
G01*
X94346500Y-65635000D01*
G75*
G02*
X94494000Y-65782500I0J-147500D01*
G01*
G37*
G36*
G01*
X95464000Y-65782500D02*
X95464000Y-66127500D01*
G75*
G02*
X95316500Y-66275000I-147500J0D01*
G01*
X95021500Y-66275000D01*
G75*
G02*
X94874000Y-66127500I0J147500D01*
G01*
X94874000Y-65782500D01*
G75*
G02*
X95021500Y-65635000I147500J0D01*
G01*
X95316500Y-65635000D01*
G75*
G02*
X95464000Y-65782500I0J-147500D01*
G01*
G37*
%TD*%
%TO.C,C1027*%
G36*
G01*
X93379500Y-68525000D02*
X93034500Y-68525000D01*
G75*
G02*
X92887000Y-68377500I0J147500D01*
G01*
X92887000Y-68082500D01*
G75*
G02*
X93034500Y-67935000I147500J0D01*
G01*
X93379500Y-67935000D01*
G75*
G02*
X93527000Y-68082500I0J-147500D01*
G01*
X93527000Y-68377500D01*
G75*
G02*
X93379500Y-68525000I-147500J0D01*
G01*
G37*
G36*
G01*
X93379500Y-69495000D02*
X93034500Y-69495000D01*
G75*
G02*
X92887000Y-69347500I0J147500D01*
G01*
X92887000Y-69052500D01*
G75*
G02*
X93034500Y-68905000I147500J0D01*
G01*
X93379500Y-68905000D01*
G75*
G02*
X93527000Y-69052500I0J-147500D01*
G01*
X93527000Y-69347500D01*
G75*
G02*
X93379500Y-69495000I-147500J0D01*
G01*
G37*
%TD*%
%TO.C,C1026*%
G36*
G01*
X100555000Y-102955500D02*
X100900000Y-102955500D01*
G75*
G02*
X101047500Y-103103000I0J-147500D01*
G01*
X101047500Y-103398000D01*
G75*
G02*
X100900000Y-103545500I-147500J0D01*
G01*
X100555000Y-103545500D01*
G75*
G02*
X100407500Y-103398000I0J147500D01*
G01*
X100407500Y-103103000D01*
G75*
G02*
X100555000Y-102955500I147500J0D01*
G01*
G37*
G36*
G01*
X100555000Y-101985500D02*
X100900000Y-101985500D01*
G75*
G02*
X101047500Y-102133000I0J-147500D01*
G01*
X101047500Y-102428000D01*
G75*
G02*
X100900000Y-102575500I-147500J0D01*
G01*
X100555000Y-102575500D01*
G75*
G02*
X100407500Y-102428000I0J147500D01*
G01*
X100407500Y-102133000D01*
G75*
G02*
X100555000Y-101985500I147500J0D01*
G01*
G37*
%TD*%
%TO.C,C1025*%
G36*
G01*
X114877500Y-59040000D02*
X115222500Y-59040000D01*
G75*
G02*
X115370000Y-59187500I0J-147500D01*
G01*
X115370000Y-59482500D01*
G75*
G02*
X115222500Y-59630000I-147500J0D01*
G01*
X114877500Y-59630000D01*
G75*
G02*
X114730000Y-59482500I0J147500D01*
G01*
X114730000Y-59187500D01*
G75*
G02*
X114877500Y-59040000I147500J0D01*
G01*
G37*
G36*
G01*
X114877500Y-58070000D02*
X115222500Y-58070000D01*
G75*
G02*
X115370000Y-58217500I0J-147500D01*
G01*
X115370000Y-58512500D01*
G75*
G02*
X115222500Y-58660000I-147500J0D01*
G01*
X114877500Y-58660000D01*
G75*
G02*
X114730000Y-58512500I0J147500D01*
G01*
X114730000Y-58217500D01*
G75*
G02*
X114877500Y-58070000I147500J0D01*
G01*
G37*
%TD*%
%TO.C,C1024*%
G36*
G01*
X172003500Y-92901000D02*
X171658500Y-92901000D01*
G75*
G02*
X171511000Y-92753500I0J147500D01*
G01*
X171511000Y-92458500D01*
G75*
G02*
X171658500Y-92311000I147500J0D01*
G01*
X172003500Y-92311000D01*
G75*
G02*
X172151000Y-92458500I0J-147500D01*
G01*
X172151000Y-92753500D01*
G75*
G02*
X172003500Y-92901000I-147500J0D01*
G01*
G37*
G36*
G01*
X172003500Y-93871000D02*
X171658500Y-93871000D01*
G75*
G02*
X171511000Y-93723500I0J147500D01*
G01*
X171511000Y-93428500D01*
G75*
G02*
X171658500Y-93281000I147500J0D01*
G01*
X172003500Y-93281000D01*
G75*
G02*
X172151000Y-93428500I0J-147500D01*
G01*
X172151000Y-93723500D01*
G75*
G02*
X172003500Y-93871000I-147500J0D01*
G01*
G37*
%TD*%
%TO.C,C1023*%
G36*
G01*
X126048000Y-91585000D02*
X126048000Y-91930000D01*
G75*
G02*
X125900500Y-92077500I-147500J0D01*
G01*
X125605500Y-92077500D01*
G75*
G02*
X125458000Y-91930000I0J147500D01*
G01*
X125458000Y-91585000D01*
G75*
G02*
X125605500Y-91437500I147500J0D01*
G01*
X125900500Y-91437500D01*
G75*
G02*
X126048000Y-91585000I0J-147500D01*
G01*
G37*
G36*
G01*
X127018000Y-91585000D02*
X127018000Y-91930000D01*
G75*
G02*
X126870500Y-92077500I-147500J0D01*
G01*
X126575500Y-92077500D01*
G75*
G02*
X126428000Y-91930000I0J147500D01*
G01*
X126428000Y-91585000D01*
G75*
G02*
X126575500Y-91437500I147500J0D01*
G01*
X126870500Y-91437500D01*
G75*
G02*
X127018000Y-91585000I0J-147500D01*
G01*
G37*
%TD*%
%TO.C,C1021*%
G36*
G01*
X96357000Y-86333500D02*
X96357000Y-85988500D01*
G75*
G02*
X96504500Y-85841000I147500J0D01*
G01*
X96799500Y-85841000D01*
G75*
G02*
X96947000Y-85988500I0J-147500D01*
G01*
X96947000Y-86333500D01*
G75*
G02*
X96799500Y-86481000I-147500J0D01*
G01*
X96504500Y-86481000D01*
G75*
G02*
X96357000Y-86333500I0J147500D01*
G01*
G37*
G36*
G01*
X95387000Y-86333500D02*
X95387000Y-85988500D01*
G75*
G02*
X95534500Y-85841000I147500J0D01*
G01*
X95829500Y-85841000D01*
G75*
G02*
X95977000Y-85988500I0J-147500D01*
G01*
X95977000Y-86333500D01*
G75*
G02*
X95829500Y-86481000I-147500J0D01*
G01*
X95534500Y-86481000D01*
G75*
G02*
X95387000Y-86333500I0J147500D01*
G01*
G37*
%TD*%
%TO.C,C1020*%
G36*
G01*
X166390000Y-100672500D02*
X166390000Y-100327500D01*
G75*
G02*
X166537500Y-100180000I147500J0D01*
G01*
X166832500Y-100180000D01*
G75*
G02*
X166980000Y-100327500I0J-147500D01*
G01*
X166980000Y-100672500D01*
G75*
G02*
X166832500Y-100820000I-147500J0D01*
G01*
X166537500Y-100820000D01*
G75*
G02*
X166390000Y-100672500I0J147500D01*
G01*
G37*
G36*
G01*
X165420000Y-100672500D02*
X165420000Y-100327500D01*
G75*
G02*
X165567500Y-100180000I147500J0D01*
G01*
X165862500Y-100180000D01*
G75*
G02*
X166010000Y-100327500I0J-147500D01*
G01*
X166010000Y-100672500D01*
G75*
G02*
X165862500Y-100820000I-147500J0D01*
G01*
X165567500Y-100820000D01*
G75*
G02*
X165420000Y-100672500I0J147500D01*
G01*
G37*
%TD*%
%TO.C,C1019*%
G36*
G01*
X93426500Y-81195000D02*
X93081500Y-81195000D01*
G75*
G02*
X92934000Y-81047500I0J147500D01*
G01*
X92934000Y-80752500D01*
G75*
G02*
X93081500Y-80605000I147500J0D01*
G01*
X93426500Y-80605000D01*
G75*
G02*
X93574000Y-80752500I0J-147500D01*
G01*
X93574000Y-81047500D01*
G75*
G02*
X93426500Y-81195000I-147500J0D01*
G01*
G37*
G36*
G01*
X93426500Y-82165000D02*
X93081500Y-82165000D01*
G75*
G02*
X92934000Y-82017500I0J147500D01*
G01*
X92934000Y-81722500D01*
G75*
G02*
X93081500Y-81575000I147500J0D01*
G01*
X93426500Y-81575000D01*
G75*
G02*
X93574000Y-81722500I0J-147500D01*
G01*
X93574000Y-82017500D01*
G75*
G02*
X93426500Y-82165000I-147500J0D01*
G01*
G37*
%TD*%
%TO.C,C1018*%
G36*
G01*
X93401500Y-73455000D02*
X93056500Y-73455000D01*
G75*
G02*
X92909000Y-73307500I0J147500D01*
G01*
X92909000Y-73012500D01*
G75*
G02*
X93056500Y-72865000I147500J0D01*
G01*
X93401500Y-72865000D01*
G75*
G02*
X93549000Y-73012500I0J-147500D01*
G01*
X93549000Y-73307500D01*
G75*
G02*
X93401500Y-73455000I-147500J0D01*
G01*
G37*
G36*
G01*
X93401500Y-74425000D02*
X93056500Y-74425000D01*
G75*
G02*
X92909000Y-74277500I0J147500D01*
G01*
X92909000Y-73982500D01*
G75*
G02*
X93056500Y-73835000I147500J0D01*
G01*
X93401500Y-73835000D01*
G75*
G02*
X93549000Y-73982500I0J-147500D01*
G01*
X93549000Y-74277500D01*
G75*
G02*
X93401500Y-74425000I-147500J0D01*
G01*
G37*
%TD*%
%TO.C,C1017*%
G36*
G01*
X104085000Y-63673500D02*
X104085000Y-64018500D01*
G75*
G02*
X103937500Y-64166000I-147500J0D01*
G01*
X103642500Y-64166000D01*
G75*
G02*
X103495000Y-64018500I0J147500D01*
G01*
X103495000Y-63673500D01*
G75*
G02*
X103642500Y-63526000I147500J0D01*
G01*
X103937500Y-63526000D01*
G75*
G02*
X104085000Y-63673500I0J-147500D01*
G01*
G37*
G36*
G01*
X105055000Y-63673500D02*
X105055000Y-64018500D01*
G75*
G02*
X104907500Y-64166000I-147500J0D01*
G01*
X104612500Y-64166000D01*
G75*
G02*
X104465000Y-64018500I0J147500D01*
G01*
X104465000Y-63673500D01*
G75*
G02*
X104612500Y-63526000I147500J0D01*
G01*
X104907500Y-63526000D01*
G75*
G02*
X105055000Y-63673500I0J-147500D01*
G01*
G37*
%TD*%
%TO.C,C1016*%
G36*
G01*
X151385000Y-95811500D02*
X151385000Y-95466500D01*
G75*
G02*
X151532500Y-95319000I147500J0D01*
G01*
X151827500Y-95319000D01*
G75*
G02*
X151975000Y-95466500I0J-147500D01*
G01*
X151975000Y-95811500D01*
G75*
G02*
X151827500Y-95959000I-147500J0D01*
G01*
X151532500Y-95959000D01*
G75*
G02*
X151385000Y-95811500I0J147500D01*
G01*
G37*
G36*
G01*
X150415000Y-95811500D02*
X150415000Y-95466500D01*
G75*
G02*
X150562500Y-95319000I147500J0D01*
G01*
X150857500Y-95319000D01*
G75*
G02*
X151005000Y-95466500I0J-147500D01*
G01*
X151005000Y-95811500D01*
G75*
G02*
X150857500Y-95959000I-147500J0D01*
G01*
X150562500Y-95959000D01*
G75*
G02*
X150415000Y-95811500I0J147500D01*
G01*
G37*
%TD*%
%TO.C,C1015*%
G36*
G01*
X154535000Y-63932500D02*
X154535000Y-63587500D01*
G75*
G02*
X154682500Y-63440000I147500J0D01*
G01*
X154977500Y-63440000D01*
G75*
G02*
X155125000Y-63587500I0J-147500D01*
G01*
X155125000Y-63932500D01*
G75*
G02*
X154977500Y-64080000I-147500J0D01*
G01*
X154682500Y-64080000D01*
G75*
G02*
X154535000Y-63932500I0J147500D01*
G01*
G37*
G36*
G01*
X153565000Y-63932500D02*
X153565000Y-63587500D01*
G75*
G02*
X153712500Y-63440000I147500J0D01*
G01*
X154007500Y-63440000D01*
G75*
G02*
X154155000Y-63587500I0J-147500D01*
G01*
X154155000Y-63932500D01*
G75*
G02*
X154007500Y-64080000I-147500J0D01*
G01*
X153712500Y-64080000D01*
G75*
G02*
X153565000Y-63932500I0J147500D01*
G01*
G37*
%TD*%
%TO.C,C1014*%
G36*
G01*
X169887500Y-64450000D02*
X170232500Y-64450000D01*
G75*
G02*
X170380000Y-64597500I0J-147500D01*
G01*
X170380000Y-64892500D01*
G75*
G02*
X170232500Y-65040000I-147500J0D01*
G01*
X169887500Y-65040000D01*
G75*
G02*
X169740000Y-64892500I0J147500D01*
G01*
X169740000Y-64597500D01*
G75*
G02*
X169887500Y-64450000I147500J0D01*
G01*
G37*
G36*
G01*
X169887500Y-63480000D02*
X170232500Y-63480000D01*
G75*
G02*
X170380000Y-63627500I0J-147500D01*
G01*
X170380000Y-63922500D01*
G75*
G02*
X170232500Y-64070000I-147500J0D01*
G01*
X169887500Y-64070000D01*
G75*
G02*
X169740000Y-63922500I0J147500D01*
G01*
X169740000Y-63627500D01*
G75*
G02*
X169887500Y-63480000I147500J0D01*
G01*
G37*
%TD*%
%TO.C,C1013*%
G36*
G01*
X121332500Y-64250000D02*
X120987500Y-64250000D01*
G75*
G02*
X120840000Y-64102500I0J147500D01*
G01*
X120840000Y-63807500D01*
G75*
G02*
X120987500Y-63660000I147500J0D01*
G01*
X121332500Y-63660000D01*
G75*
G02*
X121480000Y-63807500I0J-147500D01*
G01*
X121480000Y-64102500D01*
G75*
G02*
X121332500Y-64250000I-147500J0D01*
G01*
G37*
G36*
G01*
X121332500Y-65220000D02*
X120987500Y-65220000D01*
G75*
G02*
X120840000Y-65072500I0J147500D01*
G01*
X120840000Y-64777500D01*
G75*
G02*
X120987500Y-64630000I147500J0D01*
G01*
X121332500Y-64630000D01*
G75*
G02*
X121480000Y-64777500I0J-147500D01*
G01*
X121480000Y-65072500D01*
G75*
G02*
X121332500Y-65220000I-147500J0D01*
G01*
G37*
%TD*%
%TO.C,C1012*%
G36*
G01*
X162120000Y-63972500D02*
X162120000Y-63627500D01*
G75*
G02*
X162267500Y-63480000I147500J0D01*
G01*
X162562500Y-63480000D01*
G75*
G02*
X162710000Y-63627500I0J-147500D01*
G01*
X162710000Y-63972500D01*
G75*
G02*
X162562500Y-64120000I-147500J0D01*
G01*
X162267500Y-64120000D01*
G75*
G02*
X162120000Y-63972500I0J147500D01*
G01*
G37*
G36*
G01*
X161150000Y-63972500D02*
X161150000Y-63627500D01*
G75*
G02*
X161297500Y-63480000I147500J0D01*
G01*
X161592500Y-63480000D01*
G75*
G02*
X161740000Y-63627500I0J-147500D01*
G01*
X161740000Y-63972500D01*
G75*
G02*
X161592500Y-64120000I-147500J0D01*
G01*
X161297500Y-64120000D01*
G75*
G02*
X161150000Y-63972500I0J147500D01*
G01*
G37*
%TD*%
%TO.C,C1011*%
G36*
G01*
X149187500Y-77820000D02*
X149532500Y-77820000D01*
G75*
G02*
X149680000Y-77967500I0J-147500D01*
G01*
X149680000Y-78262500D01*
G75*
G02*
X149532500Y-78410000I-147500J0D01*
G01*
X149187500Y-78410000D01*
G75*
G02*
X149040000Y-78262500I0J147500D01*
G01*
X149040000Y-77967500D01*
G75*
G02*
X149187500Y-77820000I147500J0D01*
G01*
G37*
G36*
G01*
X149187500Y-76850000D02*
X149532500Y-76850000D01*
G75*
G02*
X149680000Y-76997500I0J-147500D01*
G01*
X149680000Y-77292500D01*
G75*
G02*
X149532500Y-77440000I-147500J0D01*
G01*
X149187500Y-77440000D01*
G75*
G02*
X149040000Y-77292500I0J147500D01*
G01*
X149040000Y-76997500D01*
G75*
G02*
X149187500Y-76850000I147500J0D01*
G01*
G37*
%TD*%
%TO.C,C1010*%
G36*
G01*
X149267500Y-70900000D02*
X149612500Y-70900000D01*
G75*
G02*
X149760000Y-71047500I0J-147500D01*
G01*
X149760000Y-71342500D01*
G75*
G02*
X149612500Y-71490000I-147500J0D01*
G01*
X149267500Y-71490000D01*
G75*
G02*
X149120000Y-71342500I0J147500D01*
G01*
X149120000Y-71047500D01*
G75*
G02*
X149267500Y-70900000I147500J0D01*
G01*
G37*
G36*
G01*
X149267500Y-69930000D02*
X149612500Y-69930000D01*
G75*
G02*
X149760000Y-70077500I0J-147500D01*
G01*
X149760000Y-70372500D01*
G75*
G02*
X149612500Y-70520000I-147500J0D01*
G01*
X149267500Y-70520000D01*
G75*
G02*
X149120000Y-70372500I0J147500D01*
G01*
X149120000Y-70077500D01*
G75*
G02*
X149267500Y-69930000I147500J0D01*
G01*
G37*
%TD*%
%TO.C,C1009*%
G36*
G01*
X163416500Y-88413000D02*
X163761500Y-88413000D01*
G75*
G02*
X163909000Y-88560500I0J-147500D01*
G01*
X163909000Y-88855500D01*
G75*
G02*
X163761500Y-89003000I-147500J0D01*
G01*
X163416500Y-89003000D01*
G75*
G02*
X163269000Y-88855500I0J147500D01*
G01*
X163269000Y-88560500D01*
G75*
G02*
X163416500Y-88413000I147500J0D01*
G01*
G37*
G36*
G01*
X163416500Y-87443000D02*
X163761500Y-87443000D01*
G75*
G02*
X163909000Y-87590500I0J-147500D01*
G01*
X163909000Y-87885500D01*
G75*
G02*
X163761500Y-88033000I-147500J0D01*
G01*
X163416500Y-88033000D01*
G75*
G02*
X163269000Y-87885500I0J147500D01*
G01*
X163269000Y-87590500D01*
G75*
G02*
X163416500Y-87443000I147500J0D01*
G01*
G37*
%TD*%
%TO.C,C1008*%
G36*
G01*
X170388500Y-87312000D02*
X170733500Y-87312000D01*
G75*
G02*
X170881000Y-87459500I0J-147500D01*
G01*
X170881000Y-87754500D01*
G75*
G02*
X170733500Y-87902000I-147500J0D01*
G01*
X170388500Y-87902000D01*
G75*
G02*
X170241000Y-87754500I0J147500D01*
G01*
X170241000Y-87459500D01*
G75*
G02*
X170388500Y-87312000I147500J0D01*
G01*
G37*
G36*
G01*
X170388500Y-86342000D02*
X170733500Y-86342000D01*
G75*
G02*
X170881000Y-86489500I0J-147500D01*
G01*
X170881000Y-86784500D01*
G75*
G02*
X170733500Y-86932000I-147500J0D01*
G01*
X170388500Y-86932000D01*
G75*
G02*
X170241000Y-86784500I0J147500D01*
G01*
X170241000Y-86489500D01*
G75*
G02*
X170388500Y-86342000I147500J0D01*
G01*
G37*
%TD*%
%TO.C,C1007*%
G36*
G01*
X143517500Y-102964000D02*
X143172500Y-102964000D01*
G75*
G02*
X143025000Y-102816500I0J147500D01*
G01*
X143025000Y-102521500D01*
G75*
G02*
X143172500Y-102374000I147500J0D01*
G01*
X143517500Y-102374000D01*
G75*
G02*
X143665000Y-102521500I0J-147500D01*
G01*
X143665000Y-102816500D01*
G75*
G02*
X143517500Y-102964000I-147500J0D01*
G01*
G37*
G36*
G01*
X143517500Y-101994000D02*
X143172500Y-101994000D01*
G75*
G02*
X143025000Y-101846500I0J147500D01*
G01*
X143025000Y-101551500D01*
G75*
G02*
X143172500Y-101404000I147500J0D01*
G01*
X143517500Y-101404000D01*
G75*
G02*
X143665000Y-101551500I0J-147500D01*
G01*
X143665000Y-101846500D01*
G75*
G02*
X143517500Y-101994000I-147500J0D01*
G01*
G37*
%TD*%
%TO.C,C1006*%
G36*
G01*
X171640000Y-103804500D02*
X171640000Y-103459500D01*
G75*
G02*
X171787500Y-103312000I147500J0D01*
G01*
X172082500Y-103312000D01*
G75*
G02*
X172230000Y-103459500I0J-147500D01*
G01*
X172230000Y-103804500D01*
G75*
G02*
X172082500Y-103952000I-147500J0D01*
G01*
X171787500Y-103952000D01*
G75*
G02*
X171640000Y-103804500I0J147500D01*
G01*
G37*
G36*
G01*
X170670000Y-103804500D02*
X170670000Y-103459500D01*
G75*
G02*
X170817500Y-103312000I147500J0D01*
G01*
X171112500Y-103312000D01*
G75*
G02*
X171260000Y-103459500I0J-147500D01*
G01*
X171260000Y-103804500D01*
G75*
G02*
X171112500Y-103952000I-147500J0D01*
G01*
X170817500Y-103952000D01*
G75*
G02*
X170670000Y-103804500I0J147500D01*
G01*
G37*
%TD*%
%TO.C,C1005*%
G36*
G01*
X154760000Y-112777500D02*
X154760000Y-113122500D01*
G75*
G02*
X154612500Y-113270000I-147500J0D01*
G01*
X154317500Y-113270000D01*
G75*
G02*
X154170000Y-113122500I0J147500D01*
G01*
X154170000Y-112777500D01*
G75*
G02*
X154317500Y-112630000I147500J0D01*
G01*
X154612500Y-112630000D01*
G75*
G02*
X154760000Y-112777500I0J-147500D01*
G01*
G37*
G36*
G01*
X155730000Y-112777500D02*
X155730000Y-113122500D01*
G75*
G02*
X155582500Y-113270000I-147500J0D01*
G01*
X155287500Y-113270000D01*
G75*
G02*
X155140000Y-113122500I0J147500D01*
G01*
X155140000Y-112777500D01*
G75*
G02*
X155287500Y-112630000I147500J0D01*
G01*
X155582500Y-112630000D01*
G75*
G02*
X155730000Y-112777500I0J-147500D01*
G01*
G37*
%TD*%
%TO.C,C1004*%
G36*
G01*
X141047000Y-89364500D02*
X141047000Y-89019500D01*
G75*
G02*
X141194500Y-88872000I147500J0D01*
G01*
X141489500Y-88872000D01*
G75*
G02*
X141637000Y-89019500I0J-147500D01*
G01*
X141637000Y-89364500D01*
G75*
G02*
X141489500Y-89512000I-147500J0D01*
G01*
X141194500Y-89512000D01*
G75*
G02*
X141047000Y-89364500I0J147500D01*
G01*
G37*
G36*
G01*
X140077000Y-89364500D02*
X140077000Y-89019500D01*
G75*
G02*
X140224500Y-88872000I147500J0D01*
G01*
X140519500Y-88872000D01*
G75*
G02*
X140667000Y-89019500I0J-147500D01*
G01*
X140667000Y-89364500D01*
G75*
G02*
X140519500Y-89512000I-147500J0D01*
G01*
X140224500Y-89512000D01*
G75*
G02*
X140077000Y-89364500I0J147500D01*
G01*
G37*
%TD*%
%TO.C,C1003*%
G36*
G01*
X142392000Y-95220500D02*
X142392000Y-95565500D01*
G75*
G02*
X142244500Y-95713000I-147500J0D01*
G01*
X141949500Y-95713000D01*
G75*
G02*
X141802000Y-95565500I0J147500D01*
G01*
X141802000Y-95220500D01*
G75*
G02*
X141949500Y-95073000I147500J0D01*
G01*
X142244500Y-95073000D01*
G75*
G02*
X142392000Y-95220500I0J-147500D01*
G01*
G37*
G36*
G01*
X143362000Y-95220500D02*
X143362000Y-95565500D01*
G75*
G02*
X143214500Y-95713000I-147500J0D01*
G01*
X142919500Y-95713000D01*
G75*
G02*
X142772000Y-95565500I0J147500D01*
G01*
X142772000Y-95220500D01*
G75*
G02*
X142919500Y-95073000I147500J0D01*
G01*
X143214500Y-95073000D01*
G75*
G02*
X143362000Y-95220500I0J-147500D01*
G01*
G37*
%TD*%
%TO.C,C1002*%
G36*
G01*
X162272000Y-92071500D02*
X162272000Y-91726500D01*
G75*
G02*
X162419500Y-91579000I147500J0D01*
G01*
X162714500Y-91579000D01*
G75*
G02*
X162862000Y-91726500I0J-147500D01*
G01*
X162862000Y-92071500D01*
G75*
G02*
X162714500Y-92219000I-147500J0D01*
G01*
X162419500Y-92219000D01*
G75*
G02*
X162272000Y-92071500I0J147500D01*
G01*
G37*
G36*
G01*
X161302000Y-92071500D02*
X161302000Y-91726500D01*
G75*
G02*
X161449500Y-91579000I147500J0D01*
G01*
X161744500Y-91579000D01*
G75*
G02*
X161892000Y-91726500I0J-147500D01*
G01*
X161892000Y-92071500D01*
G75*
G02*
X161744500Y-92219000I-147500J0D01*
G01*
X161449500Y-92219000D01*
G75*
G02*
X161302000Y-92071500I0J147500D01*
G01*
G37*
%TD*%
%TO.C,C1001*%
G36*
G01*
X100965500Y-97300000D02*
X100965500Y-97645000D01*
G75*
G02*
X100818000Y-97792500I-147500J0D01*
G01*
X100523000Y-97792500D01*
G75*
G02*
X100375500Y-97645000I0J147500D01*
G01*
X100375500Y-97300000D01*
G75*
G02*
X100523000Y-97152500I147500J0D01*
G01*
X100818000Y-97152500D01*
G75*
G02*
X100965500Y-97300000I0J-147500D01*
G01*
G37*
G36*
G01*
X101935500Y-97300000D02*
X101935500Y-97645000D01*
G75*
G02*
X101788000Y-97792500I-147500J0D01*
G01*
X101493000Y-97792500D01*
G75*
G02*
X101345500Y-97645000I0J147500D01*
G01*
X101345500Y-97300000D01*
G75*
G02*
X101493000Y-97152500I147500J0D01*
G01*
X101788000Y-97152500D01*
G75*
G02*
X101935500Y-97300000I0J-147500D01*
G01*
G37*
%TD*%
%TO.C,C601*%
G36*
G01*
X113488500Y-105834000D02*
X113833500Y-105834000D01*
G75*
G02*
X113981000Y-105981500I0J-147500D01*
G01*
X113981000Y-106276500D01*
G75*
G02*
X113833500Y-106424000I-147500J0D01*
G01*
X113488500Y-106424000D01*
G75*
G02*
X113341000Y-106276500I0J147500D01*
G01*
X113341000Y-105981500D01*
G75*
G02*
X113488500Y-105834000I147500J0D01*
G01*
G37*
G36*
G01*
X113488500Y-104864000D02*
X113833500Y-104864000D01*
G75*
G02*
X113981000Y-105011500I0J-147500D01*
G01*
X113981000Y-105306500D01*
G75*
G02*
X113833500Y-105454000I-147500J0D01*
G01*
X113488500Y-105454000D01*
G75*
G02*
X113341000Y-105306500I0J147500D01*
G01*
X113341000Y-105011500D01*
G75*
G02*
X113488500Y-104864000I147500J0D01*
G01*
G37*
%TD*%
%TO.C,C303*%
G36*
G01*
X97073500Y-93282000D02*
X96728500Y-93282000D01*
G75*
G02*
X96581000Y-93134500I0J147500D01*
G01*
X96581000Y-92839500D01*
G75*
G02*
X96728500Y-92692000I147500J0D01*
G01*
X97073500Y-92692000D01*
G75*
G02*
X97221000Y-92839500I0J-147500D01*
G01*
X97221000Y-93134500D01*
G75*
G02*
X97073500Y-93282000I-147500J0D01*
G01*
G37*
G36*
G01*
X97073500Y-94252000D02*
X96728500Y-94252000D01*
G75*
G02*
X96581000Y-94104500I0J147500D01*
G01*
X96581000Y-93809500D01*
G75*
G02*
X96728500Y-93662000I147500J0D01*
G01*
X97073500Y-93662000D01*
G75*
G02*
X97221000Y-93809500I0J-147500D01*
G01*
X97221000Y-94104500D01*
G75*
G02*
X97073500Y-94252000I-147500J0D01*
G01*
G37*
%TD*%
%TO.C,C202*%
G36*
G01*
X168533750Y-63025000D02*
X169046250Y-63025000D01*
G75*
G02*
X169265000Y-63243750I0J-218750D01*
G01*
X169265000Y-63681250D01*
G75*
G02*
X169046250Y-63900000I-218750J0D01*
G01*
X168533750Y-63900000D01*
G75*
G02*
X168315000Y-63681250I0J218750D01*
G01*
X168315000Y-63243750D01*
G75*
G02*
X168533750Y-63025000I218750J0D01*
G01*
G37*
G36*
G01*
X168533750Y-64600000D02*
X169046250Y-64600000D01*
G75*
G02*
X169265000Y-64818750I0J-218750D01*
G01*
X169265000Y-65256250D01*
G75*
G02*
X169046250Y-65475000I-218750J0D01*
G01*
X168533750Y-65475000D01*
G75*
G02*
X168315000Y-65256250I0J218750D01*
G01*
X168315000Y-64818750D01*
G75*
G02*
X168533750Y-64600000I218750J0D01*
G01*
G37*
%TD*%
%TO.C,C203*%
G36*
G01*
X167834000Y-62192500D02*
X167834000Y-61847500D01*
G75*
G02*
X167981500Y-61700000I147500J0D01*
G01*
X168276500Y-61700000D01*
G75*
G02*
X168424000Y-61847500I0J-147500D01*
G01*
X168424000Y-62192500D01*
G75*
G02*
X168276500Y-62340000I-147500J0D01*
G01*
X167981500Y-62340000D01*
G75*
G02*
X167834000Y-62192500I0J147500D01*
G01*
G37*
G36*
G01*
X168804000Y-62192500D02*
X168804000Y-61847500D01*
G75*
G02*
X168951500Y-61700000I147500J0D01*
G01*
X169246500Y-61700000D01*
G75*
G02*
X169394000Y-61847500I0J-147500D01*
G01*
X169394000Y-62192500D01*
G75*
G02*
X169246500Y-62340000I-147500J0D01*
G01*
X168951500Y-62340000D01*
G75*
G02*
X168804000Y-62192500I0J147500D01*
G01*
G37*
%TD*%
%TO.C,C301*%
G36*
G01*
X92479000Y-96650500D02*
X92479000Y-97900500D01*
G75*
G02*
X92229000Y-98150500I-250000J0D01*
G01*
X91479000Y-98150500D01*
G75*
G02*
X91229000Y-97900500I0J250000D01*
G01*
X91229000Y-96650500D01*
G75*
G02*
X91479000Y-96400500I250000J0D01*
G01*
X92229000Y-96400500D01*
G75*
G02*
X92479000Y-96650500I0J-250000D01*
G01*
G37*
G36*
G01*
X95279000Y-96650500D02*
X95279000Y-97900500D01*
G75*
G02*
X95029000Y-98150500I-250000J0D01*
G01*
X94279000Y-98150500D01*
G75*
G02*
X94029000Y-97900500I0J250000D01*
G01*
X94029000Y-96650500D01*
G75*
G02*
X94279000Y-96400500I250000J0D01*
G01*
X95029000Y-96400500D01*
G75*
G02*
X95279000Y-96650500I0J-250000D01*
G01*
G37*
%TD*%
%TO.C,C302*%
G36*
G01*
X100552500Y-100555000D02*
X100897500Y-100555000D01*
G75*
G02*
X101045000Y-100702500I0J-147500D01*
G01*
X101045000Y-100997500D01*
G75*
G02*
X100897500Y-101145000I-147500J0D01*
G01*
X100552500Y-101145000D01*
G75*
G02*
X100405000Y-100997500I0J147500D01*
G01*
X100405000Y-100702500D01*
G75*
G02*
X100552500Y-100555000I147500J0D01*
G01*
G37*
G36*
G01*
X100552500Y-99585000D02*
X100897500Y-99585000D01*
G75*
G02*
X101045000Y-99732500I0J-147500D01*
G01*
X101045000Y-100027500D01*
G75*
G02*
X100897500Y-100175000I-147500J0D01*
G01*
X100552500Y-100175000D01*
G75*
G02*
X100405000Y-100027500I0J147500D01*
G01*
X100405000Y-99732500D01*
G75*
G02*
X100552500Y-99585000I147500J0D01*
G01*
G37*
%TD*%
%TO.C,C304*%
G36*
G01*
X95471000Y-88443750D02*
X95471000Y-89356250D01*
G75*
G02*
X95227250Y-89600000I-243750J0D01*
G01*
X94739750Y-89600000D01*
G75*
G02*
X94496000Y-89356250I0J243750D01*
G01*
X94496000Y-88443750D01*
G75*
G02*
X94739750Y-88200000I243750J0D01*
G01*
X95227250Y-88200000D01*
G75*
G02*
X95471000Y-88443750I0J-243750D01*
G01*
G37*
G36*
G01*
X97346000Y-88443750D02*
X97346000Y-89356250D01*
G75*
G02*
X97102250Y-89600000I-243750J0D01*
G01*
X96614750Y-89600000D01*
G75*
G02*
X96371000Y-89356250I0J243750D01*
G01*
X96371000Y-88443750D01*
G75*
G02*
X96614750Y-88200000I243750J0D01*
G01*
X97102250Y-88200000D01*
G75*
G02*
X97346000Y-88443750I0J-243750D01*
G01*
G37*
%TD*%
%TO.C,C305*%
G36*
G01*
X96665000Y-87203500D02*
X96665000Y-87548500D01*
G75*
G02*
X96517500Y-87696000I-147500J0D01*
G01*
X96222500Y-87696000D01*
G75*
G02*
X96075000Y-87548500I0J147500D01*
G01*
X96075000Y-87203500D01*
G75*
G02*
X96222500Y-87056000I147500J0D01*
G01*
X96517500Y-87056000D01*
G75*
G02*
X96665000Y-87203500I0J-147500D01*
G01*
G37*
G36*
G01*
X95695000Y-87203500D02*
X95695000Y-87548500D01*
G75*
G02*
X95547500Y-87696000I-147500J0D01*
G01*
X95252500Y-87696000D01*
G75*
G02*
X95105000Y-87548500I0J147500D01*
G01*
X95105000Y-87203500D01*
G75*
G02*
X95252500Y-87056000I147500J0D01*
G01*
X95547500Y-87056000D01*
G75*
G02*
X95695000Y-87203500I0J-147500D01*
G01*
G37*
%TD*%
%TO.C,C402*%
G36*
G01*
X156393750Y-98200000D02*
X156906250Y-98200000D01*
G75*
G02*
X157125000Y-98418750I0J-218750D01*
G01*
X157125000Y-98856250D01*
G75*
G02*
X156906250Y-99075000I-218750J0D01*
G01*
X156393750Y-99075000D01*
G75*
G02*
X156175000Y-98856250I0J218750D01*
G01*
X156175000Y-98418750D01*
G75*
G02*
X156393750Y-98200000I218750J0D01*
G01*
G37*
G36*
G01*
X156393750Y-96625000D02*
X156906250Y-96625000D01*
G75*
G02*
X157125000Y-96843750I0J-218750D01*
G01*
X157125000Y-97281250D01*
G75*
G02*
X156906250Y-97500000I-218750J0D01*
G01*
X156393750Y-97500000D01*
G75*
G02*
X156175000Y-97281250I0J218750D01*
G01*
X156175000Y-96843750D01*
G75*
G02*
X156393750Y-96625000I218750J0D01*
G01*
G37*
%TD*%
%TO.C,C403*%
G36*
G01*
X169470500Y-95451000D02*
X169125500Y-95451000D01*
G75*
G02*
X168978000Y-95303500I0J147500D01*
G01*
X168978000Y-95008500D01*
G75*
G02*
X169125500Y-94861000I147500J0D01*
G01*
X169470500Y-94861000D01*
G75*
G02*
X169618000Y-95008500I0J-147500D01*
G01*
X169618000Y-95303500D01*
G75*
G02*
X169470500Y-95451000I-147500J0D01*
G01*
G37*
G36*
G01*
X169470500Y-94481000D02*
X169125500Y-94481000D01*
G75*
G02*
X168978000Y-94333500I0J147500D01*
G01*
X168978000Y-94038500D01*
G75*
G02*
X169125500Y-93891000I147500J0D01*
G01*
X169470500Y-93891000D01*
G75*
G02*
X169618000Y-94038500I0J-147500D01*
G01*
X169618000Y-94333500D01*
G75*
G02*
X169470500Y-94481000I-147500J0D01*
G01*
G37*
%TD*%
%TO.C,C404*%
G36*
G01*
X169125500Y-95946000D02*
X169470500Y-95946000D01*
G75*
G02*
X169618000Y-96093500I0J-147500D01*
G01*
X169618000Y-96388500D01*
G75*
G02*
X169470500Y-96536000I-147500J0D01*
G01*
X169125500Y-96536000D01*
G75*
G02*
X168978000Y-96388500I0J147500D01*
G01*
X168978000Y-96093500D01*
G75*
G02*
X169125500Y-95946000I147500J0D01*
G01*
G37*
G36*
G01*
X169125500Y-96916000D02*
X169470500Y-96916000D01*
G75*
G02*
X169618000Y-97063500I0J-147500D01*
G01*
X169618000Y-97358500D01*
G75*
G02*
X169470500Y-97506000I-147500J0D01*
G01*
X169125500Y-97506000D01*
G75*
G02*
X168978000Y-97358500I0J147500D01*
G01*
X168978000Y-97063500D01*
G75*
G02*
X169125500Y-96916000I147500J0D01*
G01*
G37*
%TD*%
%TO.C,C501*%
G36*
G01*
X166400000Y-101893750D02*
X166400000Y-102406250D01*
G75*
G02*
X166181250Y-102625000I-218750J0D01*
G01*
X165743750Y-102625000D01*
G75*
G02*
X165525000Y-102406250I0J218750D01*
G01*
X165525000Y-101893750D01*
G75*
G02*
X165743750Y-101675000I218750J0D01*
G01*
X166181250Y-101675000D01*
G75*
G02*
X166400000Y-101893750I0J-218750D01*
G01*
G37*
G36*
G01*
X167975000Y-101893750D02*
X167975000Y-102406250D01*
G75*
G02*
X167756250Y-102625000I-218750J0D01*
G01*
X167318750Y-102625000D01*
G75*
G02*
X167100000Y-102406250I0J218750D01*
G01*
X167100000Y-101893750D01*
G75*
G02*
X167318750Y-101675000I218750J0D01*
G01*
X167756250Y-101675000D01*
G75*
G02*
X167975000Y-101893750I0J-218750D01*
G01*
G37*
%TD*%
%TO.C,C502*%
G36*
G01*
X169406250Y-110525000D02*
X168893750Y-110525000D01*
G75*
G02*
X168675000Y-110306250I0J218750D01*
G01*
X168675000Y-109868750D01*
G75*
G02*
X168893750Y-109650000I218750J0D01*
G01*
X169406250Y-109650000D01*
G75*
G02*
X169625000Y-109868750I0J-218750D01*
G01*
X169625000Y-110306250D01*
G75*
G02*
X169406250Y-110525000I-218750J0D01*
G01*
G37*
G36*
G01*
X169406250Y-108950000D02*
X168893750Y-108950000D01*
G75*
G02*
X168675000Y-108731250I0J218750D01*
G01*
X168675000Y-108293750D01*
G75*
G02*
X168893750Y-108075000I218750J0D01*
G01*
X169406250Y-108075000D01*
G75*
G02*
X169625000Y-108293750I0J-218750D01*
G01*
X169625000Y-108731250D01*
G75*
G02*
X169406250Y-108950000I-218750J0D01*
G01*
G37*
%TD*%
%TO.C,C602*%
G36*
G01*
X114508500Y-99885000D02*
X114853500Y-99885000D01*
G75*
G02*
X115001000Y-100032500I0J-147500D01*
G01*
X115001000Y-100327500D01*
G75*
G02*
X114853500Y-100475000I-147500J0D01*
G01*
X114508500Y-100475000D01*
G75*
G02*
X114361000Y-100327500I0J147500D01*
G01*
X114361000Y-100032500D01*
G75*
G02*
X114508500Y-99885000I147500J0D01*
G01*
G37*
G36*
G01*
X114508500Y-98915000D02*
X114853500Y-98915000D01*
G75*
G02*
X115001000Y-99062500I0J-147500D01*
G01*
X115001000Y-99357500D01*
G75*
G02*
X114853500Y-99505000I-147500J0D01*
G01*
X114508500Y-99505000D01*
G75*
G02*
X114361000Y-99357500I0J147500D01*
G01*
X114361000Y-99062500D01*
G75*
G02*
X114508500Y-98915000I147500J0D01*
G01*
G37*
%TD*%
%TO.C,C603*%
G36*
G01*
X119495250Y-98587500D02*
X120407750Y-98587500D01*
G75*
G02*
X120651500Y-98831250I0J-243750D01*
G01*
X120651500Y-99318750D01*
G75*
G02*
X120407750Y-99562500I-243750J0D01*
G01*
X119495250Y-99562500D01*
G75*
G02*
X119251500Y-99318750I0J243750D01*
G01*
X119251500Y-98831250D01*
G75*
G02*
X119495250Y-98587500I243750J0D01*
G01*
G37*
G36*
G01*
X119495250Y-100462500D02*
X120407750Y-100462500D01*
G75*
G02*
X120651500Y-100706250I0J-243750D01*
G01*
X120651500Y-101193750D01*
G75*
G02*
X120407750Y-101437500I-243750J0D01*
G01*
X119495250Y-101437500D01*
G75*
G02*
X119251500Y-101193750I0J243750D01*
G01*
X119251500Y-100706250D01*
G75*
G02*
X119495250Y-100462500I243750J0D01*
G01*
G37*
%TD*%
%TO.C,C604*%
G36*
G01*
X118488000Y-87771500D02*
X118488000Y-87426500D01*
G75*
G02*
X118635500Y-87279000I147500J0D01*
G01*
X118930500Y-87279000D01*
G75*
G02*
X119078000Y-87426500I0J-147500D01*
G01*
X119078000Y-87771500D01*
G75*
G02*
X118930500Y-87919000I-147500J0D01*
G01*
X118635500Y-87919000D01*
G75*
G02*
X118488000Y-87771500I0J147500D01*
G01*
G37*
G36*
G01*
X119458000Y-87771500D02*
X119458000Y-87426500D01*
G75*
G02*
X119605500Y-87279000I147500J0D01*
G01*
X119900500Y-87279000D01*
G75*
G02*
X120048000Y-87426500I0J-147500D01*
G01*
X120048000Y-87771500D01*
G75*
G02*
X119900500Y-87919000I-147500J0D01*
G01*
X119605500Y-87919000D01*
G75*
G02*
X119458000Y-87771500I0J147500D01*
G01*
G37*
%TD*%
%TO.C,C605*%
G36*
G01*
X118302500Y-94100250D02*
X118302500Y-93587750D01*
G75*
G02*
X118521250Y-93369000I218750J0D01*
G01*
X118958750Y-93369000D01*
G75*
G02*
X119177500Y-93587750I0J-218750D01*
G01*
X119177500Y-94100250D01*
G75*
G02*
X118958750Y-94319000I-218750J0D01*
G01*
X118521250Y-94319000D01*
G75*
G02*
X118302500Y-94100250I0J218750D01*
G01*
G37*
G36*
G01*
X119877500Y-94100250D02*
X119877500Y-93587750D01*
G75*
G02*
X120096250Y-93369000I218750J0D01*
G01*
X120533750Y-93369000D01*
G75*
G02*
X120752500Y-93587750I0J-218750D01*
G01*
X120752500Y-94100250D01*
G75*
G02*
X120533750Y-94319000I-218750J0D01*
G01*
X120096250Y-94319000D01*
G75*
G02*
X119877500Y-94100250I0J218750D01*
G01*
G37*
%TD*%
%TO.C,C701*%
G36*
G01*
X148146000Y-90899500D02*
X148146000Y-90554500D01*
G75*
G02*
X148293500Y-90407000I147500J0D01*
G01*
X148588500Y-90407000D01*
G75*
G02*
X148736000Y-90554500I0J-147500D01*
G01*
X148736000Y-90899500D01*
G75*
G02*
X148588500Y-91047000I-147500J0D01*
G01*
X148293500Y-91047000D01*
G75*
G02*
X148146000Y-90899500I0J147500D01*
G01*
G37*
G36*
G01*
X149116000Y-90899500D02*
X149116000Y-90554500D01*
G75*
G02*
X149263500Y-90407000I147500J0D01*
G01*
X149558500Y-90407000D01*
G75*
G02*
X149706000Y-90554500I0J-147500D01*
G01*
X149706000Y-90899500D01*
G75*
G02*
X149558500Y-91047000I-147500J0D01*
G01*
X149263500Y-91047000D01*
G75*
G02*
X149116000Y-90899500I0J147500D01*
G01*
G37*
%TD*%
%TO.C,C702*%
G36*
G01*
X144070000Y-90631500D02*
X144070000Y-90976500D01*
G75*
G02*
X143922500Y-91124000I-147500J0D01*
G01*
X143627500Y-91124000D01*
G75*
G02*
X143480000Y-90976500I0J147500D01*
G01*
X143480000Y-90631500D01*
G75*
G02*
X143627500Y-90484000I147500J0D01*
G01*
X143922500Y-90484000D01*
G75*
G02*
X144070000Y-90631500I0J-147500D01*
G01*
G37*
G36*
G01*
X143100000Y-90631500D02*
X143100000Y-90976500D01*
G75*
G02*
X142952500Y-91124000I-147500J0D01*
G01*
X142657500Y-91124000D01*
G75*
G02*
X142510000Y-90976500I0J147500D01*
G01*
X142510000Y-90631500D01*
G75*
G02*
X142657500Y-90484000I147500J0D01*
G01*
X142952500Y-90484000D01*
G75*
G02*
X143100000Y-90631500I0J-147500D01*
G01*
G37*
%TD*%
%TO.C,C703*%
G36*
G01*
X146763000Y-90681500D02*
X146763000Y-91026500D01*
G75*
G02*
X146615500Y-91174000I-147500J0D01*
G01*
X146320500Y-91174000D01*
G75*
G02*
X146173000Y-91026500I0J147500D01*
G01*
X146173000Y-90681500D01*
G75*
G02*
X146320500Y-90534000I147500J0D01*
G01*
X146615500Y-90534000D01*
G75*
G02*
X146763000Y-90681500I0J-147500D01*
G01*
G37*
G36*
G01*
X147733000Y-90681500D02*
X147733000Y-91026500D01*
G75*
G02*
X147585500Y-91174000I-147500J0D01*
G01*
X147290500Y-91174000D01*
G75*
G02*
X147143000Y-91026500I0J147500D01*
G01*
X147143000Y-90681500D01*
G75*
G02*
X147290500Y-90534000I147500J0D01*
G01*
X147585500Y-90534000D01*
G75*
G02*
X147733000Y-90681500I0J-147500D01*
G01*
G37*
%TD*%
%TO.C,C704*%
G36*
G01*
X151733000Y-91733000D02*
X150483000Y-91733000D01*
G75*
G02*
X150233000Y-91483000I0J250000D01*
G01*
X150233000Y-90733000D01*
G75*
G02*
X150483000Y-90483000I250000J0D01*
G01*
X151733000Y-90483000D01*
G75*
G02*
X151983000Y-90733000I0J-250000D01*
G01*
X151983000Y-91483000D01*
G75*
G02*
X151733000Y-91733000I-250000J0D01*
G01*
G37*
G36*
G01*
X151733000Y-94533000D02*
X150483000Y-94533000D01*
G75*
G02*
X150233000Y-94283000I0J250000D01*
G01*
X150233000Y-93533000D01*
G75*
G02*
X150483000Y-93283000I250000J0D01*
G01*
X151733000Y-93283000D01*
G75*
G02*
X151983000Y-93533000I0J-250000D01*
G01*
X151983000Y-94283000D01*
G75*
G02*
X151733000Y-94533000I-250000J0D01*
G01*
G37*
%TD*%
%TO.C,C705*%
G36*
G01*
X141641250Y-92841500D02*
X141128750Y-92841500D01*
G75*
G02*
X140910000Y-92622750I0J218750D01*
G01*
X140910000Y-92185250D01*
G75*
G02*
X141128750Y-91966500I218750J0D01*
G01*
X141641250Y-91966500D01*
G75*
G02*
X141860000Y-92185250I0J-218750D01*
G01*
X141860000Y-92622750D01*
G75*
G02*
X141641250Y-92841500I-218750J0D01*
G01*
G37*
G36*
G01*
X141641250Y-94416500D02*
X141128750Y-94416500D01*
G75*
G02*
X140910000Y-94197750I0J218750D01*
G01*
X140910000Y-93760250D01*
G75*
G02*
X141128750Y-93541500I218750J0D01*
G01*
X141641250Y-93541500D01*
G75*
G02*
X141860000Y-93760250I0J-218750D01*
G01*
X141860000Y-94197750D01*
G75*
G02*
X141641250Y-94416500I-218750J0D01*
G01*
G37*
%TD*%
%TO.C,C706*%
G36*
G01*
X145281250Y-94466500D02*
X144768750Y-94466500D01*
G75*
G02*
X144550000Y-94247750I0J218750D01*
G01*
X144550000Y-93810250D01*
G75*
G02*
X144768750Y-93591500I218750J0D01*
G01*
X145281250Y-93591500D01*
G75*
G02*
X145500000Y-93810250I0J-218750D01*
G01*
X145500000Y-94247750D01*
G75*
G02*
X145281250Y-94466500I-218750J0D01*
G01*
G37*
G36*
G01*
X145281250Y-92891500D02*
X144768750Y-92891500D01*
G75*
G02*
X144550000Y-92672750I0J218750D01*
G01*
X144550000Y-92235250D01*
G75*
G02*
X144768750Y-92016500I218750J0D01*
G01*
X145281250Y-92016500D01*
G75*
G02*
X145500000Y-92235250I0J-218750D01*
G01*
X145500000Y-92672750D01*
G75*
G02*
X145281250Y-92891500I-218750J0D01*
G01*
G37*
%TD*%
%TO.C,C801*%
G36*
G01*
X144734500Y-108036000D02*
X145079500Y-108036000D01*
G75*
G02*
X145227000Y-108183500I0J-147500D01*
G01*
X145227000Y-108478500D01*
G75*
G02*
X145079500Y-108626000I-147500J0D01*
G01*
X144734500Y-108626000D01*
G75*
G02*
X144587000Y-108478500I0J147500D01*
G01*
X144587000Y-108183500D01*
G75*
G02*
X144734500Y-108036000I147500J0D01*
G01*
G37*
G36*
G01*
X144734500Y-107066000D02*
X145079500Y-107066000D01*
G75*
G02*
X145227000Y-107213500I0J-147500D01*
G01*
X145227000Y-107508500D01*
G75*
G02*
X145079500Y-107656000I-147500J0D01*
G01*
X144734500Y-107656000D01*
G75*
G02*
X144587000Y-107508500I0J147500D01*
G01*
X144587000Y-107213500D01*
G75*
G02*
X144734500Y-107066000I147500J0D01*
G01*
G37*
%TD*%
%TO.C,C802*%
G36*
G01*
X151353000Y-106809250D02*
X151353000Y-106296750D01*
G75*
G02*
X151571750Y-106078000I218750J0D01*
G01*
X152009250Y-106078000D01*
G75*
G02*
X152228000Y-106296750I0J-218750D01*
G01*
X152228000Y-106809250D01*
G75*
G02*
X152009250Y-107028000I-218750J0D01*
G01*
X151571750Y-107028000D01*
G75*
G02*
X151353000Y-106809250I0J218750D01*
G01*
G37*
G36*
G01*
X149778000Y-106809250D02*
X149778000Y-106296750D01*
G75*
G02*
X149996750Y-106078000I218750J0D01*
G01*
X150434250Y-106078000D01*
G75*
G02*
X150653000Y-106296750I0J-218750D01*
G01*
X150653000Y-106809250D01*
G75*
G02*
X150434250Y-107028000I-218750J0D01*
G01*
X149996750Y-107028000D01*
G75*
G02*
X149778000Y-106809250I0J218750D01*
G01*
G37*
%TD*%
%TO.C,C803*%
G36*
G01*
X148710000Y-109484000D02*
X148710000Y-110734000D01*
G75*
G02*
X148460000Y-110984000I-250000J0D01*
G01*
X147710000Y-110984000D01*
G75*
G02*
X147460000Y-110734000I0J250000D01*
G01*
X147460000Y-109484000D01*
G75*
G02*
X147710000Y-109234000I250000J0D01*
G01*
X148460000Y-109234000D01*
G75*
G02*
X148710000Y-109484000I0J-250000D01*
G01*
G37*
G36*
G01*
X145910000Y-109484000D02*
X145910000Y-110734000D01*
G75*
G02*
X145660000Y-110984000I-250000J0D01*
G01*
X144910000Y-110984000D01*
G75*
G02*
X144660000Y-110734000I0J250000D01*
G01*
X144660000Y-109484000D01*
G75*
G02*
X144910000Y-109234000I250000J0D01*
G01*
X145660000Y-109234000D01*
G75*
G02*
X145910000Y-109484000I0J-250000D01*
G01*
G37*
%TD*%
%TO.C,C901*%
G36*
G01*
X130701000Y-106253500D02*
X130701000Y-106598500D01*
G75*
G02*
X130553500Y-106746000I-147500J0D01*
G01*
X130258500Y-106746000D01*
G75*
G02*
X130111000Y-106598500I0J147500D01*
G01*
X130111000Y-106253500D01*
G75*
G02*
X130258500Y-106106000I147500J0D01*
G01*
X130553500Y-106106000D01*
G75*
G02*
X130701000Y-106253500I0J-147500D01*
G01*
G37*
G36*
G01*
X129731000Y-106253500D02*
X129731000Y-106598500D01*
G75*
G02*
X129583500Y-106746000I-147500J0D01*
G01*
X129288500Y-106746000D01*
G75*
G02*
X129141000Y-106598500I0J147500D01*
G01*
X129141000Y-106253500D01*
G75*
G02*
X129288500Y-106106000I147500J0D01*
G01*
X129583500Y-106106000D01*
G75*
G02*
X129731000Y-106253500I0J-147500D01*
G01*
G37*
%TD*%
%TO.C,C902*%
G36*
G01*
X138145500Y-110504000D02*
X138490500Y-110504000D01*
G75*
G02*
X138638000Y-110651500I0J-147500D01*
G01*
X138638000Y-110946500D01*
G75*
G02*
X138490500Y-111094000I-147500J0D01*
G01*
X138145500Y-111094000D01*
G75*
G02*
X137998000Y-110946500I0J147500D01*
G01*
X137998000Y-110651500D01*
G75*
G02*
X138145500Y-110504000I147500J0D01*
G01*
G37*
G36*
G01*
X138145500Y-109534000D02*
X138490500Y-109534000D01*
G75*
G02*
X138638000Y-109681500I0J-147500D01*
G01*
X138638000Y-109976500D01*
G75*
G02*
X138490500Y-110124000I-147500J0D01*
G01*
X138145500Y-110124000D01*
G75*
G02*
X137998000Y-109976500I0J147500D01*
G01*
X137998000Y-109681500D01*
G75*
G02*
X138145500Y-109534000I147500J0D01*
G01*
G37*
%TD*%
%TO.C,C903*%
G36*
G01*
X141407000Y-110395500D02*
X141407000Y-110740500D01*
G75*
G02*
X141259500Y-110888000I-147500J0D01*
G01*
X140964500Y-110888000D01*
G75*
G02*
X140817000Y-110740500I0J147500D01*
G01*
X140817000Y-110395500D01*
G75*
G02*
X140964500Y-110248000I147500J0D01*
G01*
X141259500Y-110248000D01*
G75*
G02*
X141407000Y-110395500I0J-147500D01*
G01*
G37*
G36*
G01*
X142377000Y-110395500D02*
X142377000Y-110740500D01*
G75*
G02*
X142229500Y-110888000I-147500J0D01*
G01*
X141934500Y-110888000D01*
G75*
G02*
X141787000Y-110740500I0J147500D01*
G01*
X141787000Y-110395500D01*
G75*
G02*
X141934500Y-110248000I147500J0D01*
G01*
X142229500Y-110248000D01*
G75*
G02*
X142377000Y-110395500I0J-147500D01*
G01*
G37*
%TD*%
%TO.C,C904*%
G36*
G01*
X130930000Y-109562000D02*
X130930000Y-110812000D01*
G75*
G02*
X130680000Y-111062000I-250000J0D01*
G01*
X129930000Y-111062000D01*
G75*
G02*
X129680000Y-110812000I0J250000D01*
G01*
X129680000Y-109562000D01*
G75*
G02*
X129930000Y-109312000I250000J0D01*
G01*
X130680000Y-109312000D01*
G75*
G02*
X130930000Y-109562000I0J-250000D01*
G01*
G37*
G36*
G01*
X128130000Y-109562000D02*
X128130000Y-110812000D01*
G75*
G02*
X127880000Y-111062000I-250000J0D01*
G01*
X127130000Y-111062000D01*
G75*
G02*
X126880000Y-110812000I0J250000D01*
G01*
X126880000Y-109562000D01*
G75*
G02*
X127130000Y-109312000I250000J0D01*
G01*
X127880000Y-109312000D01*
G75*
G02*
X128130000Y-109562000I0J-250000D01*
G01*
G37*
%TD*%
%TO.C,C905*%
G36*
G01*
X132507000Y-110311750D02*
X132507000Y-110824250D01*
G75*
G02*
X132288250Y-111043000I-218750J0D01*
G01*
X131850750Y-111043000D01*
G75*
G02*
X131632000Y-110824250I0J218750D01*
G01*
X131632000Y-110311750D01*
G75*
G02*
X131850750Y-110093000I218750J0D01*
G01*
X132288250Y-110093000D01*
G75*
G02*
X132507000Y-110311750I0J-218750D01*
G01*
G37*
G36*
G01*
X134082000Y-110311750D02*
X134082000Y-110824250D01*
G75*
G02*
X133863250Y-111043000I-218750J0D01*
G01*
X133425750Y-111043000D01*
G75*
G02*
X133207000Y-110824250I0J218750D01*
G01*
X133207000Y-110311750D01*
G75*
G02*
X133425750Y-110093000I218750J0D01*
G01*
X133863250Y-110093000D01*
G75*
G02*
X134082000Y-110311750I0J-218750D01*
G01*
G37*
%TD*%
%TO.C,C906*%
G36*
G01*
X140098250Y-114206000D02*
X139585750Y-114206000D01*
G75*
G02*
X139367000Y-113987250I0J218750D01*
G01*
X139367000Y-113549750D01*
G75*
G02*
X139585750Y-113331000I218750J0D01*
G01*
X140098250Y-113331000D01*
G75*
G02*
X140317000Y-113549750I0J-218750D01*
G01*
X140317000Y-113987250D01*
G75*
G02*
X140098250Y-114206000I-218750J0D01*
G01*
G37*
G36*
G01*
X140098250Y-112631000D02*
X139585750Y-112631000D01*
G75*
G02*
X139367000Y-112412250I0J218750D01*
G01*
X139367000Y-111974750D01*
G75*
G02*
X139585750Y-111756000I218750J0D01*
G01*
X140098250Y-111756000D01*
G75*
G02*
X140317000Y-111974750I0J-218750D01*
G01*
X140317000Y-112412250D01*
G75*
G02*
X140098250Y-112631000I-218750J0D01*
G01*
G37*
%TD*%
D26*
%TO.C,D301*%
X93254000Y-104823000D03*
X93254000Y-100523000D03*
%TD*%
D27*
%TO.C,D302*%
X96936000Y-91059000D03*
X93636000Y-91059000D03*
%TD*%
%TO.C,D501*%
G36*
G01*
X170535000Y-106749750D02*
X170535000Y-106237250D01*
G75*
G02*
X170753750Y-106018500I218750J0D01*
G01*
X171191250Y-106018500D01*
G75*
G02*
X171410000Y-106237250I0J-218750D01*
G01*
X171410000Y-106749750D01*
G75*
G02*
X171191250Y-106968500I-218750J0D01*
G01*
X170753750Y-106968500D01*
G75*
G02*
X170535000Y-106749750I0J218750D01*
G01*
G37*
G36*
G01*
X172110000Y-106749750D02*
X172110000Y-106237250D01*
G75*
G02*
X172328750Y-106018500I218750J0D01*
G01*
X172766250Y-106018500D01*
G75*
G02*
X172985000Y-106237250I0J-218750D01*
G01*
X172985000Y-106749750D01*
G75*
G02*
X172766250Y-106968500I-218750J0D01*
G01*
X172328750Y-106968500D01*
G75*
G02*
X172110000Y-106749750I0J218750D01*
G01*
G37*
%TD*%
%TO.C,D502*%
G36*
G01*
X175615500Y-103217250D02*
X175615500Y-102704750D01*
G75*
G02*
X175834250Y-102486000I218750J0D01*
G01*
X176271750Y-102486000D01*
G75*
G02*
X176490500Y-102704750I0J-218750D01*
G01*
X176490500Y-103217250D01*
G75*
G02*
X176271750Y-103436000I-218750J0D01*
G01*
X175834250Y-103436000D01*
G75*
G02*
X175615500Y-103217250I0J218750D01*
G01*
G37*
G36*
G01*
X174040500Y-103217250D02*
X174040500Y-102704750D01*
G75*
G02*
X174259250Y-102486000I218750J0D01*
G01*
X174696750Y-102486000D01*
G75*
G02*
X174915500Y-102704750I0J-218750D01*
G01*
X174915500Y-103217250D01*
G75*
G02*
X174696750Y-103436000I-218750J0D01*
G01*
X174259250Y-103436000D01*
G75*
G02*
X174040500Y-103217250I0J218750D01*
G01*
G37*
%TD*%
D26*
%TO.C,D601*%
X123317000Y-100729000D03*
X123317000Y-105029000D03*
%TD*%
%TO.C,F301*%
G36*
G01*
X96400000Y-104700000D02*
X97650000Y-104700000D01*
G75*
G02*
X97900000Y-104950000I0J-250000D01*
G01*
X97900000Y-105700000D01*
G75*
G02*
X97650000Y-105950000I-250000J0D01*
G01*
X96400000Y-105950000D01*
G75*
G02*
X96150000Y-105700000I0J250000D01*
G01*
X96150000Y-104950000D01*
G75*
G02*
X96400000Y-104700000I250000J0D01*
G01*
G37*
G36*
G01*
X96400000Y-101900000D02*
X97650000Y-101900000D01*
G75*
G02*
X97900000Y-102150000I0J-250000D01*
G01*
X97900000Y-102900000D01*
G75*
G02*
X97650000Y-103150000I-250000J0D01*
G01*
X96400000Y-103150000D01*
G75*
G02*
X96150000Y-102900000I0J250000D01*
G01*
X96150000Y-102150000D01*
G75*
G02*
X96400000Y-101900000I250000J0D01*
G01*
G37*
%TD*%
%TO.C,F601*%
G36*
G01*
X116461000Y-106026000D02*
X116461000Y-104776000D01*
G75*
G02*
X116711000Y-104526000I250000J0D01*
G01*
X117461000Y-104526000D01*
G75*
G02*
X117711000Y-104776000I0J-250000D01*
G01*
X117711000Y-106026000D01*
G75*
G02*
X117461000Y-106276000I-250000J0D01*
G01*
X116711000Y-106276000D01*
G75*
G02*
X116461000Y-106026000I0J250000D01*
G01*
G37*
G36*
G01*
X119261000Y-106026000D02*
X119261000Y-104776000D01*
G75*
G02*
X119511000Y-104526000I250000J0D01*
G01*
X120261000Y-104526000D01*
G75*
G02*
X120511000Y-104776000I0J-250000D01*
G01*
X120511000Y-106026000D01*
G75*
G02*
X120261000Y-106276000I-250000J0D01*
G01*
X119511000Y-106276000D01*
G75*
G02*
X119261000Y-106026000I0J250000D01*
G01*
G37*
%TD*%
%TO.C,FB301*%
G36*
G01*
X98743750Y-99975000D02*
X99656250Y-99975000D01*
G75*
G02*
X99900000Y-100218750I0J-243750D01*
G01*
X99900000Y-100706250D01*
G75*
G02*
X99656250Y-100950000I-243750J0D01*
G01*
X98743750Y-100950000D01*
G75*
G02*
X98500000Y-100706250I0J243750D01*
G01*
X98500000Y-100218750D01*
G75*
G02*
X98743750Y-99975000I243750J0D01*
G01*
G37*
G36*
G01*
X98743750Y-101850000D02*
X99656250Y-101850000D01*
G75*
G02*
X99900000Y-102093750I0J-243750D01*
G01*
X99900000Y-102581250D01*
G75*
G02*
X99656250Y-102825000I-243750J0D01*
G01*
X98743750Y-102825000D01*
G75*
G02*
X98500000Y-102581250I0J243750D01*
G01*
X98500000Y-102093750D01*
G75*
G02*
X98743750Y-101850000I243750J0D01*
G01*
G37*
%TD*%
%TO.C,FB601*%
G36*
G01*
X115645250Y-104403500D02*
X114732750Y-104403500D01*
G75*
G02*
X114489000Y-104159750I0J243750D01*
G01*
X114489000Y-103672250D01*
G75*
G02*
X114732750Y-103428500I243750J0D01*
G01*
X115645250Y-103428500D01*
G75*
G02*
X115889000Y-103672250I0J-243750D01*
G01*
X115889000Y-104159750D01*
G75*
G02*
X115645250Y-104403500I-243750J0D01*
G01*
G37*
G36*
G01*
X115645250Y-106278500D02*
X114732750Y-106278500D01*
G75*
G02*
X114489000Y-106034750I0J243750D01*
G01*
X114489000Y-105547250D01*
G75*
G02*
X114732750Y-105303500I243750J0D01*
G01*
X115645250Y-105303500D01*
G75*
G02*
X115889000Y-105547250I0J-243750D01*
G01*
X115889000Y-106034750D01*
G75*
G02*
X115645250Y-106278500I-243750J0D01*
G01*
G37*
%TD*%
%TO.C,FB701*%
G36*
G01*
X149405250Y-94516500D02*
X148492750Y-94516500D01*
G75*
G02*
X148249000Y-94272750I0J243750D01*
G01*
X148249000Y-93785250D01*
G75*
G02*
X148492750Y-93541500I243750J0D01*
G01*
X149405250Y-93541500D01*
G75*
G02*
X149649000Y-93785250I0J-243750D01*
G01*
X149649000Y-94272750D01*
G75*
G02*
X149405250Y-94516500I-243750J0D01*
G01*
G37*
G36*
G01*
X149405250Y-92641500D02*
X148492750Y-92641500D01*
G75*
G02*
X148249000Y-92397750I0J243750D01*
G01*
X148249000Y-91910250D01*
G75*
G02*
X148492750Y-91666500I243750J0D01*
G01*
X149405250Y-91666500D01*
G75*
G02*
X149649000Y-91910250I0J-243750D01*
G01*
X149649000Y-92397750D01*
G75*
G02*
X149405250Y-92641500I-243750J0D01*
G01*
G37*
%TD*%
%TO.C,FB702*%
G36*
G01*
X143746250Y-94466500D02*
X142833750Y-94466500D01*
G75*
G02*
X142590000Y-94222750I0J243750D01*
G01*
X142590000Y-93735250D01*
G75*
G02*
X142833750Y-93491500I243750J0D01*
G01*
X143746250Y-93491500D01*
G75*
G02*
X143990000Y-93735250I0J-243750D01*
G01*
X143990000Y-94222750D01*
G75*
G02*
X143746250Y-94466500I-243750J0D01*
G01*
G37*
G36*
G01*
X143746250Y-92591500D02*
X142833750Y-92591500D01*
G75*
G02*
X142590000Y-92347750I0J243750D01*
G01*
X142590000Y-91860250D01*
G75*
G02*
X142833750Y-91616500I243750J0D01*
G01*
X143746250Y-91616500D01*
G75*
G02*
X143990000Y-91860250I0J-243750D01*
G01*
X143990000Y-92347750D01*
G75*
G02*
X143746250Y-92591500I-243750J0D01*
G01*
G37*
%TD*%
%TO.C,FB703*%
G36*
G01*
X147386250Y-94516500D02*
X146473750Y-94516500D01*
G75*
G02*
X146230000Y-94272750I0J243750D01*
G01*
X146230000Y-93785250D01*
G75*
G02*
X146473750Y-93541500I243750J0D01*
G01*
X147386250Y-93541500D01*
G75*
G02*
X147630000Y-93785250I0J-243750D01*
G01*
X147630000Y-94272750D01*
G75*
G02*
X147386250Y-94516500I-243750J0D01*
G01*
G37*
G36*
G01*
X147386250Y-92641500D02*
X146473750Y-92641500D01*
G75*
G02*
X146230000Y-92397750I0J243750D01*
G01*
X146230000Y-91910250D01*
G75*
G02*
X146473750Y-91666500I243750J0D01*
G01*
X147386250Y-91666500D01*
G75*
G02*
X147630000Y-91910250I0J-243750D01*
G01*
X147630000Y-92397750D01*
G75*
G02*
X147386250Y-92641500I-243750J0D01*
G01*
G37*
%TD*%
%TO.C,FB801*%
G36*
G01*
X146694500Y-107493750D02*
X146694500Y-108406250D01*
G75*
G02*
X146450750Y-108650000I-243750J0D01*
G01*
X145963250Y-108650000D01*
G75*
G02*
X145719500Y-108406250I0J243750D01*
G01*
X145719500Y-107493750D01*
G75*
G02*
X145963250Y-107250000I243750J0D01*
G01*
X146450750Y-107250000D01*
G75*
G02*
X146694500Y-107493750I0J-243750D01*
G01*
G37*
G36*
G01*
X148569500Y-107493750D02*
X148569500Y-108406250D01*
G75*
G02*
X148325750Y-108650000I-243750J0D01*
G01*
X147838250Y-108650000D01*
G75*
G02*
X147594500Y-108406250I0J243750D01*
G01*
X147594500Y-107493750D01*
G75*
G02*
X147838250Y-107250000I243750J0D01*
G01*
X148325750Y-107250000D01*
G75*
G02*
X148569500Y-107493750I0J-243750D01*
G01*
G37*
%TD*%
%TO.C,FB902*%
G36*
G01*
X129609000Y-108406250D02*
X129609000Y-107493750D01*
G75*
G02*
X129852750Y-107250000I243750J0D01*
G01*
X130340250Y-107250000D01*
G75*
G02*
X130584000Y-107493750I0J-243750D01*
G01*
X130584000Y-108406250D01*
G75*
G02*
X130340250Y-108650000I-243750J0D01*
G01*
X129852750Y-108650000D01*
G75*
G02*
X129609000Y-108406250I0J243750D01*
G01*
G37*
G36*
G01*
X127734000Y-108406250D02*
X127734000Y-107493750D01*
G75*
G02*
X127977750Y-107250000I243750J0D01*
G01*
X128465250Y-107250000D01*
G75*
G02*
X128709000Y-107493750I0J-243750D01*
G01*
X128709000Y-108406250D01*
G75*
G02*
X128465250Y-108650000I-243750J0D01*
G01*
X127977750Y-108650000D01*
G75*
G02*
X127734000Y-108406250I0J243750D01*
G01*
G37*
%TD*%
%TO.C,FB903*%
G36*
G01*
X136530500Y-110770250D02*
X136530500Y-109857750D01*
G75*
G02*
X136774250Y-109614000I243750J0D01*
G01*
X137261750Y-109614000D01*
G75*
G02*
X137505500Y-109857750I0J-243750D01*
G01*
X137505500Y-110770250D01*
G75*
G02*
X137261750Y-111014000I-243750J0D01*
G01*
X136774250Y-111014000D01*
G75*
G02*
X136530500Y-110770250I0J243750D01*
G01*
G37*
G36*
G01*
X134655500Y-110770250D02*
X134655500Y-109857750D01*
G75*
G02*
X134899250Y-109614000I243750J0D01*
G01*
X135386750Y-109614000D01*
G75*
G02*
X135630500Y-109857750I0J-243750D01*
G01*
X135630500Y-110770250D01*
G75*
G02*
X135386750Y-111014000I-243750J0D01*
G01*
X134899250Y-111014000D01*
G75*
G02*
X134655500Y-110770250I0J243750D01*
G01*
G37*
%TD*%
%TO.C,FB904*%
G36*
G01*
X142076250Y-114200500D02*
X141163750Y-114200500D01*
G75*
G02*
X140920000Y-113956750I0J243750D01*
G01*
X140920000Y-113469250D01*
G75*
G02*
X141163750Y-113225500I243750J0D01*
G01*
X142076250Y-113225500D01*
G75*
G02*
X142320000Y-113469250I0J-243750D01*
G01*
X142320000Y-113956750D01*
G75*
G02*
X142076250Y-114200500I-243750J0D01*
G01*
G37*
G36*
G01*
X142076250Y-112325500D02*
X141163750Y-112325500D01*
G75*
G02*
X140920000Y-112081750I0J243750D01*
G01*
X140920000Y-111594250D01*
G75*
G02*
X141163750Y-111350500I243750J0D01*
G01*
X142076250Y-111350500D01*
G75*
G02*
X142320000Y-111594250I0J-243750D01*
G01*
X142320000Y-112081750D01*
G75*
G02*
X142076250Y-112325500I-243750J0D01*
G01*
G37*
%TD*%
%TO.C,J701*%
G36*
G01*
X150400000Y-101150000D02*
X150400000Y-102400000D01*
G75*
G02*
X150250000Y-102550000I-150000J0D01*
G01*
X149950000Y-102550000D01*
G75*
G02*
X149800000Y-102400000I0J150000D01*
G01*
X149800000Y-101150000D01*
G75*
G02*
X149950000Y-101000000I150000J0D01*
G01*
X150250000Y-101000000D01*
G75*
G02*
X150400000Y-101150000I0J-150000D01*
G01*
G37*
G36*
G01*
X149400000Y-101150000D02*
X149400000Y-102400000D01*
G75*
G02*
X149250000Y-102550000I-150000J0D01*
G01*
X148950000Y-102550000D01*
G75*
G02*
X148800000Y-102400000I0J150000D01*
G01*
X148800000Y-101150000D01*
G75*
G02*
X148950000Y-101000000I150000J0D01*
G01*
X149250000Y-101000000D01*
G75*
G02*
X149400000Y-101150000I0J-150000D01*
G01*
G37*
G36*
G01*
X148400000Y-101150000D02*
X148400000Y-102400000D01*
G75*
G02*
X148250000Y-102550000I-150000J0D01*
G01*
X147950000Y-102550000D01*
G75*
G02*
X147800000Y-102400000I0J150000D01*
G01*
X147800000Y-101150000D01*
G75*
G02*
X147950000Y-101000000I150000J0D01*
G01*
X148250000Y-101000000D01*
G75*
G02*
X148400000Y-101150000I0J-150000D01*
G01*
G37*
G36*
G01*
X147400000Y-101150000D02*
X147400000Y-102400000D01*
G75*
G02*
X147250000Y-102550000I-150000J0D01*
G01*
X146950000Y-102550000D01*
G75*
G02*
X146800000Y-102400000I0J150000D01*
G01*
X146800000Y-101150000D01*
G75*
G02*
X146950000Y-101000000I150000J0D01*
G01*
X147250000Y-101000000D01*
G75*
G02*
X147400000Y-101150000I0J-150000D01*
G01*
G37*
G36*
G01*
X152000000Y-103649999D02*
X152000000Y-104950001D01*
G75*
G02*
X151750001Y-105200000I-249999J0D01*
G01*
X151049999Y-105200000D01*
G75*
G02*
X150800000Y-104950001I0J249999D01*
G01*
X150800000Y-103649999D01*
G75*
G02*
X151049999Y-103400000I249999J0D01*
G01*
X151750001Y-103400000D01*
G75*
G02*
X152000000Y-103649999I0J-249999D01*
G01*
G37*
G36*
G01*
X146400000Y-103649999D02*
X146400000Y-104950001D01*
G75*
G02*
X146150001Y-105200000I-249999J0D01*
G01*
X145449999Y-105200000D01*
G75*
G02*
X145200000Y-104950001I0J249999D01*
G01*
X145200000Y-103649999D01*
G75*
G02*
X145449999Y-103400000I249999J0D01*
G01*
X146150001Y-103400000D01*
G75*
G02*
X146400000Y-103649999I0J-249999D01*
G01*
G37*
%TD*%
D28*
%TO.C,L301*%
X100620000Y-95007500D03*
X100620000Y-90907500D03*
%TD*%
D18*
%TO.C,Q401*%
X155350000Y-102450000D03*
X153450000Y-102450000D03*
X154400000Y-104450000D03*
%TD*%
%TO.C,Q402*%
X158000000Y-104450000D03*
X157050000Y-102450000D03*
X158950000Y-102450000D03*
%TD*%
%TO.C,Q901*%
X142065000Y-107282000D03*
X140165000Y-107282000D03*
X141115000Y-109282000D03*
%TD*%
%TO.C,R201*%
G36*
G01*
X167939500Y-60654000D02*
X168284500Y-60654000D01*
G75*
G02*
X168432000Y-60801500I0J-147500D01*
G01*
X168432000Y-61096500D01*
G75*
G02*
X168284500Y-61244000I-147500J0D01*
G01*
X167939500Y-61244000D01*
G75*
G02*
X167792000Y-61096500I0J147500D01*
G01*
X167792000Y-60801500D01*
G75*
G02*
X167939500Y-60654000I147500J0D01*
G01*
G37*
G36*
G01*
X167939500Y-59684000D02*
X168284500Y-59684000D01*
G75*
G02*
X168432000Y-59831500I0J-147500D01*
G01*
X168432000Y-60126500D01*
G75*
G02*
X168284500Y-60274000I-147500J0D01*
G01*
X167939500Y-60274000D01*
G75*
G02*
X167792000Y-60126500I0J147500D01*
G01*
X167792000Y-59831500D01*
G75*
G02*
X167939500Y-59684000I147500J0D01*
G01*
G37*
%TD*%
%TO.C,R202*%
G36*
G01*
X166970750Y-86871000D02*
X167483250Y-86871000D01*
G75*
G02*
X167702000Y-87089750I0J-218750D01*
G01*
X167702000Y-87527250D01*
G75*
G02*
X167483250Y-87746000I-218750J0D01*
G01*
X166970750Y-87746000D01*
G75*
G02*
X166752000Y-87527250I0J218750D01*
G01*
X166752000Y-87089750D01*
G75*
G02*
X166970750Y-86871000I218750J0D01*
G01*
G37*
G36*
G01*
X166970750Y-88446000D02*
X167483250Y-88446000D01*
G75*
G02*
X167702000Y-88664750I0J-218750D01*
G01*
X167702000Y-89102250D01*
G75*
G02*
X167483250Y-89321000I-218750J0D01*
G01*
X166970750Y-89321000D01*
G75*
G02*
X166752000Y-89102250I0J218750D01*
G01*
X166752000Y-88664750D01*
G75*
G02*
X166970750Y-88446000I218750J0D01*
G01*
G37*
%TD*%
%TO.C,R203*%
G36*
G01*
X164983750Y-88446000D02*
X165496250Y-88446000D01*
G75*
G02*
X165715000Y-88664750I0J-218750D01*
G01*
X165715000Y-89102250D01*
G75*
G02*
X165496250Y-89321000I-218750J0D01*
G01*
X164983750Y-89321000D01*
G75*
G02*
X164765000Y-89102250I0J218750D01*
G01*
X164765000Y-88664750D01*
G75*
G02*
X164983750Y-88446000I218750J0D01*
G01*
G37*
G36*
G01*
X164983750Y-86871000D02*
X165496250Y-86871000D01*
G75*
G02*
X165715000Y-87089750I0J-218750D01*
G01*
X165715000Y-87527250D01*
G75*
G02*
X165496250Y-87746000I-218750J0D01*
G01*
X164983750Y-87746000D01*
G75*
G02*
X164765000Y-87527250I0J218750D01*
G01*
X164765000Y-87089750D01*
G75*
G02*
X164983750Y-86871000I218750J0D01*
G01*
G37*
%TD*%
%TO.C,R204*%
G36*
G01*
X162194250Y-87746000D02*
X161681750Y-87746000D01*
G75*
G02*
X161463000Y-87527250I0J218750D01*
G01*
X161463000Y-87089750D01*
G75*
G02*
X161681750Y-86871000I218750J0D01*
G01*
X162194250Y-86871000D01*
G75*
G02*
X162413000Y-87089750I0J-218750D01*
G01*
X162413000Y-87527250D01*
G75*
G02*
X162194250Y-87746000I-218750J0D01*
G01*
G37*
G36*
G01*
X162194250Y-89321000D02*
X161681750Y-89321000D01*
G75*
G02*
X161463000Y-89102250I0J218750D01*
G01*
X161463000Y-88664750D01*
G75*
G02*
X161681750Y-88446000I218750J0D01*
G01*
X162194250Y-88446000D01*
G75*
G02*
X162413000Y-88664750I0J-218750D01*
G01*
X162413000Y-89102250D01*
G75*
G02*
X162194250Y-89321000I-218750J0D01*
G01*
G37*
%TD*%
%TO.C,R205*%
G36*
G01*
X160162250Y-89321000D02*
X159649750Y-89321000D01*
G75*
G02*
X159431000Y-89102250I0J218750D01*
G01*
X159431000Y-88664750D01*
G75*
G02*
X159649750Y-88446000I218750J0D01*
G01*
X160162250Y-88446000D01*
G75*
G02*
X160381000Y-88664750I0J-218750D01*
G01*
X160381000Y-89102250D01*
G75*
G02*
X160162250Y-89321000I-218750J0D01*
G01*
G37*
G36*
G01*
X160162250Y-87746000D02*
X159649750Y-87746000D01*
G75*
G02*
X159431000Y-87527250I0J218750D01*
G01*
X159431000Y-87089750D01*
G75*
G02*
X159649750Y-86871000I218750J0D01*
G01*
X160162250Y-86871000D01*
G75*
G02*
X160381000Y-87089750I0J-218750D01*
G01*
X160381000Y-87527250D01*
G75*
G02*
X160162250Y-87746000I-218750J0D01*
G01*
G37*
%TD*%
%TO.C,R206*%
G36*
G01*
X156476250Y-87750000D02*
X155963750Y-87750000D01*
G75*
G02*
X155745000Y-87531250I0J218750D01*
G01*
X155745000Y-87093750D01*
G75*
G02*
X155963750Y-86875000I218750J0D01*
G01*
X156476250Y-86875000D01*
G75*
G02*
X156695000Y-87093750I0J-218750D01*
G01*
X156695000Y-87531250D01*
G75*
G02*
X156476250Y-87750000I-218750J0D01*
G01*
G37*
G36*
G01*
X156476250Y-89325000D02*
X155963750Y-89325000D01*
G75*
G02*
X155745000Y-89106250I0J218750D01*
G01*
X155745000Y-88668750D01*
G75*
G02*
X155963750Y-88450000I218750J0D01*
G01*
X156476250Y-88450000D01*
G75*
G02*
X156695000Y-88668750I0J-218750D01*
G01*
X156695000Y-89106250D01*
G75*
G02*
X156476250Y-89325000I-218750J0D01*
G01*
G37*
%TD*%
%TO.C,R207*%
G36*
G01*
X158176250Y-89325000D02*
X157663750Y-89325000D01*
G75*
G02*
X157445000Y-89106250I0J218750D01*
G01*
X157445000Y-88668750D01*
G75*
G02*
X157663750Y-88450000I218750J0D01*
G01*
X158176250Y-88450000D01*
G75*
G02*
X158395000Y-88668750I0J-218750D01*
G01*
X158395000Y-89106250D01*
G75*
G02*
X158176250Y-89325000I-218750J0D01*
G01*
G37*
G36*
G01*
X158176250Y-87750000D02*
X157663750Y-87750000D01*
G75*
G02*
X157445000Y-87531250I0J218750D01*
G01*
X157445000Y-87093750D01*
G75*
G02*
X157663750Y-86875000I218750J0D01*
G01*
X158176250Y-86875000D01*
G75*
G02*
X158395000Y-87093750I0J-218750D01*
G01*
X158395000Y-87531250D01*
G75*
G02*
X158176250Y-87750000I-218750J0D01*
G01*
G37*
%TD*%
%TO.C,R208*%
G36*
G01*
X154546250Y-89315000D02*
X154033750Y-89315000D01*
G75*
G02*
X153815000Y-89096250I0J218750D01*
G01*
X153815000Y-88658750D01*
G75*
G02*
X154033750Y-88440000I218750J0D01*
G01*
X154546250Y-88440000D01*
G75*
G02*
X154765000Y-88658750I0J-218750D01*
G01*
X154765000Y-89096250D01*
G75*
G02*
X154546250Y-89315000I-218750J0D01*
G01*
G37*
G36*
G01*
X154546250Y-87740000D02*
X154033750Y-87740000D01*
G75*
G02*
X153815000Y-87521250I0J218750D01*
G01*
X153815000Y-87083750D01*
G75*
G02*
X154033750Y-86865000I218750J0D01*
G01*
X154546250Y-86865000D01*
G75*
G02*
X154765000Y-87083750I0J-218750D01*
G01*
X154765000Y-87521250D01*
G75*
G02*
X154546250Y-87740000I-218750J0D01*
G01*
G37*
%TD*%
%TO.C,R209*%
G36*
G01*
X134356250Y-91090000D02*
X133843750Y-91090000D01*
G75*
G02*
X133625000Y-90871250I0J218750D01*
G01*
X133625000Y-90433750D01*
G75*
G02*
X133843750Y-90215000I218750J0D01*
G01*
X134356250Y-90215000D01*
G75*
G02*
X134575000Y-90433750I0J-218750D01*
G01*
X134575000Y-90871250D01*
G75*
G02*
X134356250Y-91090000I-218750J0D01*
G01*
G37*
G36*
G01*
X134356250Y-92665000D02*
X133843750Y-92665000D01*
G75*
G02*
X133625000Y-92446250I0J218750D01*
G01*
X133625000Y-92008750D01*
G75*
G02*
X133843750Y-91790000I218750J0D01*
G01*
X134356250Y-91790000D01*
G75*
G02*
X134575000Y-92008750I0J-218750D01*
G01*
X134575000Y-92446250D01*
G75*
G02*
X134356250Y-92665000I-218750J0D01*
G01*
G37*
%TD*%
%TO.C,R210*%
G36*
G01*
X136019250Y-92665000D02*
X135506750Y-92665000D01*
G75*
G02*
X135288000Y-92446250I0J218750D01*
G01*
X135288000Y-92008750D01*
G75*
G02*
X135506750Y-91790000I218750J0D01*
G01*
X136019250Y-91790000D01*
G75*
G02*
X136238000Y-92008750I0J-218750D01*
G01*
X136238000Y-92446250D01*
G75*
G02*
X136019250Y-92665000I-218750J0D01*
G01*
G37*
G36*
G01*
X136019250Y-91090000D02*
X135506750Y-91090000D01*
G75*
G02*
X135288000Y-90871250I0J218750D01*
G01*
X135288000Y-90433750D01*
G75*
G02*
X135506750Y-90215000I218750J0D01*
G01*
X136019250Y-90215000D01*
G75*
G02*
X136238000Y-90433750I0J-218750D01*
G01*
X136238000Y-90871250D01*
G75*
G02*
X136019250Y-91090000I-218750J0D01*
G01*
G37*
%TD*%
%TO.C,R302*%
G36*
G01*
X91918000Y-89473000D02*
X91918000Y-89128000D01*
G75*
G02*
X92065500Y-88980500I147500J0D01*
G01*
X92360500Y-88980500D01*
G75*
G02*
X92508000Y-89128000I0J-147500D01*
G01*
X92508000Y-89473000D01*
G75*
G02*
X92360500Y-89620500I-147500J0D01*
G01*
X92065500Y-89620500D01*
G75*
G02*
X91918000Y-89473000I0J147500D01*
G01*
G37*
G36*
G01*
X90948000Y-89473000D02*
X90948000Y-89128000D01*
G75*
G02*
X91095500Y-88980500I147500J0D01*
G01*
X91390500Y-88980500D01*
G75*
G02*
X91538000Y-89128000I0J-147500D01*
G01*
X91538000Y-89473000D01*
G75*
G02*
X91390500Y-89620500I-147500J0D01*
G01*
X91095500Y-89620500D01*
G75*
G02*
X90948000Y-89473000I0J147500D01*
G01*
G37*
%TD*%
%TO.C,R303*%
G36*
G01*
X93372500Y-89630000D02*
X93027500Y-89630000D01*
G75*
G02*
X92880000Y-89482500I0J147500D01*
G01*
X92880000Y-89187500D01*
G75*
G02*
X93027500Y-89040000I147500J0D01*
G01*
X93372500Y-89040000D01*
G75*
G02*
X93520000Y-89187500I0J-147500D01*
G01*
X93520000Y-89482500D01*
G75*
G02*
X93372500Y-89630000I-147500J0D01*
G01*
G37*
G36*
G01*
X93372500Y-88660000D02*
X93027500Y-88660000D01*
G75*
G02*
X92880000Y-88512500I0J147500D01*
G01*
X92880000Y-88217500D01*
G75*
G02*
X93027500Y-88070000I147500J0D01*
G01*
X93372500Y-88070000D01*
G75*
G02*
X93520000Y-88217500I0J-147500D01*
G01*
X93520000Y-88512500D01*
G75*
G02*
X93372500Y-88660000I-147500J0D01*
G01*
G37*
%TD*%
%TO.C,R401*%
G36*
G01*
X162510000Y-100377500D02*
X162510000Y-100722500D01*
G75*
G02*
X162362500Y-100870000I-147500J0D01*
G01*
X162067500Y-100870000D01*
G75*
G02*
X161920000Y-100722500I0J147500D01*
G01*
X161920000Y-100377500D01*
G75*
G02*
X162067500Y-100230000I147500J0D01*
G01*
X162362500Y-100230000D01*
G75*
G02*
X162510000Y-100377500I0J-147500D01*
G01*
G37*
G36*
G01*
X163480000Y-100377500D02*
X163480000Y-100722500D01*
G75*
G02*
X163332500Y-100870000I-147500J0D01*
G01*
X163037500Y-100870000D01*
G75*
G02*
X162890000Y-100722500I0J147500D01*
G01*
X162890000Y-100377500D01*
G75*
G02*
X163037500Y-100230000I147500J0D01*
G01*
X163332500Y-100230000D01*
G75*
G02*
X163480000Y-100377500I0J-147500D01*
G01*
G37*
%TD*%
%TO.C,R402*%
G36*
G01*
X164830000Y-102077500D02*
X164830000Y-102422500D01*
G75*
G02*
X164682500Y-102570000I-147500J0D01*
G01*
X164387500Y-102570000D01*
G75*
G02*
X164240000Y-102422500I0J147500D01*
G01*
X164240000Y-102077500D01*
G75*
G02*
X164387500Y-101930000I147500J0D01*
G01*
X164682500Y-101930000D01*
G75*
G02*
X164830000Y-102077500I0J-147500D01*
G01*
G37*
G36*
G01*
X163860000Y-102077500D02*
X163860000Y-102422500D01*
G75*
G02*
X163712500Y-102570000I-147500J0D01*
G01*
X163417500Y-102570000D01*
G75*
G02*
X163270000Y-102422500I0J147500D01*
G01*
X163270000Y-102077500D01*
G75*
G02*
X163417500Y-101930000I147500J0D01*
G01*
X163712500Y-101930000D01*
G75*
G02*
X163860000Y-102077500I0J-147500D01*
G01*
G37*
%TD*%
%TO.C,R501*%
G36*
G01*
X175011000Y-105582500D02*
X175011000Y-105237500D01*
G75*
G02*
X175158500Y-105090000I147500J0D01*
G01*
X175453500Y-105090000D01*
G75*
G02*
X175601000Y-105237500I0J-147500D01*
G01*
X175601000Y-105582500D01*
G75*
G02*
X175453500Y-105730000I-147500J0D01*
G01*
X175158500Y-105730000D01*
G75*
G02*
X175011000Y-105582500I0J147500D01*
G01*
G37*
G36*
G01*
X175981000Y-105582500D02*
X175981000Y-105237500D01*
G75*
G02*
X176128500Y-105090000I147500J0D01*
G01*
X176423500Y-105090000D01*
G75*
G02*
X176571000Y-105237500I0J-147500D01*
G01*
X176571000Y-105582500D01*
G75*
G02*
X176423500Y-105730000I-147500J0D01*
G01*
X176128500Y-105730000D01*
G75*
G02*
X175981000Y-105582500I0J147500D01*
G01*
G37*
%TD*%
%TO.C,R502*%
G36*
G01*
X176021500Y-104439500D02*
X176021500Y-104094500D01*
G75*
G02*
X176169000Y-103947000I147500J0D01*
G01*
X176464000Y-103947000D01*
G75*
G02*
X176611500Y-104094500I0J-147500D01*
G01*
X176611500Y-104439500D01*
G75*
G02*
X176464000Y-104587000I-147500J0D01*
G01*
X176169000Y-104587000D01*
G75*
G02*
X176021500Y-104439500I0J147500D01*
G01*
G37*
G36*
G01*
X175051500Y-104439500D02*
X175051500Y-104094500D01*
G75*
G02*
X175199000Y-103947000I147500J0D01*
G01*
X175494000Y-103947000D01*
G75*
G02*
X175641500Y-104094500I0J-147500D01*
G01*
X175641500Y-104439500D01*
G75*
G02*
X175494000Y-104587000I-147500J0D01*
G01*
X175199000Y-104587000D01*
G75*
G02*
X175051500Y-104439500I0J147500D01*
G01*
G37*
%TD*%
%TO.C,R601*%
G36*
G01*
X113925000Y-102875000D02*
X113925000Y-104125000D01*
G75*
G02*
X113675000Y-104375000I-250000J0D01*
G01*
X112925000Y-104375000D01*
G75*
G02*
X112675000Y-104125000I0J250000D01*
G01*
X112675000Y-102875000D01*
G75*
G02*
X112925000Y-102625000I250000J0D01*
G01*
X113675000Y-102625000D01*
G75*
G02*
X113925000Y-102875000I0J-250000D01*
G01*
G37*
G36*
G01*
X111125000Y-102875000D02*
X111125000Y-104125000D01*
G75*
G02*
X110875000Y-104375000I-250000J0D01*
G01*
X110125000Y-104375000D01*
G75*
G02*
X109875000Y-104125000I0J250000D01*
G01*
X109875000Y-102875000D01*
G75*
G02*
X110125000Y-102625000I250000J0D01*
G01*
X110875000Y-102625000D01*
G75*
G02*
X111125000Y-102875000I0J-250000D01*
G01*
G37*
%TD*%
%TO.C,R701*%
G36*
G01*
X143123000Y-89488500D02*
X143123000Y-89833500D01*
G75*
G02*
X142975500Y-89981000I-147500J0D01*
G01*
X142680500Y-89981000D01*
G75*
G02*
X142533000Y-89833500I0J147500D01*
G01*
X142533000Y-89488500D01*
G75*
G02*
X142680500Y-89341000I147500J0D01*
G01*
X142975500Y-89341000D01*
G75*
G02*
X143123000Y-89488500I0J-147500D01*
G01*
G37*
G36*
G01*
X144093000Y-89488500D02*
X144093000Y-89833500D01*
G75*
G02*
X143945500Y-89981000I-147500J0D01*
G01*
X143650500Y-89981000D01*
G75*
G02*
X143503000Y-89833500I0J147500D01*
G01*
X143503000Y-89488500D01*
G75*
G02*
X143650500Y-89341000I147500J0D01*
G01*
X143945500Y-89341000D01*
G75*
G02*
X144093000Y-89488500I0J-147500D01*
G01*
G37*
%TD*%
%TO.C,R702*%
G36*
G01*
X147120000Y-89883500D02*
X147120000Y-89538500D01*
G75*
G02*
X147267500Y-89391000I147500J0D01*
G01*
X147562500Y-89391000D01*
G75*
G02*
X147710000Y-89538500I0J-147500D01*
G01*
X147710000Y-89883500D01*
G75*
G02*
X147562500Y-90031000I-147500J0D01*
G01*
X147267500Y-90031000D01*
G75*
G02*
X147120000Y-89883500I0J147500D01*
G01*
G37*
G36*
G01*
X146150000Y-89883500D02*
X146150000Y-89538500D01*
G75*
G02*
X146297500Y-89391000I147500J0D01*
G01*
X146592500Y-89391000D01*
G75*
G02*
X146740000Y-89538500I0J-147500D01*
G01*
X146740000Y-89883500D01*
G75*
G02*
X146592500Y-90031000I-147500J0D01*
G01*
X146297500Y-90031000D01*
G75*
G02*
X146150000Y-89883500I0J147500D01*
G01*
G37*
%TD*%
%TO.C,R801*%
G36*
G01*
X149243000Y-106277500D02*
X149243000Y-106622500D01*
G75*
G02*
X149095500Y-106770000I-147500J0D01*
G01*
X148800500Y-106770000D01*
G75*
G02*
X148653000Y-106622500I0J147500D01*
G01*
X148653000Y-106277500D01*
G75*
G02*
X148800500Y-106130000I147500J0D01*
G01*
X149095500Y-106130000D01*
G75*
G02*
X149243000Y-106277500I0J-147500D01*
G01*
G37*
G36*
G01*
X148273000Y-106277500D02*
X148273000Y-106622500D01*
G75*
G02*
X148125500Y-106770000I-147500J0D01*
G01*
X147830500Y-106770000D01*
G75*
G02*
X147683000Y-106622500I0J147500D01*
G01*
X147683000Y-106277500D01*
G75*
G02*
X147830500Y-106130000I147500J0D01*
G01*
X148125500Y-106130000D01*
G75*
G02*
X148273000Y-106277500I0J-147500D01*
G01*
G37*
%TD*%
%TO.C,R802*%
G36*
G01*
X152252500Y-107874750D02*
X152252500Y-108787250D01*
G75*
G02*
X152008750Y-109031000I-243750J0D01*
G01*
X151521250Y-109031000D01*
G75*
G02*
X151277500Y-108787250I0J243750D01*
G01*
X151277500Y-107874750D01*
G75*
G02*
X151521250Y-107631000I243750J0D01*
G01*
X152008750Y-107631000D01*
G75*
G02*
X152252500Y-107874750I0J-243750D01*
G01*
G37*
G36*
G01*
X150377500Y-107874750D02*
X150377500Y-108787250D01*
G75*
G02*
X150133750Y-109031000I-243750J0D01*
G01*
X149646250Y-109031000D01*
G75*
G02*
X149402500Y-108787250I0J243750D01*
G01*
X149402500Y-107874750D01*
G75*
G02*
X149646250Y-107631000I243750J0D01*
G01*
X150133750Y-107631000D01*
G75*
G02*
X150377500Y-107874750I0J-243750D01*
G01*
G37*
%TD*%
%TO.C,R901*%
G36*
G01*
X139528000Y-92580750D02*
X139528000Y-93093250D01*
G75*
G02*
X139309250Y-93312000I-218750J0D01*
G01*
X138871750Y-93312000D01*
G75*
G02*
X138653000Y-93093250I0J218750D01*
G01*
X138653000Y-92580750D01*
G75*
G02*
X138871750Y-92362000I218750J0D01*
G01*
X139309250Y-92362000D01*
G75*
G02*
X139528000Y-92580750I0J-218750D01*
G01*
G37*
G36*
G01*
X137953000Y-92580750D02*
X137953000Y-93093250D01*
G75*
G02*
X137734250Y-93312000I-218750J0D01*
G01*
X137296750Y-93312000D01*
G75*
G02*
X137078000Y-93093250I0J218750D01*
G01*
X137078000Y-92580750D01*
G75*
G02*
X137296750Y-92362000I218750J0D01*
G01*
X137734250Y-92362000D01*
G75*
G02*
X137953000Y-92580750I0J-218750D01*
G01*
G37*
%TD*%
D29*
%TO.C,U301*%
X95375000Y-93125000D03*
X94425000Y-93125000D03*
X93475000Y-93125000D03*
X93475000Y-95325000D03*
X95375000Y-95325000D03*
X94425000Y-95325000D03*
%TD*%
D22*
%TO.C,U601*%
X111150000Y-106051500D03*
D24*
X111650000Y-106014000D03*
D22*
X110650000Y-106051500D03*
X112150000Y-106051500D03*
X110650000Y-105276500D03*
X111150000Y-105276500D03*
X112650000Y-106051500D03*
D23*
X111650000Y-105251500D03*
D22*
X112650000Y-105276500D03*
X112150000Y-105276500D03*
%TD*%
%TO.C,U602*%
G36*
G01*
X116423500Y-87010000D02*
X116748500Y-87010000D01*
G75*
G02*
X116911000Y-87172500I0J-162500D01*
G01*
X116911000Y-89197500D01*
G75*
G02*
X116748500Y-89360000I-162500J0D01*
G01*
X116423500Y-89360000D01*
G75*
G02*
X116261000Y-89197500I0J162500D01*
G01*
X116261000Y-87172500D01*
G75*
G02*
X116423500Y-87010000I162500J0D01*
G01*
G37*
G36*
G01*
X113883500Y-87010000D02*
X114208500Y-87010000D01*
G75*
G02*
X114371000Y-87172500I0J-162500D01*
G01*
X114371000Y-89197500D01*
G75*
G02*
X114208500Y-89360000I-162500J0D01*
G01*
X113883500Y-89360000D01*
G75*
G02*
X113721000Y-89197500I0J162500D01*
G01*
X113721000Y-87172500D01*
G75*
G02*
X113883500Y-87010000I162500J0D01*
G01*
G37*
G36*
G01*
X111343500Y-87010000D02*
X111668500Y-87010000D01*
G75*
G02*
X111831000Y-87172500I0J-162500D01*
G01*
X111831000Y-89197500D01*
G75*
G02*
X111668500Y-89360000I-162500J0D01*
G01*
X111343500Y-89360000D01*
G75*
G02*
X111181000Y-89197500I0J162500D01*
G01*
X111181000Y-87172500D01*
G75*
G02*
X111343500Y-87010000I162500J0D01*
G01*
G37*
G36*
G01*
X108803500Y-87010000D02*
X109128500Y-87010000D01*
G75*
G02*
X109291000Y-87172500I0J-162500D01*
G01*
X109291000Y-89197500D01*
G75*
G02*
X109128500Y-89360000I-162500J0D01*
G01*
X108803500Y-89360000D01*
G75*
G02*
X108641000Y-89197500I0J162500D01*
G01*
X108641000Y-87172500D01*
G75*
G02*
X108803500Y-87010000I162500J0D01*
G01*
G37*
G36*
G01*
X108803500Y-96060000D02*
X109128500Y-96060000D01*
G75*
G02*
X109291000Y-96222500I0J-162500D01*
G01*
X109291000Y-98247500D01*
G75*
G02*
X109128500Y-98410000I-162500J0D01*
G01*
X108803500Y-98410000D01*
G75*
G02*
X108641000Y-98247500I0J162500D01*
G01*
X108641000Y-96222500D01*
G75*
G02*
X108803500Y-96060000I162500J0D01*
G01*
G37*
G36*
G01*
X111343500Y-96060000D02*
X111668500Y-96060000D01*
G75*
G02*
X111831000Y-96222500I0J-162500D01*
G01*
X111831000Y-98247500D01*
G75*
G02*
X111668500Y-98410000I-162500J0D01*
G01*
X111343500Y-98410000D01*
G75*
G02*
X111181000Y-98247500I0J162500D01*
G01*
X111181000Y-96222500D01*
G75*
G02*
X111343500Y-96060000I162500J0D01*
G01*
G37*
G36*
G01*
X113883500Y-96060000D02*
X114208500Y-96060000D01*
G75*
G02*
X114371000Y-96222500I0J-162500D01*
G01*
X114371000Y-98247500D01*
G75*
G02*
X114208500Y-98410000I-162500J0D01*
G01*
X113883500Y-98410000D01*
G75*
G02*
X113721000Y-98247500I0J162500D01*
G01*
X113721000Y-96222500D01*
G75*
G02*
X113883500Y-96060000I162500J0D01*
G01*
G37*
G36*
G01*
X116423500Y-96060000D02*
X116748500Y-96060000D01*
G75*
G02*
X116911000Y-96222500I0J-162500D01*
G01*
X116911000Y-98247500D01*
G75*
G02*
X116748500Y-98410000I-162500J0D01*
G01*
X116423500Y-98410000D01*
G75*
G02*
X116261000Y-98247500I0J162500D01*
G01*
X116261000Y-96222500D01*
G75*
G02*
X116423500Y-96060000I162500J0D01*
G01*
G37*
%TD*%
D18*
%TO.C,U603*%
X119502000Y-97384000D03*
X118552000Y-95384000D03*
X120452000Y-95384000D03*
%TD*%
D22*
%TO.C,U801*%
X151503000Y-109975500D03*
X152003000Y-109975500D03*
D23*
X151003000Y-109950500D03*
D22*
X152003000Y-110750500D03*
X150503000Y-109975500D03*
X150003000Y-109975500D03*
X151503000Y-110750500D03*
X150003000Y-110750500D03*
D24*
X151003000Y-110713000D03*
D22*
X150503000Y-110750500D03*
%TD*%
D30*
%TO.C,SW501*%
X160950000Y-104050000D03*
X167250000Y-104050000D03*
X160950000Y-107850000D03*
X167250000Y-107850000D03*
%TD*%
%TO.C,SW502*%
X167250000Y-113900000D03*
X160950000Y-113900000D03*
X167250000Y-110100000D03*
X160950000Y-110100000D03*
%TD*%
M02*
