M48
; DRILL file {KiCad (5.1.9-0-10_14)} date Saturday, January 30, 2021 at 08:50:56 PM
; FORMAT={-:-/ absolute / inch / decimal}
; #@! TF.CreationDate,2021-01-30T20:50:56+02:00
; #@! TF.GenerationSoftware,Kicad,Pcbnew,(5.1.9-0-10_14)
; #@! TF.FileFunction,Plated,1,4,PTH
FMAT,2
INCH
T1C0.0079
T2C0.0138
T3C0.0157
T4C0.0173
T5C0.0236
T6C0.0374
T7C0.0394
%
G90
G05
T1
X4.4705Y-3.9622
X5.2224Y-2.563
X5.4343Y-3.5232
X5.4394Y-3.4012
X5.4547Y-2.4902
X5.5571Y-2.4646
X5.6719Y-2.4599
X5.685Y-3.3976
X5.7335Y-3.4
X5.815Y-2.6398
X5.8602Y-2.6831
X5.939Y-3.3189
X5.9469Y-2.6909
X5.9469Y-2.7283
X6.0252Y-3.3988
X6.1299Y-2.5039
X6.1299Y-3.2047
X6.1535Y-3.5807
X6.158Y-2.4719
X6.1693Y-2.563
X6.2165Y-2.5689
X6.2579Y-3.4488
X6.2657Y-2.5591
X6.2933Y-2.7185
X6.3268Y-3.435
X6.3327Y-3.5472
X6.3465Y-3.4803
X6.3646Y-3.1488
X6.3661Y-3.185
X6.3898Y-3.5728
X6.4075Y-3.4409
X6.4213Y-3.1476
X6.622Y-2.8701
X6.6417Y-2.8504
X6.6614Y-2.8307
X6.6811Y-2.811
X6.6945Y-3.2657
X6.7008Y-2.7913
X6.7083Y-3.0409
X6.7205Y-2.7717
X6.7268Y-3.6559
X6.748Y-4.126
T3
X3.5374Y-3.3425
X3.5413Y-3.4665
X3.5413Y-3.5984
X3.5413Y-3.7028
X3.5413Y-3.8976
X3.5413Y-4.0118
X3.5413Y-4.1575
X3.5423Y-2.751
X3.5423Y-2.8494
X3.5423Y-2.9498
X3.5423Y-3.0512
X3.5423Y-3.1506
X3.5423Y-3.25
X3.5433Y-2.6043
X3.5727Y-3.6674
X3.5803Y-4.0839
X3.5803Y-4.1239
X3.5803Y-4.1639
X3.5807Y-3.5187
X3.5817Y-3.5571
X3.6127Y-3.6674
X3.6358Y-2.6004
X3.6673Y-3.0502
X3.6696Y-2.6603
X3.6696Y-2.7503
X3.6704Y-2.8535
X3.6704Y-2.9485
X3.6714Y-3.1591
X3.6714Y-3.2491
X3.6827Y-2.5967
X3.687Y-3.3563
X3.6929Y-3.4646
X3.7153Y-4.0839
X3.7153Y-4.1239
X3.7153Y-4.1639
X3.7165Y-4.2126
X3.7283Y-3.9311
X3.7283Y-4.0276
X3.7638Y-3.5689
X3.7638Y-3.6378
X3.7669Y-3.4672
X3.7727Y-2.5967
X3.7969Y-3.5172
X3.7992Y-2.4606
X3.8071Y-4.3228
X3.8317Y-3.6348
X3.8327Y-4.126
X3.8356Y-3.251
X3.8369Y-3.4872
X3.8415Y-2.753
X3.8602Y-4.4114
X3.8681Y-2.5197
X3.872Y-4.4902
X3.8746Y-3.6198
X3.8819Y-3.7283
X3.8976Y-3.876
X3.8976Y-3.937
X3.9075Y-2.6181
X3.9094Y-3.6949
X3.9134Y-4.0374
X3.9154Y-3.4902
X3.9528Y-3.7283
X3.9764Y-2.3622
X3.9961Y-3.7972
X3.9961Y-3.9685
X4.0079Y-4.4961
X4.0177Y-3.9094
X4.0603Y-2.5136
X4.0748Y-2.3622
X4.1004Y-3.7992
X4.1043Y-3.6988
X4.124Y-3.4429
X4.128Y-4.2402
X4.128Y-4.3504
X4.128Y-4.4902
X4.1339Y-3.689
X4.1339Y-3.8799
X4.1339Y-3.9606
X4.14Y-3.37
X4.1503Y-2.5136
X4.1713Y-3.5453
X4.1988Y-2.3839
X4.2205Y-2.622
X4.2402Y-3.8937
X4.2402Y-4.128
X4.2421Y-4.2539
X4.2421Y-4.3917
X4.2539Y-2.2776
X4.255Y-3.43
X4.26Y-3.83
X4.3012Y-4.4882
X4.3177Y-4.2441
X4.32Y-3.43
X4.32Y-3.83
X4.3642Y-2.2795
X4.4051Y-4.1272
X4.44Y-3.37
X4.4469Y-3.9306
X4.4748Y-4.2092
X4.5098Y-4.248
X4.5531Y-4.4882
X4.6043Y-2.6319
X4.61Y-4.235
X4.6122Y-2.5197
X4.6142Y-2.2894
X4.6173Y-2.3902
X4.625Y-3.4418
X4.6362Y-3.8618
X4.6425Y-4.3201
X4.645Y-3.65
X4.6675Y-4.125
X4.7441Y-4.498
X4.7497Y-3.4494
X4.7646Y-2.6315
X4.7697Y-2.4921
X4.7697Y-2.5854
X4.77Y-3.72
X4.8Y-3.875
X4.8525Y-3.55
X4.855Y-4.225
X4.92Y-3.825
X4.925Y-3.6125
X4.9508Y-2.2736
X4.9563Y-2.4874
X4.9689Y-3.4346
X4.975Y-3.655
X5.013Y-2.635
X5.0197Y-2.4724
X5.0433Y-3.6476
X5.0709Y-3.7421
X5.095Y-3.685
X5.0984Y-4.1437
X5.1106Y-4.5035
X5.1228Y-3.9961
X5.1854Y-4.0945
X5.1929Y-2.5945
X5.1969Y-3.4665
X5.2008Y-3.9819
X5.2012Y-4.3181
X5.2067Y-4.4039
X5.2165Y-3.7421
X5.2524Y-4.0362
X5.255Y-3.69
X5.26Y-3.74
X5.2917Y-2.5272
X5.2941Y-3.5181
X5.3043Y-4.5008
X5.3484Y-2.2736
X5.3657Y-2.5098
X5.39Y-3.74
X5.3937Y-3.4992
X5.3972Y-4.1315
X5.4Y-4.4031
X5.405Y-3.61
X5.4587Y-4.385
X5.4642Y-3.6079
X5.502Y-4.1929
X5.5105Y-3.5215
X5.5197Y-3.689
X5.5256Y-3.75
X5.5315Y-3.6102
X5.5591Y-4.4488
X5.5906Y-3.5115
X5.6354Y-3.7594
X5.6354Y-3.8449
X5.643Y-3.8951
X5.643Y-3.9851
X5.6496Y-2.2736
X5.6594Y-4.498
X5.6614Y-4.3661
X5.7106Y-3.5276
X5.7165Y-3.6043
X5.7638Y-3.9492
X5.7673Y-3.8236
X5.7756Y-4.4961
X5.7953Y-4.1772
X5.813Y-3.8031
X5.8327Y-3.3691
X5.8445Y-3.7677
X5.8563Y-3.5177
X5.8681Y-3.3642
X5.8791Y-3.1138
X5.8811Y-3.011
X5.8815Y-2.7398
X5.8815Y-2.8319
X5.8825Y-2.8725
X5.8909Y-2.6843
X5.8929Y-2.6449
X5.8937Y-4.5
X5.9094Y-3.6457
X5.9134Y-3.4053
X5.9291Y-3.7539
X5.942Y-3.4063
X5.9488Y-2.2736
X5.9569Y-4.015
X5.9646Y-3.6437
X5.9665Y-3.5197
X5.9744Y-4.3484
X5.9764Y-4.4154
X5.9831Y-3.3984
X5.9862Y-3.2815
X6.0035Y-3.4311
X6.0098Y-4.0906
X6.0157Y-3.7146
X6.0161Y-3.8248
X6.0236Y-3.6654
X6.028Y-3.4563
X6.0354Y-3.7677
X6.0354Y-4.4961
X6.0492Y-2.4646
X6.0839Y-3.2665
X6.0843Y-3.1165
X6.0906Y-3.0437
X6.0945Y-2.9701
X6.0965Y-3.7421
X6.0969Y-3.8331
X6.0984Y-2.8913
X6.1024Y-4.4843
X6.1102Y-2.5531
X6.1366Y-3.261
X6.1457Y-4.0709
X6.1508Y-2.737
X6.16Y-2.815
X6.1846Y-3.2598
X6.1933Y-2.7949
X6.2106Y-4.0709
X6.2177Y-3.039
X6.2205Y-4.4862
X6.2225Y-2.76
X6.2354Y-2.824
X6.2421Y-3.1724
X6.25Y-2.5315
X6.2559Y-3.6339
X6.26Y-3.205
X6.263Y-2.9319
X6.2657Y-3.0067
X6.2752Y-3.1472
X6.2776Y-4.4961
X6.2835Y-4.1063
X6.2953Y-3.0787
X6.3205Y-3.1449
X6.3307Y-4.0974
X6.3346Y-3.111
X6.335Y-3.7701
X6.3362Y-3.6181
X6.3398Y-3.9827
X6.3484Y-2.2736
X6.3484Y-2.5335
X6.35Y-2.88
X6.35Y-3.04
X6.3575Y-2.8394
X6.3602Y-4.1378
X6.3681Y-4.3878
X6.37Y-2.92
X6.37Y-3.0
X6.3799Y-4.2136
X6.3819Y-4.4498
X6.39Y-2.88
X6.39Y-3.04
X6.41Y-2.92
X6.41Y-3.0
X6.4252Y-2.5453
X6.428Y-3.611
X6.43Y-2.88
X6.43Y-3.04
X6.4327Y-2.7693
X6.435Y-3.265
X6.437Y-4.0709
X6.4385Y-3.4441
X6.4385Y-3.5391
X6.45Y-2.92
X6.45Y-3.0
X6.4531Y-3.9894
X6.465Y-3.0875
X6.47Y-2.88
X6.47Y-3.04
X6.49Y-2.92
X6.49Y-3.0
X6.5012Y-3.2654
X6.5059Y-3.9862
X6.5295Y-2.5335
X6.5375Y-3.2725
X6.5413Y-2.2697
X6.5571Y-3.5866
X6.563Y-2.4902
X6.5724Y-3.2626
X6.5898Y-2.9134
X6.5921Y-2.9843
X6.5933Y-2.8807
X6.6004Y-3.9646
X6.6142Y-3.6654
X6.62Y-3.0975
X6.62Y-3.2625
X6.6201Y-2.4744
X6.628Y-4.4508
X6.6299Y-4.2087
X6.6319Y-3.8012
X6.665Y-2.7165
X6.6693Y-3.4409
X6.6694Y-2.5787
X6.6694Y-2.3839
X6.6694Y-2.502
X6.6772Y-4.2008
X6.6772Y-4.3819
X6.6938Y-3.4786
X6.6957Y-3.1622
X6.7007Y-3.6882
X6.7185Y-2.5236
X6.7291Y-3.0961
X6.7382Y-3.2028
X6.7386Y-3.2717
X6.7398Y-3.4126
X6.7402Y-2.7205
X6.7402Y-3.3264
X6.7421Y-2.5768
X6.7441Y-2.6378
X6.7461Y-3.5571
X6.765Y-3.62
X6.765Y-3.71
X6.77Y-3.9575
X6.7756Y-4.2559
X6.7894Y-4.0945
X6.8051Y-3.6122
X6.828Y-3.9429
X6.8346Y-3.7425
X6.8366Y-4.1772
X6.8839Y-3.6063
X6.9059Y-3.9299
X6.9083Y-3.7413
X6.9547Y-4.1299
X6.9567Y-4.0472
X6.965Y-3.58
X6.9681Y-3.8941
X6.9705Y-3.7874
T4
X6.8701Y-3.7854
X6.8701Y-3.8366
X6.8701Y-3.8878
X6.9094Y-3.811
X6.9094Y-3.8622
T5
X3.624Y-3.7972
X3.6516Y-3.5965
X3.7707Y-3.8986
X3.9016Y-3.3819
X4.0156Y-3.711
X4.0177Y-3.4134
X4.0492Y-3.4567
X4.0507Y-3.4975
X4.06Y-3.8849
X4.55Y-3.8275
X4.5878Y-3.9138
X4.6705Y-3.974
X4.7025Y-3.6575
X4.78Y-4.09
X4.78Y-4.16
X4.83Y-4.06
X4.8961Y-3.4898
X4.9Y-4.06
X4.93Y-4.11
X4.93Y-4.17
X5.0657Y-4.3382
X5.3756Y-3.9898
X6.09Y-2.77
X6.1535Y-3.7244
X6.1772Y-3.878
X6.7441Y-4.1909
T6
X4.5059Y-4.4154
X4.6043Y-4.4154
X4.7028Y-4.4154
X4.8012Y-4.4154
T7
X3.5778Y-2.7
X3.5778Y-2.8
X3.5778Y-2.9
X3.5778Y-3.0
X3.5778Y-3.1
X3.5778Y-3.2
X3.5778Y-3.3
X3.5778Y-3.4
X3.8Y-2.7
X3.8Y-2.8
X3.8Y-2.9
X3.8Y-3.0
X3.8Y-3.1
X3.8Y-3.2
X3.8Y-3.3
X3.9Y-2.7
X3.9Y-2.8
X3.9Y-2.9
X3.9Y-3.0
X3.9Y-3.1
X3.9Y-3.2
X3.9Y-3.3
X3.9268Y-2.315
X3.9268Y-2.415
X3.9583Y-4.4114
X3.9803Y-4.185
X4.0Y-2.7
X4.0Y-2.8
X4.0Y-2.9
X4.0Y-3.0
X4.0Y-3.1
X4.0Y-3.2
X4.0Y-3.3
X4.0268Y-2.315
X4.0268Y-2.415
X4.0567Y-4.4114
X4.06Y-3.955
X4.06Y-4.055
X4.0803Y-4.185
X4.1Y-2.7
X4.1Y-2.8
X4.1Y-2.9
X4.1Y-3.0
X4.1Y-3.1
X4.1Y-3.2
X4.1Y-3.3
X4.1268Y-2.315
X4.1268Y-2.415
X4.2Y-2.7
X4.2Y-2.8
X4.2Y-2.9
X4.2Y-3.0
X4.2Y-3.1
X4.2Y-3.2
X4.2Y-3.3
X4.2854Y-3.9606
X4.2854Y-4.0606
X4.3Y-2.7
X4.3Y-2.8
X4.3Y-2.9
X4.3Y-3.0
X4.3Y-3.1
X4.3Y-3.2
X4.3Y-3.3
X4.4Y-2.7
X4.4Y-2.8
X4.4Y-2.9
X4.4Y-3.0
X4.4Y-3.1
X4.4Y-3.2
X4.4Y-3.3
X4.5Y-2.7
X4.5Y-2.8
X4.5Y-2.9
X4.5Y-3.0
X4.5Y-3.1
X4.5Y-3.2
X4.5Y-3.3
X4.6Y-2.7
X4.6Y-2.8
X4.6Y-2.9
X4.6Y-3.0
X4.6Y-3.1
X4.6Y-3.2
X4.6Y-3.3
X4.7Y-2.7
X4.7Y-2.8
X4.7Y-2.9
X4.7Y-3.0
X4.7Y-3.1
X4.7Y-3.2
X4.7Y-3.3
X4.7004Y-2.315
X4.7004Y-2.415
X4.8Y-2.7
X4.8Y-2.8
X4.8Y-2.9
X4.8Y-3.0
X4.8Y-3.1
X4.8Y-3.2
X4.8Y-3.3
X4.8004Y-2.315
X4.8004Y-2.415
X4.9Y-2.7
X4.9Y-2.8
X4.9Y-2.9
X4.9Y-3.0
X4.9Y-3.1
X4.9Y-3.2
X4.9Y-3.3
X4.9004Y-2.315
X4.9004Y-2.415
X5.0Y-2.7
X5.0Y-2.8
X5.0Y-2.9
X5.0Y-3.0
X5.0Y-3.1
X5.0Y-3.2
X5.0Y-3.3
X5.0004Y-2.315
X5.0004Y-2.415
X5.0559Y-4.4567
X5.1Y-2.7
X5.1Y-2.8
X5.1Y-2.9
X5.1Y-3.0
X5.1Y-3.1
X5.1Y-3.2
X5.1Y-3.3
X5.1004Y-2.315
X5.1004Y-2.415
X5.1559Y-4.4567
X5.1791Y-3.5646
X5.2Y-2.7
X5.2Y-2.8
X5.2Y-2.9
X5.2Y-3.0
X5.2Y-3.1
X5.2Y-3.2
X5.2Y-3.3
X5.2004Y-2.315
X5.2004Y-2.415
X5.2559Y-4.4567
X5.3Y-2.7
X5.3Y-2.8
X5.3Y-2.9
X5.3Y-3.0
X5.3Y-3.1
X5.3Y-3.2
X5.3Y-3.3
X5.3004Y-2.315
X5.3004Y-2.415
X5.3559Y-4.4567
X5.4Y-2.7
X5.4Y-2.8
X5.4Y-2.9
X5.4Y-3.0
X5.4Y-3.1
X5.4Y-3.2
X5.4Y-3.3
X5.4004Y-2.315
X5.4004Y-2.415
X5.5Y-2.7
X5.5Y-2.8
X5.5Y-2.9
X5.5Y-3.0
X5.5Y-3.1
X5.5Y-3.2
X5.5Y-3.3
X5.5004Y-2.315
X5.5004Y-2.415
X5.6Y-2.7
X5.6Y-2.8
X5.6Y-2.9
X5.6Y-3.0
X5.6Y-3.1
X5.6Y-3.2
X5.6Y-3.3
X5.6004Y-2.315
X5.6004Y-2.415
X5.6173Y-4.2484
X5.7Y-2.7
X5.7Y-2.8
X5.7Y-2.9
X5.7Y-3.0
X5.7Y-3.1
X5.7Y-3.2
X5.7Y-3.3
X5.7004Y-2.315
X5.7004Y-2.415
X5.7173Y-4.1024
X5.7173Y-4.2484
X5.8Y-2.7
X5.8Y-2.8
X5.8Y-2.9
X5.8Y-3.0
X5.8Y-3.1
X5.8Y-3.2
X5.8Y-3.3
X5.8004Y-2.315
X5.8004Y-2.415
X5.8173Y-4.1024
X5.8173Y-4.2484
X5.9004Y-2.315
X5.9004Y-2.415
X5.9173Y-4.1024
X5.9173Y-4.2484
X6.0004Y-2.315
X6.0004Y-2.415
X6.1004Y-2.315
X6.1004Y-2.415
X6.2004Y-2.315
X6.2004Y-2.415
X6.3004Y-2.315
X6.3004Y-2.415
X6.4004Y-2.315
X6.4004Y-2.415
X6.5004Y-2.315
X6.5004Y-2.415
X6.6004Y-2.315
X6.6004Y-2.415
T2
G00X6.8591Y-3.6959
M15
G01X6.8984Y-3.6959
M16
G05
G00X6.8591Y-3.9774
M15
G01X6.8984Y-3.9774
M16
G05
T0
M30
