%TF.GenerationSoftware,KiCad,Pcbnew,(5.1.9-0-10_14)*%
%TF.CreationDate,2021-01-30T20:50:45+02:00*%
%TF.ProjectId,SH-ESP32,53482d45-5350-4333-922e-6b696361645f,0.3.0*%
%TF.SameCoordinates,Original*%
%TF.FileFunction,Paste,Top*%
%TF.FilePolarity,Positive*%
%FSLAX46Y46*%
G04 Gerber Fmt 4.6, Leading zero omitted, Abs format (unit mm)*
G04 Created by KiCad (PCBNEW (5.1.9-0-10_14)) date 2021-01-30 20:50:45*
%MOMM*%
%LPD*%
G01*
G04 APERTURE LIST*
%TA.AperFunction,Profile*%
%ADD10C,0.050000*%
%TD*%
%ADD11R,0.900000X1.200000*%
%ADD12R,5.000000X5.000000*%
%ADD13R,0.900000X3.000000*%
%ADD14R,3.000000X0.900000*%
%ADD15R,1.100000X1.100000*%
%ADD16R,1.200000X0.900000*%
%ADD17R,0.400000X0.510000*%
%ADD18R,0.510000X0.400000*%
%ADD19R,0.625000X0.250000*%
%ADD20R,0.575000X0.450000*%
%ADD21R,0.700000X0.450000*%
%ADD22R,0.250000X0.625000*%
%ADD23R,0.450000X0.700000*%
%ADD24R,0.450000X0.575000*%
%ADD25R,2.300000X2.500000*%
%ADD26R,0.800000X0.900000*%
%ADD27R,0.650000X1.060000*%
%ADD28R,1.700000X1.000000*%
G04 APERTURE END LIST*
D10*
X178000000Y-90300000D02*
X178000000Y-106500000D01*
X172000000Y-90300000D02*
X172000000Y-63020000D01*
X178000000Y-90300000D02*
X172000000Y-90300000D01*
X169500000Y-115000000D02*
G75*
G02*
X178000000Y-106500000I8500000J0D01*
G01*
X89000000Y-106500000D02*
G75*
G02*
X97500000Y-115000000I0J-8500000D01*
G01*
X172000092Y-63020889D02*
G75*
G02*
X169500000Y-57000000I5999908J6020889D01*
G01*
X97500000Y-57000000D02*
G75*
G02*
X89000000Y-65500000I-8500000J0D01*
G01*
X169500000Y-115000000D02*
X97500000Y-115000000D01*
X169500000Y-57000000D02*
X97500000Y-57000000D01*
X89000000Y-65500000D02*
X89000000Y-106500000D01*
%TO.C,R304*%
G36*
G01*
X90825000Y-95025000D02*
X90825000Y-95575000D01*
G75*
G02*
X90625000Y-95775000I-200000J0D01*
G01*
X90225000Y-95775000D01*
G75*
G02*
X90025000Y-95575000I0J200000D01*
G01*
X90025000Y-95025000D01*
G75*
G02*
X90225000Y-94825000I200000J0D01*
G01*
X90625000Y-94825000D01*
G75*
G02*
X90825000Y-95025000I0J-200000D01*
G01*
G37*
G36*
G01*
X92475000Y-95025000D02*
X92475000Y-95575000D01*
G75*
G02*
X92275000Y-95775000I-200000J0D01*
G01*
X91875000Y-95775000D01*
G75*
G02*
X91675000Y-95575000I0J200000D01*
G01*
X91675000Y-95025000D01*
G75*
G02*
X91875000Y-94825000I200000J0D01*
G01*
X92275000Y-94825000D01*
G75*
G02*
X92475000Y-95025000I0J-200000D01*
G01*
G37*
%TD*%
%TO.C,L302*%
G36*
G01*
X98125000Y-95625000D02*
X98125000Y-97775000D01*
G75*
G02*
X97875000Y-98025000I-250000J0D01*
G01*
X97125000Y-98025000D01*
G75*
G02*
X96875000Y-97775000I0J250000D01*
G01*
X96875000Y-95625000D01*
G75*
G02*
X97125000Y-95375000I250000J0D01*
G01*
X97875000Y-95375000D01*
G75*
G02*
X98125000Y-95625000I0J-250000D01*
G01*
G37*
G36*
G01*
X100925000Y-95625000D02*
X100925000Y-97775000D01*
G75*
G02*
X100675000Y-98025000I-250000J0D01*
G01*
X99925000Y-98025000D01*
G75*
G02*
X99675000Y-97775000I0J250000D01*
G01*
X99675000Y-95625000D01*
G75*
G02*
X99925000Y-95375000I250000J0D01*
G01*
X100675000Y-95375000D01*
G75*
G02*
X100925000Y-95625000I0J-250000D01*
G01*
G37*
%TD*%
%TO.C,L301*%
G36*
G01*
X102195000Y-90232500D02*
X100045000Y-90232500D01*
G75*
G02*
X99795000Y-89982500I0J250000D01*
G01*
X99795000Y-89232500D01*
G75*
G02*
X100045000Y-88982500I250000J0D01*
G01*
X102195000Y-88982500D01*
G75*
G02*
X102445000Y-89232500I0J-250000D01*
G01*
X102445000Y-89982500D01*
G75*
G02*
X102195000Y-90232500I-250000J0D01*
G01*
G37*
G36*
G01*
X102195000Y-93032500D02*
X100045000Y-93032500D01*
G75*
G02*
X99795000Y-92782500I0J250000D01*
G01*
X99795000Y-92032500D01*
G75*
G02*
X100045000Y-91782500I250000J0D01*
G01*
X102195000Y-91782500D01*
G75*
G02*
X102445000Y-92032500I0J-250000D01*
G01*
X102445000Y-92782500D01*
G75*
G02*
X102195000Y-93032500I-250000J0D01*
G01*
G37*
%TD*%
%TO.C,C308*%
G36*
G01*
X91150000Y-96699999D02*
X91150000Y-98000001D01*
G75*
G02*
X90900001Y-98250000I-249999J0D01*
G01*
X90249999Y-98250000D01*
G75*
G02*
X90000000Y-98000001I0J249999D01*
G01*
X90000000Y-96699999D01*
G75*
G02*
X90249999Y-96450000I249999J0D01*
G01*
X90900001Y-96450000D01*
G75*
G02*
X91150000Y-96699999I0J-249999D01*
G01*
G37*
G36*
G01*
X94100000Y-96699999D02*
X94100000Y-98000001D01*
G75*
G02*
X93850001Y-98250000I-249999J0D01*
G01*
X93199999Y-98250000D01*
G75*
G02*
X92950000Y-98000001I0J249999D01*
G01*
X92950000Y-96699999D01*
G75*
G02*
X93199999Y-96450000I249999J0D01*
G01*
X93850001Y-96450000D01*
G75*
G02*
X94100000Y-96699999I0J-249999D01*
G01*
G37*
%TD*%
%TO.C,C307*%
G36*
G01*
X95975000Y-96400000D02*
X95025000Y-96400000D01*
G75*
G02*
X94775000Y-96150000I0J250000D01*
G01*
X94775000Y-95650000D01*
G75*
G02*
X95025000Y-95400000I250000J0D01*
G01*
X95975000Y-95400000D01*
G75*
G02*
X96225000Y-95650000I0J-250000D01*
G01*
X96225000Y-96150000D01*
G75*
G02*
X95975000Y-96400000I-250000J0D01*
G01*
G37*
G36*
G01*
X95975000Y-98300000D02*
X95025000Y-98300000D01*
G75*
G02*
X94775000Y-98050000I0J250000D01*
G01*
X94775000Y-97550000D01*
G75*
G02*
X95025000Y-97300000I250000J0D01*
G01*
X95975000Y-97300000D01*
G75*
G02*
X96225000Y-97550000I0J-250000D01*
G01*
X96225000Y-98050000D01*
G75*
G02*
X95975000Y-98300000I-250000J0D01*
G01*
G37*
%TD*%
%TO.C,C306*%
G36*
G01*
X101875000Y-97000000D02*
X102825000Y-97000000D01*
G75*
G02*
X103075000Y-97250000I0J-250000D01*
G01*
X103075000Y-97750000D01*
G75*
G02*
X102825000Y-98000000I-250000J0D01*
G01*
X101875000Y-98000000D01*
G75*
G02*
X101625000Y-97750000I0J250000D01*
G01*
X101625000Y-97250000D01*
G75*
G02*
X101875000Y-97000000I250000J0D01*
G01*
G37*
G36*
G01*
X101875000Y-95100000D02*
X102825000Y-95100000D01*
G75*
G02*
X103075000Y-95350000I0J-250000D01*
G01*
X103075000Y-95850000D01*
G75*
G02*
X102825000Y-96100000I-250000J0D01*
G01*
X101875000Y-96100000D01*
G75*
G02*
X101625000Y-95850000I0J250000D01*
G01*
X101625000Y-95350000D01*
G75*
G02*
X101875000Y-95100000I250000J0D01*
G01*
G37*
%TD*%
%TO.C,F301*%
G36*
G01*
X95669998Y-106625000D02*
X98570002Y-106625000D01*
G75*
G02*
X98820000Y-106874998I0J-249998D01*
G01*
X98820000Y-107500002D01*
G75*
G02*
X98570002Y-107750000I-249998J0D01*
G01*
X95669998Y-107750000D01*
G75*
G02*
X95420000Y-107500002I0J249998D01*
G01*
X95420000Y-106874998D01*
G75*
G02*
X95669998Y-106625000I249998J0D01*
G01*
G37*
G36*
G01*
X95669998Y-102350000D02*
X98570002Y-102350000D01*
G75*
G02*
X98820000Y-102599998I0J-249998D01*
G01*
X98820000Y-103225002D01*
G75*
G02*
X98570002Y-103475000I-249998J0D01*
G01*
X95669998Y-103475000D01*
G75*
G02*
X95420000Y-103225002I0J249998D01*
G01*
X95420000Y-102599998D01*
G75*
G02*
X95669998Y-102350000I249998J0D01*
G01*
G37*
%TD*%
%TO.C,F601*%
G36*
G01*
X119575000Y-106980002D02*
X119575000Y-104079998D01*
G75*
G02*
X119824998Y-103830000I249998J0D01*
G01*
X120450002Y-103830000D01*
G75*
G02*
X120700000Y-104079998I0J-249998D01*
G01*
X120700000Y-106980002D01*
G75*
G02*
X120450002Y-107230000I-249998J0D01*
G01*
X119824998Y-107230000D01*
G75*
G02*
X119575000Y-106980002I0J249998D01*
G01*
G37*
G36*
G01*
X115300000Y-106980002D02*
X115300000Y-104079998D01*
G75*
G02*
X115549998Y-103830000I249998J0D01*
G01*
X116175002Y-103830000D01*
G75*
G02*
X116425000Y-104079998I0J-249998D01*
G01*
X116425000Y-106980002D01*
G75*
G02*
X116175002Y-107230000I-249998J0D01*
G01*
X115549998Y-107230000D01*
G75*
G02*
X115300000Y-106980002I0J249998D01*
G01*
G37*
%TD*%
D11*
%TO.C,D201*%
X128910000Y-89900000D03*
X125610000Y-89900000D03*
%TD*%
%TO.C,R202*%
G36*
G01*
X167443750Y-87275000D02*
X167956250Y-87275000D01*
G75*
G02*
X168175000Y-87493750I0J-218750D01*
G01*
X168175000Y-87931250D01*
G75*
G02*
X167956250Y-88150000I-218750J0D01*
G01*
X167443750Y-88150000D01*
G75*
G02*
X167225000Y-87931250I0J218750D01*
G01*
X167225000Y-87493750D01*
G75*
G02*
X167443750Y-87275000I218750J0D01*
G01*
G37*
G36*
G01*
X167443750Y-88850000D02*
X167956250Y-88850000D01*
G75*
G02*
X168175000Y-89068750I0J-218750D01*
G01*
X168175000Y-89506250D01*
G75*
G02*
X167956250Y-89725000I-218750J0D01*
G01*
X167443750Y-89725000D01*
G75*
G02*
X167225000Y-89506250I0J218750D01*
G01*
X167225000Y-89068750D01*
G75*
G02*
X167443750Y-88850000I218750J0D01*
G01*
G37*
%TD*%
D12*
%TO.C,U201*%
X163072999Y-75080000D03*
D13*
X170572999Y-67080000D03*
X169302999Y-67080000D03*
X168032999Y-67080000D03*
X166762999Y-67080000D03*
X165492999Y-67080000D03*
X164222999Y-67080000D03*
X162952999Y-67080000D03*
X161682999Y-67080000D03*
X160412999Y-67080000D03*
X159142999Y-67080000D03*
X157872999Y-67080000D03*
X156602999Y-67080000D03*
X155332999Y-67080000D03*
X154062999Y-67080000D03*
D14*
X152562999Y-70365000D03*
X152562999Y-71635000D03*
X152562999Y-72905000D03*
X152562999Y-74175000D03*
X152562999Y-75445000D03*
X152562999Y-76715000D03*
X152562999Y-77985000D03*
X152562999Y-79255000D03*
X152562999Y-80525000D03*
X152562999Y-81795000D03*
D13*
X154062999Y-85080000D03*
X155332999Y-85080000D03*
X156602999Y-85080000D03*
X157872999Y-85080000D03*
X159142999Y-85080000D03*
X160412999Y-85080000D03*
X161682999Y-85080000D03*
X162952999Y-85080000D03*
X164222999Y-85080000D03*
X165492999Y-85080000D03*
X166762999Y-85080000D03*
X168032999Y-85080000D03*
X169302999Y-85080000D03*
X170572999Y-85080000D03*
%TD*%
%TO.C,C1006*%
G36*
G01*
X172740000Y-106222500D02*
X172740000Y-105877500D01*
G75*
G02*
X172887500Y-105730000I147500J0D01*
G01*
X173182500Y-105730000D01*
G75*
G02*
X173330000Y-105877500I0J-147500D01*
G01*
X173330000Y-106222500D01*
G75*
G02*
X173182500Y-106370000I-147500J0D01*
G01*
X172887500Y-106370000D01*
G75*
G02*
X172740000Y-106222500I0J147500D01*
G01*
G37*
G36*
G01*
X171770000Y-106222500D02*
X171770000Y-105877500D01*
G75*
G02*
X171917500Y-105730000I147500J0D01*
G01*
X172212500Y-105730000D01*
G75*
G02*
X172360000Y-105877500I0J-147500D01*
G01*
X172360000Y-106222500D01*
G75*
G02*
X172212500Y-106370000I-147500J0D01*
G01*
X171917500Y-106370000D01*
G75*
G02*
X171770000Y-106222500I0J147500D01*
G01*
G37*
%TD*%
%TO.C,D502*%
G36*
G01*
X174850000Y-102543750D02*
X174850000Y-103056250D01*
G75*
G02*
X174631250Y-103275000I-218750J0D01*
G01*
X174193750Y-103275000D01*
G75*
G02*
X173975000Y-103056250I0J218750D01*
G01*
X173975000Y-102543750D01*
G75*
G02*
X174193750Y-102325000I218750J0D01*
G01*
X174631250Y-102325000D01*
G75*
G02*
X174850000Y-102543750I0J-218750D01*
G01*
G37*
G36*
G01*
X176425000Y-102543750D02*
X176425000Y-103056250D01*
G75*
G02*
X176206250Y-103275000I-218750J0D01*
G01*
X175768750Y-103275000D01*
G75*
G02*
X175550000Y-103056250I0J218750D01*
G01*
X175550000Y-102543750D01*
G75*
G02*
X175768750Y-102325000I218750J0D01*
G01*
X176206250Y-102325000D01*
G75*
G02*
X176425000Y-102543750I0J-218750D01*
G01*
G37*
%TD*%
%TO.C,FB902*%
G36*
G01*
X131156250Y-106840000D02*
X130243750Y-106840000D01*
G75*
G02*
X130000000Y-106596250I0J243750D01*
G01*
X130000000Y-106108750D01*
G75*
G02*
X130243750Y-105865000I243750J0D01*
G01*
X131156250Y-105865000D01*
G75*
G02*
X131400000Y-106108750I0J-243750D01*
G01*
X131400000Y-106596250D01*
G75*
G02*
X131156250Y-106840000I-243750J0D01*
G01*
G37*
G36*
G01*
X131156250Y-108715000D02*
X130243750Y-108715000D01*
G75*
G02*
X130000000Y-108471250I0J243750D01*
G01*
X130000000Y-107983750D01*
G75*
G02*
X130243750Y-107740000I243750J0D01*
G01*
X131156250Y-107740000D01*
G75*
G02*
X131400000Y-107983750I0J-243750D01*
G01*
X131400000Y-108471250D01*
G75*
G02*
X131156250Y-108715000I-243750J0D01*
G01*
G37*
%TD*%
D15*
%TO.C,D902*%
X128420000Y-101300000D03*
X128420000Y-104100000D03*
%TD*%
%TO.C,R602*%
G36*
G01*
X111500000Y-101049998D02*
X111500000Y-101950002D01*
G75*
G02*
X111250002Y-102200000I-249998J0D01*
G01*
X110724998Y-102200000D01*
G75*
G02*
X110475000Y-101950002I0J249998D01*
G01*
X110475000Y-101049998D01*
G75*
G02*
X110724998Y-100800000I249998J0D01*
G01*
X111250002Y-100800000D01*
G75*
G02*
X111500000Y-101049998I0J-249998D01*
G01*
G37*
G36*
G01*
X113325000Y-101049998D02*
X113325000Y-101950002D01*
G75*
G02*
X113075002Y-102200000I-249998J0D01*
G01*
X112549998Y-102200000D01*
G75*
G02*
X112300000Y-101950002I0J249998D01*
G01*
X112300000Y-101049998D01*
G75*
G02*
X112549998Y-100800000I249998J0D01*
G01*
X113075002Y-100800000D01*
G75*
G02*
X113325000Y-101049998I0J-249998D01*
G01*
G37*
%TD*%
%TO.C,R601*%
G36*
G01*
X111500000Y-103049998D02*
X111500000Y-103950002D01*
G75*
G02*
X111250002Y-104200000I-249998J0D01*
G01*
X110724998Y-104200000D01*
G75*
G02*
X110475000Y-103950002I0J249998D01*
G01*
X110475000Y-103049998D01*
G75*
G02*
X110724998Y-102800000I249998J0D01*
G01*
X111250002Y-102800000D01*
G75*
G02*
X111500000Y-103049998I0J-249998D01*
G01*
G37*
G36*
G01*
X113325000Y-103049998D02*
X113325000Y-103950002D01*
G75*
G02*
X113075002Y-104200000I-249998J0D01*
G01*
X112549998Y-104200000D01*
G75*
G02*
X112300000Y-103950002I0J249998D01*
G01*
X112300000Y-103049998D01*
G75*
G02*
X112549998Y-102800000I249998J0D01*
G01*
X113075002Y-102800000D01*
G75*
G02*
X113325000Y-103049998I0J-249998D01*
G01*
G37*
%TD*%
D16*
%TO.C,D602*%
X117745000Y-102780500D03*
X117745000Y-99480500D03*
%TD*%
%TO.C,R906*%
G36*
G01*
X134650000Y-105710002D02*
X134650000Y-104809998D01*
G75*
G02*
X134899998Y-104560000I249998J0D01*
G01*
X135425002Y-104560000D01*
G75*
G02*
X135675000Y-104809998I0J-249998D01*
G01*
X135675000Y-105710002D01*
G75*
G02*
X135425002Y-105960000I-249998J0D01*
G01*
X134899998Y-105960000D01*
G75*
G02*
X134650000Y-105710002I0J249998D01*
G01*
G37*
G36*
G01*
X132825000Y-105710002D02*
X132825000Y-104809998D01*
G75*
G02*
X133074998Y-104560000I249998J0D01*
G01*
X133600002Y-104560000D01*
G75*
G02*
X133850000Y-104809998I0J-249998D01*
G01*
X133850000Y-105710002D01*
G75*
G02*
X133600002Y-105960000I-249998J0D01*
G01*
X133074998Y-105960000D01*
G75*
G02*
X132825000Y-105710002I0J249998D01*
G01*
G37*
%TD*%
%TO.C,C1022*%
G36*
G01*
X148992000Y-86507500D02*
X148992000Y-86162500D01*
G75*
G02*
X149139500Y-86015000I147500J0D01*
G01*
X149434500Y-86015000D01*
G75*
G02*
X149582000Y-86162500I0J-147500D01*
G01*
X149582000Y-86507500D01*
G75*
G02*
X149434500Y-86655000I-147500J0D01*
G01*
X149139500Y-86655000D01*
G75*
G02*
X148992000Y-86507500I0J147500D01*
G01*
G37*
G36*
G01*
X148022000Y-86507500D02*
X148022000Y-86162500D01*
G75*
G02*
X148169500Y-86015000I147500J0D01*
G01*
X148464500Y-86015000D01*
G75*
G02*
X148612000Y-86162500I0J-147500D01*
G01*
X148612000Y-86507500D01*
G75*
G02*
X148464500Y-86655000I-147500J0D01*
G01*
X148169500Y-86655000D01*
G75*
G02*
X148022000Y-86507500I0J147500D01*
G01*
G37*
%TD*%
%TO.C,R1103*%
G36*
G01*
X150140000Y-79925000D02*
X150140000Y-79555000D01*
G75*
G02*
X150275000Y-79420000I135000J0D01*
G01*
X150545000Y-79420000D01*
G75*
G02*
X150680000Y-79555000I0J-135000D01*
G01*
X150680000Y-79925000D01*
G75*
G02*
X150545000Y-80060000I-135000J0D01*
G01*
X150275000Y-80060000D01*
G75*
G02*
X150140000Y-79925000I0J135000D01*
G01*
G37*
G36*
G01*
X149120000Y-79925000D02*
X149120000Y-79555000D01*
G75*
G02*
X149255000Y-79420000I135000J0D01*
G01*
X149525000Y-79420000D01*
G75*
G02*
X149660000Y-79555000I0J-135000D01*
G01*
X149660000Y-79925000D01*
G75*
G02*
X149525000Y-80060000I-135000J0D01*
G01*
X149255000Y-80060000D01*
G75*
G02*
X149120000Y-79925000I0J135000D01*
G01*
G37*
%TD*%
D17*
%TO.C,D1102*%
X154400000Y-99845000D03*
X153900000Y-98555000D03*
X153400000Y-99845000D03*
%TD*%
D18*
%TO.C,D1101*%
X149155000Y-81840000D03*
X150445000Y-81340000D03*
X149155000Y-80840000D03*
%TD*%
%TO.C,R905*%
G36*
G01*
X128910002Y-106890000D02*
X128009998Y-106890000D01*
G75*
G02*
X127760000Y-106640002I0J249998D01*
G01*
X127760000Y-106114998D01*
G75*
G02*
X128009998Y-105865000I249998J0D01*
G01*
X128910002Y-105865000D01*
G75*
G02*
X129160000Y-106114998I0J-249998D01*
G01*
X129160000Y-106640002D01*
G75*
G02*
X128910002Y-106890000I-249998J0D01*
G01*
G37*
G36*
G01*
X128910002Y-108715000D02*
X128009998Y-108715000D01*
G75*
G02*
X127760000Y-108465002I0J249998D01*
G01*
X127760000Y-107939998D01*
G75*
G02*
X128009998Y-107690000I249998J0D01*
G01*
X128910002Y-107690000D01*
G75*
G02*
X129160000Y-107939998I0J-249998D01*
G01*
X129160000Y-108465002D01*
G75*
G02*
X128910002Y-108715000I-249998J0D01*
G01*
G37*
%TD*%
%TO.C,U401*%
G36*
G01*
X166976500Y-97814000D02*
X167276500Y-97814000D01*
G75*
G02*
X167426500Y-97964000I0J-150000D01*
G01*
X167426500Y-99614000D01*
G75*
G02*
X167276500Y-99764000I-150000J0D01*
G01*
X166976500Y-99764000D01*
G75*
G02*
X166826500Y-99614000I0J150000D01*
G01*
X166826500Y-97964000D01*
G75*
G02*
X166976500Y-97814000I150000J0D01*
G01*
G37*
G36*
G01*
X165706500Y-97814000D02*
X166006500Y-97814000D01*
G75*
G02*
X166156500Y-97964000I0J-150000D01*
G01*
X166156500Y-99614000D01*
G75*
G02*
X166006500Y-99764000I-150000J0D01*
G01*
X165706500Y-99764000D01*
G75*
G02*
X165556500Y-99614000I0J150000D01*
G01*
X165556500Y-97964000D01*
G75*
G02*
X165706500Y-97814000I150000J0D01*
G01*
G37*
G36*
G01*
X164436500Y-97814000D02*
X164736500Y-97814000D01*
G75*
G02*
X164886500Y-97964000I0J-150000D01*
G01*
X164886500Y-99614000D01*
G75*
G02*
X164736500Y-99764000I-150000J0D01*
G01*
X164436500Y-99764000D01*
G75*
G02*
X164286500Y-99614000I0J150000D01*
G01*
X164286500Y-97964000D01*
G75*
G02*
X164436500Y-97814000I150000J0D01*
G01*
G37*
G36*
G01*
X163166500Y-97814000D02*
X163466500Y-97814000D01*
G75*
G02*
X163616500Y-97964000I0J-150000D01*
G01*
X163616500Y-99614000D01*
G75*
G02*
X163466500Y-99764000I-150000J0D01*
G01*
X163166500Y-99764000D01*
G75*
G02*
X163016500Y-99614000I0J150000D01*
G01*
X163016500Y-97964000D01*
G75*
G02*
X163166500Y-97814000I150000J0D01*
G01*
G37*
G36*
G01*
X161896500Y-97814000D02*
X162196500Y-97814000D01*
G75*
G02*
X162346500Y-97964000I0J-150000D01*
G01*
X162346500Y-99614000D01*
G75*
G02*
X162196500Y-99764000I-150000J0D01*
G01*
X161896500Y-99764000D01*
G75*
G02*
X161746500Y-99614000I0J150000D01*
G01*
X161746500Y-97964000D01*
G75*
G02*
X161896500Y-97814000I150000J0D01*
G01*
G37*
G36*
G01*
X160626500Y-97814000D02*
X160926500Y-97814000D01*
G75*
G02*
X161076500Y-97964000I0J-150000D01*
G01*
X161076500Y-99614000D01*
G75*
G02*
X160926500Y-99764000I-150000J0D01*
G01*
X160626500Y-99764000D01*
G75*
G02*
X160476500Y-99614000I0J150000D01*
G01*
X160476500Y-97964000D01*
G75*
G02*
X160626500Y-97814000I150000J0D01*
G01*
G37*
G36*
G01*
X159356500Y-97814000D02*
X159656500Y-97814000D01*
G75*
G02*
X159806500Y-97964000I0J-150000D01*
G01*
X159806500Y-99614000D01*
G75*
G02*
X159656500Y-99764000I-150000J0D01*
G01*
X159356500Y-99764000D01*
G75*
G02*
X159206500Y-99614000I0J150000D01*
G01*
X159206500Y-97964000D01*
G75*
G02*
X159356500Y-97814000I150000J0D01*
G01*
G37*
G36*
G01*
X158086500Y-97814000D02*
X158386500Y-97814000D01*
G75*
G02*
X158536500Y-97964000I0J-150000D01*
G01*
X158536500Y-99614000D01*
G75*
G02*
X158386500Y-99764000I-150000J0D01*
G01*
X158086500Y-99764000D01*
G75*
G02*
X157936500Y-99614000I0J150000D01*
G01*
X157936500Y-97964000D01*
G75*
G02*
X158086500Y-97814000I150000J0D01*
G01*
G37*
G36*
G01*
X158086500Y-92864000D02*
X158386500Y-92864000D01*
G75*
G02*
X158536500Y-93014000I0J-150000D01*
G01*
X158536500Y-94664000D01*
G75*
G02*
X158386500Y-94814000I-150000J0D01*
G01*
X158086500Y-94814000D01*
G75*
G02*
X157936500Y-94664000I0J150000D01*
G01*
X157936500Y-93014000D01*
G75*
G02*
X158086500Y-92864000I150000J0D01*
G01*
G37*
G36*
G01*
X159356500Y-92864000D02*
X159656500Y-92864000D01*
G75*
G02*
X159806500Y-93014000I0J-150000D01*
G01*
X159806500Y-94664000D01*
G75*
G02*
X159656500Y-94814000I-150000J0D01*
G01*
X159356500Y-94814000D01*
G75*
G02*
X159206500Y-94664000I0J150000D01*
G01*
X159206500Y-93014000D01*
G75*
G02*
X159356500Y-92864000I150000J0D01*
G01*
G37*
G36*
G01*
X160626500Y-92864000D02*
X160926500Y-92864000D01*
G75*
G02*
X161076500Y-93014000I0J-150000D01*
G01*
X161076500Y-94664000D01*
G75*
G02*
X160926500Y-94814000I-150000J0D01*
G01*
X160626500Y-94814000D01*
G75*
G02*
X160476500Y-94664000I0J150000D01*
G01*
X160476500Y-93014000D01*
G75*
G02*
X160626500Y-92864000I150000J0D01*
G01*
G37*
G36*
G01*
X161896500Y-92864000D02*
X162196500Y-92864000D01*
G75*
G02*
X162346500Y-93014000I0J-150000D01*
G01*
X162346500Y-94664000D01*
G75*
G02*
X162196500Y-94814000I-150000J0D01*
G01*
X161896500Y-94814000D01*
G75*
G02*
X161746500Y-94664000I0J150000D01*
G01*
X161746500Y-93014000D01*
G75*
G02*
X161896500Y-92864000I150000J0D01*
G01*
G37*
G36*
G01*
X163166500Y-92864000D02*
X163466500Y-92864000D01*
G75*
G02*
X163616500Y-93014000I0J-150000D01*
G01*
X163616500Y-94664000D01*
G75*
G02*
X163466500Y-94814000I-150000J0D01*
G01*
X163166500Y-94814000D01*
G75*
G02*
X163016500Y-94664000I0J150000D01*
G01*
X163016500Y-93014000D01*
G75*
G02*
X163166500Y-92864000I150000J0D01*
G01*
G37*
G36*
G01*
X164436500Y-92864000D02*
X164736500Y-92864000D01*
G75*
G02*
X164886500Y-93014000I0J-150000D01*
G01*
X164886500Y-94664000D01*
G75*
G02*
X164736500Y-94814000I-150000J0D01*
G01*
X164436500Y-94814000D01*
G75*
G02*
X164286500Y-94664000I0J150000D01*
G01*
X164286500Y-93014000D01*
G75*
G02*
X164436500Y-92864000I150000J0D01*
G01*
G37*
G36*
G01*
X165706500Y-92864000D02*
X166006500Y-92864000D01*
G75*
G02*
X166156500Y-93014000I0J-150000D01*
G01*
X166156500Y-94664000D01*
G75*
G02*
X166006500Y-94814000I-150000J0D01*
G01*
X165706500Y-94814000D01*
G75*
G02*
X165556500Y-94664000I0J150000D01*
G01*
X165556500Y-93014000D01*
G75*
G02*
X165706500Y-92864000I150000J0D01*
G01*
G37*
G36*
G01*
X166976500Y-92864000D02*
X167276500Y-92864000D01*
G75*
G02*
X167426500Y-93014000I0J-150000D01*
G01*
X167426500Y-94664000D01*
G75*
G02*
X167276500Y-94814000I-150000J0D01*
G01*
X166976500Y-94814000D01*
G75*
G02*
X166826500Y-94664000I0J150000D01*
G01*
X166826500Y-93014000D01*
G75*
G02*
X166976500Y-92864000I150000J0D01*
G01*
G37*
%TD*%
%TO.C,C503*%
G36*
G01*
X170093750Y-105050000D02*
X171006250Y-105050000D01*
G75*
G02*
X171250000Y-105293750I0J-243750D01*
G01*
X171250000Y-105781250D01*
G75*
G02*
X171006250Y-106025000I-243750J0D01*
G01*
X170093750Y-106025000D01*
G75*
G02*
X169850000Y-105781250I0J243750D01*
G01*
X169850000Y-105293750D01*
G75*
G02*
X170093750Y-105050000I243750J0D01*
G01*
G37*
G36*
G01*
X170093750Y-103175000D02*
X171006250Y-103175000D01*
G75*
G02*
X171250000Y-103418750I0J-243750D01*
G01*
X171250000Y-103906250D01*
G75*
G02*
X171006250Y-104150000I-243750J0D01*
G01*
X170093750Y-104150000D01*
G75*
G02*
X169850000Y-103906250I0J243750D01*
G01*
X169850000Y-103418750D01*
G75*
G02*
X170093750Y-103175000I243750J0D01*
G01*
G37*
%TD*%
%TO.C,F401*%
G36*
G01*
X172138500Y-102609000D02*
X170888500Y-102609000D01*
G75*
G02*
X170638500Y-102359000I0J250000D01*
G01*
X170638500Y-101609000D01*
G75*
G02*
X170888500Y-101359000I250000J0D01*
G01*
X172138500Y-101359000D01*
G75*
G02*
X172388500Y-101609000I0J-250000D01*
G01*
X172388500Y-102359000D01*
G75*
G02*
X172138500Y-102609000I-250000J0D01*
G01*
G37*
G36*
G01*
X172138500Y-99809000D02*
X170888500Y-99809000D01*
G75*
G02*
X170638500Y-99559000I0J250000D01*
G01*
X170638500Y-98809000D01*
G75*
G02*
X170888500Y-98559000I250000J0D01*
G01*
X172138500Y-98559000D01*
G75*
G02*
X172388500Y-98809000I0J-250000D01*
G01*
X172388500Y-99559000D01*
G75*
G02*
X172138500Y-99809000I-250000J0D01*
G01*
G37*
%TD*%
D11*
%TO.C,D303*%
X97300000Y-99600000D03*
X100600000Y-99600000D03*
%TD*%
%TO.C,FB401*%
G36*
G01*
X168898250Y-98460500D02*
X169810750Y-98460500D01*
G75*
G02*
X170054500Y-98704250I0J-243750D01*
G01*
X170054500Y-99191750D01*
G75*
G02*
X169810750Y-99435500I-243750J0D01*
G01*
X168898250Y-99435500D01*
G75*
G02*
X168654500Y-99191750I0J243750D01*
G01*
X168654500Y-98704250D01*
G75*
G02*
X168898250Y-98460500I243750J0D01*
G01*
G37*
G36*
G01*
X168898250Y-100335500D02*
X169810750Y-100335500D01*
G75*
G02*
X170054500Y-100579250I0J-243750D01*
G01*
X170054500Y-101066750D01*
G75*
G02*
X169810750Y-101310500I-243750J0D01*
G01*
X168898250Y-101310500D01*
G75*
G02*
X168654500Y-101066750I0J243750D01*
G01*
X168654500Y-100579250D01*
G75*
G02*
X168898250Y-100335500I243750J0D01*
G01*
G37*
%TD*%
D19*
%TO.C,U402*%
X171266000Y-96956500D03*
X171266000Y-97456500D03*
D20*
X171291000Y-96456500D03*
D19*
X170491000Y-97456500D03*
X171266000Y-95956500D03*
X171266000Y-95456500D03*
X170491000Y-96956500D03*
X170491000Y-95456500D03*
D21*
X170528500Y-96456500D03*
D19*
X170491000Y-95956500D03*
%TD*%
D22*
%TO.C,U701*%
X143570000Y-96112500D03*
D23*
X143070000Y-96150000D03*
D22*
X144070000Y-96112500D03*
X142570000Y-96112500D03*
X144070000Y-96887500D03*
X143570000Y-96887500D03*
X142070000Y-96112500D03*
D24*
X143070000Y-96912500D03*
D22*
X142070000Y-96887500D03*
X142570000Y-96887500D03*
%TD*%
%TO.C,U902*%
G36*
G01*
X134516000Y-95796000D02*
X134216000Y-95796000D01*
G75*
G02*
X134066000Y-95646000I0J150000D01*
G01*
X134066000Y-94321000D01*
G75*
G02*
X134216000Y-94171000I150000J0D01*
G01*
X134516000Y-94171000D01*
G75*
G02*
X134666000Y-94321000I0J-150000D01*
G01*
X134666000Y-95646000D01*
G75*
G02*
X134516000Y-95796000I-150000J0D01*
G01*
G37*
G36*
G01*
X135786000Y-95796000D02*
X135486000Y-95796000D01*
G75*
G02*
X135336000Y-95646000I0J150000D01*
G01*
X135336000Y-94321000D01*
G75*
G02*
X135486000Y-94171000I150000J0D01*
G01*
X135786000Y-94171000D01*
G75*
G02*
X135936000Y-94321000I0J-150000D01*
G01*
X135936000Y-95646000D01*
G75*
G02*
X135786000Y-95796000I-150000J0D01*
G01*
G37*
G36*
G01*
X135786000Y-102171000D02*
X135486000Y-102171000D01*
G75*
G02*
X135336000Y-102021000I0J150000D01*
G01*
X135336000Y-100696000D01*
G75*
G02*
X135486000Y-100546000I150000J0D01*
G01*
X135786000Y-100546000D01*
G75*
G02*
X135936000Y-100696000I0J-150000D01*
G01*
X135936000Y-102021000D01*
G75*
G02*
X135786000Y-102171000I-150000J0D01*
G01*
G37*
G36*
G01*
X134516000Y-102171000D02*
X134216000Y-102171000D01*
G75*
G02*
X134066000Y-102021000I0J150000D01*
G01*
X134066000Y-100696000D01*
G75*
G02*
X134216000Y-100546000I150000J0D01*
G01*
X134516000Y-100546000D01*
G75*
G02*
X134666000Y-100696000I0J-150000D01*
G01*
X134666000Y-102021000D01*
G75*
G02*
X134516000Y-102171000I-150000J0D01*
G01*
G37*
%TD*%
%TO.C,U901*%
G36*
G01*
X138788000Y-100546000D02*
X139088000Y-100546000D01*
G75*
G02*
X139238000Y-100696000I0J-150000D01*
G01*
X139238000Y-102021000D01*
G75*
G02*
X139088000Y-102171000I-150000J0D01*
G01*
X138788000Y-102171000D01*
G75*
G02*
X138638000Y-102021000I0J150000D01*
G01*
X138638000Y-100696000D01*
G75*
G02*
X138788000Y-100546000I150000J0D01*
G01*
G37*
G36*
G01*
X137518000Y-100546000D02*
X137818000Y-100546000D01*
G75*
G02*
X137968000Y-100696000I0J-150000D01*
G01*
X137968000Y-102021000D01*
G75*
G02*
X137818000Y-102171000I-150000J0D01*
G01*
X137518000Y-102171000D01*
G75*
G02*
X137368000Y-102021000I0J150000D01*
G01*
X137368000Y-100696000D01*
G75*
G02*
X137518000Y-100546000I150000J0D01*
G01*
G37*
G36*
G01*
X137518000Y-94171000D02*
X137818000Y-94171000D01*
G75*
G02*
X137968000Y-94321000I0J-150000D01*
G01*
X137968000Y-95646000D01*
G75*
G02*
X137818000Y-95796000I-150000J0D01*
G01*
X137518000Y-95796000D01*
G75*
G02*
X137368000Y-95646000I0J150000D01*
G01*
X137368000Y-94321000D01*
G75*
G02*
X137518000Y-94171000I150000J0D01*
G01*
G37*
G36*
G01*
X138788000Y-94171000D02*
X139088000Y-94171000D01*
G75*
G02*
X139238000Y-94321000I0J-150000D01*
G01*
X139238000Y-95646000D01*
G75*
G02*
X139088000Y-95796000I-150000J0D01*
G01*
X138788000Y-95796000D01*
G75*
G02*
X138638000Y-95646000I0J150000D01*
G01*
X138638000Y-94321000D01*
G75*
G02*
X138788000Y-94171000I150000J0D01*
G01*
G37*
%TD*%
%TO.C,R904*%
G36*
G01*
X134400000Y-107266250D02*
X134400000Y-106753750D01*
G75*
G02*
X134618750Y-106535000I218750J0D01*
G01*
X135056250Y-106535000D01*
G75*
G02*
X135275000Y-106753750I0J-218750D01*
G01*
X135275000Y-107266250D01*
G75*
G02*
X135056250Y-107485000I-218750J0D01*
G01*
X134618750Y-107485000D01*
G75*
G02*
X134400000Y-107266250I0J218750D01*
G01*
G37*
G36*
G01*
X132825000Y-107266250D02*
X132825000Y-106753750D01*
G75*
G02*
X133043750Y-106535000I218750J0D01*
G01*
X133481250Y-106535000D01*
G75*
G02*
X133700000Y-106753750I0J-218750D01*
G01*
X133700000Y-107266250D01*
G75*
G02*
X133481250Y-107485000I-218750J0D01*
G01*
X133043750Y-107485000D01*
G75*
G02*
X132825000Y-107266250I0J218750D01*
G01*
G37*
%TD*%
%TO.C,R903*%
G36*
G01*
X134400000Y-103766250D02*
X134400000Y-103253750D01*
G75*
G02*
X134618750Y-103035000I218750J0D01*
G01*
X135056250Y-103035000D01*
G75*
G02*
X135275000Y-103253750I0J-218750D01*
G01*
X135275000Y-103766250D01*
G75*
G02*
X135056250Y-103985000I-218750J0D01*
G01*
X134618750Y-103985000D01*
G75*
G02*
X134400000Y-103766250I0J218750D01*
G01*
G37*
G36*
G01*
X132825000Y-103766250D02*
X132825000Y-103253750D01*
G75*
G02*
X133043750Y-103035000I218750J0D01*
G01*
X133481250Y-103035000D01*
G75*
G02*
X133700000Y-103253750I0J-218750D01*
G01*
X133700000Y-103766250D01*
G75*
G02*
X133481250Y-103985000I-218750J0D01*
G01*
X133043750Y-103985000D01*
G75*
G02*
X132825000Y-103766250I0J218750D01*
G01*
G37*
%TD*%
D15*
%TO.C,D901*%
X139210000Y-108130000D03*
X136410000Y-108130000D03*
%TD*%
%TO.C,R902*%
G36*
G01*
X130714000Y-93342750D02*
X130714000Y-93855250D01*
G75*
G02*
X130495250Y-94074000I-218750J0D01*
G01*
X130057750Y-94074000D01*
G75*
G02*
X129839000Y-93855250I0J218750D01*
G01*
X129839000Y-93342750D01*
G75*
G02*
X130057750Y-93124000I218750J0D01*
G01*
X130495250Y-93124000D01*
G75*
G02*
X130714000Y-93342750I0J-218750D01*
G01*
G37*
G36*
G01*
X132289000Y-93342750D02*
X132289000Y-93855250D01*
G75*
G02*
X132070250Y-94074000I-218750J0D01*
G01*
X131632750Y-94074000D01*
G75*
G02*
X131414000Y-93855250I0J218750D01*
G01*
X131414000Y-93342750D01*
G75*
G02*
X131632750Y-93124000I218750J0D01*
G01*
X132070250Y-93124000D01*
G75*
G02*
X132289000Y-93342750I0J-218750D01*
G01*
G37*
%TD*%
%TO.C,C1028*%
G36*
G01*
X94494000Y-65782500D02*
X94494000Y-66127500D01*
G75*
G02*
X94346500Y-66275000I-147500J0D01*
G01*
X94051500Y-66275000D01*
G75*
G02*
X93904000Y-66127500I0J147500D01*
G01*
X93904000Y-65782500D01*
G75*
G02*
X94051500Y-65635000I147500J0D01*
G01*
X94346500Y-65635000D01*
G75*
G02*
X94494000Y-65782500I0J-147500D01*
G01*
G37*
G36*
G01*
X95464000Y-65782500D02*
X95464000Y-66127500D01*
G75*
G02*
X95316500Y-66275000I-147500J0D01*
G01*
X95021500Y-66275000D01*
G75*
G02*
X94874000Y-66127500I0J147500D01*
G01*
X94874000Y-65782500D01*
G75*
G02*
X95021500Y-65635000I147500J0D01*
G01*
X95316500Y-65635000D01*
G75*
G02*
X95464000Y-65782500I0J-147500D01*
G01*
G37*
%TD*%
%TO.C,C1027*%
G36*
G01*
X93379500Y-68525000D02*
X93034500Y-68525000D01*
G75*
G02*
X92887000Y-68377500I0J147500D01*
G01*
X92887000Y-68082500D01*
G75*
G02*
X93034500Y-67935000I147500J0D01*
G01*
X93379500Y-67935000D01*
G75*
G02*
X93527000Y-68082500I0J-147500D01*
G01*
X93527000Y-68377500D01*
G75*
G02*
X93379500Y-68525000I-147500J0D01*
G01*
G37*
G36*
G01*
X93379500Y-69495000D02*
X93034500Y-69495000D01*
G75*
G02*
X92887000Y-69347500I0J147500D01*
G01*
X92887000Y-69052500D01*
G75*
G02*
X93034500Y-68905000I147500J0D01*
G01*
X93379500Y-68905000D01*
G75*
G02*
X93527000Y-69052500I0J-147500D01*
G01*
X93527000Y-69347500D01*
G75*
G02*
X93379500Y-69495000I-147500J0D01*
G01*
G37*
%TD*%
%TO.C,C1026*%
G36*
G01*
X103717500Y-95290000D02*
X104062500Y-95290000D01*
G75*
G02*
X104210000Y-95437500I0J-147500D01*
G01*
X104210000Y-95732500D01*
G75*
G02*
X104062500Y-95880000I-147500J0D01*
G01*
X103717500Y-95880000D01*
G75*
G02*
X103570000Y-95732500I0J147500D01*
G01*
X103570000Y-95437500D01*
G75*
G02*
X103717500Y-95290000I147500J0D01*
G01*
G37*
G36*
G01*
X103717500Y-94320000D02*
X104062500Y-94320000D01*
G75*
G02*
X104210000Y-94467500I0J-147500D01*
G01*
X104210000Y-94762500D01*
G75*
G02*
X104062500Y-94910000I-147500J0D01*
G01*
X103717500Y-94910000D01*
G75*
G02*
X103570000Y-94762500I0J147500D01*
G01*
X103570000Y-94467500D01*
G75*
G02*
X103717500Y-94320000I147500J0D01*
G01*
G37*
%TD*%
%TO.C,C1025*%
G36*
G01*
X116877500Y-59740000D02*
X117222500Y-59740000D01*
G75*
G02*
X117370000Y-59887500I0J-147500D01*
G01*
X117370000Y-60182500D01*
G75*
G02*
X117222500Y-60330000I-147500J0D01*
G01*
X116877500Y-60330000D01*
G75*
G02*
X116730000Y-60182500I0J147500D01*
G01*
X116730000Y-59887500D01*
G75*
G02*
X116877500Y-59740000I147500J0D01*
G01*
G37*
G36*
G01*
X116877500Y-58770000D02*
X117222500Y-58770000D01*
G75*
G02*
X117370000Y-58917500I0J-147500D01*
G01*
X117370000Y-59212500D01*
G75*
G02*
X117222500Y-59360000I-147500J0D01*
G01*
X116877500Y-59360000D01*
G75*
G02*
X116730000Y-59212500I0J147500D01*
G01*
X116730000Y-58917500D01*
G75*
G02*
X116877500Y-58770000I147500J0D01*
G01*
G37*
%TD*%
%TO.C,C1024*%
G36*
G01*
X172003500Y-92901000D02*
X171658500Y-92901000D01*
G75*
G02*
X171511000Y-92753500I0J147500D01*
G01*
X171511000Y-92458500D01*
G75*
G02*
X171658500Y-92311000I147500J0D01*
G01*
X172003500Y-92311000D01*
G75*
G02*
X172151000Y-92458500I0J-147500D01*
G01*
X172151000Y-92753500D01*
G75*
G02*
X172003500Y-92901000I-147500J0D01*
G01*
G37*
G36*
G01*
X172003500Y-93871000D02*
X171658500Y-93871000D01*
G75*
G02*
X171511000Y-93723500I0J147500D01*
G01*
X171511000Y-93428500D01*
G75*
G02*
X171658500Y-93281000I147500J0D01*
G01*
X172003500Y-93281000D01*
G75*
G02*
X172151000Y-93428500I0J-147500D01*
G01*
X172151000Y-93723500D01*
G75*
G02*
X172003500Y-93871000I-147500J0D01*
G01*
G37*
%TD*%
%TO.C,C1023*%
G36*
G01*
X126048000Y-91585000D02*
X126048000Y-91930000D01*
G75*
G02*
X125900500Y-92077500I-147500J0D01*
G01*
X125605500Y-92077500D01*
G75*
G02*
X125458000Y-91930000I0J147500D01*
G01*
X125458000Y-91585000D01*
G75*
G02*
X125605500Y-91437500I147500J0D01*
G01*
X125900500Y-91437500D01*
G75*
G02*
X126048000Y-91585000I0J-147500D01*
G01*
G37*
G36*
G01*
X127018000Y-91585000D02*
X127018000Y-91930000D01*
G75*
G02*
X126870500Y-92077500I-147500J0D01*
G01*
X126575500Y-92077500D01*
G75*
G02*
X126428000Y-91930000I0J147500D01*
G01*
X126428000Y-91585000D01*
G75*
G02*
X126575500Y-91437500I147500J0D01*
G01*
X126870500Y-91437500D01*
G75*
G02*
X127018000Y-91585000I0J-147500D01*
G01*
G37*
%TD*%
%TO.C,C1021*%
G36*
G01*
X91897500Y-89685000D02*
X91552500Y-89685000D01*
G75*
G02*
X91405000Y-89537500I0J147500D01*
G01*
X91405000Y-89242500D01*
G75*
G02*
X91552500Y-89095000I147500J0D01*
G01*
X91897500Y-89095000D01*
G75*
G02*
X92045000Y-89242500I0J-147500D01*
G01*
X92045000Y-89537500D01*
G75*
G02*
X91897500Y-89685000I-147500J0D01*
G01*
G37*
G36*
G01*
X91897500Y-90655000D02*
X91552500Y-90655000D01*
G75*
G02*
X91405000Y-90507500I0J147500D01*
G01*
X91405000Y-90212500D01*
G75*
G02*
X91552500Y-90065000I147500J0D01*
G01*
X91897500Y-90065000D01*
G75*
G02*
X92045000Y-90212500I0J-147500D01*
G01*
X92045000Y-90507500D01*
G75*
G02*
X91897500Y-90655000I-147500J0D01*
G01*
G37*
%TD*%
%TO.C,C1020*%
G36*
G01*
X166390000Y-100672500D02*
X166390000Y-100327500D01*
G75*
G02*
X166537500Y-100180000I147500J0D01*
G01*
X166832500Y-100180000D01*
G75*
G02*
X166980000Y-100327500I0J-147500D01*
G01*
X166980000Y-100672500D01*
G75*
G02*
X166832500Y-100820000I-147500J0D01*
G01*
X166537500Y-100820000D01*
G75*
G02*
X166390000Y-100672500I0J147500D01*
G01*
G37*
G36*
G01*
X165420000Y-100672500D02*
X165420000Y-100327500D01*
G75*
G02*
X165567500Y-100180000I147500J0D01*
G01*
X165862500Y-100180000D01*
G75*
G02*
X166010000Y-100327500I0J-147500D01*
G01*
X166010000Y-100672500D01*
G75*
G02*
X165862500Y-100820000I-147500J0D01*
G01*
X165567500Y-100820000D01*
G75*
G02*
X165420000Y-100672500I0J147500D01*
G01*
G37*
%TD*%
%TO.C,C1019*%
G36*
G01*
X93426500Y-81195000D02*
X93081500Y-81195000D01*
G75*
G02*
X92934000Y-81047500I0J147500D01*
G01*
X92934000Y-80752500D01*
G75*
G02*
X93081500Y-80605000I147500J0D01*
G01*
X93426500Y-80605000D01*
G75*
G02*
X93574000Y-80752500I0J-147500D01*
G01*
X93574000Y-81047500D01*
G75*
G02*
X93426500Y-81195000I-147500J0D01*
G01*
G37*
G36*
G01*
X93426500Y-82165000D02*
X93081500Y-82165000D01*
G75*
G02*
X92934000Y-82017500I0J147500D01*
G01*
X92934000Y-81722500D01*
G75*
G02*
X93081500Y-81575000I147500J0D01*
G01*
X93426500Y-81575000D01*
G75*
G02*
X93574000Y-81722500I0J-147500D01*
G01*
X93574000Y-82017500D01*
G75*
G02*
X93426500Y-82165000I-147500J0D01*
G01*
G37*
%TD*%
%TO.C,C1018*%
G36*
G01*
X93401500Y-73455000D02*
X93056500Y-73455000D01*
G75*
G02*
X92909000Y-73307500I0J147500D01*
G01*
X92909000Y-73012500D01*
G75*
G02*
X93056500Y-72865000I147500J0D01*
G01*
X93401500Y-72865000D01*
G75*
G02*
X93549000Y-73012500I0J-147500D01*
G01*
X93549000Y-73307500D01*
G75*
G02*
X93401500Y-73455000I-147500J0D01*
G01*
G37*
G36*
G01*
X93401500Y-74425000D02*
X93056500Y-74425000D01*
G75*
G02*
X92909000Y-74277500I0J147500D01*
G01*
X92909000Y-73982500D01*
G75*
G02*
X93056500Y-73835000I147500J0D01*
G01*
X93401500Y-73835000D01*
G75*
G02*
X93549000Y-73982500I0J-147500D01*
G01*
X93549000Y-74277500D01*
G75*
G02*
X93401500Y-74425000I-147500J0D01*
G01*
G37*
%TD*%
%TO.C,C1017*%
G36*
G01*
X104085000Y-63673500D02*
X104085000Y-64018500D01*
G75*
G02*
X103937500Y-64166000I-147500J0D01*
G01*
X103642500Y-64166000D01*
G75*
G02*
X103495000Y-64018500I0J147500D01*
G01*
X103495000Y-63673500D01*
G75*
G02*
X103642500Y-63526000I147500J0D01*
G01*
X103937500Y-63526000D01*
G75*
G02*
X104085000Y-63673500I0J-147500D01*
G01*
G37*
G36*
G01*
X105055000Y-63673500D02*
X105055000Y-64018500D01*
G75*
G02*
X104907500Y-64166000I-147500J0D01*
G01*
X104612500Y-64166000D01*
G75*
G02*
X104465000Y-64018500I0J147500D01*
G01*
X104465000Y-63673500D01*
G75*
G02*
X104612500Y-63526000I147500J0D01*
G01*
X104907500Y-63526000D01*
G75*
G02*
X105055000Y-63673500I0J-147500D01*
G01*
G37*
%TD*%
%TO.C,C1016*%
G36*
G01*
X149705000Y-95511500D02*
X149705000Y-95166500D01*
G75*
G02*
X149852500Y-95019000I147500J0D01*
G01*
X150147500Y-95019000D01*
G75*
G02*
X150295000Y-95166500I0J-147500D01*
G01*
X150295000Y-95511500D01*
G75*
G02*
X150147500Y-95659000I-147500J0D01*
G01*
X149852500Y-95659000D01*
G75*
G02*
X149705000Y-95511500I0J147500D01*
G01*
G37*
G36*
G01*
X148735000Y-95511500D02*
X148735000Y-95166500D01*
G75*
G02*
X148882500Y-95019000I147500J0D01*
G01*
X149177500Y-95019000D01*
G75*
G02*
X149325000Y-95166500I0J-147500D01*
G01*
X149325000Y-95511500D01*
G75*
G02*
X149177500Y-95659000I-147500J0D01*
G01*
X148882500Y-95659000D01*
G75*
G02*
X148735000Y-95511500I0J147500D01*
G01*
G37*
%TD*%
%TO.C,C1015*%
G36*
G01*
X169777500Y-62090000D02*
X170122500Y-62090000D01*
G75*
G02*
X170270000Y-62237500I0J-147500D01*
G01*
X170270000Y-62532500D01*
G75*
G02*
X170122500Y-62680000I-147500J0D01*
G01*
X169777500Y-62680000D01*
G75*
G02*
X169630000Y-62532500I0J147500D01*
G01*
X169630000Y-62237500D01*
G75*
G02*
X169777500Y-62090000I147500J0D01*
G01*
G37*
G36*
G01*
X169777500Y-61120000D02*
X170122500Y-61120000D01*
G75*
G02*
X170270000Y-61267500I0J-147500D01*
G01*
X170270000Y-61562500D01*
G75*
G02*
X170122500Y-61710000I-147500J0D01*
G01*
X169777500Y-61710000D01*
G75*
G02*
X169630000Y-61562500I0J147500D01*
G01*
X169630000Y-61267500D01*
G75*
G02*
X169777500Y-61120000I147500J0D01*
G01*
G37*
%TD*%
%TO.C,C1014*%
G36*
G01*
X170360000Y-63127500D02*
X170360000Y-63472500D01*
G75*
G02*
X170212500Y-63620000I-147500J0D01*
G01*
X169917500Y-63620000D01*
G75*
G02*
X169770000Y-63472500I0J147500D01*
G01*
X169770000Y-63127500D01*
G75*
G02*
X169917500Y-62980000I147500J0D01*
G01*
X170212500Y-62980000D01*
G75*
G02*
X170360000Y-63127500I0J-147500D01*
G01*
G37*
G36*
G01*
X171330000Y-63127500D02*
X171330000Y-63472500D01*
G75*
G02*
X171182500Y-63620000I-147500J0D01*
G01*
X170887500Y-63620000D01*
G75*
G02*
X170740000Y-63472500I0J147500D01*
G01*
X170740000Y-63127500D01*
G75*
G02*
X170887500Y-62980000I147500J0D01*
G01*
X171182500Y-62980000D01*
G75*
G02*
X171330000Y-63127500I0J-147500D01*
G01*
G37*
%TD*%
%TO.C,C1013*%
G36*
G01*
X121332500Y-64250000D02*
X120987500Y-64250000D01*
G75*
G02*
X120840000Y-64102500I0J147500D01*
G01*
X120840000Y-63807500D01*
G75*
G02*
X120987500Y-63660000I147500J0D01*
G01*
X121332500Y-63660000D01*
G75*
G02*
X121480000Y-63807500I0J-147500D01*
G01*
X121480000Y-64102500D01*
G75*
G02*
X121332500Y-64250000I-147500J0D01*
G01*
G37*
G36*
G01*
X121332500Y-65220000D02*
X120987500Y-65220000D01*
G75*
G02*
X120840000Y-65072500I0J147500D01*
G01*
X120840000Y-64777500D01*
G75*
G02*
X120987500Y-64630000I147500J0D01*
G01*
X121332500Y-64630000D01*
G75*
G02*
X121480000Y-64777500I0J-147500D01*
G01*
X121480000Y-65072500D01*
G75*
G02*
X121332500Y-65220000I-147500J0D01*
G01*
G37*
%TD*%
%TO.C,C1012*%
G36*
G01*
X162420000Y-64772500D02*
X162420000Y-64427500D01*
G75*
G02*
X162567500Y-64280000I147500J0D01*
G01*
X162862500Y-64280000D01*
G75*
G02*
X163010000Y-64427500I0J-147500D01*
G01*
X163010000Y-64772500D01*
G75*
G02*
X162862500Y-64920000I-147500J0D01*
G01*
X162567500Y-64920000D01*
G75*
G02*
X162420000Y-64772500I0J147500D01*
G01*
G37*
G36*
G01*
X161450000Y-64772500D02*
X161450000Y-64427500D01*
G75*
G02*
X161597500Y-64280000I147500J0D01*
G01*
X161892500Y-64280000D01*
G75*
G02*
X162040000Y-64427500I0J-147500D01*
G01*
X162040000Y-64772500D01*
G75*
G02*
X161892500Y-64920000I-147500J0D01*
G01*
X161597500Y-64920000D01*
G75*
G02*
X161450000Y-64772500I0J147500D01*
G01*
G37*
%TD*%
%TO.C,C1011*%
G36*
G01*
X149187500Y-77820000D02*
X149532500Y-77820000D01*
G75*
G02*
X149680000Y-77967500I0J-147500D01*
G01*
X149680000Y-78262500D01*
G75*
G02*
X149532500Y-78410000I-147500J0D01*
G01*
X149187500Y-78410000D01*
G75*
G02*
X149040000Y-78262500I0J147500D01*
G01*
X149040000Y-77967500D01*
G75*
G02*
X149187500Y-77820000I147500J0D01*
G01*
G37*
G36*
G01*
X149187500Y-76850000D02*
X149532500Y-76850000D01*
G75*
G02*
X149680000Y-76997500I0J-147500D01*
G01*
X149680000Y-77292500D01*
G75*
G02*
X149532500Y-77440000I-147500J0D01*
G01*
X149187500Y-77440000D01*
G75*
G02*
X149040000Y-77292500I0J147500D01*
G01*
X149040000Y-76997500D01*
G75*
G02*
X149187500Y-76850000I147500J0D01*
G01*
G37*
%TD*%
%TO.C,C1010*%
G36*
G01*
X149267500Y-70900000D02*
X149612500Y-70900000D01*
G75*
G02*
X149760000Y-71047500I0J-147500D01*
G01*
X149760000Y-71342500D01*
G75*
G02*
X149612500Y-71490000I-147500J0D01*
G01*
X149267500Y-71490000D01*
G75*
G02*
X149120000Y-71342500I0J147500D01*
G01*
X149120000Y-71047500D01*
G75*
G02*
X149267500Y-70900000I147500J0D01*
G01*
G37*
G36*
G01*
X149267500Y-69930000D02*
X149612500Y-69930000D01*
G75*
G02*
X149760000Y-70077500I0J-147500D01*
G01*
X149760000Y-70372500D01*
G75*
G02*
X149612500Y-70520000I-147500J0D01*
G01*
X149267500Y-70520000D01*
G75*
G02*
X149120000Y-70372500I0J147500D01*
G01*
X149120000Y-70077500D01*
G75*
G02*
X149267500Y-69930000I147500J0D01*
G01*
G37*
%TD*%
%TO.C,C1009*%
G36*
G01*
X163366500Y-88813000D02*
X163711500Y-88813000D01*
G75*
G02*
X163859000Y-88960500I0J-147500D01*
G01*
X163859000Y-89255500D01*
G75*
G02*
X163711500Y-89403000I-147500J0D01*
G01*
X163366500Y-89403000D01*
G75*
G02*
X163219000Y-89255500I0J147500D01*
G01*
X163219000Y-88960500D01*
G75*
G02*
X163366500Y-88813000I147500J0D01*
G01*
G37*
G36*
G01*
X163366500Y-87843000D02*
X163711500Y-87843000D01*
G75*
G02*
X163859000Y-87990500I0J-147500D01*
G01*
X163859000Y-88285500D01*
G75*
G02*
X163711500Y-88433000I-147500J0D01*
G01*
X163366500Y-88433000D01*
G75*
G02*
X163219000Y-88285500I0J147500D01*
G01*
X163219000Y-87990500D01*
G75*
G02*
X163366500Y-87843000I147500J0D01*
G01*
G37*
%TD*%
%TO.C,C1008*%
G36*
G01*
X170588500Y-88062000D02*
X170933500Y-88062000D01*
G75*
G02*
X171081000Y-88209500I0J-147500D01*
G01*
X171081000Y-88504500D01*
G75*
G02*
X170933500Y-88652000I-147500J0D01*
G01*
X170588500Y-88652000D01*
G75*
G02*
X170441000Y-88504500I0J147500D01*
G01*
X170441000Y-88209500D01*
G75*
G02*
X170588500Y-88062000I147500J0D01*
G01*
G37*
G36*
G01*
X170588500Y-87092000D02*
X170933500Y-87092000D01*
G75*
G02*
X171081000Y-87239500I0J-147500D01*
G01*
X171081000Y-87534500D01*
G75*
G02*
X170933500Y-87682000I-147500J0D01*
G01*
X170588500Y-87682000D01*
G75*
G02*
X170441000Y-87534500I0J147500D01*
G01*
X170441000Y-87239500D01*
G75*
G02*
X170588500Y-87092000I147500J0D01*
G01*
G37*
%TD*%
%TO.C,C1007*%
G36*
G01*
X155022500Y-96900000D02*
X154677500Y-96900000D01*
G75*
G02*
X154530000Y-96752500I0J147500D01*
G01*
X154530000Y-96457500D01*
G75*
G02*
X154677500Y-96310000I147500J0D01*
G01*
X155022500Y-96310000D01*
G75*
G02*
X155170000Y-96457500I0J-147500D01*
G01*
X155170000Y-96752500D01*
G75*
G02*
X155022500Y-96900000I-147500J0D01*
G01*
G37*
G36*
G01*
X155022500Y-95930000D02*
X154677500Y-95930000D01*
G75*
G02*
X154530000Y-95782500I0J147500D01*
G01*
X154530000Y-95487500D01*
G75*
G02*
X154677500Y-95340000I147500J0D01*
G01*
X155022500Y-95340000D01*
G75*
G02*
X155170000Y-95487500I0J-147500D01*
G01*
X155170000Y-95782500D01*
G75*
G02*
X155022500Y-95930000I-147500J0D01*
G01*
G37*
%TD*%
%TO.C,C1005*%
G36*
G01*
X156260000Y-113727500D02*
X156260000Y-114072500D01*
G75*
G02*
X156112500Y-114220000I-147500J0D01*
G01*
X155817500Y-114220000D01*
G75*
G02*
X155670000Y-114072500I0J147500D01*
G01*
X155670000Y-113727500D01*
G75*
G02*
X155817500Y-113580000I147500J0D01*
G01*
X156112500Y-113580000D01*
G75*
G02*
X156260000Y-113727500I0J-147500D01*
G01*
G37*
G36*
G01*
X157230000Y-113727500D02*
X157230000Y-114072500D01*
G75*
G02*
X157082500Y-114220000I-147500J0D01*
G01*
X156787500Y-114220000D01*
G75*
G02*
X156640000Y-114072500I0J147500D01*
G01*
X156640000Y-113727500D01*
G75*
G02*
X156787500Y-113580000I147500J0D01*
G01*
X157082500Y-113580000D01*
G75*
G02*
X157230000Y-113727500I0J-147500D01*
G01*
G37*
%TD*%
%TO.C,C1004*%
G36*
G01*
X141047000Y-89364500D02*
X141047000Y-89019500D01*
G75*
G02*
X141194500Y-88872000I147500J0D01*
G01*
X141489500Y-88872000D01*
G75*
G02*
X141637000Y-89019500I0J-147500D01*
G01*
X141637000Y-89364500D01*
G75*
G02*
X141489500Y-89512000I-147500J0D01*
G01*
X141194500Y-89512000D01*
G75*
G02*
X141047000Y-89364500I0J147500D01*
G01*
G37*
G36*
G01*
X140077000Y-89364500D02*
X140077000Y-89019500D01*
G75*
G02*
X140224500Y-88872000I147500J0D01*
G01*
X140519500Y-88872000D01*
G75*
G02*
X140667000Y-89019500I0J-147500D01*
G01*
X140667000Y-89364500D01*
G75*
G02*
X140519500Y-89512000I-147500J0D01*
G01*
X140224500Y-89512000D01*
G75*
G02*
X140077000Y-89364500I0J147500D01*
G01*
G37*
%TD*%
%TO.C,C1003*%
G36*
G01*
X143160500Y-100268000D02*
X143505500Y-100268000D01*
G75*
G02*
X143653000Y-100415500I0J-147500D01*
G01*
X143653000Y-100710500D01*
G75*
G02*
X143505500Y-100858000I-147500J0D01*
G01*
X143160500Y-100858000D01*
G75*
G02*
X143013000Y-100710500I0J147500D01*
G01*
X143013000Y-100415500D01*
G75*
G02*
X143160500Y-100268000I147500J0D01*
G01*
G37*
G36*
G01*
X143160500Y-99298000D02*
X143505500Y-99298000D01*
G75*
G02*
X143653000Y-99445500I0J-147500D01*
G01*
X143653000Y-99740500D01*
G75*
G02*
X143505500Y-99888000I-147500J0D01*
G01*
X143160500Y-99888000D01*
G75*
G02*
X143013000Y-99740500I0J147500D01*
G01*
X143013000Y-99445500D01*
G75*
G02*
X143160500Y-99298000I147500J0D01*
G01*
G37*
%TD*%
%TO.C,C1002*%
G36*
G01*
X162272000Y-92071500D02*
X162272000Y-91726500D01*
G75*
G02*
X162419500Y-91579000I147500J0D01*
G01*
X162714500Y-91579000D01*
G75*
G02*
X162862000Y-91726500I0J-147500D01*
G01*
X162862000Y-92071500D01*
G75*
G02*
X162714500Y-92219000I-147500J0D01*
G01*
X162419500Y-92219000D01*
G75*
G02*
X162272000Y-92071500I0J147500D01*
G01*
G37*
G36*
G01*
X161302000Y-92071500D02*
X161302000Y-91726500D01*
G75*
G02*
X161449500Y-91579000I147500J0D01*
G01*
X161744500Y-91579000D01*
G75*
G02*
X161892000Y-91726500I0J-147500D01*
G01*
X161892000Y-92071500D01*
G75*
G02*
X161744500Y-92219000I-147500J0D01*
G01*
X161449500Y-92219000D01*
G75*
G02*
X161302000Y-92071500I0J147500D01*
G01*
G37*
%TD*%
%TO.C,C1001*%
G36*
G01*
X91065500Y-93780000D02*
X91065500Y-94125000D01*
G75*
G02*
X90918000Y-94272500I-147500J0D01*
G01*
X90623000Y-94272500D01*
G75*
G02*
X90475500Y-94125000I0J147500D01*
G01*
X90475500Y-93780000D01*
G75*
G02*
X90623000Y-93632500I147500J0D01*
G01*
X90918000Y-93632500D01*
G75*
G02*
X91065500Y-93780000I0J-147500D01*
G01*
G37*
G36*
G01*
X92035500Y-93780000D02*
X92035500Y-94125000D01*
G75*
G02*
X91888000Y-94272500I-147500J0D01*
G01*
X91593000Y-94272500D01*
G75*
G02*
X91445500Y-94125000I0J147500D01*
G01*
X91445500Y-93780000D01*
G75*
G02*
X91593000Y-93632500I147500J0D01*
G01*
X91888000Y-93632500D01*
G75*
G02*
X92035500Y-93780000I0J-147500D01*
G01*
G37*
%TD*%
%TO.C,C601*%
G36*
G01*
X113488500Y-105834000D02*
X113833500Y-105834000D01*
G75*
G02*
X113981000Y-105981500I0J-147500D01*
G01*
X113981000Y-106276500D01*
G75*
G02*
X113833500Y-106424000I-147500J0D01*
G01*
X113488500Y-106424000D01*
G75*
G02*
X113341000Y-106276500I0J147500D01*
G01*
X113341000Y-105981500D01*
G75*
G02*
X113488500Y-105834000I147500J0D01*
G01*
G37*
G36*
G01*
X113488500Y-104864000D02*
X113833500Y-104864000D01*
G75*
G02*
X113981000Y-105011500I0J-147500D01*
G01*
X113981000Y-105306500D01*
G75*
G02*
X113833500Y-105454000I-147500J0D01*
G01*
X113488500Y-105454000D01*
G75*
G02*
X113341000Y-105306500I0J147500D01*
G01*
X113341000Y-105011500D01*
G75*
G02*
X113488500Y-104864000I147500J0D01*
G01*
G37*
%TD*%
%TO.C,C303*%
G36*
G01*
X100210000Y-93677500D02*
X100210000Y-94022500D01*
G75*
G02*
X100062500Y-94170000I-147500J0D01*
G01*
X99767500Y-94170000D01*
G75*
G02*
X99620000Y-94022500I0J147500D01*
G01*
X99620000Y-93677500D01*
G75*
G02*
X99767500Y-93530000I147500J0D01*
G01*
X100062500Y-93530000D01*
G75*
G02*
X100210000Y-93677500I0J-147500D01*
G01*
G37*
G36*
G01*
X101180000Y-93677500D02*
X101180000Y-94022500D01*
G75*
G02*
X101032500Y-94170000I-147500J0D01*
G01*
X100737500Y-94170000D01*
G75*
G02*
X100590000Y-94022500I0J147500D01*
G01*
X100590000Y-93677500D01*
G75*
G02*
X100737500Y-93530000I147500J0D01*
G01*
X101032500Y-93530000D01*
G75*
G02*
X101180000Y-93677500I0J-147500D01*
G01*
G37*
%TD*%
%TO.C,C202*%
G36*
G01*
X171675000Y-64293750D02*
X171675000Y-64806250D01*
G75*
G02*
X171456250Y-65025000I-218750J0D01*
G01*
X171018750Y-65025000D01*
G75*
G02*
X170800000Y-64806250I0J218750D01*
G01*
X170800000Y-64293750D01*
G75*
G02*
X171018750Y-64075000I218750J0D01*
G01*
X171456250Y-64075000D01*
G75*
G02*
X171675000Y-64293750I0J-218750D01*
G01*
G37*
G36*
G01*
X170100000Y-64293750D02*
X170100000Y-64806250D01*
G75*
G02*
X169881250Y-65025000I-218750J0D01*
G01*
X169443750Y-65025000D01*
G75*
G02*
X169225000Y-64806250I0J218750D01*
G01*
X169225000Y-64293750D01*
G75*
G02*
X169443750Y-64075000I218750J0D01*
G01*
X169881250Y-64075000D01*
G75*
G02*
X170100000Y-64293750I0J-218750D01*
G01*
G37*
%TD*%
%TO.C,C203*%
G36*
G01*
X167730000Y-64527500D02*
X167730000Y-64872500D01*
G75*
G02*
X167582500Y-65020000I-147500J0D01*
G01*
X167287500Y-65020000D01*
G75*
G02*
X167140000Y-64872500I0J147500D01*
G01*
X167140000Y-64527500D01*
G75*
G02*
X167287500Y-64380000I147500J0D01*
G01*
X167582500Y-64380000D01*
G75*
G02*
X167730000Y-64527500I0J-147500D01*
G01*
G37*
G36*
G01*
X166760000Y-64527500D02*
X166760000Y-64872500D01*
G75*
G02*
X166612500Y-65020000I-147500J0D01*
G01*
X166317500Y-65020000D01*
G75*
G02*
X166170000Y-64872500I0J147500D01*
G01*
X166170000Y-64527500D01*
G75*
G02*
X166317500Y-64380000I147500J0D01*
G01*
X166612500Y-64380000D01*
G75*
G02*
X166760000Y-64527500I0J-147500D01*
G01*
G37*
%TD*%
%TO.C,C301*%
G36*
G01*
X94825000Y-91975000D02*
X93575000Y-91975000D01*
G75*
G02*
X93325000Y-91725000I0J250000D01*
G01*
X93325000Y-90975000D01*
G75*
G02*
X93575000Y-90725000I250000J0D01*
G01*
X94825000Y-90725000D01*
G75*
G02*
X95075000Y-90975000I0J-250000D01*
G01*
X95075000Y-91725000D01*
G75*
G02*
X94825000Y-91975000I-250000J0D01*
G01*
G37*
G36*
G01*
X94825000Y-94775000D02*
X93575000Y-94775000D01*
G75*
G02*
X93325000Y-94525000I0J250000D01*
G01*
X93325000Y-93775000D01*
G75*
G02*
X93575000Y-93525000I250000J0D01*
G01*
X94825000Y-93525000D01*
G75*
G02*
X95075000Y-93775000I0J-250000D01*
G01*
X95075000Y-94525000D01*
G75*
G02*
X94825000Y-94775000I-250000J0D01*
G01*
G37*
%TD*%
%TO.C,C302*%
G36*
G01*
X95972500Y-100410000D02*
X95627500Y-100410000D01*
G75*
G02*
X95480000Y-100262500I0J147500D01*
G01*
X95480000Y-99967500D01*
G75*
G02*
X95627500Y-99820000I147500J0D01*
G01*
X95972500Y-99820000D01*
G75*
G02*
X96120000Y-99967500I0J-147500D01*
G01*
X96120000Y-100262500D01*
G75*
G02*
X95972500Y-100410000I-147500J0D01*
G01*
G37*
G36*
G01*
X95972500Y-101380000D02*
X95627500Y-101380000D01*
G75*
G02*
X95480000Y-101232500I0J147500D01*
G01*
X95480000Y-100937500D01*
G75*
G02*
X95627500Y-100790000I147500J0D01*
G01*
X95972500Y-100790000D01*
G75*
G02*
X96120000Y-100937500I0J-147500D01*
G01*
X96120000Y-101232500D01*
G75*
G02*
X95972500Y-101380000I-147500J0D01*
G01*
G37*
%TD*%
%TO.C,C304*%
G36*
G01*
X100856250Y-86400000D02*
X99943750Y-86400000D01*
G75*
G02*
X99700000Y-86156250I0J243750D01*
G01*
X99700000Y-85668750D01*
G75*
G02*
X99943750Y-85425000I243750J0D01*
G01*
X100856250Y-85425000D01*
G75*
G02*
X101100000Y-85668750I0J-243750D01*
G01*
X101100000Y-86156250D01*
G75*
G02*
X100856250Y-86400000I-243750J0D01*
G01*
G37*
G36*
G01*
X100856250Y-88275000D02*
X99943750Y-88275000D01*
G75*
G02*
X99700000Y-88031250I0J243750D01*
G01*
X99700000Y-87543750D01*
G75*
G02*
X99943750Y-87300000I243750J0D01*
G01*
X100856250Y-87300000D01*
G75*
G02*
X101100000Y-87543750I0J-243750D01*
G01*
X101100000Y-88031250D01*
G75*
G02*
X100856250Y-88275000I-243750J0D01*
G01*
G37*
%TD*%
%TO.C,C305*%
G36*
G01*
X98972500Y-87830000D02*
X98627500Y-87830000D01*
G75*
G02*
X98480000Y-87682500I0J147500D01*
G01*
X98480000Y-87387500D01*
G75*
G02*
X98627500Y-87240000I147500J0D01*
G01*
X98972500Y-87240000D01*
G75*
G02*
X99120000Y-87387500I0J-147500D01*
G01*
X99120000Y-87682500D01*
G75*
G02*
X98972500Y-87830000I-147500J0D01*
G01*
G37*
G36*
G01*
X98972500Y-86860000D02*
X98627500Y-86860000D01*
G75*
G02*
X98480000Y-86712500I0J147500D01*
G01*
X98480000Y-86417500D01*
G75*
G02*
X98627500Y-86270000I147500J0D01*
G01*
X98972500Y-86270000D01*
G75*
G02*
X99120000Y-86417500I0J-147500D01*
G01*
X99120000Y-86712500D01*
G75*
G02*
X98972500Y-86860000I-147500J0D01*
G01*
G37*
%TD*%
%TO.C,C402*%
G36*
G01*
X156243750Y-96850000D02*
X156756250Y-96850000D01*
G75*
G02*
X156975000Y-97068750I0J-218750D01*
G01*
X156975000Y-97506250D01*
G75*
G02*
X156756250Y-97725000I-218750J0D01*
G01*
X156243750Y-97725000D01*
G75*
G02*
X156025000Y-97506250I0J218750D01*
G01*
X156025000Y-97068750D01*
G75*
G02*
X156243750Y-96850000I218750J0D01*
G01*
G37*
G36*
G01*
X156243750Y-95275000D02*
X156756250Y-95275000D01*
G75*
G02*
X156975000Y-95493750I0J-218750D01*
G01*
X156975000Y-95931250D01*
G75*
G02*
X156756250Y-96150000I-218750J0D01*
G01*
X156243750Y-96150000D01*
G75*
G02*
X156025000Y-95931250I0J218750D01*
G01*
X156025000Y-95493750D01*
G75*
G02*
X156243750Y-95275000I218750J0D01*
G01*
G37*
%TD*%
%TO.C,C403*%
G36*
G01*
X169470500Y-95451000D02*
X169125500Y-95451000D01*
G75*
G02*
X168978000Y-95303500I0J147500D01*
G01*
X168978000Y-95008500D01*
G75*
G02*
X169125500Y-94861000I147500J0D01*
G01*
X169470500Y-94861000D01*
G75*
G02*
X169618000Y-95008500I0J-147500D01*
G01*
X169618000Y-95303500D01*
G75*
G02*
X169470500Y-95451000I-147500J0D01*
G01*
G37*
G36*
G01*
X169470500Y-94481000D02*
X169125500Y-94481000D01*
G75*
G02*
X168978000Y-94333500I0J147500D01*
G01*
X168978000Y-94038500D01*
G75*
G02*
X169125500Y-93891000I147500J0D01*
G01*
X169470500Y-93891000D01*
G75*
G02*
X169618000Y-94038500I0J-147500D01*
G01*
X169618000Y-94333500D01*
G75*
G02*
X169470500Y-94481000I-147500J0D01*
G01*
G37*
%TD*%
%TO.C,C404*%
G36*
G01*
X169125500Y-95946000D02*
X169470500Y-95946000D01*
G75*
G02*
X169618000Y-96093500I0J-147500D01*
G01*
X169618000Y-96388500D01*
G75*
G02*
X169470500Y-96536000I-147500J0D01*
G01*
X169125500Y-96536000D01*
G75*
G02*
X168978000Y-96388500I0J147500D01*
G01*
X168978000Y-96093500D01*
G75*
G02*
X169125500Y-95946000I147500J0D01*
G01*
G37*
G36*
G01*
X169125500Y-96916000D02*
X169470500Y-96916000D01*
G75*
G02*
X169618000Y-97063500I0J-147500D01*
G01*
X169618000Y-97358500D01*
G75*
G02*
X169470500Y-97506000I-147500J0D01*
G01*
X169125500Y-97506000D01*
G75*
G02*
X168978000Y-97358500I0J147500D01*
G01*
X168978000Y-97063500D01*
G75*
G02*
X169125500Y-96916000I147500J0D01*
G01*
G37*
%TD*%
%TO.C,C501*%
G36*
G01*
X166400000Y-101893750D02*
X166400000Y-102406250D01*
G75*
G02*
X166181250Y-102625000I-218750J0D01*
G01*
X165743750Y-102625000D01*
G75*
G02*
X165525000Y-102406250I0J218750D01*
G01*
X165525000Y-101893750D01*
G75*
G02*
X165743750Y-101675000I218750J0D01*
G01*
X166181250Y-101675000D01*
G75*
G02*
X166400000Y-101893750I0J-218750D01*
G01*
G37*
G36*
G01*
X167975000Y-101893750D02*
X167975000Y-102406250D01*
G75*
G02*
X167756250Y-102625000I-218750J0D01*
G01*
X167318750Y-102625000D01*
G75*
G02*
X167100000Y-102406250I0J218750D01*
G01*
X167100000Y-101893750D01*
G75*
G02*
X167318750Y-101675000I218750J0D01*
G01*
X167756250Y-101675000D01*
G75*
G02*
X167975000Y-101893750I0J-218750D01*
G01*
G37*
%TD*%
%TO.C,C502*%
G36*
G01*
X170606250Y-109625000D02*
X170093750Y-109625000D01*
G75*
G02*
X169875000Y-109406250I0J218750D01*
G01*
X169875000Y-108968750D01*
G75*
G02*
X170093750Y-108750000I218750J0D01*
G01*
X170606250Y-108750000D01*
G75*
G02*
X170825000Y-108968750I0J-218750D01*
G01*
X170825000Y-109406250D01*
G75*
G02*
X170606250Y-109625000I-218750J0D01*
G01*
G37*
G36*
G01*
X170606250Y-108050000D02*
X170093750Y-108050000D01*
G75*
G02*
X169875000Y-107831250I0J218750D01*
G01*
X169875000Y-107393750D01*
G75*
G02*
X170093750Y-107175000I218750J0D01*
G01*
X170606250Y-107175000D01*
G75*
G02*
X170825000Y-107393750I0J-218750D01*
G01*
X170825000Y-107831250D01*
G75*
G02*
X170606250Y-108050000I-218750J0D01*
G01*
G37*
%TD*%
%TO.C,C602*%
G36*
G01*
X113780000Y-99047500D02*
X113780000Y-99392500D01*
G75*
G02*
X113632500Y-99540000I-147500J0D01*
G01*
X113337500Y-99540000D01*
G75*
G02*
X113190000Y-99392500I0J147500D01*
G01*
X113190000Y-99047500D01*
G75*
G02*
X113337500Y-98900000I147500J0D01*
G01*
X113632500Y-98900000D01*
G75*
G02*
X113780000Y-99047500I0J-147500D01*
G01*
G37*
G36*
G01*
X114750000Y-99047500D02*
X114750000Y-99392500D01*
G75*
G02*
X114602500Y-99540000I-147500J0D01*
G01*
X114307500Y-99540000D01*
G75*
G02*
X114160000Y-99392500I0J147500D01*
G01*
X114160000Y-99047500D01*
G75*
G02*
X114307500Y-98900000I147500J0D01*
G01*
X114602500Y-98900000D01*
G75*
G02*
X114750000Y-99047500I0J-147500D01*
G01*
G37*
%TD*%
%TO.C,C603*%
G36*
G01*
X119495250Y-98587500D02*
X120407750Y-98587500D01*
G75*
G02*
X120651500Y-98831250I0J-243750D01*
G01*
X120651500Y-99318750D01*
G75*
G02*
X120407750Y-99562500I-243750J0D01*
G01*
X119495250Y-99562500D01*
G75*
G02*
X119251500Y-99318750I0J243750D01*
G01*
X119251500Y-98831250D01*
G75*
G02*
X119495250Y-98587500I243750J0D01*
G01*
G37*
G36*
G01*
X119495250Y-100462500D02*
X120407750Y-100462500D01*
G75*
G02*
X120651500Y-100706250I0J-243750D01*
G01*
X120651500Y-101193750D01*
G75*
G02*
X120407750Y-101437500I-243750J0D01*
G01*
X119495250Y-101437500D01*
G75*
G02*
X119251500Y-101193750I0J243750D01*
G01*
X119251500Y-100706250D01*
G75*
G02*
X119495250Y-100462500I243750J0D01*
G01*
G37*
%TD*%
%TO.C,C604*%
G36*
G01*
X118488000Y-87771500D02*
X118488000Y-87426500D01*
G75*
G02*
X118635500Y-87279000I147500J0D01*
G01*
X118930500Y-87279000D01*
G75*
G02*
X119078000Y-87426500I0J-147500D01*
G01*
X119078000Y-87771500D01*
G75*
G02*
X118930500Y-87919000I-147500J0D01*
G01*
X118635500Y-87919000D01*
G75*
G02*
X118488000Y-87771500I0J147500D01*
G01*
G37*
G36*
G01*
X119458000Y-87771500D02*
X119458000Y-87426500D01*
G75*
G02*
X119605500Y-87279000I147500J0D01*
G01*
X119900500Y-87279000D01*
G75*
G02*
X120048000Y-87426500I0J-147500D01*
G01*
X120048000Y-87771500D01*
G75*
G02*
X119900500Y-87919000I-147500J0D01*
G01*
X119605500Y-87919000D01*
G75*
G02*
X119458000Y-87771500I0J147500D01*
G01*
G37*
%TD*%
%TO.C,C605*%
G36*
G01*
X118302500Y-94100250D02*
X118302500Y-93587750D01*
G75*
G02*
X118521250Y-93369000I218750J0D01*
G01*
X118958750Y-93369000D01*
G75*
G02*
X119177500Y-93587750I0J-218750D01*
G01*
X119177500Y-94100250D01*
G75*
G02*
X118958750Y-94319000I-218750J0D01*
G01*
X118521250Y-94319000D01*
G75*
G02*
X118302500Y-94100250I0J218750D01*
G01*
G37*
G36*
G01*
X119877500Y-94100250D02*
X119877500Y-93587750D01*
G75*
G02*
X120096250Y-93369000I218750J0D01*
G01*
X120533750Y-93369000D01*
G75*
G02*
X120752500Y-93587750I0J-218750D01*
G01*
X120752500Y-94100250D01*
G75*
G02*
X120533750Y-94319000I-218750J0D01*
G01*
X120096250Y-94319000D01*
G75*
G02*
X119877500Y-94100250I0J218750D01*
G01*
G37*
%TD*%
%TO.C,C701*%
G36*
G01*
X148146000Y-90899500D02*
X148146000Y-90554500D01*
G75*
G02*
X148293500Y-90407000I147500J0D01*
G01*
X148588500Y-90407000D01*
G75*
G02*
X148736000Y-90554500I0J-147500D01*
G01*
X148736000Y-90899500D01*
G75*
G02*
X148588500Y-91047000I-147500J0D01*
G01*
X148293500Y-91047000D01*
G75*
G02*
X148146000Y-90899500I0J147500D01*
G01*
G37*
G36*
G01*
X149116000Y-90899500D02*
X149116000Y-90554500D01*
G75*
G02*
X149263500Y-90407000I147500J0D01*
G01*
X149558500Y-90407000D01*
G75*
G02*
X149706000Y-90554500I0J-147500D01*
G01*
X149706000Y-90899500D01*
G75*
G02*
X149558500Y-91047000I-147500J0D01*
G01*
X149263500Y-91047000D01*
G75*
G02*
X149116000Y-90899500I0J147500D01*
G01*
G37*
%TD*%
%TO.C,C702*%
G36*
G01*
X144070000Y-90631500D02*
X144070000Y-90976500D01*
G75*
G02*
X143922500Y-91124000I-147500J0D01*
G01*
X143627500Y-91124000D01*
G75*
G02*
X143480000Y-90976500I0J147500D01*
G01*
X143480000Y-90631500D01*
G75*
G02*
X143627500Y-90484000I147500J0D01*
G01*
X143922500Y-90484000D01*
G75*
G02*
X144070000Y-90631500I0J-147500D01*
G01*
G37*
G36*
G01*
X143100000Y-90631500D02*
X143100000Y-90976500D01*
G75*
G02*
X142952500Y-91124000I-147500J0D01*
G01*
X142657500Y-91124000D01*
G75*
G02*
X142510000Y-90976500I0J147500D01*
G01*
X142510000Y-90631500D01*
G75*
G02*
X142657500Y-90484000I147500J0D01*
G01*
X142952500Y-90484000D01*
G75*
G02*
X143100000Y-90631500I0J-147500D01*
G01*
G37*
%TD*%
%TO.C,C703*%
G36*
G01*
X146763000Y-90681500D02*
X146763000Y-91026500D01*
G75*
G02*
X146615500Y-91174000I-147500J0D01*
G01*
X146320500Y-91174000D01*
G75*
G02*
X146173000Y-91026500I0J147500D01*
G01*
X146173000Y-90681500D01*
G75*
G02*
X146320500Y-90534000I147500J0D01*
G01*
X146615500Y-90534000D01*
G75*
G02*
X146763000Y-90681500I0J-147500D01*
G01*
G37*
G36*
G01*
X147733000Y-90681500D02*
X147733000Y-91026500D01*
G75*
G02*
X147585500Y-91174000I-147500J0D01*
G01*
X147290500Y-91174000D01*
G75*
G02*
X147143000Y-91026500I0J147500D01*
G01*
X147143000Y-90681500D01*
G75*
G02*
X147290500Y-90534000I147500J0D01*
G01*
X147585500Y-90534000D01*
G75*
G02*
X147733000Y-90681500I0J-147500D01*
G01*
G37*
%TD*%
%TO.C,C704*%
G36*
G01*
X151733000Y-91733000D02*
X150483000Y-91733000D01*
G75*
G02*
X150233000Y-91483000I0J250000D01*
G01*
X150233000Y-90733000D01*
G75*
G02*
X150483000Y-90483000I250000J0D01*
G01*
X151733000Y-90483000D01*
G75*
G02*
X151983000Y-90733000I0J-250000D01*
G01*
X151983000Y-91483000D01*
G75*
G02*
X151733000Y-91733000I-250000J0D01*
G01*
G37*
G36*
G01*
X151733000Y-94533000D02*
X150483000Y-94533000D01*
G75*
G02*
X150233000Y-94283000I0J250000D01*
G01*
X150233000Y-93533000D01*
G75*
G02*
X150483000Y-93283000I250000J0D01*
G01*
X151733000Y-93283000D01*
G75*
G02*
X151983000Y-93533000I0J-250000D01*
G01*
X151983000Y-94283000D01*
G75*
G02*
X151733000Y-94533000I-250000J0D01*
G01*
G37*
%TD*%
%TO.C,C705*%
G36*
G01*
X141641250Y-92841500D02*
X141128750Y-92841500D01*
G75*
G02*
X140910000Y-92622750I0J218750D01*
G01*
X140910000Y-92185250D01*
G75*
G02*
X141128750Y-91966500I218750J0D01*
G01*
X141641250Y-91966500D01*
G75*
G02*
X141860000Y-92185250I0J-218750D01*
G01*
X141860000Y-92622750D01*
G75*
G02*
X141641250Y-92841500I-218750J0D01*
G01*
G37*
G36*
G01*
X141641250Y-94416500D02*
X141128750Y-94416500D01*
G75*
G02*
X140910000Y-94197750I0J218750D01*
G01*
X140910000Y-93760250D01*
G75*
G02*
X141128750Y-93541500I218750J0D01*
G01*
X141641250Y-93541500D01*
G75*
G02*
X141860000Y-93760250I0J-218750D01*
G01*
X141860000Y-94197750D01*
G75*
G02*
X141641250Y-94416500I-218750J0D01*
G01*
G37*
%TD*%
%TO.C,C706*%
G36*
G01*
X145281250Y-94466500D02*
X144768750Y-94466500D01*
G75*
G02*
X144550000Y-94247750I0J218750D01*
G01*
X144550000Y-93810250D01*
G75*
G02*
X144768750Y-93591500I218750J0D01*
G01*
X145281250Y-93591500D01*
G75*
G02*
X145500000Y-93810250I0J-218750D01*
G01*
X145500000Y-94247750D01*
G75*
G02*
X145281250Y-94466500I-218750J0D01*
G01*
G37*
G36*
G01*
X145281250Y-92891500D02*
X144768750Y-92891500D01*
G75*
G02*
X144550000Y-92672750I0J218750D01*
G01*
X144550000Y-92235250D01*
G75*
G02*
X144768750Y-92016500I218750J0D01*
G01*
X145281250Y-92016500D01*
G75*
G02*
X145500000Y-92235250I0J-218750D01*
G01*
X145500000Y-92672750D01*
G75*
G02*
X145281250Y-92891500I-218750J0D01*
G01*
G37*
%TD*%
%TO.C,C801*%
G36*
G01*
X144984500Y-98206000D02*
X145329500Y-98206000D01*
G75*
G02*
X145477000Y-98353500I0J-147500D01*
G01*
X145477000Y-98648500D01*
G75*
G02*
X145329500Y-98796000I-147500J0D01*
G01*
X144984500Y-98796000D01*
G75*
G02*
X144837000Y-98648500I0J147500D01*
G01*
X144837000Y-98353500D01*
G75*
G02*
X144984500Y-98206000I147500J0D01*
G01*
G37*
G36*
G01*
X144984500Y-97236000D02*
X145329500Y-97236000D01*
G75*
G02*
X145477000Y-97383500I0J-147500D01*
G01*
X145477000Y-97678500D01*
G75*
G02*
X145329500Y-97826000I-147500J0D01*
G01*
X144984500Y-97826000D01*
G75*
G02*
X144837000Y-97678500I0J147500D01*
G01*
X144837000Y-97383500D01*
G75*
G02*
X144984500Y-97236000I147500J0D01*
G01*
G37*
%TD*%
%TO.C,C802*%
G36*
G01*
X151603000Y-96979250D02*
X151603000Y-96466750D01*
G75*
G02*
X151821750Y-96248000I218750J0D01*
G01*
X152259250Y-96248000D01*
G75*
G02*
X152478000Y-96466750I0J-218750D01*
G01*
X152478000Y-96979250D01*
G75*
G02*
X152259250Y-97198000I-218750J0D01*
G01*
X151821750Y-97198000D01*
G75*
G02*
X151603000Y-96979250I0J218750D01*
G01*
G37*
G36*
G01*
X150028000Y-96979250D02*
X150028000Y-96466750D01*
G75*
G02*
X150246750Y-96248000I218750J0D01*
G01*
X150684250Y-96248000D01*
G75*
G02*
X150903000Y-96466750I0J-218750D01*
G01*
X150903000Y-96979250D01*
G75*
G02*
X150684250Y-97198000I-218750J0D01*
G01*
X150246750Y-97198000D01*
G75*
G02*
X150028000Y-96979250I0J218750D01*
G01*
G37*
%TD*%
%TO.C,C803*%
G36*
G01*
X148960000Y-99654000D02*
X148960000Y-100904000D01*
G75*
G02*
X148710000Y-101154000I-250000J0D01*
G01*
X147960000Y-101154000D01*
G75*
G02*
X147710000Y-100904000I0J250000D01*
G01*
X147710000Y-99654000D01*
G75*
G02*
X147960000Y-99404000I250000J0D01*
G01*
X148710000Y-99404000D01*
G75*
G02*
X148960000Y-99654000I0J-250000D01*
G01*
G37*
G36*
G01*
X146160000Y-99654000D02*
X146160000Y-100904000D01*
G75*
G02*
X145910000Y-101154000I-250000J0D01*
G01*
X145160000Y-101154000D01*
G75*
G02*
X144910000Y-100904000I0J250000D01*
G01*
X144910000Y-99654000D01*
G75*
G02*
X145160000Y-99404000I250000J0D01*
G01*
X145910000Y-99404000D01*
G75*
G02*
X146160000Y-99654000I0J-250000D01*
G01*
G37*
%TD*%
%TO.C,C901*%
G36*
G01*
X130882500Y-105340000D02*
X130537500Y-105340000D01*
G75*
G02*
X130390000Y-105192500I0J147500D01*
G01*
X130390000Y-104897500D01*
G75*
G02*
X130537500Y-104750000I147500J0D01*
G01*
X130882500Y-104750000D01*
G75*
G02*
X131030000Y-104897500I0J-147500D01*
G01*
X131030000Y-105192500D01*
G75*
G02*
X130882500Y-105340000I-147500J0D01*
G01*
G37*
G36*
G01*
X130882500Y-104370000D02*
X130537500Y-104370000D01*
G75*
G02*
X130390000Y-104222500I0J147500D01*
G01*
X130390000Y-103927500D01*
G75*
G02*
X130537500Y-103780000I147500J0D01*
G01*
X130882500Y-103780000D01*
G75*
G02*
X131030000Y-103927500I0J-147500D01*
G01*
X131030000Y-104222500D01*
G75*
G02*
X130882500Y-104370000I-147500J0D01*
G01*
G37*
%TD*%
%TO.C,C902*%
G36*
G01*
X138145500Y-110504000D02*
X138490500Y-110504000D01*
G75*
G02*
X138638000Y-110651500I0J-147500D01*
G01*
X138638000Y-110946500D01*
G75*
G02*
X138490500Y-111094000I-147500J0D01*
G01*
X138145500Y-111094000D01*
G75*
G02*
X137998000Y-110946500I0J147500D01*
G01*
X137998000Y-110651500D01*
G75*
G02*
X138145500Y-110504000I147500J0D01*
G01*
G37*
G36*
G01*
X138145500Y-109534000D02*
X138490500Y-109534000D01*
G75*
G02*
X138638000Y-109681500I0J-147500D01*
G01*
X138638000Y-109976500D01*
G75*
G02*
X138490500Y-110124000I-147500J0D01*
G01*
X138145500Y-110124000D01*
G75*
G02*
X137998000Y-109976500I0J147500D01*
G01*
X137998000Y-109681500D01*
G75*
G02*
X138145500Y-109534000I147500J0D01*
G01*
G37*
%TD*%
%TO.C,C903*%
G36*
G01*
X139177500Y-110540000D02*
X139522500Y-110540000D01*
G75*
G02*
X139670000Y-110687500I0J-147500D01*
G01*
X139670000Y-110982500D01*
G75*
G02*
X139522500Y-111130000I-147500J0D01*
G01*
X139177500Y-111130000D01*
G75*
G02*
X139030000Y-110982500I0J147500D01*
G01*
X139030000Y-110687500D01*
G75*
G02*
X139177500Y-110540000I147500J0D01*
G01*
G37*
G36*
G01*
X139177500Y-109570000D02*
X139522500Y-109570000D01*
G75*
G02*
X139670000Y-109717500I0J-147500D01*
G01*
X139670000Y-110012500D01*
G75*
G02*
X139522500Y-110160000I-147500J0D01*
G01*
X139177500Y-110160000D01*
G75*
G02*
X139030000Y-110012500I0J147500D01*
G01*
X139030000Y-109717500D01*
G75*
G02*
X139177500Y-109570000I147500J0D01*
G01*
G37*
%TD*%
%TO.C,C904*%
G36*
G01*
X130930000Y-109562000D02*
X130930000Y-110812000D01*
G75*
G02*
X130680000Y-111062000I-250000J0D01*
G01*
X129930000Y-111062000D01*
G75*
G02*
X129680000Y-110812000I0J250000D01*
G01*
X129680000Y-109562000D01*
G75*
G02*
X129930000Y-109312000I250000J0D01*
G01*
X130680000Y-109312000D01*
G75*
G02*
X130930000Y-109562000I0J-250000D01*
G01*
G37*
G36*
G01*
X128130000Y-109562000D02*
X128130000Y-110812000D01*
G75*
G02*
X127880000Y-111062000I-250000J0D01*
G01*
X127130000Y-111062000D01*
G75*
G02*
X126880000Y-110812000I0J250000D01*
G01*
X126880000Y-109562000D01*
G75*
G02*
X127130000Y-109312000I250000J0D01*
G01*
X127880000Y-109312000D01*
G75*
G02*
X128130000Y-109562000I0J-250000D01*
G01*
G37*
%TD*%
%TO.C,C905*%
G36*
G01*
X132507000Y-110311750D02*
X132507000Y-110824250D01*
G75*
G02*
X132288250Y-111043000I-218750J0D01*
G01*
X131850750Y-111043000D01*
G75*
G02*
X131632000Y-110824250I0J218750D01*
G01*
X131632000Y-110311750D01*
G75*
G02*
X131850750Y-110093000I218750J0D01*
G01*
X132288250Y-110093000D01*
G75*
G02*
X132507000Y-110311750I0J-218750D01*
G01*
G37*
G36*
G01*
X134082000Y-110311750D02*
X134082000Y-110824250D01*
G75*
G02*
X133863250Y-111043000I-218750J0D01*
G01*
X133425750Y-111043000D01*
G75*
G02*
X133207000Y-110824250I0J218750D01*
G01*
X133207000Y-110311750D01*
G75*
G02*
X133425750Y-110093000I218750J0D01*
G01*
X133863250Y-110093000D01*
G75*
G02*
X134082000Y-110311750I0J-218750D01*
G01*
G37*
%TD*%
%TO.C,C906*%
G36*
G01*
X138906250Y-114445000D02*
X138393750Y-114445000D01*
G75*
G02*
X138175000Y-114226250I0J218750D01*
G01*
X138175000Y-113788750D01*
G75*
G02*
X138393750Y-113570000I218750J0D01*
G01*
X138906250Y-113570000D01*
G75*
G02*
X139125000Y-113788750I0J-218750D01*
G01*
X139125000Y-114226250D01*
G75*
G02*
X138906250Y-114445000I-218750J0D01*
G01*
G37*
G36*
G01*
X138906250Y-112870000D02*
X138393750Y-112870000D01*
G75*
G02*
X138175000Y-112651250I0J218750D01*
G01*
X138175000Y-112213750D01*
G75*
G02*
X138393750Y-111995000I218750J0D01*
G01*
X138906250Y-111995000D01*
G75*
G02*
X139125000Y-112213750I0J-218750D01*
G01*
X139125000Y-112651250D01*
G75*
G02*
X138906250Y-112870000I-218750J0D01*
G01*
G37*
%TD*%
D25*
%TO.C,D301*%
X92754000Y-104923000D03*
X92754000Y-100623000D03*
%TD*%
D11*
%TO.C,D302*%
X98450000Y-89209000D03*
X95150000Y-89209000D03*
%TD*%
%TO.C,D501*%
G36*
G01*
X176425000Y-104643750D02*
X176425000Y-105156250D01*
G75*
G02*
X176206250Y-105375000I-218750J0D01*
G01*
X175768750Y-105375000D01*
G75*
G02*
X175550000Y-105156250I0J218750D01*
G01*
X175550000Y-104643750D01*
G75*
G02*
X175768750Y-104425000I218750J0D01*
G01*
X176206250Y-104425000D01*
G75*
G02*
X176425000Y-104643750I0J-218750D01*
G01*
G37*
G36*
G01*
X174850000Y-104643750D02*
X174850000Y-105156250D01*
G75*
G02*
X174631250Y-105375000I-218750J0D01*
G01*
X174193750Y-105375000D01*
G75*
G02*
X173975000Y-105156250I0J218750D01*
G01*
X173975000Y-104643750D01*
G75*
G02*
X174193750Y-104425000I218750J0D01*
G01*
X174631250Y-104425000D01*
G75*
G02*
X174850000Y-104643750I0J-218750D01*
G01*
G37*
%TD*%
D25*
%TO.C,D601*%
X123317000Y-100729000D03*
X123317000Y-105029000D03*
%TD*%
%TO.C,FB301*%
G36*
G01*
X99843750Y-101175000D02*
X100756250Y-101175000D01*
G75*
G02*
X101000000Y-101418750I0J-243750D01*
G01*
X101000000Y-101906250D01*
G75*
G02*
X100756250Y-102150000I-243750J0D01*
G01*
X99843750Y-102150000D01*
G75*
G02*
X99600000Y-101906250I0J243750D01*
G01*
X99600000Y-101418750D01*
G75*
G02*
X99843750Y-101175000I243750J0D01*
G01*
G37*
G36*
G01*
X99843750Y-103050000D02*
X100756250Y-103050000D01*
G75*
G02*
X101000000Y-103293750I0J-243750D01*
G01*
X101000000Y-103781250D01*
G75*
G02*
X100756250Y-104025000I-243750J0D01*
G01*
X99843750Y-104025000D01*
G75*
G02*
X99600000Y-103781250I0J243750D01*
G01*
X99600000Y-103293750D01*
G75*
G02*
X99843750Y-103050000I243750J0D01*
G01*
G37*
%TD*%
%TO.C,FB601*%
G36*
G01*
X115966250Y-103222500D02*
X115053750Y-103222500D01*
G75*
G02*
X114810000Y-102978750I0J243750D01*
G01*
X114810000Y-102491250D01*
G75*
G02*
X115053750Y-102247500I243750J0D01*
G01*
X115966250Y-102247500D01*
G75*
G02*
X116210000Y-102491250I0J-243750D01*
G01*
X116210000Y-102978750D01*
G75*
G02*
X115966250Y-103222500I-243750J0D01*
G01*
G37*
G36*
G01*
X115966250Y-101347500D02*
X115053750Y-101347500D01*
G75*
G02*
X114810000Y-101103750I0J243750D01*
G01*
X114810000Y-100616250D01*
G75*
G02*
X115053750Y-100372500I243750J0D01*
G01*
X115966250Y-100372500D01*
G75*
G02*
X116210000Y-100616250I0J-243750D01*
G01*
X116210000Y-101103750D01*
G75*
G02*
X115966250Y-101347500I-243750J0D01*
G01*
G37*
%TD*%
%TO.C,FB701*%
G36*
G01*
X149405250Y-94516500D02*
X148492750Y-94516500D01*
G75*
G02*
X148249000Y-94272750I0J243750D01*
G01*
X148249000Y-93785250D01*
G75*
G02*
X148492750Y-93541500I243750J0D01*
G01*
X149405250Y-93541500D01*
G75*
G02*
X149649000Y-93785250I0J-243750D01*
G01*
X149649000Y-94272750D01*
G75*
G02*
X149405250Y-94516500I-243750J0D01*
G01*
G37*
G36*
G01*
X149405250Y-92641500D02*
X148492750Y-92641500D01*
G75*
G02*
X148249000Y-92397750I0J243750D01*
G01*
X148249000Y-91910250D01*
G75*
G02*
X148492750Y-91666500I243750J0D01*
G01*
X149405250Y-91666500D01*
G75*
G02*
X149649000Y-91910250I0J-243750D01*
G01*
X149649000Y-92397750D01*
G75*
G02*
X149405250Y-92641500I-243750J0D01*
G01*
G37*
%TD*%
%TO.C,FB702*%
G36*
G01*
X143746250Y-94466500D02*
X142833750Y-94466500D01*
G75*
G02*
X142590000Y-94222750I0J243750D01*
G01*
X142590000Y-93735250D01*
G75*
G02*
X142833750Y-93491500I243750J0D01*
G01*
X143746250Y-93491500D01*
G75*
G02*
X143990000Y-93735250I0J-243750D01*
G01*
X143990000Y-94222750D01*
G75*
G02*
X143746250Y-94466500I-243750J0D01*
G01*
G37*
G36*
G01*
X143746250Y-92591500D02*
X142833750Y-92591500D01*
G75*
G02*
X142590000Y-92347750I0J243750D01*
G01*
X142590000Y-91860250D01*
G75*
G02*
X142833750Y-91616500I243750J0D01*
G01*
X143746250Y-91616500D01*
G75*
G02*
X143990000Y-91860250I0J-243750D01*
G01*
X143990000Y-92347750D01*
G75*
G02*
X143746250Y-92591500I-243750J0D01*
G01*
G37*
%TD*%
%TO.C,FB703*%
G36*
G01*
X147386250Y-94516500D02*
X146473750Y-94516500D01*
G75*
G02*
X146230000Y-94272750I0J243750D01*
G01*
X146230000Y-93785250D01*
G75*
G02*
X146473750Y-93541500I243750J0D01*
G01*
X147386250Y-93541500D01*
G75*
G02*
X147630000Y-93785250I0J-243750D01*
G01*
X147630000Y-94272750D01*
G75*
G02*
X147386250Y-94516500I-243750J0D01*
G01*
G37*
G36*
G01*
X147386250Y-92641500D02*
X146473750Y-92641500D01*
G75*
G02*
X146230000Y-92397750I0J243750D01*
G01*
X146230000Y-91910250D01*
G75*
G02*
X146473750Y-91666500I243750J0D01*
G01*
X147386250Y-91666500D01*
G75*
G02*
X147630000Y-91910250I0J-243750D01*
G01*
X147630000Y-92397750D01*
G75*
G02*
X147386250Y-92641500I-243750J0D01*
G01*
G37*
%TD*%
%TO.C,FB801*%
G36*
G01*
X146944500Y-97663750D02*
X146944500Y-98576250D01*
G75*
G02*
X146700750Y-98820000I-243750J0D01*
G01*
X146213250Y-98820000D01*
G75*
G02*
X145969500Y-98576250I0J243750D01*
G01*
X145969500Y-97663750D01*
G75*
G02*
X146213250Y-97420000I243750J0D01*
G01*
X146700750Y-97420000D01*
G75*
G02*
X146944500Y-97663750I0J-243750D01*
G01*
G37*
G36*
G01*
X148819500Y-97663750D02*
X148819500Y-98576250D01*
G75*
G02*
X148575750Y-98820000I-243750J0D01*
G01*
X148088250Y-98820000D01*
G75*
G02*
X147844500Y-98576250I0J243750D01*
G01*
X147844500Y-97663750D01*
G75*
G02*
X148088250Y-97420000I243750J0D01*
G01*
X148575750Y-97420000D01*
G75*
G02*
X148819500Y-97663750I0J-243750D01*
G01*
G37*
%TD*%
%TO.C,FB903*%
G36*
G01*
X136530500Y-110770250D02*
X136530500Y-109857750D01*
G75*
G02*
X136774250Y-109614000I243750J0D01*
G01*
X137261750Y-109614000D01*
G75*
G02*
X137505500Y-109857750I0J-243750D01*
G01*
X137505500Y-110770250D01*
G75*
G02*
X137261750Y-111014000I-243750J0D01*
G01*
X136774250Y-111014000D01*
G75*
G02*
X136530500Y-110770250I0J243750D01*
G01*
G37*
G36*
G01*
X134655500Y-110770250D02*
X134655500Y-109857750D01*
G75*
G02*
X134899250Y-109614000I243750J0D01*
G01*
X135386750Y-109614000D01*
G75*
G02*
X135630500Y-109857750I0J-243750D01*
G01*
X135630500Y-110770250D01*
G75*
G02*
X135386750Y-111014000I-243750J0D01*
G01*
X134899250Y-111014000D01*
G75*
G02*
X134655500Y-110770250I0J243750D01*
G01*
G37*
%TD*%
%TO.C,FB904*%
G36*
G01*
X140866250Y-114452500D02*
X139953750Y-114452500D01*
G75*
G02*
X139710000Y-114208750I0J243750D01*
G01*
X139710000Y-113721250D01*
G75*
G02*
X139953750Y-113477500I243750J0D01*
G01*
X140866250Y-113477500D01*
G75*
G02*
X141110000Y-113721250I0J-243750D01*
G01*
X141110000Y-114208750D01*
G75*
G02*
X140866250Y-114452500I-243750J0D01*
G01*
G37*
G36*
G01*
X140866250Y-112577500D02*
X139953750Y-112577500D01*
G75*
G02*
X139710000Y-112333750I0J243750D01*
G01*
X139710000Y-111846250D01*
G75*
G02*
X139953750Y-111602500I243750J0D01*
G01*
X140866250Y-111602500D01*
G75*
G02*
X141110000Y-111846250I0J-243750D01*
G01*
X141110000Y-112333750D01*
G75*
G02*
X140866250Y-112577500I-243750J0D01*
G01*
G37*
%TD*%
%TO.C,J701*%
G36*
G01*
X146000000Y-112949999D02*
X146000000Y-114250001D01*
G75*
G02*
X145750001Y-114500000I-249999J0D01*
G01*
X145049999Y-114500000D01*
G75*
G02*
X144800000Y-114250001I0J249999D01*
G01*
X144800000Y-112949999D01*
G75*
G02*
X145049999Y-112700000I249999J0D01*
G01*
X145750001Y-112700000D01*
G75*
G02*
X146000000Y-112949999I0J-249999D01*
G01*
G37*
G36*
G01*
X151600000Y-112949999D02*
X151600000Y-114250001D01*
G75*
G02*
X151350001Y-114500000I-249999J0D01*
G01*
X150649999Y-114500000D01*
G75*
G02*
X150400000Y-114250001I0J249999D01*
G01*
X150400000Y-112949999D01*
G75*
G02*
X150649999Y-112700000I249999J0D01*
G01*
X151350001Y-112700000D01*
G75*
G02*
X151600000Y-112949999I0J-249999D01*
G01*
G37*
G36*
G01*
X147000000Y-110450000D02*
X147000000Y-111700000D01*
G75*
G02*
X146850000Y-111850000I-150000J0D01*
G01*
X146550000Y-111850000D01*
G75*
G02*
X146400000Y-111700000I0J150000D01*
G01*
X146400000Y-110450000D01*
G75*
G02*
X146550000Y-110300000I150000J0D01*
G01*
X146850000Y-110300000D01*
G75*
G02*
X147000000Y-110450000I0J-150000D01*
G01*
G37*
G36*
G01*
X148000000Y-110450000D02*
X148000000Y-111700000D01*
G75*
G02*
X147850000Y-111850000I-150000J0D01*
G01*
X147550000Y-111850000D01*
G75*
G02*
X147400000Y-111700000I0J150000D01*
G01*
X147400000Y-110450000D01*
G75*
G02*
X147550000Y-110300000I150000J0D01*
G01*
X147850000Y-110300000D01*
G75*
G02*
X148000000Y-110450000I0J-150000D01*
G01*
G37*
G36*
G01*
X149000000Y-110450000D02*
X149000000Y-111700000D01*
G75*
G02*
X148850000Y-111850000I-150000J0D01*
G01*
X148550000Y-111850000D01*
G75*
G02*
X148400000Y-111700000I0J150000D01*
G01*
X148400000Y-110450000D01*
G75*
G02*
X148550000Y-110300000I150000J0D01*
G01*
X148850000Y-110300000D01*
G75*
G02*
X149000000Y-110450000I0J-150000D01*
G01*
G37*
G36*
G01*
X150000000Y-110450000D02*
X150000000Y-111700000D01*
G75*
G02*
X149850000Y-111850000I-150000J0D01*
G01*
X149550000Y-111850000D01*
G75*
G02*
X149400000Y-111700000I0J150000D01*
G01*
X149400000Y-110450000D01*
G75*
G02*
X149550000Y-110300000I150000J0D01*
G01*
X149850000Y-110300000D01*
G75*
G02*
X150000000Y-110450000I0J-150000D01*
G01*
G37*
%TD*%
D26*
%TO.C,Q401*%
X156070000Y-101460000D03*
X154170000Y-101460000D03*
X155120000Y-103460000D03*
%TD*%
%TO.C,Q402*%
X158720000Y-103460000D03*
X157770000Y-101460000D03*
X159670000Y-101460000D03*
%TD*%
%TO.C,Q901*%
X139170000Y-104130000D03*
X137270000Y-104130000D03*
X138220000Y-106130000D03*
%TD*%
%TO.C,R201*%
G36*
G01*
X167140000Y-63922500D02*
X167140000Y-63577500D01*
G75*
G02*
X167287500Y-63430000I147500J0D01*
G01*
X167582500Y-63430000D01*
G75*
G02*
X167730000Y-63577500I0J-147500D01*
G01*
X167730000Y-63922500D01*
G75*
G02*
X167582500Y-64070000I-147500J0D01*
G01*
X167287500Y-64070000D01*
G75*
G02*
X167140000Y-63922500I0J147500D01*
G01*
G37*
G36*
G01*
X166170000Y-63922500D02*
X166170000Y-63577500D01*
G75*
G02*
X166317500Y-63430000I147500J0D01*
G01*
X166612500Y-63430000D01*
G75*
G02*
X166760000Y-63577500I0J-147500D01*
G01*
X166760000Y-63922500D01*
G75*
G02*
X166612500Y-64070000I-147500J0D01*
G01*
X166317500Y-64070000D01*
G75*
G02*
X166170000Y-63922500I0J147500D01*
G01*
G37*
%TD*%
%TO.C,R203*%
G36*
G01*
X164993750Y-88846000D02*
X165506250Y-88846000D01*
G75*
G02*
X165725000Y-89064750I0J-218750D01*
G01*
X165725000Y-89502250D01*
G75*
G02*
X165506250Y-89721000I-218750J0D01*
G01*
X164993750Y-89721000D01*
G75*
G02*
X164775000Y-89502250I0J218750D01*
G01*
X164775000Y-89064750D01*
G75*
G02*
X164993750Y-88846000I218750J0D01*
G01*
G37*
G36*
G01*
X164993750Y-87271000D02*
X165506250Y-87271000D01*
G75*
G02*
X165725000Y-87489750I0J-218750D01*
G01*
X165725000Y-87927250D01*
G75*
G02*
X165506250Y-88146000I-218750J0D01*
G01*
X164993750Y-88146000D01*
G75*
G02*
X164775000Y-87927250I0J218750D01*
G01*
X164775000Y-87489750D01*
G75*
G02*
X164993750Y-87271000I218750J0D01*
G01*
G37*
%TD*%
%TO.C,R204*%
G36*
G01*
X162194250Y-88146000D02*
X161681750Y-88146000D01*
G75*
G02*
X161463000Y-87927250I0J218750D01*
G01*
X161463000Y-87489750D01*
G75*
G02*
X161681750Y-87271000I218750J0D01*
G01*
X162194250Y-87271000D01*
G75*
G02*
X162413000Y-87489750I0J-218750D01*
G01*
X162413000Y-87927250D01*
G75*
G02*
X162194250Y-88146000I-218750J0D01*
G01*
G37*
G36*
G01*
X162194250Y-89721000D02*
X161681750Y-89721000D01*
G75*
G02*
X161463000Y-89502250I0J218750D01*
G01*
X161463000Y-89064750D01*
G75*
G02*
X161681750Y-88846000I218750J0D01*
G01*
X162194250Y-88846000D01*
G75*
G02*
X162413000Y-89064750I0J-218750D01*
G01*
X162413000Y-89502250D01*
G75*
G02*
X162194250Y-89721000I-218750J0D01*
G01*
G37*
%TD*%
%TO.C,R205*%
G36*
G01*
X160162250Y-89721000D02*
X159649750Y-89721000D01*
G75*
G02*
X159431000Y-89502250I0J218750D01*
G01*
X159431000Y-89064750D01*
G75*
G02*
X159649750Y-88846000I218750J0D01*
G01*
X160162250Y-88846000D01*
G75*
G02*
X160381000Y-89064750I0J-218750D01*
G01*
X160381000Y-89502250D01*
G75*
G02*
X160162250Y-89721000I-218750J0D01*
G01*
G37*
G36*
G01*
X160162250Y-88146000D02*
X159649750Y-88146000D01*
G75*
G02*
X159431000Y-87927250I0J218750D01*
G01*
X159431000Y-87489750D01*
G75*
G02*
X159649750Y-87271000I218750J0D01*
G01*
X160162250Y-87271000D01*
G75*
G02*
X160381000Y-87489750I0J-218750D01*
G01*
X160381000Y-87927250D01*
G75*
G02*
X160162250Y-88146000I-218750J0D01*
G01*
G37*
%TD*%
%TO.C,R206*%
G36*
G01*
X156476250Y-88150000D02*
X155963750Y-88150000D01*
G75*
G02*
X155745000Y-87931250I0J218750D01*
G01*
X155745000Y-87493750D01*
G75*
G02*
X155963750Y-87275000I218750J0D01*
G01*
X156476250Y-87275000D01*
G75*
G02*
X156695000Y-87493750I0J-218750D01*
G01*
X156695000Y-87931250D01*
G75*
G02*
X156476250Y-88150000I-218750J0D01*
G01*
G37*
G36*
G01*
X156476250Y-89725000D02*
X155963750Y-89725000D01*
G75*
G02*
X155745000Y-89506250I0J218750D01*
G01*
X155745000Y-89068750D01*
G75*
G02*
X155963750Y-88850000I218750J0D01*
G01*
X156476250Y-88850000D01*
G75*
G02*
X156695000Y-89068750I0J-218750D01*
G01*
X156695000Y-89506250D01*
G75*
G02*
X156476250Y-89725000I-218750J0D01*
G01*
G37*
%TD*%
%TO.C,R207*%
G36*
G01*
X158176250Y-89725000D02*
X157663750Y-89725000D01*
G75*
G02*
X157445000Y-89506250I0J218750D01*
G01*
X157445000Y-89068750D01*
G75*
G02*
X157663750Y-88850000I218750J0D01*
G01*
X158176250Y-88850000D01*
G75*
G02*
X158395000Y-89068750I0J-218750D01*
G01*
X158395000Y-89506250D01*
G75*
G02*
X158176250Y-89725000I-218750J0D01*
G01*
G37*
G36*
G01*
X158176250Y-88150000D02*
X157663750Y-88150000D01*
G75*
G02*
X157445000Y-87931250I0J218750D01*
G01*
X157445000Y-87493750D01*
G75*
G02*
X157663750Y-87275000I218750J0D01*
G01*
X158176250Y-87275000D01*
G75*
G02*
X158395000Y-87493750I0J-218750D01*
G01*
X158395000Y-87931250D01*
G75*
G02*
X158176250Y-88150000I-218750J0D01*
G01*
G37*
%TD*%
%TO.C,R208*%
G36*
G01*
X154546250Y-89715000D02*
X154033750Y-89715000D01*
G75*
G02*
X153815000Y-89496250I0J218750D01*
G01*
X153815000Y-89058750D01*
G75*
G02*
X154033750Y-88840000I218750J0D01*
G01*
X154546250Y-88840000D01*
G75*
G02*
X154765000Y-89058750I0J-218750D01*
G01*
X154765000Y-89496250D01*
G75*
G02*
X154546250Y-89715000I-218750J0D01*
G01*
G37*
G36*
G01*
X154546250Y-88140000D02*
X154033750Y-88140000D01*
G75*
G02*
X153815000Y-87921250I0J218750D01*
G01*
X153815000Y-87483750D01*
G75*
G02*
X154033750Y-87265000I218750J0D01*
G01*
X154546250Y-87265000D01*
G75*
G02*
X154765000Y-87483750I0J-218750D01*
G01*
X154765000Y-87921250D01*
G75*
G02*
X154546250Y-88140000I-218750J0D01*
G01*
G37*
%TD*%
%TO.C,R209*%
G36*
G01*
X134356250Y-91090000D02*
X133843750Y-91090000D01*
G75*
G02*
X133625000Y-90871250I0J218750D01*
G01*
X133625000Y-90433750D01*
G75*
G02*
X133843750Y-90215000I218750J0D01*
G01*
X134356250Y-90215000D01*
G75*
G02*
X134575000Y-90433750I0J-218750D01*
G01*
X134575000Y-90871250D01*
G75*
G02*
X134356250Y-91090000I-218750J0D01*
G01*
G37*
G36*
G01*
X134356250Y-92665000D02*
X133843750Y-92665000D01*
G75*
G02*
X133625000Y-92446250I0J218750D01*
G01*
X133625000Y-92008750D01*
G75*
G02*
X133843750Y-91790000I218750J0D01*
G01*
X134356250Y-91790000D01*
G75*
G02*
X134575000Y-92008750I0J-218750D01*
G01*
X134575000Y-92446250D01*
G75*
G02*
X134356250Y-92665000I-218750J0D01*
G01*
G37*
%TD*%
%TO.C,R210*%
G36*
G01*
X136019250Y-92665000D02*
X135506750Y-92665000D01*
G75*
G02*
X135288000Y-92446250I0J218750D01*
G01*
X135288000Y-92008750D01*
G75*
G02*
X135506750Y-91790000I218750J0D01*
G01*
X136019250Y-91790000D01*
G75*
G02*
X136238000Y-92008750I0J-218750D01*
G01*
X136238000Y-92446250D01*
G75*
G02*
X136019250Y-92665000I-218750J0D01*
G01*
G37*
G36*
G01*
X136019250Y-91090000D02*
X135506750Y-91090000D01*
G75*
G02*
X135288000Y-90871250I0J218750D01*
G01*
X135288000Y-90433750D01*
G75*
G02*
X135506750Y-90215000I218750J0D01*
G01*
X136019250Y-90215000D01*
G75*
G02*
X136238000Y-90433750I0J-218750D01*
G01*
X136238000Y-90871250D01*
G75*
G02*
X136019250Y-91090000I-218750J0D01*
G01*
G37*
%TD*%
%TO.C,R302*%
G36*
G01*
X93518000Y-88923000D02*
X93518000Y-88578000D01*
G75*
G02*
X93665500Y-88430500I147500J0D01*
G01*
X93960500Y-88430500D01*
G75*
G02*
X94108000Y-88578000I0J-147500D01*
G01*
X94108000Y-88923000D01*
G75*
G02*
X93960500Y-89070500I-147500J0D01*
G01*
X93665500Y-89070500D01*
G75*
G02*
X93518000Y-88923000I0J147500D01*
G01*
G37*
G36*
G01*
X92548000Y-88923000D02*
X92548000Y-88578000D01*
G75*
G02*
X92695500Y-88430500I147500J0D01*
G01*
X92990500Y-88430500D01*
G75*
G02*
X93138000Y-88578000I0J-147500D01*
G01*
X93138000Y-88923000D01*
G75*
G02*
X92990500Y-89070500I-147500J0D01*
G01*
X92695500Y-89070500D01*
G75*
G02*
X92548000Y-88923000I0J147500D01*
G01*
G37*
%TD*%
%TO.C,R303*%
G36*
G01*
X94080000Y-89577500D02*
X94080000Y-89922500D01*
G75*
G02*
X93932500Y-90070000I-147500J0D01*
G01*
X93637500Y-90070000D01*
G75*
G02*
X93490000Y-89922500I0J147500D01*
G01*
X93490000Y-89577500D01*
G75*
G02*
X93637500Y-89430000I147500J0D01*
G01*
X93932500Y-89430000D01*
G75*
G02*
X94080000Y-89577500I0J-147500D01*
G01*
G37*
G36*
G01*
X93110000Y-89577500D02*
X93110000Y-89922500D01*
G75*
G02*
X92962500Y-90070000I-147500J0D01*
G01*
X92667500Y-90070000D01*
G75*
G02*
X92520000Y-89922500I0J147500D01*
G01*
X92520000Y-89577500D01*
G75*
G02*
X92667500Y-89430000I147500J0D01*
G01*
X92962500Y-89430000D01*
G75*
G02*
X93110000Y-89577500I0J-147500D01*
G01*
G37*
%TD*%
%TO.C,R401*%
G36*
G01*
X162510000Y-100377500D02*
X162510000Y-100722500D01*
G75*
G02*
X162362500Y-100870000I-147500J0D01*
G01*
X162067500Y-100870000D01*
G75*
G02*
X161920000Y-100722500I0J147500D01*
G01*
X161920000Y-100377500D01*
G75*
G02*
X162067500Y-100230000I147500J0D01*
G01*
X162362500Y-100230000D01*
G75*
G02*
X162510000Y-100377500I0J-147500D01*
G01*
G37*
G36*
G01*
X163480000Y-100377500D02*
X163480000Y-100722500D01*
G75*
G02*
X163332500Y-100870000I-147500J0D01*
G01*
X163037500Y-100870000D01*
G75*
G02*
X162890000Y-100722500I0J147500D01*
G01*
X162890000Y-100377500D01*
G75*
G02*
X163037500Y-100230000I147500J0D01*
G01*
X163332500Y-100230000D01*
G75*
G02*
X163480000Y-100377500I0J-147500D01*
G01*
G37*
%TD*%
%TO.C,R402*%
G36*
G01*
X164830000Y-102077500D02*
X164830000Y-102422500D01*
G75*
G02*
X164682500Y-102570000I-147500J0D01*
G01*
X164387500Y-102570000D01*
G75*
G02*
X164240000Y-102422500I0J147500D01*
G01*
X164240000Y-102077500D01*
G75*
G02*
X164387500Y-101930000I147500J0D01*
G01*
X164682500Y-101930000D01*
G75*
G02*
X164830000Y-102077500I0J-147500D01*
G01*
G37*
G36*
G01*
X163860000Y-102077500D02*
X163860000Y-102422500D01*
G75*
G02*
X163712500Y-102570000I-147500J0D01*
G01*
X163417500Y-102570000D01*
G75*
G02*
X163270000Y-102422500I0J147500D01*
G01*
X163270000Y-102077500D01*
G75*
G02*
X163417500Y-101930000I147500J0D01*
G01*
X163712500Y-101930000D01*
G75*
G02*
X163860000Y-102077500I0J-147500D01*
G01*
G37*
%TD*%
%TO.C,R501*%
G36*
G01*
X171770000Y-105072500D02*
X171770000Y-104727500D01*
G75*
G02*
X171917500Y-104580000I147500J0D01*
G01*
X172212500Y-104580000D01*
G75*
G02*
X172360000Y-104727500I0J-147500D01*
G01*
X172360000Y-105072500D01*
G75*
G02*
X172212500Y-105220000I-147500J0D01*
G01*
X171917500Y-105220000D01*
G75*
G02*
X171770000Y-105072500I0J147500D01*
G01*
G37*
G36*
G01*
X172740000Y-105072500D02*
X172740000Y-104727500D01*
G75*
G02*
X172887500Y-104580000I147500J0D01*
G01*
X173182500Y-104580000D01*
G75*
G02*
X173330000Y-104727500I0J-147500D01*
G01*
X173330000Y-105072500D01*
G75*
G02*
X173182500Y-105220000I-147500J0D01*
G01*
X172887500Y-105220000D01*
G75*
G02*
X172740000Y-105072500I0J147500D01*
G01*
G37*
%TD*%
%TO.C,R502*%
G36*
G01*
X172740000Y-103572500D02*
X172740000Y-103227500D01*
G75*
G02*
X172887500Y-103080000I147500J0D01*
G01*
X173182500Y-103080000D01*
G75*
G02*
X173330000Y-103227500I0J-147500D01*
G01*
X173330000Y-103572500D01*
G75*
G02*
X173182500Y-103720000I-147500J0D01*
G01*
X172887500Y-103720000D01*
G75*
G02*
X172740000Y-103572500I0J147500D01*
G01*
G37*
G36*
G01*
X171770000Y-103572500D02*
X171770000Y-103227500D01*
G75*
G02*
X171917500Y-103080000I147500J0D01*
G01*
X172212500Y-103080000D01*
G75*
G02*
X172360000Y-103227500I0J-147500D01*
G01*
X172360000Y-103572500D01*
G75*
G02*
X172212500Y-103720000I-147500J0D01*
G01*
X171917500Y-103720000D01*
G75*
G02*
X171770000Y-103572500I0J147500D01*
G01*
G37*
%TD*%
%TO.C,R701*%
G36*
G01*
X143123000Y-89488500D02*
X143123000Y-89833500D01*
G75*
G02*
X142975500Y-89981000I-147500J0D01*
G01*
X142680500Y-89981000D01*
G75*
G02*
X142533000Y-89833500I0J147500D01*
G01*
X142533000Y-89488500D01*
G75*
G02*
X142680500Y-89341000I147500J0D01*
G01*
X142975500Y-89341000D01*
G75*
G02*
X143123000Y-89488500I0J-147500D01*
G01*
G37*
G36*
G01*
X144093000Y-89488500D02*
X144093000Y-89833500D01*
G75*
G02*
X143945500Y-89981000I-147500J0D01*
G01*
X143650500Y-89981000D01*
G75*
G02*
X143503000Y-89833500I0J147500D01*
G01*
X143503000Y-89488500D01*
G75*
G02*
X143650500Y-89341000I147500J0D01*
G01*
X143945500Y-89341000D01*
G75*
G02*
X144093000Y-89488500I0J-147500D01*
G01*
G37*
%TD*%
%TO.C,R702*%
G36*
G01*
X147120000Y-89883500D02*
X147120000Y-89538500D01*
G75*
G02*
X147267500Y-89391000I147500J0D01*
G01*
X147562500Y-89391000D01*
G75*
G02*
X147710000Y-89538500I0J-147500D01*
G01*
X147710000Y-89883500D01*
G75*
G02*
X147562500Y-90031000I-147500J0D01*
G01*
X147267500Y-90031000D01*
G75*
G02*
X147120000Y-89883500I0J147500D01*
G01*
G37*
G36*
G01*
X146150000Y-89883500D02*
X146150000Y-89538500D01*
G75*
G02*
X146297500Y-89391000I147500J0D01*
G01*
X146592500Y-89391000D01*
G75*
G02*
X146740000Y-89538500I0J-147500D01*
G01*
X146740000Y-89883500D01*
G75*
G02*
X146592500Y-90031000I-147500J0D01*
G01*
X146297500Y-90031000D01*
G75*
G02*
X146150000Y-89883500I0J147500D01*
G01*
G37*
%TD*%
%TO.C,R801*%
G36*
G01*
X149493000Y-96447500D02*
X149493000Y-96792500D01*
G75*
G02*
X149345500Y-96940000I-147500J0D01*
G01*
X149050500Y-96940000D01*
G75*
G02*
X148903000Y-96792500I0J147500D01*
G01*
X148903000Y-96447500D01*
G75*
G02*
X149050500Y-96300000I147500J0D01*
G01*
X149345500Y-96300000D01*
G75*
G02*
X149493000Y-96447500I0J-147500D01*
G01*
G37*
G36*
G01*
X148523000Y-96447500D02*
X148523000Y-96792500D01*
G75*
G02*
X148375500Y-96940000I-147500J0D01*
G01*
X148080500Y-96940000D01*
G75*
G02*
X147933000Y-96792500I0J147500D01*
G01*
X147933000Y-96447500D01*
G75*
G02*
X148080500Y-96300000I147500J0D01*
G01*
X148375500Y-96300000D01*
G75*
G02*
X148523000Y-96447500I0J-147500D01*
G01*
G37*
%TD*%
%TO.C,R802*%
G36*
G01*
X152502500Y-98044750D02*
X152502500Y-98957250D01*
G75*
G02*
X152258750Y-99201000I-243750J0D01*
G01*
X151771250Y-99201000D01*
G75*
G02*
X151527500Y-98957250I0J243750D01*
G01*
X151527500Y-98044750D01*
G75*
G02*
X151771250Y-97801000I243750J0D01*
G01*
X152258750Y-97801000D01*
G75*
G02*
X152502500Y-98044750I0J-243750D01*
G01*
G37*
G36*
G01*
X150627500Y-98044750D02*
X150627500Y-98957250D01*
G75*
G02*
X150383750Y-99201000I-243750J0D01*
G01*
X149896250Y-99201000D01*
G75*
G02*
X149652500Y-98957250I0J243750D01*
G01*
X149652500Y-98044750D01*
G75*
G02*
X149896250Y-97801000I243750J0D01*
G01*
X150383750Y-97801000D01*
G75*
G02*
X150627500Y-98044750I0J-243750D01*
G01*
G37*
%TD*%
%TO.C,R901*%
G36*
G01*
X139528000Y-92580750D02*
X139528000Y-93093250D01*
G75*
G02*
X139309250Y-93312000I-218750J0D01*
G01*
X138871750Y-93312000D01*
G75*
G02*
X138653000Y-93093250I0J218750D01*
G01*
X138653000Y-92580750D01*
G75*
G02*
X138871750Y-92362000I218750J0D01*
G01*
X139309250Y-92362000D01*
G75*
G02*
X139528000Y-92580750I0J-218750D01*
G01*
G37*
G36*
G01*
X137953000Y-92580750D02*
X137953000Y-93093250D01*
G75*
G02*
X137734250Y-93312000I-218750J0D01*
G01*
X137296750Y-93312000D01*
G75*
G02*
X137078000Y-93093250I0J218750D01*
G01*
X137078000Y-92580750D01*
G75*
G02*
X137296750Y-92362000I218750J0D01*
G01*
X137734250Y-92362000D01*
G75*
G02*
X137953000Y-92580750I0J-218750D01*
G01*
G37*
%TD*%
D27*
%TO.C,U301*%
X98275000Y-91275000D03*
X97325000Y-91275000D03*
X96375000Y-91275000D03*
X96375000Y-93475000D03*
X98275000Y-93475000D03*
X97325000Y-93475000D03*
%TD*%
%TO.C,U602*%
G36*
G01*
X116423500Y-87010000D02*
X116748500Y-87010000D01*
G75*
G02*
X116911000Y-87172500I0J-162500D01*
G01*
X116911000Y-89197500D01*
G75*
G02*
X116748500Y-89360000I-162500J0D01*
G01*
X116423500Y-89360000D01*
G75*
G02*
X116261000Y-89197500I0J162500D01*
G01*
X116261000Y-87172500D01*
G75*
G02*
X116423500Y-87010000I162500J0D01*
G01*
G37*
G36*
G01*
X113883500Y-87010000D02*
X114208500Y-87010000D01*
G75*
G02*
X114371000Y-87172500I0J-162500D01*
G01*
X114371000Y-89197500D01*
G75*
G02*
X114208500Y-89360000I-162500J0D01*
G01*
X113883500Y-89360000D01*
G75*
G02*
X113721000Y-89197500I0J162500D01*
G01*
X113721000Y-87172500D01*
G75*
G02*
X113883500Y-87010000I162500J0D01*
G01*
G37*
G36*
G01*
X111343500Y-87010000D02*
X111668500Y-87010000D01*
G75*
G02*
X111831000Y-87172500I0J-162500D01*
G01*
X111831000Y-89197500D01*
G75*
G02*
X111668500Y-89360000I-162500J0D01*
G01*
X111343500Y-89360000D01*
G75*
G02*
X111181000Y-89197500I0J162500D01*
G01*
X111181000Y-87172500D01*
G75*
G02*
X111343500Y-87010000I162500J0D01*
G01*
G37*
G36*
G01*
X108803500Y-87010000D02*
X109128500Y-87010000D01*
G75*
G02*
X109291000Y-87172500I0J-162500D01*
G01*
X109291000Y-89197500D01*
G75*
G02*
X109128500Y-89360000I-162500J0D01*
G01*
X108803500Y-89360000D01*
G75*
G02*
X108641000Y-89197500I0J162500D01*
G01*
X108641000Y-87172500D01*
G75*
G02*
X108803500Y-87010000I162500J0D01*
G01*
G37*
G36*
G01*
X108803500Y-96060000D02*
X109128500Y-96060000D01*
G75*
G02*
X109291000Y-96222500I0J-162500D01*
G01*
X109291000Y-98247500D01*
G75*
G02*
X109128500Y-98410000I-162500J0D01*
G01*
X108803500Y-98410000D01*
G75*
G02*
X108641000Y-98247500I0J162500D01*
G01*
X108641000Y-96222500D01*
G75*
G02*
X108803500Y-96060000I162500J0D01*
G01*
G37*
G36*
G01*
X111343500Y-96060000D02*
X111668500Y-96060000D01*
G75*
G02*
X111831000Y-96222500I0J-162500D01*
G01*
X111831000Y-98247500D01*
G75*
G02*
X111668500Y-98410000I-162500J0D01*
G01*
X111343500Y-98410000D01*
G75*
G02*
X111181000Y-98247500I0J162500D01*
G01*
X111181000Y-96222500D01*
G75*
G02*
X111343500Y-96060000I162500J0D01*
G01*
G37*
G36*
G01*
X113883500Y-96060000D02*
X114208500Y-96060000D01*
G75*
G02*
X114371000Y-96222500I0J-162500D01*
G01*
X114371000Y-98247500D01*
G75*
G02*
X114208500Y-98410000I-162500J0D01*
G01*
X113883500Y-98410000D01*
G75*
G02*
X113721000Y-98247500I0J162500D01*
G01*
X113721000Y-96222500D01*
G75*
G02*
X113883500Y-96060000I162500J0D01*
G01*
G37*
G36*
G01*
X116423500Y-96060000D02*
X116748500Y-96060000D01*
G75*
G02*
X116911000Y-96222500I0J-162500D01*
G01*
X116911000Y-98247500D01*
G75*
G02*
X116748500Y-98410000I-162500J0D01*
G01*
X116423500Y-98410000D01*
G75*
G02*
X116261000Y-98247500I0J162500D01*
G01*
X116261000Y-96222500D01*
G75*
G02*
X116423500Y-96060000I162500J0D01*
G01*
G37*
%TD*%
D26*
%TO.C,U603*%
X119502000Y-97384000D03*
X118552000Y-95384000D03*
X120452000Y-95384000D03*
%TD*%
D22*
%TO.C,U801*%
X150753000Y-100920500D03*
D23*
X151253000Y-100883000D03*
D22*
X150253000Y-100920500D03*
X151753000Y-100920500D03*
X150253000Y-100145500D03*
X150753000Y-100145500D03*
X152253000Y-100920500D03*
D24*
X151253000Y-100120500D03*
D22*
X152253000Y-100145500D03*
X151753000Y-100145500D03*
%TD*%
D28*
%TO.C,SW501*%
X162100000Y-104050000D03*
X168400000Y-104050000D03*
X162100000Y-107850000D03*
X168400000Y-107850000D03*
%TD*%
%TO.C,SW502*%
X168400000Y-113900000D03*
X162100000Y-113900000D03*
X168400000Y-110100000D03*
X162100000Y-110100000D03*
%TD*%
M02*
