%TF.GenerationSoftware,KiCad,Pcbnew,(5.1.9-0-10_14)*%
%TF.CreationDate,2021-01-29T17:32:38+02:00*%
%TF.ProjectId,SH-ESP32-HAT-Proto,53482d45-5350-4333-922d-4841542d5072,0.1.0*%
%TF.SameCoordinates,Original*%
%TF.FileFunction,Legend,Bot*%
%TF.FilePolarity,Positive*%
%FSLAX46Y46*%
G04 Gerber Fmt 4.6, Leading zero omitted, Abs format (unit mm)*
G04 Created by KiCad (PCBNEW (5.1.9-0-10_14)) date 2021-01-29 17:32:38*
%MOMM*%
%LPD*%
G01*
G04 APERTURE LIST*
%TA.AperFunction,Profile*%
%ADD10C,0.050000*%
%TD*%
%ADD11C,0.160000*%
%ADD12C,0.300000*%
%ADD13C,0.120000*%
G04 APERTURE END LIST*
D10*
X171989592Y-63010408D02*
X172000000Y-109000000D01*
D11*
X89290000Y-101370476D02*
X89251904Y-101294285D01*
X89251904Y-101180000D01*
X89290000Y-101065714D01*
X89366190Y-100989523D01*
X89442380Y-100951428D01*
X89594761Y-100913333D01*
X89709047Y-100913333D01*
X89861428Y-100951428D01*
X89937619Y-100989523D01*
X90013809Y-101065714D01*
X90051904Y-101180000D01*
X90051904Y-101256190D01*
X90013809Y-101370476D01*
X89975714Y-101408571D01*
X89709047Y-101408571D01*
X89709047Y-101256190D01*
X90051904Y-101751428D02*
X89251904Y-101751428D01*
X90051904Y-102208571D01*
X89251904Y-102208571D01*
X90051904Y-102589523D02*
X89251904Y-102589523D01*
X89251904Y-102780000D01*
X89290000Y-102894285D01*
X89366190Y-102970476D01*
X89442380Y-103008571D01*
X89594761Y-103046666D01*
X89709047Y-103046666D01*
X89861428Y-103008571D01*
X89937619Y-102970476D01*
X90013809Y-102894285D01*
X90051904Y-102780000D01*
X90051904Y-102589523D01*
X89371904Y-67819523D02*
X89371904Y-68314761D01*
X89676666Y-68048095D01*
X89676666Y-68162380D01*
X89714761Y-68238571D01*
X89752857Y-68276666D01*
X89829047Y-68314761D01*
X90019523Y-68314761D01*
X90095714Y-68276666D01*
X90133809Y-68238571D01*
X90171904Y-68162380D01*
X90171904Y-67933809D01*
X90133809Y-67857619D01*
X90095714Y-67819523D01*
X89371904Y-68543333D02*
X90171904Y-68810000D01*
X89371904Y-69076666D01*
X89371904Y-69267142D02*
X89371904Y-69762380D01*
X89676666Y-69495714D01*
X89676666Y-69610000D01*
X89714761Y-69686190D01*
X89752857Y-69724285D01*
X89829047Y-69762380D01*
X90019523Y-69762380D01*
X90095714Y-69724285D01*
X90133809Y-69686190D01*
X90171904Y-69610000D01*
X90171904Y-69381428D01*
X90133809Y-69305238D01*
X90095714Y-69267142D01*
X143013809Y-104768571D02*
X143051904Y-104882857D01*
X143051904Y-105073333D01*
X143013809Y-105149523D01*
X142975714Y-105187619D01*
X142899523Y-105225714D01*
X142823333Y-105225714D01*
X142747142Y-105187619D01*
X142709047Y-105149523D01*
X142670952Y-105073333D01*
X142632857Y-104920952D01*
X142594761Y-104844761D01*
X142556666Y-104806666D01*
X142480476Y-104768571D01*
X142404285Y-104768571D01*
X142328095Y-104806666D01*
X142290000Y-104844761D01*
X142251904Y-104920952D01*
X142251904Y-105111428D01*
X142290000Y-105225714D01*
X143051904Y-105568571D02*
X142251904Y-105568571D01*
X142251904Y-105759047D01*
X142290000Y-105873333D01*
X142366190Y-105949523D01*
X142442380Y-105987619D01*
X142594761Y-106025714D01*
X142709047Y-106025714D01*
X142861428Y-105987619D01*
X142937619Y-105949523D01*
X143013809Y-105873333D01*
X143051904Y-105759047D01*
X143051904Y-105568571D01*
X142823333Y-106330476D02*
X142823333Y-106711428D01*
X143051904Y-106254285D02*
X142251904Y-106520952D01*
X143051904Y-106787619D01*
X145513809Y-104887619D02*
X145551904Y-105001904D01*
X145551904Y-105192380D01*
X145513809Y-105268571D01*
X145475714Y-105306666D01*
X145399523Y-105344761D01*
X145323333Y-105344761D01*
X145247142Y-105306666D01*
X145209047Y-105268571D01*
X145170952Y-105192380D01*
X145132857Y-105040000D01*
X145094761Y-104963809D01*
X145056666Y-104925714D01*
X144980476Y-104887619D01*
X144904285Y-104887619D01*
X144828095Y-104925714D01*
X144790000Y-104963809D01*
X144751904Y-105040000D01*
X144751904Y-105230476D01*
X144790000Y-105344761D01*
X145475714Y-106144761D02*
X145513809Y-106106666D01*
X145551904Y-105992380D01*
X145551904Y-105916190D01*
X145513809Y-105801904D01*
X145437619Y-105725714D01*
X145361428Y-105687619D01*
X145209047Y-105649523D01*
X145094761Y-105649523D01*
X144942380Y-105687619D01*
X144866190Y-105725714D01*
X144790000Y-105801904D01*
X144751904Y-105916190D01*
X144751904Y-105992380D01*
X144790000Y-106106666D01*
X144828095Y-106144761D01*
X145551904Y-106868571D02*
X145551904Y-106487619D01*
X144751904Y-106487619D01*
X149890000Y-105230476D02*
X149851904Y-105154285D01*
X149851904Y-105040000D01*
X149890000Y-104925714D01*
X149966190Y-104849523D01*
X150042380Y-104811428D01*
X150194761Y-104773333D01*
X150309047Y-104773333D01*
X150461428Y-104811428D01*
X150537619Y-104849523D01*
X150613809Y-104925714D01*
X150651904Y-105040000D01*
X150651904Y-105116190D01*
X150613809Y-105230476D01*
X150575714Y-105268571D01*
X150309047Y-105268571D01*
X150309047Y-105116190D01*
X150651904Y-105611428D02*
X149851904Y-105611428D01*
X150651904Y-106068571D01*
X149851904Y-106068571D01*
X150651904Y-106449523D02*
X149851904Y-106449523D01*
X149851904Y-106640000D01*
X149890000Y-106754285D01*
X149966190Y-106830476D01*
X150042380Y-106868571D01*
X150194761Y-106906666D01*
X150309047Y-106906666D01*
X150461428Y-106868571D01*
X150537619Y-106830476D01*
X150613809Y-106754285D01*
X150651904Y-106640000D01*
X150651904Y-106449523D01*
X147251904Y-104749523D02*
X147251904Y-105244761D01*
X147556666Y-104978095D01*
X147556666Y-105092380D01*
X147594761Y-105168571D01*
X147632857Y-105206666D01*
X147709047Y-105244761D01*
X147899523Y-105244761D01*
X147975714Y-105206666D01*
X148013809Y-105168571D01*
X148051904Y-105092380D01*
X148051904Y-104863809D01*
X148013809Y-104787619D01*
X147975714Y-104749523D01*
X147251904Y-105473333D02*
X148051904Y-105740000D01*
X147251904Y-106006666D01*
X147251904Y-106197142D02*
X147251904Y-106692380D01*
X147556666Y-106425714D01*
X147556666Y-106540000D01*
X147594761Y-106616190D01*
X147632857Y-106654285D01*
X147709047Y-106692380D01*
X147899523Y-106692380D01*
X147975714Y-106654285D01*
X148013809Y-106616190D01*
X148051904Y-106540000D01*
X148051904Y-106311428D01*
X148013809Y-106235238D01*
X147975714Y-106197142D01*
D10*
X89000000Y-106499081D02*
G75*
G02*
X97125000Y-112500000I0J-8500919D01*
G01*
X89000000Y-106500000D02*
X89000000Y-103000000D01*
X127000000Y-112500000D02*
X97125000Y-112500000D01*
X127000000Y-112500000D02*
X153000000Y-112500000D01*
D11*
X104347619Y-111157142D02*
X103738095Y-111157142D01*
X104042857Y-111461904D02*
X104042857Y-110852380D01*
X103471428Y-110661904D02*
X103204761Y-111461904D01*
X102938095Y-110661904D01*
D10*
X153000000Y-112500000D02*
X169891435Y-112499765D01*
X153000000Y-112500000D02*
X153000000Y-112500000D01*
X169891436Y-112499765D02*
G75*
G02*
X172000000Y-109000000I8108564J-2500235D01*
G01*
X171989592Y-63010408D02*
G75*
G02*
X169500000Y-57000000I6010408J6010408D01*
G01*
X97500000Y-57000000D02*
G75*
G02*
X89000000Y-65500000I-8500000J0D01*
G01*
X169500000Y-57000000D02*
X97500000Y-57000000D01*
X89000000Y-65500000D02*
X89000000Y-103000000D01*
D11*
X101609523Y-110700000D02*
X101685714Y-110661904D01*
X101800000Y-110661904D01*
X101914285Y-110700000D01*
X101990476Y-110776190D01*
X102028571Y-110852380D01*
X102066666Y-111004761D01*
X102066666Y-111119047D01*
X102028571Y-111271428D01*
X101990476Y-111347619D01*
X101914285Y-111423809D01*
X101800000Y-111461904D01*
X101723809Y-111461904D01*
X101609523Y-111423809D01*
X101571428Y-111385714D01*
X101571428Y-111119047D01*
X101723809Y-111119047D01*
X101228571Y-111461904D02*
X101228571Y-110661904D01*
X100771428Y-111461904D01*
X100771428Y-110661904D01*
X100390476Y-111461904D02*
X100390476Y-110661904D01*
X100200000Y-110661904D01*
X100085714Y-110700000D01*
X100009523Y-110776190D01*
X99971428Y-110852380D01*
X99933333Y-111004761D01*
X99933333Y-111119047D01*
X99971428Y-111271428D01*
X100009523Y-111347619D01*
X100085714Y-111423809D01*
X100200000Y-111461904D01*
X100390476Y-111461904D01*
X104711904Y-103861904D02*
X104445238Y-104661904D01*
X104178571Y-103861904D01*
X103911904Y-104661904D02*
X103911904Y-103861904D01*
X103530952Y-104128571D02*
X103530952Y-104661904D01*
X103530952Y-104204761D02*
X103492857Y-104166666D01*
X103416666Y-104128571D01*
X103302380Y-104128571D01*
X103226190Y-104166666D01*
X103188095Y-104242857D01*
X103188095Y-104661904D01*
X102997619Y-104738095D02*
X102388095Y-104738095D01*
X102197619Y-104661904D02*
X102197619Y-103861904D01*
X101892857Y-103861904D01*
X101816666Y-103900000D01*
X101778571Y-103938095D01*
X101740476Y-104014285D01*
X101740476Y-104128571D01*
X101778571Y-104204761D01*
X101816666Y-104242857D01*
X101892857Y-104280952D01*
X102197619Y-104280952D01*
X101397619Y-104661904D02*
X101397619Y-104128571D01*
X101397619Y-104280952D02*
X101359523Y-104204761D01*
X101321428Y-104166666D01*
X101245238Y-104128571D01*
X101169047Y-104128571D01*
X100788095Y-104661904D02*
X100864285Y-104623809D01*
X100902380Y-104585714D01*
X100940476Y-104509523D01*
X100940476Y-104280952D01*
X100902380Y-104204761D01*
X100864285Y-104166666D01*
X100788095Y-104128571D01*
X100673809Y-104128571D01*
X100597619Y-104166666D01*
X100559523Y-104204761D01*
X100521428Y-104280952D01*
X100521428Y-104509523D01*
X100559523Y-104585714D01*
X100597619Y-104623809D01*
X100673809Y-104661904D01*
X100788095Y-104661904D01*
X100292857Y-104128571D02*
X99988095Y-104128571D01*
X100178571Y-103861904D02*
X100178571Y-104547619D01*
X100140476Y-104623809D01*
X100064285Y-104661904D01*
X99988095Y-104661904D01*
D12*
X113428571Y-57678571D02*
X113428571Y-58750000D01*
X113500000Y-58964285D01*
X113642857Y-59107142D01*
X113857142Y-59178571D01*
X114000000Y-59178571D01*
X112000000Y-59178571D02*
X112714285Y-59178571D01*
X112714285Y-57678571D01*
X110642857Y-59035714D02*
X110714285Y-59107142D01*
X110928571Y-59178571D01*
X111071428Y-59178571D01*
X111285714Y-59107142D01*
X111428571Y-58964285D01*
X111500000Y-58821428D01*
X111571428Y-58535714D01*
X111571428Y-58321428D01*
X111500000Y-58035714D01*
X111428571Y-57892857D01*
X111285714Y-57750000D01*
X111071428Y-57678571D01*
X110928571Y-57678571D01*
X110714285Y-57750000D01*
X110642857Y-57821428D01*
X109571428Y-57678571D02*
X109571428Y-58750000D01*
X109642857Y-58964285D01*
X109785714Y-59107142D01*
X110000000Y-59178571D01*
X110142857Y-59178571D01*
X108142857Y-59178571D02*
X108857142Y-59178571D01*
X108857142Y-57678571D01*
X106785714Y-59035714D02*
X106857142Y-59107142D01*
X107071428Y-59178571D01*
X107214285Y-59178571D01*
X107428571Y-59107142D01*
X107571428Y-58964285D01*
X107642857Y-58821428D01*
X107714285Y-58535714D01*
X107714285Y-58321428D01*
X107642857Y-58035714D01*
X107571428Y-57892857D01*
X107428571Y-57750000D01*
X107214285Y-57678571D01*
X107071428Y-57678571D01*
X106857142Y-57750000D01*
X106785714Y-57821428D01*
X105714285Y-57678571D02*
X105714285Y-58750000D01*
X105785714Y-58964285D01*
X105928571Y-59107142D01*
X106142857Y-59178571D01*
X106285714Y-59178571D01*
X104285714Y-59178571D02*
X105000000Y-59178571D01*
X105000000Y-57678571D01*
X102928571Y-59035714D02*
X103000000Y-59107142D01*
X103214285Y-59178571D01*
X103357142Y-59178571D01*
X103571428Y-59107142D01*
X103714285Y-58964285D01*
X103785714Y-58821428D01*
X103857142Y-58535714D01*
X103857142Y-58321428D01*
X103785714Y-58035714D01*
X103714285Y-57892857D01*
X103571428Y-57750000D01*
X103357142Y-57678571D01*
X103214285Y-57678571D01*
X103000000Y-57750000D01*
X102928571Y-57821428D01*
X101857142Y-57678571D02*
X101857142Y-58750000D01*
X101928571Y-58964285D01*
X102071428Y-59107142D01*
X102285714Y-59178571D01*
X102428571Y-59178571D01*
X100428571Y-59178571D02*
X101142857Y-59178571D01*
X101142857Y-57678571D01*
X99071428Y-59035714D02*
X99142857Y-59107142D01*
X99357142Y-59178571D01*
X99500000Y-59178571D01*
X99714285Y-59107142D01*
X99857142Y-58964285D01*
X99928571Y-58821428D01*
X100000000Y-58535714D01*
X100000000Y-58321428D01*
X99928571Y-58035714D01*
X99857142Y-57892857D01*
X99714285Y-57750000D01*
X99500000Y-57678571D01*
X99357142Y-57678571D01*
X99142857Y-57750000D01*
X99071428Y-57821428D01*
D13*
%TO.C,J303*%
X141350000Y-109240000D02*
X141350000Y-106580000D01*
X149030000Y-109240000D02*
X141350000Y-109240000D01*
X149030000Y-106580000D02*
X141350000Y-106580000D01*
X149030000Y-109240000D02*
X149030000Y-106580000D01*
X150300000Y-109240000D02*
X151630000Y-109240000D01*
X151630000Y-109240000D02*
X151630000Y-107910000D01*
%TD*%
M02*
