M48
; DRILL file {KiCad (5.1.9-0-10_14)} date Friday, January 29, 2021 at 05:32:42 PM
; FORMAT={-:-/ absolute / inch / decimal}
; #@! TF.CreationDate,2021-01-29T17:32:42+02:00
; #@! TF.GenerationSoftware,Kicad,Pcbnew,(5.1.9-0-10_14)
; #@! TF.FileFunction,Plated,1,2,PTH
FMAT,2
INCH
T1C0.0157
T2C0.0374
T3C0.0394
%
G90
G05
T1
X3.5236Y-2.9134
X3.5236Y-3.2087
X3.5236Y-3.5236
X3.5236Y-3.7992
X3.5236Y-4.0551
X3.5433Y-2.6181
X3.5433Y-4.1535
X3.6614Y-2.5787
X3.7205Y-4.2323
X3.7402Y-2.5197
X3.8386Y-2.4213
X3.8583Y-4.3898
X3.878Y-2.2835
X4.0354Y-2.2835
X4.0748Y-4.3898
X4.2717Y-2.2835
X4.311Y-4.3898
X4.5079Y-2.2835
X4.5472Y-4.3898
X4.7835Y-4.3898
X4.8504Y-2.2638
X5.0Y-4.3898
X5.0472Y-2.2638
X5.2362Y-4.3898
X5.248Y-2.2638
X5.4724Y-4.3898
X5.5472Y-2.2638
X5.8504Y-2.2638
X5.9843Y-4.3898
X6.252Y-2.2638
X6.437Y-4.3898
X6.5433Y-2.2638
X6.6732Y-4.3898
X6.7323Y-2.5
X6.7323Y-2.6181
X6.7323Y-2.8543
X6.7323Y-3.0906
X6.7323Y-3.3268
X6.7323Y-3.563
X6.7323Y-3.7992
X6.7323Y-4.0354
X6.7323Y-4.2717
T2
X5.1299Y-4.3169
X5.2283Y-4.3169
X5.3268Y-4.3169
X5.4252Y-4.3169
T3
X3.6Y-2.713
X3.6004Y-2.815
X3.6004Y-2.915
X3.6004Y-3.015
X3.6004Y-3.115
X3.6004Y-3.215
X3.6004Y-3.315
X3.6004Y-3.415
X3.6004Y-3.515
X3.6004Y-3.615
X3.6004Y-3.715
X3.6004Y-3.815
X3.6004Y-3.915
X3.6004Y-4.013
X3.7Y-2.713
X3.7Y-4.013
X3.7004Y-2.815
X3.7004Y-2.915
X3.7004Y-3.015
X3.7004Y-3.115
X3.7004Y-3.215
X3.7004Y-3.315
X3.7004Y-3.415
X3.7004Y-3.515
X3.7004Y-3.615
X3.7004Y-3.715
X3.7004Y-3.815
X3.7004Y-3.915
X3.8Y-2.713
X3.8004Y-2.815
X3.8004Y-2.915
X3.8004Y-3.015
X3.8004Y-3.115
X3.8004Y-3.215
X3.8004Y-3.315
X3.8004Y-3.415
X3.8004Y-3.515
X3.8004Y-3.615
X3.8004Y-3.715
X3.8004Y-3.815
X3.8004Y-3.915
X3.8004Y-4.013
X3.9Y-4.013
X3.9004Y-2.713
X3.9004Y-2.815
X3.9004Y-2.915
X3.9004Y-3.015
X3.9004Y-3.115
X3.9004Y-3.215
X3.9004Y-3.315
X3.9004Y-3.415
X3.9004Y-3.515
X3.9004Y-3.615
X3.9004Y-3.715
X3.9004Y-3.815
X3.9004Y-3.915
X3.9754Y-4.3061
X3.9803Y-4.185
X4.0Y-2.713
X4.0Y-4.013
X4.0004Y-2.815
X4.0004Y-2.915
X4.0004Y-3.015
X4.0004Y-3.115
X4.0004Y-3.215
X4.0004Y-3.315
X4.0004Y-3.415
X4.0004Y-3.515
X4.0004Y-3.615
X4.0004Y-3.715
X4.0004Y-3.815
X4.0004Y-3.915
X4.0797Y-4.3081
X4.0803Y-4.185
X4.1Y-2.713
X4.1004Y-2.815
X4.1004Y-2.915
X4.1004Y-3.015
X4.1004Y-3.115
X4.1004Y-3.215
X4.1004Y-3.315
X4.1004Y-3.415
X4.1004Y-3.515
X4.1004Y-3.615
X4.1004Y-3.715
X4.1004Y-3.815
X4.1004Y-3.915
X4.1004Y-4.013
X4.2Y-2.713
X4.2Y-4.013
X4.2004Y-2.815
X4.2004Y-2.915
X4.2004Y-3.015
X4.2004Y-3.115
X4.2004Y-3.215
X4.2004Y-3.315
X4.2004Y-3.415
X4.2004Y-3.515
X4.2004Y-3.615
X4.2004Y-3.715
X4.2004Y-3.815
X4.2004Y-3.915
X4.3Y-4.013
X4.3004Y-2.713
X4.3004Y-2.815
X4.3004Y-2.915
X4.3004Y-3.015
X4.3004Y-3.115
X4.3004Y-3.215
X4.3004Y-3.315
X4.3004Y-3.415
X4.3004Y-3.515
X4.3004Y-3.615
X4.3004Y-3.715
X4.3004Y-3.815
X4.3004Y-3.915
X4.3004Y-4.213
X4.3004Y-4.313
X4.4Y-2.713
X4.4004Y-2.815
X4.4004Y-2.915
X4.4004Y-3.015
X4.4004Y-3.115
X4.4004Y-3.215
X4.4004Y-3.315
X4.4004Y-3.415
X4.4004Y-3.515
X4.4004Y-3.615
X4.4004Y-3.715
X4.4004Y-3.815
X4.4004Y-3.915
X4.4004Y-4.013
X4.4004Y-4.213
X4.4004Y-4.313
X4.5Y-2.713
X4.5Y-4.013
X4.5004Y-2.815
X4.5004Y-2.915
X4.5004Y-3.015
X4.5004Y-3.115
X4.5004Y-3.215
X4.5004Y-3.315
X4.5004Y-3.415
X4.5004Y-3.515
X4.5004Y-3.615
X4.5004Y-3.715
X4.5004Y-3.815
X4.5004Y-3.915
X4.5004Y-4.213
X4.5004Y-4.313
X4.6Y-2.713
X4.6Y-4.013
X4.6004Y-2.815
X4.6004Y-2.915
X4.6004Y-3.015
X4.6004Y-3.115
X4.6004Y-3.215
X4.6004Y-3.315
X4.6004Y-3.415
X4.6004Y-3.515
X4.6004Y-3.615
X4.6004Y-3.715
X4.6004Y-3.815
X4.6004Y-3.915
X4.6004Y-4.213
X4.6004Y-4.313
X4.7004Y-2.315
X4.7004Y-2.415
X4.7004Y-2.515
X4.7004Y-2.615
X4.7004Y-2.713
X4.7004Y-2.815
X4.7004Y-2.915
X4.7004Y-3.015
X4.7004Y-3.115
X4.7004Y-3.215
X4.7004Y-3.315
X4.7004Y-3.415
X4.7004Y-3.515
X4.7004Y-3.615
X4.7004Y-3.715
X4.7004Y-3.815
X4.7004Y-3.915
X4.7004Y-4.013
X4.7004Y-4.213
X4.7004Y-4.313
X4.8Y-2.713
X4.8Y-4.013
X4.8004Y-2.315
X4.8004Y-2.415
X4.8004Y-2.515
X4.8004Y-2.615
X4.8004Y-2.815
X4.8004Y-2.915
X4.8004Y-3.015
X4.8004Y-3.115
X4.8004Y-3.215
X4.8004Y-3.315
X4.8004Y-3.415
X4.8004Y-3.515
X4.8004Y-3.615
X4.8004Y-3.715
X4.8004Y-3.815
X4.8004Y-3.915
X4.8004Y-4.213
X4.8004Y-4.313
X4.9Y-2.713
X4.9Y-4.013
X4.9004Y-2.315
X4.9004Y-2.415
X4.9004Y-2.515
X4.9004Y-2.615
X4.9004Y-2.815
X4.9004Y-2.915
X4.9004Y-3.015
X4.9004Y-3.115
X4.9004Y-3.215
X4.9004Y-3.315
X4.9004Y-3.415
X4.9004Y-3.515
X4.9004Y-3.615
X4.9004Y-3.715
X4.9004Y-3.815
X4.9004Y-3.915
X4.9004Y-4.213
X4.9004Y-4.313
X5.0Y-2.713
X5.0004Y-2.315
X5.0004Y-2.415
X5.0004Y-2.515
X5.0004Y-2.615
X5.0004Y-2.815
X5.0004Y-2.915
X5.0004Y-3.015
X5.0004Y-3.115
X5.0004Y-3.215
X5.0004Y-3.315
X5.0004Y-3.415
X5.0004Y-3.515
X5.0004Y-3.615
X5.0004Y-3.715
X5.0004Y-3.815
X5.0004Y-3.915
X5.0004Y-4.013
X5.1Y-4.013
X5.1004Y-2.315
X5.1004Y-2.415
X5.1004Y-2.515
X5.1004Y-2.615
X5.1004Y-2.713
X5.1004Y-2.815
X5.1004Y-2.915
X5.1004Y-3.015
X5.1004Y-3.115
X5.1004Y-3.215
X5.1004Y-3.315
X5.1004Y-3.415
X5.1004Y-3.515
X5.1004Y-3.615
X5.1004Y-3.715
X5.1004Y-3.815
X5.1004Y-3.915
X5.1299Y-4.122
X5.2Y-2.713
X5.2Y-4.013
X5.2004Y-2.315
X5.2004Y-2.415
X5.2004Y-2.515
X5.2004Y-2.615
X5.2004Y-2.815
X5.2004Y-2.915
X5.2004Y-3.015
X5.2004Y-3.115
X5.2004Y-3.215
X5.2004Y-3.315
X5.2004Y-3.415
X5.2004Y-3.515
X5.2004Y-3.615
X5.2004Y-3.715
X5.2004Y-3.815
X5.2004Y-3.915
X5.2283Y-4.122
X5.3Y-2.713
X5.3004Y-2.315
X5.3004Y-2.415
X5.3004Y-2.515
X5.3004Y-2.615
X5.3004Y-2.815
X5.3004Y-2.915
X5.3004Y-3.015
X5.3004Y-3.115
X5.3004Y-3.215
X5.3004Y-3.315
X5.3004Y-3.415
X5.3004Y-3.515
X5.3004Y-3.615
X5.3004Y-3.715
X5.3004Y-3.815
X5.3004Y-3.915
X5.3004Y-4.013
X5.3268Y-4.122
X5.4Y-2.713
X5.4Y-4.013
X5.4004Y-2.315
X5.4004Y-2.415
X5.4004Y-2.515
X5.4004Y-2.615
X5.4004Y-2.815
X5.4004Y-2.915
X5.4004Y-3.015
X5.4004Y-3.115
X5.4004Y-3.215
X5.4004Y-3.315
X5.4004Y-3.415
X5.4004Y-3.515
X5.4004Y-3.615
X5.4004Y-3.715
X5.4004Y-3.815
X5.4004Y-3.915
X5.4252Y-4.1201
X5.5Y-4.013
X5.5004Y-2.315
X5.5004Y-2.415
X5.5004Y-2.515
X5.5004Y-2.615
X5.5004Y-2.713
X5.5004Y-2.815
X5.5004Y-2.915
X5.5004Y-3.015
X5.5004Y-3.115
X5.5004Y-3.215
X5.5004Y-3.315
X5.5004Y-3.415
X5.5004Y-3.515
X5.5004Y-3.615
X5.5004Y-3.715
X5.5004Y-3.815
X5.5004Y-3.915
X5.6Y-2.713
X5.6004Y-2.315
X5.6004Y-2.415
X5.6004Y-2.515
X5.6004Y-2.615
X5.6004Y-2.815
X5.6004Y-2.915
X5.6004Y-3.015
X5.6004Y-3.115
X5.6004Y-3.215
X5.6004Y-3.315
X5.6004Y-3.415
X5.6004Y-3.515
X5.6004Y-3.615
X5.6004Y-3.715
X5.6004Y-3.815
X5.6004Y-3.915
X5.6004Y-4.013
X5.6173Y-4.2484
X5.6173Y-4.3484
X5.7Y-2.713
X5.7Y-4.013
X5.7004Y-2.315
X5.7004Y-2.415
X5.7004Y-2.515
X5.7004Y-2.615
X5.7004Y-2.815
X5.7004Y-2.915
X5.7004Y-3.015
X5.7004Y-3.115
X5.7004Y-3.215
X5.7004Y-3.315
X5.7004Y-3.415
X5.7004Y-3.515
X5.7004Y-3.615
X5.7004Y-3.715
X5.7004Y-3.815
X5.7004Y-3.915
X5.7173Y-4.2484
X5.7173Y-4.3484
X5.8Y-2.713
X5.8Y-4.013
X5.8004Y-2.315
X5.8004Y-2.415
X5.8004Y-2.515
X5.8004Y-2.615
X5.8004Y-2.815
X5.8004Y-2.915
X5.8004Y-3.015
X5.8004Y-3.115
X5.8004Y-3.215
X5.8004Y-3.315
X5.8004Y-3.415
X5.8004Y-3.515
X5.8004Y-3.615
X5.8004Y-3.715
X5.8004Y-3.815
X5.8004Y-3.915
X5.8173Y-4.2484
X5.8173Y-4.3484
X5.9004Y-2.315
X5.9004Y-2.415
X5.9004Y-2.515
X5.9004Y-2.615
X5.9004Y-2.713
X5.9004Y-2.815
X5.9004Y-2.915
X5.9004Y-3.015
X5.9004Y-3.115
X5.9004Y-3.215
X5.9004Y-3.315
X5.9004Y-3.415
X5.9004Y-3.515
X5.9004Y-3.615
X5.9004Y-3.715
X5.9004Y-3.815
X5.9004Y-3.915
X5.9004Y-4.013
X5.9173Y-4.2484
X5.9173Y-4.3484
X6.0Y-2.713
X6.0Y-4.013
X6.0004Y-2.315
X6.0004Y-2.415
X6.0004Y-2.515
X6.0004Y-2.615
X6.0004Y-2.815
X6.0004Y-2.915
X6.0004Y-3.015
X6.0004Y-3.115
X6.0004Y-3.215
X6.0004Y-3.315
X6.0004Y-3.415
X6.0004Y-3.515
X6.0004Y-3.615
X6.0004Y-3.715
X6.0004Y-3.815
X6.0004Y-3.915
X6.1Y-2.713
X6.1Y-4.013
X6.1004Y-2.315
X6.1004Y-2.415
X6.1004Y-2.515
X6.1004Y-2.615
X6.1004Y-2.815
X6.1004Y-2.915
X6.1004Y-3.015
X6.1004Y-3.115
X6.1004Y-3.215
X6.1004Y-3.315
X6.1004Y-3.415
X6.1004Y-3.515
X6.1004Y-3.615
X6.1004Y-3.715
X6.1004Y-3.815
X6.1004Y-3.915
X6.2Y-2.713
X6.2004Y-2.315
X6.2004Y-2.415
X6.2004Y-2.515
X6.2004Y-2.615
X6.2004Y-2.815
X6.2004Y-2.915
X6.2004Y-3.015
X6.2004Y-3.115
X6.2004Y-3.215
X6.2004Y-3.315
X6.2004Y-3.415
X6.2004Y-3.515
X6.2004Y-3.615
X6.2004Y-3.715
X6.2004Y-3.815
X6.2004Y-3.915
X6.2004Y-4.013
X6.3Y-4.013
X6.3004Y-2.315
X6.3004Y-2.415
X6.3004Y-2.515
X6.3004Y-2.615
X6.3004Y-2.713
X6.3004Y-2.815
X6.3004Y-2.915
X6.3004Y-3.015
X6.3004Y-3.115
X6.3004Y-3.215
X6.3004Y-3.315
X6.3004Y-3.415
X6.3004Y-3.515
X6.3004Y-3.615
X6.3004Y-3.715
X6.3004Y-3.815
X6.3004Y-3.915
X6.4Y-2.713
X6.4Y-4.013
X6.4004Y-2.315
X6.4004Y-2.415
X6.4004Y-2.515
X6.4004Y-2.615
X6.4004Y-2.815
X6.4004Y-2.915
X6.4004Y-3.015
X6.4004Y-3.115
X6.4004Y-3.215
X6.4004Y-3.315
X6.4004Y-3.415
X6.4004Y-3.515
X6.4004Y-3.615
X6.4004Y-3.715
X6.4004Y-3.815
X6.4004Y-3.915
X6.437Y-4.1122
X6.437Y-4.311
X6.5Y-2.713
X6.5004Y-2.315
X6.5004Y-2.415
X6.5004Y-2.515
X6.5004Y-2.615
X6.5004Y-2.815
X6.5004Y-2.915
X6.5004Y-3.015
X6.5004Y-3.115
X6.5004Y-3.215
X6.5004Y-3.315
X6.5004Y-3.415
X6.5004Y-3.515
X6.5004Y-3.615
X6.5004Y-3.715
X6.5004Y-3.815
X6.5004Y-3.915
X6.5004Y-4.013
X6.5354Y-4.1122
X6.5354Y-4.311
X6.6Y-2.713
X6.6Y-4.013
X6.6004Y-2.315
X6.6004Y-2.415
X6.6004Y-2.515
X6.6004Y-2.615
X6.6004Y-2.815
X6.6004Y-2.915
X6.6004Y-3.015
X6.6004Y-3.115
X6.6004Y-3.215
X6.6004Y-3.315
X6.6004Y-3.415
X6.6004Y-3.515
X6.6004Y-3.615
X6.6004Y-3.715
X6.6004Y-3.815
X6.6004Y-3.915
T0
M30
