%TF.GenerationSoftware,KiCad,Pcbnew,(5.1.9-0-10_14)*%
%TF.CreationDate,2021-01-29T17:32:38+02:00*%
%TF.ProjectId,SH-ESP32-HAT-Proto,53482d45-5350-4333-922d-4841542d5072,0.1.0*%
%TF.SameCoordinates,Original*%
%TF.FileFunction,Soldermask,Bot*%
%TF.FilePolarity,Negative*%
%FSLAX46Y46*%
G04 Gerber Fmt 4.6, Leading zero omitted, Abs format (unit mm)*
G04 Created by KiCad (PCBNEW (5.1.9-0-10_14)) date 2021-01-29 17:32:38*
%MOMM*%
%LPD*%
G01*
G04 APERTURE LIST*
%TA.AperFunction,Profile*%
%ADD10C,0.050000*%
%TD*%
%ADD11C,2.100000*%
%ADD12O,1.800000X1.800000*%
%ADD13O,1.800000X2.050000*%
%ADD14O,1.800000X2.100000*%
%ADD15C,1.800000*%
G04 APERTURE END LIST*
D10*
X171989592Y-63010408D02*
X172000000Y-109000000D01*
X89000000Y-106499081D02*
G75*
G02*
X97125000Y-112500000I0J-8500919D01*
G01*
X89000000Y-106500000D02*
X89000000Y-103000000D01*
X127000000Y-112500000D02*
X97125000Y-112500000D01*
X127000000Y-112500000D02*
X153000000Y-112500000D01*
X153000000Y-112500000D02*
X169891435Y-112499765D01*
X153000000Y-112500000D02*
X153000000Y-112500000D01*
X169891436Y-112499765D02*
G75*
G02*
X172000000Y-109000000I8108564J-2500235D01*
G01*
X171989592Y-63010408D02*
G75*
G02*
X169500000Y-57000000I6010408J6010408D01*
G01*
X97500000Y-57000000D02*
G75*
G02*
X89000000Y-65500000I-8500000J0D01*
G01*
X169500000Y-57000000D02*
X97500000Y-57000000D01*
X89000000Y-65500000D02*
X89000000Y-103000000D01*
D11*
%TO.C,P320*%
X119390000Y-107010000D03*
%TD*%
%TO.C,P319*%
X114310000Y-109550000D03*
%TD*%
%TO.C,P318*%
X121930000Y-107010000D03*
%TD*%
%TO.C,P317*%
X124470000Y-107010000D03*
%TD*%
%TO.C,P316*%
X111770000Y-109550000D03*
%TD*%
%TO.C,P315*%
X116850000Y-107010000D03*
%TD*%
%TO.C,P314*%
X109230000Y-109550000D03*
%TD*%
%TO.C,P313*%
X119390000Y-109550000D03*
%TD*%
%TO.C,P312*%
X114310000Y-107010000D03*
%TD*%
%TO.C,P311*%
X121930000Y-109550000D03*
%TD*%
%TO.C,P310*%
X124470000Y-109550000D03*
%TD*%
%TO.C,P309*%
X111770000Y-107010000D03*
%TD*%
%TO.C,P308*%
X116850000Y-109550000D03*
%TD*%
%TO.C,P307*%
X109230000Y-107010000D03*
%TD*%
%TO.C,REF\u002A\u002A*%
G36*
G01*
X166550000Y-90330000D02*
X166550000Y-88230000D01*
G75*
G02*
X166600000Y-88180000I50000J0D01*
G01*
X168700000Y-88180000D01*
G75*
G02*
X168750000Y-88230000I0J-50000D01*
G01*
X168750000Y-90330000D01*
G75*
G02*
X168700000Y-90380000I-50000J0D01*
G01*
X166600000Y-90380000D01*
G75*
G02*
X166550000Y-90330000I0J50000D01*
G01*
G37*
%TD*%
%TO.C,REF\u002A\u002A*%
G36*
G01*
X166550000Y-80170000D02*
X166550000Y-78070000D01*
G75*
G02*
X166600000Y-78020000I50000J0D01*
G01*
X168700000Y-78020000D01*
G75*
G02*
X168750000Y-78070000I0J-50000D01*
G01*
X168750000Y-80170000D01*
G75*
G02*
X168700000Y-80220000I-50000J0D01*
G01*
X166600000Y-80220000D01*
G75*
G02*
X166550000Y-80170000I0J50000D01*
G01*
G37*
%TD*%
%TO.C,REF\u002A\u002A*%
G36*
G01*
X166550000Y-100490000D02*
X166550000Y-98390000D01*
G75*
G02*
X166600000Y-98340000I50000J0D01*
G01*
X168700000Y-98340000D01*
G75*
G02*
X168750000Y-98390000I0J-50000D01*
G01*
X168750000Y-100490000D01*
G75*
G02*
X168700000Y-100540000I-50000J0D01*
G01*
X166600000Y-100540000D01*
G75*
G02*
X166550000Y-100490000I0J50000D01*
G01*
G37*
%TD*%
%TO.C,REF\u002A\u002A*%
G36*
G01*
X166550000Y-72550000D02*
X166550000Y-70450000D01*
G75*
G02*
X166600000Y-70400000I50000J0D01*
G01*
X168700000Y-70400000D01*
G75*
G02*
X168750000Y-70450000I0J-50000D01*
G01*
X168750000Y-72550000D01*
G75*
G02*
X168700000Y-72600000I-50000J0D01*
G01*
X166600000Y-72600000D01*
G75*
G02*
X166550000Y-72550000I0J50000D01*
G01*
G37*
%TD*%
%TO.C,REF\u002A\u002A*%
G36*
G01*
X166550000Y-87790000D02*
X166550000Y-85690000D01*
G75*
G02*
X166600000Y-85640000I50000J0D01*
G01*
X168700000Y-85640000D01*
G75*
G02*
X168750000Y-85690000I0J-50000D01*
G01*
X168750000Y-87790000D01*
G75*
G02*
X168700000Y-87840000I-50000J0D01*
G01*
X166600000Y-87840000D01*
G75*
G02*
X166550000Y-87790000I0J50000D01*
G01*
G37*
%TD*%
%TO.C,REF\u002A\u002A*%
G36*
G01*
X166550000Y-75090000D02*
X166550000Y-72990000D01*
G75*
G02*
X166600000Y-72940000I50000J0D01*
G01*
X168700000Y-72940000D01*
G75*
G02*
X168750000Y-72990000I0J-50000D01*
G01*
X168750000Y-75090000D01*
G75*
G02*
X168700000Y-75140000I-50000J0D01*
G01*
X166600000Y-75140000D01*
G75*
G02*
X166550000Y-75090000I0J50000D01*
G01*
G37*
%TD*%
%TO.C,REF\u002A\u002A*%
G36*
G01*
X166550000Y-92870000D02*
X166550000Y-90770000D01*
G75*
G02*
X166600000Y-90720000I50000J0D01*
G01*
X168700000Y-90720000D01*
G75*
G02*
X168750000Y-90770000I0J-50000D01*
G01*
X168750000Y-92870000D01*
G75*
G02*
X168700000Y-92920000I-50000J0D01*
G01*
X166600000Y-92920000D01*
G75*
G02*
X166550000Y-92870000I0J50000D01*
G01*
G37*
%TD*%
%TO.C,REF\u002A\u002A*%
G36*
G01*
X166550000Y-77630000D02*
X166550000Y-75530000D01*
G75*
G02*
X166600000Y-75480000I50000J0D01*
G01*
X168700000Y-75480000D01*
G75*
G02*
X168750000Y-75530000I0J-50000D01*
G01*
X168750000Y-77630000D01*
G75*
G02*
X168700000Y-77680000I-50000J0D01*
G01*
X166600000Y-77680000D01*
G75*
G02*
X166550000Y-77630000I0J50000D01*
G01*
G37*
%TD*%
%TO.C,REF\u002A\u002A*%
G36*
G01*
X166550000Y-97950000D02*
X166550000Y-95850000D01*
G75*
G02*
X166600000Y-95800000I50000J0D01*
G01*
X168700000Y-95800000D01*
G75*
G02*
X168750000Y-95850000I0J-50000D01*
G01*
X168750000Y-97950000D01*
G75*
G02*
X168700000Y-98000000I-50000J0D01*
G01*
X166600000Y-98000000D01*
G75*
G02*
X166550000Y-97950000I0J50000D01*
G01*
G37*
%TD*%
%TO.C,REF\u002A\u002A*%
G36*
G01*
X166550000Y-82710000D02*
X166550000Y-80610000D01*
G75*
G02*
X166600000Y-80560000I50000J0D01*
G01*
X168700000Y-80560000D01*
G75*
G02*
X168750000Y-80610000I0J-50000D01*
G01*
X168750000Y-82710000D01*
G75*
G02*
X168700000Y-82760000I-50000J0D01*
G01*
X166600000Y-82760000D01*
G75*
G02*
X166550000Y-82710000I0J50000D01*
G01*
G37*
%TD*%
%TO.C,REF\u002A\u002A*%
G36*
G01*
X166550000Y-85250000D02*
X166550000Y-83150000D01*
G75*
G02*
X166600000Y-83100000I50000J0D01*
G01*
X168700000Y-83100000D01*
G75*
G02*
X168750000Y-83150000I0J-50000D01*
G01*
X168750000Y-85250000D01*
G75*
G02*
X168700000Y-85300000I-50000J0D01*
G01*
X166600000Y-85300000D01*
G75*
G02*
X166550000Y-85250000I0J50000D01*
G01*
G37*
%TD*%
%TO.C,REF\u002A\u002A*%
G36*
G01*
X166550000Y-95410000D02*
X166550000Y-93310000D01*
G75*
G02*
X166600000Y-93260000I50000J0D01*
G01*
X168700000Y-93260000D01*
G75*
G02*
X168750000Y-93310000I0J-50000D01*
G01*
X168750000Y-95410000D01*
G75*
G02*
X168700000Y-95460000I-50000J0D01*
G01*
X166600000Y-95460000D01*
G75*
G02*
X166550000Y-95410000I0J50000D01*
G01*
G37*
%TD*%
%TO.C,REF\u002A\u002A*%
G36*
G01*
X164010000Y-87790000D02*
X164010000Y-85690000D01*
G75*
G02*
X164060000Y-85640000I50000J0D01*
G01*
X166160000Y-85640000D01*
G75*
G02*
X166210000Y-85690000I0J-50000D01*
G01*
X166210000Y-87790000D01*
G75*
G02*
X166160000Y-87840000I-50000J0D01*
G01*
X164060000Y-87840000D01*
G75*
G02*
X164010000Y-87790000I0J50000D01*
G01*
G37*
%TD*%
%TO.C,REF\u002A\u002A*%
G36*
G01*
X164010000Y-100490000D02*
X164010000Y-98390000D01*
G75*
G02*
X164060000Y-98340000I50000J0D01*
G01*
X166160000Y-98340000D01*
G75*
G02*
X166210000Y-98390000I0J-50000D01*
G01*
X166210000Y-100490000D01*
G75*
G02*
X166160000Y-100540000I-50000J0D01*
G01*
X164060000Y-100540000D01*
G75*
G02*
X164010000Y-100490000I0J50000D01*
G01*
G37*
%TD*%
%TO.C,REF\u002A\u002A*%
G36*
G01*
X164010000Y-97950000D02*
X164010000Y-95850000D01*
G75*
G02*
X164060000Y-95800000I50000J0D01*
G01*
X166160000Y-95800000D01*
G75*
G02*
X166210000Y-95850000I0J-50000D01*
G01*
X166210000Y-97950000D01*
G75*
G02*
X166160000Y-98000000I-50000J0D01*
G01*
X164060000Y-98000000D01*
G75*
G02*
X164010000Y-97950000I0J50000D01*
G01*
G37*
%TD*%
%TO.C,REF\u002A\u002A*%
G36*
G01*
X161470000Y-97950000D02*
X161470000Y-95850000D01*
G75*
G02*
X161520000Y-95800000I50000J0D01*
G01*
X163620000Y-95800000D01*
G75*
G02*
X163670000Y-95850000I0J-50000D01*
G01*
X163670000Y-97950000D01*
G75*
G02*
X163620000Y-98000000I-50000J0D01*
G01*
X161520000Y-98000000D01*
G75*
G02*
X161470000Y-97950000I0J50000D01*
G01*
G37*
%TD*%
%TO.C,REF\u002A\u002A*%
G36*
G01*
X164010000Y-75090000D02*
X164010000Y-72990000D01*
G75*
G02*
X164060000Y-72940000I50000J0D01*
G01*
X166160000Y-72940000D01*
G75*
G02*
X166210000Y-72990000I0J-50000D01*
G01*
X166210000Y-75090000D01*
G75*
G02*
X166160000Y-75140000I-50000J0D01*
G01*
X164060000Y-75140000D01*
G75*
G02*
X164010000Y-75090000I0J50000D01*
G01*
G37*
%TD*%
%TO.C,REF\u002A\u002A*%
G36*
G01*
X161470000Y-92870000D02*
X161470000Y-90770000D01*
G75*
G02*
X161520000Y-90720000I50000J0D01*
G01*
X163620000Y-90720000D01*
G75*
G02*
X163670000Y-90770000I0J-50000D01*
G01*
X163670000Y-92870000D01*
G75*
G02*
X163620000Y-92920000I-50000J0D01*
G01*
X161520000Y-92920000D01*
G75*
G02*
X161470000Y-92870000I0J50000D01*
G01*
G37*
%TD*%
%TO.C,REF\u002A\u002A*%
G36*
G01*
X164010000Y-72550000D02*
X164010000Y-70450000D01*
G75*
G02*
X164060000Y-70400000I50000J0D01*
G01*
X166160000Y-70400000D01*
G75*
G02*
X166210000Y-70450000I0J-50000D01*
G01*
X166210000Y-72550000D01*
G75*
G02*
X166160000Y-72600000I-50000J0D01*
G01*
X164060000Y-72600000D01*
G75*
G02*
X164010000Y-72550000I0J50000D01*
G01*
G37*
%TD*%
%TO.C,REF\u002A\u002A*%
G36*
G01*
X161470000Y-77630000D02*
X161470000Y-75530000D01*
G75*
G02*
X161520000Y-75480000I50000J0D01*
G01*
X163620000Y-75480000D01*
G75*
G02*
X163670000Y-75530000I0J-50000D01*
G01*
X163670000Y-77630000D01*
G75*
G02*
X163620000Y-77680000I-50000J0D01*
G01*
X161520000Y-77680000D01*
G75*
G02*
X161470000Y-77630000I0J50000D01*
G01*
G37*
%TD*%
%TO.C,REF\u002A\u002A*%
G36*
G01*
X164010000Y-92870000D02*
X164010000Y-90770000D01*
G75*
G02*
X164060000Y-90720000I50000J0D01*
G01*
X166160000Y-90720000D01*
G75*
G02*
X166210000Y-90770000I0J-50000D01*
G01*
X166210000Y-92870000D01*
G75*
G02*
X166160000Y-92920000I-50000J0D01*
G01*
X164060000Y-92920000D01*
G75*
G02*
X164010000Y-92870000I0J50000D01*
G01*
G37*
%TD*%
%TO.C,REF\u002A\u002A*%
G36*
G01*
X164010000Y-90330000D02*
X164010000Y-88230000D01*
G75*
G02*
X164060000Y-88180000I50000J0D01*
G01*
X166160000Y-88180000D01*
G75*
G02*
X166210000Y-88230000I0J-50000D01*
G01*
X166210000Y-90330000D01*
G75*
G02*
X166160000Y-90380000I-50000J0D01*
G01*
X164060000Y-90380000D01*
G75*
G02*
X164010000Y-90330000I0J50000D01*
G01*
G37*
%TD*%
%TO.C,REF\u002A\u002A*%
G36*
G01*
X164010000Y-77630000D02*
X164010000Y-75530000D01*
G75*
G02*
X164060000Y-75480000I50000J0D01*
G01*
X166160000Y-75480000D01*
G75*
G02*
X166210000Y-75530000I0J-50000D01*
G01*
X166210000Y-77630000D01*
G75*
G02*
X166160000Y-77680000I-50000J0D01*
G01*
X164060000Y-77680000D01*
G75*
G02*
X164010000Y-77630000I0J50000D01*
G01*
G37*
%TD*%
%TO.C,REF\u002A\u002A*%
G36*
G01*
X164010000Y-82710000D02*
X164010000Y-80610000D01*
G75*
G02*
X164060000Y-80560000I50000J0D01*
G01*
X166160000Y-80560000D01*
G75*
G02*
X166210000Y-80610000I0J-50000D01*
G01*
X166210000Y-82710000D01*
G75*
G02*
X166160000Y-82760000I-50000J0D01*
G01*
X164060000Y-82760000D01*
G75*
G02*
X164010000Y-82710000I0J50000D01*
G01*
G37*
%TD*%
%TO.C,REF\u002A\u002A*%
G36*
G01*
X161470000Y-85250000D02*
X161470000Y-83150000D01*
G75*
G02*
X161520000Y-83100000I50000J0D01*
G01*
X163620000Y-83100000D01*
G75*
G02*
X163670000Y-83150000I0J-50000D01*
G01*
X163670000Y-85250000D01*
G75*
G02*
X163620000Y-85300000I-50000J0D01*
G01*
X161520000Y-85300000D01*
G75*
G02*
X161470000Y-85250000I0J50000D01*
G01*
G37*
%TD*%
%TO.C,REF\u002A\u002A*%
G36*
G01*
X164010000Y-85250000D02*
X164010000Y-83150000D01*
G75*
G02*
X164060000Y-83100000I50000J0D01*
G01*
X166160000Y-83100000D01*
G75*
G02*
X166210000Y-83150000I0J-50000D01*
G01*
X166210000Y-85250000D01*
G75*
G02*
X166160000Y-85300000I-50000J0D01*
G01*
X164060000Y-85300000D01*
G75*
G02*
X164010000Y-85250000I0J50000D01*
G01*
G37*
%TD*%
%TO.C,REF\u002A\u002A*%
G36*
G01*
X161470000Y-80170000D02*
X161470000Y-78070000D01*
G75*
G02*
X161520000Y-78020000I50000J0D01*
G01*
X163620000Y-78020000D01*
G75*
G02*
X163670000Y-78070000I0J-50000D01*
G01*
X163670000Y-80170000D01*
G75*
G02*
X163620000Y-80220000I-50000J0D01*
G01*
X161520000Y-80220000D01*
G75*
G02*
X161470000Y-80170000I0J50000D01*
G01*
G37*
%TD*%
%TO.C,REF\u002A\u002A*%
G36*
G01*
X164010000Y-80170000D02*
X164010000Y-78070000D01*
G75*
G02*
X164060000Y-78020000I50000J0D01*
G01*
X166160000Y-78020000D01*
G75*
G02*
X166210000Y-78070000I0J-50000D01*
G01*
X166210000Y-80170000D01*
G75*
G02*
X166160000Y-80220000I-50000J0D01*
G01*
X164060000Y-80220000D01*
G75*
G02*
X164010000Y-80170000I0J50000D01*
G01*
G37*
%TD*%
%TO.C,REF\u002A\u002A*%
G36*
G01*
X161470000Y-75090000D02*
X161470000Y-72990000D01*
G75*
G02*
X161520000Y-72940000I50000J0D01*
G01*
X163620000Y-72940000D01*
G75*
G02*
X163670000Y-72990000I0J-50000D01*
G01*
X163670000Y-75090000D01*
G75*
G02*
X163620000Y-75140000I-50000J0D01*
G01*
X161520000Y-75140000D01*
G75*
G02*
X161470000Y-75090000I0J50000D01*
G01*
G37*
%TD*%
%TO.C,REF\u002A\u002A*%
G36*
G01*
X161470000Y-87790000D02*
X161470000Y-85690000D01*
G75*
G02*
X161520000Y-85640000I50000J0D01*
G01*
X163620000Y-85640000D01*
G75*
G02*
X163670000Y-85690000I0J-50000D01*
G01*
X163670000Y-87790000D01*
G75*
G02*
X163620000Y-87840000I-50000J0D01*
G01*
X161520000Y-87840000D01*
G75*
G02*
X161470000Y-87790000I0J50000D01*
G01*
G37*
%TD*%
%TO.C,REF\u002A\u002A*%
G36*
G01*
X161470000Y-90330000D02*
X161470000Y-88230000D01*
G75*
G02*
X161520000Y-88180000I50000J0D01*
G01*
X163620000Y-88180000D01*
G75*
G02*
X163670000Y-88230000I0J-50000D01*
G01*
X163670000Y-90330000D01*
G75*
G02*
X163620000Y-90380000I-50000J0D01*
G01*
X161520000Y-90380000D01*
G75*
G02*
X161470000Y-90330000I0J50000D01*
G01*
G37*
%TD*%
%TO.C,REF\u002A\u002A*%
G36*
G01*
X161470000Y-82710000D02*
X161470000Y-80610000D01*
G75*
G02*
X161520000Y-80560000I50000J0D01*
G01*
X163620000Y-80560000D01*
G75*
G02*
X163670000Y-80610000I0J-50000D01*
G01*
X163670000Y-82710000D01*
G75*
G02*
X163620000Y-82760000I-50000J0D01*
G01*
X161520000Y-82760000D01*
G75*
G02*
X161470000Y-82710000I0J50000D01*
G01*
G37*
%TD*%
%TO.C,REF\u002A\u002A*%
G36*
G01*
X164010000Y-95410000D02*
X164010000Y-93310000D01*
G75*
G02*
X164060000Y-93260000I50000J0D01*
G01*
X166160000Y-93260000D01*
G75*
G02*
X166210000Y-93310000I0J-50000D01*
G01*
X166210000Y-95410000D01*
G75*
G02*
X166160000Y-95460000I-50000J0D01*
G01*
X164060000Y-95460000D01*
G75*
G02*
X164010000Y-95410000I0J50000D01*
G01*
G37*
%TD*%
%TO.C,REF\u002A\u002A*%
G36*
G01*
X161470000Y-95410000D02*
X161470000Y-93310000D01*
G75*
G02*
X161520000Y-93260000I50000J0D01*
G01*
X163620000Y-93260000D01*
G75*
G02*
X163670000Y-93310000I0J-50000D01*
G01*
X163670000Y-95410000D01*
G75*
G02*
X163620000Y-95460000I-50000J0D01*
G01*
X161520000Y-95460000D01*
G75*
G02*
X161470000Y-95410000I0J50000D01*
G01*
G37*
%TD*%
%TO.C,REF\u002A\u002A*%
G36*
G01*
X161470000Y-100490000D02*
X161470000Y-98390000D01*
G75*
G02*
X161520000Y-98340000I50000J0D01*
G01*
X163620000Y-98340000D01*
G75*
G02*
X163670000Y-98390000I0J-50000D01*
G01*
X163670000Y-100490000D01*
G75*
G02*
X163620000Y-100540000I-50000J0D01*
G01*
X161520000Y-100540000D01*
G75*
G02*
X161470000Y-100490000I0J50000D01*
G01*
G37*
%TD*%
%TO.C,REF\u002A\u002A*%
G36*
G01*
X161470000Y-72550000D02*
X161470000Y-70450000D01*
G75*
G02*
X161520000Y-70400000I50000J0D01*
G01*
X163620000Y-70400000D01*
G75*
G02*
X163670000Y-70450000I0J-50000D01*
G01*
X163670000Y-72550000D01*
G75*
G02*
X163620000Y-72600000I-50000J0D01*
G01*
X161520000Y-72600000D01*
G75*
G02*
X161470000Y-72550000I0J50000D01*
G01*
G37*
%TD*%
%TO.C,REF\u002A\u002A*%
G36*
G01*
X156390000Y-77630000D02*
X156390000Y-75530000D01*
G75*
G02*
X156440000Y-75480000I50000J0D01*
G01*
X158540000Y-75480000D01*
G75*
G02*
X158590000Y-75530000I0J-50000D01*
G01*
X158590000Y-77630000D01*
G75*
G02*
X158540000Y-77680000I-50000J0D01*
G01*
X156440000Y-77680000D01*
G75*
G02*
X156390000Y-77630000I0J50000D01*
G01*
G37*
%TD*%
%TO.C,REF\u002A\u002A*%
G36*
G01*
X158930000Y-92870000D02*
X158930000Y-90770000D01*
G75*
G02*
X158980000Y-90720000I50000J0D01*
G01*
X161080000Y-90720000D01*
G75*
G02*
X161130000Y-90770000I0J-50000D01*
G01*
X161130000Y-92870000D01*
G75*
G02*
X161080000Y-92920000I-50000J0D01*
G01*
X158980000Y-92920000D01*
G75*
G02*
X158930000Y-92870000I0J50000D01*
G01*
G37*
%TD*%
%TO.C,REF\u002A\u002A*%
G36*
G01*
X158930000Y-90330000D02*
X158930000Y-88230000D01*
G75*
G02*
X158980000Y-88180000I50000J0D01*
G01*
X161080000Y-88180000D01*
G75*
G02*
X161130000Y-88230000I0J-50000D01*
G01*
X161130000Y-90330000D01*
G75*
G02*
X161080000Y-90380000I-50000J0D01*
G01*
X158980000Y-90380000D01*
G75*
G02*
X158930000Y-90330000I0J50000D01*
G01*
G37*
%TD*%
%TO.C,REF\u002A\u002A*%
G36*
G01*
X158930000Y-77630000D02*
X158930000Y-75530000D01*
G75*
G02*
X158980000Y-75480000I50000J0D01*
G01*
X161080000Y-75480000D01*
G75*
G02*
X161130000Y-75530000I0J-50000D01*
G01*
X161130000Y-77630000D01*
G75*
G02*
X161080000Y-77680000I-50000J0D01*
G01*
X158980000Y-77680000D01*
G75*
G02*
X158930000Y-77630000I0J50000D01*
G01*
G37*
%TD*%
%TO.C,REF\u002A\u002A*%
G36*
G01*
X158930000Y-82710000D02*
X158930000Y-80610000D01*
G75*
G02*
X158980000Y-80560000I50000J0D01*
G01*
X161080000Y-80560000D01*
G75*
G02*
X161130000Y-80610000I0J-50000D01*
G01*
X161130000Y-82710000D01*
G75*
G02*
X161080000Y-82760000I-50000J0D01*
G01*
X158980000Y-82760000D01*
G75*
G02*
X158930000Y-82710000I0J50000D01*
G01*
G37*
%TD*%
%TO.C,REF\u002A\u002A*%
G36*
G01*
X156390000Y-85250000D02*
X156390000Y-83150000D01*
G75*
G02*
X156440000Y-83100000I50000J0D01*
G01*
X158540000Y-83100000D01*
G75*
G02*
X158590000Y-83150000I0J-50000D01*
G01*
X158590000Y-85250000D01*
G75*
G02*
X158540000Y-85300000I-50000J0D01*
G01*
X156440000Y-85300000D01*
G75*
G02*
X156390000Y-85250000I0J50000D01*
G01*
G37*
%TD*%
%TO.C,REF\u002A\u002A*%
G36*
G01*
X158930000Y-85250000D02*
X158930000Y-83150000D01*
G75*
G02*
X158980000Y-83100000I50000J0D01*
G01*
X161080000Y-83100000D01*
G75*
G02*
X161130000Y-83150000I0J-50000D01*
G01*
X161130000Y-85250000D01*
G75*
G02*
X161080000Y-85300000I-50000J0D01*
G01*
X158980000Y-85300000D01*
G75*
G02*
X158930000Y-85250000I0J50000D01*
G01*
G37*
%TD*%
%TO.C,REF\u002A\u002A*%
G36*
G01*
X156390000Y-80170000D02*
X156390000Y-78070000D01*
G75*
G02*
X156440000Y-78020000I50000J0D01*
G01*
X158540000Y-78020000D01*
G75*
G02*
X158590000Y-78070000I0J-50000D01*
G01*
X158590000Y-80170000D01*
G75*
G02*
X158540000Y-80220000I-50000J0D01*
G01*
X156440000Y-80220000D01*
G75*
G02*
X156390000Y-80170000I0J50000D01*
G01*
G37*
%TD*%
%TO.C,REF\u002A\u002A*%
G36*
G01*
X158930000Y-80170000D02*
X158930000Y-78070000D01*
G75*
G02*
X158980000Y-78020000I50000J0D01*
G01*
X161080000Y-78020000D01*
G75*
G02*
X161130000Y-78070000I0J-50000D01*
G01*
X161130000Y-80170000D01*
G75*
G02*
X161080000Y-80220000I-50000J0D01*
G01*
X158980000Y-80220000D01*
G75*
G02*
X158930000Y-80170000I0J50000D01*
G01*
G37*
%TD*%
%TO.C,REF\u002A\u002A*%
G36*
G01*
X156390000Y-75090000D02*
X156390000Y-72990000D01*
G75*
G02*
X156440000Y-72940000I50000J0D01*
G01*
X158540000Y-72940000D01*
G75*
G02*
X158590000Y-72990000I0J-50000D01*
G01*
X158590000Y-75090000D01*
G75*
G02*
X158540000Y-75140000I-50000J0D01*
G01*
X156440000Y-75140000D01*
G75*
G02*
X156390000Y-75090000I0J50000D01*
G01*
G37*
%TD*%
%TO.C,REF\u002A\u002A*%
G36*
G01*
X156390000Y-87790000D02*
X156390000Y-85690000D01*
G75*
G02*
X156440000Y-85640000I50000J0D01*
G01*
X158540000Y-85640000D01*
G75*
G02*
X158590000Y-85690000I0J-50000D01*
G01*
X158590000Y-87790000D01*
G75*
G02*
X158540000Y-87840000I-50000J0D01*
G01*
X156440000Y-87840000D01*
G75*
G02*
X156390000Y-87790000I0J50000D01*
G01*
G37*
%TD*%
%TO.C,REF\u002A\u002A*%
G36*
G01*
X156390000Y-90330000D02*
X156390000Y-88230000D01*
G75*
G02*
X156440000Y-88180000I50000J0D01*
G01*
X158540000Y-88180000D01*
G75*
G02*
X158590000Y-88230000I0J-50000D01*
G01*
X158590000Y-90330000D01*
G75*
G02*
X158540000Y-90380000I-50000J0D01*
G01*
X156440000Y-90380000D01*
G75*
G02*
X156390000Y-90330000I0J50000D01*
G01*
G37*
%TD*%
%TO.C,REF\u002A\u002A*%
G36*
G01*
X156390000Y-82710000D02*
X156390000Y-80610000D01*
G75*
G02*
X156440000Y-80560000I50000J0D01*
G01*
X158540000Y-80560000D01*
G75*
G02*
X158590000Y-80610000I0J-50000D01*
G01*
X158590000Y-82710000D01*
G75*
G02*
X158540000Y-82760000I-50000J0D01*
G01*
X156440000Y-82760000D01*
G75*
G02*
X156390000Y-82710000I0J50000D01*
G01*
G37*
%TD*%
%TO.C,REF\u002A\u002A*%
G36*
G01*
X158930000Y-97950000D02*
X158930000Y-95850000D01*
G75*
G02*
X158980000Y-95800000I50000J0D01*
G01*
X161080000Y-95800000D01*
G75*
G02*
X161130000Y-95850000I0J-50000D01*
G01*
X161130000Y-97950000D01*
G75*
G02*
X161080000Y-98000000I-50000J0D01*
G01*
X158980000Y-98000000D01*
G75*
G02*
X158930000Y-97950000I0J50000D01*
G01*
G37*
%TD*%
%TO.C,REF\u002A\u002A*%
G36*
G01*
X156390000Y-97950000D02*
X156390000Y-95850000D01*
G75*
G02*
X156440000Y-95800000I50000J0D01*
G01*
X158540000Y-95800000D01*
G75*
G02*
X158590000Y-95850000I0J-50000D01*
G01*
X158590000Y-97950000D01*
G75*
G02*
X158540000Y-98000000I-50000J0D01*
G01*
X156440000Y-98000000D01*
G75*
G02*
X156390000Y-97950000I0J50000D01*
G01*
G37*
%TD*%
%TO.C,REF\u002A\u002A*%
G36*
G01*
X158930000Y-75090000D02*
X158930000Y-72990000D01*
G75*
G02*
X158980000Y-72940000I50000J0D01*
G01*
X161080000Y-72940000D01*
G75*
G02*
X161130000Y-72990000I0J-50000D01*
G01*
X161130000Y-75090000D01*
G75*
G02*
X161080000Y-75140000I-50000J0D01*
G01*
X158980000Y-75140000D01*
G75*
G02*
X158930000Y-75090000I0J50000D01*
G01*
G37*
%TD*%
%TO.C,REF\u002A\u002A*%
G36*
G01*
X156390000Y-92870000D02*
X156390000Y-90770000D01*
G75*
G02*
X156440000Y-90720000I50000J0D01*
G01*
X158540000Y-90720000D01*
G75*
G02*
X158590000Y-90770000I0J-50000D01*
G01*
X158590000Y-92870000D01*
G75*
G02*
X158540000Y-92920000I-50000J0D01*
G01*
X156440000Y-92920000D01*
G75*
G02*
X156390000Y-92870000I0J50000D01*
G01*
G37*
%TD*%
%TO.C,REF\u002A\u002A*%
G36*
G01*
X158930000Y-72550000D02*
X158930000Y-70450000D01*
G75*
G02*
X158980000Y-70400000I50000J0D01*
G01*
X161080000Y-70400000D01*
G75*
G02*
X161130000Y-70450000I0J-50000D01*
G01*
X161130000Y-72550000D01*
G75*
G02*
X161080000Y-72600000I-50000J0D01*
G01*
X158980000Y-72600000D01*
G75*
G02*
X158930000Y-72550000I0J50000D01*
G01*
G37*
%TD*%
%TO.C,REF\u002A\u002A*%
G36*
G01*
X158930000Y-95410000D02*
X158930000Y-93310000D01*
G75*
G02*
X158980000Y-93260000I50000J0D01*
G01*
X161080000Y-93260000D01*
G75*
G02*
X161130000Y-93310000I0J-50000D01*
G01*
X161130000Y-95410000D01*
G75*
G02*
X161080000Y-95460000I-50000J0D01*
G01*
X158980000Y-95460000D01*
G75*
G02*
X158930000Y-95410000I0J50000D01*
G01*
G37*
%TD*%
%TO.C,REF\u002A\u002A*%
G36*
G01*
X156390000Y-95410000D02*
X156390000Y-93310000D01*
G75*
G02*
X156440000Y-93260000I50000J0D01*
G01*
X158540000Y-93260000D01*
G75*
G02*
X158590000Y-93310000I0J-50000D01*
G01*
X158590000Y-95410000D01*
G75*
G02*
X158540000Y-95460000I-50000J0D01*
G01*
X156440000Y-95460000D01*
G75*
G02*
X156390000Y-95410000I0J50000D01*
G01*
G37*
%TD*%
%TO.C,REF\u002A\u002A*%
G36*
G01*
X156390000Y-100490000D02*
X156390000Y-98390000D01*
G75*
G02*
X156440000Y-98340000I50000J0D01*
G01*
X158540000Y-98340000D01*
G75*
G02*
X158590000Y-98390000I0J-50000D01*
G01*
X158590000Y-100490000D01*
G75*
G02*
X158540000Y-100540000I-50000J0D01*
G01*
X156440000Y-100540000D01*
G75*
G02*
X156390000Y-100490000I0J50000D01*
G01*
G37*
%TD*%
%TO.C,REF\u002A\u002A*%
G36*
G01*
X156390000Y-72550000D02*
X156390000Y-70450000D01*
G75*
G02*
X156440000Y-70400000I50000J0D01*
G01*
X158540000Y-70400000D01*
G75*
G02*
X158590000Y-70450000I0J-50000D01*
G01*
X158590000Y-72550000D01*
G75*
G02*
X158540000Y-72600000I-50000J0D01*
G01*
X156440000Y-72600000D01*
G75*
G02*
X156390000Y-72550000I0J50000D01*
G01*
G37*
%TD*%
%TO.C,REF\u002A\u002A*%
G36*
G01*
X158930000Y-87790000D02*
X158930000Y-85690000D01*
G75*
G02*
X158980000Y-85640000I50000J0D01*
G01*
X161080000Y-85640000D01*
G75*
G02*
X161130000Y-85690000I0J-50000D01*
G01*
X161130000Y-87790000D01*
G75*
G02*
X161080000Y-87840000I-50000J0D01*
G01*
X158980000Y-87840000D01*
G75*
G02*
X158930000Y-87790000I0J50000D01*
G01*
G37*
%TD*%
%TO.C,REF\u002A\u002A*%
G36*
G01*
X158930000Y-100490000D02*
X158930000Y-98390000D01*
G75*
G02*
X158980000Y-98340000I50000J0D01*
G01*
X161080000Y-98340000D01*
G75*
G02*
X161130000Y-98390000I0J-50000D01*
G01*
X161130000Y-100490000D01*
G75*
G02*
X161080000Y-100540000I-50000J0D01*
G01*
X158980000Y-100540000D01*
G75*
G02*
X158930000Y-100490000I0J50000D01*
G01*
G37*
%TD*%
%TO.C,REF\u002A\u002A*%
G36*
G01*
X151310000Y-97950000D02*
X151310000Y-95850000D01*
G75*
G02*
X151360000Y-95800000I50000J0D01*
G01*
X153460000Y-95800000D01*
G75*
G02*
X153510000Y-95850000I0J-50000D01*
G01*
X153510000Y-97950000D01*
G75*
G02*
X153460000Y-98000000I-50000J0D01*
G01*
X151360000Y-98000000D01*
G75*
G02*
X151310000Y-97950000I0J50000D01*
G01*
G37*
%TD*%
%TO.C,REF\u002A\u002A*%
G36*
G01*
X153850000Y-75090000D02*
X153850000Y-72990000D01*
G75*
G02*
X153900000Y-72940000I50000J0D01*
G01*
X156000000Y-72940000D01*
G75*
G02*
X156050000Y-72990000I0J-50000D01*
G01*
X156050000Y-75090000D01*
G75*
G02*
X156000000Y-75140000I-50000J0D01*
G01*
X153900000Y-75140000D01*
G75*
G02*
X153850000Y-75090000I0J50000D01*
G01*
G37*
%TD*%
%TO.C,REF\u002A\u002A*%
G36*
G01*
X153850000Y-87790000D02*
X153850000Y-85690000D01*
G75*
G02*
X153900000Y-85640000I50000J0D01*
G01*
X156000000Y-85640000D01*
G75*
G02*
X156050000Y-85690000I0J-50000D01*
G01*
X156050000Y-87790000D01*
G75*
G02*
X156000000Y-87840000I-50000J0D01*
G01*
X153900000Y-87840000D01*
G75*
G02*
X153850000Y-87790000I0J50000D01*
G01*
G37*
%TD*%
%TO.C,REF\u002A\u002A*%
G36*
G01*
X151310000Y-87790000D02*
X151310000Y-85690000D01*
G75*
G02*
X151360000Y-85640000I50000J0D01*
G01*
X153460000Y-85640000D01*
G75*
G02*
X153510000Y-85690000I0J-50000D01*
G01*
X153510000Y-87790000D01*
G75*
G02*
X153460000Y-87840000I-50000J0D01*
G01*
X151360000Y-87840000D01*
G75*
G02*
X151310000Y-87790000I0J50000D01*
G01*
G37*
%TD*%
%TO.C,REF\u002A\u002A*%
G36*
G01*
X151310000Y-90330000D02*
X151310000Y-88230000D01*
G75*
G02*
X151360000Y-88180000I50000J0D01*
G01*
X153460000Y-88180000D01*
G75*
G02*
X153510000Y-88230000I0J-50000D01*
G01*
X153510000Y-90330000D01*
G75*
G02*
X153460000Y-90380000I-50000J0D01*
G01*
X151360000Y-90380000D01*
G75*
G02*
X151310000Y-90330000I0J50000D01*
G01*
G37*
%TD*%
%TO.C,REF\u002A\u002A*%
G36*
G01*
X151310000Y-82710000D02*
X151310000Y-80610000D01*
G75*
G02*
X151360000Y-80560000I50000J0D01*
G01*
X153460000Y-80560000D01*
G75*
G02*
X153510000Y-80610000I0J-50000D01*
G01*
X153510000Y-82710000D01*
G75*
G02*
X153460000Y-82760000I-50000J0D01*
G01*
X151360000Y-82760000D01*
G75*
G02*
X151310000Y-82710000I0J50000D01*
G01*
G37*
%TD*%
%TO.C,REF\u002A\u002A*%
G36*
G01*
X153850000Y-97950000D02*
X153850000Y-95850000D01*
G75*
G02*
X153900000Y-95800000I50000J0D01*
G01*
X156000000Y-95800000D01*
G75*
G02*
X156050000Y-95850000I0J-50000D01*
G01*
X156050000Y-97950000D01*
G75*
G02*
X156000000Y-98000000I-50000J0D01*
G01*
X153900000Y-98000000D01*
G75*
G02*
X153850000Y-97950000I0J50000D01*
G01*
G37*
%TD*%
%TO.C,REF\u002A\u002A*%
G36*
G01*
X151310000Y-92870000D02*
X151310000Y-90770000D01*
G75*
G02*
X151360000Y-90720000I50000J0D01*
G01*
X153460000Y-90720000D01*
G75*
G02*
X153510000Y-90770000I0J-50000D01*
G01*
X153510000Y-92870000D01*
G75*
G02*
X153460000Y-92920000I-50000J0D01*
G01*
X151360000Y-92920000D01*
G75*
G02*
X151310000Y-92870000I0J50000D01*
G01*
G37*
%TD*%
%TO.C,REF\u002A\u002A*%
G36*
G01*
X151310000Y-85250000D02*
X151310000Y-83150000D01*
G75*
G02*
X151360000Y-83100000I50000J0D01*
G01*
X153460000Y-83100000D01*
G75*
G02*
X153510000Y-83150000I0J-50000D01*
G01*
X153510000Y-85250000D01*
G75*
G02*
X153460000Y-85300000I-50000J0D01*
G01*
X151360000Y-85300000D01*
G75*
G02*
X151310000Y-85250000I0J50000D01*
G01*
G37*
%TD*%
%TO.C,REF\u002A\u002A*%
G36*
G01*
X151310000Y-77630000D02*
X151310000Y-75530000D01*
G75*
G02*
X151360000Y-75480000I50000J0D01*
G01*
X153460000Y-75480000D01*
G75*
G02*
X153510000Y-75530000I0J-50000D01*
G01*
X153510000Y-77630000D01*
G75*
G02*
X153460000Y-77680000I-50000J0D01*
G01*
X151360000Y-77680000D01*
G75*
G02*
X151310000Y-77630000I0J50000D01*
G01*
G37*
%TD*%
%TO.C,REF\u002A\u002A*%
G36*
G01*
X153850000Y-85250000D02*
X153850000Y-83150000D01*
G75*
G02*
X153900000Y-83100000I50000J0D01*
G01*
X156000000Y-83100000D01*
G75*
G02*
X156050000Y-83150000I0J-50000D01*
G01*
X156050000Y-85250000D01*
G75*
G02*
X156000000Y-85300000I-50000J0D01*
G01*
X153900000Y-85300000D01*
G75*
G02*
X153850000Y-85250000I0J50000D01*
G01*
G37*
%TD*%
%TO.C,REF\u002A\u002A*%
G36*
G01*
X153850000Y-100490000D02*
X153850000Y-98390000D01*
G75*
G02*
X153900000Y-98340000I50000J0D01*
G01*
X156000000Y-98340000D01*
G75*
G02*
X156050000Y-98390000I0J-50000D01*
G01*
X156050000Y-100490000D01*
G75*
G02*
X156000000Y-100540000I-50000J0D01*
G01*
X153900000Y-100540000D01*
G75*
G02*
X153850000Y-100490000I0J50000D01*
G01*
G37*
%TD*%
%TO.C,REF\u002A\u002A*%
G36*
G01*
X153850000Y-95410000D02*
X153850000Y-93310000D01*
G75*
G02*
X153900000Y-93260000I50000J0D01*
G01*
X156000000Y-93260000D01*
G75*
G02*
X156050000Y-93310000I0J-50000D01*
G01*
X156050000Y-95410000D01*
G75*
G02*
X156000000Y-95460000I-50000J0D01*
G01*
X153900000Y-95460000D01*
G75*
G02*
X153850000Y-95410000I0J50000D01*
G01*
G37*
%TD*%
%TO.C,REF\u002A\u002A*%
G36*
G01*
X151310000Y-95410000D02*
X151310000Y-93310000D01*
G75*
G02*
X151360000Y-93260000I50000J0D01*
G01*
X153460000Y-93260000D01*
G75*
G02*
X153510000Y-93310000I0J-50000D01*
G01*
X153510000Y-95410000D01*
G75*
G02*
X153460000Y-95460000I-50000J0D01*
G01*
X151360000Y-95460000D01*
G75*
G02*
X151310000Y-95410000I0J50000D01*
G01*
G37*
%TD*%
%TO.C,REF\u002A\u002A*%
G36*
G01*
X151310000Y-100490000D02*
X151310000Y-98390000D01*
G75*
G02*
X151360000Y-98340000I50000J0D01*
G01*
X153460000Y-98340000D01*
G75*
G02*
X153510000Y-98390000I0J-50000D01*
G01*
X153510000Y-100490000D01*
G75*
G02*
X153460000Y-100540000I-50000J0D01*
G01*
X151360000Y-100540000D01*
G75*
G02*
X151310000Y-100490000I0J50000D01*
G01*
G37*
%TD*%
%TO.C,REF\u002A\u002A*%
G36*
G01*
X151310000Y-72550000D02*
X151310000Y-70450000D01*
G75*
G02*
X151360000Y-70400000I50000J0D01*
G01*
X153460000Y-70400000D01*
G75*
G02*
X153510000Y-70450000I0J-50000D01*
G01*
X153510000Y-72550000D01*
G75*
G02*
X153460000Y-72600000I-50000J0D01*
G01*
X151360000Y-72600000D01*
G75*
G02*
X151310000Y-72550000I0J50000D01*
G01*
G37*
%TD*%
%TO.C,REF\u002A\u002A*%
G36*
G01*
X153850000Y-72550000D02*
X153850000Y-70450000D01*
G75*
G02*
X153900000Y-70400000I50000J0D01*
G01*
X156000000Y-70400000D01*
G75*
G02*
X156050000Y-70450000I0J-50000D01*
G01*
X156050000Y-72550000D01*
G75*
G02*
X156000000Y-72600000I-50000J0D01*
G01*
X153900000Y-72600000D01*
G75*
G02*
X153850000Y-72550000I0J50000D01*
G01*
G37*
%TD*%
%TO.C,REF\u002A\u002A*%
G36*
G01*
X153850000Y-80170000D02*
X153850000Y-78070000D01*
G75*
G02*
X153900000Y-78020000I50000J0D01*
G01*
X156000000Y-78020000D01*
G75*
G02*
X156050000Y-78070000I0J-50000D01*
G01*
X156050000Y-80170000D01*
G75*
G02*
X156000000Y-80220000I-50000J0D01*
G01*
X153900000Y-80220000D01*
G75*
G02*
X153850000Y-80170000I0J50000D01*
G01*
G37*
%TD*%
%TO.C,REF\u002A\u002A*%
G36*
G01*
X151310000Y-80170000D02*
X151310000Y-78070000D01*
G75*
G02*
X151360000Y-78020000I50000J0D01*
G01*
X153460000Y-78020000D01*
G75*
G02*
X153510000Y-78070000I0J-50000D01*
G01*
X153510000Y-80170000D01*
G75*
G02*
X153460000Y-80220000I-50000J0D01*
G01*
X151360000Y-80220000D01*
G75*
G02*
X151310000Y-80170000I0J50000D01*
G01*
G37*
%TD*%
%TO.C,REF\u002A\u002A*%
G36*
G01*
X151310000Y-75090000D02*
X151310000Y-72990000D01*
G75*
G02*
X151360000Y-72940000I50000J0D01*
G01*
X153460000Y-72940000D01*
G75*
G02*
X153510000Y-72990000I0J-50000D01*
G01*
X153510000Y-75090000D01*
G75*
G02*
X153460000Y-75140000I-50000J0D01*
G01*
X151360000Y-75140000D01*
G75*
G02*
X151310000Y-75090000I0J50000D01*
G01*
G37*
%TD*%
%TO.C,REF\u002A\u002A*%
G36*
G01*
X153850000Y-92870000D02*
X153850000Y-90770000D01*
G75*
G02*
X153900000Y-90720000I50000J0D01*
G01*
X156000000Y-90720000D01*
G75*
G02*
X156050000Y-90770000I0J-50000D01*
G01*
X156050000Y-92870000D01*
G75*
G02*
X156000000Y-92920000I-50000J0D01*
G01*
X153900000Y-92920000D01*
G75*
G02*
X153850000Y-92870000I0J50000D01*
G01*
G37*
%TD*%
%TO.C,REF\u002A\u002A*%
G36*
G01*
X153850000Y-90330000D02*
X153850000Y-88230000D01*
G75*
G02*
X153900000Y-88180000I50000J0D01*
G01*
X156000000Y-88180000D01*
G75*
G02*
X156050000Y-88230000I0J-50000D01*
G01*
X156050000Y-90330000D01*
G75*
G02*
X156000000Y-90380000I-50000J0D01*
G01*
X153900000Y-90380000D01*
G75*
G02*
X153850000Y-90330000I0J50000D01*
G01*
G37*
%TD*%
%TO.C,REF\u002A\u002A*%
G36*
G01*
X153850000Y-77630000D02*
X153850000Y-75530000D01*
G75*
G02*
X153900000Y-75480000I50000J0D01*
G01*
X156000000Y-75480000D01*
G75*
G02*
X156050000Y-75530000I0J-50000D01*
G01*
X156050000Y-77630000D01*
G75*
G02*
X156000000Y-77680000I-50000J0D01*
G01*
X153900000Y-77680000D01*
G75*
G02*
X153850000Y-77630000I0J50000D01*
G01*
G37*
%TD*%
%TO.C,REF\u002A\u002A*%
G36*
G01*
X153850000Y-82710000D02*
X153850000Y-80610000D01*
G75*
G02*
X153900000Y-80560000I50000J0D01*
G01*
X156000000Y-80560000D01*
G75*
G02*
X156050000Y-80610000I0J-50000D01*
G01*
X156050000Y-82710000D01*
G75*
G02*
X156000000Y-82760000I-50000J0D01*
G01*
X153900000Y-82760000D01*
G75*
G02*
X153850000Y-82710000I0J50000D01*
G01*
G37*
%TD*%
%TO.C,REF\u002A\u002A*%
G36*
G01*
X148770000Y-92870000D02*
X148770000Y-90770000D01*
G75*
G02*
X148820000Y-90720000I50000J0D01*
G01*
X150920000Y-90720000D01*
G75*
G02*
X150970000Y-90770000I0J-50000D01*
G01*
X150970000Y-92870000D01*
G75*
G02*
X150920000Y-92920000I-50000J0D01*
G01*
X148820000Y-92920000D01*
G75*
G02*
X148770000Y-92870000I0J50000D01*
G01*
G37*
%TD*%
%TO.C,REF\u002A\u002A*%
G36*
G01*
X148770000Y-97950000D02*
X148770000Y-95850000D01*
G75*
G02*
X148820000Y-95800000I50000J0D01*
G01*
X150920000Y-95800000D01*
G75*
G02*
X150970000Y-95850000I0J-50000D01*
G01*
X150970000Y-97950000D01*
G75*
G02*
X150920000Y-98000000I-50000J0D01*
G01*
X148820000Y-98000000D01*
G75*
G02*
X148770000Y-97950000I0J50000D01*
G01*
G37*
%TD*%
%TO.C,REF\u002A\u002A*%
G36*
G01*
X146230000Y-82710000D02*
X146230000Y-80610000D01*
G75*
G02*
X146280000Y-80560000I50000J0D01*
G01*
X148380000Y-80560000D01*
G75*
G02*
X148430000Y-80610000I0J-50000D01*
G01*
X148430000Y-82710000D01*
G75*
G02*
X148380000Y-82760000I-50000J0D01*
G01*
X146280000Y-82760000D01*
G75*
G02*
X146230000Y-82710000I0J50000D01*
G01*
G37*
%TD*%
%TO.C,REF\u002A\u002A*%
G36*
G01*
X148770000Y-77630000D02*
X148770000Y-75530000D01*
G75*
G02*
X148820000Y-75480000I50000J0D01*
G01*
X150920000Y-75480000D01*
G75*
G02*
X150970000Y-75530000I0J-50000D01*
G01*
X150970000Y-77630000D01*
G75*
G02*
X150920000Y-77680000I-50000J0D01*
G01*
X148820000Y-77680000D01*
G75*
G02*
X148770000Y-77630000I0J50000D01*
G01*
G37*
%TD*%
%TO.C,REF\u002A\u002A*%
G36*
G01*
X146230000Y-90330000D02*
X146230000Y-88230000D01*
G75*
G02*
X146280000Y-88180000I50000J0D01*
G01*
X148380000Y-88180000D01*
G75*
G02*
X148430000Y-88230000I0J-50000D01*
G01*
X148430000Y-90330000D01*
G75*
G02*
X148380000Y-90380000I-50000J0D01*
G01*
X146280000Y-90380000D01*
G75*
G02*
X146230000Y-90330000I0J50000D01*
G01*
G37*
%TD*%
%TO.C,REF\u002A\u002A*%
G36*
G01*
X146230000Y-92870000D02*
X146230000Y-90770000D01*
G75*
G02*
X146280000Y-90720000I50000J0D01*
G01*
X148380000Y-90720000D01*
G75*
G02*
X148430000Y-90770000I0J-50000D01*
G01*
X148430000Y-92870000D01*
G75*
G02*
X148380000Y-92920000I-50000J0D01*
G01*
X146280000Y-92920000D01*
G75*
G02*
X146230000Y-92870000I0J50000D01*
G01*
G37*
%TD*%
%TO.C,REF\u002A\u002A*%
G36*
G01*
X146230000Y-80170000D02*
X146230000Y-78070000D01*
G75*
G02*
X146280000Y-78020000I50000J0D01*
G01*
X148380000Y-78020000D01*
G75*
G02*
X148430000Y-78070000I0J-50000D01*
G01*
X148430000Y-80170000D01*
G75*
G02*
X148380000Y-80220000I-50000J0D01*
G01*
X146280000Y-80220000D01*
G75*
G02*
X146230000Y-80170000I0J50000D01*
G01*
G37*
%TD*%
%TO.C,REF\u002A\u002A*%
G36*
G01*
X148770000Y-90330000D02*
X148770000Y-88230000D01*
G75*
G02*
X148820000Y-88180000I50000J0D01*
G01*
X150920000Y-88180000D01*
G75*
G02*
X150970000Y-88230000I0J-50000D01*
G01*
X150970000Y-90330000D01*
G75*
G02*
X150920000Y-90380000I-50000J0D01*
G01*
X148820000Y-90380000D01*
G75*
G02*
X148770000Y-90330000I0J50000D01*
G01*
G37*
%TD*%
%TO.C,REF\u002A\u002A*%
G36*
G01*
X146230000Y-75090000D02*
X146230000Y-72990000D01*
G75*
G02*
X146280000Y-72940000I50000J0D01*
G01*
X148380000Y-72940000D01*
G75*
G02*
X148430000Y-72990000I0J-50000D01*
G01*
X148430000Y-75090000D01*
G75*
G02*
X148380000Y-75140000I-50000J0D01*
G01*
X146280000Y-75140000D01*
G75*
G02*
X146230000Y-75090000I0J50000D01*
G01*
G37*
%TD*%
%TO.C,REF\u002A\u002A*%
G36*
G01*
X148770000Y-100490000D02*
X148770000Y-98390000D01*
G75*
G02*
X148820000Y-98340000I50000J0D01*
G01*
X150920000Y-98340000D01*
G75*
G02*
X150970000Y-98390000I0J-50000D01*
G01*
X150970000Y-100490000D01*
G75*
G02*
X150920000Y-100540000I-50000J0D01*
G01*
X148820000Y-100540000D01*
G75*
G02*
X148770000Y-100490000I0J50000D01*
G01*
G37*
%TD*%
%TO.C,REF\u002A\u002A*%
G36*
G01*
X148770000Y-87790000D02*
X148770000Y-85690000D01*
G75*
G02*
X148820000Y-85640000I50000J0D01*
G01*
X150920000Y-85640000D01*
G75*
G02*
X150970000Y-85690000I0J-50000D01*
G01*
X150970000Y-87790000D01*
G75*
G02*
X150920000Y-87840000I-50000J0D01*
G01*
X148820000Y-87840000D01*
G75*
G02*
X148770000Y-87790000I0J50000D01*
G01*
G37*
%TD*%
%TO.C,REF\u002A\u002A*%
G36*
G01*
X148770000Y-75090000D02*
X148770000Y-72990000D01*
G75*
G02*
X148820000Y-72940000I50000J0D01*
G01*
X150920000Y-72940000D01*
G75*
G02*
X150970000Y-72990000I0J-50000D01*
G01*
X150970000Y-75090000D01*
G75*
G02*
X150920000Y-75140000I-50000J0D01*
G01*
X148820000Y-75140000D01*
G75*
G02*
X148770000Y-75090000I0J50000D01*
G01*
G37*
%TD*%
%TO.C,REF\u002A\u002A*%
G36*
G01*
X146230000Y-97950000D02*
X146230000Y-95850000D01*
G75*
G02*
X146280000Y-95800000I50000J0D01*
G01*
X148380000Y-95800000D01*
G75*
G02*
X148430000Y-95850000I0J-50000D01*
G01*
X148430000Y-97950000D01*
G75*
G02*
X148380000Y-98000000I-50000J0D01*
G01*
X146280000Y-98000000D01*
G75*
G02*
X146230000Y-97950000I0J50000D01*
G01*
G37*
%TD*%
%TO.C,REF\u002A\u002A*%
G36*
G01*
X146230000Y-72550000D02*
X146230000Y-70450000D01*
G75*
G02*
X146280000Y-70400000I50000J0D01*
G01*
X148380000Y-70400000D01*
G75*
G02*
X148430000Y-70450000I0J-50000D01*
G01*
X148430000Y-72550000D01*
G75*
G02*
X148380000Y-72600000I-50000J0D01*
G01*
X146280000Y-72600000D01*
G75*
G02*
X146230000Y-72550000I0J50000D01*
G01*
G37*
%TD*%
%TO.C,REF\u002A\u002A*%
G36*
G01*
X148770000Y-72550000D02*
X148770000Y-70450000D01*
G75*
G02*
X148820000Y-70400000I50000J0D01*
G01*
X150920000Y-70400000D01*
G75*
G02*
X150970000Y-70450000I0J-50000D01*
G01*
X150970000Y-72550000D01*
G75*
G02*
X150920000Y-72600000I-50000J0D01*
G01*
X148820000Y-72600000D01*
G75*
G02*
X148770000Y-72550000I0J50000D01*
G01*
G37*
%TD*%
%TO.C,REF\u002A\u002A*%
G36*
G01*
X148770000Y-80170000D02*
X148770000Y-78070000D01*
G75*
G02*
X148820000Y-78020000I50000J0D01*
G01*
X150920000Y-78020000D01*
G75*
G02*
X150970000Y-78070000I0J-50000D01*
G01*
X150970000Y-80170000D01*
G75*
G02*
X150920000Y-80220000I-50000J0D01*
G01*
X148820000Y-80220000D01*
G75*
G02*
X148770000Y-80170000I0J50000D01*
G01*
G37*
%TD*%
%TO.C,REF\u002A\u002A*%
G36*
G01*
X146230000Y-85250000D02*
X146230000Y-83150000D01*
G75*
G02*
X146280000Y-83100000I50000J0D01*
G01*
X148380000Y-83100000D01*
G75*
G02*
X148430000Y-83150000I0J-50000D01*
G01*
X148430000Y-85250000D01*
G75*
G02*
X148380000Y-85300000I-50000J0D01*
G01*
X146280000Y-85300000D01*
G75*
G02*
X146230000Y-85250000I0J50000D01*
G01*
G37*
%TD*%
%TO.C,REF\u002A\u002A*%
G36*
G01*
X148770000Y-95410000D02*
X148770000Y-93310000D01*
G75*
G02*
X148820000Y-93260000I50000J0D01*
G01*
X150920000Y-93260000D01*
G75*
G02*
X150970000Y-93310000I0J-50000D01*
G01*
X150970000Y-95410000D01*
G75*
G02*
X150920000Y-95460000I-50000J0D01*
G01*
X148820000Y-95460000D01*
G75*
G02*
X148770000Y-95410000I0J50000D01*
G01*
G37*
%TD*%
%TO.C,REF\u002A\u002A*%
G36*
G01*
X146230000Y-77630000D02*
X146230000Y-75530000D01*
G75*
G02*
X146280000Y-75480000I50000J0D01*
G01*
X148380000Y-75480000D01*
G75*
G02*
X148430000Y-75530000I0J-50000D01*
G01*
X148430000Y-77630000D01*
G75*
G02*
X148380000Y-77680000I-50000J0D01*
G01*
X146280000Y-77680000D01*
G75*
G02*
X146230000Y-77630000I0J50000D01*
G01*
G37*
%TD*%
%TO.C,REF\u002A\u002A*%
G36*
G01*
X146230000Y-95410000D02*
X146230000Y-93310000D01*
G75*
G02*
X146280000Y-93260000I50000J0D01*
G01*
X148380000Y-93260000D01*
G75*
G02*
X148430000Y-93310000I0J-50000D01*
G01*
X148430000Y-95410000D01*
G75*
G02*
X148380000Y-95460000I-50000J0D01*
G01*
X146280000Y-95460000D01*
G75*
G02*
X146230000Y-95410000I0J50000D01*
G01*
G37*
%TD*%
%TO.C,REF\u002A\u002A*%
G36*
G01*
X148770000Y-85250000D02*
X148770000Y-83150000D01*
G75*
G02*
X148820000Y-83100000I50000J0D01*
G01*
X150920000Y-83100000D01*
G75*
G02*
X150970000Y-83150000I0J-50000D01*
G01*
X150970000Y-85250000D01*
G75*
G02*
X150920000Y-85300000I-50000J0D01*
G01*
X148820000Y-85300000D01*
G75*
G02*
X148770000Y-85250000I0J50000D01*
G01*
G37*
%TD*%
%TO.C,REF\u002A\u002A*%
G36*
G01*
X146230000Y-100490000D02*
X146230000Y-98390000D01*
G75*
G02*
X146280000Y-98340000I50000J0D01*
G01*
X148380000Y-98340000D01*
G75*
G02*
X148430000Y-98390000I0J-50000D01*
G01*
X148430000Y-100490000D01*
G75*
G02*
X148380000Y-100540000I-50000J0D01*
G01*
X146280000Y-100540000D01*
G75*
G02*
X146230000Y-100490000I0J50000D01*
G01*
G37*
%TD*%
%TO.C,REF\u002A\u002A*%
G36*
G01*
X146230000Y-87790000D02*
X146230000Y-85690000D01*
G75*
G02*
X146280000Y-85640000I50000J0D01*
G01*
X148380000Y-85640000D01*
G75*
G02*
X148430000Y-85690000I0J-50000D01*
G01*
X148430000Y-87790000D01*
G75*
G02*
X148380000Y-87840000I-50000J0D01*
G01*
X146280000Y-87840000D01*
G75*
G02*
X146230000Y-87790000I0J50000D01*
G01*
G37*
%TD*%
%TO.C,REF\u002A\u002A*%
G36*
G01*
X148770000Y-82710000D02*
X148770000Y-80610000D01*
G75*
G02*
X148820000Y-80560000I50000J0D01*
G01*
X150920000Y-80560000D01*
G75*
G02*
X150970000Y-80610000I0J-50000D01*
G01*
X150970000Y-82710000D01*
G75*
G02*
X150920000Y-82760000I-50000J0D01*
G01*
X148820000Y-82760000D01*
G75*
G02*
X148770000Y-82710000I0J50000D01*
G01*
G37*
%TD*%
%TO.C,REF\u002A\u002A*%
G36*
G01*
X143690000Y-95410000D02*
X143690000Y-93310000D01*
G75*
G02*
X143740000Y-93260000I50000J0D01*
G01*
X145840000Y-93260000D01*
G75*
G02*
X145890000Y-93310000I0J-50000D01*
G01*
X145890000Y-95410000D01*
G75*
G02*
X145840000Y-95460000I-50000J0D01*
G01*
X143740000Y-95460000D01*
G75*
G02*
X143690000Y-95410000I0J50000D01*
G01*
G37*
%TD*%
%TO.C,REF\u002A\u002A*%
G36*
G01*
X143690000Y-77630000D02*
X143690000Y-75530000D01*
G75*
G02*
X143740000Y-75480000I50000J0D01*
G01*
X145840000Y-75480000D01*
G75*
G02*
X145890000Y-75530000I0J-50000D01*
G01*
X145890000Y-77630000D01*
G75*
G02*
X145840000Y-77680000I-50000J0D01*
G01*
X143740000Y-77680000D01*
G75*
G02*
X143690000Y-77630000I0J50000D01*
G01*
G37*
%TD*%
%TO.C,REF\u002A\u002A*%
G36*
G01*
X141150000Y-90330000D02*
X141150000Y-88230000D01*
G75*
G02*
X141200000Y-88180000I50000J0D01*
G01*
X143300000Y-88180000D01*
G75*
G02*
X143350000Y-88230000I0J-50000D01*
G01*
X143350000Y-90330000D01*
G75*
G02*
X143300000Y-90380000I-50000J0D01*
G01*
X141200000Y-90380000D01*
G75*
G02*
X141150000Y-90330000I0J50000D01*
G01*
G37*
%TD*%
%TO.C,REF\u002A\u002A*%
G36*
G01*
X141150000Y-92870000D02*
X141150000Y-90770000D01*
G75*
G02*
X141200000Y-90720000I50000J0D01*
G01*
X143300000Y-90720000D01*
G75*
G02*
X143350000Y-90770000I0J-50000D01*
G01*
X143350000Y-92870000D01*
G75*
G02*
X143300000Y-92920000I-50000J0D01*
G01*
X141200000Y-92920000D01*
G75*
G02*
X141150000Y-92870000I0J50000D01*
G01*
G37*
%TD*%
%TO.C,REF\u002A\u002A*%
G36*
G01*
X141150000Y-77630000D02*
X141150000Y-75530000D01*
G75*
G02*
X141200000Y-75480000I50000J0D01*
G01*
X143300000Y-75480000D01*
G75*
G02*
X143350000Y-75530000I0J-50000D01*
G01*
X143350000Y-77630000D01*
G75*
G02*
X143300000Y-77680000I-50000J0D01*
G01*
X141200000Y-77680000D01*
G75*
G02*
X141150000Y-77630000I0J50000D01*
G01*
G37*
%TD*%
%TO.C,REF\u002A\u002A*%
G36*
G01*
X141150000Y-95410000D02*
X141150000Y-93310000D01*
G75*
G02*
X141200000Y-93260000I50000J0D01*
G01*
X143300000Y-93260000D01*
G75*
G02*
X143350000Y-93310000I0J-50000D01*
G01*
X143350000Y-95410000D01*
G75*
G02*
X143300000Y-95460000I-50000J0D01*
G01*
X141200000Y-95460000D01*
G75*
G02*
X141150000Y-95410000I0J50000D01*
G01*
G37*
%TD*%
%TO.C,REF\u002A\u002A*%
G36*
G01*
X143690000Y-85250000D02*
X143690000Y-83150000D01*
G75*
G02*
X143740000Y-83100000I50000J0D01*
G01*
X145840000Y-83100000D01*
G75*
G02*
X145890000Y-83150000I0J-50000D01*
G01*
X145890000Y-85250000D01*
G75*
G02*
X145840000Y-85300000I-50000J0D01*
G01*
X143740000Y-85300000D01*
G75*
G02*
X143690000Y-85250000I0J50000D01*
G01*
G37*
%TD*%
%TO.C,REF\u002A\u002A*%
G36*
G01*
X141150000Y-75090000D02*
X141150000Y-72990000D01*
G75*
G02*
X141200000Y-72940000I50000J0D01*
G01*
X143300000Y-72940000D01*
G75*
G02*
X143350000Y-72990000I0J-50000D01*
G01*
X143350000Y-75090000D01*
G75*
G02*
X143300000Y-75140000I-50000J0D01*
G01*
X141200000Y-75140000D01*
G75*
G02*
X141150000Y-75090000I0J50000D01*
G01*
G37*
%TD*%
%TO.C,REF\u002A\u002A*%
G36*
G01*
X141150000Y-80170000D02*
X141150000Y-78070000D01*
G75*
G02*
X141200000Y-78020000I50000J0D01*
G01*
X143300000Y-78020000D01*
G75*
G02*
X143350000Y-78070000I0J-50000D01*
G01*
X143350000Y-80170000D01*
G75*
G02*
X143300000Y-80220000I-50000J0D01*
G01*
X141200000Y-80220000D01*
G75*
G02*
X141150000Y-80170000I0J50000D01*
G01*
G37*
%TD*%
%TO.C,REF\u002A\u002A*%
G36*
G01*
X141150000Y-97950000D02*
X141150000Y-95850000D01*
G75*
G02*
X141200000Y-95800000I50000J0D01*
G01*
X143300000Y-95800000D01*
G75*
G02*
X143350000Y-95850000I0J-50000D01*
G01*
X143350000Y-97950000D01*
G75*
G02*
X143300000Y-98000000I-50000J0D01*
G01*
X141200000Y-98000000D01*
G75*
G02*
X141150000Y-97950000I0J50000D01*
G01*
G37*
%TD*%
%TO.C,REF\u002A\u002A*%
G36*
G01*
X141150000Y-72550000D02*
X141150000Y-70450000D01*
G75*
G02*
X141200000Y-70400000I50000J0D01*
G01*
X143300000Y-70400000D01*
G75*
G02*
X143350000Y-70450000I0J-50000D01*
G01*
X143350000Y-72550000D01*
G75*
G02*
X143300000Y-72600000I-50000J0D01*
G01*
X141200000Y-72600000D01*
G75*
G02*
X141150000Y-72550000I0J50000D01*
G01*
G37*
%TD*%
%TO.C,REF\u002A\u002A*%
G36*
G01*
X143690000Y-72550000D02*
X143690000Y-70450000D01*
G75*
G02*
X143740000Y-70400000I50000J0D01*
G01*
X145840000Y-70400000D01*
G75*
G02*
X145890000Y-70450000I0J-50000D01*
G01*
X145890000Y-72550000D01*
G75*
G02*
X145840000Y-72600000I-50000J0D01*
G01*
X143740000Y-72600000D01*
G75*
G02*
X143690000Y-72550000I0J50000D01*
G01*
G37*
%TD*%
%TO.C,REF\u002A\u002A*%
G36*
G01*
X143690000Y-80170000D02*
X143690000Y-78070000D01*
G75*
G02*
X143740000Y-78020000I50000J0D01*
G01*
X145840000Y-78020000D01*
G75*
G02*
X145890000Y-78070000I0J-50000D01*
G01*
X145890000Y-80170000D01*
G75*
G02*
X145840000Y-80220000I-50000J0D01*
G01*
X143740000Y-80220000D01*
G75*
G02*
X143690000Y-80170000I0J50000D01*
G01*
G37*
%TD*%
%TO.C,REF\u002A\u002A*%
G36*
G01*
X141150000Y-82710000D02*
X141150000Y-80610000D01*
G75*
G02*
X141200000Y-80560000I50000J0D01*
G01*
X143300000Y-80560000D01*
G75*
G02*
X143350000Y-80610000I0J-50000D01*
G01*
X143350000Y-82710000D01*
G75*
G02*
X143300000Y-82760000I-50000J0D01*
G01*
X141200000Y-82760000D01*
G75*
G02*
X141150000Y-82710000I0J50000D01*
G01*
G37*
%TD*%
%TO.C,REF\u002A\u002A*%
G36*
G01*
X143690000Y-100490000D02*
X143690000Y-98390000D01*
G75*
G02*
X143740000Y-98340000I50000J0D01*
G01*
X145840000Y-98340000D01*
G75*
G02*
X145890000Y-98390000I0J-50000D01*
G01*
X145890000Y-100490000D01*
G75*
G02*
X145840000Y-100540000I-50000J0D01*
G01*
X143740000Y-100540000D01*
G75*
G02*
X143690000Y-100490000I0J50000D01*
G01*
G37*
%TD*%
%TO.C,REF\u002A\u002A*%
G36*
G01*
X141150000Y-100490000D02*
X141150000Y-98390000D01*
G75*
G02*
X141200000Y-98340000I50000J0D01*
G01*
X143300000Y-98340000D01*
G75*
G02*
X143350000Y-98390000I0J-50000D01*
G01*
X143350000Y-100490000D01*
G75*
G02*
X143300000Y-100540000I-50000J0D01*
G01*
X141200000Y-100540000D01*
G75*
G02*
X141150000Y-100490000I0J50000D01*
G01*
G37*
%TD*%
%TO.C,REF\u002A\u002A*%
G36*
G01*
X143690000Y-97950000D02*
X143690000Y-95850000D01*
G75*
G02*
X143740000Y-95800000I50000J0D01*
G01*
X145840000Y-95800000D01*
G75*
G02*
X145890000Y-95850000I0J-50000D01*
G01*
X145890000Y-97950000D01*
G75*
G02*
X145840000Y-98000000I-50000J0D01*
G01*
X143740000Y-98000000D01*
G75*
G02*
X143690000Y-97950000I0J50000D01*
G01*
G37*
%TD*%
%TO.C,REF\u002A\u002A*%
G36*
G01*
X141150000Y-85250000D02*
X141150000Y-83150000D01*
G75*
G02*
X141200000Y-83100000I50000J0D01*
G01*
X143300000Y-83100000D01*
G75*
G02*
X143350000Y-83150000I0J-50000D01*
G01*
X143350000Y-85250000D01*
G75*
G02*
X143300000Y-85300000I-50000J0D01*
G01*
X141200000Y-85300000D01*
G75*
G02*
X141150000Y-85250000I0J50000D01*
G01*
G37*
%TD*%
%TO.C,REF\u002A\u002A*%
G36*
G01*
X143690000Y-87790000D02*
X143690000Y-85690000D01*
G75*
G02*
X143740000Y-85640000I50000J0D01*
G01*
X145840000Y-85640000D01*
G75*
G02*
X145890000Y-85690000I0J-50000D01*
G01*
X145890000Y-87790000D01*
G75*
G02*
X145840000Y-87840000I-50000J0D01*
G01*
X143740000Y-87840000D01*
G75*
G02*
X143690000Y-87790000I0J50000D01*
G01*
G37*
%TD*%
%TO.C,REF\u002A\u002A*%
G36*
G01*
X143690000Y-75090000D02*
X143690000Y-72990000D01*
G75*
G02*
X143740000Y-72940000I50000J0D01*
G01*
X145840000Y-72940000D01*
G75*
G02*
X145890000Y-72990000I0J-50000D01*
G01*
X145890000Y-75090000D01*
G75*
G02*
X145840000Y-75140000I-50000J0D01*
G01*
X143740000Y-75140000D01*
G75*
G02*
X143690000Y-75090000I0J50000D01*
G01*
G37*
%TD*%
%TO.C,REF\u002A\u002A*%
G36*
G01*
X143690000Y-92870000D02*
X143690000Y-90770000D01*
G75*
G02*
X143740000Y-90720000I50000J0D01*
G01*
X145840000Y-90720000D01*
G75*
G02*
X145890000Y-90770000I0J-50000D01*
G01*
X145890000Y-92870000D01*
G75*
G02*
X145840000Y-92920000I-50000J0D01*
G01*
X143740000Y-92920000D01*
G75*
G02*
X143690000Y-92870000I0J50000D01*
G01*
G37*
%TD*%
%TO.C,REF\u002A\u002A*%
G36*
G01*
X143690000Y-82710000D02*
X143690000Y-80610000D01*
G75*
G02*
X143740000Y-80560000I50000J0D01*
G01*
X145840000Y-80560000D01*
G75*
G02*
X145890000Y-80610000I0J-50000D01*
G01*
X145890000Y-82710000D01*
G75*
G02*
X145840000Y-82760000I-50000J0D01*
G01*
X143740000Y-82760000D01*
G75*
G02*
X143690000Y-82710000I0J50000D01*
G01*
G37*
%TD*%
%TO.C,REF\u002A\u002A*%
G36*
G01*
X143690000Y-90330000D02*
X143690000Y-88230000D01*
G75*
G02*
X143740000Y-88180000I50000J0D01*
G01*
X145840000Y-88180000D01*
G75*
G02*
X145890000Y-88230000I0J-50000D01*
G01*
X145890000Y-90330000D01*
G75*
G02*
X145840000Y-90380000I-50000J0D01*
G01*
X143740000Y-90380000D01*
G75*
G02*
X143690000Y-90330000I0J50000D01*
G01*
G37*
%TD*%
%TO.C,REF\u002A\u002A*%
G36*
G01*
X141150000Y-87790000D02*
X141150000Y-85690000D01*
G75*
G02*
X141200000Y-85640000I50000J0D01*
G01*
X143300000Y-85640000D01*
G75*
G02*
X143350000Y-85690000I0J-50000D01*
G01*
X143350000Y-87790000D01*
G75*
G02*
X143300000Y-87840000I-50000J0D01*
G01*
X141200000Y-87840000D01*
G75*
G02*
X141150000Y-87790000I0J50000D01*
G01*
G37*
%TD*%
%TO.C,REF\u002A\u002A*%
G36*
G01*
X138610000Y-95410000D02*
X138610000Y-93310000D01*
G75*
G02*
X138660000Y-93260000I50000J0D01*
G01*
X140760000Y-93260000D01*
G75*
G02*
X140810000Y-93310000I0J-50000D01*
G01*
X140810000Y-95410000D01*
G75*
G02*
X140760000Y-95460000I-50000J0D01*
G01*
X138660000Y-95460000D01*
G75*
G02*
X138610000Y-95410000I0J50000D01*
G01*
G37*
%TD*%
%TO.C,REF\u002A\u002A*%
G36*
G01*
X138610000Y-77630000D02*
X138610000Y-75530000D01*
G75*
G02*
X138660000Y-75480000I50000J0D01*
G01*
X140760000Y-75480000D01*
G75*
G02*
X140810000Y-75530000I0J-50000D01*
G01*
X140810000Y-77630000D01*
G75*
G02*
X140760000Y-77680000I-50000J0D01*
G01*
X138660000Y-77680000D01*
G75*
G02*
X138610000Y-77630000I0J50000D01*
G01*
G37*
%TD*%
%TO.C,REF\u002A\u002A*%
G36*
G01*
X136070000Y-100490000D02*
X136070000Y-98390000D01*
G75*
G02*
X136120000Y-98340000I50000J0D01*
G01*
X138220000Y-98340000D01*
G75*
G02*
X138270000Y-98390000I0J-50000D01*
G01*
X138270000Y-100490000D01*
G75*
G02*
X138220000Y-100540000I-50000J0D01*
G01*
X136120000Y-100540000D01*
G75*
G02*
X136070000Y-100490000I0J50000D01*
G01*
G37*
%TD*%
%TO.C,REF\u002A\u002A*%
G36*
G01*
X138610000Y-97950000D02*
X138610000Y-95850000D01*
G75*
G02*
X138660000Y-95800000I50000J0D01*
G01*
X140760000Y-95800000D01*
G75*
G02*
X140810000Y-95850000I0J-50000D01*
G01*
X140810000Y-97950000D01*
G75*
G02*
X140760000Y-98000000I-50000J0D01*
G01*
X138660000Y-98000000D01*
G75*
G02*
X138610000Y-97950000I0J50000D01*
G01*
G37*
%TD*%
%TO.C,REF\u002A\u002A*%
G36*
G01*
X138610000Y-75090000D02*
X138610000Y-72990000D01*
G75*
G02*
X138660000Y-72940000I50000J0D01*
G01*
X140760000Y-72940000D01*
G75*
G02*
X140810000Y-72990000I0J-50000D01*
G01*
X140810000Y-75090000D01*
G75*
G02*
X140760000Y-75140000I-50000J0D01*
G01*
X138660000Y-75140000D01*
G75*
G02*
X138610000Y-75090000I0J50000D01*
G01*
G37*
%TD*%
%TO.C,REF\u002A\u002A*%
G36*
G01*
X136070000Y-77630000D02*
X136070000Y-75530000D01*
G75*
G02*
X136120000Y-75480000I50000J0D01*
G01*
X138220000Y-75480000D01*
G75*
G02*
X138270000Y-75530000I0J-50000D01*
G01*
X138270000Y-77630000D01*
G75*
G02*
X138220000Y-77680000I-50000J0D01*
G01*
X136120000Y-77680000D01*
G75*
G02*
X136070000Y-77630000I0J50000D01*
G01*
G37*
%TD*%
%TO.C,REF\u002A\u002A*%
G36*
G01*
X136070000Y-85250000D02*
X136070000Y-83150000D01*
G75*
G02*
X136120000Y-83100000I50000J0D01*
G01*
X138220000Y-83100000D01*
G75*
G02*
X138270000Y-83150000I0J-50000D01*
G01*
X138270000Y-85250000D01*
G75*
G02*
X138220000Y-85300000I-50000J0D01*
G01*
X136120000Y-85300000D01*
G75*
G02*
X136070000Y-85250000I0J50000D01*
G01*
G37*
%TD*%
%TO.C,REF\u002A\u002A*%
G36*
G01*
X138610000Y-82710000D02*
X138610000Y-80610000D01*
G75*
G02*
X138660000Y-80560000I50000J0D01*
G01*
X140760000Y-80560000D01*
G75*
G02*
X140810000Y-80610000I0J-50000D01*
G01*
X140810000Y-82710000D01*
G75*
G02*
X140760000Y-82760000I-50000J0D01*
G01*
X138660000Y-82760000D01*
G75*
G02*
X138610000Y-82710000I0J50000D01*
G01*
G37*
%TD*%
%TO.C,REF\u002A\u002A*%
G36*
G01*
X138610000Y-90330000D02*
X138610000Y-88230000D01*
G75*
G02*
X138660000Y-88180000I50000J0D01*
G01*
X140760000Y-88180000D01*
G75*
G02*
X140810000Y-88230000I0J-50000D01*
G01*
X140810000Y-90330000D01*
G75*
G02*
X140760000Y-90380000I-50000J0D01*
G01*
X138660000Y-90380000D01*
G75*
G02*
X138610000Y-90330000I0J50000D01*
G01*
G37*
%TD*%
%TO.C,REF\u002A\u002A*%
G36*
G01*
X136070000Y-87790000D02*
X136070000Y-85690000D01*
G75*
G02*
X136120000Y-85640000I50000J0D01*
G01*
X138220000Y-85640000D01*
G75*
G02*
X138270000Y-85690000I0J-50000D01*
G01*
X138270000Y-87790000D01*
G75*
G02*
X138220000Y-87840000I-50000J0D01*
G01*
X136120000Y-87840000D01*
G75*
G02*
X136070000Y-87790000I0J50000D01*
G01*
G37*
%TD*%
%TO.C,REF\u002A\u002A*%
G36*
G01*
X138610000Y-80170000D02*
X138610000Y-78070000D01*
G75*
G02*
X138660000Y-78020000I50000J0D01*
G01*
X140760000Y-78020000D01*
G75*
G02*
X140810000Y-78070000I0J-50000D01*
G01*
X140810000Y-80170000D01*
G75*
G02*
X140760000Y-80220000I-50000J0D01*
G01*
X138660000Y-80220000D01*
G75*
G02*
X138610000Y-80170000I0J50000D01*
G01*
G37*
%TD*%
%TO.C,REF\u002A\u002A*%
G36*
G01*
X138610000Y-72550000D02*
X138610000Y-70450000D01*
G75*
G02*
X138660000Y-70400000I50000J0D01*
G01*
X140760000Y-70400000D01*
G75*
G02*
X140810000Y-70450000I0J-50000D01*
G01*
X140810000Y-72550000D01*
G75*
G02*
X140760000Y-72600000I-50000J0D01*
G01*
X138660000Y-72600000D01*
G75*
G02*
X138610000Y-72550000I0J50000D01*
G01*
G37*
%TD*%
%TO.C,REF\u002A\u002A*%
G36*
G01*
X136070000Y-82710000D02*
X136070000Y-80610000D01*
G75*
G02*
X136120000Y-80560000I50000J0D01*
G01*
X138220000Y-80560000D01*
G75*
G02*
X138270000Y-80610000I0J-50000D01*
G01*
X138270000Y-82710000D01*
G75*
G02*
X138220000Y-82760000I-50000J0D01*
G01*
X136120000Y-82760000D01*
G75*
G02*
X136070000Y-82710000I0J50000D01*
G01*
G37*
%TD*%
%TO.C,REF\u002A\u002A*%
G36*
G01*
X136070000Y-75090000D02*
X136070000Y-72990000D01*
G75*
G02*
X136120000Y-72940000I50000J0D01*
G01*
X138220000Y-72940000D01*
G75*
G02*
X138270000Y-72990000I0J-50000D01*
G01*
X138270000Y-75090000D01*
G75*
G02*
X138220000Y-75140000I-50000J0D01*
G01*
X136120000Y-75140000D01*
G75*
G02*
X136070000Y-75090000I0J50000D01*
G01*
G37*
%TD*%
%TO.C,REF\u002A\u002A*%
G36*
G01*
X138610000Y-92870000D02*
X138610000Y-90770000D01*
G75*
G02*
X138660000Y-90720000I50000J0D01*
G01*
X140760000Y-90720000D01*
G75*
G02*
X140810000Y-90770000I0J-50000D01*
G01*
X140810000Y-92870000D01*
G75*
G02*
X140760000Y-92920000I-50000J0D01*
G01*
X138660000Y-92920000D01*
G75*
G02*
X138610000Y-92870000I0J50000D01*
G01*
G37*
%TD*%
%TO.C,REF\u002A\u002A*%
G36*
G01*
X136070000Y-90330000D02*
X136070000Y-88230000D01*
G75*
G02*
X136120000Y-88180000I50000J0D01*
G01*
X138220000Y-88180000D01*
G75*
G02*
X138270000Y-88230000I0J-50000D01*
G01*
X138270000Y-90330000D01*
G75*
G02*
X138220000Y-90380000I-50000J0D01*
G01*
X136120000Y-90380000D01*
G75*
G02*
X136070000Y-90330000I0J50000D01*
G01*
G37*
%TD*%
%TO.C,REF\u002A\u002A*%
G36*
G01*
X136070000Y-92870000D02*
X136070000Y-90770000D01*
G75*
G02*
X136120000Y-90720000I50000J0D01*
G01*
X138220000Y-90720000D01*
G75*
G02*
X138270000Y-90770000I0J-50000D01*
G01*
X138270000Y-92870000D01*
G75*
G02*
X138220000Y-92920000I-50000J0D01*
G01*
X136120000Y-92920000D01*
G75*
G02*
X136070000Y-92870000I0J50000D01*
G01*
G37*
%TD*%
%TO.C,REF\u002A\u002A*%
G36*
G01*
X138610000Y-87790000D02*
X138610000Y-85690000D01*
G75*
G02*
X138660000Y-85640000I50000J0D01*
G01*
X140760000Y-85640000D01*
G75*
G02*
X140810000Y-85690000I0J-50000D01*
G01*
X140810000Y-87790000D01*
G75*
G02*
X140760000Y-87840000I-50000J0D01*
G01*
X138660000Y-87840000D01*
G75*
G02*
X138610000Y-87790000I0J50000D01*
G01*
G37*
%TD*%
%TO.C,REF\u002A\u002A*%
G36*
G01*
X136070000Y-97950000D02*
X136070000Y-95850000D01*
G75*
G02*
X136120000Y-95800000I50000J0D01*
G01*
X138220000Y-95800000D01*
G75*
G02*
X138270000Y-95850000I0J-50000D01*
G01*
X138270000Y-97950000D01*
G75*
G02*
X138220000Y-98000000I-50000J0D01*
G01*
X136120000Y-98000000D01*
G75*
G02*
X136070000Y-97950000I0J50000D01*
G01*
G37*
%TD*%
%TO.C,REF\u002A\u002A*%
G36*
G01*
X138610000Y-85250000D02*
X138610000Y-83150000D01*
G75*
G02*
X138660000Y-83100000I50000J0D01*
G01*
X140760000Y-83100000D01*
G75*
G02*
X140810000Y-83150000I0J-50000D01*
G01*
X140810000Y-85250000D01*
G75*
G02*
X140760000Y-85300000I-50000J0D01*
G01*
X138660000Y-85300000D01*
G75*
G02*
X138610000Y-85250000I0J50000D01*
G01*
G37*
%TD*%
%TO.C,REF\u002A\u002A*%
G36*
G01*
X136070000Y-95410000D02*
X136070000Y-93310000D01*
G75*
G02*
X136120000Y-93260000I50000J0D01*
G01*
X138220000Y-93260000D01*
G75*
G02*
X138270000Y-93310000I0J-50000D01*
G01*
X138270000Y-95410000D01*
G75*
G02*
X138220000Y-95460000I-50000J0D01*
G01*
X136120000Y-95460000D01*
G75*
G02*
X136070000Y-95410000I0J50000D01*
G01*
G37*
%TD*%
%TO.C,REF\u002A\u002A*%
G36*
G01*
X138610000Y-100490000D02*
X138610000Y-98390000D01*
G75*
G02*
X138660000Y-98340000I50000J0D01*
G01*
X140760000Y-98340000D01*
G75*
G02*
X140810000Y-98390000I0J-50000D01*
G01*
X140810000Y-100490000D01*
G75*
G02*
X140760000Y-100540000I-50000J0D01*
G01*
X138660000Y-100540000D01*
G75*
G02*
X138610000Y-100490000I0J50000D01*
G01*
G37*
%TD*%
%TO.C,REF\u002A\u002A*%
G36*
G01*
X136070000Y-72550000D02*
X136070000Y-70450000D01*
G75*
G02*
X136120000Y-70400000I50000J0D01*
G01*
X138220000Y-70400000D01*
G75*
G02*
X138270000Y-70450000I0J-50000D01*
G01*
X138270000Y-72550000D01*
G75*
G02*
X138220000Y-72600000I-50000J0D01*
G01*
X136120000Y-72600000D01*
G75*
G02*
X136070000Y-72550000I0J50000D01*
G01*
G37*
%TD*%
%TO.C,REF\u002A\u002A*%
G36*
G01*
X136070000Y-80170000D02*
X136070000Y-78070000D01*
G75*
G02*
X136120000Y-78020000I50000J0D01*
G01*
X138220000Y-78020000D01*
G75*
G02*
X138270000Y-78070000I0J-50000D01*
G01*
X138270000Y-80170000D01*
G75*
G02*
X138220000Y-80220000I-50000J0D01*
G01*
X136120000Y-80220000D01*
G75*
G02*
X136070000Y-80170000I0J50000D01*
G01*
G37*
%TD*%
%TO.C,REF\u002A\u002A*%
G36*
G01*
X130990000Y-72550000D02*
X130990000Y-70450000D01*
G75*
G02*
X131040000Y-70400000I50000J0D01*
G01*
X133140000Y-70400000D01*
G75*
G02*
X133190000Y-70450000I0J-50000D01*
G01*
X133190000Y-72550000D01*
G75*
G02*
X133140000Y-72600000I-50000J0D01*
G01*
X131040000Y-72600000D01*
G75*
G02*
X130990000Y-72550000I0J50000D01*
G01*
G37*
%TD*%
%TO.C,REF\u002A\u002A*%
G36*
G01*
X130990000Y-80170000D02*
X130990000Y-78070000D01*
G75*
G02*
X131040000Y-78020000I50000J0D01*
G01*
X133140000Y-78020000D01*
G75*
G02*
X133190000Y-78070000I0J-50000D01*
G01*
X133190000Y-80170000D01*
G75*
G02*
X133140000Y-80220000I-50000J0D01*
G01*
X131040000Y-80220000D01*
G75*
G02*
X130990000Y-80170000I0J50000D01*
G01*
G37*
%TD*%
%TO.C,REF\u002A\u002A*%
G36*
G01*
X133530000Y-87790000D02*
X133530000Y-85690000D01*
G75*
G02*
X133580000Y-85640000I50000J0D01*
G01*
X135680000Y-85640000D01*
G75*
G02*
X135730000Y-85690000I0J-50000D01*
G01*
X135730000Y-87790000D01*
G75*
G02*
X135680000Y-87840000I-50000J0D01*
G01*
X133580000Y-87840000D01*
G75*
G02*
X133530000Y-87790000I0J50000D01*
G01*
G37*
%TD*%
%TO.C,REF\u002A\u002A*%
G36*
G01*
X130990000Y-97950000D02*
X130990000Y-95850000D01*
G75*
G02*
X131040000Y-95800000I50000J0D01*
G01*
X133140000Y-95800000D01*
G75*
G02*
X133190000Y-95850000I0J-50000D01*
G01*
X133190000Y-97950000D01*
G75*
G02*
X133140000Y-98000000I-50000J0D01*
G01*
X131040000Y-98000000D01*
G75*
G02*
X130990000Y-97950000I0J50000D01*
G01*
G37*
%TD*%
%TO.C,REF\u002A\u002A*%
G36*
G01*
X133530000Y-85250000D02*
X133530000Y-83150000D01*
G75*
G02*
X133580000Y-83100000I50000J0D01*
G01*
X135680000Y-83100000D01*
G75*
G02*
X135730000Y-83150000I0J-50000D01*
G01*
X135730000Y-85250000D01*
G75*
G02*
X135680000Y-85300000I-50000J0D01*
G01*
X133580000Y-85300000D01*
G75*
G02*
X133530000Y-85250000I0J50000D01*
G01*
G37*
%TD*%
%TO.C,REF\u002A\u002A*%
G36*
G01*
X130990000Y-90330000D02*
X130990000Y-88230000D01*
G75*
G02*
X131040000Y-88180000I50000J0D01*
G01*
X133140000Y-88180000D01*
G75*
G02*
X133190000Y-88230000I0J-50000D01*
G01*
X133190000Y-90330000D01*
G75*
G02*
X133140000Y-90380000I-50000J0D01*
G01*
X131040000Y-90380000D01*
G75*
G02*
X130990000Y-90330000I0J50000D01*
G01*
G37*
%TD*%
%TO.C,REF\u002A\u002A*%
G36*
G01*
X130990000Y-82710000D02*
X130990000Y-80610000D01*
G75*
G02*
X131040000Y-80560000I50000J0D01*
G01*
X133140000Y-80560000D01*
G75*
G02*
X133190000Y-80610000I0J-50000D01*
G01*
X133190000Y-82710000D01*
G75*
G02*
X133140000Y-82760000I-50000J0D01*
G01*
X131040000Y-82760000D01*
G75*
G02*
X130990000Y-82710000I0J50000D01*
G01*
G37*
%TD*%
%TO.C,REF\u002A\u002A*%
G36*
G01*
X130990000Y-92870000D02*
X130990000Y-90770000D01*
G75*
G02*
X131040000Y-90720000I50000J0D01*
G01*
X133140000Y-90720000D01*
G75*
G02*
X133190000Y-90770000I0J-50000D01*
G01*
X133190000Y-92870000D01*
G75*
G02*
X133140000Y-92920000I-50000J0D01*
G01*
X131040000Y-92920000D01*
G75*
G02*
X130990000Y-92870000I0J50000D01*
G01*
G37*
%TD*%
%TO.C,REF\u002A\u002A*%
G36*
G01*
X130990000Y-75090000D02*
X130990000Y-72990000D01*
G75*
G02*
X131040000Y-72940000I50000J0D01*
G01*
X133140000Y-72940000D01*
G75*
G02*
X133190000Y-72990000I0J-50000D01*
G01*
X133190000Y-75090000D01*
G75*
G02*
X133140000Y-75140000I-50000J0D01*
G01*
X131040000Y-75140000D01*
G75*
G02*
X130990000Y-75090000I0J50000D01*
G01*
G37*
%TD*%
%TO.C,REF\u002A\u002A*%
G36*
G01*
X133530000Y-82710000D02*
X133530000Y-80610000D01*
G75*
G02*
X133580000Y-80560000I50000J0D01*
G01*
X135680000Y-80560000D01*
G75*
G02*
X135730000Y-80610000I0J-50000D01*
G01*
X135730000Y-82710000D01*
G75*
G02*
X135680000Y-82760000I-50000J0D01*
G01*
X133580000Y-82760000D01*
G75*
G02*
X133530000Y-82710000I0J50000D01*
G01*
G37*
%TD*%
%TO.C,REF\u002A\u002A*%
G36*
G01*
X133530000Y-90330000D02*
X133530000Y-88230000D01*
G75*
G02*
X133580000Y-88180000I50000J0D01*
G01*
X135680000Y-88180000D01*
G75*
G02*
X135730000Y-88230000I0J-50000D01*
G01*
X135730000Y-90330000D01*
G75*
G02*
X135680000Y-90380000I-50000J0D01*
G01*
X133580000Y-90380000D01*
G75*
G02*
X133530000Y-90330000I0J50000D01*
G01*
G37*
%TD*%
%TO.C,REF\u002A\u002A*%
G36*
G01*
X130990000Y-100490000D02*
X130990000Y-98390000D01*
G75*
G02*
X131040000Y-98340000I50000J0D01*
G01*
X133140000Y-98340000D01*
G75*
G02*
X133190000Y-98390000I0J-50000D01*
G01*
X133190000Y-100490000D01*
G75*
G02*
X133140000Y-100540000I-50000J0D01*
G01*
X131040000Y-100540000D01*
G75*
G02*
X130990000Y-100490000I0J50000D01*
G01*
G37*
%TD*%
%TO.C,REF\u002A\u002A*%
G36*
G01*
X130990000Y-77630000D02*
X130990000Y-75530000D01*
G75*
G02*
X131040000Y-75480000I50000J0D01*
G01*
X133140000Y-75480000D01*
G75*
G02*
X133190000Y-75530000I0J-50000D01*
G01*
X133190000Y-77630000D01*
G75*
G02*
X133140000Y-77680000I-50000J0D01*
G01*
X131040000Y-77680000D01*
G75*
G02*
X130990000Y-77630000I0J50000D01*
G01*
G37*
%TD*%
%TO.C,REF\u002A\u002A*%
G36*
G01*
X133530000Y-92870000D02*
X133530000Y-90770000D01*
G75*
G02*
X133580000Y-90720000I50000J0D01*
G01*
X135680000Y-90720000D01*
G75*
G02*
X135730000Y-90770000I0J-50000D01*
G01*
X135730000Y-92870000D01*
G75*
G02*
X135680000Y-92920000I-50000J0D01*
G01*
X133580000Y-92920000D01*
G75*
G02*
X133530000Y-92870000I0J50000D01*
G01*
G37*
%TD*%
%TO.C,REF\u002A\u002A*%
G36*
G01*
X133530000Y-72550000D02*
X133530000Y-70450000D01*
G75*
G02*
X133580000Y-70400000I50000J0D01*
G01*
X135680000Y-70400000D01*
G75*
G02*
X135730000Y-70450000I0J-50000D01*
G01*
X135730000Y-72550000D01*
G75*
G02*
X135680000Y-72600000I-50000J0D01*
G01*
X133580000Y-72600000D01*
G75*
G02*
X133530000Y-72550000I0J50000D01*
G01*
G37*
%TD*%
%TO.C,REF\u002A\u002A*%
G36*
G01*
X130990000Y-95410000D02*
X130990000Y-93310000D01*
G75*
G02*
X131040000Y-93260000I50000J0D01*
G01*
X133140000Y-93260000D01*
G75*
G02*
X133190000Y-93310000I0J-50000D01*
G01*
X133190000Y-95410000D01*
G75*
G02*
X133140000Y-95460000I-50000J0D01*
G01*
X131040000Y-95460000D01*
G75*
G02*
X130990000Y-95410000I0J50000D01*
G01*
G37*
%TD*%
%TO.C,REF\u002A\u002A*%
G36*
G01*
X133530000Y-95410000D02*
X133530000Y-93310000D01*
G75*
G02*
X133580000Y-93260000I50000J0D01*
G01*
X135680000Y-93260000D01*
G75*
G02*
X135730000Y-93310000I0J-50000D01*
G01*
X135730000Y-95410000D01*
G75*
G02*
X135680000Y-95460000I-50000J0D01*
G01*
X133580000Y-95460000D01*
G75*
G02*
X133530000Y-95410000I0J50000D01*
G01*
G37*
%TD*%
%TO.C,REF\u002A\u002A*%
G36*
G01*
X133530000Y-77630000D02*
X133530000Y-75530000D01*
G75*
G02*
X133580000Y-75480000I50000J0D01*
G01*
X135680000Y-75480000D01*
G75*
G02*
X135730000Y-75530000I0J-50000D01*
G01*
X135730000Y-77630000D01*
G75*
G02*
X135680000Y-77680000I-50000J0D01*
G01*
X133580000Y-77680000D01*
G75*
G02*
X133530000Y-77630000I0J50000D01*
G01*
G37*
%TD*%
%TO.C,REF\u002A\u002A*%
G36*
G01*
X130990000Y-87790000D02*
X130990000Y-85690000D01*
G75*
G02*
X131040000Y-85640000I50000J0D01*
G01*
X133140000Y-85640000D01*
G75*
G02*
X133190000Y-85690000I0J-50000D01*
G01*
X133190000Y-87790000D01*
G75*
G02*
X133140000Y-87840000I-50000J0D01*
G01*
X131040000Y-87840000D01*
G75*
G02*
X130990000Y-87790000I0J50000D01*
G01*
G37*
%TD*%
%TO.C,REF\u002A\u002A*%
G36*
G01*
X133530000Y-80170000D02*
X133530000Y-78070000D01*
G75*
G02*
X133580000Y-78020000I50000J0D01*
G01*
X135680000Y-78020000D01*
G75*
G02*
X135730000Y-78070000I0J-50000D01*
G01*
X135730000Y-80170000D01*
G75*
G02*
X135680000Y-80220000I-50000J0D01*
G01*
X133580000Y-80220000D01*
G75*
G02*
X133530000Y-80170000I0J50000D01*
G01*
G37*
%TD*%
%TO.C,REF\u002A\u002A*%
G36*
G01*
X130990000Y-85250000D02*
X130990000Y-83150000D01*
G75*
G02*
X131040000Y-83100000I50000J0D01*
G01*
X133140000Y-83100000D01*
G75*
G02*
X133190000Y-83150000I0J-50000D01*
G01*
X133190000Y-85250000D01*
G75*
G02*
X133140000Y-85300000I-50000J0D01*
G01*
X131040000Y-85300000D01*
G75*
G02*
X130990000Y-85250000I0J50000D01*
G01*
G37*
%TD*%
%TO.C,REF\u002A\u002A*%
G36*
G01*
X133530000Y-97950000D02*
X133530000Y-95850000D01*
G75*
G02*
X133580000Y-95800000I50000J0D01*
G01*
X135680000Y-95800000D01*
G75*
G02*
X135730000Y-95850000I0J-50000D01*
G01*
X135730000Y-97950000D01*
G75*
G02*
X135680000Y-98000000I-50000J0D01*
G01*
X133580000Y-98000000D01*
G75*
G02*
X133530000Y-97950000I0J50000D01*
G01*
G37*
%TD*%
%TO.C,REF\u002A\u002A*%
G36*
G01*
X133530000Y-75090000D02*
X133530000Y-72990000D01*
G75*
G02*
X133580000Y-72940000I50000J0D01*
G01*
X135680000Y-72940000D01*
G75*
G02*
X135730000Y-72990000I0J-50000D01*
G01*
X135730000Y-75090000D01*
G75*
G02*
X135680000Y-75140000I-50000J0D01*
G01*
X133580000Y-75140000D01*
G75*
G02*
X133530000Y-75090000I0J50000D01*
G01*
G37*
%TD*%
%TO.C,REF\u002A\u002A*%
G36*
G01*
X133530000Y-100490000D02*
X133530000Y-98390000D01*
G75*
G02*
X133580000Y-98340000I50000J0D01*
G01*
X135680000Y-98340000D01*
G75*
G02*
X135730000Y-98390000I0J-50000D01*
G01*
X135730000Y-100490000D01*
G75*
G02*
X135680000Y-100540000I-50000J0D01*
G01*
X133580000Y-100540000D01*
G75*
G02*
X133530000Y-100490000I0J50000D01*
G01*
G37*
%TD*%
%TO.C,REF\u002A\u002A*%
G36*
G01*
X128450000Y-100490000D02*
X128450000Y-98390000D01*
G75*
G02*
X128500000Y-98340000I50000J0D01*
G01*
X130600000Y-98340000D01*
G75*
G02*
X130650000Y-98390000I0J-50000D01*
G01*
X130650000Y-100490000D01*
G75*
G02*
X130600000Y-100540000I-50000J0D01*
G01*
X128500000Y-100540000D01*
G75*
G02*
X128450000Y-100490000I0J50000D01*
G01*
G37*
%TD*%
%TO.C,REF\u002A\u002A*%
G36*
G01*
X125910000Y-77630000D02*
X125910000Y-75530000D01*
G75*
G02*
X125960000Y-75480000I50000J0D01*
G01*
X128060000Y-75480000D01*
G75*
G02*
X128110000Y-75530000I0J-50000D01*
G01*
X128110000Y-77630000D01*
G75*
G02*
X128060000Y-77680000I-50000J0D01*
G01*
X125960000Y-77680000D01*
G75*
G02*
X125910000Y-77630000I0J50000D01*
G01*
G37*
%TD*%
%TO.C,REF\u002A\u002A*%
G36*
G01*
X128450000Y-92870000D02*
X128450000Y-90770000D01*
G75*
G02*
X128500000Y-90720000I50000J0D01*
G01*
X130600000Y-90720000D01*
G75*
G02*
X130650000Y-90770000I0J-50000D01*
G01*
X130650000Y-92870000D01*
G75*
G02*
X130600000Y-92920000I-50000J0D01*
G01*
X128500000Y-92920000D01*
G75*
G02*
X128450000Y-92870000I0J50000D01*
G01*
G37*
%TD*%
%TO.C,REF\u002A\u002A*%
G36*
G01*
X125910000Y-72550000D02*
X125910000Y-70450000D01*
G75*
G02*
X125960000Y-70400000I50000J0D01*
G01*
X128060000Y-70400000D01*
G75*
G02*
X128110000Y-70450000I0J-50000D01*
G01*
X128110000Y-72550000D01*
G75*
G02*
X128060000Y-72600000I-50000J0D01*
G01*
X125960000Y-72600000D01*
G75*
G02*
X125910000Y-72550000I0J50000D01*
G01*
G37*
%TD*%
%TO.C,REF\u002A\u002A*%
G36*
G01*
X125910000Y-80170000D02*
X125910000Y-78070000D01*
G75*
G02*
X125960000Y-78020000I50000J0D01*
G01*
X128060000Y-78020000D01*
G75*
G02*
X128110000Y-78070000I0J-50000D01*
G01*
X128110000Y-80170000D01*
G75*
G02*
X128060000Y-80220000I-50000J0D01*
G01*
X125960000Y-80220000D01*
G75*
G02*
X125910000Y-80170000I0J50000D01*
G01*
G37*
%TD*%
%TO.C,REF\u002A\u002A*%
G36*
G01*
X128450000Y-87790000D02*
X128450000Y-85690000D01*
G75*
G02*
X128500000Y-85640000I50000J0D01*
G01*
X130600000Y-85640000D01*
G75*
G02*
X130650000Y-85690000I0J-50000D01*
G01*
X130650000Y-87790000D01*
G75*
G02*
X130600000Y-87840000I-50000J0D01*
G01*
X128500000Y-87840000D01*
G75*
G02*
X128450000Y-87790000I0J50000D01*
G01*
G37*
%TD*%
%TO.C,REF\u002A\u002A*%
G36*
G01*
X125910000Y-97950000D02*
X125910000Y-95850000D01*
G75*
G02*
X125960000Y-95800000I50000J0D01*
G01*
X128060000Y-95800000D01*
G75*
G02*
X128110000Y-95850000I0J-50000D01*
G01*
X128110000Y-97950000D01*
G75*
G02*
X128060000Y-98000000I-50000J0D01*
G01*
X125960000Y-98000000D01*
G75*
G02*
X125910000Y-97950000I0J50000D01*
G01*
G37*
%TD*%
%TO.C,REF\u002A\u002A*%
G36*
G01*
X128450000Y-85250000D02*
X128450000Y-83150000D01*
G75*
G02*
X128500000Y-83100000I50000J0D01*
G01*
X130600000Y-83100000D01*
G75*
G02*
X130650000Y-83150000I0J-50000D01*
G01*
X130650000Y-85250000D01*
G75*
G02*
X130600000Y-85300000I-50000J0D01*
G01*
X128500000Y-85300000D01*
G75*
G02*
X128450000Y-85250000I0J50000D01*
G01*
G37*
%TD*%
%TO.C,REF\u002A\u002A*%
G36*
G01*
X125910000Y-90330000D02*
X125910000Y-88230000D01*
G75*
G02*
X125960000Y-88180000I50000J0D01*
G01*
X128060000Y-88180000D01*
G75*
G02*
X128110000Y-88230000I0J-50000D01*
G01*
X128110000Y-90330000D01*
G75*
G02*
X128060000Y-90380000I-50000J0D01*
G01*
X125960000Y-90380000D01*
G75*
G02*
X125910000Y-90330000I0J50000D01*
G01*
G37*
%TD*%
%TO.C,REF\u002A\u002A*%
G36*
G01*
X125910000Y-82710000D02*
X125910000Y-80610000D01*
G75*
G02*
X125960000Y-80560000I50000J0D01*
G01*
X128060000Y-80560000D01*
G75*
G02*
X128110000Y-80610000I0J-50000D01*
G01*
X128110000Y-82710000D01*
G75*
G02*
X128060000Y-82760000I-50000J0D01*
G01*
X125960000Y-82760000D01*
G75*
G02*
X125910000Y-82710000I0J50000D01*
G01*
G37*
%TD*%
%TO.C,REF\u002A\u002A*%
G36*
G01*
X125910000Y-92870000D02*
X125910000Y-90770000D01*
G75*
G02*
X125960000Y-90720000I50000J0D01*
G01*
X128060000Y-90720000D01*
G75*
G02*
X128110000Y-90770000I0J-50000D01*
G01*
X128110000Y-92870000D01*
G75*
G02*
X128060000Y-92920000I-50000J0D01*
G01*
X125960000Y-92920000D01*
G75*
G02*
X125910000Y-92870000I0J50000D01*
G01*
G37*
%TD*%
%TO.C,REF\u002A\u002A*%
G36*
G01*
X125910000Y-75090000D02*
X125910000Y-72990000D01*
G75*
G02*
X125960000Y-72940000I50000J0D01*
G01*
X128060000Y-72940000D01*
G75*
G02*
X128110000Y-72990000I0J-50000D01*
G01*
X128110000Y-75090000D01*
G75*
G02*
X128060000Y-75140000I-50000J0D01*
G01*
X125960000Y-75140000D01*
G75*
G02*
X125910000Y-75090000I0J50000D01*
G01*
G37*
%TD*%
%TO.C,REF\u002A\u002A*%
G36*
G01*
X128450000Y-82710000D02*
X128450000Y-80610000D01*
G75*
G02*
X128500000Y-80560000I50000J0D01*
G01*
X130600000Y-80560000D01*
G75*
G02*
X130650000Y-80610000I0J-50000D01*
G01*
X130650000Y-82710000D01*
G75*
G02*
X130600000Y-82760000I-50000J0D01*
G01*
X128500000Y-82760000D01*
G75*
G02*
X128450000Y-82710000I0J50000D01*
G01*
G37*
%TD*%
%TO.C,REF\u002A\u002A*%
G36*
G01*
X128450000Y-90330000D02*
X128450000Y-88230000D01*
G75*
G02*
X128500000Y-88180000I50000J0D01*
G01*
X130600000Y-88180000D01*
G75*
G02*
X130650000Y-88230000I0J-50000D01*
G01*
X130650000Y-90330000D01*
G75*
G02*
X130600000Y-90380000I-50000J0D01*
G01*
X128500000Y-90380000D01*
G75*
G02*
X128450000Y-90330000I0J50000D01*
G01*
G37*
%TD*%
%TO.C,REF\u002A\u002A*%
G36*
G01*
X125910000Y-100490000D02*
X125910000Y-98390000D01*
G75*
G02*
X125960000Y-98340000I50000J0D01*
G01*
X128060000Y-98340000D01*
G75*
G02*
X128110000Y-98390000I0J-50000D01*
G01*
X128110000Y-100490000D01*
G75*
G02*
X128060000Y-100540000I-50000J0D01*
G01*
X125960000Y-100540000D01*
G75*
G02*
X125910000Y-100490000I0J50000D01*
G01*
G37*
%TD*%
%TO.C,REF\u002A\u002A*%
G36*
G01*
X128450000Y-72550000D02*
X128450000Y-70450000D01*
G75*
G02*
X128500000Y-70400000I50000J0D01*
G01*
X130600000Y-70400000D01*
G75*
G02*
X130650000Y-70450000I0J-50000D01*
G01*
X130650000Y-72550000D01*
G75*
G02*
X130600000Y-72600000I-50000J0D01*
G01*
X128500000Y-72600000D01*
G75*
G02*
X128450000Y-72550000I0J50000D01*
G01*
G37*
%TD*%
%TO.C,REF\u002A\u002A*%
G36*
G01*
X125910000Y-95410000D02*
X125910000Y-93310000D01*
G75*
G02*
X125960000Y-93260000I50000J0D01*
G01*
X128060000Y-93260000D01*
G75*
G02*
X128110000Y-93310000I0J-50000D01*
G01*
X128110000Y-95410000D01*
G75*
G02*
X128060000Y-95460000I-50000J0D01*
G01*
X125960000Y-95460000D01*
G75*
G02*
X125910000Y-95410000I0J50000D01*
G01*
G37*
%TD*%
%TO.C,REF\u002A\u002A*%
G36*
G01*
X128450000Y-95410000D02*
X128450000Y-93310000D01*
G75*
G02*
X128500000Y-93260000I50000J0D01*
G01*
X130600000Y-93260000D01*
G75*
G02*
X130650000Y-93310000I0J-50000D01*
G01*
X130650000Y-95410000D01*
G75*
G02*
X130600000Y-95460000I-50000J0D01*
G01*
X128500000Y-95460000D01*
G75*
G02*
X128450000Y-95410000I0J50000D01*
G01*
G37*
%TD*%
%TO.C,REF\u002A\u002A*%
G36*
G01*
X128450000Y-77630000D02*
X128450000Y-75530000D01*
G75*
G02*
X128500000Y-75480000I50000J0D01*
G01*
X130600000Y-75480000D01*
G75*
G02*
X130650000Y-75530000I0J-50000D01*
G01*
X130650000Y-77630000D01*
G75*
G02*
X130600000Y-77680000I-50000J0D01*
G01*
X128500000Y-77680000D01*
G75*
G02*
X128450000Y-77630000I0J50000D01*
G01*
G37*
%TD*%
%TO.C,REF\u002A\u002A*%
G36*
G01*
X125910000Y-87790000D02*
X125910000Y-85690000D01*
G75*
G02*
X125960000Y-85640000I50000J0D01*
G01*
X128060000Y-85640000D01*
G75*
G02*
X128110000Y-85690000I0J-50000D01*
G01*
X128110000Y-87790000D01*
G75*
G02*
X128060000Y-87840000I-50000J0D01*
G01*
X125960000Y-87840000D01*
G75*
G02*
X125910000Y-87790000I0J50000D01*
G01*
G37*
%TD*%
%TO.C,REF\u002A\u002A*%
G36*
G01*
X128450000Y-80170000D02*
X128450000Y-78070000D01*
G75*
G02*
X128500000Y-78020000I50000J0D01*
G01*
X130600000Y-78020000D01*
G75*
G02*
X130650000Y-78070000I0J-50000D01*
G01*
X130650000Y-80170000D01*
G75*
G02*
X130600000Y-80220000I-50000J0D01*
G01*
X128500000Y-80220000D01*
G75*
G02*
X128450000Y-80170000I0J50000D01*
G01*
G37*
%TD*%
%TO.C,REF\u002A\u002A*%
G36*
G01*
X125910000Y-85250000D02*
X125910000Y-83150000D01*
G75*
G02*
X125960000Y-83100000I50000J0D01*
G01*
X128060000Y-83100000D01*
G75*
G02*
X128110000Y-83150000I0J-50000D01*
G01*
X128110000Y-85250000D01*
G75*
G02*
X128060000Y-85300000I-50000J0D01*
G01*
X125960000Y-85300000D01*
G75*
G02*
X125910000Y-85250000I0J50000D01*
G01*
G37*
%TD*%
%TO.C,REF\u002A\u002A*%
G36*
G01*
X128450000Y-97950000D02*
X128450000Y-95850000D01*
G75*
G02*
X128500000Y-95800000I50000J0D01*
G01*
X130600000Y-95800000D01*
G75*
G02*
X130650000Y-95850000I0J-50000D01*
G01*
X130650000Y-97950000D01*
G75*
G02*
X130600000Y-98000000I-50000J0D01*
G01*
X128500000Y-98000000D01*
G75*
G02*
X128450000Y-97950000I0J50000D01*
G01*
G37*
%TD*%
%TO.C,REF\u002A\u002A*%
G36*
G01*
X128450000Y-75090000D02*
X128450000Y-72990000D01*
G75*
G02*
X128500000Y-72940000I50000J0D01*
G01*
X130600000Y-72940000D01*
G75*
G02*
X130650000Y-72990000I0J-50000D01*
G01*
X130650000Y-75090000D01*
G75*
G02*
X130600000Y-75140000I-50000J0D01*
G01*
X128500000Y-75140000D01*
G75*
G02*
X128450000Y-75090000I0J50000D01*
G01*
G37*
%TD*%
%TO.C,REF\u002A\u002A*%
G36*
G01*
X120830000Y-92870000D02*
X120830000Y-90770000D01*
G75*
G02*
X120880000Y-90720000I50000J0D01*
G01*
X122980000Y-90720000D01*
G75*
G02*
X123030000Y-90770000I0J-50000D01*
G01*
X123030000Y-92870000D01*
G75*
G02*
X122980000Y-92920000I-50000J0D01*
G01*
X120880000Y-92920000D01*
G75*
G02*
X120830000Y-92870000I0J50000D01*
G01*
G37*
%TD*%
%TO.C,REF\u002A\u002A*%
G36*
G01*
X123370000Y-90330000D02*
X123370000Y-88230000D01*
G75*
G02*
X123420000Y-88180000I50000J0D01*
G01*
X125520000Y-88180000D01*
G75*
G02*
X125570000Y-88230000I0J-50000D01*
G01*
X125570000Y-90330000D01*
G75*
G02*
X125520000Y-90380000I-50000J0D01*
G01*
X123420000Y-90380000D01*
G75*
G02*
X123370000Y-90330000I0J50000D01*
G01*
G37*
%TD*%
%TO.C,REF\u002A\u002A*%
G36*
G01*
X120830000Y-85250000D02*
X120830000Y-83150000D01*
G75*
G02*
X120880000Y-83100000I50000J0D01*
G01*
X122980000Y-83100000D01*
G75*
G02*
X123030000Y-83150000I0J-50000D01*
G01*
X123030000Y-85250000D01*
G75*
G02*
X122980000Y-85300000I-50000J0D01*
G01*
X120880000Y-85300000D01*
G75*
G02*
X120830000Y-85250000I0J50000D01*
G01*
G37*
%TD*%
%TO.C,REF\u002A\u002A*%
G36*
G01*
X123370000Y-82710000D02*
X123370000Y-80610000D01*
G75*
G02*
X123420000Y-80560000I50000J0D01*
G01*
X125520000Y-80560000D01*
G75*
G02*
X125570000Y-80610000I0J-50000D01*
G01*
X125570000Y-82710000D01*
G75*
G02*
X125520000Y-82760000I-50000J0D01*
G01*
X123420000Y-82760000D01*
G75*
G02*
X123370000Y-82710000I0J50000D01*
G01*
G37*
%TD*%
%TO.C,REF\u002A\u002A*%
G36*
G01*
X123370000Y-77630000D02*
X123370000Y-75530000D01*
G75*
G02*
X123420000Y-75480000I50000J0D01*
G01*
X125520000Y-75480000D01*
G75*
G02*
X125570000Y-75530000I0J-50000D01*
G01*
X125570000Y-77630000D01*
G75*
G02*
X125520000Y-77680000I-50000J0D01*
G01*
X123420000Y-77680000D01*
G75*
G02*
X123370000Y-77630000I0J50000D01*
G01*
G37*
%TD*%
%TO.C,REF\u002A\u002A*%
G36*
G01*
X120830000Y-87790000D02*
X120830000Y-85690000D01*
G75*
G02*
X120880000Y-85640000I50000J0D01*
G01*
X122980000Y-85640000D01*
G75*
G02*
X123030000Y-85690000I0J-50000D01*
G01*
X123030000Y-87790000D01*
G75*
G02*
X122980000Y-87840000I-50000J0D01*
G01*
X120880000Y-87840000D01*
G75*
G02*
X120830000Y-87790000I0J50000D01*
G01*
G37*
%TD*%
%TO.C,REF\u002A\u002A*%
G36*
G01*
X120830000Y-82710000D02*
X120830000Y-80610000D01*
G75*
G02*
X120880000Y-80560000I50000J0D01*
G01*
X122980000Y-80560000D01*
G75*
G02*
X123030000Y-80610000I0J-50000D01*
G01*
X123030000Y-82710000D01*
G75*
G02*
X122980000Y-82760000I-50000J0D01*
G01*
X120880000Y-82760000D01*
G75*
G02*
X120830000Y-82710000I0J50000D01*
G01*
G37*
%TD*%
%TO.C,REF\u002A\u002A*%
G36*
G01*
X120830000Y-75090000D02*
X120830000Y-72990000D01*
G75*
G02*
X120880000Y-72940000I50000J0D01*
G01*
X122980000Y-72940000D01*
G75*
G02*
X123030000Y-72990000I0J-50000D01*
G01*
X123030000Y-75090000D01*
G75*
G02*
X122980000Y-75140000I-50000J0D01*
G01*
X120880000Y-75140000D01*
G75*
G02*
X120830000Y-75090000I0J50000D01*
G01*
G37*
%TD*%
%TO.C,REF\u002A\u002A*%
G36*
G01*
X120830000Y-90330000D02*
X120830000Y-88230000D01*
G75*
G02*
X120880000Y-88180000I50000J0D01*
G01*
X122980000Y-88180000D01*
G75*
G02*
X123030000Y-88230000I0J-50000D01*
G01*
X123030000Y-90330000D01*
G75*
G02*
X122980000Y-90380000I-50000J0D01*
G01*
X120880000Y-90380000D01*
G75*
G02*
X120830000Y-90330000I0J50000D01*
G01*
G37*
%TD*%
%TO.C,REF\u002A\u002A*%
G36*
G01*
X123370000Y-85250000D02*
X123370000Y-83150000D01*
G75*
G02*
X123420000Y-83100000I50000J0D01*
G01*
X125520000Y-83100000D01*
G75*
G02*
X125570000Y-83150000I0J-50000D01*
G01*
X125570000Y-85250000D01*
G75*
G02*
X125520000Y-85300000I-50000J0D01*
G01*
X123420000Y-85300000D01*
G75*
G02*
X123370000Y-85250000I0J50000D01*
G01*
G37*
%TD*%
%TO.C,REF\u002A\u002A*%
G36*
G01*
X120830000Y-95410000D02*
X120830000Y-93310000D01*
G75*
G02*
X120880000Y-93260000I50000J0D01*
G01*
X122980000Y-93260000D01*
G75*
G02*
X123030000Y-93310000I0J-50000D01*
G01*
X123030000Y-95410000D01*
G75*
G02*
X122980000Y-95460000I-50000J0D01*
G01*
X120880000Y-95460000D01*
G75*
G02*
X120830000Y-95410000I0J50000D01*
G01*
G37*
%TD*%
%TO.C,REF\u002A\u002A*%
G36*
G01*
X120830000Y-97950000D02*
X120830000Y-95850000D01*
G75*
G02*
X120880000Y-95800000I50000J0D01*
G01*
X122980000Y-95800000D01*
G75*
G02*
X123030000Y-95850000I0J-50000D01*
G01*
X123030000Y-97950000D01*
G75*
G02*
X122980000Y-98000000I-50000J0D01*
G01*
X120880000Y-98000000D01*
G75*
G02*
X120830000Y-97950000I0J50000D01*
G01*
G37*
%TD*%
%TO.C,REF\u002A\u002A*%
G36*
G01*
X123370000Y-92870000D02*
X123370000Y-90770000D01*
G75*
G02*
X123420000Y-90720000I50000J0D01*
G01*
X125520000Y-90720000D01*
G75*
G02*
X125570000Y-90770000I0J-50000D01*
G01*
X125570000Y-92870000D01*
G75*
G02*
X125520000Y-92920000I-50000J0D01*
G01*
X123420000Y-92920000D01*
G75*
G02*
X123370000Y-92870000I0J50000D01*
G01*
G37*
%TD*%
%TO.C,REF\u002A\u002A*%
G36*
G01*
X120830000Y-72550000D02*
X120830000Y-70450000D01*
G75*
G02*
X120880000Y-70400000I50000J0D01*
G01*
X122980000Y-70400000D01*
G75*
G02*
X123030000Y-70450000I0J-50000D01*
G01*
X123030000Y-72550000D01*
G75*
G02*
X122980000Y-72600000I-50000J0D01*
G01*
X120880000Y-72600000D01*
G75*
G02*
X120830000Y-72550000I0J50000D01*
G01*
G37*
%TD*%
%TO.C,REF\u002A\u002A*%
G36*
G01*
X123370000Y-95410000D02*
X123370000Y-93310000D01*
G75*
G02*
X123420000Y-93260000I50000J0D01*
G01*
X125520000Y-93260000D01*
G75*
G02*
X125570000Y-93310000I0J-50000D01*
G01*
X125570000Y-95410000D01*
G75*
G02*
X125520000Y-95460000I-50000J0D01*
G01*
X123420000Y-95460000D01*
G75*
G02*
X123370000Y-95410000I0J50000D01*
G01*
G37*
%TD*%
%TO.C,REF\u002A\u002A*%
G36*
G01*
X123370000Y-72550000D02*
X123370000Y-70450000D01*
G75*
G02*
X123420000Y-70400000I50000J0D01*
G01*
X125520000Y-70400000D01*
G75*
G02*
X125570000Y-70450000I0J-50000D01*
G01*
X125570000Y-72550000D01*
G75*
G02*
X125520000Y-72600000I-50000J0D01*
G01*
X123420000Y-72600000D01*
G75*
G02*
X123370000Y-72550000I0J50000D01*
G01*
G37*
%TD*%
%TO.C,REF\u002A\u002A*%
G36*
G01*
X120830000Y-100490000D02*
X120830000Y-98390000D01*
G75*
G02*
X120880000Y-98340000I50000J0D01*
G01*
X122980000Y-98340000D01*
G75*
G02*
X123030000Y-98390000I0J-50000D01*
G01*
X123030000Y-100490000D01*
G75*
G02*
X122980000Y-100540000I-50000J0D01*
G01*
X120880000Y-100540000D01*
G75*
G02*
X120830000Y-100490000I0J50000D01*
G01*
G37*
%TD*%
%TO.C,REF\u002A\u002A*%
G36*
G01*
X123370000Y-87790000D02*
X123370000Y-85690000D01*
G75*
G02*
X123420000Y-85640000I50000J0D01*
G01*
X125520000Y-85640000D01*
G75*
G02*
X125570000Y-85690000I0J-50000D01*
G01*
X125570000Y-87790000D01*
G75*
G02*
X125520000Y-87840000I-50000J0D01*
G01*
X123420000Y-87840000D01*
G75*
G02*
X123370000Y-87790000I0J50000D01*
G01*
G37*
%TD*%
%TO.C,REF\u002A\u002A*%
G36*
G01*
X120830000Y-80170000D02*
X120830000Y-78070000D01*
G75*
G02*
X120880000Y-78020000I50000J0D01*
G01*
X122980000Y-78020000D01*
G75*
G02*
X123030000Y-78070000I0J-50000D01*
G01*
X123030000Y-80170000D01*
G75*
G02*
X122980000Y-80220000I-50000J0D01*
G01*
X120880000Y-80220000D01*
G75*
G02*
X120830000Y-80170000I0J50000D01*
G01*
G37*
%TD*%
%TO.C,REF\u002A\u002A*%
G36*
G01*
X123370000Y-80170000D02*
X123370000Y-78070000D01*
G75*
G02*
X123420000Y-78020000I50000J0D01*
G01*
X125520000Y-78020000D01*
G75*
G02*
X125570000Y-78070000I0J-50000D01*
G01*
X125570000Y-80170000D01*
G75*
G02*
X125520000Y-80220000I-50000J0D01*
G01*
X123420000Y-80220000D01*
G75*
G02*
X123370000Y-80170000I0J50000D01*
G01*
G37*
%TD*%
%TO.C,REF\u002A\u002A*%
G36*
G01*
X123370000Y-97950000D02*
X123370000Y-95850000D01*
G75*
G02*
X123420000Y-95800000I50000J0D01*
G01*
X125520000Y-95800000D01*
G75*
G02*
X125570000Y-95850000I0J-50000D01*
G01*
X125570000Y-97950000D01*
G75*
G02*
X125520000Y-98000000I-50000J0D01*
G01*
X123420000Y-98000000D01*
G75*
G02*
X123370000Y-97950000I0J50000D01*
G01*
G37*
%TD*%
%TO.C,REF\u002A\u002A*%
G36*
G01*
X123370000Y-75090000D02*
X123370000Y-72990000D01*
G75*
G02*
X123420000Y-72940000I50000J0D01*
G01*
X125520000Y-72940000D01*
G75*
G02*
X125570000Y-72990000I0J-50000D01*
G01*
X125570000Y-75090000D01*
G75*
G02*
X125520000Y-75140000I-50000J0D01*
G01*
X123420000Y-75140000D01*
G75*
G02*
X123370000Y-75090000I0J50000D01*
G01*
G37*
%TD*%
%TO.C,REF\u002A\u002A*%
G36*
G01*
X123370000Y-100490000D02*
X123370000Y-98390000D01*
G75*
G02*
X123420000Y-98340000I50000J0D01*
G01*
X125520000Y-98340000D01*
G75*
G02*
X125570000Y-98390000I0J-50000D01*
G01*
X125570000Y-100490000D01*
G75*
G02*
X125520000Y-100540000I-50000J0D01*
G01*
X123420000Y-100540000D01*
G75*
G02*
X123370000Y-100490000I0J50000D01*
G01*
G37*
%TD*%
%TO.C,REF\u002A\u002A*%
G36*
G01*
X120830000Y-77630000D02*
X120830000Y-75530000D01*
G75*
G02*
X120880000Y-75480000I50000J0D01*
G01*
X122980000Y-75480000D01*
G75*
G02*
X123030000Y-75530000I0J-50000D01*
G01*
X123030000Y-77630000D01*
G75*
G02*
X122980000Y-77680000I-50000J0D01*
G01*
X120880000Y-77680000D01*
G75*
G02*
X120830000Y-77630000I0J50000D01*
G01*
G37*
%TD*%
%TO.C,REF\u002A\u002A*%
G36*
G01*
X115750000Y-97950000D02*
X115750000Y-95850000D01*
G75*
G02*
X115800000Y-95800000I50000J0D01*
G01*
X117900000Y-95800000D01*
G75*
G02*
X117950000Y-95850000I0J-50000D01*
G01*
X117950000Y-97950000D01*
G75*
G02*
X117900000Y-98000000I-50000J0D01*
G01*
X115800000Y-98000000D01*
G75*
G02*
X115750000Y-97950000I0J50000D01*
G01*
G37*
%TD*%
%TO.C,REF\u002A\u002A*%
G36*
G01*
X118290000Y-87790000D02*
X118290000Y-85690000D01*
G75*
G02*
X118340000Y-85640000I50000J0D01*
G01*
X120440000Y-85640000D01*
G75*
G02*
X120490000Y-85690000I0J-50000D01*
G01*
X120490000Y-87790000D01*
G75*
G02*
X120440000Y-87840000I-50000J0D01*
G01*
X118340000Y-87840000D01*
G75*
G02*
X118290000Y-87790000I0J50000D01*
G01*
G37*
%TD*%
%TO.C,REF\u002A\u002A*%
G36*
G01*
X115750000Y-95410000D02*
X115750000Y-93310000D01*
G75*
G02*
X115800000Y-93260000I50000J0D01*
G01*
X117900000Y-93260000D01*
G75*
G02*
X117950000Y-93310000I0J-50000D01*
G01*
X117950000Y-95410000D01*
G75*
G02*
X117900000Y-95460000I-50000J0D01*
G01*
X115800000Y-95460000D01*
G75*
G02*
X115750000Y-95410000I0J50000D01*
G01*
G37*
%TD*%
%TO.C,REF\u002A\u002A*%
G36*
G01*
X115750000Y-92870000D02*
X115750000Y-90770000D01*
G75*
G02*
X115800000Y-90720000I50000J0D01*
G01*
X117900000Y-90720000D01*
G75*
G02*
X117950000Y-90770000I0J-50000D01*
G01*
X117950000Y-92870000D01*
G75*
G02*
X117900000Y-92920000I-50000J0D01*
G01*
X115800000Y-92920000D01*
G75*
G02*
X115750000Y-92870000I0J50000D01*
G01*
G37*
%TD*%
%TO.C,REF\u002A\u002A*%
G36*
G01*
X118290000Y-90330000D02*
X118290000Y-88230000D01*
G75*
G02*
X118340000Y-88180000I50000J0D01*
G01*
X120440000Y-88180000D01*
G75*
G02*
X120490000Y-88230000I0J-50000D01*
G01*
X120490000Y-90330000D01*
G75*
G02*
X120440000Y-90380000I-50000J0D01*
G01*
X118340000Y-90380000D01*
G75*
G02*
X118290000Y-90330000I0J50000D01*
G01*
G37*
%TD*%
%TO.C,REF\u002A\u002A*%
G36*
G01*
X115750000Y-85250000D02*
X115750000Y-83150000D01*
G75*
G02*
X115800000Y-83100000I50000J0D01*
G01*
X117900000Y-83100000D01*
G75*
G02*
X117950000Y-83150000I0J-50000D01*
G01*
X117950000Y-85250000D01*
G75*
G02*
X117900000Y-85300000I-50000J0D01*
G01*
X115800000Y-85300000D01*
G75*
G02*
X115750000Y-85250000I0J50000D01*
G01*
G37*
%TD*%
%TO.C,REF\u002A\u002A*%
G36*
G01*
X118290000Y-82710000D02*
X118290000Y-80610000D01*
G75*
G02*
X118340000Y-80560000I50000J0D01*
G01*
X120440000Y-80560000D01*
G75*
G02*
X120490000Y-80610000I0J-50000D01*
G01*
X120490000Y-82710000D01*
G75*
G02*
X120440000Y-82760000I-50000J0D01*
G01*
X118340000Y-82760000D01*
G75*
G02*
X118290000Y-82710000I0J50000D01*
G01*
G37*
%TD*%
%TO.C,REF\u002A\u002A*%
G36*
G01*
X118290000Y-77630000D02*
X118290000Y-75530000D01*
G75*
G02*
X118340000Y-75480000I50000J0D01*
G01*
X120440000Y-75480000D01*
G75*
G02*
X120490000Y-75530000I0J-50000D01*
G01*
X120490000Y-77630000D01*
G75*
G02*
X120440000Y-77680000I-50000J0D01*
G01*
X118340000Y-77680000D01*
G75*
G02*
X118290000Y-77630000I0J50000D01*
G01*
G37*
%TD*%
%TO.C,REF\u002A\u002A*%
G36*
G01*
X115750000Y-82710000D02*
X115750000Y-80610000D01*
G75*
G02*
X115800000Y-80560000I50000J0D01*
G01*
X117900000Y-80560000D01*
G75*
G02*
X117950000Y-80610000I0J-50000D01*
G01*
X117950000Y-82710000D01*
G75*
G02*
X117900000Y-82760000I-50000J0D01*
G01*
X115800000Y-82760000D01*
G75*
G02*
X115750000Y-82710000I0J50000D01*
G01*
G37*
%TD*%
%TO.C,REF\u002A\u002A*%
G36*
G01*
X115750000Y-87790000D02*
X115750000Y-85690000D01*
G75*
G02*
X115800000Y-85640000I50000J0D01*
G01*
X117900000Y-85640000D01*
G75*
G02*
X117950000Y-85690000I0J-50000D01*
G01*
X117950000Y-87790000D01*
G75*
G02*
X117900000Y-87840000I-50000J0D01*
G01*
X115800000Y-87840000D01*
G75*
G02*
X115750000Y-87790000I0J50000D01*
G01*
G37*
%TD*%
%TO.C,REF\u002A\u002A*%
G36*
G01*
X118290000Y-85250000D02*
X118290000Y-83150000D01*
G75*
G02*
X118340000Y-83100000I50000J0D01*
G01*
X120440000Y-83100000D01*
G75*
G02*
X120490000Y-83150000I0J-50000D01*
G01*
X120490000Y-85250000D01*
G75*
G02*
X120440000Y-85300000I-50000J0D01*
G01*
X118340000Y-85300000D01*
G75*
G02*
X118290000Y-85250000I0J50000D01*
G01*
G37*
%TD*%
%TO.C,REF\u002A\u002A*%
G36*
G01*
X118290000Y-95410000D02*
X118290000Y-93310000D01*
G75*
G02*
X118340000Y-93260000I50000J0D01*
G01*
X120440000Y-93260000D01*
G75*
G02*
X120490000Y-93310000I0J-50000D01*
G01*
X120490000Y-95410000D01*
G75*
G02*
X120440000Y-95460000I-50000J0D01*
G01*
X118340000Y-95460000D01*
G75*
G02*
X118290000Y-95410000I0J50000D01*
G01*
G37*
%TD*%
%TO.C,REF\u002A\u002A*%
G36*
G01*
X115750000Y-100490000D02*
X115750000Y-98390000D01*
G75*
G02*
X115800000Y-98340000I50000J0D01*
G01*
X117900000Y-98340000D01*
G75*
G02*
X117950000Y-98390000I0J-50000D01*
G01*
X117950000Y-100490000D01*
G75*
G02*
X117900000Y-100540000I-50000J0D01*
G01*
X115800000Y-100540000D01*
G75*
G02*
X115750000Y-100490000I0J50000D01*
G01*
G37*
%TD*%
%TO.C,REF\u002A\u002A*%
G36*
G01*
X115750000Y-75090000D02*
X115750000Y-72990000D01*
G75*
G02*
X115800000Y-72940000I50000J0D01*
G01*
X117900000Y-72940000D01*
G75*
G02*
X117950000Y-72990000I0J-50000D01*
G01*
X117950000Y-75090000D01*
G75*
G02*
X117900000Y-75140000I-50000J0D01*
G01*
X115800000Y-75140000D01*
G75*
G02*
X115750000Y-75090000I0J50000D01*
G01*
G37*
%TD*%
%TO.C,REF\u002A\u002A*%
G36*
G01*
X115750000Y-90330000D02*
X115750000Y-88230000D01*
G75*
G02*
X115800000Y-88180000I50000J0D01*
G01*
X117900000Y-88180000D01*
G75*
G02*
X117950000Y-88230000I0J-50000D01*
G01*
X117950000Y-90330000D01*
G75*
G02*
X117900000Y-90380000I-50000J0D01*
G01*
X115800000Y-90380000D01*
G75*
G02*
X115750000Y-90330000I0J50000D01*
G01*
G37*
%TD*%
%TO.C,REF\u002A\u002A*%
G36*
G01*
X118290000Y-92870000D02*
X118290000Y-90770000D01*
G75*
G02*
X118340000Y-90720000I50000J0D01*
G01*
X120440000Y-90720000D01*
G75*
G02*
X120490000Y-90770000I0J-50000D01*
G01*
X120490000Y-92870000D01*
G75*
G02*
X120440000Y-92920000I-50000J0D01*
G01*
X118340000Y-92920000D01*
G75*
G02*
X118290000Y-92870000I0J50000D01*
G01*
G37*
%TD*%
%TO.C,REF\u002A\u002A*%
G36*
G01*
X115750000Y-72550000D02*
X115750000Y-70450000D01*
G75*
G02*
X115800000Y-70400000I50000J0D01*
G01*
X117900000Y-70400000D01*
G75*
G02*
X117950000Y-70450000I0J-50000D01*
G01*
X117950000Y-72550000D01*
G75*
G02*
X117900000Y-72600000I-50000J0D01*
G01*
X115800000Y-72600000D01*
G75*
G02*
X115750000Y-72550000I0J50000D01*
G01*
G37*
%TD*%
%TO.C,REF\u002A\u002A*%
G36*
G01*
X115750000Y-80170000D02*
X115750000Y-78070000D01*
G75*
G02*
X115800000Y-78020000I50000J0D01*
G01*
X117900000Y-78020000D01*
G75*
G02*
X117950000Y-78070000I0J-50000D01*
G01*
X117950000Y-80170000D01*
G75*
G02*
X117900000Y-80220000I-50000J0D01*
G01*
X115800000Y-80220000D01*
G75*
G02*
X115750000Y-80170000I0J50000D01*
G01*
G37*
%TD*%
%TO.C,REF\u002A\u002A*%
G36*
G01*
X118290000Y-80170000D02*
X118290000Y-78070000D01*
G75*
G02*
X118340000Y-78020000I50000J0D01*
G01*
X120440000Y-78020000D01*
G75*
G02*
X120490000Y-78070000I0J-50000D01*
G01*
X120490000Y-80170000D01*
G75*
G02*
X120440000Y-80220000I-50000J0D01*
G01*
X118340000Y-80220000D01*
G75*
G02*
X118290000Y-80170000I0J50000D01*
G01*
G37*
%TD*%
%TO.C,REF\u002A\u002A*%
G36*
G01*
X118290000Y-97950000D02*
X118290000Y-95850000D01*
G75*
G02*
X118340000Y-95800000I50000J0D01*
G01*
X120440000Y-95800000D01*
G75*
G02*
X120490000Y-95850000I0J-50000D01*
G01*
X120490000Y-97950000D01*
G75*
G02*
X120440000Y-98000000I-50000J0D01*
G01*
X118340000Y-98000000D01*
G75*
G02*
X118290000Y-97950000I0J50000D01*
G01*
G37*
%TD*%
%TO.C,REF\u002A\u002A*%
G36*
G01*
X118290000Y-75090000D02*
X118290000Y-72990000D01*
G75*
G02*
X118340000Y-72940000I50000J0D01*
G01*
X120440000Y-72940000D01*
G75*
G02*
X120490000Y-72990000I0J-50000D01*
G01*
X120490000Y-75090000D01*
G75*
G02*
X120440000Y-75140000I-50000J0D01*
G01*
X118340000Y-75140000D01*
G75*
G02*
X118290000Y-75090000I0J50000D01*
G01*
G37*
%TD*%
%TO.C,REF\u002A\u002A*%
G36*
G01*
X118290000Y-100490000D02*
X118290000Y-98390000D01*
G75*
G02*
X118340000Y-98340000I50000J0D01*
G01*
X120440000Y-98340000D01*
G75*
G02*
X120490000Y-98390000I0J-50000D01*
G01*
X120490000Y-100490000D01*
G75*
G02*
X120440000Y-100540000I-50000J0D01*
G01*
X118340000Y-100540000D01*
G75*
G02*
X118290000Y-100490000I0J50000D01*
G01*
G37*
%TD*%
%TO.C,REF\u002A\u002A*%
G36*
G01*
X115750000Y-77630000D02*
X115750000Y-75530000D01*
G75*
G02*
X115800000Y-75480000I50000J0D01*
G01*
X117900000Y-75480000D01*
G75*
G02*
X117950000Y-75530000I0J-50000D01*
G01*
X117950000Y-77630000D01*
G75*
G02*
X117900000Y-77680000I-50000J0D01*
G01*
X115800000Y-77680000D01*
G75*
G02*
X115750000Y-77630000I0J50000D01*
G01*
G37*
%TD*%
%TO.C,REF\u002A\u002A*%
G36*
G01*
X118290000Y-72550000D02*
X118290000Y-70450000D01*
G75*
G02*
X118340000Y-70400000I50000J0D01*
G01*
X120440000Y-70400000D01*
G75*
G02*
X120490000Y-70450000I0J-50000D01*
G01*
X120490000Y-72550000D01*
G75*
G02*
X120440000Y-72600000I-50000J0D01*
G01*
X118340000Y-72600000D01*
G75*
G02*
X118290000Y-72550000I0J50000D01*
G01*
G37*
%TD*%
%TO.C,REF\u002A\u002A*%
G36*
G01*
X113210000Y-85250000D02*
X113210000Y-83150000D01*
G75*
G02*
X113260000Y-83100000I50000J0D01*
G01*
X115360000Y-83100000D01*
G75*
G02*
X115410000Y-83150000I0J-50000D01*
G01*
X115410000Y-85250000D01*
G75*
G02*
X115360000Y-85300000I-50000J0D01*
G01*
X113260000Y-85300000D01*
G75*
G02*
X113210000Y-85250000I0J50000D01*
G01*
G37*
%TD*%
%TO.C,REF\u002A\u002A*%
G36*
G01*
X110670000Y-75090000D02*
X110670000Y-72990000D01*
G75*
G02*
X110720000Y-72940000I50000J0D01*
G01*
X112820000Y-72940000D01*
G75*
G02*
X112870000Y-72990000I0J-50000D01*
G01*
X112870000Y-75090000D01*
G75*
G02*
X112820000Y-75140000I-50000J0D01*
G01*
X110720000Y-75140000D01*
G75*
G02*
X110670000Y-75090000I0J50000D01*
G01*
G37*
%TD*%
%TO.C,REF\u002A\u002A*%
G36*
G01*
X113210000Y-80170000D02*
X113210000Y-78070000D01*
G75*
G02*
X113260000Y-78020000I50000J0D01*
G01*
X115360000Y-78020000D01*
G75*
G02*
X115410000Y-78070000I0J-50000D01*
G01*
X115410000Y-80170000D01*
G75*
G02*
X115360000Y-80220000I-50000J0D01*
G01*
X113260000Y-80220000D01*
G75*
G02*
X113210000Y-80170000I0J50000D01*
G01*
G37*
%TD*%
%TO.C,REF\u002A\u002A*%
G36*
G01*
X110670000Y-90330000D02*
X110670000Y-88230000D01*
G75*
G02*
X110720000Y-88180000I50000J0D01*
G01*
X112820000Y-88180000D01*
G75*
G02*
X112870000Y-88230000I0J-50000D01*
G01*
X112870000Y-90330000D01*
G75*
G02*
X112820000Y-90380000I-50000J0D01*
G01*
X110720000Y-90380000D01*
G75*
G02*
X110670000Y-90330000I0J50000D01*
G01*
G37*
%TD*%
%TO.C,REF\u002A\u002A*%
G36*
G01*
X110670000Y-97950000D02*
X110670000Y-95850000D01*
G75*
G02*
X110720000Y-95800000I50000J0D01*
G01*
X112820000Y-95800000D01*
G75*
G02*
X112870000Y-95850000I0J-50000D01*
G01*
X112870000Y-97950000D01*
G75*
G02*
X112820000Y-98000000I-50000J0D01*
G01*
X110720000Y-98000000D01*
G75*
G02*
X110670000Y-97950000I0J50000D01*
G01*
G37*
%TD*%
%TO.C,REF\u002A\u002A*%
G36*
G01*
X110670000Y-92870000D02*
X110670000Y-90770000D01*
G75*
G02*
X110720000Y-90720000I50000J0D01*
G01*
X112820000Y-90720000D01*
G75*
G02*
X112870000Y-90770000I0J-50000D01*
G01*
X112870000Y-92870000D01*
G75*
G02*
X112820000Y-92920000I-50000J0D01*
G01*
X110720000Y-92920000D01*
G75*
G02*
X110670000Y-92870000I0J50000D01*
G01*
G37*
%TD*%
%TO.C,REF\u002A\u002A*%
G36*
G01*
X113210000Y-90330000D02*
X113210000Y-88230000D01*
G75*
G02*
X113260000Y-88180000I50000J0D01*
G01*
X115360000Y-88180000D01*
G75*
G02*
X115410000Y-88230000I0J-50000D01*
G01*
X115410000Y-90330000D01*
G75*
G02*
X115360000Y-90380000I-50000J0D01*
G01*
X113260000Y-90380000D01*
G75*
G02*
X113210000Y-90330000I0J50000D01*
G01*
G37*
%TD*%
%TO.C,REF\u002A\u002A*%
G36*
G01*
X113210000Y-100490000D02*
X113210000Y-98390000D01*
G75*
G02*
X113260000Y-98340000I50000J0D01*
G01*
X115360000Y-98340000D01*
G75*
G02*
X115410000Y-98390000I0J-50000D01*
G01*
X115410000Y-100490000D01*
G75*
G02*
X115360000Y-100540000I-50000J0D01*
G01*
X113260000Y-100540000D01*
G75*
G02*
X113210000Y-100490000I0J50000D01*
G01*
G37*
%TD*%
%TO.C,REF\u002A\u002A*%
G36*
G01*
X110670000Y-85250000D02*
X110670000Y-83150000D01*
G75*
G02*
X110720000Y-83100000I50000J0D01*
G01*
X112820000Y-83100000D01*
G75*
G02*
X112870000Y-83150000I0J-50000D01*
G01*
X112870000Y-85250000D01*
G75*
G02*
X112820000Y-85300000I-50000J0D01*
G01*
X110720000Y-85300000D01*
G75*
G02*
X110670000Y-85250000I0J50000D01*
G01*
G37*
%TD*%
%TO.C,REF\u002A\u002A*%
G36*
G01*
X113210000Y-82710000D02*
X113210000Y-80610000D01*
G75*
G02*
X113260000Y-80560000I50000J0D01*
G01*
X115360000Y-80560000D01*
G75*
G02*
X115410000Y-80610000I0J-50000D01*
G01*
X115410000Y-82710000D01*
G75*
G02*
X115360000Y-82760000I-50000J0D01*
G01*
X113260000Y-82760000D01*
G75*
G02*
X113210000Y-82710000I0J50000D01*
G01*
G37*
%TD*%
%TO.C,REF\u002A\u002A*%
G36*
G01*
X113210000Y-77630000D02*
X113210000Y-75530000D01*
G75*
G02*
X113260000Y-75480000I50000J0D01*
G01*
X115360000Y-75480000D01*
G75*
G02*
X115410000Y-75530000I0J-50000D01*
G01*
X115410000Y-77630000D01*
G75*
G02*
X115360000Y-77680000I-50000J0D01*
G01*
X113260000Y-77680000D01*
G75*
G02*
X113210000Y-77630000I0J50000D01*
G01*
G37*
%TD*%
%TO.C,REF\u002A\u002A*%
G36*
G01*
X110670000Y-82710000D02*
X110670000Y-80610000D01*
G75*
G02*
X110720000Y-80560000I50000J0D01*
G01*
X112820000Y-80560000D01*
G75*
G02*
X112870000Y-80610000I0J-50000D01*
G01*
X112870000Y-82710000D01*
G75*
G02*
X112820000Y-82760000I-50000J0D01*
G01*
X110720000Y-82760000D01*
G75*
G02*
X110670000Y-82710000I0J50000D01*
G01*
G37*
%TD*%
%TO.C,REF\u002A\u002A*%
G36*
G01*
X110670000Y-87790000D02*
X110670000Y-85690000D01*
G75*
G02*
X110720000Y-85640000I50000J0D01*
G01*
X112820000Y-85640000D01*
G75*
G02*
X112870000Y-85690000I0J-50000D01*
G01*
X112870000Y-87790000D01*
G75*
G02*
X112820000Y-87840000I-50000J0D01*
G01*
X110720000Y-87840000D01*
G75*
G02*
X110670000Y-87790000I0J50000D01*
G01*
G37*
%TD*%
%TO.C,REF\u002A\u002A*%
G36*
G01*
X113210000Y-72550000D02*
X113210000Y-70450000D01*
G75*
G02*
X113260000Y-70400000I50000J0D01*
G01*
X115360000Y-70400000D01*
G75*
G02*
X115410000Y-70450000I0J-50000D01*
G01*
X115410000Y-72550000D01*
G75*
G02*
X115360000Y-72600000I-50000J0D01*
G01*
X113260000Y-72600000D01*
G75*
G02*
X113210000Y-72550000I0J50000D01*
G01*
G37*
%TD*%
%TO.C,REF\u002A\u002A*%
G36*
G01*
X110670000Y-77630000D02*
X110670000Y-75530000D01*
G75*
G02*
X110720000Y-75480000I50000J0D01*
G01*
X112820000Y-75480000D01*
G75*
G02*
X112870000Y-75530000I0J-50000D01*
G01*
X112870000Y-77630000D01*
G75*
G02*
X112820000Y-77680000I-50000J0D01*
G01*
X110720000Y-77680000D01*
G75*
G02*
X110670000Y-77630000I0J50000D01*
G01*
G37*
%TD*%
%TO.C,REF\u002A\u002A*%
G36*
G01*
X113210000Y-95410000D02*
X113210000Y-93310000D01*
G75*
G02*
X113260000Y-93260000I50000J0D01*
G01*
X115360000Y-93260000D01*
G75*
G02*
X115410000Y-93310000I0J-50000D01*
G01*
X115410000Y-95410000D01*
G75*
G02*
X115360000Y-95460000I-50000J0D01*
G01*
X113260000Y-95460000D01*
G75*
G02*
X113210000Y-95410000I0J50000D01*
G01*
G37*
%TD*%
%TO.C,REF\u002A\u002A*%
G36*
G01*
X110670000Y-100490000D02*
X110670000Y-98390000D01*
G75*
G02*
X110720000Y-98340000I50000J0D01*
G01*
X112820000Y-98340000D01*
G75*
G02*
X112870000Y-98390000I0J-50000D01*
G01*
X112870000Y-100490000D01*
G75*
G02*
X112820000Y-100540000I-50000J0D01*
G01*
X110720000Y-100540000D01*
G75*
G02*
X110670000Y-100490000I0J50000D01*
G01*
G37*
%TD*%
%TO.C,REF\u002A\u002A*%
G36*
G01*
X113210000Y-75090000D02*
X113210000Y-72990000D01*
G75*
G02*
X113260000Y-72940000I50000J0D01*
G01*
X115360000Y-72940000D01*
G75*
G02*
X115410000Y-72990000I0J-50000D01*
G01*
X115410000Y-75090000D01*
G75*
G02*
X115360000Y-75140000I-50000J0D01*
G01*
X113260000Y-75140000D01*
G75*
G02*
X113210000Y-75090000I0J50000D01*
G01*
G37*
%TD*%
%TO.C,REF\u002A\u002A*%
G36*
G01*
X110670000Y-95410000D02*
X110670000Y-93310000D01*
G75*
G02*
X110720000Y-93260000I50000J0D01*
G01*
X112820000Y-93260000D01*
G75*
G02*
X112870000Y-93310000I0J-50000D01*
G01*
X112870000Y-95410000D01*
G75*
G02*
X112820000Y-95460000I-50000J0D01*
G01*
X110720000Y-95460000D01*
G75*
G02*
X110670000Y-95410000I0J50000D01*
G01*
G37*
%TD*%
%TO.C,REF\u002A\u002A*%
G36*
G01*
X113210000Y-97950000D02*
X113210000Y-95850000D01*
G75*
G02*
X113260000Y-95800000I50000J0D01*
G01*
X115360000Y-95800000D01*
G75*
G02*
X115410000Y-95850000I0J-50000D01*
G01*
X115410000Y-97950000D01*
G75*
G02*
X115360000Y-98000000I-50000J0D01*
G01*
X113260000Y-98000000D01*
G75*
G02*
X113210000Y-97950000I0J50000D01*
G01*
G37*
%TD*%
%TO.C,REF\u002A\u002A*%
G36*
G01*
X113210000Y-92870000D02*
X113210000Y-90770000D01*
G75*
G02*
X113260000Y-90720000I50000J0D01*
G01*
X115360000Y-90720000D01*
G75*
G02*
X115410000Y-90770000I0J-50000D01*
G01*
X115410000Y-92870000D01*
G75*
G02*
X115360000Y-92920000I-50000J0D01*
G01*
X113260000Y-92920000D01*
G75*
G02*
X113210000Y-92870000I0J50000D01*
G01*
G37*
%TD*%
%TO.C,REF\u002A\u002A*%
G36*
G01*
X110670000Y-72550000D02*
X110670000Y-70450000D01*
G75*
G02*
X110720000Y-70400000I50000J0D01*
G01*
X112820000Y-70400000D01*
G75*
G02*
X112870000Y-70450000I0J-50000D01*
G01*
X112870000Y-72550000D01*
G75*
G02*
X112820000Y-72600000I-50000J0D01*
G01*
X110720000Y-72600000D01*
G75*
G02*
X110670000Y-72550000I0J50000D01*
G01*
G37*
%TD*%
%TO.C,REF\u002A\u002A*%
G36*
G01*
X110670000Y-80170000D02*
X110670000Y-78070000D01*
G75*
G02*
X110720000Y-78020000I50000J0D01*
G01*
X112820000Y-78020000D01*
G75*
G02*
X112870000Y-78070000I0J-50000D01*
G01*
X112870000Y-80170000D01*
G75*
G02*
X112820000Y-80220000I-50000J0D01*
G01*
X110720000Y-80220000D01*
G75*
G02*
X110670000Y-80170000I0J50000D01*
G01*
G37*
%TD*%
%TO.C,REF\u002A\u002A*%
G36*
G01*
X113210000Y-87790000D02*
X113210000Y-85690000D01*
G75*
G02*
X113260000Y-85640000I50000J0D01*
G01*
X115360000Y-85640000D01*
G75*
G02*
X115410000Y-85690000I0J-50000D01*
G01*
X115410000Y-87790000D01*
G75*
G02*
X115360000Y-87840000I-50000J0D01*
G01*
X113260000Y-87840000D01*
G75*
G02*
X113210000Y-87790000I0J50000D01*
G01*
G37*
%TD*%
%TO.C,REF\u002A\u002A*%
G36*
G01*
X108130000Y-80170000D02*
X108130000Y-78070000D01*
G75*
G02*
X108180000Y-78020000I50000J0D01*
G01*
X110280000Y-78020000D01*
G75*
G02*
X110330000Y-78070000I0J-50000D01*
G01*
X110330000Y-80170000D01*
G75*
G02*
X110280000Y-80220000I-50000J0D01*
G01*
X108180000Y-80220000D01*
G75*
G02*
X108130000Y-80170000I0J50000D01*
G01*
G37*
%TD*%
%TO.C,REF\u002A\u002A*%
G36*
G01*
X105590000Y-75090000D02*
X105590000Y-72990000D01*
G75*
G02*
X105640000Y-72940000I50000J0D01*
G01*
X107740000Y-72940000D01*
G75*
G02*
X107790000Y-72990000I0J-50000D01*
G01*
X107790000Y-75090000D01*
G75*
G02*
X107740000Y-75140000I-50000J0D01*
G01*
X105640000Y-75140000D01*
G75*
G02*
X105590000Y-75090000I0J50000D01*
G01*
G37*
%TD*%
%TO.C,REF\u002A\u002A*%
G36*
G01*
X108130000Y-85250000D02*
X108130000Y-83150000D01*
G75*
G02*
X108180000Y-83100000I50000J0D01*
G01*
X110280000Y-83100000D01*
G75*
G02*
X110330000Y-83150000I0J-50000D01*
G01*
X110330000Y-85250000D01*
G75*
G02*
X110280000Y-85300000I-50000J0D01*
G01*
X108180000Y-85300000D01*
G75*
G02*
X108130000Y-85250000I0J50000D01*
G01*
G37*
%TD*%
%TO.C,REF\u002A\u002A*%
G36*
G01*
X108130000Y-97950000D02*
X108130000Y-95850000D01*
G75*
G02*
X108180000Y-95800000I50000J0D01*
G01*
X110280000Y-95800000D01*
G75*
G02*
X110330000Y-95850000I0J-50000D01*
G01*
X110330000Y-97950000D01*
G75*
G02*
X110280000Y-98000000I-50000J0D01*
G01*
X108180000Y-98000000D01*
G75*
G02*
X108130000Y-97950000I0J50000D01*
G01*
G37*
%TD*%
%TO.C,REF\u002A\u002A*%
G36*
G01*
X108130000Y-95410000D02*
X108130000Y-93310000D01*
G75*
G02*
X108180000Y-93260000I50000J0D01*
G01*
X110280000Y-93260000D01*
G75*
G02*
X110330000Y-93310000I0J-50000D01*
G01*
X110330000Y-95410000D01*
G75*
G02*
X110280000Y-95460000I-50000J0D01*
G01*
X108180000Y-95460000D01*
G75*
G02*
X108130000Y-95410000I0J50000D01*
G01*
G37*
%TD*%
%TO.C,REF\u002A\u002A*%
G36*
G01*
X105590000Y-77630000D02*
X105590000Y-75530000D01*
G75*
G02*
X105640000Y-75480000I50000J0D01*
G01*
X107740000Y-75480000D01*
G75*
G02*
X107790000Y-75530000I0J-50000D01*
G01*
X107790000Y-77630000D01*
G75*
G02*
X107740000Y-77680000I-50000J0D01*
G01*
X105640000Y-77680000D01*
G75*
G02*
X105590000Y-77630000I0J50000D01*
G01*
G37*
%TD*%
%TO.C,REF\u002A\u002A*%
G36*
G01*
X108130000Y-75090000D02*
X108130000Y-72990000D01*
G75*
G02*
X108180000Y-72940000I50000J0D01*
G01*
X110280000Y-72940000D01*
G75*
G02*
X110330000Y-72990000I0J-50000D01*
G01*
X110330000Y-75090000D01*
G75*
G02*
X110280000Y-75140000I-50000J0D01*
G01*
X108180000Y-75140000D01*
G75*
G02*
X108130000Y-75090000I0J50000D01*
G01*
G37*
%TD*%
%TO.C,REF\u002A\u002A*%
G36*
G01*
X105590000Y-95410000D02*
X105590000Y-93310000D01*
G75*
G02*
X105640000Y-93260000I50000J0D01*
G01*
X107740000Y-93260000D01*
G75*
G02*
X107790000Y-93310000I0J-50000D01*
G01*
X107790000Y-95410000D01*
G75*
G02*
X107740000Y-95460000I-50000J0D01*
G01*
X105640000Y-95460000D01*
G75*
G02*
X105590000Y-95410000I0J50000D01*
G01*
G37*
%TD*%
%TO.C,REF\u002A\u002A*%
G36*
G01*
X108130000Y-87790000D02*
X108130000Y-85690000D01*
G75*
G02*
X108180000Y-85640000I50000J0D01*
G01*
X110280000Y-85640000D01*
G75*
G02*
X110330000Y-85690000I0J-50000D01*
G01*
X110330000Y-87790000D01*
G75*
G02*
X110280000Y-87840000I-50000J0D01*
G01*
X108180000Y-87840000D01*
G75*
G02*
X108130000Y-87790000I0J50000D01*
G01*
G37*
%TD*%
%TO.C,REF\u002A\u002A*%
G36*
G01*
X108130000Y-100490000D02*
X108130000Y-98390000D01*
G75*
G02*
X108180000Y-98340000I50000J0D01*
G01*
X110280000Y-98340000D01*
G75*
G02*
X110330000Y-98390000I0J-50000D01*
G01*
X110330000Y-100490000D01*
G75*
G02*
X110280000Y-100540000I-50000J0D01*
G01*
X108180000Y-100540000D01*
G75*
G02*
X108130000Y-100490000I0J50000D01*
G01*
G37*
%TD*%
%TO.C,REF\u002A\u002A*%
G36*
G01*
X105590000Y-90330000D02*
X105590000Y-88230000D01*
G75*
G02*
X105640000Y-88180000I50000J0D01*
G01*
X107740000Y-88180000D01*
G75*
G02*
X107790000Y-88230000I0J-50000D01*
G01*
X107790000Y-90330000D01*
G75*
G02*
X107740000Y-90380000I-50000J0D01*
G01*
X105640000Y-90380000D01*
G75*
G02*
X105590000Y-90330000I0J50000D01*
G01*
G37*
%TD*%
%TO.C,REF\u002A\u002A*%
G36*
G01*
X108130000Y-72550000D02*
X108130000Y-70450000D01*
G75*
G02*
X108180000Y-70400000I50000J0D01*
G01*
X110280000Y-70400000D01*
G75*
G02*
X110330000Y-70450000I0J-50000D01*
G01*
X110330000Y-72550000D01*
G75*
G02*
X110280000Y-72600000I-50000J0D01*
G01*
X108180000Y-72600000D01*
G75*
G02*
X108130000Y-72550000I0J50000D01*
G01*
G37*
%TD*%
%TO.C,REF\u002A\u002A*%
G36*
G01*
X105590000Y-80170000D02*
X105590000Y-78070000D01*
G75*
G02*
X105640000Y-78020000I50000J0D01*
G01*
X107740000Y-78020000D01*
G75*
G02*
X107790000Y-78070000I0J-50000D01*
G01*
X107790000Y-80170000D01*
G75*
G02*
X107740000Y-80220000I-50000J0D01*
G01*
X105640000Y-80220000D01*
G75*
G02*
X105590000Y-80170000I0J50000D01*
G01*
G37*
%TD*%
%TO.C,REF\u002A\u002A*%
G36*
G01*
X108130000Y-82710000D02*
X108130000Y-80610000D01*
G75*
G02*
X108180000Y-80560000I50000J0D01*
G01*
X110280000Y-80560000D01*
G75*
G02*
X110330000Y-80610000I0J-50000D01*
G01*
X110330000Y-82710000D01*
G75*
G02*
X110280000Y-82760000I-50000J0D01*
G01*
X108180000Y-82760000D01*
G75*
G02*
X108130000Y-82710000I0J50000D01*
G01*
G37*
%TD*%
%TO.C,REF\u002A\u002A*%
G36*
G01*
X105590000Y-85250000D02*
X105590000Y-83150000D01*
G75*
G02*
X105640000Y-83100000I50000J0D01*
G01*
X107740000Y-83100000D01*
G75*
G02*
X107790000Y-83150000I0J-50000D01*
G01*
X107790000Y-85250000D01*
G75*
G02*
X107740000Y-85300000I-50000J0D01*
G01*
X105640000Y-85300000D01*
G75*
G02*
X105590000Y-85250000I0J50000D01*
G01*
G37*
%TD*%
%TO.C,REF\u002A\u002A*%
G36*
G01*
X105590000Y-100490000D02*
X105590000Y-98390000D01*
G75*
G02*
X105640000Y-98340000I50000J0D01*
G01*
X107740000Y-98340000D01*
G75*
G02*
X107790000Y-98390000I0J-50000D01*
G01*
X107790000Y-100490000D01*
G75*
G02*
X107740000Y-100540000I-50000J0D01*
G01*
X105640000Y-100540000D01*
G75*
G02*
X105590000Y-100490000I0J50000D01*
G01*
G37*
%TD*%
%TO.C,REF\u002A\u002A*%
G36*
G01*
X105590000Y-97950000D02*
X105590000Y-95850000D01*
G75*
G02*
X105640000Y-95800000I50000J0D01*
G01*
X107740000Y-95800000D01*
G75*
G02*
X107790000Y-95850000I0J-50000D01*
G01*
X107790000Y-97950000D01*
G75*
G02*
X107740000Y-98000000I-50000J0D01*
G01*
X105640000Y-98000000D01*
G75*
G02*
X105590000Y-97950000I0J50000D01*
G01*
G37*
%TD*%
%TO.C,REF\u002A\u002A*%
G36*
G01*
X105590000Y-92870000D02*
X105590000Y-90770000D01*
G75*
G02*
X105640000Y-90720000I50000J0D01*
G01*
X107740000Y-90720000D01*
G75*
G02*
X107790000Y-90770000I0J-50000D01*
G01*
X107790000Y-92870000D01*
G75*
G02*
X107740000Y-92920000I-50000J0D01*
G01*
X105640000Y-92920000D01*
G75*
G02*
X105590000Y-92870000I0J50000D01*
G01*
G37*
%TD*%
%TO.C,REF\u002A\u002A*%
G36*
G01*
X108130000Y-77630000D02*
X108130000Y-75530000D01*
G75*
G02*
X108180000Y-75480000I50000J0D01*
G01*
X110280000Y-75480000D01*
G75*
G02*
X110330000Y-75530000I0J-50000D01*
G01*
X110330000Y-77630000D01*
G75*
G02*
X110280000Y-77680000I-50000J0D01*
G01*
X108180000Y-77680000D01*
G75*
G02*
X108130000Y-77630000I0J50000D01*
G01*
G37*
%TD*%
%TO.C,REF\u002A\u002A*%
G36*
G01*
X108130000Y-90330000D02*
X108130000Y-88230000D01*
G75*
G02*
X108180000Y-88180000I50000J0D01*
G01*
X110280000Y-88180000D01*
G75*
G02*
X110330000Y-88230000I0J-50000D01*
G01*
X110330000Y-90330000D01*
G75*
G02*
X110280000Y-90380000I-50000J0D01*
G01*
X108180000Y-90380000D01*
G75*
G02*
X108130000Y-90330000I0J50000D01*
G01*
G37*
%TD*%
%TO.C,REF\u002A\u002A*%
G36*
G01*
X108130000Y-92870000D02*
X108130000Y-90770000D01*
G75*
G02*
X108180000Y-90720000I50000J0D01*
G01*
X110280000Y-90720000D01*
G75*
G02*
X110330000Y-90770000I0J-50000D01*
G01*
X110330000Y-92870000D01*
G75*
G02*
X110280000Y-92920000I-50000J0D01*
G01*
X108180000Y-92920000D01*
G75*
G02*
X108130000Y-92870000I0J50000D01*
G01*
G37*
%TD*%
%TO.C,REF\u002A\u002A*%
G36*
G01*
X105590000Y-87790000D02*
X105590000Y-85690000D01*
G75*
G02*
X105640000Y-85640000I50000J0D01*
G01*
X107740000Y-85640000D01*
G75*
G02*
X107790000Y-85690000I0J-50000D01*
G01*
X107790000Y-87790000D01*
G75*
G02*
X107740000Y-87840000I-50000J0D01*
G01*
X105640000Y-87840000D01*
G75*
G02*
X105590000Y-87790000I0J50000D01*
G01*
G37*
%TD*%
%TO.C,REF\u002A\u002A*%
G36*
G01*
X105590000Y-82710000D02*
X105590000Y-80610000D01*
G75*
G02*
X105640000Y-80560000I50000J0D01*
G01*
X107740000Y-80560000D01*
G75*
G02*
X107790000Y-80610000I0J-50000D01*
G01*
X107790000Y-82710000D01*
G75*
G02*
X107740000Y-82760000I-50000J0D01*
G01*
X105640000Y-82760000D01*
G75*
G02*
X105590000Y-82710000I0J50000D01*
G01*
G37*
%TD*%
%TO.C,REF\u002A\u002A*%
G36*
G01*
X105590000Y-72550000D02*
X105590000Y-70450000D01*
G75*
G02*
X105640000Y-70400000I50000J0D01*
G01*
X107740000Y-70400000D01*
G75*
G02*
X107790000Y-70450000I0J-50000D01*
G01*
X107790000Y-72550000D01*
G75*
G02*
X107740000Y-72600000I-50000J0D01*
G01*
X105640000Y-72600000D01*
G75*
G02*
X105590000Y-72550000I0J50000D01*
G01*
G37*
%TD*%
%TO.C,REF\u002A\u002A*%
G36*
G01*
X100510000Y-100490000D02*
X100510000Y-98390000D01*
G75*
G02*
X100560000Y-98340000I50000J0D01*
G01*
X102660000Y-98340000D01*
G75*
G02*
X102710000Y-98390000I0J-50000D01*
G01*
X102710000Y-100490000D01*
G75*
G02*
X102660000Y-100540000I-50000J0D01*
G01*
X100560000Y-100540000D01*
G75*
G02*
X100510000Y-100490000I0J50000D01*
G01*
G37*
%TD*%
%TO.C,REF\u002A\u002A*%
G36*
G01*
X103050000Y-72550000D02*
X103050000Y-70450000D01*
G75*
G02*
X103100000Y-70400000I50000J0D01*
G01*
X105200000Y-70400000D01*
G75*
G02*
X105250000Y-70450000I0J-50000D01*
G01*
X105250000Y-72550000D01*
G75*
G02*
X105200000Y-72600000I-50000J0D01*
G01*
X103100000Y-72600000D01*
G75*
G02*
X103050000Y-72550000I0J50000D01*
G01*
G37*
%TD*%
%TO.C,REF\u002A\u002A*%
G36*
G01*
X100510000Y-80170000D02*
X100510000Y-78070000D01*
G75*
G02*
X100560000Y-78020000I50000J0D01*
G01*
X102660000Y-78020000D01*
G75*
G02*
X102710000Y-78070000I0J-50000D01*
G01*
X102710000Y-80170000D01*
G75*
G02*
X102660000Y-80220000I-50000J0D01*
G01*
X100560000Y-80220000D01*
G75*
G02*
X100510000Y-80170000I0J50000D01*
G01*
G37*
%TD*%
%TO.C,REF\u002A\u002A*%
G36*
G01*
X103050000Y-82710000D02*
X103050000Y-80610000D01*
G75*
G02*
X103100000Y-80560000I50000J0D01*
G01*
X105200000Y-80560000D01*
G75*
G02*
X105250000Y-80610000I0J-50000D01*
G01*
X105250000Y-82710000D01*
G75*
G02*
X105200000Y-82760000I-50000J0D01*
G01*
X103100000Y-82760000D01*
G75*
G02*
X103050000Y-82710000I0J50000D01*
G01*
G37*
%TD*%
%TO.C,REF\u002A\u002A*%
G36*
G01*
X100510000Y-85250000D02*
X100510000Y-83150000D01*
G75*
G02*
X100560000Y-83100000I50000J0D01*
G01*
X102660000Y-83100000D01*
G75*
G02*
X102710000Y-83150000I0J-50000D01*
G01*
X102710000Y-85250000D01*
G75*
G02*
X102660000Y-85300000I-50000J0D01*
G01*
X100560000Y-85300000D01*
G75*
G02*
X100510000Y-85250000I0J50000D01*
G01*
G37*
%TD*%
%TO.C,REF\u002A\u002A*%
G36*
G01*
X103050000Y-100490000D02*
X103050000Y-98390000D01*
G75*
G02*
X103100000Y-98340000I50000J0D01*
G01*
X105200000Y-98340000D01*
G75*
G02*
X105250000Y-98390000I0J-50000D01*
G01*
X105250000Y-100490000D01*
G75*
G02*
X105200000Y-100540000I-50000J0D01*
G01*
X103100000Y-100540000D01*
G75*
G02*
X103050000Y-100490000I0J50000D01*
G01*
G37*
%TD*%
%TO.C,REF\u002A\u002A*%
G36*
G01*
X100510000Y-90330000D02*
X100510000Y-88230000D01*
G75*
G02*
X100560000Y-88180000I50000J0D01*
G01*
X102660000Y-88180000D01*
G75*
G02*
X102710000Y-88230000I0J-50000D01*
G01*
X102710000Y-90330000D01*
G75*
G02*
X102660000Y-90380000I-50000J0D01*
G01*
X100560000Y-90380000D01*
G75*
G02*
X100510000Y-90330000I0J50000D01*
G01*
G37*
%TD*%
%TO.C,REF\u002A\u002A*%
G36*
G01*
X103050000Y-87790000D02*
X103050000Y-85690000D01*
G75*
G02*
X103100000Y-85640000I50000J0D01*
G01*
X105200000Y-85640000D01*
G75*
G02*
X105250000Y-85690000I0J-50000D01*
G01*
X105250000Y-87790000D01*
G75*
G02*
X105200000Y-87840000I-50000J0D01*
G01*
X103100000Y-87840000D01*
G75*
G02*
X103050000Y-87790000I0J50000D01*
G01*
G37*
%TD*%
%TO.C,REF\u002A\u002A*%
G36*
G01*
X103050000Y-77630000D02*
X103050000Y-75530000D01*
G75*
G02*
X103100000Y-75480000I50000J0D01*
G01*
X105200000Y-75480000D01*
G75*
G02*
X105250000Y-75530000I0J-50000D01*
G01*
X105250000Y-77630000D01*
G75*
G02*
X105200000Y-77680000I-50000J0D01*
G01*
X103100000Y-77680000D01*
G75*
G02*
X103050000Y-77630000I0J50000D01*
G01*
G37*
%TD*%
%TO.C,REF\u002A\u002A*%
G36*
G01*
X103050000Y-90330000D02*
X103050000Y-88230000D01*
G75*
G02*
X103100000Y-88180000I50000J0D01*
G01*
X105200000Y-88180000D01*
G75*
G02*
X105250000Y-88230000I0J-50000D01*
G01*
X105250000Y-90330000D01*
G75*
G02*
X105200000Y-90380000I-50000J0D01*
G01*
X103100000Y-90380000D01*
G75*
G02*
X103050000Y-90330000I0J50000D01*
G01*
G37*
%TD*%
%TO.C,REF\u002A\u002A*%
G36*
G01*
X103050000Y-92870000D02*
X103050000Y-90770000D01*
G75*
G02*
X103100000Y-90720000I50000J0D01*
G01*
X105200000Y-90720000D01*
G75*
G02*
X105250000Y-90770000I0J-50000D01*
G01*
X105250000Y-92870000D01*
G75*
G02*
X105200000Y-92920000I-50000J0D01*
G01*
X103100000Y-92920000D01*
G75*
G02*
X103050000Y-92870000I0J50000D01*
G01*
G37*
%TD*%
%TO.C,REF\u002A\u002A*%
G36*
G01*
X100510000Y-87790000D02*
X100510000Y-85690000D01*
G75*
G02*
X100560000Y-85640000I50000J0D01*
G01*
X102660000Y-85640000D01*
G75*
G02*
X102710000Y-85690000I0J-50000D01*
G01*
X102710000Y-87790000D01*
G75*
G02*
X102660000Y-87840000I-50000J0D01*
G01*
X100560000Y-87840000D01*
G75*
G02*
X100510000Y-87790000I0J50000D01*
G01*
G37*
%TD*%
%TO.C,REF\u002A\u002A*%
G36*
G01*
X100510000Y-82710000D02*
X100510000Y-80610000D01*
G75*
G02*
X100560000Y-80560000I50000J0D01*
G01*
X102660000Y-80560000D01*
G75*
G02*
X102710000Y-80610000I0J-50000D01*
G01*
X102710000Y-82710000D01*
G75*
G02*
X102660000Y-82760000I-50000J0D01*
G01*
X100560000Y-82760000D01*
G75*
G02*
X100510000Y-82710000I0J50000D01*
G01*
G37*
%TD*%
%TO.C,REF\u002A\u002A*%
G36*
G01*
X100510000Y-72550000D02*
X100510000Y-70450000D01*
G75*
G02*
X100560000Y-70400000I50000J0D01*
G01*
X102660000Y-70400000D01*
G75*
G02*
X102710000Y-70450000I0J-50000D01*
G01*
X102710000Y-72550000D01*
G75*
G02*
X102660000Y-72600000I-50000J0D01*
G01*
X100560000Y-72600000D01*
G75*
G02*
X100510000Y-72550000I0J50000D01*
G01*
G37*
%TD*%
%TO.C,REF\u002A\u002A*%
G36*
G01*
X103050000Y-85250000D02*
X103050000Y-83150000D01*
G75*
G02*
X103100000Y-83100000I50000J0D01*
G01*
X105200000Y-83100000D01*
G75*
G02*
X105250000Y-83150000I0J-50000D01*
G01*
X105250000Y-85250000D01*
G75*
G02*
X105200000Y-85300000I-50000J0D01*
G01*
X103100000Y-85300000D01*
G75*
G02*
X103050000Y-85250000I0J50000D01*
G01*
G37*
%TD*%
%TO.C,REF\u002A\u002A*%
G36*
G01*
X103050000Y-80170000D02*
X103050000Y-78070000D01*
G75*
G02*
X103100000Y-78020000I50000J0D01*
G01*
X105200000Y-78020000D01*
G75*
G02*
X105250000Y-78070000I0J-50000D01*
G01*
X105250000Y-80170000D01*
G75*
G02*
X105200000Y-80220000I-50000J0D01*
G01*
X103100000Y-80220000D01*
G75*
G02*
X103050000Y-80170000I0J50000D01*
G01*
G37*
%TD*%
%TO.C,REF\u002A\u002A*%
G36*
G01*
X103050000Y-97950000D02*
X103050000Y-95850000D01*
G75*
G02*
X103100000Y-95800000I50000J0D01*
G01*
X105200000Y-95800000D01*
G75*
G02*
X105250000Y-95850000I0J-50000D01*
G01*
X105250000Y-97950000D01*
G75*
G02*
X105200000Y-98000000I-50000J0D01*
G01*
X103100000Y-98000000D01*
G75*
G02*
X103050000Y-97950000I0J50000D01*
G01*
G37*
%TD*%
%TO.C,REF\u002A\u002A*%
G36*
G01*
X100510000Y-92870000D02*
X100510000Y-90770000D01*
G75*
G02*
X100560000Y-90720000I50000J0D01*
G01*
X102660000Y-90720000D01*
G75*
G02*
X102710000Y-90770000I0J-50000D01*
G01*
X102710000Y-92870000D01*
G75*
G02*
X102660000Y-92920000I-50000J0D01*
G01*
X100560000Y-92920000D01*
G75*
G02*
X100510000Y-92870000I0J50000D01*
G01*
G37*
%TD*%
%TO.C,REF\u002A\u002A*%
G36*
G01*
X100510000Y-97950000D02*
X100510000Y-95850000D01*
G75*
G02*
X100560000Y-95800000I50000J0D01*
G01*
X102660000Y-95800000D01*
G75*
G02*
X102710000Y-95850000I0J-50000D01*
G01*
X102710000Y-97950000D01*
G75*
G02*
X102660000Y-98000000I-50000J0D01*
G01*
X100560000Y-98000000D01*
G75*
G02*
X100510000Y-97950000I0J50000D01*
G01*
G37*
%TD*%
%TO.C,REF\u002A\u002A*%
G36*
G01*
X103050000Y-95410000D02*
X103050000Y-93310000D01*
G75*
G02*
X103100000Y-93260000I50000J0D01*
G01*
X105200000Y-93260000D01*
G75*
G02*
X105250000Y-93310000I0J-50000D01*
G01*
X105250000Y-95410000D01*
G75*
G02*
X105200000Y-95460000I-50000J0D01*
G01*
X103100000Y-95460000D01*
G75*
G02*
X103050000Y-95410000I0J50000D01*
G01*
G37*
%TD*%
%TO.C,REF\u002A\u002A*%
G36*
G01*
X100510000Y-75090000D02*
X100510000Y-72990000D01*
G75*
G02*
X100560000Y-72940000I50000J0D01*
G01*
X102660000Y-72940000D01*
G75*
G02*
X102710000Y-72990000I0J-50000D01*
G01*
X102710000Y-75090000D01*
G75*
G02*
X102660000Y-75140000I-50000J0D01*
G01*
X100560000Y-75140000D01*
G75*
G02*
X100510000Y-75090000I0J50000D01*
G01*
G37*
%TD*%
%TO.C,REF\u002A\u002A*%
G36*
G01*
X103050000Y-75090000D02*
X103050000Y-72990000D01*
G75*
G02*
X103100000Y-72940000I50000J0D01*
G01*
X105200000Y-72940000D01*
G75*
G02*
X105250000Y-72990000I0J-50000D01*
G01*
X105250000Y-75090000D01*
G75*
G02*
X105200000Y-75140000I-50000J0D01*
G01*
X103100000Y-75140000D01*
G75*
G02*
X103050000Y-75090000I0J50000D01*
G01*
G37*
%TD*%
%TO.C,REF\u002A\u002A*%
G36*
G01*
X100510000Y-77630000D02*
X100510000Y-75530000D01*
G75*
G02*
X100560000Y-75480000I50000J0D01*
G01*
X102660000Y-75480000D01*
G75*
G02*
X102710000Y-75530000I0J-50000D01*
G01*
X102710000Y-77630000D01*
G75*
G02*
X102660000Y-77680000I-50000J0D01*
G01*
X100560000Y-77680000D01*
G75*
G02*
X100510000Y-77630000I0J50000D01*
G01*
G37*
%TD*%
%TO.C,REF\u002A\u002A*%
G36*
G01*
X100510000Y-95410000D02*
X100510000Y-93310000D01*
G75*
G02*
X100560000Y-93260000I50000J0D01*
G01*
X102660000Y-93260000D01*
G75*
G02*
X102710000Y-93310000I0J-50000D01*
G01*
X102710000Y-95410000D01*
G75*
G02*
X102660000Y-95460000I-50000J0D01*
G01*
X100560000Y-95460000D01*
G75*
G02*
X100510000Y-95410000I0J50000D01*
G01*
G37*
%TD*%
%TO.C,REF\u002A\u002A*%
G36*
G01*
X97970000Y-82710000D02*
X97970000Y-80610000D01*
G75*
G02*
X98020000Y-80560000I50000J0D01*
G01*
X100120000Y-80560000D01*
G75*
G02*
X100170000Y-80610000I0J-50000D01*
G01*
X100170000Y-82710000D01*
G75*
G02*
X100120000Y-82760000I-50000J0D01*
G01*
X98020000Y-82760000D01*
G75*
G02*
X97970000Y-82710000I0J50000D01*
G01*
G37*
%TD*%
%TO.C,REF\u002A\u002A*%
G36*
G01*
X95430000Y-82710000D02*
X95430000Y-80610000D01*
G75*
G02*
X95480000Y-80560000I50000J0D01*
G01*
X97580000Y-80560000D01*
G75*
G02*
X97630000Y-80610000I0J-50000D01*
G01*
X97630000Y-82710000D01*
G75*
G02*
X97580000Y-82760000I-50000J0D01*
G01*
X95480000Y-82760000D01*
G75*
G02*
X95430000Y-82710000I0J50000D01*
G01*
G37*
%TD*%
%TO.C,REF\u002A\u002A*%
G36*
G01*
X97970000Y-72550000D02*
X97970000Y-70450000D01*
G75*
G02*
X98020000Y-70400000I50000J0D01*
G01*
X100120000Y-70400000D01*
G75*
G02*
X100170000Y-70450000I0J-50000D01*
G01*
X100170000Y-72550000D01*
G75*
G02*
X100120000Y-72600000I-50000J0D01*
G01*
X98020000Y-72600000D01*
G75*
G02*
X97970000Y-72550000I0J50000D01*
G01*
G37*
%TD*%
%TO.C,REF\u002A\u002A*%
G36*
G01*
X95430000Y-90330000D02*
X95430000Y-88230000D01*
G75*
G02*
X95480000Y-88180000I50000J0D01*
G01*
X97580000Y-88180000D01*
G75*
G02*
X97630000Y-88230000I0J-50000D01*
G01*
X97630000Y-90330000D01*
G75*
G02*
X97580000Y-90380000I-50000J0D01*
G01*
X95480000Y-90380000D01*
G75*
G02*
X95430000Y-90330000I0J50000D01*
G01*
G37*
%TD*%
%TO.C,REF\u002A\u002A*%
G36*
G01*
X97970000Y-87790000D02*
X97970000Y-85690000D01*
G75*
G02*
X98020000Y-85640000I50000J0D01*
G01*
X100120000Y-85640000D01*
G75*
G02*
X100170000Y-85690000I0J-50000D01*
G01*
X100170000Y-87790000D01*
G75*
G02*
X100120000Y-87840000I-50000J0D01*
G01*
X98020000Y-87840000D01*
G75*
G02*
X97970000Y-87790000I0J50000D01*
G01*
G37*
%TD*%
%TO.C,REF\u002A\u002A*%
G36*
G01*
X97970000Y-100490000D02*
X97970000Y-98390000D01*
G75*
G02*
X98020000Y-98340000I50000J0D01*
G01*
X100120000Y-98340000D01*
G75*
G02*
X100170000Y-98390000I0J-50000D01*
G01*
X100170000Y-100490000D01*
G75*
G02*
X100120000Y-100540000I-50000J0D01*
G01*
X98020000Y-100540000D01*
G75*
G02*
X97970000Y-100490000I0J50000D01*
G01*
G37*
%TD*%
%TO.C,REF\u002A\u002A*%
G36*
G01*
X95430000Y-100490000D02*
X95430000Y-98390000D01*
G75*
G02*
X95480000Y-98340000I50000J0D01*
G01*
X97580000Y-98340000D01*
G75*
G02*
X97630000Y-98390000I0J-50000D01*
G01*
X97630000Y-100490000D01*
G75*
G02*
X97580000Y-100540000I-50000J0D01*
G01*
X95480000Y-100540000D01*
G75*
G02*
X95430000Y-100490000I0J50000D01*
G01*
G37*
%TD*%
%TO.C,REF\u002A\u002A*%
G36*
G01*
X95430000Y-87790000D02*
X95430000Y-85690000D01*
G75*
G02*
X95480000Y-85640000I50000J0D01*
G01*
X97580000Y-85640000D01*
G75*
G02*
X97630000Y-85690000I0J-50000D01*
G01*
X97630000Y-87790000D01*
G75*
G02*
X97580000Y-87840000I-50000J0D01*
G01*
X95480000Y-87840000D01*
G75*
G02*
X95430000Y-87790000I0J50000D01*
G01*
G37*
%TD*%
%TO.C,REF\u002A\u002A*%
G36*
G01*
X95430000Y-72550000D02*
X95430000Y-70450000D01*
G75*
G02*
X95480000Y-70400000I50000J0D01*
G01*
X97580000Y-70400000D01*
G75*
G02*
X97630000Y-70450000I0J-50000D01*
G01*
X97630000Y-72550000D01*
G75*
G02*
X97580000Y-72600000I-50000J0D01*
G01*
X95480000Y-72600000D01*
G75*
G02*
X95430000Y-72550000I0J50000D01*
G01*
G37*
%TD*%
%TO.C,REF\u002A\u002A*%
G36*
G01*
X97970000Y-77630000D02*
X97970000Y-75530000D01*
G75*
G02*
X98020000Y-75480000I50000J0D01*
G01*
X100120000Y-75480000D01*
G75*
G02*
X100170000Y-75530000I0J-50000D01*
G01*
X100170000Y-77630000D01*
G75*
G02*
X100120000Y-77680000I-50000J0D01*
G01*
X98020000Y-77680000D01*
G75*
G02*
X97970000Y-77630000I0J50000D01*
G01*
G37*
%TD*%
%TO.C,REF\u002A\u002A*%
G36*
G01*
X95430000Y-80170000D02*
X95430000Y-78070000D01*
G75*
G02*
X95480000Y-78020000I50000J0D01*
G01*
X97580000Y-78020000D01*
G75*
G02*
X97630000Y-78070000I0J-50000D01*
G01*
X97630000Y-80170000D01*
G75*
G02*
X97580000Y-80220000I-50000J0D01*
G01*
X95480000Y-80220000D01*
G75*
G02*
X95430000Y-80170000I0J50000D01*
G01*
G37*
%TD*%
%TO.C,REF\u002A\u002A*%
G36*
G01*
X97970000Y-97950000D02*
X97970000Y-95850000D01*
G75*
G02*
X98020000Y-95800000I50000J0D01*
G01*
X100120000Y-95800000D01*
G75*
G02*
X100170000Y-95850000I0J-50000D01*
G01*
X100170000Y-97950000D01*
G75*
G02*
X100120000Y-98000000I-50000J0D01*
G01*
X98020000Y-98000000D01*
G75*
G02*
X97970000Y-97950000I0J50000D01*
G01*
G37*
%TD*%
%TO.C,REF\u002A\u002A*%
G36*
G01*
X97970000Y-75090000D02*
X97970000Y-72990000D01*
G75*
G02*
X98020000Y-72940000I50000J0D01*
G01*
X100120000Y-72940000D01*
G75*
G02*
X100170000Y-72990000I0J-50000D01*
G01*
X100170000Y-75090000D01*
G75*
G02*
X100120000Y-75140000I-50000J0D01*
G01*
X98020000Y-75140000D01*
G75*
G02*
X97970000Y-75090000I0J50000D01*
G01*
G37*
%TD*%
%TO.C,REF\u002A\u002A*%
G36*
G01*
X97970000Y-80170000D02*
X97970000Y-78070000D01*
G75*
G02*
X98020000Y-78020000I50000J0D01*
G01*
X100120000Y-78020000D01*
G75*
G02*
X100170000Y-78070000I0J-50000D01*
G01*
X100170000Y-80170000D01*
G75*
G02*
X100120000Y-80220000I-50000J0D01*
G01*
X98020000Y-80220000D01*
G75*
G02*
X97970000Y-80170000I0J50000D01*
G01*
G37*
%TD*%
%TO.C,REF\u002A\u002A*%
G36*
G01*
X95430000Y-97950000D02*
X95430000Y-95850000D01*
G75*
G02*
X95480000Y-95800000I50000J0D01*
G01*
X97580000Y-95800000D01*
G75*
G02*
X97630000Y-95850000I0J-50000D01*
G01*
X97630000Y-97950000D01*
G75*
G02*
X97580000Y-98000000I-50000J0D01*
G01*
X95480000Y-98000000D01*
G75*
G02*
X95430000Y-97950000I0J50000D01*
G01*
G37*
%TD*%
%TO.C,REF\u002A\u002A*%
G36*
G01*
X97970000Y-85250000D02*
X97970000Y-83150000D01*
G75*
G02*
X98020000Y-83100000I50000J0D01*
G01*
X100120000Y-83100000D01*
G75*
G02*
X100170000Y-83150000I0J-50000D01*
G01*
X100170000Y-85250000D01*
G75*
G02*
X100120000Y-85300000I-50000J0D01*
G01*
X98020000Y-85300000D01*
G75*
G02*
X97970000Y-85250000I0J50000D01*
G01*
G37*
%TD*%
%TO.C,REF\u002A\u002A*%
G36*
G01*
X95430000Y-75090000D02*
X95430000Y-72990000D01*
G75*
G02*
X95480000Y-72940000I50000J0D01*
G01*
X97580000Y-72940000D01*
G75*
G02*
X97630000Y-72990000I0J-50000D01*
G01*
X97630000Y-75090000D01*
G75*
G02*
X97580000Y-75140000I-50000J0D01*
G01*
X95480000Y-75140000D01*
G75*
G02*
X95430000Y-75090000I0J50000D01*
G01*
G37*
%TD*%
%TO.C,REF\u002A\u002A*%
G36*
G01*
X95430000Y-85250000D02*
X95430000Y-83150000D01*
G75*
G02*
X95480000Y-83100000I50000J0D01*
G01*
X97580000Y-83100000D01*
G75*
G02*
X97630000Y-83150000I0J-50000D01*
G01*
X97630000Y-85250000D01*
G75*
G02*
X97580000Y-85300000I-50000J0D01*
G01*
X95480000Y-85300000D01*
G75*
G02*
X95430000Y-85250000I0J50000D01*
G01*
G37*
%TD*%
%TO.C,REF\u002A\u002A*%
G36*
G01*
X95430000Y-77630000D02*
X95430000Y-75530000D01*
G75*
G02*
X95480000Y-75480000I50000J0D01*
G01*
X97580000Y-75480000D01*
G75*
G02*
X97630000Y-75530000I0J-50000D01*
G01*
X97630000Y-77630000D01*
G75*
G02*
X97580000Y-77680000I-50000J0D01*
G01*
X95480000Y-77680000D01*
G75*
G02*
X95430000Y-77630000I0J50000D01*
G01*
G37*
%TD*%
%TO.C,REF\u002A\u002A*%
G36*
G01*
X97970000Y-92870000D02*
X97970000Y-90770000D01*
G75*
G02*
X98020000Y-90720000I50000J0D01*
G01*
X100120000Y-90720000D01*
G75*
G02*
X100170000Y-90770000I0J-50000D01*
G01*
X100170000Y-92870000D01*
G75*
G02*
X100120000Y-92920000I-50000J0D01*
G01*
X98020000Y-92920000D01*
G75*
G02*
X97970000Y-92870000I0J50000D01*
G01*
G37*
%TD*%
%TO.C,REF\u002A\u002A*%
G36*
G01*
X95430000Y-92870000D02*
X95430000Y-90770000D01*
G75*
G02*
X95480000Y-90720000I50000J0D01*
G01*
X97580000Y-90720000D01*
G75*
G02*
X97630000Y-90770000I0J-50000D01*
G01*
X97630000Y-92870000D01*
G75*
G02*
X97580000Y-92920000I-50000J0D01*
G01*
X95480000Y-92920000D01*
G75*
G02*
X95430000Y-92870000I0J50000D01*
G01*
G37*
%TD*%
%TO.C,REF\u002A\u002A*%
G36*
G01*
X97970000Y-95410000D02*
X97970000Y-93310000D01*
G75*
G02*
X98020000Y-93260000I50000J0D01*
G01*
X100120000Y-93260000D01*
G75*
G02*
X100170000Y-93310000I0J-50000D01*
G01*
X100170000Y-95410000D01*
G75*
G02*
X100120000Y-95460000I-50000J0D01*
G01*
X98020000Y-95460000D01*
G75*
G02*
X97970000Y-95410000I0J50000D01*
G01*
G37*
%TD*%
%TO.C,REF\u002A\u002A*%
G36*
G01*
X95430000Y-95410000D02*
X95430000Y-93310000D01*
G75*
G02*
X95480000Y-93260000I50000J0D01*
G01*
X97580000Y-93260000D01*
G75*
G02*
X97630000Y-93310000I0J-50000D01*
G01*
X97630000Y-95410000D01*
G75*
G02*
X97580000Y-95460000I-50000J0D01*
G01*
X95480000Y-95460000D01*
G75*
G02*
X95430000Y-95410000I0J50000D01*
G01*
G37*
%TD*%
%TO.C,REF\u002A\u002A*%
G36*
G01*
X97970000Y-90330000D02*
X97970000Y-88230000D01*
G75*
G02*
X98020000Y-88180000I50000J0D01*
G01*
X100120000Y-88180000D01*
G75*
G02*
X100170000Y-88230000I0J-50000D01*
G01*
X100170000Y-90330000D01*
G75*
G02*
X100120000Y-90380000I-50000J0D01*
G01*
X98020000Y-90380000D01*
G75*
G02*
X97970000Y-90330000I0J50000D01*
G01*
G37*
%TD*%
%TO.C,REF\u002A\u002A*%
G36*
G01*
X92890000Y-100490000D02*
X92890000Y-98390000D01*
G75*
G02*
X92940000Y-98340000I50000J0D01*
G01*
X95040000Y-98340000D01*
G75*
G02*
X95090000Y-98390000I0J-50000D01*
G01*
X95090000Y-100490000D01*
G75*
G02*
X95040000Y-100540000I-50000J0D01*
G01*
X92940000Y-100540000D01*
G75*
G02*
X92890000Y-100490000I0J50000D01*
G01*
G37*
%TD*%
%TO.C,REF\u002A\u002A*%
G36*
G01*
X90350000Y-100490000D02*
X90350000Y-98390000D01*
G75*
G02*
X90400000Y-98340000I50000J0D01*
G01*
X92500000Y-98340000D01*
G75*
G02*
X92550000Y-98390000I0J-50000D01*
G01*
X92550000Y-100490000D01*
G75*
G02*
X92500000Y-100540000I-50000J0D01*
G01*
X90400000Y-100540000D01*
G75*
G02*
X90350000Y-100490000I0J50000D01*
G01*
G37*
%TD*%
%TO.C,REF\u002A\u002A*%
G36*
G01*
X92890000Y-97950000D02*
X92890000Y-95850000D01*
G75*
G02*
X92940000Y-95800000I50000J0D01*
G01*
X95040000Y-95800000D01*
G75*
G02*
X95090000Y-95850000I0J-50000D01*
G01*
X95090000Y-97950000D01*
G75*
G02*
X95040000Y-98000000I-50000J0D01*
G01*
X92940000Y-98000000D01*
G75*
G02*
X92890000Y-97950000I0J50000D01*
G01*
G37*
%TD*%
%TO.C,REF\u002A\u002A*%
G36*
G01*
X90350000Y-97950000D02*
X90350000Y-95850000D01*
G75*
G02*
X90400000Y-95800000I50000J0D01*
G01*
X92500000Y-95800000D01*
G75*
G02*
X92550000Y-95850000I0J-50000D01*
G01*
X92550000Y-97950000D01*
G75*
G02*
X92500000Y-98000000I-50000J0D01*
G01*
X90400000Y-98000000D01*
G75*
G02*
X90350000Y-97950000I0J50000D01*
G01*
G37*
%TD*%
%TO.C,REF\u002A\u002A*%
G36*
G01*
X92890000Y-95410000D02*
X92890000Y-93310000D01*
G75*
G02*
X92940000Y-93260000I50000J0D01*
G01*
X95040000Y-93260000D01*
G75*
G02*
X95090000Y-93310000I0J-50000D01*
G01*
X95090000Y-95410000D01*
G75*
G02*
X95040000Y-95460000I-50000J0D01*
G01*
X92940000Y-95460000D01*
G75*
G02*
X92890000Y-95410000I0J50000D01*
G01*
G37*
%TD*%
%TO.C,REF\u002A\u002A*%
G36*
G01*
X90350000Y-95410000D02*
X90350000Y-93310000D01*
G75*
G02*
X90400000Y-93260000I50000J0D01*
G01*
X92500000Y-93260000D01*
G75*
G02*
X92550000Y-93310000I0J-50000D01*
G01*
X92550000Y-95410000D01*
G75*
G02*
X92500000Y-95460000I-50000J0D01*
G01*
X90400000Y-95460000D01*
G75*
G02*
X90350000Y-95410000I0J50000D01*
G01*
G37*
%TD*%
%TO.C,REF\u002A\u002A*%
G36*
G01*
X90350000Y-92870000D02*
X90350000Y-90770000D01*
G75*
G02*
X90400000Y-90720000I50000J0D01*
G01*
X92500000Y-90720000D01*
G75*
G02*
X92550000Y-90770000I0J-50000D01*
G01*
X92550000Y-92870000D01*
G75*
G02*
X92500000Y-92920000I-50000J0D01*
G01*
X90400000Y-92920000D01*
G75*
G02*
X90350000Y-92870000I0J50000D01*
G01*
G37*
%TD*%
%TO.C,REF\u002A\u002A*%
G36*
G01*
X92890000Y-92870000D02*
X92890000Y-90770000D01*
G75*
G02*
X92940000Y-90720000I50000J0D01*
G01*
X95040000Y-90720000D01*
G75*
G02*
X95090000Y-90770000I0J-50000D01*
G01*
X95090000Y-92870000D01*
G75*
G02*
X95040000Y-92920000I-50000J0D01*
G01*
X92940000Y-92920000D01*
G75*
G02*
X92890000Y-92870000I0J50000D01*
G01*
G37*
%TD*%
%TO.C,REF\u002A\u002A*%
G36*
G01*
X92890000Y-90330000D02*
X92890000Y-88230000D01*
G75*
G02*
X92940000Y-88180000I50000J0D01*
G01*
X95040000Y-88180000D01*
G75*
G02*
X95090000Y-88230000I0J-50000D01*
G01*
X95090000Y-90330000D01*
G75*
G02*
X95040000Y-90380000I-50000J0D01*
G01*
X92940000Y-90380000D01*
G75*
G02*
X92890000Y-90330000I0J50000D01*
G01*
G37*
%TD*%
%TO.C,REF\u002A\u002A*%
G36*
G01*
X90350000Y-90330000D02*
X90350000Y-88230000D01*
G75*
G02*
X90400000Y-88180000I50000J0D01*
G01*
X92500000Y-88180000D01*
G75*
G02*
X92550000Y-88230000I0J-50000D01*
G01*
X92550000Y-90330000D01*
G75*
G02*
X92500000Y-90380000I-50000J0D01*
G01*
X90400000Y-90380000D01*
G75*
G02*
X90350000Y-90330000I0J50000D01*
G01*
G37*
%TD*%
%TO.C,REF\u002A\u002A*%
G36*
G01*
X92890000Y-87790000D02*
X92890000Y-85690000D01*
G75*
G02*
X92940000Y-85640000I50000J0D01*
G01*
X95040000Y-85640000D01*
G75*
G02*
X95090000Y-85690000I0J-50000D01*
G01*
X95090000Y-87790000D01*
G75*
G02*
X95040000Y-87840000I-50000J0D01*
G01*
X92940000Y-87840000D01*
G75*
G02*
X92890000Y-87790000I0J50000D01*
G01*
G37*
%TD*%
%TO.C,REF\u002A\u002A*%
G36*
G01*
X90350000Y-87790000D02*
X90350000Y-85690000D01*
G75*
G02*
X90400000Y-85640000I50000J0D01*
G01*
X92500000Y-85640000D01*
G75*
G02*
X92550000Y-85690000I0J-50000D01*
G01*
X92550000Y-87790000D01*
G75*
G02*
X92500000Y-87840000I-50000J0D01*
G01*
X90400000Y-87840000D01*
G75*
G02*
X90350000Y-87790000I0J50000D01*
G01*
G37*
%TD*%
%TO.C,REF\u002A\u002A*%
G36*
G01*
X92890000Y-85250000D02*
X92890000Y-83150000D01*
G75*
G02*
X92940000Y-83100000I50000J0D01*
G01*
X95040000Y-83100000D01*
G75*
G02*
X95090000Y-83150000I0J-50000D01*
G01*
X95090000Y-85250000D01*
G75*
G02*
X95040000Y-85300000I-50000J0D01*
G01*
X92940000Y-85300000D01*
G75*
G02*
X92890000Y-85250000I0J50000D01*
G01*
G37*
%TD*%
%TO.C,REF\u002A\u002A*%
G36*
G01*
X90350000Y-85250000D02*
X90350000Y-83150000D01*
G75*
G02*
X90400000Y-83100000I50000J0D01*
G01*
X92500000Y-83100000D01*
G75*
G02*
X92550000Y-83150000I0J-50000D01*
G01*
X92550000Y-85250000D01*
G75*
G02*
X92500000Y-85300000I-50000J0D01*
G01*
X90400000Y-85300000D01*
G75*
G02*
X90350000Y-85250000I0J50000D01*
G01*
G37*
%TD*%
%TO.C,REF\u002A\u002A*%
G36*
G01*
X90350000Y-82710000D02*
X90350000Y-80610000D01*
G75*
G02*
X90400000Y-80560000I50000J0D01*
G01*
X92500000Y-80560000D01*
G75*
G02*
X92550000Y-80610000I0J-50000D01*
G01*
X92550000Y-82710000D01*
G75*
G02*
X92500000Y-82760000I-50000J0D01*
G01*
X90400000Y-82760000D01*
G75*
G02*
X90350000Y-82710000I0J50000D01*
G01*
G37*
%TD*%
%TO.C,REF\u002A\u002A*%
G36*
G01*
X92890000Y-82710000D02*
X92890000Y-80610000D01*
G75*
G02*
X92940000Y-80560000I50000J0D01*
G01*
X95040000Y-80560000D01*
G75*
G02*
X95090000Y-80610000I0J-50000D01*
G01*
X95090000Y-82710000D01*
G75*
G02*
X95040000Y-82760000I-50000J0D01*
G01*
X92940000Y-82760000D01*
G75*
G02*
X92890000Y-82710000I0J50000D01*
G01*
G37*
%TD*%
%TO.C,REF\u002A\u002A*%
G36*
G01*
X92890000Y-80170000D02*
X92890000Y-78070000D01*
G75*
G02*
X92940000Y-78020000I50000J0D01*
G01*
X95040000Y-78020000D01*
G75*
G02*
X95090000Y-78070000I0J-50000D01*
G01*
X95090000Y-80170000D01*
G75*
G02*
X95040000Y-80220000I-50000J0D01*
G01*
X92940000Y-80220000D01*
G75*
G02*
X92890000Y-80170000I0J50000D01*
G01*
G37*
%TD*%
%TO.C,REF\u002A\u002A*%
G36*
G01*
X90350000Y-80170000D02*
X90350000Y-78070000D01*
G75*
G02*
X90400000Y-78020000I50000J0D01*
G01*
X92500000Y-78020000D01*
G75*
G02*
X92550000Y-78070000I0J-50000D01*
G01*
X92550000Y-80170000D01*
G75*
G02*
X92500000Y-80220000I-50000J0D01*
G01*
X90400000Y-80220000D01*
G75*
G02*
X90350000Y-80170000I0J50000D01*
G01*
G37*
%TD*%
%TO.C,REF\u002A\u002A*%
G36*
G01*
X92890000Y-77630000D02*
X92890000Y-75530000D01*
G75*
G02*
X92940000Y-75480000I50000J0D01*
G01*
X95040000Y-75480000D01*
G75*
G02*
X95090000Y-75530000I0J-50000D01*
G01*
X95090000Y-77630000D01*
G75*
G02*
X95040000Y-77680000I-50000J0D01*
G01*
X92940000Y-77680000D01*
G75*
G02*
X92890000Y-77630000I0J50000D01*
G01*
G37*
%TD*%
%TO.C,REF\u002A\u002A*%
G36*
G01*
X90350000Y-77630000D02*
X90350000Y-75530000D01*
G75*
G02*
X90400000Y-75480000I50000J0D01*
G01*
X92500000Y-75480000D01*
G75*
G02*
X92550000Y-75530000I0J-50000D01*
G01*
X92550000Y-77630000D01*
G75*
G02*
X92500000Y-77680000I-50000J0D01*
G01*
X90400000Y-77680000D01*
G75*
G02*
X90350000Y-77630000I0J50000D01*
G01*
G37*
%TD*%
%TO.C,REF\u002A\u002A*%
G36*
G01*
X92890000Y-75090000D02*
X92890000Y-72990000D01*
G75*
G02*
X92940000Y-72940000I50000J0D01*
G01*
X95040000Y-72940000D01*
G75*
G02*
X95090000Y-72990000I0J-50000D01*
G01*
X95090000Y-75090000D01*
G75*
G02*
X95040000Y-75140000I-50000J0D01*
G01*
X92940000Y-75140000D01*
G75*
G02*
X92890000Y-75090000I0J50000D01*
G01*
G37*
%TD*%
%TO.C,REF\u002A\u002A*%
G36*
G01*
X90350000Y-75090000D02*
X90350000Y-72990000D01*
G75*
G02*
X90400000Y-72940000I50000J0D01*
G01*
X92500000Y-72940000D01*
G75*
G02*
X92550000Y-72990000I0J-50000D01*
G01*
X92550000Y-75090000D01*
G75*
G02*
X92500000Y-75140000I-50000J0D01*
G01*
X90400000Y-75140000D01*
G75*
G02*
X90350000Y-75090000I0J50000D01*
G01*
G37*
%TD*%
%TO.C,REF\u002A\u002A*%
G36*
G01*
X92890000Y-72550000D02*
X92890000Y-70450000D01*
G75*
G02*
X92940000Y-70400000I50000J0D01*
G01*
X95040000Y-70400000D01*
G75*
G02*
X95090000Y-70450000I0J-50000D01*
G01*
X95090000Y-72550000D01*
G75*
G02*
X95040000Y-72600000I-50000J0D01*
G01*
X92940000Y-72600000D01*
G75*
G02*
X92890000Y-72550000I0J50000D01*
G01*
G37*
%TD*%
%TO.C,REF\u002A\u002A*%
G36*
G01*
X90350000Y-72550000D02*
X90350000Y-70450000D01*
G75*
G02*
X90400000Y-70400000I50000J0D01*
G01*
X92500000Y-70400000D01*
G75*
G02*
X92550000Y-70450000I0J-50000D01*
G01*
X92550000Y-72550000D01*
G75*
G02*
X92500000Y-72600000I-50000J0D01*
G01*
X90400000Y-72600000D01*
G75*
G02*
X90350000Y-72550000I0J50000D01*
G01*
G37*
%TD*%
%TO.C,J307*%
G36*
G01*
X166800000Y-62980000D02*
X168500000Y-62980000D01*
G75*
G02*
X168550000Y-63030000I0J-50000D01*
G01*
X168550000Y-64730000D01*
G75*
G02*
X168500000Y-64780000I-50000J0D01*
G01*
X166800000Y-64780000D01*
G75*
G02*
X166750000Y-64730000I0J50000D01*
G01*
X166750000Y-63030000D01*
G75*
G02*
X166800000Y-62980000I50000J0D01*
G01*
G37*
D12*
X167650000Y-66420000D03*
X165110000Y-63880000D03*
X165110000Y-66420000D03*
X162570000Y-63880000D03*
X162570000Y-66420000D03*
X160030000Y-63880000D03*
X160030000Y-66420000D03*
X157490000Y-63880000D03*
X157490000Y-66420000D03*
X154950000Y-63880000D03*
X154950000Y-66420000D03*
X152410000Y-63880000D03*
X152410000Y-66420000D03*
X149870000Y-63880000D03*
X149870000Y-66420000D03*
X147330000Y-63880000D03*
X147330000Y-66420000D03*
X144790000Y-63880000D03*
X144790000Y-66420000D03*
X142250000Y-63880000D03*
X142250000Y-66420000D03*
X139710000Y-63880000D03*
X139710000Y-66420000D03*
X137170000Y-63880000D03*
X137170000Y-66420000D03*
X134630000Y-63880000D03*
X134630000Y-66420000D03*
X132090000Y-63880000D03*
X132090000Y-66420000D03*
X129550000Y-63880000D03*
X129550000Y-66420000D03*
X127010000Y-63880000D03*
X127010000Y-66420000D03*
X124470000Y-63880000D03*
X124470000Y-66420000D03*
X121930000Y-63880000D03*
X121930000Y-66420000D03*
X119390000Y-63880000D03*
X119390000Y-66420000D03*
%TD*%
D11*
%TO.C,REF\u002A\u002A*%
X93980000Y-101930000D03*
%TD*%
%TO.C,REF\u002A\u002A*%
X91450000Y-101930000D03*
%TD*%
%TO.C,REF\u002A\u002A*%
X91440000Y-68910000D03*
%TD*%
%TO.C,REF\u002A\u002A*%
X96520000Y-68910000D03*
%TD*%
%TO.C,REF\u002A\u002A*%
X93980000Y-68910000D03*
%TD*%
%TO.C,REF\u002A\u002A*%
X99070000Y-68910000D03*
%TD*%
%TO.C,REF\u002A\u002A*%
X101600000Y-68910000D03*
%TD*%
%TO.C,REF\u002A\u002A*%
X106680000Y-68910000D03*
%TD*%
%TO.C,REF\u002A\u002A*%
X104140000Y-68910000D03*
%TD*%
%TO.C,REF\u002A\u002A*%
X109230000Y-68910000D03*
%TD*%
%TO.C,REF\u002A\u002A*%
X111760000Y-68910000D03*
%TD*%
%TO.C,REF\u002A\u002A*%
X116840000Y-68910000D03*
%TD*%
%TO.C,REF\u002A\u002A*%
X114300000Y-68910000D03*
%TD*%
%TO.C,REF\u002A\u002A*%
X119390000Y-68910000D03*
%TD*%
%TO.C,REF\u002A\u002A*%
X121920000Y-68910000D03*
%TD*%
%TO.C,REF\u002A\u002A*%
X127000000Y-68910000D03*
%TD*%
%TO.C,REF\u002A\u002A*%
X124460000Y-68910000D03*
%TD*%
%TO.C,REF\u002A\u002A*%
X129550000Y-68910000D03*
%TD*%
%TO.C,REF\u002A\u002A*%
X132080000Y-68910000D03*
%TD*%
%TO.C,REF\u002A\u002A*%
X137160000Y-68910000D03*
%TD*%
%TO.C,REF\u002A\u002A*%
X134620000Y-68910000D03*
%TD*%
%TO.C,REF\u002A\u002A*%
X139710000Y-68910000D03*
%TD*%
%TO.C,REF\u002A\u002A*%
X142240000Y-68910000D03*
%TD*%
%TO.C,REF\u002A\u002A*%
X149870000Y-68910000D03*
%TD*%
%TO.C,REF\u002A\u002A*%
X147320000Y-68910000D03*
%TD*%
%TO.C,REF\u002A\u002A*%
X144780000Y-68910000D03*
%TD*%
%TO.C,REF\u002A\u002A*%
X152400000Y-68910000D03*
%TD*%
%TO.C,REF\u002A\u002A*%
X154940000Y-68910000D03*
%TD*%
%TO.C,REF\u002A\u002A*%
X160030000Y-68910000D03*
%TD*%
%TO.C,REF\u002A\u002A*%
X157480000Y-68910000D03*
%TD*%
%TO.C,REF\u002A\u002A*%
X162560000Y-68910000D03*
%TD*%
%TO.C,REF\u002A\u002A*%
X165100000Y-68910000D03*
%TD*%
%TO.C,REF\u002A\u002A*%
X167640000Y-68910000D03*
%TD*%
%TO.C,REF\u002A\u002A*%
X157490000Y-101930000D03*
%TD*%
%TO.C,REF\u002A\u002A*%
X154940000Y-101930000D03*
%TD*%
%TO.C,REF\u002A\u002A*%
X165110000Y-101930000D03*
%TD*%
%TO.C,REF\u002A\u002A*%
X160020000Y-101930000D03*
%TD*%
%TO.C,REF\u002A\u002A*%
X152400000Y-101930000D03*
%TD*%
%TO.C,REF\u002A\u002A*%
X162560000Y-101930000D03*
%TD*%
%TO.C,REF\u002A\u002A*%
X167640000Y-101930000D03*
%TD*%
%TO.C,REF\u002A\u002A*%
X134630000Y-101930000D03*
%TD*%
%TO.C,REF\u002A\u002A*%
X129540000Y-101930000D03*
%TD*%
%TO.C,REF\u002A\u002A*%
X132080000Y-101930000D03*
%TD*%
%TO.C,REF\u002A\u002A*%
X127010000Y-101930000D03*
%TD*%
%TO.C,REF\u002A\u002A*%
X121920000Y-101930000D03*
%TD*%
%TO.C,REF\u002A\u002A*%
X124460000Y-101930000D03*
%TD*%
%TO.C,REF\u002A\u002A*%
X144780000Y-101930000D03*
%TD*%
%TO.C,REF\u002A\u002A*%
X147320000Y-101930000D03*
%TD*%
%TO.C,REF\u002A\u002A*%
X149870000Y-101930000D03*
%TD*%
%TO.C,REF\u002A\u002A*%
X142250000Y-101930000D03*
%TD*%
%TO.C,REF\u002A\u002A*%
X137160000Y-101930000D03*
%TD*%
%TO.C,REF\u002A\u002A*%
X139700000Y-101930000D03*
%TD*%
%TO.C,REF\u002A\u002A*%
X96530000Y-101930000D03*
%TD*%
%TO.C,REF\u002A\u002A*%
X104150000Y-101930000D03*
%TD*%
%TO.C,REF\u002A\u002A*%
X99060000Y-101930000D03*
%TD*%
%TO.C,REF\u002A\u002A*%
X101600000Y-101930000D03*
%TD*%
%TO.C,REF\u002A\u002A*%
X106680000Y-101930000D03*
%TD*%
%TO.C,REF\u002A\u002A*%
X109220000Y-101930000D03*
%TD*%
%TO.C,REF\u002A\u002A*%
X111770000Y-101930000D03*
%TD*%
%TO.C,REF\u002A\u002A*%
X114300000Y-101930000D03*
%TD*%
%TO.C,REF\u002A\u002A*%
X116840000Y-101930000D03*
%TD*%
%TO.C,REF\u002A\u002A*%
X119390000Y-101930000D03*
%TD*%
D12*
%TO.C,J305*%
X142680000Y-110450000D03*
X145220000Y-110450000D03*
X147760000Y-110450000D03*
G36*
G01*
X149450000Y-109550000D02*
X151150000Y-109550000D01*
G75*
G02*
X151200000Y-109600000I0J-50000D01*
G01*
X151200000Y-111300000D01*
G75*
G02*
X151150000Y-111350000I-50000J0D01*
G01*
X149450000Y-111350000D01*
G75*
G02*
X149400000Y-111300000I0J50000D01*
G01*
X149400000Y-109600000D01*
G75*
G02*
X149450000Y-109550000I50000J0D01*
G01*
G37*
%TD*%
%TO.C,J303*%
X142680000Y-107910000D03*
X145220000Y-107910000D03*
X147760000Y-107910000D03*
G36*
G01*
X151150000Y-108810000D02*
X149450000Y-108810000D01*
G75*
G02*
X149400000Y-108760000I0J50000D01*
G01*
X149400000Y-107060000D01*
G75*
G02*
X149450000Y-107010000I50000J0D01*
G01*
X151150000Y-107010000D01*
G75*
G02*
X151200000Y-107060000I0J-50000D01*
G01*
X151200000Y-108760000D01*
G75*
G02*
X151150000Y-108810000I-50000J0D01*
G01*
G37*
%TD*%
D11*
%TO.C,P331*%
X103625000Y-109425000D03*
%TD*%
%TO.C,P321*%
X100975000Y-109375000D03*
%TD*%
%TO.C,H1002*%
G36*
G01*
X159078427Y-111328427D02*
X159078427Y-111328427D01*
G75*
G02*
X154552943Y-111328427I-2262742J2262742D01*
G01*
X153421573Y-110197057D01*
G75*
G02*
X153421573Y-105671573I2262742J2262742D01*
G01*
X153421573Y-105671573D01*
G75*
G02*
X157947057Y-105671573I2262742J-2262742D01*
G01*
X159078427Y-106802943D01*
G75*
G02*
X159078427Y-111328427I-2262742J-2262742D01*
G01*
G37*
%TD*%
%TO.C,H1001*%
G36*
G01*
X114578427Y-66328427D02*
X114578427Y-66328427D01*
G75*
G02*
X110052943Y-66328427I-2262742J2262742D01*
G01*
X108921573Y-65197057D01*
G75*
G02*
X108921573Y-60671573I2262742J2262742D01*
G01*
X108921573Y-60671573D01*
G75*
G02*
X113447057Y-60671573I2262742J-2262742D01*
G01*
X114578427Y-61802943D01*
G75*
G02*
X114578427Y-66328427I-2262742J-2262742D01*
G01*
G37*
%TD*%
%TO.C,P304*%
X135300000Y-104700000D03*
%TD*%
%TO.C,P303*%
X137800000Y-104650000D03*
%TD*%
%TO.C,P306*%
X130300000Y-104700000D03*
%TD*%
%TO.C,P305*%
X132800000Y-104700000D03*
%TD*%
D13*
%TO.C,J306*%
X130300000Y-109650000D03*
X132800000Y-109650000D03*
X135300000Y-109650000D03*
G36*
G01*
X138700000Y-108889705D02*
X138700000Y-110410295D01*
G75*
G02*
X138435295Y-110675000I-264705J0D01*
G01*
X137164705Y-110675000D01*
G75*
G02*
X136900000Y-110410295I0J264705D01*
G01*
X136900000Y-108889705D01*
G75*
G02*
X137164705Y-108625000I264705J0D01*
G01*
X138435295Y-108625000D01*
G75*
G02*
X138700000Y-108889705I0J-264705D01*
G01*
G37*
%TD*%
D14*
%TO.C,J301*%
X163500000Y-109500000D03*
G36*
G01*
X166900000Y-108714705D02*
X166900000Y-110285295D01*
G75*
G02*
X166635295Y-110550000I-264705J0D01*
G01*
X165364705Y-110550000D01*
G75*
G02*
X165100000Y-110285295I0J264705D01*
G01*
X165100000Y-108714705D01*
G75*
G02*
X165364705Y-108450000I264705J0D01*
G01*
X166635295Y-108450000D01*
G75*
G02*
X166900000Y-108714705I0J-264705D01*
G01*
G37*
%TD*%
D15*
%TO.C,P302*%
X163500000Y-104450000D03*
%TD*%
%TO.C,P301*%
X166000000Y-104450000D03*
%TD*%
D12*
%TO.C,J304*%
X103640000Y-106300000D03*
G36*
G01*
X101950000Y-107200000D02*
X100250000Y-107200000D01*
G75*
G02*
X100200000Y-107150000I0J50000D01*
G01*
X100200000Y-105450000D01*
G75*
G02*
X100250000Y-105400000I50000J0D01*
G01*
X101950000Y-105400000D01*
G75*
G02*
X102000000Y-105450000I0J-50000D01*
G01*
X102000000Y-107150000D01*
G75*
G02*
X101950000Y-107200000I-50000J0D01*
G01*
G37*
%TD*%
%TO.C,J302*%
X119390000Y-61340000D03*
X119390000Y-58800000D03*
X121930000Y-61340000D03*
X121930000Y-58800000D03*
X124470000Y-61340000D03*
X124470000Y-58800000D03*
X127010000Y-61340000D03*
X127010000Y-58800000D03*
X129550000Y-61340000D03*
X129550000Y-58800000D03*
X132090000Y-61340000D03*
X132090000Y-58800000D03*
X134630000Y-61340000D03*
X134630000Y-58800000D03*
X137170000Y-61340000D03*
X137170000Y-58800000D03*
X139710000Y-61340000D03*
X139710000Y-58800000D03*
X142250000Y-61340000D03*
X142250000Y-58800000D03*
X144790000Y-61340000D03*
X144790000Y-58800000D03*
X147330000Y-61340000D03*
X147330000Y-58800000D03*
X149870000Y-61340000D03*
X149870000Y-58800000D03*
X152410000Y-61340000D03*
X152410000Y-58800000D03*
X154950000Y-61340000D03*
X154950000Y-58800000D03*
X157490000Y-61340000D03*
X157490000Y-58800000D03*
X160030000Y-61340000D03*
X160030000Y-58800000D03*
X162570000Y-61340000D03*
X162570000Y-58800000D03*
X165110000Y-61340000D03*
X165110000Y-58800000D03*
X167650000Y-61340000D03*
G36*
G01*
X166800000Y-57900000D02*
X168500000Y-57900000D01*
G75*
G02*
X168550000Y-57950000I0J-50000D01*
G01*
X168550000Y-59650000D01*
G75*
G02*
X168500000Y-59700000I-50000J0D01*
G01*
X166800000Y-59700000D01*
G75*
G02*
X166750000Y-59650000I0J50000D01*
G01*
X166750000Y-57950000D01*
G75*
G02*
X166800000Y-57900000I50000J0D01*
G01*
G37*
%TD*%
M02*
