%TF.GenerationSoftware,KiCad,Pcbnew,(5.1.6-0-10_14)*%
%TF.CreationDate,2020-11-01T12:10:01+02:00*%
%TF.ProjectId,SH-ESP32,53482d45-5350-4333-922e-6b696361645f,0.1.0*%
%TF.SameCoordinates,Original*%
%TF.FileFunction,Soldermask,Bot*%
%TF.FilePolarity,Negative*%
%FSLAX46Y46*%
G04 Gerber Fmt 4.6, Leading zero omitted, Abs format (unit mm)*
G04 Created by KiCad (PCBNEW (5.1.6-0-10_14)) date 2020-11-01 12:10:01*
%MOMM*%
%LPD*%
G01*
G04 APERTURE LIST*
%ADD10C,6.400000*%
%ADD11C,0.100000*%
%ADD12R,2.200000X2.200000*%
%ADD13O,1.800000X1.800000*%
%ADD14R,1.800000X1.800000*%
%ADD15O,1.800000X1.100000*%
%ADD16C,0.500000*%
%ADD17O,1.900000X3.700000*%
G04 APERTURE END LIST*
D10*
%TO.C,H1002*%
X156250000Y-104750000D03*
%TD*%
%TO.C,H1001*%
X111750000Y-63000000D03*
%TD*%
D11*
%TO.C,JP209*%
G36*
X155787961Y-62671245D02*
G01*
X155790806Y-62661866D01*
X155795427Y-62653221D01*
X155801645Y-62645645D01*
X155809221Y-62639427D01*
X155817866Y-62634806D01*
X155827245Y-62631961D01*
X155837000Y-62631000D01*
X156837000Y-62631000D01*
X156846755Y-62631961D01*
X156856134Y-62634806D01*
X156864779Y-62639427D01*
X156872355Y-62645645D01*
X156878573Y-62653221D01*
X156883194Y-62661866D01*
X156886039Y-62671245D01*
X156887000Y-62681000D01*
X156887000Y-63831000D01*
X156886039Y-63840755D01*
X156883194Y-63850134D01*
X156878573Y-63858779D01*
X156872355Y-63866355D01*
X156864779Y-63872573D01*
X156856134Y-63877194D01*
X156846755Y-63880039D01*
X156837000Y-63881000D01*
X156827245Y-63880039D01*
X156817866Y-63877194D01*
X156809221Y-63872573D01*
X156801645Y-63866355D01*
X156337000Y-63401710D01*
X155872355Y-63866355D01*
X155864779Y-63872573D01*
X155856134Y-63877194D01*
X155846755Y-63880039D01*
X155837000Y-63881000D01*
X155827245Y-63880039D01*
X155817866Y-63877194D01*
X155809221Y-63872573D01*
X155801645Y-63866355D01*
X155795427Y-63858779D01*
X155790806Y-63850134D01*
X155787961Y-63840755D01*
X155787000Y-63831000D01*
X155787000Y-62681000D01*
X155787961Y-62671245D01*
G37*
G36*
X155787961Y-64096245D02*
G01*
X155790806Y-64086866D01*
X155795427Y-64078221D01*
X155801645Y-64070645D01*
X156301645Y-63570645D01*
X156309221Y-63564427D01*
X156317866Y-63559806D01*
X156327245Y-63556961D01*
X156337000Y-63556000D01*
X156346755Y-63556961D01*
X156356134Y-63559806D01*
X156364779Y-63564427D01*
X156372355Y-63570645D01*
X156872355Y-64070645D01*
X156878573Y-64078221D01*
X156883194Y-64086866D01*
X156886039Y-64096245D01*
X156887000Y-64106000D01*
X156887000Y-65106000D01*
X156886039Y-65115755D01*
X156883194Y-65125134D01*
X156878573Y-65133779D01*
X156872355Y-65141355D01*
X156864779Y-65147573D01*
X156856134Y-65152194D01*
X156846755Y-65155039D01*
X156837000Y-65156000D01*
X155837000Y-65156000D01*
X155827245Y-65155039D01*
X155817866Y-65152194D01*
X155809221Y-65147573D01*
X155801645Y-65141355D01*
X155795427Y-65133779D01*
X155790806Y-65125134D01*
X155787961Y-65115755D01*
X155787000Y-65106000D01*
X155787000Y-64106000D01*
X155787961Y-64096245D01*
G37*
%TD*%
%TO.C,JP208*%
G36*
X157819961Y-62671245D02*
G01*
X157822806Y-62661866D01*
X157827427Y-62653221D01*
X157833645Y-62645645D01*
X157841221Y-62639427D01*
X157849866Y-62634806D01*
X157859245Y-62631961D01*
X157869000Y-62631000D01*
X158869000Y-62631000D01*
X158878755Y-62631961D01*
X158888134Y-62634806D01*
X158896779Y-62639427D01*
X158904355Y-62645645D01*
X158910573Y-62653221D01*
X158915194Y-62661866D01*
X158918039Y-62671245D01*
X158919000Y-62681000D01*
X158919000Y-63831000D01*
X158918039Y-63840755D01*
X158915194Y-63850134D01*
X158910573Y-63858779D01*
X158904355Y-63866355D01*
X158896779Y-63872573D01*
X158888134Y-63877194D01*
X158878755Y-63880039D01*
X158869000Y-63881000D01*
X158859245Y-63880039D01*
X158849866Y-63877194D01*
X158841221Y-63872573D01*
X158833645Y-63866355D01*
X158369000Y-63401710D01*
X157904355Y-63866355D01*
X157896779Y-63872573D01*
X157888134Y-63877194D01*
X157878755Y-63880039D01*
X157869000Y-63881000D01*
X157859245Y-63880039D01*
X157849866Y-63877194D01*
X157841221Y-63872573D01*
X157833645Y-63866355D01*
X157827427Y-63858779D01*
X157822806Y-63850134D01*
X157819961Y-63840755D01*
X157819000Y-63831000D01*
X157819000Y-62681000D01*
X157819961Y-62671245D01*
G37*
G36*
X157819961Y-64096245D02*
G01*
X157822806Y-64086866D01*
X157827427Y-64078221D01*
X157833645Y-64070645D01*
X158333645Y-63570645D01*
X158341221Y-63564427D01*
X158349866Y-63559806D01*
X158359245Y-63556961D01*
X158369000Y-63556000D01*
X158378755Y-63556961D01*
X158388134Y-63559806D01*
X158396779Y-63564427D01*
X158404355Y-63570645D01*
X158904355Y-64070645D01*
X158910573Y-64078221D01*
X158915194Y-64086866D01*
X158918039Y-64096245D01*
X158919000Y-64106000D01*
X158919000Y-65106000D01*
X158918039Y-65115755D01*
X158915194Y-65125134D01*
X158910573Y-65133779D01*
X158904355Y-65141355D01*
X158896779Y-65147573D01*
X158888134Y-65152194D01*
X158878755Y-65155039D01*
X158869000Y-65156000D01*
X157869000Y-65156000D01*
X157859245Y-65155039D01*
X157849866Y-65152194D01*
X157841221Y-65147573D01*
X157833645Y-65141355D01*
X157827427Y-65133779D01*
X157822806Y-65125134D01*
X157819961Y-65115755D01*
X157819000Y-65106000D01*
X157819000Y-64106000D01*
X157819961Y-64096245D01*
G37*
%TD*%
%TO.C,JP207*%
G36*
X155025961Y-80361245D02*
G01*
X155028806Y-80351866D01*
X155033427Y-80343221D01*
X155039645Y-80335645D01*
X155047221Y-80329427D01*
X155055866Y-80324806D01*
X155065245Y-80321961D01*
X155075000Y-80321000D01*
X156075000Y-80321000D01*
X156084755Y-80321961D01*
X156094134Y-80324806D01*
X156102779Y-80329427D01*
X156110355Y-80335645D01*
X156116573Y-80343221D01*
X156121194Y-80351866D01*
X156124039Y-80361245D01*
X156125000Y-80371000D01*
X156125000Y-81521000D01*
X156124039Y-81530755D01*
X156121194Y-81540134D01*
X156116573Y-81548779D01*
X156110355Y-81556355D01*
X156102779Y-81562573D01*
X156094134Y-81567194D01*
X156084755Y-81570039D01*
X156075000Y-81571000D01*
X156065245Y-81570039D01*
X156055866Y-81567194D01*
X156047221Y-81562573D01*
X156039645Y-81556355D01*
X155575000Y-81091710D01*
X155110355Y-81556355D01*
X155102779Y-81562573D01*
X155094134Y-81567194D01*
X155084755Y-81570039D01*
X155075000Y-81571000D01*
X155065245Y-81570039D01*
X155055866Y-81567194D01*
X155047221Y-81562573D01*
X155039645Y-81556355D01*
X155033427Y-81548779D01*
X155028806Y-81540134D01*
X155025961Y-81530755D01*
X155025000Y-81521000D01*
X155025000Y-80371000D01*
X155025961Y-80361245D01*
G37*
G36*
X155025961Y-81786245D02*
G01*
X155028806Y-81776866D01*
X155033427Y-81768221D01*
X155039645Y-81760645D01*
X155539645Y-81260645D01*
X155547221Y-81254427D01*
X155555866Y-81249806D01*
X155565245Y-81246961D01*
X155575000Y-81246000D01*
X155584755Y-81246961D01*
X155594134Y-81249806D01*
X155602779Y-81254427D01*
X155610355Y-81260645D01*
X156110355Y-81760645D01*
X156116573Y-81768221D01*
X156121194Y-81776866D01*
X156124039Y-81786245D01*
X156125000Y-81796000D01*
X156125000Y-82796000D01*
X156124039Y-82805755D01*
X156121194Y-82815134D01*
X156116573Y-82823779D01*
X156110355Y-82831355D01*
X156102779Y-82837573D01*
X156094134Y-82842194D01*
X156084755Y-82845039D01*
X156075000Y-82846000D01*
X155075000Y-82846000D01*
X155065245Y-82845039D01*
X155055866Y-82842194D01*
X155047221Y-82837573D01*
X155039645Y-82831355D01*
X155033427Y-82823779D01*
X155028806Y-82815134D01*
X155025961Y-82805755D01*
X155025000Y-82796000D01*
X155025000Y-81796000D01*
X155025961Y-81786245D01*
G37*
%TD*%
%TO.C,JP206*%
G36*
X159089961Y-80324245D02*
G01*
X159092806Y-80314866D01*
X159097427Y-80306221D01*
X159103645Y-80298645D01*
X159111221Y-80292427D01*
X159119866Y-80287806D01*
X159129245Y-80284961D01*
X159139000Y-80284000D01*
X160139000Y-80284000D01*
X160148755Y-80284961D01*
X160158134Y-80287806D01*
X160166779Y-80292427D01*
X160174355Y-80298645D01*
X160180573Y-80306221D01*
X160185194Y-80314866D01*
X160188039Y-80324245D01*
X160189000Y-80334000D01*
X160189000Y-81484000D01*
X160188039Y-81493755D01*
X160185194Y-81503134D01*
X160180573Y-81511779D01*
X160174355Y-81519355D01*
X160166779Y-81525573D01*
X160158134Y-81530194D01*
X160148755Y-81533039D01*
X160139000Y-81534000D01*
X160129245Y-81533039D01*
X160119866Y-81530194D01*
X160111221Y-81525573D01*
X160103645Y-81519355D01*
X159639000Y-81054710D01*
X159174355Y-81519355D01*
X159166779Y-81525573D01*
X159158134Y-81530194D01*
X159148755Y-81533039D01*
X159139000Y-81534000D01*
X159129245Y-81533039D01*
X159119866Y-81530194D01*
X159111221Y-81525573D01*
X159103645Y-81519355D01*
X159097427Y-81511779D01*
X159092806Y-81503134D01*
X159089961Y-81493755D01*
X159089000Y-81484000D01*
X159089000Y-80334000D01*
X159089961Y-80324245D01*
G37*
G36*
X159089961Y-81749245D02*
G01*
X159092806Y-81739866D01*
X159097427Y-81731221D01*
X159103645Y-81723645D01*
X159603645Y-81223645D01*
X159611221Y-81217427D01*
X159619866Y-81212806D01*
X159629245Y-81209961D01*
X159639000Y-81209000D01*
X159648755Y-81209961D01*
X159658134Y-81212806D01*
X159666779Y-81217427D01*
X159674355Y-81223645D01*
X160174355Y-81723645D01*
X160180573Y-81731221D01*
X160185194Y-81739866D01*
X160188039Y-81749245D01*
X160189000Y-81759000D01*
X160189000Y-82759000D01*
X160188039Y-82768755D01*
X160185194Y-82778134D01*
X160180573Y-82786779D01*
X160174355Y-82794355D01*
X160166779Y-82800573D01*
X160158134Y-82805194D01*
X160148755Y-82808039D01*
X160139000Y-82809000D01*
X159139000Y-82809000D01*
X159129245Y-82808039D01*
X159119866Y-82805194D01*
X159111221Y-82800573D01*
X159103645Y-82794355D01*
X159097427Y-82786779D01*
X159092806Y-82778134D01*
X159089961Y-82768755D01*
X159089000Y-82759000D01*
X159089000Y-81759000D01*
X159089961Y-81749245D01*
G37*
%TD*%
%TO.C,JP205*%
G36*
X160994961Y-80324245D02*
G01*
X160997806Y-80314866D01*
X161002427Y-80306221D01*
X161008645Y-80298645D01*
X161016221Y-80292427D01*
X161024866Y-80287806D01*
X161034245Y-80284961D01*
X161044000Y-80284000D01*
X162044000Y-80284000D01*
X162053755Y-80284961D01*
X162063134Y-80287806D01*
X162071779Y-80292427D01*
X162079355Y-80298645D01*
X162085573Y-80306221D01*
X162090194Y-80314866D01*
X162093039Y-80324245D01*
X162094000Y-80334000D01*
X162094000Y-81484000D01*
X162093039Y-81493755D01*
X162090194Y-81503134D01*
X162085573Y-81511779D01*
X162079355Y-81519355D01*
X162071779Y-81525573D01*
X162063134Y-81530194D01*
X162053755Y-81533039D01*
X162044000Y-81534000D01*
X162034245Y-81533039D01*
X162024866Y-81530194D01*
X162016221Y-81525573D01*
X162008645Y-81519355D01*
X161544000Y-81054710D01*
X161079355Y-81519355D01*
X161071779Y-81525573D01*
X161063134Y-81530194D01*
X161053755Y-81533039D01*
X161044000Y-81534000D01*
X161034245Y-81533039D01*
X161024866Y-81530194D01*
X161016221Y-81525573D01*
X161008645Y-81519355D01*
X161002427Y-81511779D01*
X160997806Y-81503134D01*
X160994961Y-81493755D01*
X160994000Y-81484000D01*
X160994000Y-80334000D01*
X160994961Y-80324245D01*
G37*
G36*
X160994961Y-81749245D02*
G01*
X160997806Y-81739866D01*
X161002427Y-81731221D01*
X161008645Y-81723645D01*
X161508645Y-81223645D01*
X161516221Y-81217427D01*
X161524866Y-81212806D01*
X161534245Y-81209961D01*
X161544000Y-81209000D01*
X161553755Y-81209961D01*
X161563134Y-81212806D01*
X161571779Y-81217427D01*
X161579355Y-81223645D01*
X162079355Y-81723645D01*
X162085573Y-81731221D01*
X162090194Y-81739866D01*
X162093039Y-81749245D01*
X162094000Y-81759000D01*
X162094000Y-82759000D01*
X162093039Y-82768755D01*
X162090194Y-82778134D01*
X162085573Y-82786779D01*
X162079355Y-82794355D01*
X162071779Y-82800573D01*
X162063134Y-82805194D01*
X162053755Y-82808039D01*
X162044000Y-82809000D01*
X161044000Y-82809000D01*
X161034245Y-82808039D01*
X161024866Y-82805194D01*
X161016221Y-82800573D01*
X161008645Y-82794355D01*
X161002427Y-82786779D01*
X160997806Y-82778134D01*
X160994961Y-82768755D01*
X160994000Y-82759000D01*
X160994000Y-81759000D01*
X160994961Y-81749245D01*
G37*
%TD*%
%TO.C,JP204*%
G36*
X162899961Y-80324245D02*
G01*
X162902806Y-80314866D01*
X162907427Y-80306221D01*
X162913645Y-80298645D01*
X162921221Y-80292427D01*
X162929866Y-80287806D01*
X162939245Y-80284961D01*
X162949000Y-80284000D01*
X163949000Y-80284000D01*
X163958755Y-80284961D01*
X163968134Y-80287806D01*
X163976779Y-80292427D01*
X163984355Y-80298645D01*
X163990573Y-80306221D01*
X163995194Y-80314866D01*
X163998039Y-80324245D01*
X163999000Y-80334000D01*
X163999000Y-81484000D01*
X163998039Y-81493755D01*
X163995194Y-81503134D01*
X163990573Y-81511779D01*
X163984355Y-81519355D01*
X163976779Y-81525573D01*
X163968134Y-81530194D01*
X163958755Y-81533039D01*
X163949000Y-81534000D01*
X163939245Y-81533039D01*
X163929866Y-81530194D01*
X163921221Y-81525573D01*
X163913645Y-81519355D01*
X163449000Y-81054710D01*
X162984355Y-81519355D01*
X162976779Y-81525573D01*
X162968134Y-81530194D01*
X162958755Y-81533039D01*
X162949000Y-81534000D01*
X162939245Y-81533039D01*
X162929866Y-81530194D01*
X162921221Y-81525573D01*
X162913645Y-81519355D01*
X162907427Y-81511779D01*
X162902806Y-81503134D01*
X162899961Y-81493755D01*
X162899000Y-81484000D01*
X162899000Y-80334000D01*
X162899961Y-80324245D01*
G37*
G36*
X162899961Y-81749245D02*
G01*
X162902806Y-81739866D01*
X162907427Y-81731221D01*
X162913645Y-81723645D01*
X163413645Y-81223645D01*
X163421221Y-81217427D01*
X163429866Y-81212806D01*
X163439245Y-81209961D01*
X163449000Y-81209000D01*
X163458755Y-81209961D01*
X163468134Y-81212806D01*
X163476779Y-81217427D01*
X163484355Y-81223645D01*
X163984355Y-81723645D01*
X163990573Y-81731221D01*
X163995194Y-81739866D01*
X163998039Y-81749245D01*
X163999000Y-81759000D01*
X163999000Y-82759000D01*
X163998039Y-82768755D01*
X163995194Y-82778134D01*
X163990573Y-82786779D01*
X163984355Y-82794355D01*
X163976779Y-82800573D01*
X163968134Y-82805194D01*
X163958755Y-82808039D01*
X163949000Y-82809000D01*
X162949000Y-82809000D01*
X162939245Y-82808039D01*
X162929866Y-82805194D01*
X162921221Y-82800573D01*
X162913645Y-82794355D01*
X162907427Y-82786779D01*
X162902806Y-82778134D01*
X162899961Y-82768755D01*
X162899000Y-82759000D01*
X162899000Y-81759000D01*
X162899961Y-81749245D01*
G37*
%TD*%
%TO.C,JP203*%
G36*
X164804961Y-80324245D02*
G01*
X164807806Y-80314866D01*
X164812427Y-80306221D01*
X164818645Y-80298645D01*
X164826221Y-80292427D01*
X164834866Y-80287806D01*
X164844245Y-80284961D01*
X164854000Y-80284000D01*
X165854000Y-80284000D01*
X165863755Y-80284961D01*
X165873134Y-80287806D01*
X165881779Y-80292427D01*
X165889355Y-80298645D01*
X165895573Y-80306221D01*
X165900194Y-80314866D01*
X165903039Y-80324245D01*
X165904000Y-80334000D01*
X165904000Y-81484000D01*
X165903039Y-81493755D01*
X165900194Y-81503134D01*
X165895573Y-81511779D01*
X165889355Y-81519355D01*
X165881779Y-81525573D01*
X165873134Y-81530194D01*
X165863755Y-81533039D01*
X165854000Y-81534000D01*
X165844245Y-81533039D01*
X165834866Y-81530194D01*
X165826221Y-81525573D01*
X165818645Y-81519355D01*
X165354000Y-81054710D01*
X164889355Y-81519355D01*
X164881779Y-81525573D01*
X164873134Y-81530194D01*
X164863755Y-81533039D01*
X164854000Y-81534000D01*
X164844245Y-81533039D01*
X164834866Y-81530194D01*
X164826221Y-81525573D01*
X164818645Y-81519355D01*
X164812427Y-81511779D01*
X164807806Y-81503134D01*
X164804961Y-81493755D01*
X164804000Y-81484000D01*
X164804000Y-80334000D01*
X164804961Y-80324245D01*
G37*
G36*
X164804961Y-81749245D02*
G01*
X164807806Y-81739866D01*
X164812427Y-81731221D01*
X164818645Y-81723645D01*
X165318645Y-81223645D01*
X165326221Y-81217427D01*
X165334866Y-81212806D01*
X165344245Y-81209961D01*
X165354000Y-81209000D01*
X165363755Y-81209961D01*
X165373134Y-81212806D01*
X165381779Y-81217427D01*
X165389355Y-81223645D01*
X165889355Y-81723645D01*
X165895573Y-81731221D01*
X165900194Y-81739866D01*
X165903039Y-81749245D01*
X165904000Y-81759000D01*
X165904000Y-82759000D01*
X165903039Y-82768755D01*
X165900194Y-82778134D01*
X165895573Y-82786779D01*
X165889355Y-82794355D01*
X165881779Y-82800573D01*
X165873134Y-82805194D01*
X165863755Y-82808039D01*
X165854000Y-82809000D01*
X164854000Y-82809000D01*
X164844245Y-82808039D01*
X164834866Y-82805194D01*
X164826221Y-82800573D01*
X164818645Y-82794355D01*
X164812427Y-82786779D01*
X164807806Y-82778134D01*
X164804961Y-82768755D01*
X164804000Y-82759000D01*
X164804000Y-81759000D01*
X164804961Y-81749245D01*
G37*
%TD*%
%TO.C,JP202*%
G36*
X166709961Y-80324245D02*
G01*
X166712806Y-80314866D01*
X166717427Y-80306221D01*
X166723645Y-80298645D01*
X166731221Y-80292427D01*
X166739866Y-80287806D01*
X166749245Y-80284961D01*
X166759000Y-80284000D01*
X167759000Y-80284000D01*
X167768755Y-80284961D01*
X167778134Y-80287806D01*
X167786779Y-80292427D01*
X167794355Y-80298645D01*
X167800573Y-80306221D01*
X167805194Y-80314866D01*
X167808039Y-80324245D01*
X167809000Y-80334000D01*
X167809000Y-81484000D01*
X167808039Y-81493755D01*
X167805194Y-81503134D01*
X167800573Y-81511779D01*
X167794355Y-81519355D01*
X167786779Y-81525573D01*
X167778134Y-81530194D01*
X167768755Y-81533039D01*
X167759000Y-81534000D01*
X167749245Y-81533039D01*
X167739866Y-81530194D01*
X167731221Y-81525573D01*
X167723645Y-81519355D01*
X167259000Y-81054710D01*
X166794355Y-81519355D01*
X166786779Y-81525573D01*
X166778134Y-81530194D01*
X166768755Y-81533039D01*
X166759000Y-81534000D01*
X166749245Y-81533039D01*
X166739866Y-81530194D01*
X166731221Y-81525573D01*
X166723645Y-81519355D01*
X166717427Y-81511779D01*
X166712806Y-81503134D01*
X166709961Y-81493755D01*
X166709000Y-81484000D01*
X166709000Y-80334000D01*
X166709961Y-80324245D01*
G37*
G36*
X166709961Y-81749245D02*
G01*
X166712806Y-81739866D01*
X166717427Y-81731221D01*
X166723645Y-81723645D01*
X167223645Y-81223645D01*
X167231221Y-81217427D01*
X167239866Y-81212806D01*
X167249245Y-81209961D01*
X167259000Y-81209000D01*
X167268755Y-81209961D01*
X167278134Y-81212806D01*
X167286779Y-81217427D01*
X167294355Y-81223645D01*
X167794355Y-81723645D01*
X167800573Y-81731221D01*
X167805194Y-81739866D01*
X167808039Y-81749245D01*
X167809000Y-81759000D01*
X167809000Y-82759000D01*
X167808039Y-82768755D01*
X167805194Y-82778134D01*
X167800573Y-82786779D01*
X167794355Y-82794355D01*
X167786779Y-82800573D01*
X167778134Y-82805194D01*
X167768755Y-82808039D01*
X167759000Y-82809000D01*
X166759000Y-82809000D01*
X166749245Y-82808039D01*
X166739866Y-82805194D01*
X166731221Y-82800573D01*
X166723645Y-82794355D01*
X166717427Y-82786779D01*
X166712806Y-82778134D01*
X166709961Y-82768755D01*
X166709000Y-82759000D01*
X166709000Y-81759000D01*
X166709961Y-81749245D01*
G37*
%TD*%
%TO.C,JP201*%
G36*
X168614961Y-80324245D02*
G01*
X168617806Y-80314866D01*
X168622427Y-80306221D01*
X168628645Y-80298645D01*
X168636221Y-80292427D01*
X168644866Y-80287806D01*
X168654245Y-80284961D01*
X168664000Y-80284000D01*
X169664000Y-80284000D01*
X169673755Y-80284961D01*
X169683134Y-80287806D01*
X169691779Y-80292427D01*
X169699355Y-80298645D01*
X169705573Y-80306221D01*
X169710194Y-80314866D01*
X169713039Y-80324245D01*
X169714000Y-80334000D01*
X169714000Y-81484000D01*
X169713039Y-81493755D01*
X169710194Y-81503134D01*
X169705573Y-81511779D01*
X169699355Y-81519355D01*
X169691779Y-81525573D01*
X169683134Y-81530194D01*
X169673755Y-81533039D01*
X169664000Y-81534000D01*
X169654245Y-81533039D01*
X169644866Y-81530194D01*
X169636221Y-81525573D01*
X169628645Y-81519355D01*
X169164000Y-81054710D01*
X168699355Y-81519355D01*
X168691779Y-81525573D01*
X168683134Y-81530194D01*
X168673755Y-81533039D01*
X168664000Y-81534000D01*
X168654245Y-81533039D01*
X168644866Y-81530194D01*
X168636221Y-81525573D01*
X168628645Y-81519355D01*
X168622427Y-81511779D01*
X168617806Y-81503134D01*
X168614961Y-81493755D01*
X168614000Y-81484000D01*
X168614000Y-80334000D01*
X168614961Y-80324245D01*
G37*
G36*
X168614961Y-81749245D02*
G01*
X168617806Y-81739866D01*
X168622427Y-81731221D01*
X168628645Y-81723645D01*
X169128645Y-81223645D01*
X169136221Y-81217427D01*
X169144866Y-81212806D01*
X169154245Y-81209961D01*
X169164000Y-81209000D01*
X169173755Y-81209961D01*
X169183134Y-81212806D01*
X169191779Y-81217427D01*
X169199355Y-81223645D01*
X169699355Y-81723645D01*
X169705573Y-81731221D01*
X169710194Y-81739866D01*
X169713039Y-81749245D01*
X169714000Y-81759000D01*
X169714000Y-82759000D01*
X169713039Y-82768755D01*
X169710194Y-82778134D01*
X169705573Y-82786779D01*
X169699355Y-82794355D01*
X169691779Y-82800573D01*
X169683134Y-82805194D01*
X169673755Y-82808039D01*
X169664000Y-82809000D01*
X168664000Y-82809000D01*
X168654245Y-82808039D01*
X168644866Y-82805194D01*
X168636221Y-82800573D01*
X168628645Y-82794355D01*
X168622427Y-82786779D01*
X168617806Y-82778134D01*
X168614961Y-82768755D01*
X168614000Y-82759000D01*
X168614000Y-81759000D01*
X168614961Y-81749245D01*
G37*
%TD*%
D12*
%TO.C,REF\u002A\u002A*%
X109220000Y-68580000D03*
%TD*%
%TO.C,REF\u002A\u002A*%
X106680000Y-68580000D03*
%TD*%
%TO.C,REF\u002A\u002A*%
X147320000Y-68580000D03*
%TD*%
%TO.C,REF\u002A\u002A*%
X147320000Y-71120000D03*
%TD*%
%TO.C,REF\u002A\u002A*%
X144780000Y-68580000D03*
%TD*%
%TO.C,REF\u002A\u002A*%
X147320000Y-76200000D03*
%TD*%
%TO.C,REF\u002A\u002A*%
X147320000Y-78740000D03*
%TD*%
%TO.C,REF\u002A\u002A*%
X147320000Y-81280000D03*
%TD*%
%TO.C,REF\u002A\u002A*%
X147320000Y-73660000D03*
%TD*%
%TO.C,REF\u002A\u002A*%
X147320000Y-83820000D03*
%TD*%
%TO.C,REF\u002A\u002A*%
X124460000Y-68580000D03*
%TD*%
%TO.C,REF\u002A\u002A*%
X114300000Y-68580000D03*
%TD*%
%TO.C,REF\u002A\u002A*%
X132080000Y-68580000D03*
%TD*%
%TO.C,REF\u002A\u002A*%
X127000000Y-68580000D03*
%TD*%
%TO.C,REF\u002A\u002A*%
X129540000Y-68580000D03*
%TD*%
%TO.C,REF\u002A\u002A*%
X119380000Y-68580000D03*
%TD*%
%TO.C,REF\u002A\u002A*%
X139700000Y-68580000D03*
%TD*%
%TO.C,REF\u002A\u002A*%
X137160000Y-68580000D03*
%TD*%
%TO.C,REF\u002A\u002A*%
X116840000Y-68580000D03*
%TD*%
%TO.C,REF\u002A\u002A*%
X111760000Y-68580000D03*
%TD*%
%TO.C,REF\u002A\u002A*%
X134620000Y-68580000D03*
%TD*%
%TO.C,REF\u002A\u002A*%
X121920000Y-68580000D03*
%TD*%
%TO.C,REF\u002A\u002A*%
X142240000Y-68580000D03*
%TD*%
%TO.C,REF\u002A\u002A*%
X121920000Y-83820000D03*
%TD*%
%TO.C,REF\u002A\u002A*%
X109220000Y-83820000D03*
%TD*%
%TO.C,REF\u002A\u002A*%
X111760000Y-83820000D03*
%TD*%
%TO.C,REF\u002A\u002A*%
X127000000Y-83820000D03*
%TD*%
%TO.C,REF\u002A\u002A*%
X134620000Y-83820000D03*
%TD*%
%TO.C,REF\u002A\u002A*%
X119380000Y-83820000D03*
%TD*%
%TO.C,REF\u002A\u002A*%
X137160000Y-83820000D03*
%TD*%
%TO.C,REF\u002A\u002A*%
X139700000Y-83820000D03*
%TD*%
%TO.C,REF\u002A\u002A*%
X142240000Y-83820000D03*
%TD*%
%TO.C,REF\u002A\u002A*%
X144780000Y-83820000D03*
%TD*%
%TO.C,REF\u002A\u002A*%
X124460000Y-83820000D03*
%TD*%
%TO.C,REF\u002A\u002A*%
X106680000Y-83820000D03*
%TD*%
%TO.C,REF\u002A\u002A*%
X114300000Y-83820000D03*
%TD*%
%TO.C,REF\u002A\u002A*%
X116840000Y-83820000D03*
%TD*%
%TO.C,REF\u002A\u002A*%
X132080000Y-83820000D03*
%TD*%
%TO.C,REF\u002A\u002A*%
X129540000Y-83820000D03*
%TD*%
%TO.C,REF\u002A\u002A*%
X114300000Y-73660000D03*
%TD*%
%TO.C,REF\u002A\u002A*%
X111760000Y-71120000D03*
%TD*%
%TO.C,REF\u002A\u002A*%
X111760000Y-76200000D03*
%TD*%
%TO.C,REF\u002A\u002A*%
X124460000Y-76200000D03*
%TD*%
%TO.C,REF\u002A\u002A*%
X106680000Y-71120000D03*
%TD*%
%TO.C,REF\u002A\u002A*%
X106680000Y-81280000D03*
%TD*%
%TO.C,REF\u002A\u002A*%
X106680000Y-76200000D03*
%TD*%
%TO.C,REF\u002A\u002A*%
X106680000Y-78740000D03*
%TD*%
%TO.C,REF\u002A\u002A*%
X109220000Y-76200000D03*
%TD*%
%TO.C,REF\u002A\u002A*%
X109220000Y-78740000D03*
%TD*%
%TO.C,REF\u002A\u002A*%
X109220000Y-71120000D03*
%TD*%
%TO.C,REF\u002A\u002A*%
X109220000Y-73660000D03*
%TD*%
%TO.C,REF\u002A\u002A*%
X106680000Y-73660000D03*
%TD*%
%TO.C,REF\u002A\u002A*%
X114300000Y-76200000D03*
%TD*%
%TO.C,REF\u002A\u002A*%
X114300000Y-78740000D03*
%TD*%
%TO.C,REF\u002A\u002A*%
X111760000Y-73660000D03*
%TD*%
%TO.C,REF\u002A\u002A*%
X114300000Y-81280000D03*
%TD*%
%TO.C,REF\u002A\u002A*%
X111760000Y-78740000D03*
%TD*%
%TO.C,REF\u002A\u002A*%
X124460000Y-78740000D03*
%TD*%
%TO.C,REF\u002A\u002A*%
X116840000Y-81280000D03*
%TD*%
%TO.C,REF\u002A\u002A*%
X116840000Y-76200000D03*
%TD*%
%TO.C,REF\u002A\u002A*%
X116840000Y-78740000D03*
%TD*%
%TO.C,REF\u002A\u002A*%
X119380000Y-76200000D03*
%TD*%
%TO.C,REF\u002A\u002A*%
X119380000Y-78740000D03*
%TD*%
%TO.C,REF\u002A\u002A*%
X119380000Y-71120000D03*
%TD*%
%TO.C,REF\u002A\u002A*%
X119380000Y-73660000D03*
%TD*%
%TO.C,REF\u002A\u002A*%
X116840000Y-73660000D03*
%TD*%
%TO.C,REF\u002A\u002A*%
X116840000Y-71120000D03*
%TD*%
%TO.C,REF\u002A\u002A*%
X119380000Y-81280000D03*
%TD*%
%TO.C,REF\u002A\u002A*%
X121920000Y-76200000D03*
%TD*%
%TO.C,REF\u002A\u002A*%
X121920000Y-78740000D03*
%TD*%
%TO.C,REF\u002A\u002A*%
X121920000Y-81280000D03*
%TD*%
%TO.C,REF\u002A\u002A*%
X121920000Y-73660000D03*
%TD*%
%TO.C,REF\u002A\u002A*%
X121920000Y-71120000D03*
%TD*%
%TO.C,REF\u002A\u002A*%
X124460000Y-81280000D03*
%TD*%
%TO.C,REF\u002A\u002A*%
X124460000Y-73660000D03*
%TD*%
%TO.C,REF\u002A\u002A*%
X114300000Y-71120000D03*
%TD*%
%TO.C,REF\u002A\u002A*%
X111760000Y-81280000D03*
%TD*%
%TO.C,REF\u002A\u002A*%
X109220000Y-81280000D03*
%TD*%
%TO.C,REF\u002A\u002A*%
X124460000Y-71120000D03*
%TD*%
%TO.C,REF\u002A\u002A*%
X134620000Y-76200000D03*
%TD*%
%TO.C,REF\u002A\u002A*%
X134620000Y-78740000D03*
%TD*%
%TO.C,REF\u002A\u002A*%
X127000000Y-81280000D03*
%TD*%
%TO.C,REF\u002A\u002A*%
X127000000Y-76200000D03*
%TD*%
%TO.C,REF\u002A\u002A*%
X127000000Y-78740000D03*
%TD*%
%TO.C,REF\u002A\u002A*%
X129540000Y-76200000D03*
%TD*%
%TO.C,REF\u002A\u002A*%
X129540000Y-78740000D03*
%TD*%
%TO.C,REF\u002A\u002A*%
X129540000Y-71120000D03*
%TD*%
%TO.C,REF\u002A\u002A*%
X129540000Y-73660000D03*
%TD*%
%TO.C,REF\u002A\u002A*%
X127000000Y-73660000D03*
%TD*%
%TO.C,REF\u002A\u002A*%
X127000000Y-71120000D03*
%TD*%
%TO.C,REF\u002A\u002A*%
X129540000Y-81280000D03*
%TD*%
%TO.C,REF\u002A\u002A*%
X132080000Y-76200000D03*
%TD*%
%TO.C,REF\u002A\u002A*%
X132080000Y-78740000D03*
%TD*%
%TO.C,REF\u002A\u002A*%
X132080000Y-81280000D03*
%TD*%
%TO.C,REF\u002A\u002A*%
X132080000Y-73660000D03*
%TD*%
%TO.C,REF\u002A\u002A*%
X132080000Y-71120000D03*
%TD*%
%TO.C,REF\u002A\u002A*%
X134620000Y-81280000D03*
%TD*%
%TO.C,REF\u002A\u002A*%
X134620000Y-73660000D03*
%TD*%
%TO.C,REF\u002A\u002A*%
X134620000Y-71120000D03*
%TD*%
%TO.C,REF\u002A\u002A*%
X139700000Y-76200000D03*
%TD*%
%TO.C,REF\u002A\u002A*%
X139700000Y-78740000D03*
%TD*%
%TO.C,REF\u002A\u002A*%
X137160000Y-76200000D03*
%TD*%
%TO.C,REF\u002A\u002A*%
X137160000Y-78740000D03*
%TD*%
%TO.C,REF\u002A\u002A*%
X137160000Y-81280000D03*
%TD*%
%TO.C,REF\u002A\u002A*%
X137160000Y-73660000D03*
%TD*%
%TO.C,REF\u002A\u002A*%
X137160000Y-71120000D03*
%TD*%
%TO.C,REF\u002A\u002A*%
X139700000Y-81280000D03*
%TD*%
%TO.C,REF\u002A\u002A*%
X139700000Y-73660000D03*
%TD*%
%TO.C,REF\u002A\u002A*%
X139700000Y-71120000D03*
%TD*%
%TO.C,REF\u002A\u002A*%
X142240000Y-76200000D03*
%TD*%
%TO.C,REF\u002A\u002A*%
X142240000Y-78740000D03*
%TD*%
%TO.C,REF\u002A\u002A*%
X142240000Y-81280000D03*
%TD*%
%TO.C,REF\u002A\u002A*%
X142240000Y-73660000D03*
%TD*%
%TO.C,REF\u002A\u002A*%
X142240000Y-71120000D03*
%TD*%
%TO.C,REF\u002A\u002A*%
X144780000Y-73660000D03*
%TD*%
%TO.C,REF\u002A\u002A*%
X144780000Y-71120000D03*
%TD*%
%TO.C,REF\u002A\u002A*%
X144780000Y-78740000D03*
%TD*%
%TO.C,REF\u002A\u002A*%
X144780000Y-76200000D03*
%TD*%
%TO.C,REF\u002A\u002A*%
X144780000Y-81280000D03*
%TD*%
D13*
%TO.C,J202*%
X101600000Y-83820000D03*
X99060000Y-83820000D03*
X101600000Y-81280000D03*
X99060000Y-81280000D03*
X101600000Y-78740000D03*
X99060000Y-78740000D03*
X101600000Y-76200000D03*
X99060000Y-76200000D03*
X101600000Y-73660000D03*
X99060000Y-73660000D03*
X101600000Y-71120000D03*
X99060000Y-71120000D03*
X101600000Y-68580000D03*
X99060000Y-68580000D03*
X101600000Y-66040000D03*
X99060000Y-66040000D03*
X101600000Y-63500000D03*
X99060000Y-63500000D03*
X101600000Y-60960000D03*
D14*
X99060000Y-60960000D03*
%TD*%
D13*
%TO.C,J201*%
X116840000Y-63500000D03*
X116840000Y-60960000D03*
X119380000Y-63500000D03*
X119380000Y-60960000D03*
X121920000Y-63500000D03*
X121920000Y-60960000D03*
X124460000Y-63500000D03*
X124460000Y-60960000D03*
X127000000Y-63500000D03*
X127000000Y-60960000D03*
X129540000Y-63500000D03*
X129540000Y-60960000D03*
X132080000Y-63500000D03*
X132080000Y-60960000D03*
X134620000Y-63500000D03*
X134620000Y-60960000D03*
X137160000Y-63500000D03*
X137160000Y-60960000D03*
X139700000Y-63500000D03*
X139700000Y-60960000D03*
X142240000Y-63500000D03*
X142240000Y-60960000D03*
X144780000Y-63500000D03*
X144780000Y-60960000D03*
X147320000Y-63500000D03*
D14*
X147320000Y-60960000D03*
%TD*%
D13*
%TO.C,J203*%
X169164000Y-106934000D03*
D14*
X171704000Y-106934000D03*
%TD*%
D15*
%TO.C,J401*%
X176594000Y-94663000D03*
X176594000Y-100313000D03*
D16*
X174244000Y-99488000D03*
X174244000Y-95488000D03*
%TD*%
D14*
%TO.C,JP601*%
X109855000Y-100584000D03*
D13*
X112395000Y-100584000D03*
%TD*%
%TO.C,J301*%
G36*
G01*
X104074000Y-108586389D02*
X104074000Y-111758611D01*
G75*
G02*
X103810111Y-112022500I-263889J0D01*
G01*
X102437889Y-112022500D01*
G75*
G02*
X102174000Y-111758611I0J263889D01*
G01*
X102174000Y-108586389D01*
G75*
G02*
X102437889Y-108322500I263889J0D01*
G01*
X103810111Y-108322500D01*
G75*
G02*
X104074000Y-108586389I0J-263889D01*
G01*
G37*
D17*
X99314000Y-110172500D03*
%TD*%
%TO.C,J601*%
G36*
G01*
X123759000Y-108649889D02*
X123759000Y-111822111D01*
G75*
G02*
X123495111Y-112086000I-263889J0D01*
G01*
X122122889Y-112086000D01*
G75*
G02*
X121859000Y-111822111I0J263889D01*
G01*
X121859000Y-108649889D01*
G75*
G02*
X122122889Y-108386000I263889J0D01*
G01*
X123495111Y-108386000D01*
G75*
G02*
X123759000Y-108649889I0J-263889D01*
G01*
G37*
X118999000Y-110236000D03*
X115189000Y-110236000D03*
X111379000Y-110236000D03*
%TD*%
D14*
%TO.C,J702*%
X143764000Y-102838000D03*
D13*
X143764000Y-100298000D03*
X143764000Y-97758000D03*
X143764000Y-95218000D03*
%TD*%
D14*
%TO.C,J801*%
X146176001Y-113157000D03*
D13*
X148716001Y-113157000D03*
X151256001Y-113157000D03*
%TD*%
%TO.C,J901*%
X137175000Y-113235000D03*
X134635000Y-113235000D03*
X132095000Y-113235000D03*
D14*
X129555000Y-113235000D03*
%TD*%
M02*
