M48
; DRILL file {KiCad (5.1.6-0-10_14)} date Sunday, November 01, 2020 at 12:10:06 PM
; FORMAT={-:-/ absolute / inch / decimal}
; #@! TF.CreationDate,2020-11-01T12:10:06+02:00
; #@! TF.GenerationSoftware,Kicad,Pcbnew,(5.1.6-0-10_14)
; #@! TF.FileFunction,Plated,1,4,PTH
FMAT,2
INCH
T1C0.0079
T2C0.0157
T3C0.0197
T4C0.0236
T5C0.0394
T6C0.0472
%
G90
G05
T1
X6.7075Y-3.841
T2
X3.55Y-2.565
X3.55Y-2.66
X3.55Y-3.02
X3.55Y-3.32
X3.555Y-3.705
X3.56Y-3.665
X3.57Y-3.82
X3.59Y-3.475
X3.59Y-3.565
X3.6Y-4.08
X3.6Y-4.12
X3.6Y-4.16
X3.635Y-3.755
X3.65Y-3.59
X3.66Y-3.83
X3.685Y-2.525
X3.69Y-3.71
X3.695Y-4.26
X3.7Y-3.54
X3.715Y-3.44
X3.72Y-3.63
X3.72Y-3.71
X3.73Y-3.59
X3.735Y-4.08
X3.735Y-4.12
X3.735Y-4.16
X3.755Y-4.235
X3.76Y-2.505
X3.76Y-2.595
X3.76Y-2.685
X3.76Y-2.78
X3.76Y-2.905
X3.76Y-2.995
X3.76Y-3.105
X3.76Y-3.195
X3.76Y-3.895
X3.76Y-4.06
X3.77Y-3.56
X3.775Y-3.62
X3.78Y-3.7
X3.79Y-4.215
X3.795Y-2.4
X3.815Y-3.785
X3.83Y-2.31
X3.84Y-4.095
X3.845Y-3.975
X3.86Y-4.145
X3.895Y-3.44
X3.92Y-3.84
X3.93Y-4.2
X3.94Y-4.0
X3.955Y-2.55
X3.955Y-2.65
X3.955Y-2.75
X3.955Y-2.85
X3.955Y-2.95
X3.955Y-3.05
X3.955Y-3.15
X3.955Y-3.25
X3.955Y-3.35
X3.96Y-2.455
X3.975Y-3.82
X3.975Y-4.1
X3.995Y-3.465
X4.02Y-4.02
X4.03Y-4.1
X4.065Y-3.82
X4.08Y-3.52
X4.095Y-2.31
X4.12Y-2.625
X4.12Y-2.83
X4.12Y-3.06
X4.12Y-3.325
X4.12Y-4.1
X4.135Y-3.93
X4.14Y-3.42
X4.14Y-3.51
X4.23Y-3.975
X4.24Y-4.47
X4.255Y-3.43
X4.26Y-3.83
X4.265Y-2.32
X4.265Y-2.605
X4.285Y-4.155
X4.32Y-3.43
X4.32Y-3.83
X4.4Y-4.21
X4.43Y-2.305
X4.44Y-3.37
X4.44Y-3.83
X4.46Y-4.38
X4.465Y-4.035
X4.465Y-4.16
X4.475Y-4.25
X4.52Y-2.305
X4.52Y-3.92
X4.55Y-2.45
X4.555Y-4.0
X4.605Y-2.605
X4.61Y-4.235
X4.625Y-3.4418
X4.645Y-2.28
X4.645Y-3.65
X4.65Y-2.45
X4.65Y-3.86
X4.665Y-2.625
X4.73Y-2.58
X4.73Y-3.4357
X4.74Y-2.31
X4.75Y-2.45
X4.77Y-3.72
X4.8Y-3.875
X4.815Y-2.565
X4.83Y-2.32
X4.84Y-3.455
X4.855Y-2.45
X4.855Y-3.56
X4.855Y-4.225
X4.89Y-4.48
X4.92Y-2.33
X4.92Y-3.825
X4.95Y-2.455
X4.955Y-3.5
X4.98Y-3.625
X5.01Y-4.485
X5.02Y-4.39
X5.035Y-3.985
X5.05Y-2.45
X5.06Y-3.75
X5.06Y-4.18
X5.09Y-4.23
X5.095Y-3.685
X5.15Y-2.45
X5.15Y-4.14
X5.165Y-3.45
X5.195Y-3.62
X5.2Y-4.39
X5.215Y-3.505
X5.23Y-3.985
X5.25Y-2.45
X5.255Y-3.45
X5.255Y-3.69
X5.26Y-3.74
X5.29Y-4.135
X5.305Y-3.48
X5.35Y-2.45
X5.35Y-4.4
X5.36Y-4.25
X5.37Y-4.16
X5.39Y-3.74
X5.39Y-4.09
X5.395Y-3.52
X5.405Y-3.61
X5.42Y-3.49
X5.42Y-3.445
X5.42Y-4.04
X5.445Y-4.105
X5.45Y-2.45
X5.465Y-4.16
X5.47Y-4.39
X5.5Y-3.48
X5.515Y-3.76
X5.515Y-3.99
X5.52Y-4.35
X5.525Y-4.06
X5.525Y-4.26
X5.54Y-3.615
X5.55Y-2.45
X5.555Y-3.51
X5.61Y-4.295
X5.615Y-3.8
X5.615Y-3.9
X5.625Y-4.445
X5.65Y-2.45
X5.65Y-3.62
X5.685Y-3.68
X5.695Y-3.51
X5.735Y-4.205
X5.7357Y-3.7757
X5.75Y-2.455
X5.75Y-3.93
X5.755Y-3.37
X5.755Y-3.48
X5.76Y-3.715
X5.76Y-4.38
X5.795Y-3.675
X5.795Y-3.765
X5.795Y-4.18
X5.8Y-3.51
X5.815Y-4.075
X5.82Y-4.4
X5.825Y-3.85
X5.84Y-2.64
X5.865Y-2.405
X5.87Y-3.61
X5.8886Y-3.4413
X5.89Y-3.12
X5.89Y-3.21
X5.895Y-3.25
X5.905Y-4.495
X5.92Y-3.165
X5.9274Y-3.6605
X5.9278Y-3.472
X5.93Y-2.48
X5.93Y-3.52
X5.93Y-4.16
X5.9309Y-3.0391
X5.9325Y-3.3975
X5.935Y-4.1
X5.945Y-3.615
X5.95Y-3.245
X5.955Y-2.99
X5.9586Y-3.44
X5.9593Y-2.9502
X5.96Y-4.3933
X5.9604Y-2.8896
X5.9608Y-2.9192
X5.9622Y-2.86
X5.965Y-3.115
X5.965Y-3.165
X5.97Y-3.83
X5.97Y-3.88
X5.975Y-3.36
X5.98Y-3.68
X5.99Y-3.725
X6.0Y-2.61
X6.005Y-2.56
X6.01Y-2.395
X6.01Y-3.39
X6.015Y-3.83
X6.02Y-4.21
X6.025Y-3.305
X6.03Y-3.985
X6.03Y-4.03
X6.04Y-3.43
X6.05Y-2.385
X6.065Y-2.6
X6.065Y-3.265
X6.065Y-2.425
X6.07Y-3.75
X6.07Y-3.8
X6.07Y-4.44
X6.08Y-3.61
X6.08Y-3.945
X6.0827Y-3.1207
X6.0842Y-3.1924
X6.0849Y-2.8072
X6.085Y-3.42
X6.1Y-2.425
X6.105Y-3.025
X6.105Y-3.73
X6.11Y-2.515
X6.11Y-3.57
X6.115Y-2.55
X6.115Y-3.635
X6.1155Y-3.2755
X6.1162Y-2.6117
X6.12Y-2.73
X6.125Y-3.4267
X6.135Y-2.585
X6.135Y-3.495
X6.14Y-3.975
X6.145Y-2.385
X6.15Y-3.86
X6.155Y-2.44
X6.155Y-3.65
X6.16Y-3.08
X6.165Y-2.6
X6.175Y-3.18
X6.18Y-3.275
X6.185Y-3.715
X6.19Y-2.575
X6.19Y-2.735
X6.19Y-2.87
X6.195Y-2.5
X6.195Y-4.29
X6.195Y-4.37
X6.2Y-3.13
X6.21Y-3.275
X6.215Y-2.6
X6.215Y-3.52
X6.2237Y-2.2987
X6.225Y-3.785
X6.225Y-3.965
X6.235Y-2.445
X6.235Y-3.4
X6.235Y-3.475
X6.245Y-3.275
X6.255Y-2.735
X6.255Y-3.645
X6.27Y-2.95
X6.2757Y-2.3043
X6.28Y-2.445
X6.29Y-4.035
X6.29Y-4.21
X6.295Y-2.48
X6.295Y-2.57
X6.295Y-4.125
X6.31Y-3.275
X6.32Y-2.32
X6.33Y-2.565
X6.33Y-3.49
X6.33Y-4.44
X6.335Y-2.29
X6.345Y-3.4
X6.35Y-2.88
X6.35Y-2.96
X6.35Y-3.04
X6.35Y-3.835
X6.3559Y-2.3351
X6.365Y-3.275
X6.365Y-4.035
X6.37Y-2.92
X6.37Y-3.0
X6.375Y-4.255
X6.3878Y-2.372
X6.39Y-2.88
X6.39Y-2.96
X6.39Y-3.04
X6.395Y-3.57
X6.4Y-3.27
X6.41Y-2.34
X6.41Y-2.92
X6.41Y-3.0
X6.41Y-3.405
X6.41Y-3.655
X6.42Y-4.44
X6.425Y-2.3
X6.425Y-4.205
X6.43Y-2.735
X6.43Y-2.88
X6.43Y-2.96
X6.43Y-3.04
X6.435Y-3.45
X6.435Y-3.545
X6.437Y-2.3917
X6.45Y-2.92
X6.45Y-3.0
X6.46Y-3.405
X6.465Y-3.275
X6.47Y-2.88
X6.47Y-2.96
X6.47Y-3.04
X6.475Y-2.35
X6.475Y-3.57
X6.48Y-3.66
X6.49Y-2.92
X6.49Y-3.0
X6.4961Y-2.4158
X6.5Y-3.095
X6.5057Y-2.555
X6.515Y-2.485
X6.515Y-3.275
X6.515Y-4.08
X6.53Y-4.25
X6.535Y-4.295
X6.54Y-2.38
X6.54Y-3.395
X6.54Y-4.37
X6.545Y-2.75
X6.545Y-4.15
X6.555Y-4.075
X6.565Y-3.275
X6.565Y-4.185
X6.575Y-4.12
X6.58Y-2.49
X6.585Y-3.035
X6.605Y-3.57
X6.61Y-3.42
X6.615Y-2.745
X6.6193Y-3.6865
X6.625Y-2.49
X6.625Y-4.265
X6.63Y-3.275
X6.64Y-3.39
X6.645Y-3.895
X6.65Y-3.465
X6.655Y-4.125
X6.665Y-2.73
X6.665Y-3.13
X6.67Y-4.44
X6.68Y-3.74
X6.68Y-4.005
X6.685Y-2.31
X6.685Y-3.5
X6.685Y-3.635
X6.6859Y-3.4491
X6.6942Y-3.2724
X6.7Y-4.075
X6.71Y-2.555
X6.72Y-2.6
X6.72Y-2.73
X6.725Y-2.495
X6.745Y-3.22
X6.75Y-3.385
X6.7586Y-3.2793
X6.76Y-2.66
X6.76Y-3.33
X6.765Y-3.62
X6.765Y-3.71
X6.795Y-4.06
X6.8Y-3.785
X6.805Y-3.64
X6.825Y-4.115
X6.835Y-3.69
X6.835Y-3.94
X6.835Y-3.98
X6.835Y-4.055
X6.835Y-4.2
X6.8393Y-3.7289
X6.845Y-4.26
X6.865Y-3.69
X6.865Y-3.98
X6.875Y-4.105
X6.93Y-3.78
X6.93Y-3.81
X6.935Y-3.87
X6.965Y-3.58
X6.975Y-3.78
X6.975Y-3.81
X6.975Y-3.87
X6.975Y-3.905
X6.975Y-4.015
X6.975Y-4.22
T4
X3.835Y-3.445
X3.86Y-3.49
X3.91Y-3.505
X3.96Y-3.505
X4.03Y-3.505
X4.11Y-3.78
X4.55Y-3.8275
X4.7025Y-3.6575
X4.78Y-4.09
X4.78Y-4.16
X4.83Y-4.06
X4.9Y-4.06
X4.93Y-4.11
X4.93Y-4.17
X6.09Y-2.77
X6.11Y-3.675
T5
X4.5Y-3.0
X4.6Y-2.9
X5.7Y-2.8
X4.6Y-2.4
X4.6Y-2.5
X4.7Y-2.4
X4.7Y-2.5
X4.8Y-2.4
X4.8Y-2.5
X4.9Y-2.4
X4.9Y-2.5
X5.0Y-2.4
X5.0Y-2.5
X5.1Y-2.4
X5.1Y-2.5
X5.2Y-2.4
X5.2Y-2.5
X5.3Y-2.4
X5.3Y-2.5
X5.4Y-2.4
X5.4Y-2.5
X5.5Y-2.4
X5.5Y-2.5
X5.6Y-2.4
X5.6Y-2.5
X5.7Y-2.4
X5.7Y-2.5
X5.8Y-2.4
X5.8Y-2.5
X5.8Y-2.8
X5.8Y-3.3
X5.1Y-2.7
X5.0Y-3.3
X5.6Y-3.3
X4.3Y-3.2
X4.6Y-3.2
X5.3Y-3.1
X5.1Y-3.1
X5.2Y-3.3
X5.5Y-2.7
X4.8Y-2.7
X5.0Y-2.9
X5.2Y-3.0
X5.3Y-3.2
X5.4Y-3.0
X5.4Y-2.9
X5.6Y-3.0
X4.2Y-3.2
X5.6Y-2.9
X4.3Y-3.0
X4.5Y-3.2
X4.7Y-2.8
X4.8Y-3.0
X5.7Y-3.2
X6.66Y-4.21
X6.76Y-4.21
X4.8Y-2.9
X4.2Y-2.7
X5.8Y-3.2
X5.2Y-2.7
X4.3Y-3.3
X5.4Y-3.3
X4.5Y-2.8
X4.7Y-3.0
X5.0Y-3.1
X4.5Y-3.3
X4.4Y-2.7
X5.8Y-3.0
X5.2Y-2.9
X5.5Y-3.0
X5.5Y-2.9
X4.9Y-3.0
X5.6Y-3.1
X4.2Y-3.0
X4.3Y-2.9
X4.5Y-3.1
X4.6Y-2.8
X5.7Y-3.1
X4.8Y-3.1
X3.9Y-2.4
X3.9Y-2.5
X3.9Y-2.6
X3.9Y-2.7
X3.9Y-2.8
X3.9Y-2.9
X3.9Y-3.0
X3.9Y-3.1
X3.9Y-3.2
X3.9Y-3.3
X4.0Y-2.4
X4.0Y-2.5
X4.0Y-2.6
X4.0Y-2.7
X4.0Y-2.8
X4.0Y-2.9
X4.0Y-3.0
X4.0Y-3.1
X4.0Y-3.2
X4.0Y-3.3
X5.7Y-2.7
X5.66Y-3.7487
X5.66Y-3.8487
X5.66Y-3.9487
X5.66Y-4.0487
X4.9Y-2.7
X5.3Y-3.3
X5.7Y-3.3
X5.755Y-4.455
X5.855Y-4.455
X5.955Y-4.455
X4.9Y-3.2
X4.9Y-2.8
X4.6Y-3.0
X5.0Y-3.2
X5.1Y-2.8
X5.1Y-3.3
X5.4Y-2.7
X5.6Y-2.7
X5.0Y-2.8
X5.2Y-3.1
X5.3Y-2.9
X5.4Y-3.1
X5.4Y-2.8
X4.4Y-2.8
X5.6Y-2.8
X4.3Y-3.1
X4.325Y-3.96
X4.425Y-3.96
X4.2Y-2.9
X4.4Y-3.1
X4.7Y-2.9
X4.8Y-2.8
X4.9Y-3.1
X5.8Y-2.7
X5.8Y-2.9
X5.0Y-2.7
X4.4Y-3.3
X5.5Y-3.3
X4.4Y-3.2
X4.9Y-3.3
X4.7Y-3.1
X5.1006Y-4.4581
X5.2006Y-4.4581
X5.3006Y-4.4581
X5.4006Y-4.4581
X5.1Y-3.0
X4.6Y-3.3
X4.7Y-2.7
X5.3Y-2.7
X5.2Y-2.8
X5.5Y-3.1
X5.5Y-2.8
X4.2Y-2.8
X5.6Y-3.2
X4.2Y-3.1
X4.4Y-2.9
X4.7Y-3.2
X5.7Y-3.0
X4.8Y-3.2
X4.3Y-2.7
X5.8Y-3.1
X4.5Y-2.7
X4.8Y-3.3
X4.7Y-3.3
X4.9Y-2.9
X5.3Y-3.0
X4.6Y-3.1
X5.0Y-3.0
X5.1Y-2.9
X4.2Y-3.3
X4.5Y-2.9
X4.6Y-2.7
X5.1Y-3.2
X5.2Y-3.2
X5.3Y-2.8
X5.4Y-3.2
X5.5Y-3.2
X4.4Y-3.0
X5.7Y-2.9
X4.3Y-2.8
T6
X4.385Y-4.34
X4.535Y-4.34
X4.685Y-4.34
X4.835Y-4.34
X3.91Y-4.3375
X4.06Y-4.3375
T3
G00X6.9387Y-3.7269
M15
G01X6.9663Y-3.7269
M16
G05
G00X6.9663Y-3.9493
M15
G01X6.9387Y-3.9493
M16
G05
T0
M30
