%TF.GenerationSoftware,KiCad,Pcbnew,(5.1.6-0-10_14)*%
%TF.CreationDate,2020-11-01T12:10:01+02:00*%
%TF.ProjectId,SH-ESP32,53482d45-5350-4333-922e-6b696361645f,0.1.0*%
%TF.SameCoordinates,Original*%
%TF.FileFunction,Soldermask,Top*%
%TF.FilePolarity,Negative*%
%FSLAX46Y46*%
G04 Gerber Fmt 4.6, Leading zero omitted, Abs format (unit mm)*
G04 Created by KiCad (PCBNEW (5.1.6-0-10_14)) date 2020-11-01 12:10:01*
%MOMM*%
%LPD*%
G01*
G04 APERTURE LIST*
%ADD10R,0.550000X0.700000*%
%ADD11R,1.200000X1.200000*%
%ADD12C,6.400000*%
%ADD13R,2.200000X2.200000*%
%ADD14O,1.800000X1.800000*%
%ADD15R,1.800000X1.800000*%
%ADD16R,2.400000X2.600000*%
%ADD17R,1.000000X1.300000*%
%ADD18R,1.700000X2.200000*%
%ADD19O,1.800000X1.100000*%
%ADD20R,2.000000X2.000000*%
%ADD21R,1.450000X0.500000*%
%ADD22C,0.500000*%
%ADD23R,2.600000X2.000000*%
%ADD24R,1.000000X0.900000*%
%ADD25R,0.900000X1.000000*%
%ADD26R,5.100000X5.100000*%
%ADD27R,1.000000X2.100000*%
%ADD28R,2.100000X1.000000*%
%ADD29R,0.750000X1.160000*%
%ADD30R,0.725000X0.350000*%
%ADD31R,0.800000X0.550000*%
%ADD32R,0.675000X0.550000*%
%ADD33R,0.350000X0.725000*%
%ADD34R,0.550000X0.800000*%
%ADD35R,0.550000X0.675000*%
%ADD36R,1.800000X1.100000*%
%ADD37O,1.900000X3.700000*%
G04 APERTURE END LIST*
D10*
%TO.C,D304*%
X102997000Y-99026000D03*
X102997000Y-101126000D03*
%TD*%
%TO.C,U902*%
G36*
G01*
X134541000Y-95846000D02*
X134191000Y-95846000D01*
G75*
G02*
X134016000Y-95671000I0J175000D01*
G01*
X134016000Y-94296000D01*
G75*
G02*
X134191000Y-94121000I175000J0D01*
G01*
X134541000Y-94121000D01*
G75*
G02*
X134716000Y-94296000I0J-175000D01*
G01*
X134716000Y-95671000D01*
G75*
G02*
X134541000Y-95846000I-175000J0D01*
G01*
G37*
G36*
G01*
X135811000Y-95846000D02*
X135461000Y-95846000D01*
G75*
G02*
X135286000Y-95671000I0J175000D01*
G01*
X135286000Y-94296000D01*
G75*
G02*
X135461000Y-94121000I175000J0D01*
G01*
X135811000Y-94121000D01*
G75*
G02*
X135986000Y-94296000I0J-175000D01*
G01*
X135986000Y-95671000D01*
G75*
G02*
X135811000Y-95846000I-175000J0D01*
G01*
G37*
G36*
G01*
X135811000Y-102221000D02*
X135461000Y-102221000D01*
G75*
G02*
X135286000Y-102046000I0J175000D01*
G01*
X135286000Y-100671000D01*
G75*
G02*
X135461000Y-100496000I175000J0D01*
G01*
X135811000Y-100496000D01*
G75*
G02*
X135986000Y-100671000I0J-175000D01*
G01*
X135986000Y-102046000D01*
G75*
G02*
X135811000Y-102221000I-175000J0D01*
G01*
G37*
G36*
G01*
X134541000Y-102221000D02*
X134191000Y-102221000D01*
G75*
G02*
X134016000Y-102046000I0J175000D01*
G01*
X134016000Y-100671000D01*
G75*
G02*
X134191000Y-100496000I175000J0D01*
G01*
X134541000Y-100496000D01*
G75*
G02*
X134716000Y-100671000I0J-175000D01*
G01*
X134716000Y-102046000D01*
G75*
G02*
X134541000Y-102221000I-175000J0D01*
G01*
G37*
%TD*%
%TO.C,U901*%
G36*
G01*
X138763000Y-100496000D02*
X139113000Y-100496000D01*
G75*
G02*
X139288000Y-100671000I0J-175000D01*
G01*
X139288000Y-102046000D01*
G75*
G02*
X139113000Y-102221000I-175000J0D01*
G01*
X138763000Y-102221000D01*
G75*
G02*
X138588000Y-102046000I0J175000D01*
G01*
X138588000Y-100671000D01*
G75*
G02*
X138763000Y-100496000I175000J0D01*
G01*
G37*
G36*
G01*
X137493000Y-100496000D02*
X137843000Y-100496000D01*
G75*
G02*
X138018000Y-100671000I0J-175000D01*
G01*
X138018000Y-102046000D01*
G75*
G02*
X137843000Y-102221000I-175000J0D01*
G01*
X137493000Y-102221000D01*
G75*
G02*
X137318000Y-102046000I0J175000D01*
G01*
X137318000Y-100671000D01*
G75*
G02*
X137493000Y-100496000I175000J0D01*
G01*
G37*
G36*
G01*
X137493000Y-94121000D02*
X137843000Y-94121000D01*
G75*
G02*
X138018000Y-94296000I0J-175000D01*
G01*
X138018000Y-95671000D01*
G75*
G02*
X137843000Y-95846000I-175000J0D01*
G01*
X137493000Y-95846000D01*
G75*
G02*
X137318000Y-95671000I0J175000D01*
G01*
X137318000Y-94296000D01*
G75*
G02*
X137493000Y-94121000I175000J0D01*
G01*
G37*
G36*
G01*
X138763000Y-94121000D02*
X139113000Y-94121000D01*
G75*
G02*
X139288000Y-94296000I0J-175000D01*
G01*
X139288000Y-95671000D01*
G75*
G02*
X139113000Y-95846000I-175000J0D01*
G01*
X138763000Y-95846000D01*
G75*
G02*
X138588000Y-95671000I0J175000D01*
G01*
X138588000Y-94296000D01*
G75*
G02*
X138763000Y-94121000I175000J0D01*
G01*
G37*
%TD*%
%TO.C,R904*%
G36*
G01*
X134012250Y-106761000D02*
X133449750Y-106761000D01*
G75*
G02*
X133206000Y-106517250I0J243750D01*
G01*
X133206000Y-106029750D01*
G75*
G02*
X133449750Y-105786000I243750J0D01*
G01*
X134012250Y-105786000D01*
G75*
G02*
X134256000Y-106029750I0J-243750D01*
G01*
X134256000Y-106517250D01*
G75*
G02*
X134012250Y-106761000I-243750J0D01*
G01*
G37*
G36*
G01*
X134012250Y-108336000D02*
X133449750Y-108336000D01*
G75*
G02*
X133206000Y-108092250I0J243750D01*
G01*
X133206000Y-107604750D01*
G75*
G02*
X133449750Y-107361000I243750J0D01*
G01*
X134012250Y-107361000D01*
G75*
G02*
X134256000Y-107604750I0J-243750D01*
G01*
X134256000Y-108092250D01*
G75*
G02*
X134012250Y-108336000I-243750J0D01*
G01*
G37*
%TD*%
%TO.C,R903*%
G36*
G01*
X140889000Y-105945250D02*
X140889000Y-105382750D01*
G75*
G02*
X141132750Y-105139000I243750J0D01*
G01*
X141620250Y-105139000D01*
G75*
G02*
X141864000Y-105382750I0J-243750D01*
G01*
X141864000Y-105945250D01*
G75*
G02*
X141620250Y-106189000I-243750J0D01*
G01*
X141132750Y-106189000D01*
G75*
G02*
X140889000Y-105945250I0J243750D01*
G01*
G37*
G36*
G01*
X139314000Y-105945250D02*
X139314000Y-105382750D01*
G75*
G02*
X139557750Y-105139000I243750J0D01*
G01*
X140045250Y-105139000D01*
G75*
G02*
X140289000Y-105382750I0J-243750D01*
G01*
X140289000Y-105945250D01*
G75*
G02*
X140045250Y-106189000I-243750J0D01*
G01*
X139557750Y-106189000D01*
G75*
G02*
X139314000Y-105945250I0J243750D01*
G01*
G37*
%TD*%
D11*
%TO.C,D902*%
X135893000Y-103886000D03*
X133093000Y-103886000D03*
%TD*%
%TO.C,D901*%
X138207000Y-108028000D03*
X135407000Y-108028000D03*
%TD*%
%TO.C,R902*%
G36*
G01*
X130764000Y-93317750D02*
X130764000Y-93880250D01*
G75*
G02*
X130520250Y-94124000I-243750J0D01*
G01*
X130032750Y-94124000D01*
G75*
G02*
X129789000Y-93880250I0J243750D01*
G01*
X129789000Y-93317750D01*
G75*
G02*
X130032750Y-93074000I243750J0D01*
G01*
X130520250Y-93074000D01*
G75*
G02*
X130764000Y-93317750I0J-243750D01*
G01*
G37*
G36*
G01*
X132339000Y-93317750D02*
X132339000Y-93880250D01*
G75*
G02*
X132095250Y-94124000I-243750J0D01*
G01*
X131607750Y-94124000D01*
G75*
G02*
X131364000Y-93880250I0J243750D01*
G01*
X131364000Y-93317750D01*
G75*
G02*
X131607750Y-93074000I243750J0D01*
G01*
X132095250Y-93074000D01*
G75*
G02*
X132339000Y-93317750I0J-243750D01*
G01*
G37*
%TD*%
%TO.C,C1028*%
G36*
G01*
X132194000Y-87432500D02*
X132194000Y-87827500D01*
G75*
G02*
X132021500Y-88000000I-172500J0D01*
G01*
X131676500Y-88000000D01*
G75*
G02*
X131504000Y-87827500I0J172500D01*
G01*
X131504000Y-87432500D01*
G75*
G02*
X131676500Y-87260000I172500J0D01*
G01*
X132021500Y-87260000D01*
G75*
G02*
X132194000Y-87432500I0J-172500D01*
G01*
G37*
G36*
G01*
X133164000Y-87432500D02*
X133164000Y-87827500D01*
G75*
G02*
X132991500Y-88000000I-172500J0D01*
G01*
X132646500Y-88000000D01*
G75*
G02*
X132474000Y-87827500I0J172500D01*
G01*
X132474000Y-87432500D01*
G75*
G02*
X132646500Y-87260000I172500J0D01*
G01*
X132991500Y-87260000D01*
G75*
G02*
X133164000Y-87432500I0J-172500D01*
G01*
G37*
%TD*%
%TO.C,C1027*%
G36*
G01*
X159695500Y-64275000D02*
X160090500Y-64275000D01*
G75*
G02*
X160263000Y-64447500I0J-172500D01*
G01*
X160263000Y-64792500D01*
G75*
G02*
X160090500Y-64965000I-172500J0D01*
G01*
X159695500Y-64965000D01*
G75*
G02*
X159523000Y-64792500I0J172500D01*
G01*
X159523000Y-64447500D01*
G75*
G02*
X159695500Y-64275000I172500J0D01*
G01*
G37*
G36*
G01*
X159695500Y-63305000D02*
X160090500Y-63305000D01*
G75*
G02*
X160263000Y-63477500I0J-172500D01*
G01*
X160263000Y-63822500D01*
G75*
G02*
X160090500Y-63995000I-172500J0D01*
G01*
X159695500Y-63995000D01*
G75*
G02*
X159523000Y-63822500I0J172500D01*
G01*
X159523000Y-63477500D01*
G75*
G02*
X159695500Y-63305000I172500J0D01*
G01*
G37*
%TD*%
%TO.C,C1026*%
G36*
G01*
X103645000Y-104337500D02*
X103645000Y-103942500D01*
G75*
G02*
X103817500Y-103770000I172500J0D01*
G01*
X104162500Y-103770000D01*
G75*
G02*
X104335000Y-103942500I0J-172500D01*
G01*
X104335000Y-104337500D01*
G75*
G02*
X104162500Y-104510000I-172500J0D01*
G01*
X103817500Y-104510000D01*
G75*
G02*
X103645000Y-104337500I0J172500D01*
G01*
G37*
G36*
G01*
X102675000Y-104337500D02*
X102675000Y-103942500D01*
G75*
G02*
X102847500Y-103770000I172500J0D01*
G01*
X103192500Y-103770000D01*
G75*
G02*
X103365000Y-103942500I0J-172500D01*
G01*
X103365000Y-104337500D01*
G75*
G02*
X103192500Y-104510000I-172500J0D01*
G01*
X102847500Y-104510000D01*
G75*
G02*
X102675000Y-104337500I0J172500D01*
G01*
G37*
%TD*%
%TO.C,C1025*%
G36*
G01*
X113805000Y-58744500D02*
X113805000Y-58349500D01*
G75*
G02*
X113977500Y-58177000I172500J0D01*
G01*
X114322500Y-58177000D01*
G75*
G02*
X114495000Y-58349500I0J-172500D01*
G01*
X114495000Y-58744500D01*
G75*
G02*
X114322500Y-58917000I-172500J0D01*
G01*
X113977500Y-58917000D01*
G75*
G02*
X113805000Y-58744500I0J172500D01*
G01*
G37*
G36*
G01*
X112835000Y-58744500D02*
X112835000Y-58349500D01*
G75*
G02*
X113007500Y-58177000I172500J0D01*
G01*
X113352500Y-58177000D01*
G75*
G02*
X113525000Y-58349500I0J-172500D01*
G01*
X113525000Y-58744500D01*
G75*
G02*
X113352500Y-58917000I-172500J0D01*
G01*
X113007500Y-58917000D01*
G75*
G02*
X112835000Y-58744500I0J172500D01*
G01*
G37*
%TD*%
%TO.C,C1024*%
G36*
G01*
X172028500Y-92951000D02*
X171633500Y-92951000D01*
G75*
G02*
X171461000Y-92778500I0J172500D01*
G01*
X171461000Y-92433500D01*
G75*
G02*
X171633500Y-92261000I172500J0D01*
G01*
X172028500Y-92261000D01*
G75*
G02*
X172201000Y-92433500I0J-172500D01*
G01*
X172201000Y-92778500D01*
G75*
G02*
X172028500Y-92951000I-172500J0D01*
G01*
G37*
G36*
G01*
X172028500Y-93921000D02*
X171633500Y-93921000D01*
G75*
G02*
X171461000Y-93748500I0J172500D01*
G01*
X171461000Y-93403500D01*
G75*
G02*
X171633500Y-93231000I172500J0D01*
G01*
X172028500Y-93231000D01*
G75*
G02*
X172201000Y-93403500I0J-172500D01*
G01*
X172201000Y-93748500D01*
G75*
G02*
X172028500Y-93921000I-172500J0D01*
G01*
G37*
%TD*%
%TO.C,C1023*%
G36*
G01*
X105353500Y-87871000D02*
X104958500Y-87871000D01*
G75*
G02*
X104786000Y-87698500I0J172500D01*
G01*
X104786000Y-87353500D01*
G75*
G02*
X104958500Y-87181000I172500J0D01*
G01*
X105353500Y-87181000D01*
G75*
G02*
X105526000Y-87353500I0J-172500D01*
G01*
X105526000Y-87698500D01*
G75*
G02*
X105353500Y-87871000I-172500J0D01*
G01*
G37*
G36*
G01*
X105353500Y-88841000D02*
X104958500Y-88841000D01*
G75*
G02*
X104786000Y-88668500I0J172500D01*
G01*
X104786000Y-88323500D01*
G75*
G02*
X104958500Y-88151000I172500J0D01*
G01*
X105353500Y-88151000D01*
G75*
G02*
X105526000Y-88323500I0J-172500D01*
G01*
X105526000Y-88668500D01*
G75*
G02*
X105353500Y-88841000I-172500J0D01*
G01*
G37*
%TD*%
%TO.C,C1022*%
G36*
G01*
X94417500Y-108217000D02*
X94812500Y-108217000D01*
G75*
G02*
X94985000Y-108389500I0J-172500D01*
G01*
X94985000Y-108734500D01*
G75*
G02*
X94812500Y-108907000I-172500J0D01*
G01*
X94417500Y-108907000D01*
G75*
G02*
X94245000Y-108734500I0J172500D01*
G01*
X94245000Y-108389500D01*
G75*
G02*
X94417500Y-108217000I172500J0D01*
G01*
G37*
G36*
G01*
X94417500Y-107247000D02*
X94812500Y-107247000D01*
G75*
G02*
X94985000Y-107419500I0J-172500D01*
G01*
X94985000Y-107764500D01*
G75*
G02*
X94812500Y-107937000I-172500J0D01*
G01*
X94417500Y-107937000D01*
G75*
G02*
X94245000Y-107764500I0J172500D01*
G01*
X94245000Y-107419500D01*
G75*
G02*
X94417500Y-107247000I172500J0D01*
G01*
G37*
%TD*%
%TO.C,C1021*%
G36*
G01*
X91383500Y-89268000D02*
X90988500Y-89268000D01*
G75*
G02*
X90816000Y-89095500I0J172500D01*
G01*
X90816000Y-88750500D01*
G75*
G02*
X90988500Y-88578000I172500J0D01*
G01*
X91383500Y-88578000D01*
G75*
G02*
X91556000Y-88750500I0J-172500D01*
G01*
X91556000Y-89095500D01*
G75*
G02*
X91383500Y-89268000I-172500J0D01*
G01*
G37*
G36*
G01*
X91383500Y-90238000D02*
X90988500Y-90238000D01*
G75*
G02*
X90816000Y-90065500I0J172500D01*
G01*
X90816000Y-89720500D01*
G75*
G02*
X90988500Y-89548000I172500J0D01*
G01*
X91383500Y-89548000D01*
G75*
G02*
X91556000Y-89720500I0J-172500D01*
G01*
X91556000Y-90065500D01*
G75*
G02*
X91383500Y-90238000I-172500J0D01*
G01*
G37*
%TD*%
D12*
%TO.C,H1002*%
X156250000Y-104750000D03*
%TD*%
%TO.C,H1001*%
X111750000Y-63000000D03*
%TD*%
%TO.C,C1020*%
G36*
G01*
X95701500Y-79870000D02*
X95306500Y-79870000D01*
G75*
G02*
X95134000Y-79697500I0J172500D01*
G01*
X95134000Y-79352500D01*
G75*
G02*
X95306500Y-79180000I172500J0D01*
G01*
X95701500Y-79180000D01*
G75*
G02*
X95874000Y-79352500I0J-172500D01*
G01*
X95874000Y-79697500D01*
G75*
G02*
X95701500Y-79870000I-172500J0D01*
G01*
G37*
G36*
G01*
X95701500Y-80840000D02*
X95306500Y-80840000D01*
G75*
G02*
X95134000Y-80667500I0J172500D01*
G01*
X95134000Y-80322500D01*
G75*
G02*
X95306500Y-80150000I172500J0D01*
G01*
X95701500Y-80150000D01*
G75*
G02*
X95874000Y-80322500I0J-172500D01*
G01*
X95874000Y-80667500D01*
G75*
G02*
X95701500Y-80840000I-172500J0D01*
G01*
G37*
%TD*%
%TO.C,C1019*%
G36*
G01*
X95701500Y-74790000D02*
X95306500Y-74790000D01*
G75*
G02*
X95134000Y-74617500I0J172500D01*
G01*
X95134000Y-74272500D01*
G75*
G02*
X95306500Y-74100000I172500J0D01*
G01*
X95701500Y-74100000D01*
G75*
G02*
X95874000Y-74272500I0J-172500D01*
G01*
X95874000Y-74617500D01*
G75*
G02*
X95701500Y-74790000I-172500J0D01*
G01*
G37*
G36*
G01*
X95701500Y-75760000D02*
X95306500Y-75760000D01*
G75*
G02*
X95134000Y-75587500I0J172500D01*
G01*
X95134000Y-75242500D01*
G75*
G02*
X95306500Y-75070000I172500J0D01*
G01*
X95701500Y-75070000D01*
G75*
G02*
X95874000Y-75242500I0J-172500D01*
G01*
X95874000Y-75587500D01*
G75*
G02*
X95701500Y-75760000I-172500J0D01*
G01*
G37*
%TD*%
%TO.C,C1018*%
G36*
G01*
X95701500Y-69225000D02*
X95306500Y-69225000D01*
G75*
G02*
X95134000Y-69052500I0J172500D01*
G01*
X95134000Y-68707500D01*
G75*
G02*
X95306500Y-68535000I172500J0D01*
G01*
X95701500Y-68535000D01*
G75*
G02*
X95874000Y-68707500I0J-172500D01*
G01*
X95874000Y-69052500D01*
G75*
G02*
X95701500Y-69225000I-172500J0D01*
G01*
G37*
G36*
G01*
X95701500Y-70195000D02*
X95306500Y-70195000D01*
G75*
G02*
X95134000Y-70022500I0J172500D01*
G01*
X95134000Y-69677500D01*
G75*
G02*
X95306500Y-69505000I172500J0D01*
G01*
X95701500Y-69505000D01*
G75*
G02*
X95874000Y-69677500I0J-172500D01*
G01*
X95874000Y-70022500D01*
G75*
G02*
X95701500Y-70195000I-172500J0D01*
G01*
G37*
%TD*%
%TO.C,C1017*%
G36*
G01*
X95701500Y-64630000D02*
X95306500Y-64630000D01*
G75*
G02*
X95134000Y-64457500I0J172500D01*
G01*
X95134000Y-64112500D01*
G75*
G02*
X95306500Y-63940000I172500J0D01*
G01*
X95701500Y-63940000D01*
G75*
G02*
X95874000Y-64112500I0J-172500D01*
G01*
X95874000Y-64457500D01*
G75*
G02*
X95701500Y-64630000I-172500J0D01*
G01*
G37*
G36*
G01*
X95701500Y-65600000D02*
X95306500Y-65600000D01*
G75*
G02*
X95134000Y-65427500I0J172500D01*
G01*
X95134000Y-65082500D01*
G75*
G02*
X95306500Y-64910000I172500J0D01*
G01*
X95701500Y-64910000D01*
G75*
G02*
X95874000Y-65082500I0J-172500D01*
G01*
X95874000Y-65427500D01*
G75*
G02*
X95701500Y-65600000I-172500J0D01*
G01*
G37*
%TD*%
%TO.C,C1016*%
G36*
G01*
X147503500Y-104915000D02*
X147898500Y-104915000D01*
G75*
G02*
X148071000Y-105087500I0J-172500D01*
G01*
X148071000Y-105432500D01*
G75*
G02*
X147898500Y-105605000I-172500J0D01*
G01*
X147503500Y-105605000D01*
G75*
G02*
X147331000Y-105432500I0J172500D01*
G01*
X147331000Y-105087500D01*
G75*
G02*
X147503500Y-104915000I172500J0D01*
G01*
G37*
G36*
G01*
X147503500Y-103945000D02*
X147898500Y-103945000D01*
G75*
G02*
X148071000Y-104117500I0J-172500D01*
G01*
X148071000Y-104462500D01*
G75*
G02*
X147898500Y-104635000I-172500J0D01*
G01*
X147503500Y-104635000D01*
G75*
G02*
X147331000Y-104462500I0J172500D01*
G01*
X147331000Y-104117500D01*
G75*
G02*
X147503500Y-103945000I172500J0D01*
G01*
G37*
%TD*%
%TO.C,C1015*%
G36*
G01*
X165113000Y-60649500D02*
X165113000Y-60254500D01*
G75*
G02*
X165285500Y-60082000I172500J0D01*
G01*
X165630500Y-60082000D01*
G75*
G02*
X165803000Y-60254500I0J-172500D01*
G01*
X165803000Y-60649500D01*
G75*
G02*
X165630500Y-60822000I-172500J0D01*
G01*
X165285500Y-60822000D01*
G75*
G02*
X165113000Y-60649500I0J172500D01*
G01*
G37*
G36*
G01*
X164143000Y-60649500D02*
X164143000Y-60254500D01*
G75*
G02*
X164315500Y-60082000I172500J0D01*
G01*
X164660500Y-60082000D01*
G75*
G02*
X164833000Y-60254500I0J-172500D01*
G01*
X164833000Y-60649500D01*
G75*
G02*
X164660500Y-60822000I-172500J0D01*
G01*
X164315500Y-60822000D01*
G75*
G02*
X164143000Y-60649500I0J172500D01*
G01*
G37*
%TD*%
%TO.C,C1014*%
G36*
G01*
X162192000Y-58617500D02*
X162192000Y-58222500D01*
G75*
G02*
X162364500Y-58050000I172500J0D01*
G01*
X162709500Y-58050000D01*
G75*
G02*
X162882000Y-58222500I0J-172500D01*
G01*
X162882000Y-58617500D01*
G75*
G02*
X162709500Y-58790000I-172500J0D01*
G01*
X162364500Y-58790000D01*
G75*
G02*
X162192000Y-58617500I0J172500D01*
G01*
G37*
G36*
G01*
X161222000Y-58617500D02*
X161222000Y-58222500D01*
G75*
G02*
X161394500Y-58050000I172500J0D01*
G01*
X161739500Y-58050000D01*
G75*
G02*
X161912000Y-58222500I0J-172500D01*
G01*
X161912000Y-58617500D01*
G75*
G02*
X161739500Y-58790000I-172500J0D01*
G01*
X161394500Y-58790000D01*
G75*
G02*
X161222000Y-58617500I0J172500D01*
G01*
G37*
%TD*%
%TO.C,C1013*%
G36*
G01*
X155080000Y-60776500D02*
X155080000Y-60381500D01*
G75*
G02*
X155252500Y-60209000I172500J0D01*
G01*
X155597500Y-60209000D01*
G75*
G02*
X155770000Y-60381500I0J-172500D01*
G01*
X155770000Y-60776500D01*
G75*
G02*
X155597500Y-60949000I-172500J0D01*
G01*
X155252500Y-60949000D01*
G75*
G02*
X155080000Y-60776500I0J172500D01*
G01*
G37*
G36*
G01*
X154110000Y-60776500D02*
X154110000Y-60381500D01*
G75*
G02*
X154282500Y-60209000I172500J0D01*
G01*
X154627500Y-60209000D01*
G75*
G02*
X154800000Y-60381500I0J-172500D01*
G01*
X154800000Y-60776500D01*
G75*
G02*
X154627500Y-60949000I-172500J0D01*
G01*
X154282500Y-60949000D01*
G75*
G02*
X154110000Y-60776500I0J172500D01*
G01*
G37*
%TD*%
%TO.C,C1012*%
G36*
G01*
X154191000Y-65221500D02*
X154191000Y-64826500D01*
G75*
G02*
X154363500Y-64654000I172500J0D01*
G01*
X154708500Y-64654000D01*
G75*
G02*
X154881000Y-64826500I0J-172500D01*
G01*
X154881000Y-65221500D01*
G75*
G02*
X154708500Y-65394000I-172500J0D01*
G01*
X154363500Y-65394000D01*
G75*
G02*
X154191000Y-65221500I0J172500D01*
G01*
G37*
G36*
G01*
X153221000Y-65221500D02*
X153221000Y-64826500D01*
G75*
G02*
X153393500Y-64654000I172500J0D01*
G01*
X153738500Y-64654000D01*
G75*
G02*
X153911000Y-64826500I0J-172500D01*
G01*
X153911000Y-65221500D01*
G75*
G02*
X153738500Y-65394000I-172500J0D01*
G01*
X153393500Y-65394000D01*
G75*
G02*
X153221000Y-65221500I0J172500D01*
G01*
G37*
%TD*%
%TO.C,C1011*%
G36*
G01*
X150424500Y-76213000D02*
X150819500Y-76213000D01*
G75*
G02*
X150992000Y-76385500I0J-172500D01*
G01*
X150992000Y-76730500D01*
G75*
G02*
X150819500Y-76903000I-172500J0D01*
G01*
X150424500Y-76903000D01*
G75*
G02*
X150252000Y-76730500I0J172500D01*
G01*
X150252000Y-76385500D01*
G75*
G02*
X150424500Y-76213000I172500J0D01*
G01*
G37*
G36*
G01*
X150424500Y-75243000D02*
X150819500Y-75243000D01*
G75*
G02*
X150992000Y-75415500I0J-172500D01*
G01*
X150992000Y-75760500D01*
G75*
G02*
X150819500Y-75933000I-172500J0D01*
G01*
X150424500Y-75933000D01*
G75*
G02*
X150252000Y-75760500I0J172500D01*
G01*
X150252000Y-75415500D01*
G75*
G02*
X150424500Y-75243000I172500J0D01*
G01*
G37*
%TD*%
%TO.C,C1010*%
G36*
G01*
X149408500Y-80531000D02*
X149803500Y-80531000D01*
G75*
G02*
X149976000Y-80703500I0J-172500D01*
G01*
X149976000Y-81048500D01*
G75*
G02*
X149803500Y-81221000I-172500J0D01*
G01*
X149408500Y-81221000D01*
G75*
G02*
X149236000Y-81048500I0J172500D01*
G01*
X149236000Y-80703500D01*
G75*
G02*
X149408500Y-80531000I172500J0D01*
G01*
G37*
G36*
G01*
X149408500Y-79561000D02*
X149803500Y-79561000D01*
G75*
G02*
X149976000Y-79733500I0J-172500D01*
G01*
X149976000Y-80078500D01*
G75*
G02*
X149803500Y-80251000I-172500J0D01*
G01*
X149408500Y-80251000D01*
G75*
G02*
X149236000Y-80078500I0J172500D01*
G01*
X149236000Y-79733500D01*
G75*
G02*
X149408500Y-79561000I172500J0D01*
G01*
G37*
%TD*%
%TO.C,C1009*%
G36*
G01*
X163251500Y-88913000D02*
X163646500Y-88913000D01*
G75*
G02*
X163819000Y-89085500I0J-172500D01*
G01*
X163819000Y-89430500D01*
G75*
G02*
X163646500Y-89603000I-172500J0D01*
G01*
X163251500Y-89603000D01*
G75*
G02*
X163079000Y-89430500I0J172500D01*
G01*
X163079000Y-89085500D01*
G75*
G02*
X163251500Y-88913000I172500J0D01*
G01*
G37*
G36*
G01*
X163251500Y-87943000D02*
X163646500Y-87943000D01*
G75*
G02*
X163819000Y-88115500I0J-172500D01*
G01*
X163819000Y-88460500D01*
G75*
G02*
X163646500Y-88633000I-172500J0D01*
G01*
X163251500Y-88633000D01*
G75*
G02*
X163079000Y-88460500I0J172500D01*
G01*
X163079000Y-88115500D01*
G75*
G02*
X163251500Y-87943000I172500J0D01*
G01*
G37*
%TD*%
%TO.C,C1008*%
G36*
G01*
X170363500Y-87262000D02*
X170758500Y-87262000D01*
G75*
G02*
X170931000Y-87434500I0J-172500D01*
G01*
X170931000Y-87779500D01*
G75*
G02*
X170758500Y-87952000I-172500J0D01*
G01*
X170363500Y-87952000D01*
G75*
G02*
X170191000Y-87779500I0J172500D01*
G01*
X170191000Y-87434500D01*
G75*
G02*
X170363500Y-87262000I172500J0D01*
G01*
G37*
G36*
G01*
X170363500Y-86292000D02*
X170758500Y-86292000D01*
G75*
G02*
X170931000Y-86464500I0J-172500D01*
G01*
X170931000Y-86809500D01*
G75*
G02*
X170758500Y-86982000I-172500J0D01*
G01*
X170363500Y-86982000D01*
G75*
G02*
X170191000Y-86809500I0J172500D01*
G01*
X170191000Y-86464500D01*
G75*
G02*
X170363500Y-86292000I172500J0D01*
G01*
G37*
%TD*%
%TO.C,C1007*%
G36*
G01*
X150692500Y-88714000D02*
X150297500Y-88714000D01*
G75*
G02*
X150125000Y-88541500I0J172500D01*
G01*
X150125000Y-88196500D01*
G75*
G02*
X150297500Y-88024000I172500J0D01*
G01*
X150692500Y-88024000D01*
G75*
G02*
X150865000Y-88196500I0J-172500D01*
G01*
X150865000Y-88541500D01*
G75*
G02*
X150692500Y-88714000I-172500J0D01*
G01*
G37*
G36*
G01*
X150692500Y-87744000D02*
X150297500Y-87744000D01*
G75*
G02*
X150125000Y-87571500I0J172500D01*
G01*
X150125000Y-87226500D01*
G75*
G02*
X150297500Y-87054000I172500J0D01*
G01*
X150692500Y-87054000D01*
G75*
G02*
X150865000Y-87226500I0J-172500D01*
G01*
X150865000Y-87571500D01*
G75*
G02*
X150692500Y-87744000I-172500J0D01*
G01*
G37*
%TD*%
%TO.C,C1006*%
G36*
G01*
X171567000Y-103321500D02*
X171567000Y-102926500D01*
G75*
G02*
X171739500Y-102754000I172500J0D01*
G01*
X172084500Y-102754000D01*
G75*
G02*
X172257000Y-102926500I0J-172500D01*
G01*
X172257000Y-103321500D01*
G75*
G02*
X172084500Y-103494000I-172500J0D01*
G01*
X171739500Y-103494000D01*
G75*
G02*
X171567000Y-103321500I0J172500D01*
G01*
G37*
G36*
G01*
X170597000Y-103321500D02*
X170597000Y-102926500D01*
G75*
G02*
X170769500Y-102754000I172500J0D01*
G01*
X171114500Y-102754000D01*
G75*
G02*
X171287000Y-102926500I0J-172500D01*
G01*
X171287000Y-103321500D01*
G75*
G02*
X171114500Y-103494000I-172500J0D01*
G01*
X170769500Y-103494000D01*
G75*
G02*
X170597000Y-103321500I0J172500D01*
G01*
G37*
%TD*%
%TO.C,C1005*%
G36*
G01*
X166948500Y-107302000D02*
X166553500Y-107302000D01*
G75*
G02*
X166381000Y-107129500I0J172500D01*
G01*
X166381000Y-106784500D01*
G75*
G02*
X166553500Y-106612000I172500J0D01*
G01*
X166948500Y-106612000D01*
G75*
G02*
X167121000Y-106784500I0J-172500D01*
G01*
X167121000Y-107129500D01*
G75*
G02*
X166948500Y-107302000I-172500J0D01*
G01*
G37*
G36*
G01*
X166948500Y-108272000D02*
X166553500Y-108272000D01*
G75*
G02*
X166381000Y-108099500I0J172500D01*
G01*
X166381000Y-107754500D01*
G75*
G02*
X166553500Y-107582000I172500J0D01*
G01*
X166948500Y-107582000D01*
G75*
G02*
X167121000Y-107754500I0J-172500D01*
G01*
X167121000Y-108099500D01*
G75*
G02*
X166948500Y-108272000I-172500J0D01*
G01*
G37*
%TD*%
%TO.C,C1004*%
G36*
G01*
X138697000Y-88589500D02*
X138697000Y-88194500D01*
G75*
G02*
X138869500Y-88022000I172500J0D01*
G01*
X139214500Y-88022000D01*
G75*
G02*
X139387000Y-88194500I0J-172500D01*
G01*
X139387000Y-88589500D01*
G75*
G02*
X139214500Y-88762000I-172500J0D01*
G01*
X138869500Y-88762000D01*
G75*
G02*
X138697000Y-88589500I0J172500D01*
G01*
G37*
G36*
G01*
X137727000Y-88589500D02*
X137727000Y-88194500D01*
G75*
G02*
X137899500Y-88022000I172500J0D01*
G01*
X138244500Y-88022000D01*
G75*
G02*
X138417000Y-88194500I0J-172500D01*
G01*
X138417000Y-88589500D01*
G75*
G02*
X138244500Y-88762000I-172500J0D01*
G01*
X137899500Y-88762000D01*
G75*
G02*
X137727000Y-88589500I0J172500D01*
G01*
G37*
%TD*%
%TO.C,C1003*%
G36*
G01*
X146995500Y-94628000D02*
X147390500Y-94628000D01*
G75*
G02*
X147563000Y-94800500I0J-172500D01*
G01*
X147563000Y-95145500D01*
G75*
G02*
X147390500Y-95318000I-172500J0D01*
G01*
X146995500Y-95318000D01*
G75*
G02*
X146823000Y-95145500I0J172500D01*
G01*
X146823000Y-94800500D01*
G75*
G02*
X146995500Y-94628000I172500J0D01*
G01*
G37*
G36*
G01*
X146995500Y-93658000D02*
X147390500Y-93658000D01*
G75*
G02*
X147563000Y-93830500I0J-172500D01*
G01*
X147563000Y-94175500D01*
G75*
G02*
X147390500Y-94348000I-172500J0D01*
G01*
X146995500Y-94348000D01*
G75*
G02*
X146823000Y-94175500I0J172500D01*
G01*
X146823000Y-93830500D01*
G75*
G02*
X146995500Y-93658000I172500J0D01*
G01*
G37*
%TD*%
%TO.C,C1002*%
G36*
G01*
X157296500Y-93078000D02*
X156901500Y-93078000D01*
G75*
G02*
X156729000Y-92905500I0J172500D01*
G01*
X156729000Y-92560500D01*
G75*
G02*
X156901500Y-92388000I172500J0D01*
G01*
X157296500Y-92388000D01*
G75*
G02*
X157469000Y-92560500I0J-172500D01*
G01*
X157469000Y-92905500D01*
G75*
G02*
X157296500Y-93078000I-172500J0D01*
G01*
G37*
G36*
G01*
X157296500Y-94048000D02*
X156901500Y-94048000D01*
G75*
G02*
X156729000Y-93875500I0J172500D01*
G01*
X156729000Y-93530500D01*
G75*
G02*
X156901500Y-93358000I172500J0D01*
G01*
X157296500Y-93358000D01*
G75*
G02*
X157469000Y-93530500I0J-172500D01*
G01*
X157469000Y-93875500D01*
G75*
G02*
X157296500Y-94048000I-172500J0D01*
G01*
G37*
%TD*%
%TO.C,C1001*%
G36*
G01*
X102248000Y-97225500D02*
X102248000Y-96830500D01*
G75*
G02*
X102420500Y-96658000I172500J0D01*
G01*
X102765500Y-96658000D01*
G75*
G02*
X102938000Y-96830500I0J-172500D01*
G01*
X102938000Y-97225500D01*
G75*
G02*
X102765500Y-97398000I-172500J0D01*
G01*
X102420500Y-97398000D01*
G75*
G02*
X102248000Y-97225500I0J172500D01*
G01*
G37*
G36*
G01*
X101278000Y-97225500D02*
X101278000Y-96830500D01*
G75*
G02*
X101450500Y-96658000I172500J0D01*
G01*
X101795500Y-96658000D01*
G75*
G02*
X101968000Y-96830500I0J-172500D01*
G01*
X101968000Y-97225500D01*
G75*
G02*
X101795500Y-97398000I-172500J0D01*
G01*
X101450500Y-97398000D01*
G75*
G02*
X101278000Y-97225500I0J172500D01*
G01*
G37*
%TD*%
D13*
%TO.C,REF\u002A\u002A*%
X109220000Y-68580000D03*
%TD*%
%TO.C,REF\u002A\u002A*%
X106680000Y-68580000D03*
%TD*%
%TO.C,REF\u002A\u002A*%
X147320000Y-68580000D03*
%TD*%
%TO.C,REF\u002A\u002A*%
X147320000Y-71120000D03*
%TD*%
%TO.C,REF\u002A\u002A*%
X144780000Y-68580000D03*
%TD*%
%TO.C,REF\u002A\u002A*%
X147320000Y-76200000D03*
%TD*%
%TO.C,REF\u002A\u002A*%
X147320000Y-78740000D03*
%TD*%
%TO.C,REF\u002A\u002A*%
X147320000Y-81280000D03*
%TD*%
%TO.C,REF\u002A\u002A*%
X147320000Y-73660000D03*
%TD*%
%TO.C,REF\u002A\u002A*%
X147320000Y-83820000D03*
%TD*%
%TO.C,REF\u002A\u002A*%
X124460000Y-68580000D03*
%TD*%
%TO.C,REF\u002A\u002A*%
X114300000Y-68580000D03*
%TD*%
%TO.C,REF\u002A\u002A*%
X132080000Y-68580000D03*
%TD*%
%TO.C,REF\u002A\u002A*%
X127000000Y-68580000D03*
%TD*%
%TO.C,REF\u002A\u002A*%
X129540000Y-68580000D03*
%TD*%
%TO.C,REF\u002A\u002A*%
X119380000Y-68580000D03*
%TD*%
%TO.C,REF\u002A\u002A*%
X139700000Y-68580000D03*
%TD*%
%TO.C,REF\u002A\u002A*%
X137160000Y-68580000D03*
%TD*%
%TO.C,REF\u002A\u002A*%
X116840000Y-68580000D03*
%TD*%
%TO.C,REF\u002A\u002A*%
X111760000Y-68580000D03*
%TD*%
%TO.C,REF\u002A\u002A*%
X134620000Y-68580000D03*
%TD*%
%TO.C,REF\u002A\u002A*%
X121920000Y-68580000D03*
%TD*%
%TO.C,REF\u002A\u002A*%
X142240000Y-68580000D03*
%TD*%
%TO.C,C601*%
G36*
G01*
X113213500Y-104534000D02*
X113608500Y-104534000D01*
G75*
G02*
X113781000Y-104706500I0J-172500D01*
G01*
X113781000Y-105051500D01*
G75*
G02*
X113608500Y-105224000I-172500J0D01*
G01*
X113213500Y-105224000D01*
G75*
G02*
X113041000Y-105051500I0J172500D01*
G01*
X113041000Y-104706500D01*
G75*
G02*
X113213500Y-104534000I172500J0D01*
G01*
G37*
G36*
G01*
X113213500Y-103564000D02*
X113608500Y-103564000D01*
G75*
G02*
X113781000Y-103736500I0J-172500D01*
G01*
X113781000Y-104081500D01*
G75*
G02*
X113608500Y-104254000I-172500J0D01*
G01*
X113213500Y-104254000D01*
G75*
G02*
X113041000Y-104081500I0J172500D01*
G01*
X113041000Y-103736500D01*
G75*
G02*
X113213500Y-103564000I172500J0D01*
G01*
G37*
%TD*%
%TO.C,C303*%
G36*
G01*
X97098500Y-93332000D02*
X96703500Y-93332000D01*
G75*
G02*
X96531000Y-93159500I0J172500D01*
G01*
X96531000Y-92814500D01*
G75*
G02*
X96703500Y-92642000I172500J0D01*
G01*
X97098500Y-92642000D01*
G75*
G02*
X97271000Y-92814500I0J-172500D01*
G01*
X97271000Y-93159500D01*
G75*
G02*
X97098500Y-93332000I-172500J0D01*
G01*
G37*
G36*
G01*
X97098500Y-94302000D02*
X96703500Y-94302000D01*
G75*
G02*
X96531000Y-94129500I0J172500D01*
G01*
X96531000Y-93784500D01*
G75*
G02*
X96703500Y-93612000I172500J0D01*
G01*
X97098500Y-93612000D01*
G75*
G02*
X97271000Y-93784500I0J-172500D01*
G01*
X97271000Y-94129500D01*
G75*
G02*
X97098500Y-94302000I-172500J0D01*
G01*
G37*
%TD*%
%TO.C,REF\u002A\u002A*%
X121920000Y-83820000D03*
%TD*%
%TO.C,REF\u002A\u002A*%
X109220000Y-83820000D03*
%TD*%
%TO.C,REF\u002A\u002A*%
X111760000Y-83820000D03*
%TD*%
%TO.C,REF\u002A\u002A*%
X127000000Y-83820000D03*
%TD*%
%TO.C,REF\u002A\u002A*%
X134620000Y-83820000D03*
%TD*%
%TO.C,REF\u002A\u002A*%
X119380000Y-83820000D03*
%TD*%
%TO.C,REF\u002A\u002A*%
X137160000Y-83820000D03*
%TD*%
%TO.C,REF\u002A\u002A*%
X139700000Y-83820000D03*
%TD*%
%TO.C,REF\u002A\u002A*%
X142240000Y-83820000D03*
%TD*%
%TO.C,REF\u002A\u002A*%
X144780000Y-83820000D03*
%TD*%
%TO.C,REF\u002A\u002A*%
X124460000Y-83820000D03*
%TD*%
%TO.C,REF\u002A\u002A*%
X106680000Y-83820000D03*
%TD*%
%TO.C,REF\u002A\u002A*%
X114300000Y-83820000D03*
%TD*%
%TO.C,REF\u002A\u002A*%
X116840000Y-83820000D03*
%TD*%
%TO.C,REF\u002A\u002A*%
X132080000Y-83820000D03*
%TD*%
%TO.C,REF\u002A\u002A*%
X129540000Y-83820000D03*
%TD*%
%TO.C,REF\u002A\u002A*%
X114300000Y-73660000D03*
%TD*%
%TO.C,REF\u002A\u002A*%
X111760000Y-71120000D03*
%TD*%
%TO.C,REF\u002A\u002A*%
X111760000Y-76200000D03*
%TD*%
%TO.C,REF\u002A\u002A*%
X124460000Y-76200000D03*
%TD*%
%TO.C,REF\u002A\u002A*%
X106680000Y-71120000D03*
%TD*%
%TO.C,REF\u002A\u002A*%
X106680000Y-81280000D03*
%TD*%
%TO.C,REF\u002A\u002A*%
X106680000Y-76200000D03*
%TD*%
%TO.C,REF\u002A\u002A*%
X106680000Y-78740000D03*
%TD*%
%TO.C,REF\u002A\u002A*%
X109220000Y-76200000D03*
%TD*%
%TO.C,REF\u002A\u002A*%
X109220000Y-78740000D03*
%TD*%
%TO.C,REF\u002A\u002A*%
X109220000Y-71120000D03*
%TD*%
%TO.C,REF\u002A\u002A*%
X109220000Y-73660000D03*
%TD*%
%TO.C,REF\u002A\u002A*%
X106680000Y-73660000D03*
%TD*%
%TO.C,REF\u002A\u002A*%
X114300000Y-76200000D03*
%TD*%
%TO.C,REF\u002A\u002A*%
X114300000Y-78740000D03*
%TD*%
%TO.C,REF\u002A\u002A*%
X111760000Y-73660000D03*
%TD*%
%TO.C,REF\u002A\u002A*%
X114300000Y-81280000D03*
%TD*%
%TO.C,REF\u002A\u002A*%
X111760000Y-78740000D03*
%TD*%
%TO.C,REF\u002A\u002A*%
X124460000Y-78740000D03*
%TD*%
%TO.C,REF\u002A\u002A*%
X116840000Y-81280000D03*
%TD*%
%TO.C,REF\u002A\u002A*%
X116840000Y-76200000D03*
%TD*%
%TO.C,REF\u002A\u002A*%
X116840000Y-78740000D03*
%TD*%
%TO.C,REF\u002A\u002A*%
X119380000Y-76200000D03*
%TD*%
%TO.C,REF\u002A\u002A*%
X119380000Y-78740000D03*
%TD*%
%TO.C,REF\u002A\u002A*%
X119380000Y-71120000D03*
%TD*%
%TO.C,REF\u002A\u002A*%
X119380000Y-73660000D03*
%TD*%
%TO.C,REF\u002A\u002A*%
X116840000Y-73660000D03*
%TD*%
%TO.C,REF\u002A\u002A*%
X116840000Y-71120000D03*
%TD*%
%TO.C,REF\u002A\u002A*%
X119380000Y-81280000D03*
%TD*%
%TO.C,REF\u002A\u002A*%
X121920000Y-76200000D03*
%TD*%
%TO.C,REF\u002A\u002A*%
X121920000Y-78740000D03*
%TD*%
%TO.C,REF\u002A\u002A*%
X121920000Y-81280000D03*
%TD*%
%TO.C,REF\u002A\u002A*%
X121920000Y-73660000D03*
%TD*%
%TO.C,REF\u002A\u002A*%
X121920000Y-71120000D03*
%TD*%
%TO.C,REF\u002A\u002A*%
X124460000Y-81280000D03*
%TD*%
%TO.C,REF\u002A\u002A*%
X124460000Y-73660000D03*
%TD*%
%TO.C,REF\u002A\u002A*%
X114300000Y-71120000D03*
%TD*%
%TO.C,REF\u002A\u002A*%
X111760000Y-81280000D03*
%TD*%
%TO.C,REF\u002A\u002A*%
X109220000Y-81280000D03*
%TD*%
%TO.C,REF\u002A\u002A*%
X124460000Y-71120000D03*
%TD*%
%TO.C,REF\u002A\u002A*%
X134620000Y-76200000D03*
%TD*%
%TO.C,REF\u002A\u002A*%
X134620000Y-78740000D03*
%TD*%
%TO.C,REF\u002A\u002A*%
X127000000Y-81280000D03*
%TD*%
%TO.C,REF\u002A\u002A*%
X127000000Y-76200000D03*
%TD*%
%TO.C,REF\u002A\u002A*%
X127000000Y-78740000D03*
%TD*%
%TO.C,REF\u002A\u002A*%
X129540000Y-76200000D03*
%TD*%
%TO.C,REF\u002A\u002A*%
X129540000Y-78740000D03*
%TD*%
%TO.C,REF\u002A\u002A*%
X129540000Y-71120000D03*
%TD*%
%TO.C,REF\u002A\u002A*%
X129540000Y-73660000D03*
%TD*%
%TO.C,REF\u002A\u002A*%
X127000000Y-73660000D03*
%TD*%
%TO.C,REF\u002A\u002A*%
X127000000Y-71120000D03*
%TD*%
%TO.C,REF\u002A\u002A*%
X129540000Y-81280000D03*
%TD*%
%TO.C,REF\u002A\u002A*%
X132080000Y-76200000D03*
%TD*%
%TO.C,REF\u002A\u002A*%
X132080000Y-78740000D03*
%TD*%
%TO.C,REF\u002A\u002A*%
X132080000Y-81280000D03*
%TD*%
%TO.C,REF\u002A\u002A*%
X132080000Y-73660000D03*
%TD*%
%TO.C,REF\u002A\u002A*%
X132080000Y-71120000D03*
%TD*%
%TO.C,REF\u002A\u002A*%
X134620000Y-81280000D03*
%TD*%
%TO.C,REF\u002A\u002A*%
X134620000Y-73660000D03*
%TD*%
%TO.C,REF\u002A\u002A*%
X134620000Y-71120000D03*
%TD*%
%TO.C,REF\u002A\u002A*%
X139700000Y-76200000D03*
%TD*%
%TO.C,REF\u002A\u002A*%
X139700000Y-78740000D03*
%TD*%
%TO.C,REF\u002A\u002A*%
X137160000Y-76200000D03*
%TD*%
%TO.C,REF\u002A\u002A*%
X137160000Y-78740000D03*
%TD*%
%TO.C,REF\u002A\u002A*%
X137160000Y-81280000D03*
%TD*%
%TO.C,REF\u002A\u002A*%
X137160000Y-73660000D03*
%TD*%
%TO.C,REF\u002A\u002A*%
X137160000Y-71120000D03*
%TD*%
%TO.C,REF\u002A\u002A*%
X139700000Y-81280000D03*
%TD*%
%TO.C,REF\u002A\u002A*%
X139700000Y-73660000D03*
%TD*%
%TO.C,REF\u002A\u002A*%
X139700000Y-71120000D03*
%TD*%
%TO.C,REF\u002A\u002A*%
X142240000Y-76200000D03*
%TD*%
%TO.C,REF\u002A\u002A*%
X142240000Y-78740000D03*
%TD*%
%TO.C,REF\u002A\u002A*%
X142240000Y-81280000D03*
%TD*%
%TO.C,REF\u002A\u002A*%
X142240000Y-73660000D03*
%TD*%
%TO.C,REF\u002A\u002A*%
X142240000Y-71120000D03*
%TD*%
%TO.C,REF\u002A\u002A*%
X144780000Y-73660000D03*
%TD*%
%TO.C,REF\u002A\u002A*%
X144780000Y-71120000D03*
%TD*%
%TO.C,REF\u002A\u002A*%
X144780000Y-78740000D03*
%TD*%
%TO.C,REF\u002A\u002A*%
X144780000Y-76200000D03*
%TD*%
%TO.C,REF\u002A\u002A*%
X144780000Y-81280000D03*
%TD*%
D14*
%TO.C,J202*%
X101600000Y-83820000D03*
X99060000Y-83820000D03*
X101600000Y-81280000D03*
X99060000Y-81280000D03*
X101600000Y-78740000D03*
X99060000Y-78740000D03*
X101600000Y-76200000D03*
X99060000Y-76200000D03*
X101600000Y-73660000D03*
X99060000Y-73660000D03*
X101600000Y-71120000D03*
X99060000Y-71120000D03*
X101600000Y-68580000D03*
X99060000Y-68580000D03*
X101600000Y-66040000D03*
X99060000Y-66040000D03*
X101600000Y-63500000D03*
X99060000Y-63500000D03*
X101600000Y-60960000D03*
D15*
X99060000Y-60960000D03*
%TD*%
D14*
%TO.C,J201*%
X116840000Y-63500000D03*
X116840000Y-60960000D03*
X119380000Y-63500000D03*
X119380000Y-60960000D03*
X121920000Y-63500000D03*
X121920000Y-60960000D03*
X124460000Y-63500000D03*
X124460000Y-60960000D03*
X127000000Y-63500000D03*
X127000000Y-60960000D03*
X129540000Y-63500000D03*
X129540000Y-60960000D03*
X132080000Y-63500000D03*
X132080000Y-60960000D03*
X134620000Y-63500000D03*
X134620000Y-60960000D03*
X137160000Y-63500000D03*
X137160000Y-60960000D03*
X139700000Y-63500000D03*
X139700000Y-60960000D03*
X142240000Y-63500000D03*
X142240000Y-60960000D03*
X144780000Y-63500000D03*
X144780000Y-60960000D03*
X147320000Y-63500000D03*
D15*
X147320000Y-60960000D03*
%TD*%
D14*
%TO.C,J203*%
X169164000Y-106934000D03*
D15*
X171704000Y-106934000D03*
%TD*%
%TO.C,C201*%
G36*
G01*
X150108000Y-83320500D02*
X150108000Y-83715500D01*
G75*
G02*
X149935500Y-83888000I-172500J0D01*
G01*
X149590500Y-83888000D01*
G75*
G02*
X149418000Y-83715500I0J172500D01*
G01*
X149418000Y-83320500D01*
G75*
G02*
X149590500Y-83148000I172500J0D01*
G01*
X149935500Y-83148000D01*
G75*
G02*
X150108000Y-83320500I0J-172500D01*
G01*
G37*
G36*
G01*
X151078000Y-83320500D02*
X151078000Y-83715500D01*
G75*
G02*
X150905500Y-83888000I-172500J0D01*
G01*
X150560500Y-83888000D01*
G75*
G02*
X150388000Y-83715500I0J172500D01*
G01*
X150388000Y-83320500D01*
G75*
G02*
X150560500Y-83148000I172500J0D01*
G01*
X150905500Y-83148000D01*
G75*
G02*
X151078000Y-83320500I0J-172500D01*
G01*
G37*
%TD*%
%TO.C,C202*%
G36*
G01*
X169136750Y-62860000D02*
X169699250Y-62860000D01*
G75*
G02*
X169943000Y-63103750I0J-243750D01*
G01*
X169943000Y-63591250D01*
G75*
G02*
X169699250Y-63835000I-243750J0D01*
G01*
X169136750Y-63835000D01*
G75*
G02*
X168893000Y-63591250I0J243750D01*
G01*
X168893000Y-63103750D01*
G75*
G02*
X169136750Y-62860000I243750J0D01*
G01*
G37*
G36*
G01*
X169136750Y-64435000D02*
X169699250Y-64435000D01*
G75*
G02*
X169943000Y-64678750I0J-243750D01*
G01*
X169943000Y-65166250D01*
G75*
G02*
X169699250Y-65410000I-243750J0D01*
G01*
X169136750Y-65410000D01*
G75*
G02*
X168893000Y-65166250I0J243750D01*
G01*
X168893000Y-64678750D01*
G75*
G02*
X169136750Y-64435000I243750J0D01*
G01*
G37*
%TD*%
%TO.C,C203*%
G36*
G01*
X168297500Y-65466000D02*
X167902500Y-65466000D01*
G75*
G02*
X167730000Y-65293500I0J172500D01*
G01*
X167730000Y-64948500D01*
G75*
G02*
X167902500Y-64776000I172500J0D01*
G01*
X168297500Y-64776000D01*
G75*
G02*
X168470000Y-64948500I0J-172500D01*
G01*
X168470000Y-65293500D01*
G75*
G02*
X168297500Y-65466000I-172500J0D01*
G01*
G37*
G36*
G01*
X168297500Y-64496000D02*
X167902500Y-64496000D01*
G75*
G02*
X167730000Y-64323500I0J172500D01*
G01*
X167730000Y-63978500D01*
G75*
G02*
X167902500Y-63806000I172500J0D01*
G01*
X168297500Y-63806000D01*
G75*
G02*
X168470000Y-63978500I0J-172500D01*
G01*
X168470000Y-64323500D01*
G75*
G02*
X168297500Y-64496000I-172500J0D01*
G01*
G37*
%TD*%
%TO.C,C301*%
G36*
G01*
X92529000Y-96620500D02*
X92529000Y-97930500D01*
G75*
G02*
X92259000Y-98200500I-270000J0D01*
G01*
X91449000Y-98200500D01*
G75*
G02*
X91179000Y-97930500I0J270000D01*
G01*
X91179000Y-96620500D01*
G75*
G02*
X91449000Y-96350500I270000J0D01*
G01*
X92259000Y-96350500D01*
G75*
G02*
X92529000Y-96620500I0J-270000D01*
G01*
G37*
G36*
G01*
X95329000Y-96620500D02*
X95329000Y-97930500D01*
G75*
G02*
X95059000Y-98200500I-270000J0D01*
G01*
X94249000Y-98200500D01*
G75*
G02*
X93979000Y-97930500I0J270000D01*
G01*
X93979000Y-96620500D01*
G75*
G02*
X94249000Y-96350500I270000J0D01*
G01*
X95059000Y-96350500D01*
G75*
G02*
X95329000Y-96620500I0J-270000D01*
G01*
G37*
%TD*%
%TO.C,C302*%
G36*
G01*
X96104500Y-102813000D02*
X96499500Y-102813000D01*
G75*
G02*
X96672000Y-102985500I0J-172500D01*
G01*
X96672000Y-103330500D01*
G75*
G02*
X96499500Y-103503000I-172500J0D01*
G01*
X96104500Y-103503000D01*
G75*
G02*
X95932000Y-103330500I0J172500D01*
G01*
X95932000Y-102985500D01*
G75*
G02*
X96104500Y-102813000I172500J0D01*
G01*
G37*
G36*
G01*
X96104500Y-101843000D02*
X96499500Y-101843000D01*
G75*
G02*
X96672000Y-102015500I0J-172500D01*
G01*
X96672000Y-102360500D01*
G75*
G02*
X96499500Y-102533000I-172500J0D01*
G01*
X96104500Y-102533000D01*
G75*
G02*
X95932000Y-102360500I0J172500D01*
G01*
X95932000Y-102015500D01*
G75*
G02*
X96104500Y-101843000I172500J0D01*
G01*
G37*
%TD*%
%TO.C,C304*%
G36*
G01*
X95521000Y-88418750D02*
X95521000Y-89381250D01*
G75*
G02*
X95252250Y-89650000I-268750J0D01*
G01*
X94714750Y-89650000D01*
G75*
G02*
X94446000Y-89381250I0J268750D01*
G01*
X94446000Y-88418750D01*
G75*
G02*
X94714750Y-88150000I268750J0D01*
G01*
X95252250Y-88150000D01*
G75*
G02*
X95521000Y-88418750I0J-268750D01*
G01*
G37*
G36*
G01*
X97396000Y-88418750D02*
X97396000Y-89381250D01*
G75*
G02*
X97127250Y-89650000I-268750J0D01*
G01*
X96589750Y-89650000D01*
G75*
G02*
X96321000Y-89381250I0J268750D01*
G01*
X96321000Y-88418750D01*
G75*
G02*
X96589750Y-88150000I268750J0D01*
G01*
X97127250Y-88150000D01*
G75*
G02*
X97396000Y-88418750I0J-268750D01*
G01*
G37*
%TD*%
%TO.C,C305*%
G36*
G01*
X96715000Y-87178500D02*
X96715000Y-87573500D01*
G75*
G02*
X96542500Y-87746000I-172500J0D01*
G01*
X96197500Y-87746000D01*
G75*
G02*
X96025000Y-87573500I0J172500D01*
G01*
X96025000Y-87178500D01*
G75*
G02*
X96197500Y-87006000I172500J0D01*
G01*
X96542500Y-87006000D01*
G75*
G02*
X96715000Y-87178500I0J-172500D01*
G01*
G37*
G36*
G01*
X95745000Y-87178500D02*
X95745000Y-87573500D01*
G75*
G02*
X95572500Y-87746000I-172500J0D01*
G01*
X95227500Y-87746000D01*
G75*
G02*
X95055000Y-87573500I0J172500D01*
G01*
X95055000Y-87178500D01*
G75*
G02*
X95227500Y-87006000I172500J0D01*
G01*
X95572500Y-87006000D01*
G75*
G02*
X95745000Y-87178500I0J-172500D01*
G01*
G37*
%TD*%
%TO.C,C401*%
G36*
G01*
X163175000Y-93576500D02*
X163175000Y-93971500D01*
G75*
G02*
X163002500Y-94144000I-172500J0D01*
G01*
X162657500Y-94144000D01*
G75*
G02*
X162485000Y-93971500I0J172500D01*
G01*
X162485000Y-93576500D01*
G75*
G02*
X162657500Y-93404000I172500J0D01*
G01*
X163002500Y-93404000D01*
G75*
G02*
X163175000Y-93576500I0J-172500D01*
G01*
G37*
G36*
G01*
X164145000Y-93576500D02*
X164145000Y-93971500D01*
G75*
G02*
X163972500Y-94144000I-172500J0D01*
G01*
X163627500Y-94144000D01*
G75*
G02*
X163455000Y-93971500I0J172500D01*
G01*
X163455000Y-93576500D01*
G75*
G02*
X163627500Y-93404000I172500J0D01*
G01*
X163972500Y-93404000D01*
G75*
G02*
X164145000Y-93576500I0J-172500D01*
G01*
G37*
%TD*%
%TO.C,C402*%
G36*
G01*
X169210000Y-102897250D02*
X169210000Y-102334750D01*
G75*
G02*
X169453750Y-102091000I243750J0D01*
G01*
X169941250Y-102091000D01*
G75*
G02*
X170185000Y-102334750I0J-243750D01*
G01*
X170185000Y-102897250D01*
G75*
G02*
X169941250Y-103141000I-243750J0D01*
G01*
X169453750Y-103141000D01*
G75*
G02*
X169210000Y-102897250I0J243750D01*
G01*
G37*
G36*
G01*
X167635000Y-102897250D02*
X167635000Y-102334750D01*
G75*
G02*
X167878750Y-102091000I243750J0D01*
G01*
X168366250Y-102091000D01*
G75*
G02*
X168610000Y-102334750I0J-243750D01*
G01*
X168610000Y-102897250D01*
G75*
G02*
X168366250Y-103141000I-243750J0D01*
G01*
X167878750Y-103141000D01*
G75*
G02*
X167635000Y-102897250I0J243750D01*
G01*
G37*
%TD*%
%TO.C,C403*%
G36*
G01*
X169749500Y-97279000D02*
X169354500Y-97279000D01*
G75*
G02*
X169182000Y-97106500I0J172500D01*
G01*
X169182000Y-96761500D01*
G75*
G02*
X169354500Y-96589000I172500J0D01*
G01*
X169749500Y-96589000D01*
G75*
G02*
X169922000Y-96761500I0J-172500D01*
G01*
X169922000Y-97106500D01*
G75*
G02*
X169749500Y-97279000I-172500J0D01*
G01*
G37*
G36*
G01*
X169749500Y-96309000D02*
X169354500Y-96309000D01*
G75*
G02*
X169182000Y-96136500I0J172500D01*
G01*
X169182000Y-95791500D01*
G75*
G02*
X169354500Y-95619000I172500J0D01*
G01*
X169749500Y-95619000D01*
G75*
G02*
X169922000Y-95791500I0J-172500D01*
G01*
X169922000Y-96136500D01*
G75*
G02*
X169749500Y-96309000I-172500J0D01*
G01*
G37*
%TD*%
%TO.C,C404*%
G36*
G01*
X169354500Y-97674000D02*
X169749500Y-97674000D01*
G75*
G02*
X169922000Y-97846500I0J-172500D01*
G01*
X169922000Y-98191500D01*
G75*
G02*
X169749500Y-98364000I-172500J0D01*
G01*
X169354500Y-98364000D01*
G75*
G02*
X169182000Y-98191500I0J172500D01*
G01*
X169182000Y-97846500D01*
G75*
G02*
X169354500Y-97674000I172500J0D01*
G01*
G37*
G36*
G01*
X169354500Y-98644000D02*
X169749500Y-98644000D01*
G75*
G02*
X169922000Y-98816500I0J-172500D01*
G01*
X169922000Y-99161500D01*
G75*
G02*
X169749500Y-99334000I-172500J0D01*
G01*
X169354500Y-99334000D01*
G75*
G02*
X169182000Y-99161500I0J172500D01*
G01*
X169182000Y-98816500D01*
G75*
G02*
X169354500Y-98644000I172500J0D01*
G01*
G37*
%TD*%
%TO.C,C501*%
G36*
G01*
X164257000Y-108231250D02*
X164257000Y-107668750D01*
G75*
G02*
X164500750Y-107425000I243750J0D01*
G01*
X164988250Y-107425000D01*
G75*
G02*
X165232000Y-107668750I0J-243750D01*
G01*
X165232000Y-108231250D01*
G75*
G02*
X164988250Y-108475000I-243750J0D01*
G01*
X164500750Y-108475000D01*
G75*
G02*
X164257000Y-108231250I0J243750D01*
G01*
G37*
G36*
G01*
X162682000Y-108231250D02*
X162682000Y-107668750D01*
G75*
G02*
X162925750Y-107425000I243750J0D01*
G01*
X163413250Y-107425000D01*
G75*
G02*
X163657000Y-107668750I0J-243750D01*
G01*
X163657000Y-108231250D01*
G75*
G02*
X163413250Y-108475000I-243750J0D01*
G01*
X162925750Y-108475000D01*
G75*
G02*
X162682000Y-108231250I0J243750D01*
G01*
G37*
%TD*%
%TO.C,C502*%
G36*
G01*
X161549000Y-107795750D02*
X161549000Y-108358250D01*
G75*
G02*
X161305250Y-108602000I-243750J0D01*
G01*
X160817750Y-108602000D01*
G75*
G02*
X160574000Y-108358250I0J243750D01*
G01*
X160574000Y-107795750D01*
G75*
G02*
X160817750Y-107552000I243750J0D01*
G01*
X161305250Y-107552000D01*
G75*
G02*
X161549000Y-107795750I0J-243750D01*
G01*
G37*
G36*
G01*
X159974000Y-107795750D02*
X159974000Y-108358250D01*
G75*
G02*
X159730250Y-108602000I-243750J0D01*
G01*
X159242750Y-108602000D01*
G75*
G02*
X158999000Y-108358250I0J243750D01*
G01*
X158999000Y-107795750D01*
G75*
G02*
X159242750Y-107552000I243750J0D01*
G01*
X159730250Y-107552000D01*
G75*
G02*
X159974000Y-107795750I0J-243750D01*
G01*
G37*
%TD*%
%TO.C,C602*%
G36*
G01*
X115987000Y-99377500D02*
X115987000Y-99772500D01*
G75*
G02*
X115814500Y-99945000I-172500J0D01*
G01*
X115469500Y-99945000D01*
G75*
G02*
X115297000Y-99772500I0J172500D01*
G01*
X115297000Y-99377500D01*
G75*
G02*
X115469500Y-99205000I172500J0D01*
G01*
X115814500Y-99205000D01*
G75*
G02*
X115987000Y-99377500I0J-172500D01*
G01*
G37*
G36*
G01*
X116957000Y-99377500D02*
X116957000Y-99772500D01*
G75*
G02*
X116784500Y-99945000I-172500J0D01*
G01*
X116439500Y-99945000D01*
G75*
G02*
X116267000Y-99772500I0J172500D01*
G01*
X116267000Y-99377500D01*
G75*
G02*
X116439500Y-99205000I172500J0D01*
G01*
X116784500Y-99205000D01*
G75*
G02*
X116957000Y-99377500I0J-172500D01*
G01*
G37*
%TD*%
%TO.C,C603*%
G36*
G01*
X120855000Y-98705750D02*
X120855000Y-99668250D01*
G75*
G02*
X120586250Y-99937000I-268750J0D01*
G01*
X120048750Y-99937000D01*
G75*
G02*
X119780000Y-99668250I0J268750D01*
G01*
X119780000Y-98705750D01*
G75*
G02*
X120048750Y-98437000I268750J0D01*
G01*
X120586250Y-98437000D01*
G75*
G02*
X120855000Y-98705750I0J-268750D01*
G01*
G37*
G36*
G01*
X118980000Y-98705750D02*
X118980000Y-99668250D01*
G75*
G02*
X118711250Y-99937000I-268750J0D01*
G01*
X118173750Y-99937000D01*
G75*
G02*
X117905000Y-99668250I0J268750D01*
G01*
X117905000Y-98705750D01*
G75*
G02*
X118173750Y-98437000I268750J0D01*
G01*
X118711250Y-98437000D01*
G75*
G02*
X118980000Y-98705750I0J-268750D01*
G01*
G37*
%TD*%
%TO.C,C604*%
G36*
G01*
X117938000Y-87446500D02*
X117938000Y-87051500D01*
G75*
G02*
X118110500Y-86879000I172500J0D01*
G01*
X118455500Y-86879000D01*
G75*
G02*
X118628000Y-87051500I0J-172500D01*
G01*
X118628000Y-87446500D01*
G75*
G02*
X118455500Y-87619000I-172500J0D01*
G01*
X118110500Y-87619000D01*
G75*
G02*
X117938000Y-87446500I0J172500D01*
G01*
G37*
G36*
G01*
X118908000Y-87446500D02*
X118908000Y-87051500D01*
G75*
G02*
X119080500Y-86879000I172500J0D01*
G01*
X119425500Y-86879000D01*
G75*
G02*
X119598000Y-87051500I0J-172500D01*
G01*
X119598000Y-87446500D01*
G75*
G02*
X119425500Y-87619000I-172500J0D01*
G01*
X119080500Y-87619000D01*
G75*
G02*
X118908000Y-87446500I0J172500D01*
G01*
G37*
%TD*%
%TO.C,C605*%
G36*
G01*
X118252500Y-94125250D02*
X118252500Y-93562750D01*
G75*
G02*
X118496250Y-93319000I243750J0D01*
G01*
X118983750Y-93319000D01*
G75*
G02*
X119227500Y-93562750I0J-243750D01*
G01*
X119227500Y-94125250D01*
G75*
G02*
X118983750Y-94369000I-243750J0D01*
G01*
X118496250Y-94369000D01*
G75*
G02*
X118252500Y-94125250I0J243750D01*
G01*
G37*
G36*
G01*
X119827500Y-94125250D02*
X119827500Y-93562750D01*
G75*
G02*
X120071250Y-93319000I243750J0D01*
G01*
X120558750Y-93319000D01*
G75*
G02*
X120802500Y-93562750I0J-243750D01*
G01*
X120802500Y-94125250D01*
G75*
G02*
X120558750Y-94369000I-243750J0D01*
G01*
X120071250Y-94369000D01*
G75*
G02*
X119827500Y-94125250I0J243750D01*
G01*
G37*
%TD*%
%TO.C,C701*%
G36*
G01*
X152075500Y-101096000D02*
X152470500Y-101096000D01*
G75*
G02*
X152643000Y-101268500I0J-172500D01*
G01*
X152643000Y-101613500D01*
G75*
G02*
X152470500Y-101786000I-172500J0D01*
G01*
X152075500Y-101786000D01*
G75*
G02*
X151903000Y-101613500I0J172500D01*
G01*
X151903000Y-101268500D01*
G75*
G02*
X152075500Y-101096000I172500J0D01*
G01*
G37*
G36*
G01*
X152075500Y-102066000D02*
X152470500Y-102066000D01*
G75*
G02*
X152643000Y-102238500I0J-172500D01*
G01*
X152643000Y-102583500D01*
G75*
G02*
X152470500Y-102756000I-172500J0D01*
G01*
X152075500Y-102756000D01*
G75*
G02*
X151903000Y-102583500I0J172500D01*
G01*
X151903000Y-102238500D01*
G75*
G02*
X152075500Y-102066000I172500J0D01*
G01*
G37*
%TD*%
%TO.C,C702*%
G36*
G01*
X152343500Y-100620000D02*
X151948500Y-100620000D01*
G75*
G02*
X151776000Y-100447500I0J172500D01*
G01*
X151776000Y-100102500D01*
G75*
G02*
X151948500Y-99930000I172500J0D01*
G01*
X152343500Y-99930000D01*
G75*
G02*
X152516000Y-100102500I0J-172500D01*
G01*
X152516000Y-100447500D01*
G75*
G02*
X152343500Y-100620000I-172500J0D01*
G01*
G37*
G36*
G01*
X152343500Y-99650000D02*
X151948500Y-99650000D01*
G75*
G02*
X151776000Y-99477500I0J172500D01*
G01*
X151776000Y-99132500D01*
G75*
G02*
X151948500Y-98960000I172500J0D01*
G01*
X152343500Y-98960000D01*
G75*
G02*
X152516000Y-99132500I0J-172500D01*
G01*
X152516000Y-99477500D01*
G75*
G02*
X152343500Y-99650000I-172500J0D01*
G01*
G37*
%TD*%
%TO.C,C703*%
G36*
G01*
X151948500Y-96143000D02*
X152343500Y-96143000D01*
G75*
G02*
X152516000Y-96315500I0J-172500D01*
G01*
X152516000Y-96660500D01*
G75*
G02*
X152343500Y-96833000I-172500J0D01*
G01*
X151948500Y-96833000D01*
G75*
G02*
X151776000Y-96660500I0J172500D01*
G01*
X151776000Y-96315500D01*
G75*
G02*
X151948500Y-96143000I172500J0D01*
G01*
G37*
G36*
G01*
X151948500Y-95173000D02*
X152343500Y-95173000D01*
G75*
G02*
X152516000Y-95345500I0J-172500D01*
G01*
X152516000Y-95690500D01*
G75*
G02*
X152343500Y-95863000I-172500J0D01*
G01*
X151948500Y-95863000D01*
G75*
G02*
X151776000Y-95690500I0J172500D01*
G01*
X151776000Y-95345500D01*
G75*
G02*
X151948500Y-95173000I172500J0D01*
G01*
G37*
%TD*%
%TO.C,C704*%
G36*
G01*
X151217000Y-104763000D02*
X151217000Y-103453000D01*
G75*
G02*
X151487000Y-103183000I270000J0D01*
G01*
X152297000Y-103183000D01*
G75*
G02*
X152567000Y-103453000I0J-270000D01*
G01*
X152567000Y-104763000D01*
G75*
G02*
X152297000Y-105033000I-270000J0D01*
G01*
X151487000Y-105033000D01*
G75*
G02*
X151217000Y-104763000I0J270000D01*
G01*
G37*
G36*
G01*
X148417000Y-104763000D02*
X148417000Y-103453000D01*
G75*
G02*
X148687000Y-103183000I270000J0D01*
G01*
X149497000Y-103183000D01*
G75*
G02*
X149767000Y-103453000I0J-270000D01*
G01*
X149767000Y-104763000D01*
G75*
G02*
X149497000Y-105033000I-270000J0D01*
G01*
X148687000Y-105033000D01*
G75*
G02*
X148417000Y-104763000I0J270000D01*
G01*
G37*
%TD*%
%TO.C,C705*%
G36*
G01*
X150058500Y-98166250D02*
X150058500Y-97603750D01*
G75*
G02*
X150302250Y-97360000I243750J0D01*
G01*
X150789750Y-97360000D01*
G75*
G02*
X151033500Y-97603750I0J-243750D01*
G01*
X151033500Y-98166250D01*
G75*
G02*
X150789750Y-98410000I-243750J0D01*
G01*
X150302250Y-98410000D01*
G75*
G02*
X150058500Y-98166250I0J243750D01*
G01*
G37*
G36*
G01*
X148483500Y-98166250D02*
X148483500Y-97603750D01*
G75*
G02*
X148727250Y-97360000I243750J0D01*
G01*
X149214750Y-97360000D01*
G75*
G02*
X149458500Y-97603750I0J-243750D01*
G01*
X149458500Y-98166250D01*
G75*
G02*
X149214750Y-98410000I-243750J0D01*
G01*
X148727250Y-98410000D01*
G75*
G02*
X148483500Y-98166250I0J243750D01*
G01*
G37*
%TD*%
%TO.C,C706*%
G36*
G01*
X148483500Y-94356250D02*
X148483500Y-93793750D01*
G75*
G02*
X148727250Y-93550000I243750J0D01*
G01*
X149214750Y-93550000D01*
G75*
G02*
X149458500Y-93793750I0J-243750D01*
G01*
X149458500Y-94356250D01*
G75*
G02*
X149214750Y-94600000I-243750J0D01*
G01*
X148727250Y-94600000D01*
G75*
G02*
X148483500Y-94356250I0J243750D01*
G01*
G37*
G36*
G01*
X150058500Y-94356250D02*
X150058500Y-93793750D01*
G75*
G02*
X150302250Y-93550000I243750J0D01*
G01*
X150789750Y-93550000D01*
G75*
G02*
X151033500Y-93793750I0J-243750D01*
G01*
X151033500Y-94356250D01*
G75*
G02*
X150789750Y-94600000I-243750J0D01*
G01*
X150302250Y-94600000D01*
G75*
G02*
X150058500Y-94356250I0J243750D01*
G01*
G37*
%TD*%
%TO.C,C801*%
G36*
G01*
X144709500Y-107986000D02*
X145104500Y-107986000D01*
G75*
G02*
X145277000Y-108158500I0J-172500D01*
G01*
X145277000Y-108503500D01*
G75*
G02*
X145104500Y-108676000I-172500J0D01*
G01*
X144709500Y-108676000D01*
G75*
G02*
X144537000Y-108503500I0J172500D01*
G01*
X144537000Y-108158500D01*
G75*
G02*
X144709500Y-107986000I172500J0D01*
G01*
G37*
G36*
G01*
X144709500Y-107016000D02*
X145104500Y-107016000D01*
G75*
G02*
X145277000Y-107188500I0J-172500D01*
G01*
X145277000Y-107533500D01*
G75*
G02*
X145104500Y-107706000I-172500J0D01*
G01*
X144709500Y-107706000D01*
G75*
G02*
X144537000Y-107533500I0J172500D01*
G01*
X144537000Y-107188500D01*
G75*
G02*
X144709500Y-107016000I172500J0D01*
G01*
G37*
%TD*%
%TO.C,C802*%
G36*
G01*
X151303000Y-106834250D02*
X151303000Y-106271750D01*
G75*
G02*
X151546750Y-106028000I243750J0D01*
G01*
X152034250Y-106028000D01*
G75*
G02*
X152278000Y-106271750I0J-243750D01*
G01*
X152278000Y-106834250D01*
G75*
G02*
X152034250Y-107078000I-243750J0D01*
G01*
X151546750Y-107078000D01*
G75*
G02*
X151303000Y-106834250I0J243750D01*
G01*
G37*
G36*
G01*
X149728000Y-106834250D02*
X149728000Y-106271750D01*
G75*
G02*
X149971750Y-106028000I243750J0D01*
G01*
X150459250Y-106028000D01*
G75*
G02*
X150703000Y-106271750I0J-243750D01*
G01*
X150703000Y-106834250D01*
G75*
G02*
X150459250Y-107078000I-243750J0D01*
G01*
X149971750Y-107078000D01*
G75*
G02*
X149728000Y-106834250I0J243750D01*
G01*
G37*
%TD*%
%TO.C,C803*%
G36*
G01*
X148760000Y-109454000D02*
X148760000Y-110764000D01*
G75*
G02*
X148490000Y-111034000I-270000J0D01*
G01*
X147680000Y-111034000D01*
G75*
G02*
X147410000Y-110764000I0J270000D01*
G01*
X147410000Y-109454000D01*
G75*
G02*
X147680000Y-109184000I270000J0D01*
G01*
X148490000Y-109184000D01*
G75*
G02*
X148760000Y-109454000I0J-270000D01*
G01*
G37*
G36*
G01*
X145960000Y-109454000D02*
X145960000Y-110764000D01*
G75*
G02*
X145690000Y-111034000I-270000J0D01*
G01*
X144880000Y-111034000D01*
G75*
G02*
X144610000Y-110764000I0J270000D01*
G01*
X144610000Y-109454000D01*
G75*
G02*
X144880000Y-109184000I270000J0D01*
G01*
X145690000Y-109184000D01*
G75*
G02*
X145960000Y-109454000I0J-270000D01*
G01*
G37*
%TD*%
%TO.C,C901*%
G36*
G01*
X130751000Y-106228500D02*
X130751000Y-106623500D01*
G75*
G02*
X130578500Y-106796000I-172500J0D01*
G01*
X130233500Y-106796000D01*
G75*
G02*
X130061000Y-106623500I0J172500D01*
G01*
X130061000Y-106228500D01*
G75*
G02*
X130233500Y-106056000I172500J0D01*
G01*
X130578500Y-106056000D01*
G75*
G02*
X130751000Y-106228500I0J-172500D01*
G01*
G37*
G36*
G01*
X129781000Y-106228500D02*
X129781000Y-106623500D01*
G75*
G02*
X129608500Y-106796000I-172500J0D01*
G01*
X129263500Y-106796000D01*
G75*
G02*
X129091000Y-106623500I0J172500D01*
G01*
X129091000Y-106228500D01*
G75*
G02*
X129263500Y-106056000I172500J0D01*
G01*
X129608500Y-106056000D01*
G75*
G02*
X129781000Y-106228500I0J-172500D01*
G01*
G37*
%TD*%
%TO.C,C902*%
G36*
G01*
X138120500Y-110454000D02*
X138515500Y-110454000D01*
G75*
G02*
X138688000Y-110626500I0J-172500D01*
G01*
X138688000Y-110971500D01*
G75*
G02*
X138515500Y-111144000I-172500J0D01*
G01*
X138120500Y-111144000D01*
G75*
G02*
X137948000Y-110971500I0J172500D01*
G01*
X137948000Y-110626500D01*
G75*
G02*
X138120500Y-110454000I172500J0D01*
G01*
G37*
G36*
G01*
X138120500Y-109484000D02*
X138515500Y-109484000D01*
G75*
G02*
X138688000Y-109656500I0J-172500D01*
G01*
X138688000Y-110001500D01*
G75*
G02*
X138515500Y-110174000I-172500J0D01*
G01*
X138120500Y-110174000D01*
G75*
G02*
X137948000Y-110001500I0J172500D01*
G01*
X137948000Y-109656500D01*
G75*
G02*
X138120500Y-109484000I172500J0D01*
G01*
G37*
%TD*%
%TO.C,C903*%
G36*
G01*
X141457000Y-110370500D02*
X141457000Y-110765500D01*
G75*
G02*
X141284500Y-110938000I-172500J0D01*
G01*
X140939500Y-110938000D01*
G75*
G02*
X140767000Y-110765500I0J172500D01*
G01*
X140767000Y-110370500D01*
G75*
G02*
X140939500Y-110198000I172500J0D01*
G01*
X141284500Y-110198000D01*
G75*
G02*
X141457000Y-110370500I0J-172500D01*
G01*
G37*
G36*
G01*
X142427000Y-110370500D02*
X142427000Y-110765500D01*
G75*
G02*
X142254500Y-110938000I-172500J0D01*
G01*
X141909500Y-110938000D01*
G75*
G02*
X141737000Y-110765500I0J172500D01*
G01*
X141737000Y-110370500D01*
G75*
G02*
X141909500Y-110198000I172500J0D01*
G01*
X142254500Y-110198000D01*
G75*
G02*
X142427000Y-110370500I0J-172500D01*
G01*
G37*
%TD*%
%TO.C,C904*%
G36*
G01*
X130980000Y-109532000D02*
X130980000Y-110842000D01*
G75*
G02*
X130710000Y-111112000I-270000J0D01*
G01*
X129900000Y-111112000D01*
G75*
G02*
X129630000Y-110842000I0J270000D01*
G01*
X129630000Y-109532000D01*
G75*
G02*
X129900000Y-109262000I270000J0D01*
G01*
X130710000Y-109262000D01*
G75*
G02*
X130980000Y-109532000I0J-270000D01*
G01*
G37*
G36*
G01*
X128180000Y-109532000D02*
X128180000Y-110842000D01*
G75*
G02*
X127910000Y-111112000I-270000J0D01*
G01*
X127100000Y-111112000D01*
G75*
G02*
X126830000Y-110842000I0J270000D01*
G01*
X126830000Y-109532000D01*
G75*
G02*
X127100000Y-109262000I270000J0D01*
G01*
X127910000Y-109262000D01*
G75*
G02*
X128180000Y-109532000I0J-270000D01*
G01*
G37*
%TD*%
%TO.C,C905*%
G36*
G01*
X132557000Y-110286750D02*
X132557000Y-110849250D01*
G75*
G02*
X132313250Y-111093000I-243750J0D01*
G01*
X131825750Y-111093000D01*
G75*
G02*
X131582000Y-110849250I0J243750D01*
G01*
X131582000Y-110286750D01*
G75*
G02*
X131825750Y-110043000I243750J0D01*
G01*
X132313250Y-110043000D01*
G75*
G02*
X132557000Y-110286750I0J-243750D01*
G01*
G37*
G36*
G01*
X134132000Y-110286750D02*
X134132000Y-110849250D01*
G75*
G02*
X133888250Y-111093000I-243750J0D01*
G01*
X133400750Y-111093000D01*
G75*
G02*
X133157000Y-110849250I0J243750D01*
G01*
X133157000Y-110286750D01*
G75*
G02*
X133400750Y-110043000I243750J0D01*
G01*
X133888250Y-110043000D01*
G75*
G02*
X134132000Y-110286750I0J-243750D01*
G01*
G37*
%TD*%
%TO.C,C906*%
G36*
G01*
X140123250Y-114256000D02*
X139560750Y-114256000D01*
G75*
G02*
X139317000Y-114012250I0J243750D01*
G01*
X139317000Y-113524750D01*
G75*
G02*
X139560750Y-113281000I243750J0D01*
G01*
X140123250Y-113281000D01*
G75*
G02*
X140367000Y-113524750I0J-243750D01*
G01*
X140367000Y-114012250D01*
G75*
G02*
X140123250Y-114256000I-243750J0D01*
G01*
G37*
G36*
G01*
X140123250Y-112681000D02*
X139560750Y-112681000D01*
G75*
G02*
X139317000Y-112437250I0J243750D01*
G01*
X139317000Y-111949750D01*
G75*
G02*
X139560750Y-111706000I243750J0D01*
G01*
X140123250Y-111706000D01*
G75*
G02*
X140367000Y-111949750I0J-243750D01*
G01*
X140367000Y-112437250D01*
G75*
G02*
X140123250Y-112681000I-243750J0D01*
G01*
G37*
%TD*%
D16*
%TO.C,D301*%
X93254000Y-104823000D03*
X93254000Y-100523000D03*
%TD*%
D17*
%TO.C,D302*%
X96936000Y-91059000D03*
X93636000Y-91059000D03*
%TD*%
D10*
%TO.C,D303*%
X100810500Y-99019500D03*
X100810500Y-101119500D03*
%TD*%
%TO.C,D501*%
G36*
G01*
X173985000Y-107024750D02*
X173985000Y-106462250D01*
G75*
G02*
X174228750Y-106218500I243750J0D01*
G01*
X174716250Y-106218500D01*
G75*
G02*
X174960000Y-106462250I0J-243750D01*
G01*
X174960000Y-107024750D01*
G75*
G02*
X174716250Y-107268500I-243750J0D01*
G01*
X174228750Y-107268500D01*
G75*
G02*
X173985000Y-107024750I0J243750D01*
G01*
G37*
G36*
G01*
X175560000Y-107024750D02*
X175560000Y-106462250D01*
G75*
G02*
X175803750Y-106218500I243750J0D01*
G01*
X176291250Y-106218500D01*
G75*
G02*
X176535000Y-106462250I0J-243750D01*
G01*
X176535000Y-107024750D01*
G75*
G02*
X176291250Y-107268500I-243750J0D01*
G01*
X175803750Y-107268500D01*
G75*
G02*
X175560000Y-107024750I0J243750D01*
G01*
G37*
%TD*%
%TO.C,D502*%
G36*
G01*
X175565500Y-103242250D02*
X175565500Y-102679750D01*
G75*
G02*
X175809250Y-102436000I243750J0D01*
G01*
X176296750Y-102436000D01*
G75*
G02*
X176540500Y-102679750I0J-243750D01*
G01*
X176540500Y-103242250D01*
G75*
G02*
X176296750Y-103486000I-243750J0D01*
G01*
X175809250Y-103486000D01*
G75*
G02*
X175565500Y-103242250I0J243750D01*
G01*
G37*
G36*
G01*
X173990500Y-103242250D02*
X173990500Y-102679750D01*
G75*
G02*
X174234250Y-102436000I243750J0D01*
G01*
X174721750Y-102436000D01*
G75*
G02*
X174965500Y-102679750I0J-243750D01*
G01*
X174965500Y-103242250D01*
G75*
G02*
X174721750Y-103486000I-243750J0D01*
G01*
X174234250Y-103486000D01*
G75*
G02*
X173990500Y-103242250I0J243750D01*
G01*
G37*
%TD*%
D16*
%TO.C,D601*%
X123317000Y-100729000D03*
X123317000Y-105029000D03*
%TD*%
D11*
%TO.C,D602*%
X117345000Y-101346000D03*
X120145000Y-101346000D03*
%TD*%
%TO.C,F301*%
G36*
G01*
X97192000Y-104501000D02*
X97192000Y-105811000D01*
G75*
G02*
X96922000Y-106081000I-270000J0D01*
G01*
X96112000Y-106081000D01*
G75*
G02*
X95842000Y-105811000I0J270000D01*
G01*
X95842000Y-104501000D01*
G75*
G02*
X96112000Y-104231000I270000J0D01*
G01*
X96922000Y-104231000D01*
G75*
G02*
X97192000Y-104501000I0J-270000D01*
G01*
G37*
G36*
G01*
X99992000Y-104501000D02*
X99992000Y-105811000D01*
G75*
G02*
X99722000Y-106081000I-270000J0D01*
G01*
X98912000Y-106081000D01*
G75*
G02*
X98642000Y-105811000I0J270000D01*
G01*
X98642000Y-104501000D01*
G75*
G02*
X98912000Y-104231000I270000J0D01*
G01*
X99722000Y-104231000D01*
G75*
G02*
X99992000Y-104501000I0J-270000D01*
G01*
G37*
%TD*%
%TO.C,F601*%
G36*
G01*
X116411000Y-106056000D02*
X116411000Y-104746000D01*
G75*
G02*
X116681000Y-104476000I270000J0D01*
G01*
X117491000Y-104476000D01*
G75*
G02*
X117761000Y-104746000I0J-270000D01*
G01*
X117761000Y-106056000D01*
G75*
G02*
X117491000Y-106326000I-270000J0D01*
G01*
X116681000Y-106326000D01*
G75*
G02*
X116411000Y-106056000I0J270000D01*
G01*
G37*
G36*
G01*
X119211000Y-106056000D02*
X119211000Y-104746000D01*
G75*
G02*
X119481000Y-104476000I270000J0D01*
G01*
X120291000Y-104476000D01*
G75*
G02*
X120561000Y-104746000I0J-270000D01*
G01*
X120561000Y-106056000D01*
G75*
G02*
X120291000Y-106326000I-270000J0D01*
G01*
X119481000Y-106326000D01*
G75*
G02*
X119211000Y-106056000I0J270000D01*
G01*
G37*
%TD*%
%TO.C,FB301*%
G36*
G01*
X97140500Y-103160750D02*
X97140500Y-102198250D01*
G75*
G02*
X97409250Y-101929500I268750J0D01*
G01*
X97946750Y-101929500D01*
G75*
G02*
X98215500Y-102198250I0J-268750D01*
G01*
X98215500Y-103160750D01*
G75*
G02*
X97946750Y-103429500I-268750J0D01*
G01*
X97409250Y-103429500D01*
G75*
G02*
X97140500Y-103160750I0J268750D01*
G01*
G37*
G36*
G01*
X99015500Y-103160750D02*
X99015500Y-102198250D01*
G75*
G02*
X99284250Y-101929500I268750J0D01*
G01*
X99821750Y-101929500D01*
G75*
G02*
X100090500Y-102198250I0J-268750D01*
G01*
X100090500Y-103160750D01*
G75*
G02*
X99821750Y-103429500I-268750J0D01*
G01*
X99284250Y-103429500D01*
G75*
G02*
X99015500Y-103160750I0J268750D01*
G01*
G37*
%TD*%
%TO.C,FB401*%
G36*
G01*
X170968750Y-99363000D02*
X171931250Y-99363000D01*
G75*
G02*
X172200000Y-99631750I0J-268750D01*
G01*
X172200000Y-100169250D01*
G75*
G02*
X171931250Y-100438000I-268750J0D01*
G01*
X170968750Y-100438000D01*
G75*
G02*
X170700000Y-100169250I0J268750D01*
G01*
X170700000Y-99631750D01*
G75*
G02*
X170968750Y-99363000I268750J0D01*
G01*
G37*
G36*
G01*
X170968750Y-101238000D02*
X171931250Y-101238000D01*
G75*
G02*
X172200000Y-101506750I0J-268750D01*
G01*
X172200000Y-102044250D01*
G75*
G02*
X171931250Y-102313000I-268750J0D01*
G01*
X170968750Y-102313000D01*
G75*
G02*
X170700000Y-102044250I0J268750D01*
G01*
X170700000Y-101506750D01*
G75*
G02*
X170968750Y-101238000I268750J0D01*
G01*
G37*
%TD*%
%TO.C,FB601*%
G36*
G01*
X115670250Y-104453500D02*
X114707750Y-104453500D01*
G75*
G02*
X114439000Y-104184750I0J268750D01*
G01*
X114439000Y-103647250D01*
G75*
G02*
X114707750Y-103378500I268750J0D01*
G01*
X115670250Y-103378500D01*
G75*
G02*
X115939000Y-103647250I0J-268750D01*
G01*
X115939000Y-104184750D01*
G75*
G02*
X115670250Y-104453500I-268750J0D01*
G01*
G37*
G36*
G01*
X115670250Y-106328500D02*
X114707750Y-106328500D01*
G75*
G02*
X114439000Y-106059750I0J268750D01*
G01*
X114439000Y-105522250D01*
G75*
G02*
X114707750Y-105253500I268750J0D01*
G01*
X115670250Y-105253500D01*
G75*
G02*
X115939000Y-105522250I0J-268750D01*
G01*
X115939000Y-106059750D01*
G75*
G02*
X115670250Y-106328500I-268750J0D01*
G01*
G37*
%TD*%
%TO.C,FB701*%
G36*
G01*
X148433500Y-102430250D02*
X148433500Y-101467750D01*
G75*
G02*
X148702250Y-101199000I268750J0D01*
G01*
X149239750Y-101199000D01*
G75*
G02*
X149508500Y-101467750I0J-268750D01*
G01*
X149508500Y-102430250D01*
G75*
G02*
X149239750Y-102699000I-268750J0D01*
G01*
X148702250Y-102699000D01*
G75*
G02*
X148433500Y-102430250I0J268750D01*
G01*
G37*
G36*
G01*
X150308500Y-102430250D02*
X150308500Y-101467750D01*
G75*
G02*
X150577250Y-101199000I268750J0D01*
G01*
X151114750Y-101199000D01*
G75*
G02*
X151383500Y-101467750I0J-268750D01*
G01*
X151383500Y-102430250D01*
G75*
G02*
X151114750Y-102699000I-268750J0D01*
G01*
X150577250Y-102699000D01*
G75*
G02*
X150308500Y-102430250I0J268750D01*
G01*
G37*
%TD*%
%TO.C,FB702*%
G36*
G01*
X148433500Y-100271250D02*
X148433500Y-99308750D01*
G75*
G02*
X148702250Y-99040000I268750J0D01*
G01*
X149239750Y-99040000D01*
G75*
G02*
X149508500Y-99308750I0J-268750D01*
G01*
X149508500Y-100271250D01*
G75*
G02*
X149239750Y-100540000I-268750J0D01*
G01*
X148702250Y-100540000D01*
G75*
G02*
X148433500Y-100271250I0J268750D01*
G01*
G37*
G36*
G01*
X150308500Y-100271250D02*
X150308500Y-99308750D01*
G75*
G02*
X150577250Y-99040000I268750J0D01*
G01*
X151114750Y-99040000D01*
G75*
G02*
X151383500Y-99308750I0J-268750D01*
G01*
X151383500Y-100271250D01*
G75*
G02*
X151114750Y-100540000I-268750J0D01*
G01*
X150577250Y-100540000D01*
G75*
G02*
X150308500Y-100271250I0J268750D01*
G01*
G37*
%TD*%
%TO.C,FB703*%
G36*
G01*
X148433500Y-96461250D02*
X148433500Y-95498750D01*
G75*
G02*
X148702250Y-95230000I268750J0D01*
G01*
X149239750Y-95230000D01*
G75*
G02*
X149508500Y-95498750I0J-268750D01*
G01*
X149508500Y-96461250D01*
G75*
G02*
X149239750Y-96730000I-268750J0D01*
G01*
X148702250Y-96730000D01*
G75*
G02*
X148433500Y-96461250I0J268750D01*
G01*
G37*
G36*
G01*
X150308500Y-96461250D02*
X150308500Y-95498750D01*
G75*
G02*
X150577250Y-95230000I268750J0D01*
G01*
X151114750Y-95230000D01*
G75*
G02*
X151383500Y-95498750I0J-268750D01*
G01*
X151383500Y-96461250D01*
G75*
G02*
X151114750Y-96730000I-268750J0D01*
G01*
X150577250Y-96730000D01*
G75*
G02*
X150308500Y-96461250I0J268750D01*
G01*
G37*
%TD*%
%TO.C,FB801*%
G36*
G01*
X146744500Y-107468750D02*
X146744500Y-108431250D01*
G75*
G02*
X146475750Y-108700000I-268750J0D01*
G01*
X145938250Y-108700000D01*
G75*
G02*
X145669500Y-108431250I0J268750D01*
G01*
X145669500Y-107468750D01*
G75*
G02*
X145938250Y-107200000I268750J0D01*
G01*
X146475750Y-107200000D01*
G75*
G02*
X146744500Y-107468750I0J-268750D01*
G01*
G37*
G36*
G01*
X148619500Y-107468750D02*
X148619500Y-108431250D01*
G75*
G02*
X148350750Y-108700000I-268750J0D01*
G01*
X147813250Y-108700000D01*
G75*
G02*
X147544500Y-108431250I0J268750D01*
G01*
X147544500Y-107468750D01*
G75*
G02*
X147813250Y-107200000I268750J0D01*
G01*
X148350750Y-107200000D01*
G75*
G02*
X148619500Y-107468750I0J-268750D01*
G01*
G37*
%TD*%
%TO.C,FB902*%
G36*
G01*
X129559000Y-108431250D02*
X129559000Y-107468750D01*
G75*
G02*
X129827750Y-107200000I268750J0D01*
G01*
X130365250Y-107200000D01*
G75*
G02*
X130634000Y-107468750I0J-268750D01*
G01*
X130634000Y-108431250D01*
G75*
G02*
X130365250Y-108700000I-268750J0D01*
G01*
X129827750Y-108700000D01*
G75*
G02*
X129559000Y-108431250I0J268750D01*
G01*
G37*
G36*
G01*
X127684000Y-108431250D02*
X127684000Y-107468750D01*
G75*
G02*
X127952750Y-107200000I268750J0D01*
G01*
X128490250Y-107200000D01*
G75*
G02*
X128759000Y-107468750I0J-268750D01*
G01*
X128759000Y-108431250D01*
G75*
G02*
X128490250Y-108700000I-268750J0D01*
G01*
X127952750Y-108700000D01*
G75*
G02*
X127684000Y-108431250I0J268750D01*
G01*
G37*
%TD*%
%TO.C,FB903*%
G36*
G01*
X136480500Y-110795250D02*
X136480500Y-109832750D01*
G75*
G02*
X136749250Y-109564000I268750J0D01*
G01*
X137286750Y-109564000D01*
G75*
G02*
X137555500Y-109832750I0J-268750D01*
G01*
X137555500Y-110795250D01*
G75*
G02*
X137286750Y-111064000I-268750J0D01*
G01*
X136749250Y-111064000D01*
G75*
G02*
X136480500Y-110795250I0J268750D01*
G01*
G37*
G36*
G01*
X134605500Y-110795250D02*
X134605500Y-109832750D01*
G75*
G02*
X134874250Y-109564000I268750J0D01*
G01*
X135411750Y-109564000D01*
G75*
G02*
X135680500Y-109832750I0J-268750D01*
G01*
X135680500Y-110795250D01*
G75*
G02*
X135411750Y-111064000I-268750J0D01*
G01*
X134874250Y-111064000D01*
G75*
G02*
X134605500Y-110795250I0J268750D01*
G01*
G37*
%TD*%
%TO.C,FB904*%
G36*
G01*
X142101250Y-114250500D02*
X141138750Y-114250500D01*
G75*
G02*
X140870000Y-113981750I0J268750D01*
G01*
X140870000Y-113444250D01*
G75*
G02*
X141138750Y-113175500I268750J0D01*
G01*
X142101250Y-113175500D01*
G75*
G02*
X142370000Y-113444250I0J-268750D01*
G01*
X142370000Y-113981750D01*
G75*
G02*
X142101250Y-114250500I-268750J0D01*
G01*
G37*
G36*
G01*
X142101250Y-112375500D02*
X141138750Y-112375500D01*
G75*
G02*
X140870000Y-112106750I0J268750D01*
G01*
X140870000Y-111569250D01*
G75*
G02*
X141138750Y-111300500I268750J0D01*
G01*
X142101250Y-111300500D01*
G75*
G02*
X142370000Y-111569250I0J-268750D01*
G01*
X142370000Y-112106750D01*
G75*
G02*
X142101250Y-112375500I-268750J0D01*
G01*
G37*
%TD*%
D18*
%TO.C,J401*%
X174044000Y-94388000D03*
D19*
X176594000Y-94663000D03*
X176594000Y-100313000D03*
D20*
X176594000Y-98688000D03*
D21*
X173919000Y-97488000D03*
X173919000Y-96838000D03*
X173919000Y-96188000D03*
X173919000Y-98788000D03*
X173919000Y-98138000D03*
D20*
X176594000Y-96288000D03*
D18*
X174044000Y-100588000D03*
D22*
X174244000Y-99488000D03*
X174244000Y-95488000D03*
%TD*%
%TO.C,J701*%
G36*
G01*
X144150000Y-91975000D02*
X144150000Y-90675000D01*
G75*
G02*
X144325000Y-90500000I175000J0D01*
G01*
X144675000Y-90500000D01*
G75*
G02*
X144850000Y-90675000I0J-175000D01*
G01*
X144850000Y-91975000D01*
G75*
G02*
X144675000Y-92150000I-175000J0D01*
G01*
X144325000Y-92150000D01*
G75*
G02*
X144150000Y-91975000I0J175000D01*
G01*
G37*
G36*
G01*
X145150000Y-91975000D02*
X145150000Y-90675000D01*
G75*
G02*
X145325000Y-90500000I175000J0D01*
G01*
X145675000Y-90500000D01*
G75*
G02*
X145850000Y-90675000I0J-175000D01*
G01*
X145850000Y-91975000D01*
G75*
G02*
X145675000Y-92150000I-175000J0D01*
G01*
X145325000Y-92150000D01*
G75*
G02*
X145150000Y-91975000I0J175000D01*
G01*
G37*
G36*
G01*
X146150000Y-91975000D02*
X146150000Y-90675000D01*
G75*
G02*
X146325000Y-90500000I175000J0D01*
G01*
X146675000Y-90500000D01*
G75*
G02*
X146850000Y-90675000I0J-175000D01*
G01*
X146850000Y-91975000D01*
G75*
G02*
X146675000Y-92150000I-175000J0D01*
G01*
X146325000Y-92150000D01*
G75*
G02*
X146150000Y-91975000I0J175000D01*
G01*
G37*
G36*
G01*
X147150000Y-91975000D02*
X147150000Y-90675000D01*
G75*
G02*
X147325000Y-90500000I175000J0D01*
G01*
X147675000Y-90500000D01*
G75*
G02*
X147850000Y-90675000I0J-175000D01*
G01*
X147850000Y-91975000D01*
G75*
G02*
X147675000Y-92150000I-175000J0D01*
G01*
X147325000Y-92150000D01*
G75*
G02*
X147150000Y-91975000I0J175000D01*
G01*
G37*
G36*
G01*
X142550000Y-89479168D02*
X142550000Y-88120832D01*
G75*
G02*
X142820832Y-87850000I270832J0D01*
G01*
X143579168Y-87850000D01*
G75*
G02*
X143850000Y-88120832I0J-270832D01*
G01*
X143850000Y-89479168D01*
G75*
G02*
X143579168Y-89750000I-270832J0D01*
G01*
X142820832Y-89750000D01*
G75*
G02*
X142550000Y-89479168I0J270832D01*
G01*
G37*
G36*
G01*
X148150000Y-89479168D02*
X148150000Y-88120832D01*
G75*
G02*
X148420832Y-87850000I270832J0D01*
G01*
X149179168Y-87850000D01*
G75*
G02*
X149450000Y-88120832I0J-270832D01*
G01*
X149450000Y-89479168D01*
G75*
G02*
X149179168Y-89750000I-270832J0D01*
G01*
X148420832Y-89750000D01*
G75*
G02*
X148150000Y-89479168I0J270832D01*
G01*
G37*
%TD*%
D15*
%TO.C,JP601*%
X109855000Y-100584000D03*
D14*
X112395000Y-100584000D03*
%TD*%
D23*
%TO.C,L301*%
X100620000Y-95007500D03*
X100620000Y-90907500D03*
%TD*%
D24*
%TO.C,Q301*%
X98889500Y-100702000D03*
X98889500Y-98802000D03*
X96889500Y-99752000D03*
%TD*%
D25*
%TO.C,Q401*%
X166431000Y-102632000D03*
X164531000Y-102632000D03*
X165481000Y-104632000D03*
%TD*%
D24*
%TO.C,Q402*%
X160798000Y-103680000D03*
X162798000Y-102730000D03*
X162798000Y-104630000D03*
%TD*%
D25*
%TO.C,Q901*%
X142065000Y-107282000D03*
X140165000Y-107282000D03*
X141115000Y-109282000D03*
%TD*%
%TO.C,R201*%
G36*
G01*
X166265500Y-64496000D02*
X165870500Y-64496000D01*
G75*
G02*
X165698000Y-64323500I0J172500D01*
G01*
X165698000Y-63978500D01*
G75*
G02*
X165870500Y-63806000I172500J0D01*
G01*
X166265500Y-63806000D01*
G75*
G02*
X166438000Y-63978500I0J-172500D01*
G01*
X166438000Y-64323500D01*
G75*
G02*
X166265500Y-64496000I-172500J0D01*
G01*
G37*
G36*
G01*
X166265500Y-65466000D02*
X165870500Y-65466000D01*
G75*
G02*
X165698000Y-65293500I0J172500D01*
G01*
X165698000Y-64948500D01*
G75*
G02*
X165870500Y-64776000I172500J0D01*
G01*
X166265500Y-64776000D01*
G75*
G02*
X166438000Y-64948500I0J-172500D01*
G01*
X166438000Y-65293500D01*
G75*
G02*
X166265500Y-65466000I-172500J0D01*
G01*
G37*
%TD*%
%TO.C,R202*%
G36*
G01*
X166805750Y-87371000D02*
X167368250Y-87371000D01*
G75*
G02*
X167612000Y-87614750I0J-243750D01*
G01*
X167612000Y-88102250D01*
G75*
G02*
X167368250Y-88346000I-243750J0D01*
G01*
X166805750Y-88346000D01*
G75*
G02*
X166562000Y-88102250I0J243750D01*
G01*
X166562000Y-87614750D01*
G75*
G02*
X166805750Y-87371000I243750J0D01*
G01*
G37*
G36*
G01*
X166805750Y-88946000D02*
X167368250Y-88946000D01*
G75*
G02*
X167612000Y-89189750I0J-243750D01*
G01*
X167612000Y-89677250D01*
G75*
G02*
X167368250Y-89921000I-243750J0D01*
G01*
X166805750Y-89921000D01*
G75*
G02*
X166562000Y-89677250I0J243750D01*
G01*
X166562000Y-89189750D01*
G75*
G02*
X166805750Y-88946000I243750J0D01*
G01*
G37*
%TD*%
%TO.C,R203*%
G36*
G01*
X164818750Y-88946000D02*
X165381250Y-88946000D01*
G75*
G02*
X165625000Y-89189750I0J-243750D01*
G01*
X165625000Y-89677250D01*
G75*
G02*
X165381250Y-89921000I-243750J0D01*
G01*
X164818750Y-89921000D01*
G75*
G02*
X164575000Y-89677250I0J243750D01*
G01*
X164575000Y-89189750D01*
G75*
G02*
X164818750Y-88946000I243750J0D01*
G01*
G37*
G36*
G01*
X164818750Y-87371000D02*
X165381250Y-87371000D01*
G75*
G02*
X165625000Y-87614750I0J-243750D01*
G01*
X165625000Y-88102250D01*
G75*
G02*
X165381250Y-88346000I-243750J0D01*
G01*
X164818750Y-88346000D01*
G75*
G02*
X164575000Y-88102250I0J243750D01*
G01*
X164575000Y-87614750D01*
G75*
G02*
X164818750Y-87371000I243750J0D01*
G01*
G37*
%TD*%
%TO.C,R204*%
G36*
G01*
X162079250Y-88346000D02*
X161516750Y-88346000D01*
G75*
G02*
X161273000Y-88102250I0J243750D01*
G01*
X161273000Y-87614750D01*
G75*
G02*
X161516750Y-87371000I243750J0D01*
G01*
X162079250Y-87371000D01*
G75*
G02*
X162323000Y-87614750I0J-243750D01*
G01*
X162323000Y-88102250D01*
G75*
G02*
X162079250Y-88346000I-243750J0D01*
G01*
G37*
G36*
G01*
X162079250Y-89921000D02*
X161516750Y-89921000D01*
G75*
G02*
X161273000Y-89677250I0J243750D01*
G01*
X161273000Y-89189750D01*
G75*
G02*
X161516750Y-88946000I243750J0D01*
G01*
X162079250Y-88946000D01*
G75*
G02*
X162323000Y-89189750I0J-243750D01*
G01*
X162323000Y-89677250D01*
G75*
G02*
X162079250Y-89921000I-243750J0D01*
G01*
G37*
%TD*%
%TO.C,R205*%
G36*
G01*
X160047250Y-89921000D02*
X159484750Y-89921000D01*
G75*
G02*
X159241000Y-89677250I0J243750D01*
G01*
X159241000Y-89189750D01*
G75*
G02*
X159484750Y-88946000I243750J0D01*
G01*
X160047250Y-88946000D01*
G75*
G02*
X160291000Y-89189750I0J-243750D01*
G01*
X160291000Y-89677250D01*
G75*
G02*
X160047250Y-89921000I-243750J0D01*
G01*
G37*
G36*
G01*
X160047250Y-88346000D02*
X159484750Y-88346000D01*
G75*
G02*
X159241000Y-88102250I0J243750D01*
G01*
X159241000Y-87614750D01*
G75*
G02*
X159484750Y-87371000I243750J0D01*
G01*
X160047250Y-87371000D01*
G75*
G02*
X160291000Y-87614750I0J-243750D01*
G01*
X160291000Y-88102250D01*
G75*
G02*
X160047250Y-88346000I-243750J0D01*
G01*
G37*
%TD*%
%TO.C,R206*%
G36*
G01*
X153062250Y-88320500D02*
X152499750Y-88320500D01*
G75*
G02*
X152256000Y-88076750I0J243750D01*
G01*
X152256000Y-87589250D01*
G75*
G02*
X152499750Y-87345500I243750J0D01*
G01*
X153062250Y-87345500D01*
G75*
G02*
X153306000Y-87589250I0J-243750D01*
G01*
X153306000Y-88076750D01*
G75*
G02*
X153062250Y-88320500I-243750J0D01*
G01*
G37*
G36*
G01*
X153062250Y-89895500D02*
X152499750Y-89895500D01*
G75*
G02*
X152256000Y-89651750I0J243750D01*
G01*
X152256000Y-89164250D01*
G75*
G02*
X152499750Y-88920500I243750J0D01*
G01*
X153062250Y-88920500D01*
G75*
G02*
X153306000Y-89164250I0J-243750D01*
G01*
X153306000Y-89651750D01*
G75*
G02*
X153062250Y-89895500I-243750J0D01*
G01*
G37*
%TD*%
%TO.C,R207*%
G36*
G01*
X155094250Y-89921000D02*
X154531750Y-89921000D01*
G75*
G02*
X154288000Y-89677250I0J243750D01*
G01*
X154288000Y-89189750D01*
G75*
G02*
X154531750Y-88946000I243750J0D01*
G01*
X155094250Y-88946000D01*
G75*
G02*
X155338000Y-89189750I0J-243750D01*
G01*
X155338000Y-89677250D01*
G75*
G02*
X155094250Y-89921000I-243750J0D01*
G01*
G37*
G36*
G01*
X155094250Y-88346000D02*
X154531750Y-88346000D01*
G75*
G02*
X154288000Y-88102250I0J243750D01*
G01*
X154288000Y-87614750D01*
G75*
G02*
X154531750Y-87371000I243750J0D01*
G01*
X155094250Y-87371000D01*
G75*
G02*
X155338000Y-87614750I0J-243750D01*
G01*
X155338000Y-88102250D01*
G75*
G02*
X155094250Y-88346000I-243750J0D01*
G01*
G37*
%TD*%
%TO.C,R208*%
G36*
G01*
X157126250Y-89921000D02*
X156563750Y-89921000D01*
G75*
G02*
X156320000Y-89677250I0J243750D01*
G01*
X156320000Y-89189750D01*
G75*
G02*
X156563750Y-88946000I243750J0D01*
G01*
X157126250Y-88946000D01*
G75*
G02*
X157370000Y-89189750I0J-243750D01*
G01*
X157370000Y-89677250D01*
G75*
G02*
X157126250Y-89921000I-243750J0D01*
G01*
G37*
G36*
G01*
X157126250Y-88346000D02*
X156563750Y-88346000D01*
G75*
G02*
X156320000Y-88102250I0J243750D01*
G01*
X156320000Y-87614750D01*
G75*
G02*
X156563750Y-87371000I243750J0D01*
G01*
X157126250Y-87371000D01*
G75*
G02*
X157370000Y-87614750I0J-243750D01*
G01*
X157370000Y-88102250D01*
G75*
G02*
X157126250Y-88346000I-243750J0D01*
G01*
G37*
%TD*%
%TO.C,R209*%
G36*
G01*
X133758250Y-91140000D02*
X133195750Y-91140000D01*
G75*
G02*
X132952000Y-90896250I0J243750D01*
G01*
X132952000Y-90408750D01*
G75*
G02*
X133195750Y-90165000I243750J0D01*
G01*
X133758250Y-90165000D01*
G75*
G02*
X134002000Y-90408750I0J-243750D01*
G01*
X134002000Y-90896250D01*
G75*
G02*
X133758250Y-91140000I-243750J0D01*
G01*
G37*
G36*
G01*
X133758250Y-92715000D02*
X133195750Y-92715000D01*
G75*
G02*
X132952000Y-92471250I0J243750D01*
G01*
X132952000Y-91983750D01*
G75*
G02*
X133195750Y-91740000I243750J0D01*
G01*
X133758250Y-91740000D01*
G75*
G02*
X134002000Y-91983750I0J-243750D01*
G01*
X134002000Y-92471250D01*
G75*
G02*
X133758250Y-92715000I-243750J0D01*
G01*
G37*
%TD*%
%TO.C,R210*%
G36*
G01*
X136044250Y-92715000D02*
X135481750Y-92715000D01*
G75*
G02*
X135238000Y-92471250I0J243750D01*
G01*
X135238000Y-91983750D01*
G75*
G02*
X135481750Y-91740000I243750J0D01*
G01*
X136044250Y-91740000D01*
G75*
G02*
X136288000Y-91983750I0J-243750D01*
G01*
X136288000Y-92471250D01*
G75*
G02*
X136044250Y-92715000I-243750J0D01*
G01*
G37*
G36*
G01*
X136044250Y-91140000D02*
X135481750Y-91140000D01*
G75*
G02*
X135238000Y-90896250I0J243750D01*
G01*
X135238000Y-90408750D01*
G75*
G02*
X135481750Y-90165000I243750J0D01*
G01*
X136044250Y-90165000D01*
G75*
G02*
X136288000Y-90408750I0J-243750D01*
G01*
X136288000Y-90896250D01*
G75*
G02*
X136044250Y-91140000I-243750J0D01*
G01*
G37*
%TD*%
%TO.C,R211*%
G36*
G01*
X150108000Y-84336500D02*
X150108000Y-84731500D01*
G75*
G02*
X149935500Y-84904000I-172500J0D01*
G01*
X149590500Y-84904000D01*
G75*
G02*
X149418000Y-84731500I0J172500D01*
G01*
X149418000Y-84336500D01*
G75*
G02*
X149590500Y-84164000I172500J0D01*
G01*
X149935500Y-84164000D01*
G75*
G02*
X150108000Y-84336500I0J-172500D01*
G01*
G37*
G36*
G01*
X151078000Y-84336500D02*
X151078000Y-84731500D01*
G75*
G02*
X150905500Y-84904000I-172500J0D01*
G01*
X150560500Y-84904000D01*
G75*
G02*
X150388000Y-84731500I0J172500D01*
G01*
X150388000Y-84336500D01*
G75*
G02*
X150560500Y-84164000I172500J0D01*
G01*
X150905500Y-84164000D01*
G75*
G02*
X151078000Y-84336500I0J-172500D01*
G01*
G37*
%TD*%
%TO.C,R212*%
G36*
G01*
X167281500Y-65466000D02*
X166886500Y-65466000D01*
G75*
G02*
X166714000Y-65293500I0J172500D01*
G01*
X166714000Y-64948500D01*
G75*
G02*
X166886500Y-64776000I172500J0D01*
G01*
X167281500Y-64776000D01*
G75*
G02*
X167454000Y-64948500I0J-172500D01*
G01*
X167454000Y-65293500D01*
G75*
G02*
X167281500Y-65466000I-172500J0D01*
G01*
G37*
G36*
G01*
X167281500Y-64496000D02*
X166886500Y-64496000D01*
G75*
G02*
X166714000Y-64323500I0J172500D01*
G01*
X166714000Y-63978500D01*
G75*
G02*
X166886500Y-63806000I172500J0D01*
G01*
X167281500Y-63806000D01*
G75*
G02*
X167454000Y-63978500I0J-172500D01*
G01*
X167454000Y-64323500D01*
G75*
G02*
X167281500Y-64496000I-172500J0D01*
G01*
G37*
%TD*%
%TO.C,R301*%
G36*
G01*
X100740000Y-101970000D02*
X101135000Y-101970000D01*
G75*
G02*
X101307500Y-102142500I0J-172500D01*
G01*
X101307500Y-102487500D01*
G75*
G02*
X101135000Y-102660000I-172500J0D01*
G01*
X100740000Y-102660000D01*
G75*
G02*
X100567500Y-102487500I0J172500D01*
G01*
X100567500Y-102142500D01*
G75*
G02*
X100740000Y-101970000I172500J0D01*
G01*
G37*
G36*
G01*
X100740000Y-102940000D02*
X101135000Y-102940000D01*
G75*
G02*
X101307500Y-103112500I0J-172500D01*
G01*
X101307500Y-103457500D01*
G75*
G02*
X101135000Y-103630000I-172500J0D01*
G01*
X100740000Y-103630000D01*
G75*
G02*
X100567500Y-103457500I0J172500D01*
G01*
X100567500Y-103112500D01*
G75*
G02*
X100740000Y-102940000I172500J0D01*
G01*
G37*
%TD*%
%TO.C,R302*%
G36*
G01*
X91743000Y-94298000D02*
X91743000Y-93903000D01*
G75*
G02*
X91915500Y-93730500I172500J0D01*
G01*
X92260500Y-93730500D01*
G75*
G02*
X92433000Y-93903000I0J-172500D01*
G01*
X92433000Y-94298000D01*
G75*
G02*
X92260500Y-94470500I-172500J0D01*
G01*
X91915500Y-94470500D01*
G75*
G02*
X91743000Y-94298000I0J172500D01*
G01*
G37*
G36*
G01*
X90773000Y-94298000D02*
X90773000Y-93903000D01*
G75*
G02*
X90945500Y-93730500I172500J0D01*
G01*
X91290500Y-93730500D01*
G75*
G02*
X91463000Y-93903000I0J-172500D01*
G01*
X91463000Y-94298000D01*
G75*
G02*
X91290500Y-94470500I-172500J0D01*
G01*
X90945500Y-94470500D01*
G75*
G02*
X90773000Y-94298000I0J172500D01*
G01*
G37*
%TD*%
%TO.C,R303*%
G36*
G01*
X92433000Y-92887000D02*
X92433000Y-93282000D01*
G75*
G02*
X92260500Y-93454500I-172500J0D01*
G01*
X91915500Y-93454500D01*
G75*
G02*
X91743000Y-93282000I0J172500D01*
G01*
X91743000Y-92887000D01*
G75*
G02*
X91915500Y-92714500I172500J0D01*
G01*
X92260500Y-92714500D01*
G75*
G02*
X92433000Y-92887000I0J-172500D01*
G01*
G37*
G36*
G01*
X91463000Y-92887000D02*
X91463000Y-93282000D01*
G75*
G02*
X91290500Y-93454500I-172500J0D01*
G01*
X90945500Y-93454500D01*
G75*
G02*
X90773000Y-93282000I0J172500D01*
G01*
X90773000Y-92887000D01*
G75*
G02*
X90945500Y-92714500I172500J0D01*
G01*
X91290500Y-92714500D01*
G75*
G02*
X91463000Y-92887000I0J-172500D01*
G01*
G37*
%TD*%
%TO.C,R401*%
G36*
G01*
X162573000Y-106242500D02*
X162573000Y-105847500D01*
G75*
G02*
X162745500Y-105675000I172500J0D01*
G01*
X163090500Y-105675000D01*
G75*
G02*
X163263000Y-105847500I0J-172500D01*
G01*
X163263000Y-106242500D01*
G75*
G02*
X163090500Y-106415000I-172500J0D01*
G01*
X162745500Y-106415000D01*
G75*
G02*
X162573000Y-106242500I0J172500D01*
G01*
G37*
G36*
G01*
X161603000Y-106242500D02*
X161603000Y-105847500D01*
G75*
G02*
X161775500Y-105675000I172500J0D01*
G01*
X162120500Y-105675000D01*
G75*
G02*
X162293000Y-105847500I0J-172500D01*
G01*
X162293000Y-106242500D01*
G75*
G02*
X162120500Y-106415000I-172500J0D01*
G01*
X161775500Y-106415000D01*
G75*
G02*
X161603000Y-106242500I0J172500D01*
G01*
G37*
%TD*%
%TO.C,R402*%
G36*
G01*
X165422000Y-105847500D02*
X165422000Y-106242500D01*
G75*
G02*
X165249500Y-106415000I-172500J0D01*
G01*
X164904500Y-106415000D01*
G75*
G02*
X164732000Y-106242500I0J172500D01*
G01*
X164732000Y-105847500D01*
G75*
G02*
X164904500Y-105675000I172500J0D01*
G01*
X165249500Y-105675000D01*
G75*
G02*
X165422000Y-105847500I0J-172500D01*
G01*
G37*
G36*
G01*
X164452000Y-105847500D02*
X164452000Y-106242500D01*
G75*
G02*
X164279500Y-106415000I-172500J0D01*
G01*
X163934500Y-106415000D01*
G75*
G02*
X163762000Y-106242500I0J172500D01*
G01*
X163762000Y-105847500D01*
G75*
G02*
X163934500Y-105675000I172500J0D01*
G01*
X164279500Y-105675000D01*
G75*
G02*
X164452000Y-105847500I0J-172500D01*
G01*
G37*
%TD*%
%TO.C,R501*%
G36*
G01*
X174961000Y-105607500D02*
X174961000Y-105212500D01*
G75*
G02*
X175133500Y-105040000I172500J0D01*
G01*
X175478500Y-105040000D01*
G75*
G02*
X175651000Y-105212500I0J-172500D01*
G01*
X175651000Y-105607500D01*
G75*
G02*
X175478500Y-105780000I-172500J0D01*
G01*
X175133500Y-105780000D01*
G75*
G02*
X174961000Y-105607500I0J172500D01*
G01*
G37*
G36*
G01*
X175931000Y-105607500D02*
X175931000Y-105212500D01*
G75*
G02*
X176103500Y-105040000I172500J0D01*
G01*
X176448500Y-105040000D01*
G75*
G02*
X176621000Y-105212500I0J-172500D01*
G01*
X176621000Y-105607500D01*
G75*
G02*
X176448500Y-105780000I-172500J0D01*
G01*
X176103500Y-105780000D01*
G75*
G02*
X175931000Y-105607500I0J172500D01*
G01*
G37*
%TD*%
%TO.C,R502*%
G36*
G01*
X175971500Y-104464500D02*
X175971500Y-104069500D01*
G75*
G02*
X176144000Y-103897000I172500J0D01*
G01*
X176489000Y-103897000D01*
G75*
G02*
X176661500Y-104069500I0J-172500D01*
G01*
X176661500Y-104464500D01*
G75*
G02*
X176489000Y-104637000I-172500J0D01*
G01*
X176144000Y-104637000D01*
G75*
G02*
X175971500Y-104464500I0J172500D01*
G01*
G37*
G36*
G01*
X175001500Y-104464500D02*
X175001500Y-104069500D01*
G75*
G02*
X175174000Y-103897000I172500J0D01*
G01*
X175519000Y-103897000D01*
G75*
G02*
X175691500Y-104069500I0J-172500D01*
G01*
X175691500Y-104464500D01*
G75*
G02*
X175519000Y-104637000I-172500J0D01*
G01*
X175174000Y-104637000D01*
G75*
G02*
X175001500Y-104464500I0J172500D01*
G01*
G37*
%TD*%
%TO.C,R601*%
G36*
G01*
X112438000Y-102850000D02*
X112438000Y-104160000D01*
G75*
G02*
X112168000Y-104430000I-270000J0D01*
G01*
X111358000Y-104430000D01*
G75*
G02*
X111088000Y-104160000I0J270000D01*
G01*
X111088000Y-102850000D01*
G75*
G02*
X111358000Y-102580000I270000J0D01*
G01*
X112168000Y-102580000D01*
G75*
G02*
X112438000Y-102850000I0J-270000D01*
G01*
G37*
G36*
G01*
X109638000Y-102850000D02*
X109638000Y-104160000D01*
G75*
G02*
X109368000Y-104430000I-270000J0D01*
G01*
X108558000Y-104430000D01*
G75*
G02*
X108288000Y-104160000I0J270000D01*
G01*
X108288000Y-102850000D01*
G75*
G02*
X108558000Y-102580000I270000J0D01*
G01*
X109368000Y-102580000D01*
G75*
G02*
X109638000Y-102850000I0J-270000D01*
G01*
G37*
%TD*%
%TO.C,R701*%
G36*
G01*
X153091500Y-99953000D02*
X153486500Y-99953000D01*
G75*
G02*
X153659000Y-100125500I0J-172500D01*
G01*
X153659000Y-100470500D01*
G75*
G02*
X153486500Y-100643000I-172500J0D01*
G01*
X153091500Y-100643000D01*
G75*
G02*
X152919000Y-100470500I0J172500D01*
G01*
X152919000Y-100125500D01*
G75*
G02*
X153091500Y-99953000I172500J0D01*
G01*
G37*
G36*
G01*
X153091500Y-98983000D02*
X153486500Y-98983000D01*
G75*
G02*
X153659000Y-99155500I0J-172500D01*
G01*
X153659000Y-99500500D01*
G75*
G02*
X153486500Y-99673000I-172500J0D01*
G01*
X153091500Y-99673000D01*
G75*
G02*
X152919000Y-99500500I0J172500D01*
G01*
X152919000Y-99155500D01*
G75*
G02*
X153091500Y-98983000I172500J0D01*
G01*
G37*
%TD*%
%TO.C,R702*%
G36*
G01*
X153091500Y-96120000D02*
X153486500Y-96120000D01*
G75*
G02*
X153659000Y-96292500I0J-172500D01*
G01*
X153659000Y-96637500D01*
G75*
G02*
X153486500Y-96810000I-172500J0D01*
G01*
X153091500Y-96810000D01*
G75*
G02*
X152919000Y-96637500I0J172500D01*
G01*
X152919000Y-96292500D01*
G75*
G02*
X153091500Y-96120000I172500J0D01*
G01*
G37*
G36*
G01*
X153091500Y-95150000D02*
X153486500Y-95150000D01*
G75*
G02*
X153659000Y-95322500I0J-172500D01*
G01*
X153659000Y-95667500D01*
G75*
G02*
X153486500Y-95840000I-172500J0D01*
G01*
X153091500Y-95840000D01*
G75*
G02*
X152919000Y-95667500I0J172500D01*
G01*
X152919000Y-95322500D01*
G75*
G02*
X153091500Y-95150000I172500J0D01*
G01*
G37*
%TD*%
%TO.C,R801*%
G36*
G01*
X149293000Y-106101500D02*
X149293000Y-106496500D01*
G75*
G02*
X149120500Y-106669000I-172500J0D01*
G01*
X148775500Y-106669000D01*
G75*
G02*
X148603000Y-106496500I0J172500D01*
G01*
X148603000Y-106101500D01*
G75*
G02*
X148775500Y-105929000I172500J0D01*
G01*
X149120500Y-105929000D01*
G75*
G02*
X149293000Y-106101500I0J-172500D01*
G01*
G37*
G36*
G01*
X148323000Y-106101500D02*
X148323000Y-106496500D01*
G75*
G02*
X148150500Y-106669000I-172500J0D01*
G01*
X147805500Y-106669000D01*
G75*
G02*
X147633000Y-106496500I0J172500D01*
G01*
X147633000Y-106101500D01*
G75*
G02*
X147805500Y-105929000I172500J0D01*
G01*
X148150500Y-105929000D01*
G75*
G02*
X148323000Y-106101500I0J-172500D01*
G01*
G37*
%TD*%
%TO.C,R802*%
G36*
G01*
X152302500Y-107849750D02*
X152302500Y-108812250D01*
G75*
G02*
X152033750Y-109081000I-268750J0D01*
G01*
X151496250Y-109081000D01*
G75*
G02*
X151227500Y-108812250I0J268750D01*
G01*
X151227500Y-107849750D01*
G75*
G02*
X151496250Y-107581000I268750J0D01*
G01*
X152033750Y-107581000D01*
G75*
G02*
X152302500Y-107849750I0J-268750D01*
G01*
G37*
G36*
G01*
X150427500Y-107849750D02*
X150427500Y-108812250D01*
G75*
G02*
X150158750Y-109081000I-268750J0D01*
G01*
X149621250Y-109081000D01*
G75*
G02*
X149352500Y-108812250I0J268750D01*
G01*
X149352500Y-107849750D01*
G75*
G02*
X149621250Y-107581000I268750J0D01*
G01*
X150158750Y-107581000D01*
G75*
G02*
X150427500Y-107849750I0J-268750D01*
G01*
G37*
%TD*%
%TO.C,R901*%
G36*
G01*
X139578000Y-92555750D02*
X139578000Y-93118250D01*
G75*
G02*
X139334250Y-93362000I-243750J0D01*
G01*
X138846750Y-93362000D01*
G75*
G02*
X138603000Y-93118250I0J243750D01*
G01*
X138603000Y-92555750D01*
G75*
G02*
X138846750Y-92312000I243750J0D01*
G01*
X139334250Y-92312000D01*
G75*
G02*
X139578000Y-92555750I0J-243750D01*
G01*
G37*
G36*
G01*
X138003000Y-92555750D02*
X138003000Y-93118250D01*
G75*
G02*
X137759250Y-93362000I-243750J0D01*
G01*
X137271750Y-93362000D01*
G75*
G02*
X137028000Y-93118250I0J243750D01*
G01*
X137028000Y-92555750D01*
G75*
G02*
X137271750Y-92312000I243750J0D01*
G01*
X137759250Y-92312000D01*
G75*
G02*
X138003000Y-92555750I0J-243750D01*
G01*
G37*
%TD*%
%TO.C,R905*%
G36*
G01*
X132488250Y-107650000D02*
X131925750Y-107650000D01*
G75*
G02*
X131682000Y-107406250I0J243750D01*
G01*
X131682000Y-106918750D01*
G75*
G02*
X131925750Y-106675000I243750J0D01*
G01*
X132488250Y-106675000D01*
G75*
G02*
X132732000Y-106918750I0J-243750D01*
G01*
X132732000Y-107406250D01*
G75*
G02*
X132488250Y-107650000I-243750J0D01*
G01*
G37*
G36*
G01*
X132488250Y-109225000D02*
X131925750Y-109225000D01*
G75*
G02*
X131682000Y-108981250I0J243750D01*
G01*
X131682000Y-108493750D01*
G75*
G02*
X131925750Y-108250000I243750J0D01*
G01*
X132488250Y-108250000D01*
G75*
G02*
X132732000Y-108493750I0J-243750D01*
G01*
X132732000Y-108981250D01*
G75*
G02*
X132488250Y-109225000I-243750J0D01*
G01*
G37*
%TD*%
D26*
%TO.C,U201*%
X163072999Y-75080000D03*
D27*
X170572999Y-67580000D03*
X169302999Y-67580000D03*
X168032999Y-67580000D03*
X166762999Y-67580000D03*
X165492999Y-67580000D03*
X164222999Y-67580000D03*
X162952999Y-67580000D03*
X161682999Y-67580000D03*
X160412999Y-67580000D03*
X159142999Y-67580000D03*
X157872999Y-67580000D03*
X156602999Y-67580000D03*
X155332999Y-67580000D03*
X154062999Y-67580000D03*
D28*
X153062999Y-70365000D03*
X153062999Y-71635000D03*
X153062999Y-72905000D03*
X153062999Y-74175000D03*
X153062999Y-75445000D03*
X153062999Y-76715000D03*
X153062999Y-77985000D03*
X153062999Y-79255000D03*
X153062999Y-80525000D03*
X153062999Y-81795000D03*
D27*
X154062999Y-84580000D03*
X155332999Y-84580000D03*
X156602999Y-84580000D03*
X157872999Y-84580000D03*
X159142999Y-84580000D03*
X160412999Y-84580000D03*
X161682999Y-84580000D03*
X162952999Y-84580000D03*
X164222999Y-84580000D03*
X165492999Y-84580000D03*
X166762999Y-84580000D03*
X168032999Y-84580000D03*
X169302999Y-84580000D03*
X170572999Y-84580000D03*
%TD*%
D29*
%TO.C,U301*%
X95347000Y-93127500D03*
X94397000Y-93127500D03*
X93447000Y-93127500D03*
X93447000Y-95327500D03*
X95347000Y-95327500D03*
X94397000Y-95327500D03*
%TD*%
%TO.C,U401*%
G36*
G01*
X167839000Y-94592000D02*
X168189000Y-94592000D01*
G75*
G02*
X168364000Y-94767000I0J-175000D01*
G01*
X168364000Y-96467000D01*
G75*
G02*
X168189000Y-96642000I-175000J0D01*
G01*
X167839000Y-96642000D01*
G75*
G02*
X167664000Y-96467000I0J175000D01*
G01*
X167664000Y-94767000D01*
G75*
G02*
X167839000Y-94592000I175000J0D01*
G01*
G37*
G36*
G01*
X166569000Y-94592000D02*
X166919000Y-94592000D01*
G75*
G02*
X167094000Y-94767000I0J-175000D01*
G01*
X167094000Y-96467000D01*
G75*
G02*
X166919000Y-96642000I-175000J0D01*
G01*
X166569000Y-96642000D01*
G75*
G02*
X166394000Y-96467000I0J175000D01*
G01*
X166394000Y-94767000D01*
G75*
G02*
X166569000Y-94592000I175000J0D01*
G01*
G37*
G36*
G01*
X165299000Y-94592000D02*
X165649000Y-94592000D01*
G75*
G02*
X165824000Y-94767000I0J-175000D01*
G01*
X165824000Y-96467000D01*
G75*
G02*
X165649000Y-96642000I-175000J0D01*
G01*
X165299000Y-96642000D01*
G75*
G02*
X165124000Y-96467000I0J175000D01*
G01*
X165124000Y-94767000D01*
G75*
G02*
X165299000Y-94592000I175000J0D01*
G01*
G37*
G36*
G01*
X164029000Y-94592000D02*
X164379000Y-94592000D01*
G75*
G02*
X164554000Y-94767000I0J-175000D01*
G01*
X164554000Y-96467000D01*
G75*
G02*
X164379000Y-96642000I-175000J0D01*
G01*
X164029000Y-96642000D01*
G75*
G02*
X163854000Y-96467000I0J175000D01*
G01*
X163854000Y-94767000D01*
G75*
G02*
X164029000Y-94592000I175000J0D01*
G01*
G37*
G36*
G01*
X162759000Y-94592000D02*
X163109000Y-94592000D01*
G75*
G02*
X163284000Y-94767000I0J-175000D01*
G01*
X163284000Y-96467000D01*
G75*
G02*
X163109000Y-96642000I-175000J0D01*
G01*
X162759000Y-96642000D01*
G75*
G02*
X162584000Y-96467000I0J175000D01*
G01*
X162584000Y-94767000D01*
G75*
G02*
X162759000Y-94592000I175000J0D01*
G01*
G37*
G36*
G01*
X161489000Y-94592000D02*
X161839000Y-94592000D01*
G75*
G02*
X162014000Y-94767000I0J-175000D01*
G01*
X162014000Y-96467000D01*
G75*
G02*
X161839000Y-96642000I-175000J0D01*
G01*
X161489000Y-96642000D01*
G75*
G02*
X161314000Y-96467000I0J175000D01*
G01*
X161314000Y-94767000D01*
G75*
G02*
X161489000Y-94592000I175000J0D01*
G01*
G37*
G36*
G01*
X160219000Y-94592000D02*
X160569000Y-94592000D01*
G75*
G02*
X160744000Y-94767000I0J-175000D01*
G01*
X160744000Y-96467000D01*
G75*
G02*
X160569000Y-96642000I-175000J0D01*
G01*
X160219000Y-96642000D01*
G75*
G02*
X160044000Y-96467000I0J175000D01*
G01*
X160044000Y-94767000D01*
G75*
G02*
X160219000Y-94592000I175000J0D01*
G01*
G37*
G36*
G01*
X158949000Y-94592000D02*
X159299000Y-94592000D01*
G75*
G02*
X159474000Y-94767000I0J-175000D01*
G01*
X159474000Y-96467000D01*
G75*
G02*
X159299000Y-96642000I-175000J0D01*
G01*
X158949000Y-96642000D01*
G75*
G02*
X158774000Y-96467000I0J175000D01*
G01*
X158774000Y-94767000D01*
G75*
G02*
X158949000Y-94592000I175000J0D01*
G01*
G37*
G36*
G01*
X158949000Y-99542000D02*
X159299000Y-99542000D01*
G75*
G02*
X159474000Y-99717000I0J-175000D01*
G01*
X159474000Y-101417000D01*
G75*
G02*
X159299000Y-101592000I-175000J0D01*
G01*
X158949000Y-101592000D01*
G75*
G02*
X158774000Y-101417000I0J175000D01*
G01*
X158774000Y-99717000D01*
G75*
G02*
X158949000Y-99542000I175000J0D01*
G01*
G37*
G36*
G01*
X160219000Y-99542000D02*
X160569000Y-99542000D01*
G75*
G02*
X160744000Y-99717000I0J-175000D01*
G01*
X160744000Y-101417000D01*
G75*
G02*
X160569000Y-101592000I-175000J0D01*
G01*
X160219000Y-101592000D01*
G75*
G02*
X160044000Y-101417000I0J175000D01*
G01*
X160044000Y-99717000D01*
G75*
G02*
X160219000Y-99542000I175000J0D01*
G01*
G37*
G36*
G01*
X161489000Y-99542000D02*
X161839000Y-99542000D01*
G75*
G02*
X162014000Y-99717000I0J-175000D01*
G01*
X162014000Y-101417000D01*
G75*
G02*
X161839000Y-101592000I-175000J0D01*
G01*
X161489000Y-101592000D01*
G75*
G02*
X161314000Y-101417000I0J175000D01*
G01*
X161314000Y-99717000D01*
G75*
G02*
X161489000Y-99542000I175000J0D01*
G01*
G37*
G36*
G01*
X162759000Y-99542000D02*
X163109000Y-99542000D01*
G75*
G02*
X163284000Y-99717000I0J-175000D01*
G01*
X163284000Y-101417000D01*
G75*
G02*
X163109000Y-101592000I-175000J0D01*
G01*
X162759000Y-101592000D01*
G75*
G02*
X162584000Y-101417000I0J175000D01*
G01*
X162584000Y-99717000D01*
G75*
G02*
X162759000Y-99542000I175000J0D01*
G01*
G37*
G36*
G01*
X164029000Y-99542000D02*
X164379000Y-99542000D01*
G75*
G02*
X164554000Y-99717000I0J-175000D01*
G01*
X164554000Y-101417000D01*
G75*
G02*
X164379000Y-101592000I-175000J0D01*
G01*
X164029000Y-101592000D01*
G75*
G02*
X163854000Y-101417000I0J175000D01*
G01*
X163854000Y-99717000D01*
G75*
G02*
X164029000Y-99542000I175000J0D01*
G01*
G37*
G36*
G01*
X165299000Y-99542000D02*
X165649000Y-99542000D01*
G75*
G02*
X165824000Y-99717000I0J-175000D01*
G01*
X165824000Y-101417000D01*
G75*
G02*
X165649000Y-101592000I-175000J0D01*
G01*
X165299000Y-101592000D01*
G75*
G02*
X165124000Y-101417000I0J175000D01*
G01*
X165124000Y-99717000D01*
G75*
G02*
X165299000Y-99542000I175000J0D01*
G01*
G37*
G36*
G01*
X166569000Y-99542000D02*
X166919000Y-99542000D01*
G75*
G02*
X167094000Y-99717000I0J-175000D01*
G01*
X167094000Y-101417000D01*
G75*
G02*
X166919000Y-101592000I-175000J0D01*
G01*
X166569000Y-101592000D01*
G75*
G02*
X166394000Y-101417000I0J175000D01*
G01*
X166394000Y-99717000D01*
G75*
G02*
X166569000Y-99542000I175000J0D01*
G01*
G37*
G36*
G01*
X167839000Y-99542000D02*
X168189000Y-99542000D01*
G75*
G02*
X168364000Y-99717000I0J-175000D01*
G01*
X168364000Y-101417000D01*
G75*
G02*
X168189000Y-101592000I-175000J0D01*
G01*
X167839000Y-101592000D01*
G75*
G02*
X167664000Y-101417000I0J175000D01*
G01*
X167664000Y-99717000D01*
G75*
G02*
X167839000Y-99542000I175000J0D01*
G01*
G37*
%TD*%
D30*
%TO.C,U402*%
X170681500Y-97061400D03*
D31*
X170719000Y-97561400D03*
D30*
X170681500Y-96561400D03*
X170681500Y-98061400D03*
X171456500Y-96561400D03*
X171456500Y-97061400D03*
X170681500Y-98561400D03*
D32*
X171481500Y-97561400D03*
D30*
X171456500Y-98561400D03*
X171456500Y-98061400D03*
%TD*%
D33*
%TO.C,U601*%
X110625000Y-106051500D03*
D34*
X111125000Y-106014000D03*
D33*
X110125000Y-106051500D03*
X111625000Y-106051500D03*
X110125000Y-105276500D03*
X110625000Y-105276500D03*
X112125000Y-106051500D03*
D35*
X111125000Y-105251500D03*
D33*
X112125000Y-105276500D03*
X111625000Y-105276500D03*
%TD*%
%TO.C,U602*%
G36*
G01*
X116398500Y-86960000D02*
X116773500Y-86960000D01*
G75*
G02*
X116961000Y-87147500I0J-187500D01*
G01*
X116961000Y-89222500D01*
G75*
G02*
X116773500Y-89410000I-187500J0D01*
G01*
X116398500Y-89410000D01*
G75*
G02*
X116211000Y-89222500I0J187500D01*
G01*
X116211000Y-87147500D01*
G75*
G02*
X116398500Y-86960000I187500J0D01*
G01*
G37*
G36*
G01*
X113858500Y-86960000D02*
X114233500Y-86960000D01*
G75*
G02*
X114421000Y-87147500I0J-187500D01*
G01*
X114421000Y-89222500D01*
G75*
G02*
X114233500Y-89410000I-187500J0D01*
G01*
X113858500Y-89410000D01*
G75*
G02*
X113671000Y-89222500I0J187500D01*
G01*
X113671000Y-87147500D01*
G75*
G02*
X113858500Y-86960000I187500J0D01*
G01*
G37*
G36*
G01*
X111318500Y-86960000D02*
X111693500Y-86960000D01*
G75*
G02*
X111881000Y-87147500I0J-187500D01*
G01*
X111881000Y-89222500D01*
G75*
G02*
X111693500Y-89410000I-187500J0D01*
G01*
X111318500Y-89410000D01*
G75*
G02*
X111131000Y-89222500I0J187500D01*
G01*
X111131000Y-87147500D01*
G75*
G02*
X111318500Y-86960000I187500J0D01*
G01*
G37*
G36*
G01*
X108778500Y-86960000D02*
X109153500Y-86960000D01*
G75*
G02*
X109341000Y-87147500I0J-187500D01*
G01*
X109341000Y-89222500D01*
G75*
G02*
X109153500Y-89410000I-187500J0D01*
G01*
X108778500Y-89410000D01*
G75*
G02*
X108591000Y-89222500I0J187500D01*
G01*
X108591000Y-87147500D01*
G75*
G02*
X108778500Y-86960000I187500J0D01*
G01*
G37*
G36*
G01*
X108778500Y-96010000D02*
X109153500Y-96010000D01*
G75*
G02*
X109341000Y-96197500I0J-187500D01*
G01*
X109341000Y-98272500D01*
G75*
G02*
X109153500Y-98460000I-187500J0D01*
G01*
X108778500Y-98460000D01*
G75*
G02*
X108591000Y-98272500I0J187500D01*
G01*
X108591000Y-96197500D01*
G75*
G02*
X108778500Y-96010000I187500J0D01*
G01*
G37*
G36*
G01*
X111318500Y-96010000D02*
X111693500Y-96010000D01*
G75*
G02*
X111881000Y-96197500I0J-187500D01*
G01*
X111881000Y-98272500D01*
G75*
G02*
X111693500Y-98460000I-187500J0D01*
G01*
X111318500Y-98460000D01*
G75*
G02*
X111131000Y-98272500I0J187500D01*
G01*
X111131000Y-96197500D01*
G75*
G02*
X111318500Y-96010000I187500J0D01*
G01*
G37*
G36*
G01*
X113858500Y-96010000D02*
X114233500Y-96010000D01*
G75*
G02*
X114421000Y-96197500I0J-187500D01*
G01*
X114421000Y-98272500D01*
G75*
G02*
X114233500Y-98460000I-187500J0D01*
G01*
X113858500Y-98460000D01*
G75*
G02*
X113671000Y-98272500I0J187500D01*
G01*
X113671000Y-96197500D01*
G75*
G02*
X113858500Y-96010000I187500J0D01*
G01*
G37*
G36*
G01*
X116398500Y-96010000D02*
X116773500Y-96010000D01*
G75*
G02*
X116961000Y-96197500I0J-187500D01*
G01*
X116961000Y-98272500D01*
G75*
G02*
X116773500Y-98460000I-187500J0D01*
G01*
X116398500Y-98460000D01*
G75*
G02*
X116211000Y-98272500I0J187500D01*
G01*
X116211000Y-96197500D01*
G75*
G02*
X116398500Y-96010000I187500J0D01*
G01*
G37*
%TD*%
D25*
%TO.C,U603*%
X119502000Y-97384000D03*
X118552000Y-95384000D03*
X120452000Y-95384000D03*
%TD*%
D30*
%TO.C,U701*%
X146424500Y-97258000D03*
X146424500Y-96758000D03*
D32*
X146399500Y-97758000D03*
D30*
X147199500Y-96758000D03*
X146424500Y-98258000D03*
X146424500Y-98758000D03*
X147199500Y-97258000D03*
X147199500Y-98758000D03*
D31*
X147162000Y-97758000D03*
D30*
X147199500Y-98258000D03*
%TD*%
D33*
%TO.C,U801*%
X151503000Y-109975500D03*
X152003000Y-109975500D03*
D35*
X151003000Y-109950500D03*
D33*
X152003000Y-110750500D03*
X150503000Y-109975500D03*
X150003000Y-109975500D03*
X151503000Y-110750500D03*
X150003000Y-110750500D03*
D34*
X151003000Y-110713000D03*
D33*
X150503000Y-110750500D03*
%TD*%
D36*
%TO.C,SW501*%
X163068000Y-109982000D03*
X169368000Y-109982000D03*
X163068000Y-113782000D03*
X169368000Y-113782000D03*
%TD*%
%TO.C,SW502*%
X160630000Y-113790000D03*
X154330000Y-113790000D03*
X160630000Y-109990000D03*
X154330000Y-109990000D03*
%TD*%
%TO.C,J301*%
G36*
G01*
X104074000Y-108586389D02*
X104074000Y-111758611D01*
G75*
G02*
X103810111Y-112022500I-263889J0D01*
G01*
X102437889Y-112022500D01*
G75*
G02*
X102174000Y-111758611I0J263889D01*
G01*
X102174000Y-108586389D01*
G75*
G02*
X102437889Y-108322500I263889J0D01*
G01*
X103810111Y-108322500D01*
G75*
G02*
X104074000Y-108586389I0J-263889D01*
G01*
G37*
D37*
X99314000Y-110172500D03*
%TD*%
%TO.C,J601*%
G36*
G01*
X123759000Y-108649889D02*
X123759000Y-111822111D01*
G75*
G02*
X123495111Y-112086000I-263889J0D01*
G01*
X122122889Y-112086000D01*
G75*
G02*
X121859000Y-111822111I0J263889D01*
G01*
X121859000Y-108649889D01*
G75*
G02*
X122122889Y-108386000I263889J0D01*
G01*
X123495111Y-108386000D01*
G75*
G02*
X123759000Y-108649889I0J-263889D01*
G01*
G37*
X118999000Y-110236000D03*
X115189000Y-110236000D03*
X111379000Y-110236000D03*
%TD*%
D15*
%TO.C,J702*%
X143764000Y-102838000D03*
D14*
X143764000Y-100298000D03*
X143764000Y-97758000D03*
X143764000Y-95218000D03*
%TD*%
D15*
%TO.C,J801*%
X146176001Y-113157000D03*
D14*
X148716001Y-113157000D03*
X151256001Y-113157000D03*
%TD*%
%TO.C,J901*%
X137175000Y-113235000D03*
X134635000Y-113235000D03*
X132095000Y-113235000D03*
D15*
X129555000Y-113235000D03*
%TD*%
M02*
